<svg xmlns="http://www.w3.org/2000/svg" width="56" height="10" fill="none" viewBox="0 0 56 10"><path fill="#1b4683" d="M55.914 0H0v9.664h55.914z"/><path fill="#1b4683" d="M55.915 0H9.33v9.664h46.585z"/><path fill="#fff" d="M12.294 7.118V2.542h1.443v1.54h1.364v-1.54h1.462v4.576h-1.462V5.333h-1.364v1.785zm6.562-3.448h.376c.277 0 .474.021.593.083a.47.47 0 0 1 .237.205.9.9 0 0 1 .138.37c.04.143.06.307.06.471q0 .4-.119.677a.78.78 0 0 1-.316.39c-.139.082-.336.123-.613.123h-.356zm.554 3.448c.336 0 .632-.021.85-.103.237-.062.415-.144.573-.246.138-.103.276-.246.395-.41a2.5 2.5 0 0 0 .316-.657q.12-.4.119-.924c0-.512-.099-.923-.277-1.292q-.296-.523-.77-.739a2.9 2.9 0 0 0-1.167-.226h-2.016v4.576h1.977zm2.925-.001V2.542h3.44v1.129h-2.017v.739h1.601v1.108h-1.6v1.62h-1.424zm8.302-2.832h-1.364c-.02-.226-.098-.41-.237-.533a.72.72 0 0 0-.514-.185.77.77 0 0 0-.632.308c-.158.205-.237.533-.237 1.005 0 .328.04.554.099.718q.089.247.296.37a.8.8 0 0 0 .455.123.77.77 0 0 0 .533-.185q.209-.185.237-.554h1.404c-.04.287-.08.513-.158.718-.08.185-.218.39-.396.575a1.7 1.7 0 0 1-.672.451 2.4 2.4 0 0 1-.89.164c-.335 0-.651-.04-.928-.143s-.534-.247-.711-.431a1.85 1.85 0 0 1-.455-.657 2.7 2.7 0 0 1-.237-1.149 3.2 3.2 0 0 1 .158-.985c.118-.308.257-.554.454-.78a2.1 2.1 0 0 1 .653-.471c.296-.144.632-.206 1.008-.206.316 0 .612.041.909.144.277.103.514.246.692.431s.316.41.415.657c.079.164.118.39.138.636zm4.643-.717c.198 0 .336 0 .396.02.079.02.158.082.197.144.06.061.08.143.08.246 0 .123-.04.205-.139.287s-.237.103-.474.103h-.554v-.8zm.356 3.55c.336 0 .593 0 .731-.042a2.2 2.2 0 0 0 .435-.164c.139-.082.257-.144.316-.226.119-.102.198-.246.257-.39.06-.164.1-.348.1-.533 0-.267-.06-.513-.199-.698a1 1 0 0 0-.533-.369c.375-.246.573-.574.573-.964s-.178-.718-.494-.924c-.257-.164-.652-.246-1.206-.246h-2.193V7.14h2.233zM35.4 5.21c.296 0 .474.041.573.103a.437.437 0 0 1 0 .636c-.099.082-.277.123-.553.123h-.593V5.21h.593zm5.258.37h-.929l.455-1.663zm-1.364 1.538.158-.595h1.443l.178.595h1.443l-1.581-4.576h-1.483l-1.58 4.576zm3.835 0V2.542h1.344l1.522 2.442V2.542h1.383v4.576h-1.383l-1.483-2.38v2.38zm5.234 0V2.542h1.404v1.519l1.304-1.519h1.7l-1.62 1.724 1.778 2.852h-1.74l-1.067-1.826-.395.39v1.436h-1.403z"/><path fill="#dc2227" d="M9.309 0H0v9.664h9.309z"/><path fill="#fff" d="M7.69 1.682H1.642v6.279H7.69z"/><path fill="#fff" d="M5.14 0h-.928v9.664h.929z"/><path fill="#fff" d="M9.309 4.35H0v.964h9.309z"/><path fill="#1b4683" d="M6.047 3.386H3.26v2.893h2.787z"/></svg>