<svg width="51" height="51" viewBox="0 0 51 51" fill="none" xmlns="http://www.w3.org/2000/svg">
<g clip-path="url(#clip0_870_2762)">
<rect x="-0.83606" width="51.8361" height="51.8361" fill="white"/>
<path d="M21.5563 27.4185H24.6252L25.0098 38.0499H22.4675L22.5103 36.0262H20.0098L19.2214 38.0499H16.6791L21.5563 27.4185ZM22.6458 29.3531H22.6161L20.7638 34.0919H22.5463L22.6458 29.3531Z" fill="#FC2400"/>
<path d="M28.0175 27.4185H31.8208C34.4088 27.4185 34.5084 29.3289 34.2317 30.649C33.8339 32.5595 32.6608 33.8965 30.2054 33.8965H29.1223L28.2547 38.0499H25.7992L28.0175 27.4185ZM29.5135 32.0491H30.1865C31.1671 32.0491 31.5303 31.4233 31.6825 30.7085C31.8535 29.8899 31.7209 29.2641 30.7251 29.2641H30.0968L29.5135 32.0491Z" fill="#FC2400"/>
<path d="M35.8537 27.4185H39.6537C42.2417 27.4185 42.3413 29.3289 42.0645 30.649C41.6672 32.5595 40.4959 33.8965 38.0404 33.8965H36.9593L36.0916 38.0499H33.6383L35.8537 27.4185ZM37.3497 32.0491H38.0208C39.0014 32.0491 39.3646 31.4233 39.5168 30.7085C39.6878 29.8899 39.5553 29.2641 38.5616 29.2641H37.9333L37.3497 32.0491Z" fill="#FC2400"/>
<path d="M15.1975 26.3941L6.16357 26.438L21.1297 23.2L13.3083 39.1589H36.6147L7.28196 43L15.1975 26.3941Z" fill="#FC2400"/>
<path d="M22.0845 10.1064H25.8863C28.4744 10.1064 28.5739 12.0168 28.2972 13.3369C27.8977 15.2474 26.7286 16.5844 24.2709 16.5844H23.1893L22.3213 20.7378H19.8662L22.0845 10.1064ZM23.5805 14.737H24.2538C25.2345 14.737 25.5976 14.1112 25.7498 13.3964C25.9187 12.5778 25.7861 11.9519 24.7924 11.9519H24.1554L23.5805 14.737Z" fill="#0048AA"/>
<path d="M30.7545 10.1064H33.8234L34.2084 20.7378H31.6632L31.7061 18.7141H29.2056L28.4192 20.7378H25.8733L30.7545 10.1064ZM31.8401 12.041H31.8038L29.9617 16.7798H31.7442L31.8401 12.041Z" fill="#0048AA"/>
<path d="M36.1608 16.5549L34.8613 10.1064H37.5732L37.9193 14.0517H37.9492L39.9713 10.1064H42.6022L38.6098 16.5549L37.7443 20.7363H35.2888L36.1608 16.5549Z" fill="#0048AA"/>
<path d="M14.4357 11.8887H11.5216L10.9034 14.8564H9.04993L8.82532 15.9375H10.6779L10.0597 18.9033H12.9728L12.5782 20.793H7.81165L10.0636 10H14.8302L14.4357 11.8887ZM18.4015 20.793H13.6359L14.0304 18.9033H16.9435L17.5626 15.9375H19.4142L18.4015 20.793ZM19.6398 14.8564H17.7882L18.4073 11.8887H15.4952L15.8898 10H20.6534L19.6398 14.8564Z" fill="#FC2400"/>
<path d="M15.4845 17.0151H12.3066L12.98 13.7802H16.16L15.4845 17.0151Z" fill="#0048AA"/>
</g>
<rect x="0.5" y="0.5" width="49.1639" height="50" rx="9.53279" stroke="#CAF2D3"/>
<defs>
<clipPath id="clip0_870_2762">
<rect width="50.1639" height="51" rx="10.0328" fill="white"/>
</clipPath>
</defs>
</svg>
