<svg xmlns="http://www.w3.org/2000/svg" width="51" height="51" fill="none" viewBox="0 0 51 51"><g clip-path="url(#a)"><path fill="#fff" d="M-.836 0H51v51.836H-.836z"/><path fill="#fc2400" d="M21.556 27.419h3.07l.384 10.63h-2.543l.043-2.023h-2.5l-.789 2.024H16.68zm1.09 1.934h-.03l-1.852 4.739h1.782zm5.372-1.934h3.803c2.588 0 2.687 1.91 2.41 3.23-.397 1.91-1.57 3.248-4.026 3.248h-1.083l-.867 4.153h-2.456zm1.495 4.63h.673c.981 0 1.344-.626 1.497-1.34.17-.82.038-1.445-.958-1.445h-.628zm6.341-4.63h3.8c2.588 0 2.687 1.91 2.41 3.23-.397 1.91-1.568 3.248-4.024 3.248h-1.08l-.868 4.153h-2.454zm1.496 4.63h.67c.981 0 1.345-.626 1.497-1.34.17-.82.038-1.445-.955-1.445h-.629z"/><path fill="#fc2400" d="m15.198 26.394-9.034.044L21.13 23.2l-7.822 15.959h23.307L7.282 43z"/><path fill="#0048aa" d="M22.085 10.106h3.801c2.588 0 2.688 1.91 2.411 3.23-.4 1.911-1.568 3.248-4.026 3.248h-1.082l-.868 4.154h-2.455zm1.495 4.631h.674c.98 0 1.344-.626 1.496-1.34.169-.82.036-1.445-.958-1.445h-.637zm7.175-4.631h3.068l.385 10.632h-2.545l.043-2.024h-2.5l-.787 2.024h-2.546zm1.085 1.935h-.036l-1.842 4.739h1.782zm4.32 4.514-1.299-6.449h2.712l.346 3.946h.03l2.022-3.946h2.631l-3.992 6.449-.866 4.181H35.29z"/><path fill="#fc2400" d="M14.436 11.889h-2.914l-.619 2.967H9.05l-.225 1.082h1.853l-.618 2.965h2.913l-.395 1.89H7.812L10.064 10h4.766zm3.965 8.904h-4.765l.394-1.89h2.914l.619-2.965h1.851zm1.239-5.937h-1.852l.62-2.967h-2.913L15.89 10h4.763z"/><path fill="#0048aa" d="M15.485 17.015h-3.178l.673-3.235h3.18z"/></g><rect width="49.164" height="50" x=".5" y=".5" stroke="#caf2d3" rx="9.533"/><defs><clipPath id="a"><rect width="50.164" height="51" fill="#fff" rx="10.033"/></clipPath></defs></svg>