<svg xmlns="http://www.w3.org/2000/svg" width="37" height="18" fill="none" viewBox="0 0 37 18"><path fill="#008c44" d="m34.039 4.717 2.035 4.101-4.279 4.103z"/><path fill="#f47920" d="m32.628 4.717 2.033 4.101-4.276 4.103z"/><path fill="#475769" d="m0 11.43 2.03-7.418h3.243c1.014 0 1.691.163 2.036.498.342.333.408.877.202 1.64q-.186.677-.575 1.127a2.7 2.7 0 0 1-1.019.709q.533.13.684.518.151.387-.033 1.13l-.247 1.036v.028q-.108.437.065.458l-.074.274H4.117q.012-.263.036-.461.024-.201.055-.31l.204-.74q.156-.578.014-.81-.143-.236-.654-.236H2.85l-.703 2.557zM3.306 7.2h.988c.346 0 .602-.05.76-.153.158-.105.275-.281.344-.537q.106-.39-.049-.544-.154-.157-.731-.156h-.931zm10.226-1.243-1.496 5.475h-1.818l.224-.803c-.32.32-.648.562-.978.716a2.36 2.36 0 0 1-1.036.235c-.3 0-.559-.055-.767-.165a1.06 1.06 0 0 1-.472-.495q-.142-.289-.118-.713.024-.42.294-1.41l.775-2.84h1.988l-.774 2.828c-.113.413-.14.704-.084.863q.086.241.459.242a.83.83 0 0 0 .635-.28q.263-.279.415-.834l.767-2.819zm-.719 5.473 2.027-7.418h2.788q.923-.001 1.431.117c.34.078.605.204.803.381q.37.348.461.864c.059.345.024.746-.104 1.218q-.342 1.243-1.193 1.909-.853.657-2.113.658h-1.305l-.62 2.271zm3.289-4.083h.701q.679-.001.959-.166.27-.168.387-.59.118-.427-.06-.594-.172-.165-.87-.166h-.7zm6.455 4.083.02-.52a3.6 3.6 0 0 1-.972.542 3 3 0 0 1-1.042.177c-.563 0-.956-.155-1.183-.456-.224-.3-.26-.733-.108-1.285q.22-.817.783-1.201c.374-.26.998-.445 1.874-.564.111-.018.26-.033.446-.055.648-.076 1.011-.252 1.09-.537q.062-.236-.08-.343-.14-.11-.514-.11a.9.9 0 0 0-.51.134.8.8 0 0 0-.306.413h-1.939a2.26 2.26 0 0 1 1.07-1.394c.535-.316 1.24-.469 2.114-.469q.616-.001 1.104.124c.326.081.564.197.718.336q.286.263.335.594.054.329-.117.946l-.834 3.052a.6.6 0 0 0-.017.27c.017.078.05.144.11.191l-.046.155zm.483-2.445a7 7 0 0 1-.826.26q-.804.219-.902.58c-.046.155-.027.274.047.365q.111.13.381.13.496 0 .793-.252.296-.253.45-.802l.044-.176zm1.53 4.602.44-1.62h.57q.286-.002.445-.108.161-.11.223-.357.03-.106.043-.234a3 3 0 0 0 0-.3l-.303-5.013H28l-.031 3.322 1.757-3.322h1.872l-3.107 5.448q-.527.915-.77 1.256a2.6 2.6 0 0 1-.462.52q-.288.245-.636.348t-1.058.103q-.208.001-.463-.011a13 13 0 0 1-.532-.032"/></svg>