<svg xmlns="http://www.w3.org/2000/svg" width="24" height="24" fill="none" viewBox="0 0 24 24"><path fill="#000" fill-rule="evenodd" d="M11.877 2c-5.423.005-9.938 4.399-9.87 9.82.07 5.57 4.605 10.188 10.18 10.18 5.434-.008 9.803-4.549 9.82-9.98.016-5.528-4.6-10.025-10.13-10.02m-.298 5.833a1.24 1.24 0 0 0-1.241 1.241.834.834 0 0 1-1.668 0 2.91 2.91 0 0 1 2.909-2.907h.426A3.334 3.334 0 0 1 15.34 9.5v.36a2.974 2.974 0 0 1-2.912 2.973v.852a.834.834 0 0 1-1.667 0v-.915c0-.885.718-1.603 1.604-1.603.722 0 1.308-.585 1.308-1.307V9.5c0-.92-.747-1.667-1.668-1.667zm.843 8.334a.833.833 0 1 1-1.667 0 .833.833 0 0 1 1.667 0" clip-rule="evenodd"/></svg>