<svg xmlns="http://www.w3.org/2000/svg" width="24" height="24" fill="none" viewBox="0 0 24 24"><path fill="#8f242a" fill-rule="evenodd" d="M20.224 6.572c-.313-1.088-.469-1.632-.726-2.073a4.02 4.02 0 0 0-2.459-1.872C16.55 2.5 15.992 2.5 14.876 2.5H9.194c-1.116 0-1.674 0-2.163.127a4.02 4.02 0 0 0-2.46 1.872c-.256.44-.412.985-.725 2.073l-.895 3.114a1 1 0 0 0-.102-.02L.863 9.382a.67.67 0 0 0-.756.576l-.094.672a1.354 1.354 0 0 0 1.136 1.535l.19.027v2.523a4.07 4.07 0 0 0 2.692 3.847 1.4 1.4 0 0 0-.018.225v1.357c0 .75.599 1.357 1.337 1.357h1.337c.738 0 1.337-.608 1.337-1.357v-1.357h8.022v1.357c0 .75.599 1.357 1.337 1.357h1.337c.738 0 1.337-.608 1.337-1.357v-1.357a1.4 1.4 0 0 0-.018-.225 4.07 4.07 0 0 0 2.692-3.847v-2.533l.12-.017a1.354 1.354 0 0 0 1.136-1.534l-.094-.672a.67.67 0 0 0-.756-.577l-1.986.286-.036.006zM6.193 6.328c.301-.86.452-1.29.791-1.537l.019-.013c.343-.242.793-.242 1.692-.242h6.769c.922 0 1.383 0 1.731.252l.012.008c.345.256.491.7.783 1.588.616 1.878.925 2.817.49 3.39l-.014.017c-.445.565-1.452.48-3.467.312a36 36 0 0 0-2.964-.139c-.94 0-1.934.054-2.876.131-2.044.168-3.066.252-3.51-.318l-.022-.03c-.428-.582-.096-1.528.566-3.419m-1.38 7.192a.67.67 0 0 0-.8.665v1.208c0 .375.3.679.669.679h2.191a.84.84 0 0 0 .787-1.109 1.67 1.67 0 0 0-1.249-1.119zm15.244.665a.67.67 0 0 0-.8-.665l-1.598.324a1.67 1.67 0 0 0-1.25 1.12.84.84 0 0 0 .788 1.108h2.191c.37 0 .669-.304.669-.679z" clip-rule="evenodd"/></svg>