<svg xmlns="http://www.w3.org/2000/svg" width="24" height="24" fill="none" viewBox="0 0 24 24"><g clip-path="url(#a)"><path fill="#8f242a" fill-rule="evenodd" d="M9.326 1.887a.53.53 0 0 1 0-.735.494.494 0 0 1 .713 0l1.957 2.014h.015l1.948-2.005a.494.494 0 0 1 .714 0 .53.53 0 0 1 0 .735L13.424 3.18c.902.018 1.813.05 2.755.1 2.818.144 4.226.217 5.28 1.167s1.272 2.334 1.705 5.103c.293 1.869.501 3.612.647 5.428.276 3.435.414 5.153-.715 6.428-1.128 1.274-2.894 1.347-6.427 1.494-3.2.132-6.108.132-9.314 0-3.544-.146-5.316-.219-6.444-1.49-1.129-1.272-.994-3.002-.723-6.463.142-1.819.345-3.573.639-5.455.425-2.733.638-4.1 1.693-5.051s2.45-1.023 5.238-1.166c.968-.05 1.902-.082 2.822-.098zM5.708 6.875c-.805.716-.957 1.69-1.26 3.636l-.072.485c-.356 2.541-.535 3.812.333 4.837.867 1.025 2.24 1.062 4.983 1.135 1.577.043 3.068.042 4.643 0 2.73-.074 4.095-.11 4.962-1.139.867-1.027.687-2.287.327-4.805l-.07-.468c-.312-1.976-.468-2.964-1.272-3.679-.805-.714-1.852-.753-3.946-.831a62 62 0 0 0-4.716-.002c-2.071.077-3.107.115-3.912.831m14.36 12.91c0 .574-.452 1.04-1.01 1.04-.556 0-1.008-.466-1.008-1.04 0-.573.452-1.038 1.009-1.038s1.009.465 1.009 1.039" clip-rule="evenodd"/></g><defs><clipPath id="a"><path fill="#fff" d="M0 0h24v24H0z"/></clipPath></defs></svg>