<svg xmlns="http://www.w3.org/2000/svg" width="24" height="24" fill="none" viewBox="0 0 24 24"><path fill="#1f589a" fill-rule="evenodd" d="M11.207 5.914c-.45.376-.459 1.06-.045 1.477a44 44 0 0 1 3.284 3.714c.37.463.554.694.554.978s-.185.515-.554.978l-.263.328c-.147.182-.229.41-.229.644v.976c0 .87.692 1.575 1.546 1.575.853 0 1.545-.705 1.545-1.575v-3.18a1.17 1.17 0 0 1 1.16-1.18c.64 0 1.158.528 1.158 1.18v3.18c0 .87.692 1.575 1.546 1.575.853 0 1.545-.705 1.545-1.575V11.01c0-.2.16-.363.356-.363.7 0 1.05 0 1.16-.198.112-.198-.099-.44-.52-.923-2.208-2.532-4.008-4.09-7-6.075-.454-.302-.68-.452-.953-.452s-.499.152-.952.454c-1.287.858-2.355 1.64-3.338 2.46m5.612.66c0 .79-.628 1.43-1.403 1.43-.774 0-1.402-.64-1.402-1.43s.628-1.43 1.402-1.43c.775 0 1.403.641 1.403 1.43" clip-rule="evenodd"/><path fill="#1f589a" d="M8.103 21H22.9c.72 0 1.242-.719 1.065-1.453l-.132-.541c-.125-.51-.566-.866-1.066-.866H8.235c-.5 0-.941.363-1.066.874l-.132.54C6.853 20.282 7.382 21 8.103 21m-.89-10.564c-.22.101-.502.101-1.068.101H1.542A1.55 1.55 0 0 0 0 12.093c0 .86.69 1.557 1.542 1.557h4.602c.567 0 .85 0 1.07.102.243.112.438.308.549.553.1.223.1.509.1 1.081 0 1.055 0 1.583.331 1.73.331.149.713-.2 1.476-.898a31.5 31.5 0 0 0 3.243-3.425c.274-.33.41-.497.41-.7s-.136-.368-.41-.7a31.5 31.5 0 0 0-3.242-3.422c-.764-.699-1.146-1.048-1.477-.9-.33.148-.33.676-.33 1.732 0 .57 0 .856-.1 1.078a1.12 1.12 0 0 1-.55.555"/></svg>