<svg width="24" height="24" viewBox="0 0 24 24" fill="none" xmlns="http://www.w3.org/2000/svg">
<path fill-rule="evenodd" clip-rule="evenodd" d="M13.5979 0.950001C15.4536 2.75 17.9278 3.85 20.5567 4.05C21.3299 4.1 21.9485 4.75 22 5.55V8.5C22 14.85 18.4433 20.7 12.7732 23.8C12.5155 23.95 12.2577 24 12 24C11.7423 24 11.4845 23.95 11.2268 23.8C5.50515 20.7 2 14.85 2 8.5V5.55C2 4.75 2.61856 4.1 3.4433 4.05C6.07217 3.85 8.54639 2.75 10.4021 0.950001L10.9175 0.450001C11.1753 0.150001 11.5876 0 12 0C12.4124 0 12.7732 0.150001 13.0825 0.450001L13.5979 0.950001ZM16.6576 10.3684L12.0096 15.5263C11.7513 15.7895 11.3898 15.9474 11.0283 16C10.6668 16 10.3053 15.8421 10.047 15.5789L7.41316 12.8947C7.15494 12.6316 7 12.2632 7 11.8947C7 11.5263 7.15494 11.1579 7.41316 10.8947C7.92961 10.3684 8.80757 10.3684 9.32402 10.8947L10.9767 12.5789L14.6951 8.47369C14.9533 8.21053 15.2632 8.05263 15.6247 8C15.9862 8 16.3477 8.10526 16.606 8.36842C17.1224 8.94737 17.1224 9.84211 16.6576 10.3684Z" fill="#622970"/>
</svg>
