<svg xmlns="http://www.w3.org/2000/svg" width="24" height="24" fill="none" viewBox="0 0 24 24"><path fill="#622970" fill-rule="evenodd" d="M13.598.95c1.856 1.8 4.33 2.9 6.959 3.1.773.05 1.392.7 1.443 1.5V8.5c0 6.35-3.557 12.2-9.227 15.3-.258.15-.515.2-.773.2a1.5 1.5 0 0 1-.773-.2C5.505 20.7 2 14.85 2 8.5V5.55c0-.8.619-1.45 1.443-1.5 2.63-.2 5.103-1.3 6.96-3.1l.515-.5C11.175.15 11.588 0 12 0q.618 0 1.082.45zm3.06 9.418-4.648 5.158c-.259.264-.62.421-.982.474-.361 0-.723-.158-.981-.421l-2.634-2.684a1.45 1.45 0 0 1-.413-1c0-.369.155-.737.413-1a1.354 1.354 0 0 1 1.911 0l1.653 1.684 3.718-4.105q.387-.394.93-.474c.361 0 .723.105.981.368.516.58.516 1.474.052 2" clip-rule="evenodd"/></svg>