<svg xmlns="http://www.w3.org/2000/svg" width="24" height="24" fill="none" viewBox="0 0 24 24"><g fill="#297034" clip-path="url(#a)"><path fill-rule="evenodd" d="M13.344 8.717c1.08 0 2.004.763 2.189 1.808l.644 3.636a.55.55 0 0 0 .545.45c.86 0 1.555.685 1.555 1.529v3.493c0 1.206-.994 2.183-2.222 2.183a.33.33 0 0 0-.333.328v.762a1.1 1.1 0 0 1-1.11 1.09h-.373a1.1 1.1 0 0 1-1.11-1.09 1.1 1.1 0 0 0-1.109-1.09H6.46a1.1 1.1 0 0 0-1.108 1.09 1.1 1.1 0 0 1-1.11 1.09h-.374a1.1 1.1 0 0 1-1.109-1.09v-1.053a.037.037 0 0 0-.037-.037C1.495 21.816.5 20.84.5 19.633V16.14c0-.844.696-1.529 1.556-1.529.097 0 .18-.068.196-.162l.695-3.924c.186-1.045 1.11-1.808 2.19-1.808zm1.806 10.432c-.159.097-.349.12-.535.12h-.303c-.187 0-.377-.023-.535-.12a1.27 1.27 0 0 1-.61-1.08c0-.704.58-1.274 1.296-1.274s1.297.57 1.297 1.273c0 .456-.244.856-.61 1.081m-9.613-1.08c0 .455-.244.855-.61 1.08-.158.097-.349.12-.535.12h-.303c-.187 0-.377-.023-.535-.12a1.27 1.27 0 0 1-.61-1.08c0-.704.58-1.274 1.296-1.274s1.297.57 1.297 1.273m.285-7.387c-.54 0-1.001.38-1.094.903l-.26 1.452a1.1 1.1 0 0 0 1.095 1.28h7.355c.69 0 1.214-.612 1.094-1.28l-.258-1.452a1.106 1.106 0 0 0-1.095-.904z" clip-rule="evenodd"/><path d="M8.107 1.608A.88.88 0 0 1 7.92.359.92.92 0 0 1 9.192.177l11.667 8.54h1.085v.003a1.65 1.65 0 0 1 1.556 1.634v12.009c0 .904-.746 1.637-1.667 1.637-.92 0-1.666-.733-1.666-1.637V10.435z"/></g><defs><clipPath id="a"><path fill="#fff" d="M0 0h24v24H0z"/></clipPath></defs></svg>