<svg xmlns="http://www.w3.org/2000/svg" width="24" height="24" fill="none" viewBox="0 0 24 24"><path fill="#297034" d="M16.318 13c-.346.23-.818-.267-.818-.682 0-.892-.629-1.664-1.507-1.818-2.126-.374-3.951-.552-5.888-.491-.443.014-.86-.25-.958-.683A6 6 0 1 1 16.318 13"/><path fill="#297034" d="M2.145 10c-.96 0-1.775.71-1.88 1.664-.353 3.172-.354 5.481 0 8.672A1.88 1.88 0 0 0 2.144 22a1.915 1.915 0 0 0 1.916-1.915v-2.148c.692 1.473 2.092 2.549 3.835 2.64 2.141.112 4.085.016 6.474-.279.794-.097 1.19-.146 1.68-.293.076-.023.203-.065.279-.092.48-.17.796-.348 1.427-.701 2.025-1.135 3.577-2.305 5.735-4.294a1.59 1.59 0 0 0 .334-1.892 1.61 1.61 0 0 0-2.21-.684l-5.24 2.866a4.8 4.8 0 0 1-2.312.591h-3.966a.851.851 0 1 1 0-1.702h2.946c.766 0 1.388-.621 1.388-1.387 0-.674-.485-1.254-1.15-1.357-2.023-.312-3.679-.43-5.564-.301-1.646.113-2.983 1.173-3.656 2.618v-1.755A1.915 1.915 0 0 0 2.145 10"/></svg>