<svg xmlns="http://www.w3.org/2000/svg" width="24" height="24" fill="none" viewBox="0 0 24 24"><g clip-path="url(#a)"><path fill="#785103" d="M18.5 11a5.5 5.5 0 1 1 0 11 5.5 5.5 0 0 1 0-11m-.001 2a3.5 3.5 0 1 0 0 7 3.5 3.5 0 0 0 0-7m-1.461 4.958c.133 0 .25.091.288.219q.084.277.207.552c.107.237-.094.5-.327.385a2.9 2.9 0 0 1-.942-.742c-.145-.172-.01-.414.215-.414zm3.482 0c.225 0 .36.242.216.414a2.9 2.9 0 0 1-.94.741c-.232.115-.436-.147-.333-.384q.113-.259.202-.552a.3.3 0 0 1 .288-.219zm-1.786 0c.194 0 .335.187.265.368-.083.215-.178.41-.276.582a.25.25 0 0 1-.438.002 4 4 0 0 1-.289-.584c-.072-.18.068-.368.263-.368zm-1.867-2.333c.183 0 .321.167.297.349l-.007.052c-.04.33-.055.672-.034 1.019a.307.307 0 0 1-.3.33h-.892a.274.274 0 0 1-.27-.206 2.9 2.9 0 0 1 0-1.338.274.274 0 0 1 .27-.206zm2.089 0c.138 0 .258.097.28.232.075.453.083.878.045 1.269a.28.28 0 0 1-.282.249h-1.004a.28.28 0 0 1-.281-.251 5 5 0 0 1 .057-1.267.28.28 0 0 1 .28-.232zm2.113 0c.127 0 .242.082.27.206a2.9 2.9 0 0 1 0 1.338.274.274 0 0 1-.27.206h-.896a.307.307 0 0 1-.3-.332 5.4 5.4 0 0 0-.03-1.07.306.306 0 0 1 .298-.348zm.04-8.14c.635 0 .953 0 1.157.2.205.201.212.51.225 1.128.013.587-.641.95-1.185.73A7.5 7.5 0 0 0 11 16.5c0 .27-.213.5-.483.497-2.21-.018-4.45-.125-7.003-.321-1.45-.111-2.175-.168-2.664-.653-.49-.486-.55-1.198-.67-2.62a46 46 0 0 1-.176-4.575c.009-.625.013-.938.219-1.14.205-.203.526-.203 1.166-.203zm-3.762 6.335c.227-.098.419.15.32.376q-.132.3-.242.636a.3.3 0 0 1-.284.21h-.662c-.224 0-.36-.242-.215-.414a2.9 2.9 0 0 1 1.083-.808m.915.475a.258.258 0 0 1 .47-.002q.09.187.164.37a.278.278 0 0 1-.264.379h-.262a.28.28 0 0 1-.267-.377q.076-.193.159-.37m1.381-.479c.426.182.8.462 1.093.812.145.172.01.414-.216.414h-.656a.3.3 0 0 1-.283-.208 7 7 0 0 0-.252-.643c-.102-.225.087-.471.314-.375m-16.208-2.36a.993.993 0 0 0 0 1.985h1.912a.993.993 0 0 0 0-1.986zm.097-9.166c5.638-.387 9.75-.387 15.395.002 1.444.1 2.166.15 2.659.628.265.257.406.58.503 1.042.141.679.213 1.019.002 1.278s-.594.26-1.358.26H1.706c-.755 0-1.132 0-1.343-.257C.153 4.987.218 4.651.35 3.98c.091-.465.232-.791.497-1.052.494-.487 1.225-.538 2.685-.638"/></g><defs><clipPath id="a"><path fill="#fff" d="M0 0h24v24H0z"/></clipPath></defs></svg>