<svg xmlns="http://www.w3.org/2000/svg" width="24" height="16" fill="none" viewBox="0 0 24 16"><g clip-path="url(#a)"><path fill="#785103" d="M3.768.312c6.014-.416 10.4-.416 16.42.002 1.54.108 2.312.162 2.837.677.525.516.6 1.275.746 2.793.296 3.057.312 5.553.012 8.592-.146 1.48-.22 2.22-.74 2.733s-1.275.573-2.787.69c-6.058.473-10.457.476-16.508.008-1.546-.12-2.319-.18-2.841-.703-.522-.524-.587-1.29-.715-2.823-.25-2.986-.259-5.448-.008-8.454C.312 2.291.376 1.524.904 1 1.43.475 2.21.42 3.768.312m.991 2.749c-.417 0-.758.296-.758.657 0 .36.341.656.758.656h2.33c.323 0 .624.08.88.218.31.168.114.517-.249.517H4.76c-.418 0-.76.296-.76.658 0 .36.342.656.76.656h3.148c.339 0 .548.316.29.513a1.83 1.83 0 0 1-1.109.36H4.76c-.288 0-.56.145-.682.375-.13.23-.092.5.09.696l4.175 4.484a.8.8 0 0 0 .592.244.84.84 0 0 0 .478-.145c.326-.23.38-.643.114-.926L6.822 9.121c-.189-.203-.028-.512.267-.512 1.4 0 2.59-.782 3.03-1.867a.52.52 0 0 1 .477-.32h.645c.417 0 .76-.294.76-.655s-.343-.658-.76-.658h-.8a.38.38 0 0 1-.346-.226c-.096-.232.081-.509.357-.509h.789c.417 0 .76-.295.76-.656s-.343-.657-.76-.657zM18 10.098c-.552 0-1 .452-1 1.01 0 .557.448 1.01 1 1.01h2c.552-.001 1-.453 1-1.01 0-.558-.447-1.01-1-1.01z"/></g><defs><clipPath id="a"><path fill="#fff" d="M0 0h24v16H0z"/></clipPath></defs></svg>