<svg xmlns="http://www.w3.org/2000/svg" width="81" height="14" fill="none" viewBox="0 0 81 14"><path fill="#1b4683" d="M81 0H0v14h81z"/><path fill="#1b4683" d="M81 0H13.514v14H81z"/><path fill="#fff" d="M17.81 10.314V3.686h2.09v2.229h1.975v-2.23h2.119v6.629h-2.12V7.728H19.9v2.586zm9.505-4.994h.544c.4 0 .687.03.859.12a.67.67 0 0 1 .343.296c.086.15.172.298.2.535a2.6 2.6 0 0 1 .087.684q0 .58-.172.981c-.114.268-.258.446-.458.565s-.487.178-.888.178h-.515zm.802 4.994c.486 0 .916-.03 1.23-.149.344-.089.602-.208.831-.356.2-.149.401-.357.573-.595.172-.267.343-.565.458-.951q.172-.579.172-1.338c0-.743-.143-1.337-.401-1.872q-.43-.758-1.117-1.07a4.2 4.2 0 0 0-1.69-.327h-2.92v6.628h2.864zm4.237 0V3.686h4.982V5.32h-2.92v1.07h2.319v1.606h-2.32v2.348h-2.061zM44.38 6.212h-1.976c-.029-.327-.143-.594-.344-.773-.2-.178-.43-.267-.744-.267a1.11 1.11 0 0 0-.916.446c-.23.297-.344.773-.344 1.456 0 .476.058.803.143 1.04q.13.357.43.536c.172.119.4.178.658.178q.473 0 .773-.268.3-.267.344-.802h2.033c-.057.416-.115.743-.23 1.04a2.9 2.9 0 0 1-.572.833c-.258.297-.601.505-.973.653a3.5 3.5 0 0 1-1.289.238c-.486 0-.945-.06-1.345-.208-.401-.148-.773-.357-1.031-.624a2.7 2.7 0 0 1-.659-.951 3.9 3.9 0 0 1-.343-1.665c0-.505.086-.98.229-1.426.172-.446.372-.803.658-1.13.287-.297.602-.535.945-.684.43-.208.916-.297 1.46-.297.459 0 .888.06 1.317.208.401.149.745.357 1.003.624.257.268.458.595.6.952.115.237.173.564.201.921zm6.728-1.04c.286 0 .487 0 .573.03.114.03.229.118.286.208.086.089.114.208.114.356a.49.49 0 0 1-.2.416c-.143.12-.344.149-.687.149h-.802v-1.16zm.515 5.142c.487 0 .86 0 1.06-.06.2-.059.4-.118.63-.237.2-.12.372-.208.458-.327.172-.149.286-.357.372-.565.086-.238.143-.505.143-.773 0-.386-.086-.743-.286-1.01a1.43 1.43 0 0 0-.773-.535c.544-.357.83-.833.83-1.397s-.258-1.04-.716-1.338c-.372-.238-.945-.357-1.746-.357h-3.178v6.629h3.235zM51.28 7.55c.43 0 .687.06.83.148.115.12.2.268.2.446a.6.6 0 0 1-.2.476c-.143.119-.4.178-.802.178h-.859V7.55h.86zm7.616.535H57.55l.659-2.408zm-1.976 2.229.23-.862h2.09l.257.862h2.09l-2.29-6.628h-2.148l-2.29 6.628zm5.555 0V3.686h1.947l2.205 3.537V3.686h2.004v6.628h-2.004l-2.148-3.448v3.448zm7.587 0V3.686h2.033v2.2l1.89-2.2h2.462L74.1 6.182l2.577 4.132h-2.52L72.61 7.669l-.572.564v2.081h-2.033z"/><path fill="#dc2227" d="M13.486 0H0v14h13.486z"/><path fill="#fff" d="M11.138 2.438H2.376v9.095h8.762z"/><path fill="#fff" d="M7.444 0H6.1v14h1.345z"/><path fill="#fff" d="M13.486 6.301H0v1.397h13.486z"/><path fill="#1b4683" d="M8.761 4.904H4.724v4.191h4.037z"/></svg>