<svg xmlns="http://www.w3.org/2000/svg" width="24" height="24" fill="none" viewBox="0 0 24 24"><g clip-path="url(#a)"><path fill="#622970" fill-rule="evenodd" d="M14.304 21.739c4.158-3.35 9.617-8.83 9.675-13.938Q24 7.539 24 7.272C24 3.808 21.318 1 18.01 1c-3.04 0-5.552 2.37-5.94 5.442a.053.053 0 0 1-.055.046.05.05 0 0 1-.049-.046C11.578 3.371 9.066 1 6.026 1 2.717 1 .035 3.808.035 7.272-.272 9.52 1.344 14.994 9.728 21.73c1.061.852 1.592 1.279 2.297 1.278.704 0 1.229-.423 2.279-1.269m.307-11.991a.5.5 0 0 1 .939-.028l.734 1.837a1.5 1.5 0 0 0 1.393.943H20a.5.5 0 1 0 0-1h-2.323a.5.5 0 0 1-.464-.314l-.735-1.837c-.519-1.297-2.374-1.243-2.816.083l-1.243 3.73a.5.5 0 0 1-.943.018l-1.203-3.208c-.46-1.227-2.16-1.316-2.746-.144l-.698 1.396a.5.5 0 0 1-.447.276H4a.5.5 0 0 0 0 1h2.382a1.5 1.5 0 0 0 1.342-.83l.698-1.395a.5.5 0 0 1 .915.048l1.203 3.208c.496 1.323 2.38 1.288 2.828-.053z" clip-rule="evenodd"/></g><defs><clipPath id="a"><path fill="#fff" d="M0 0h24v24H0z"/></clipPath></defs></svg>