<svg xmlns="http://www.w3.org/2000/svg" width="28" height="28" fill="none" viewBox="0 0 28 28"><path fill="#8f242a" d="M12.036 3.131c.658-.439.986-.658 1.398-.755.34-.08.77-.075 1.107.01.41.105.738.333 1.394.79 3.594 2.5 6.033 4.82 9.048 7.893.584.595.875.892.894 1.148a.7.7 0 0 1-.245.584c-.196.166-.614.166-1.448.166H22.75c.401 4.403.377 7.002.12 10.967-.04.606-.06.91-.192 1.142a1.2 1.2 0 0 1-.505.474c-.241.117-.547.117-1.16.117H18.2c-.653 0-.98 0-1.23-.128a1.17 1.17 0 0 1-.51-.51c-.127-.249-.127-.576-.127-1.229v-5.582a2.333 2.333 0 1 0-4.666 0V23.8c0 .653 0 .98-.127 1.23-.112.22-.29.398-.51.51-.25.127-.577.127-1.23.127H6.997c-.616 0-.923 0-1.166-.118a1.17 1.17 0 0 1-.505-.477c-.132-.235-.15-.54-.185-1.15-.231-3.957-.236-6.556.109-10.955H3.769c-.822 0-1.233 0-1.429-.164a.7.7 0 0 1-.248-.58c.016-.254.3-.55.866-1.144 3.008-3.152 5.425-5.506 9.078-7.948"/></svg>