<svg xmlns="http://www.w3.org/2000/svg" width="24" height="24" fill="none" viewBox="0 0 24 24"><path fill="#785103" d="M7.675 10.666c.089.037.194.092.239.163.084.133.073.34.034.443-.942 2.443-1.746 3.839-2.75 5.582-.388.673-.806 1.398-1.273 2.255a.45.45 0 0 1-.508.267.46.46 0 0 1-.36-.456l.216-1.942c.111-.997.166-1.496.032-1.89a1.86 1.86 0 0 0-.97-1.084c-.377-.177-.879-.177-1.882-.177a.45.45 0 0 1-.38-.212.48.48 0 0 1-.034-.443c1.172-3.095 2.094-4.918 3.435-7.571l.416-.824a.45.45 0 0 1 .508-.267c.21.046.359.236.359.456l-.1 2.238c-.052 1.19-.079 1.784.179 2.246.102.184.236.35.394.49.396.35.983.45 2.156.652.04.007.06.01.137.03l.093.027c.054.017.056.016.056.016z"/><path fill="#785103" fill-rule="evenodd" d="M10.206 9.458c-.067-.107-.255-.182-.356-.217l-.055-.016-.08-.017-1.824-.34c-.794-.147-1.191-.22-1.4-.515s-.152-.7-.038-1.513l.05-.349c.038-.272.194-.52.453-.602.458-.143 1.077-.19 1.973-.255 4.197-.31 7.404-.31 11.606.002 1.435.106 2.153.16 2.642.653.49.493.546 1.21.66 2.642.201 2.533.22 4.767.035 7.262-.114 1.531-.17 2.297-.707 2.802s-1.327.505-2.908.505H9.096c-1.536 0-2.304 0-2.815-.486a1.4 1.4 0 0 1-.134-.146.24.24 0 0 1-.015-.263c1.692-3.126 2.734-5.053 4.11-8.65.045-.115.056-.348-.037-.497m9.168 6.126a.777.777 0 0 0-.771.783c0 .432.345.783.771.783h1.542c.426 0 .771-.35.771-.783a.777.777 0 0 0-.771-.783z" clip-rule="evenodd"/></svg>