<svg xmlns="http://www.w3.org/2000/svg" width="22" height="15" fill="none" viewBox="0 0 22 15"><path fill="#785103" d="M.36 13.783c.28 1.068 1.49 1.497 2.49 1.029l3.484-1.632c.432-.202.647-.683.63-1.16a4 4 0 0 1 4.768-4.075c.447.089.931-.033 1.204-.399l1.457-1.954a1 1 0 0 1 1.604 1.194L14.54 8.74c-.273.365-.25.864-.038 1.268a4 4 0 0 1 .457 1.964c-.011.473.206.948.636 1.147l3.573 1.652c1.003.463 2.211.028 2.486-1.041a10.99 10.99 0 0 0-5.388-12.39A11.004 11.004 0 0 0 1.71 5.108a11 11 0 0 0-1.35 8.676"/><path fill="#785103" d="M9.357 10.676a2 2 0 1 0 2.799-.409 2 2 0 0 0-2.8.409"/></svg>