<svg xmlns="http://www.w3.org/2000/svg" width="24" height="24" fill="none" viewBox="0 0 24 24"><g fill="#8f242a" clip-path="url(#a)"><path d="M2.145 11.74c-.96 0-1.775.725-1.88 1.7-.353 3.24-.354 5.6 0 8.86.105.974.92 1.7 1.88 1.7 1.02 0 1.854-.814 1.912-1.84 3.969.548 6.604.568 10.313.101.56-.07.841-.105 1.223-.198a9 9 0 0 0 1.163-.39c.362-.156.575-.278 1.001-.522 2.025-1.16 3.576-2.355 5.735-4.386a1.65 1.65 0 0 0 .333-1.934 1.595 1.595 0 0 0-2.21-.699l-5.239 2.929a4.74 4.74 0 0 1-2.312.604h-3.967a.86.86 0 0 1-.85-.87c0-.48.38-.87.85-.87h2.947c.766 0 1.387-.634 1.387-1.417 0-.688-.484-1.28-1.15-1.385-3.204-.506-5.488-.515-9.22.194l-.015.134c-.119-.965-.924-1.711-1.9-1.711"/><path fill-rule="evenodd" d="M4.168 6.235a.14.14 0 0 0-.14.136 33 33 0 0 0 .005 2.81c.048 1.121.082 1.898.25 2.486l4.261-.396q.457-.042.912.005l3.654.373c.583.06 1.138.28 1.607.64l.913.7a.94.94 0 0 1 .334.494q.415-.022.842-.05c1.826-.115 2.739-.173 3.383-.838.643-.664.688-1.543.776-3.3.05-1.007.047-1.966-.006-2.975a.09.09 0 0 0-.088-.085zm1.677 3.83c0-.423.336-.766.75-.766H8.04c.414 0 .75.343.75.766a.76.76 0 0 1-.75.766H6.595a.76.76 0 0 1-.75-.766" clip-rule="evenodd"/><path d="M4.792 2.953c-.354.366-.53.55-.41 1.049a1.3 1.3 0 0 0 .107.262c.263.438.68.438 1.513.438H18.96c.837 0 1.256 0 1.52-.437a1.3 1.3 0 0 0 .11-.27c.116-.499-.064-.682-.422-1.05-.65-.663-1.581-.715-3.444-.82a72 72 0 0 0-8.46-.002c-1.88.104-2.82.156-3.472.83"/></g><defs><clipPath id="a"><path fill="#fff" d="M0 0h24v24H0z"/></clipPath></defs></svg>