<svg width="24" height="24" viewBox="0 0 24 24" fill="none" xmlns="http://www.w3.org/2000/svg">
<path fill-rule="evenodd" clip-rule="evenodd" d="M8.32915 5.58845C10.4001 2.70752 14.3172 1.86458 17.3899 3.63861C20.4626 5.41264 21.6911 9.22637 20.2316 12.4604L19.1534 14.8495C18.8351 15.5548 18.7823 16.3724 18.7295 17.1888C18.6702 18.1051 18.6111 19.0197 18.1769 19.7718C17.5339 20.8854 16.11 21.267 14.9964 20.624L3.87364 14.2023C2.76004 13.5594 2.37849 12.1354 3.02143 11.0218C3.4562 10.2688 4.22012 9.75997 4.98542 9.25024C5.66737 8.79603 6.35041 8.34108 6.80267 7.71194L8.32915 5.58845ZM5.54549 17.2212C5.61293 16.709 6.21217 16.5469 6.63067 16.8499C8.18843 17.9776 9.57017 18.7803 11.3261 19.5655C11.7955 19.7754 11.9543 20.3727 11.5463 20.6858C11.1556 20.9856 10.7097 21.2055 10.234 21.3329C9.7583 21.4604 9.26218 21.4929 8.77394 21.4286C8.28569 21.3643 7.81489 21.2045 7.38841 20.9583C6.96193 20.7121 6.58812 20.3842 6.28834 19.9935C5.98855 19.6029 5.76865 19.1569 5.64119 18.6813C5.51373 18.2056 5.48121 17.7095 5.54549 17.2212Z" fill="#475769"/>
</svg>
