<svg xmlns="http://www.w3.org/2000/svg" width="52" height="20" fill="none" viewBox="0 0 52 20"><path fill="#1b4683" d="M0 4.648v12.62h4.518V9.21h4.518v8.057H13.5V4.648z"/><path fill="#de1f26" d="M16.326 3.268Q19.153.395 23.146.395q3.99 0 6.818 2.873 2.827 2.872 2.827 6.93 0 4.056-2.827 6.929T23.145 20q-3.99 0-6.819-2.873-2.827-2.873-2.827-6.93c0-2.704.942-5.014 2.827-6.901zm3.188 10.62c.998 1.014 2.217 1.52 3.631 1.52s2.633-.506 3.631-1.549 1.525-2.253 1.525-3.69-.5-2.648-1.525-3.69c-.998-1.014-2.217-1.521-3.63-1.521-1.415 0-2.634.507-3.632 1.521s-1.525 2.254-1.525 3.69c0 1.437.5 2.676 1.525 3.718"/><path fill="#1b4683" d="m23.173 13.409-3.188-3.24 3.188-3.24 3.187 3.24zm3.853-4.169-2.08-2.113 2.08-2.113 2.079 2.113z"/><path fill="#fff" d="m28.107 5.465-1.663-1.69 1.663-1.69 1.663 1.69z"/><path fill="#1b4683" d="m30.657 3.409-.86-.874.86-.873.86.873zm.471-1.663-.86-.873.86-.873.86.873zM42.16 14.845l-4.296 2.423-5.627-10.423 3.936-2.197 3.077 5.69 2.91-1.634 2.855 1.606 3.077-5.662L52 6.873l-5.654 10.423z"/><path fill="#fff" d="m27.996 8.338 1.192-1.211-2.162-2.197-.942.957c.249.17.498.395.72.62.555.564.943 1.155 1.192 1.831"/></svg>