<svg xmlns="http://www.w3.org/2000/svg" width="64" height="56" fill="none" viewBox="0 0 64 56"><path fill="#1768b9" d="M18.572 56.748c-6.838 0-12.381-5.543-12.381-12.381V18.572a7.22 7.22 0 0 1 7.222-7.222h34.049c6.838 0 12.381 5.543 12.381 12.38v20.637c0 6.838-5.543 12.38-12.381 12.38z"/><path fill="#79c7ff" d="M10.003 22.646a4.127 4.127 0 0 1 2.944-5.04l34.948-9.174a4.127 4.127 0 0 1 5.04 2.944l4.317 16.449a4.127 4.127 0 0 1-2.944 5.04l-34.947 9.174a4.127 4.127 0 0 1-5.04-2.944z"/><path fill="#3998f8" d="M6.19 58.812V20.636h45.4a8.254 8.254 0 0 1 8.253 8.254v29.922z"/><path fill="#fff" d="M24.197 30.794h7.575v3.169h-7.575z"/><path fill="#fff" d="M24.196 38.37v-7.575h3.169v7.575zm.001 10.283h7.575v-3.17h-7.575z"/><path fill="#fff" d="M24.196 41.076v7.575h3.169v-7.575zm17.642-10.282h-7.575v3.17h7.575z"/><path fill="#fff" d="M41.838 38.37v-7.574H38.67v7.575zm0 10.283h-7.575v-3.17h7.575z"/><path fill="#fff" d="M41.839 41.076v7.575h-3.17v-7.575zm-11.498-4.078h5.352v5.454h-5.352z"/></svg>