<svg width="64" height="56" viewBox="0 0 64 56" fill="none" xmlns="http://www.w3.org/2000/svg">
<path d="M18.5721 56.7479C11.734 56.7479 6.19072 51.2046 6.19072 44.3666L6.19072 18.5721C6.19072 14.5832 9.42433 11.3496 13.4132 11.3496L47.4619 11.3496C54.3 11.3496 59.8433 16.8929 59.8433 23.7309L59.8433 44.3665C59.8433 51.2046 54.3 56.7479 47.4619 56.7479L18.5721 56.7479Z" fill="#1768B9"/>
<path d="M10.0033 22.6463C9.4246 20.4416 10.7426 18.1852 12.9473 17.6065L47.8945 8.43229C50.0992 7.85354 52.3555 9.17159 52.9343 11.3762L57.2523 27.8248C57.8311 30.0295 56.513 32.2858 54.3084 32.8646L19.3611 42.0388C17.1565 42.6176 14.9001 41.2995 14.3214 39.0949L10.0033 22.6463Z" fill="#79C7FF"/>
<path d="M6.19072 58.8118L6.19072 20.6359L51.5891 20.6359C56.1478 20.6359 59.8433 24.3315 59.8433 28.8902L59.8433 58.8118L6.19072 58.8118Z" fill="#3998F8"/>
<rect x="24.1965" y="30.7943" width="7.57545" height="3.16926" fill="white"/>
<rect x="24.1957" y="38.3708" width="7.57545" height="3.16926" transform="rotate(-90 24.1957 38.3708)" fill="white"/>
<rect width="7.57545" height="3.16926" transform="matrix(1 0 0 -1 24.1965 48.6528)" fill="white"/>
<rect width="7.57545" height="3.16926" transform="matrix(0 1 1 0 24.1957 41.076)" fill="white"/>
<rect width="7.57545" height="3.16926" transform="matrix(-1 0 0 1 41.8381 30.7943)" fill="white"/>
<rect width="7.57545" height="3.16926" transform="matrix(0 -1 -1 0 41.8383 38.3705)" fill="white"/>
<rect x="41.8381" y="48.6529" width="7.57545" height="3.16926" transform="rotate(180 41.8381 48.6529)" fill="white"/>
<rect x="41.8383" y="41.0763" width="7.57545" height="3.16926" transform="rotate(90 41.8383 41.0763)" fill="white"/>
<rect x="30.3414" y="36.9977" width="5.35156" height="5.45384" fill="white"/>
</svg>
