<svg xmlns="http://www.w3.org/2000/svg" width="24" height="24" fill="none" viewBox="0 0 24 24"><path fill="#8f242a" fill-rule="evenodd" d="M4.614 7.579c-1.097.898-1.359 2.105-1.882 4.519a29 29 0 0 0-.605 4.388c-.205 3.295-.307 4.942.878 6.228S6.023 24 9.69 24h4.582c3.7 0 5.549 0 6.735-1.293s1.075-2.957.853-6.286a29.6 29.6 0 0 0-.59-4.247c-.523-2.458-.784-3.687-1.883-4.59-1.1-.903-2.513-.903-5.339-.903H9.911c-2.8 0-4.2 0-5.297.898m7.397 10.308c1.072 0 1.94-.912 1.94-2.037s-.868-2.038-1.94-2.038-1.941.912-1.941 2.038.869 2.037 1.94 2.037" clip-rule="evenodd"/><path fill="#8f242a" d="M7.707 2.292c.224.853.515 1.656.978 2.587.185.371.278.557.458.67s.397.113.83.113h4.11c.418 0 .627 0 .805-.109s.27-.284.453-.633a11.4 11.4 0 0 0 .992-2.63c.136-.54.204-.812.169-.984-.083-.408-.513-.687-.911-.589-.168.042-.393.231-.844.61-.196.164-.294.246-.393.29a.74.74 0 0 1-.722-.075c-.088-.062-.168-.163-.327-.364L13.08.895c-.446-.562-.67-.842-.958-.887a.7.7 0 0 0-.222 0c-.289.045-.512.325-.958.887l-.228.287c-.156.197-.234.296-.32.358a.74.74 0 0 1-.73.075c-.097-.043-.193-.124-.385-.285-.443-.372-.664-.558-.83-.6-.402-.101-.84.186-.917.601-.032.17.037.434.175.96"/></svg>