<svg xmlns="http://www.w3.org/2000/svg" width="24" height="24" fill="none" viewBox="0 0 24 24"><path fill="#785103" d="M.35 3.98c-.132.672-.198 1.007.013 1.264.21.256.588.256 1.343.256h19.027c.764 0 1.146 0 1.358-.26.21-.26.14-.599-.002-1.278-.096-.462-.239-.785-.503-1.042-.493-.479-1.215-.528-2.66-.628-5.644-.389-9.756-.39-15.394-.002-1.46.1-2.19.15-2.685.637-.265.261-.406.587-.497 1.054"/><path fill="#785103" fill-rule="evenodd" d="M22.491 8.813c-.013-.618-.02-.927-.225-1.127s-.522-.2-1.156-.2H1.388c-.64 0-.96 0-1.165.201-.205.203-.21.516-.219 1.14-.021 1.492.039 2.95.176 4.575.12 1.423.18 2.135.67 2.62.49.487 1.214.542 2.664.653 2.553.196 4.793.303 7.002.322A.49.49 0 0 0 11 16.5a7.5 7.5 0 0 1 10.306-6.958c.544.22 1.198-.142 1.185-.729M2.442 12.448c0-.548.445-.993.993-.993h1.912a.993.993 0 0 1 0 1.985H3.435a.99.99 0 0 1-.993-.992" clip-rule="evenodd"/><path fill="#785103" d="M18.62 14.034a2.026 2.026 0 0 1-2.018 2.033 2.026 2.026 0 0 1-2.018-2.033c0-1.124.904-2.034 2.018-2.034s2.018.91 2.018 2.034m2.332 5.64q.141.345.227.707c.151.631-.327 1.201-.963 1.306-2.547.42-4.421.418-7.207-.012-.645-.1-1.135-.674-.98-1.313a4.76 4.76 0 0 1 1.244-2.228 4.7 4.7 0 0 1 3.329-1.39 4.68 4.68 0 0 1 3.329 1.39c.437.441.784.964 1.02 1.54m.963-4.184a1.45 1.45 0 0 1-1.446 1.456 1.45 1.45 0 0 1-1.445-1.456 1.45 1.45 0 0 1 1.445-1.457 1.45 1.45 0 0 1 1.445 1.457m.401 5.262c-.23.024-.412-.199-.466-.424a4.77 4.77 0 0 0-1.245-2.228c-.23-.233-.159-.64.166-.667a3.04 3.04 0 0 1 1.417.224 3.05 3.05 0 0 1 1.65 1.663 3 3 0 0 1 .145.446c.1.415-.217.787-.635.851-.365.056-.706.101-1.032.135"/></svg>