<svg xmlns="http://www.w3.org/2000/svg" width="24" height="24" fill="none" viewBox="0 0 24 24"><path fill="#785103" d="M.35 3.98c-.132.672-.198 1.007.013 1.264.21.256.588.256 1.343.256h19.027c.764 0 1.146 0 1.358-.26.21-.26.14-.599-.002-1.278-.096-.462-.239-.785-.503-1.042-.493-.479-1.215-.528-2.66-.628-5.644-.389-9.756-.39-15.394-.002-1.46.1-2.19.15-2.685.637-.265.261-.406.587-.497 1.054"/><path fill="#785103" fill-rule="evenodd" d="M22.491 8.813c-.013-.618-.02-.927-.225-1.127s-.522-.2-1.156-.2H1.388c-.64 0-.96 0-1.165.201-.205.203-.21.516-.219 1.14-.021 1.492.039 2.95.176 4.575.12 1.423.18 2.135.67 2.62.49.487 1.214.542 2.664.653 2.553.196 4.793.303 7.002.322A.49.49 0 0 0 11 16.5a7.5 7.5 0 0 1 10.306-6.958c.544.22 1.198-.142 1.185-.729M2.442 12.448c0-.548.445-.993.993-.993h1.912a.993.993 0 0 1 0 1.985H3.435a.99.99 0 0 1-.993-.992" clip-rule="evenodd"/><path fill="#785103" fill-rule="evenodd" d="M18.5 22a5.5 5.5 0 1 0 0-11 5.5 5.5 0 0 0 0 11m1.454-2.348c.566-.254.453-.999-.108-1.265-.26-.123-.56-.1-.84-.029a1.86 1.86 0 0 1-1.85-.558c-.311-.346.026-.8.491-.8a.1.1 0 0 0 .073-.169l-1.648-1.754a.1.1 0 0 0-.145-.001l-1.686 1.755a.1.1 0 0 0 .072.169c.447 0 .815.333.978.749a3.47 3.47 0 0 0 1.747 1.872 3.47 3.47 0 0 0 2.916.03m-.022-4.33c.258.29-.013.678-.402.678a.1.1 0 0 0-.069.173l1.859 1.754a.1.1 0 0 0 .145-.008l1.475-1.755a.1.1 0 0 0-.076-.164c-.51 0-.927-.385-1.123-.855a3.47 3.47 0 0 0-1.72-1.808 3.47 3.47 0 0 0-2.746-.102c-.663.256-.538 1.11.104 1.415.268.127.576.117.87.07a1.85 1.85 0 0 1 1.683.601" clip-rule="evenodd"/></svg>