<svg xmlns="http://www.w3.org/2000/svg" width="64" height="56" fill="none" viewBox="0 0 64 56"><g clip-path="url(#a)"><path fill="#1768b9" d="M17.969 44.939h-1.082v-1.082h1.082zm6.275 15.217a1 1 0 0 0 .988.844h16.842a1 1 0 0 0 .988-.844l.867-5.483H23.377z"/><path fill="#1768b9" d="M16.887 45.919c0 6.627 5.373 12 12 12h8.45c6.627 0 12-5.373 12-12v-1.062a1 1 0 0 0-1-1h-30.45a1 1 0 0 0-1 1z"/><rect width="49.755" height="33.531" x="59.349" y="38.858" fill="#3998f8" rx="6" transform="rotate(168.5 59.35 38.858)"/><path fill="#79c7ff" d="M55.366 19.297 6.618 29.215l-1.245-6.122 48.748-9.918z"/><path fill="#1768b9" d="M39.684 40.668c-5.227.598-6.572 5.879-6.572 8.598v7.571h6.211c1.619 0 3.278-.164 4.67-.99 5.077-3.017 6.425-9.73 6.425-13.071V32.5a2.163 2.163 0 0 0-2.163-2.163c-6.057.865-7.572 5.408-7.572 7.571v1.704c0 .553-.45.993-1 1.056"/></g><defs><clipPath id="a"><path fill="#fff" d="M0 0h64v56H0z"/></clipPath></defs></svg>