<svg xmlns="http://www.w3.org/2000/svg" width="24" height="24" fill="none" viewBox="0 0 24 24"><g fill="#297034" clip-path="url(#a)"><path d="M22.807 10.526 20.35 7.85a45 45 0 0 0-4.316-4.127L12.374.647a.64.64 0 0 0-.805-.01L8.486 3.09a47 47 0 0 0-5.33 5.003l-2.21 2.433a.62.62 0 0 0 .468 1.032c.686 0 1.243.545 1.243 1.216v4.156c0 .983.686 1.889 1.67 2.044 1.264.205 2.348-.75 2.348-1.937v-4.272c0-.672.557-1.217 1.243-1.217h.706c.686 0 1.243.545 1.243 1.217v4.156c0 .983.686 1.888 1.671 2.044 1.263.204 2.347-.75 2.347-1.937v-4.263c0-.672.557-1.217 1.243-1.217h.557c.686 0 1.243.545 1.243 1.217v4.156c0 .983.686 1.888 1.671 2.044 1.263.204 2.347-.75 2.347-1.937v-4.263c0-.672.557-1.217 1.243-1.217h.15c.546 0 .835-.633.467-1.022m-10.93-2.852c-.925 0-1.68-.74-1.68-1.644 0-.906.755-1.645 1.68-1.645s1.68.74 1.68 1.645-.755 1.644-1.68 1.644M22.011 23.5H1.991c-.974 0-1.69-.905-1.441-1.82l.179-.681c.169-.643.765-1.1 1.442-1.1h19.661c.677 0 1.273.448 1.442 1.09l.18.681c.238.925-.468 1.83-1.443 1.83"/></g><defs><clipPath id="a"><path fill="#fff" d="M0 0h24v24H0z"/></clipPath></defs></svg>