<svg xmlns="http://www.w3.org/2000/svg" width="24" height="24" fill="none" viewBox="0 0 24 24"><g fill="#8f242a" clip-path="url(#a)"><path fill-rule="evenodd" d="M17.539 24a6.461 6.461 0 1 0 0-12.923 6.461 6.461 0 0 0 0 12.923m1.397-8.755h.566c.253 0 .46.229.46.508s-.207.507-.46.507h-.534a.1.1 0 0 0-.1.08c-.219.924-.978 1.61-1.881 1.61h-.254a.1.1 0 0 0-.08.159l1.81 2.48a.545.545 0 0 1-.07.715.436.436 0 0 1-.648-.076l-2.528-3.466a.55.55 0 0 1-.056-.538.46.46 0 0 1 .414-.289h1.412c.37 0 .693-.218.87-.542.035-.062-.013-.133-.084-.133h-2.198c-.252 0-.46-.228-.46-.507 0-.28.207-.508.46-.508h2.129c.075 0 .122-.08.078-.14a.98.98 0 0 0-.795-.428h-1.412c-.252 0-.46-.228-.46-.508 0-.279.207-.507.46-.507h3.927c.253 0 .46.228.46.507 0 .28-.207.508-.46.508h-.694c-.076 0-.125.083-.094.152q.074.163.124.34a.1.1 0 0 0 .098.076" clip-rule="evenodd"/><path d="M6.76 0c-.678 0-1.229.537-1.229 1.2v1.2q-.98.05-1.98.122c-1.463.105-2.194.157-2.68.638s-.532.91-.622 2.372c-.301 4.867-.352 7.252-.024 12.096.095 1.412.143 2.117.621 2.593s1.186.535 2.6.654c2.368.199 3.858.281 5.833.267a1 1 0 0 0 .655-.254A8.3 8.3 0 0 1 9.244 18H6.437c-1.738 0-2.607 0-3.147-.527s-.54-1.376-.54-3.073V7.846c0-.283 0-.424.09-.512s.234-.088.524-.088h13.829c.29 0 .434 0 .524.088s.09.23.09.512v1.322q0 .034.002.067a8.3 8.3 0 0 1 2.532.48l.01-.239c.043-1.128.083-2.185-.051-3.99-.107-1.433-.16-1.85-.646-2.323-.486-.474-1.21-.526-2.66-.628-.31-.022-.619-.067-.926-.111a11 11 0 0 0-1.011-.116V1.2c0-.663-.55-1.2-1.23-1.2C13.15 0 12.6.537 12.6 1.2v1.116a90 90 0 0 0-4.61-.008V1.2C7.99.537 7.44 0 6.762 0"/><path d="m12.286 11.101.004-.1c.01-.243.01-.459.002-.702-.019-.473-.028-.709-.199-.876-.17-.166-.412-.174-.893-.19q-.436-.015-.871-.002c-.483.015-.725.022-.896.189s-.181.41-.2.894a10 10 0 0 0-.002.708c.015.466.022.699.194.866.17.168.403.176.87.193.303.01.6.008.903-.004l.083-.004a8.4 8.4 0 0 1 1.005-.972M4.693 9.42c-.172.167-.18.41-.199.894a10 10 0 0 0-.003.708c.015.466.023.699.194.866s.404.176.87.193c.303.01.6.008.903-.004.484-.02.725-.03.895-.196.169-.166.179-.404.198-.88.01-.243.01-.459.001-.702-.018-.473-.027-.709-.198-.876-.171-.166-.412-.174-.893-.19q-.436-.015-.872-.002c-.482.015-.724.022-.896.189m.003 4.154c-.172.167-.181.409-.2.894a10 10 0 0 0-.002.708c.015.466.023.698.194.866.17.168.404.176.87.193.303.01.6.008.903-.004.483-.02.725-.03.894-.197.17-.165.18-.403.199-.88.01-.242.01-.458 0-.701-.017-.473-.026-.71-.198-.876-.17-.166-.411-.175-.893-.19-.292-.01-.579-.011-.87-.002-.484.014-.725.022-.897.189"/></g><defs><clipPath id="a"><path fill="#fff" d="M0 0h24v24H0z"/></clipPath></defs></svg>