<svg xmlns="http://www.w3.org/2000/svg" width="32" height="32" fill="none" viewBox="0 0 32 32"><g clip-path="url(#a)"><mask id="b" width="32" height="32" x="0" y="0" maskUnits="userSpaceOnUse" style="mask-type:luminance"><path fill="#fff" d="M32 0H0v32h32z"/></mask><g mask="url(#b)"><path fill="#fff" d="M28 5.5H4v4.408h24z"/><path fill="#104a7b" d="M27.731 5.774H4.294v3.867H27.73z"/><path fill="#1b4581" d="M27.73 5.775H8.202V9.64h19.53z"/><path fill="#fff" d="M9.443 8.622V6.793h.606v.617h.571v-.617h.61v1.83h-.61v-.711h-.57v.71zm2.749-1.376c.356-.031.607.05.588.446.022.39-.235.51-.588.475zm.234 1.376c.98.152 1.31-1.344.509-1.741-.279-.144-1.02-.071-1.338-.088v1.83zm1.23 0V6.793h1.44v.451h-.84v.293h.672v.439h-.672v.647zm3.477-1.13h-.574c-.092-.522-.77-.27-.676.233-.101.496.614.703.68.184h.584c-.084 1.137-1.97.927-1.87-.194-.105-1.119 1.76-1.366 1.856-.223m1.947-.288c.202-.035.385.119.233.278-.067.065-.323.04-.426.044v-.322zm.153 1.418c.642.119 1.124-.69.457-.973.31-.169.324-.589.03-.759-.235-.163-1.117-.077-1.421-.097v1.83zm-.098-.766c.394-.047.39.391 0 .348h-.248v-.348zm2.201.151h-.387l.191-.666zm-.568.615.07-.24h.605l.07.24h.605l-.662-1.829h-.619l-.662 1.83zm1.606 0V6.793h.566l.639.98v-.98h.58v1.83h-.576l-.626-.957v.956zm2.193 0V6.793h.588v.603l.55-.603h.714l-.678.687.748 1.143h-.728l-.444-.729-.163.157v.571z"/><path fill="#df2228" d="M8.201 5.774H4.294v3.867H8.2z"/><path fill="#fff" d="M7.517 6.45h-2.54v2.514h2.54z"/><path fill="#fff" d="M6.443 5.774h-.391v3.867h.391z"/><path fill="#fff" d="M8.201 7.513H4.294v.388H8.2z"/><path fill="#1b4581" d="M6.834 7.128H5.66v1.159h1.173z"/><path fill="#e20e18" d="M5.17 14.993c0 .684.533.95 1.138.95.396 0 1-.114 1-.64 0-.555-.77-.648-1.526-.85-.763-.201-1.534-.497-1.534-1.462 0-1.051.994-1.555 1.923-1.555 1.073 0 2.06.468 2.06 1.656H7.135c-.037-.619-.476-.777-1.016-.777-.36 0-.777.151-.777.583 0 .396.245.447 1.534.778.374.094 1.526.331 1.526 1.498 0 .943-.742 1.649-2.139 1.649-1.137 0-2.203-.562-2.189-1.83zm3.824-2.016h.965v.504h.015a1.35 1.35 0 0 1 1.137-.605c.468 0 .886.173 1.088.62a1.35 1.35 0 0 1 1.123-.62c.792 0 1.361.367 1.361 1.332V16.7h-1.022v-2.11c0-.497-.044-.907-.627-.907-.576 0-.684.475-.684.943V16.7h-1.023v-2.088c0-.432.03-.93-.619-.93-.202 0-.691.13-.691.858v2.16H8.994zm6.452 1.145c.057-.958.914-1.245 1.75-1.245.741 0 1.634.165 1.634 1.058v1.937c0 .338.036.677.13.828h-1.038a1.5 1.5 0 0 1-.072-.36c-.324.338-.799.46-1.253.46-.705 0-1.267-.352-1.267-1.115 0-.843.634-1.045 1.268-1.13.626-.095 1.21-.073 1.21-.49 0-.44-.303-.505-.663-.505-.39 0-.641.159-.677.562zm2.361.756c-.172.151-.532.158-.85.216-.316.065-.604.173-.604.547 0 .382.295.476.626.476.8 0 .828-.634.828-.857zm1.815-1.901h.972v.691h.015c.187-.468.69-.792 1.188-.792q.113.002.223.036v.95a2 2 0 0 0-.367-.035c-.75 0-1.008.54-1.008 1.195V16.7h-1.023zm4.098 0h.749v.684h-.75v1.844c0 .345.087.432.433.432q.16 0 .317-.03v.8q-.298.041-.598.036c-.626 0-1.173-.144-1.173-.886v-2.196h-.62v-.684h.62v-1.116h1.022z"/><path fill="#174983" d="M4 22.936h1.433l.384 1.408.025.001.906-2.932h1.238l.926 2.96 1.44-5.046-.37-.146L11.7 17.84l.388 2.026-.423-.111-2.06 6.66H8.308q-.465-1.461-.93-2.932l-.034-.005-.933 2.935H5.114c-.37-1.158-.77-2.32-1.114-3.477m10.656 2.208v1.252h-4.255l.381-1.24c.143-.062 3.692-.072 3.874-.012m-3.431-1.392.38-1.255h3.05v1.246c-.13.05-3.196.062-3.43.01m3.43-3.891v1.258h-2.62l.388-1.258zm.929 3.88c.06-.986.941-1.282 1.801-1.282.763 0 1.683.17 1.683 1.09v1.994c0 .348.037.697.133.852h-1.067a1.6 1.6 0 0 1-.075-.37c-.333.348-.822.474-1.29.474-.726 0-1.304-.363-1.304-1.15 0-.867.652-1.074 1.305-1.163.645-.097 1.245-.074 1.245-.504 0-.452-.312-.519-.682-.519-.4 0-.66.163-.697.578zm2.43.779c-.177.155-.548.163-.874.222-.326.067-.623.178-.623.564 0 .392.304.489.646.489.822 0 .852-.653.852-.882zm1.898-3.417h1.053v5.292h-1.053zm3.218 1.46h.77v.704h-.77v1.898c0 .355.088.445.444.445q.166 0 .326-.03v.823a4 4 0 0 1-.615.037c-.645 0-1.208-.149-1.208-.912v-2.261h-.638v-.704h.638v-1.15h1.053zm1.274-1.46h1.053v1.994h.022a1.35 1.35 0 0 1 1.12-.638c1.119 0 1.4.63 1.4 1.579v2.357h-1.052v-2.164c0-.63-.185-.942-.675-.942-.57 0-.815.319-.815 1.097v2.01h-1.053z"/></g></g><defs><clipPath id="a"><rect width="32" height="32" fill="#fff" rx="2"/></clipPath></defs></svg>