<svg xmlns="http://www.w3.org/2000/svg" width="28" height="28" fill="none" viewBox="0 0 28 28"><path fill="#8f242a" d="M11.138 6.81c2.206-.384 4.4-.412 6.59.054 1.53.325 2.785 1.814 3.006 3.5q.615 4.698 0 9.395c-.24 1.84-1.666 3.343-3.383 3.586-.211.03-.144-.119-.144-.216-.003-1.412 0-2.824-.003-4.237-.002-.508.03-1.017-.096-1.52-.365-1.462-1.703-2.449-3.095-2.267-1.432.186-2.53 1.45-2.545 2.97-.016 1.658-.005 3.316-.005 4.974v.297h-.001c-1.786-.174-3.276-1.677-3.526-3.562-.412-3.111-.395-6.223-.022-9.341.215-1.806 1.703-3.368 3.224-3.633"/><path fill="#faccd4" d="M11.285 17.606a3.063 3.063 0 0 1 6.127 0v8.073h-6.127z"/><path fill="#8f242a" d="M14.027 26.139c-.073-.073-.172-.067-.259-.1-.68-.262-1.119-.908-1.122-1.722a668 668 0 0 1 0-6.597c.007-.985.632-1.696 1.533-1.805.818-.099 1.583.483 1.79 1.364a2.4 2.4 0 0 1 .054.557l-.001 6.386c-.001 1.006-.49 1.658-1.4 1.886-.01.002-.018.02-.027.03zM14 0c1.306 0 2.414.835 2.826 2h3.215a1 1 0 1 1 0 2h-3.215A3 3 0 0 1 14 6a3 3 0 0 1-2.825-2H7.959a1 1 0 0 1 0-2h3.216C11.587.836 12.695 0 14 0m0 1.498a1.502 1.502 0 1 0 0 3.003 1.502 1.502 0 0 0 0-3.003"/></svg>