<svg xmlns="http://www.w3.org/2000/svg" width="24" height="20" fill="none" viewBox="0 0 24 20"><path fill="#785103" d="M.35 1.98c-.132.672-.198 1.007.013 1.264.21.256.588.256 1.343.256h19.027c.764 0 1.146 0 1.358-.26.21-.26.14-.599-.002-1.278-.096-.462-.239-.785-.503-1.042-.493-.479-1.215-.528-2.66-.628C13.282-.097 9.17-.098 3.532.29c-1.46.1-2.19.15-2.685.637C.582 1.188.44 1.514.35 1.98"/><path fill="#785103" fill-rule="evenodd" d="M22.491 6.813c-.013-.618-.02-.927-.225-1.127s-.522-.2-1.156-.2H1.388c-.64 0-.96 0-1.165.201-.205.203-.21.515-.219 1.14a46 46 0 0 0 .176 4.575c.12 1.423.18 2.135.67 2.62.49.487 1.214.542 2.664.653 2.553.196 4.793.303 7.002.322A.49.49 0 0 0 11 14.5a7.5 7.5 0 0 1 10.306-6.958c.544.22 1.198-.142 1.185-.729M2.442 10.448c0-.548.445-.993.993-.993h1.912a.993.993 0 1 1 0 1.985H3.435a.99.99 0 0 1-.993-.992" clip-rule="evenodd"/><path fill="#785103" fill-rule="evenodd" d="M18.5 20a5.5 5.5 0 1 0 0-11 5.5 5.5 0 0 0 0 11" clip-rule="evenodd"/><path fill="#feeac1" d="M17.834 12.049c.21-.645 1.122-.645 1.332 0l.187.577a.7.7 0 0 0 .666.483h.606c.678 0 .96.868.412 1.267l-.49.356a.7.7 0 0 0-.255.783l.187.577c.21.645-.528 1.18-1.077.782l-.49-.356a.7.7 0 0 0-.823 0l-.491.356c-.549.399-1.287-.137-1.077-.782l.187-.577a.7.7 0 0 0-.254-.783l-.49-.356c-.55-.399-.268-1.267.41-1.267h.607a.7.7 0 0 0 .666-.483z"/></svg>