<svg xmlns="http://www.w3.org/2000/svg" width="24" height="24" fill="none" viewBox="0 0 24 24"><path fill="#ec1c24" d="M10.144 15.624C6.13 17.93 4 18.738.571 20.5l23.33-16.423.099.08-4.483 8.95c-.376-.591-.723-1.115-1.044-1.655-.196-.328-.369-.425-.738-.202-1.27.763-2.564 1.48-3.848 2.219-.065.037-.12.096-.223.182 1.527 2.255 3.078 4.521 4.62 6.796l-.44-.004c-1.232.002-4.023-.014-4.023-.014s-.086-.122-.187-.27a193 193 0 0 1-2.98-4.425c-.18-.28-.292-.235-.51-.11m-2.15-.967-1.482 1.042L0 19.912l2.666-2.384c.94-.803 2.807-2.652 5.903-5.322L3.6 4.986l4.28.004c.001 0 .11.15.222.311.96 1.383 1.894 2.787 2.84 4.18.086.13.2.238.331.393l4.103-3.534-1.302-2.085 8.128-.64L23.67 3.5l.05.102-13.333 9.373z"/></svg>