<svg xmlns="http://www.w3.org/2000/svg" width="24" height="24" fill="none" viewBox="0 0 24 24"><g clip-path="url(#a)"><path fill="#fff" d="M13.487 1c.337 0 .618.185 1.18.555 3.699 2.437 5.924 4.35 8.652 7.46.521.593.782.89.645 1.133-.138.244-.57.244-1.436.244-.242 0-.44.2-.44.445V20h.224c.618 0 1.164.437 1.319 1.064l.163.663c.218.902-.427 1.785-1.317 1.785H5.363c-.89 0-1.545-.883-1.318-1.775l.164-.665c.155-.626.7-1.072 1.317-1.072h6.054v-4.5c0-.288.101-.568.283-.791l.325-.402c.812-.812.531-2.307-.448-3.286-1.432-1.783-2.846-2.622-4.225-4-.512-.512-.5-1.353.055-1.814 1.216-1.008 3.15-2.595 4.74-3.65.56-.37.841-.556 1.177-.557m3.348 9.392c-.791 0-1.434.65-1.434 1.45V20h2.867v-8.157c0-.801-.642-1.451-1.433-1.451M5.736 8.033c.33-.148.713.202 1.477.9a31.5 31.5 0 0 1 3.242 3.423c.273.331.41.497.41.7s-.137.369-.41.7a31.5 31.5 0 0 1-3.243 3.425c-.763.698-1.145 1.046-1.476.898s-.33-.675-.33-1.73c0-.573 0-.859-.101-1.081a1.12 1.12 0 0 0-.548-.553c-.22-.102-.504-.103-1.071-.103h-2.14a1.55 1.55 0 0 1-1.542-1.556c0-.86.69-1.556 1.542-1.556h2.141c.565 0 .848 0 1.068-.102.243-.112.44-.31.55-.555.1-.222.1-.507.1-1.077 0-1.056 0-1.585.331-1.733m7.652-4.4c-.958 0-1.735.787-1.735 1.757s.777 1.755 1.735 1.756c.957 0 1.734-.787 1.734-1.756 0-.97-.777-1.756-1.734-1.756"/></g><defs><clipPath id="a"><path fill="#fff" d="M0 0h24v24H0z"/></clipPath></defs></svg>