<svg xmlns="http://www.w3.org/2000/svg" width="27" height="27" fill="none" viewBox="0 0 27 27"><path fill="#2266be" d="M18.947 8.045q0 .356-.023.69a6 6 0 0 1-.143.88q-.12.546-.318 1.002-.196.458-.582.959a3.5 3.5 0 0 1-.91.836q-.527.333-1.338.556a7 7 0 0 1-1.82.223H8.477a.72.72 0 0 1-.714-.726v-2.044h6.196c.415 0 .729-.209.885-.586.153-.37.08-.736-.207-1.03-1.02-1.04-2.049-2.085-3.01-3.057a.88.88 0 0 0-.796-.267.89.89 0 0 0-.736.628c-.119.363-.04.7.228.975.394.402.791.803 1.206 1.221l.227.23H7.761V3.424a.72.72 0 0 1 .712-.724h5.34q2.17 0 3.651 1.438 1.484 1.435 1.483 3.908m-.001 10.861q0 .355-.022.69a6 6 0 0 1-.143.88q-.12.546-.319 1.002-.195.458-.58.959a3.5 3.5 0 0 1-.912.835q-.525.334-1.337.557a7 7 0 0 1-1.82.223H8.477a.72.72 0 0 1-.715-.726v-9.044a.72.72 0 0 1 .712-.724h5.34q2.17 0 3.651 1.437a4.6 4.6 0 0 1 1 1.427l-2.667.001h-3.551c-.415 0-.729.207-.886.585-.152.37-.08.737.208 1.03 1.012 1.033 2.045 2.08 3.01 3.057a.88.88 0 0 0 .797.266.89.89 0 0 0 .736-.63.91.91 0 0 0-.23-.973c-.393-.403-.79-.804-1.206-1.222l-.225-.229h4.472q.023.294.023.599"/></svg>