<svg xmlns="http://www.w3.org/2000/svg" width="24" height="24" fill="none" viewBox="0 0 24 24"><path fill="#fff" fill-rule="evenodd" d="M2.502 2.357v-.03c0-1.165 1.413-1.743 2.23-.913.51.518 1.346.518 1.856 0l.804-.817a2 2 0 0 1 2.85 0l.307.311a2 2 0 0 0 2.85 0l.307-.31a2 2 0 0 1 2.851 0l.804.816c.51.518 1.346.518 1.856 0 .817-.83 2.23-.252 2.23.913v.032c.72 7.56.755 11.805 0 19.244v.032c0 1.164-1.413 1.743-2.23.913a1.3 1.3 0 0 0-1.856 0l-.804.817a2 2 0 0 1-2.85 0l-.307-.311a2 2 0 0 0-2.851 0l-.306.31a2 2 0 0 1-2.851 0l-.804-.816a1.3 1.3 0 0 0-1.856 0c-.817.83-2.23.252-2.23-.913v-.03c-.669-7.517-.67-11.731 0-19.248m11.94 6.93h.799c.417 0 .759.33.759.733s-.342.733-.76.733h-.644a.52.52 0 0 0-.477.357c-.44 1.21-1.63 2.084-3.03 2.084a.348.348 0 0 0-.267.57l2.704 3.241a.717.717 0 0 1-.114 1.034.8.8 0 0 1-.479.161.76.76 0 0 1-.591-.271l-4.175-5.006a.71.71 0 0 1-.091-.777.76.76 0 0 1 .683-.418h2.33c.425 0 .813-.153 1.108-.404.259-.219.05-.571-.29-.571H8.76c-.417 0-.759-.33-.759-.733s.342-.733.759-.733h2.961c.363 0 .559-.391.248-.578a1.7 1.7 0 0 0-.879-.243H8.76A.75.75 0 0 1 8 7.733C8 7.33 8.342 7 8.759 7h6.482c.417 0 .759.33.759.733s-.342.733-.76.733h-.788c-.276 0-.453.31-.357.568.055.146.19.253.347.253" clip-rule="evenodd"/></svg>