<svg xmlns="http://www.w3.org/2000/svg" width="24" height="24" fill="none" viewBox="0 0 24 24"><path fill="#83a2c2" d="M20.922 10.3c.46 0 .69 0 .835.143s.15.372.16.83l.001.05c.016.782.015 1.55-.002 2.328-.063 2.902-.096 4.353-1.116 5.351S18.232 20 15.137 20h-6.35c-3.068 0-4.602 0-5.621-.992s-1.058-2.42-1.135-5.276a49 49 0 0 1-.003-2.502c.01-.418.016-.627.14-.765l.046-.045c.14-.12.35-.12.769-.12zM6 15a1 1 0 1 0 0 2h2a1 1 0 1 0 0-2zm9.163-10c3.084 0 4.626 0 5.647 1 .342.336.573.721.73 1.194.154.46.231.69.082.898s-.427.208-.98.208H3.313c-.553 0-.83 0-.98-.208s-.072-.439.082-.9a2.9 2.9 0 0 1 .737-1.197C4.171 5 5.698 5 8.75 5z"/></svg>