<svg width="172" height="107" viewBox="0 0 172 107" fill="none" xmlns="http://www.w3.org/2000/svg">
<g filter="url(#filter0_d_185_373)">
<g clip-path="url(#clip0_185_373)">
<rect x="3.79999" y="3.80005" width="160.096" height="95" rx="12" fill="url(#paint0_linear_185_373)"/>
<rect x="3.79999" y="3.80005" width="160.096" height="95" rx="12" fill="white" fill-opacity="0.65"/>
<path d="M24.131 51.0174H22.5372C22.4917 50.756 22.4079 50.5245 22.2858 50.3228C22.1636 50.1182 22.0116 49.9449 21.8298 49.8029C21.648 49.6608 21.4406 49.5543 21.2077 49.4833C20.9775 49.4094 20.729 49.3725 20.4619 49.3725C19.9875 49.3725 19.567 49.4918 19.2006 49.7304C18.8341 49.9662 18.5471 50.3128 18.3398 50.7702C18.1324 51.2248 18.0287 51.7802 18.0287 52.4364C18.0287 53.104 18.1324 53.6665 18.3398 54.1239C18.55 54.5785 18.8369 54.9222 19.2006 55.1552C19.567 55.3853 19.9861 55.5003 20.4577 55.5003C20.719 55.5003 20.9633 55.4662 21.1906 55.3981C21.4207 55.327 21.6267 55.2233 21.8085 55.087C21.9932 54.9506 22.148 54.783 22.273 54.5841C22.4008 54.3853 22.4889 54.158 22.5372 53.9023L24.131 53.9108C24.0713 54.3256 23.942 54.7148 23.7432 55.0785C23.5471 55.4421 23.29 55.7631 22.9719 56.0415C22.6537 56.3171 22.2815 56.533 21.8554 56.6893C21.4292 56.8427 20.9562 56.9194 20.4364 56.9194C19.6693 56.9194 18.9846 56.7418 18.3824 56.3867C17.7801 56.0316 17.3057 55.5188 16.9591 54.8483C16.6125 54.1779 16.4392 53.3739 16.4392 52.4364C16.4392 51.4961 16.6139 50.6921 16.9633 50.0245C17.3128 49.354 17.7886 48.8412 18.3909 48.4861C18.9932 48.131 19.675 47.9535 20.4364 47.9535C20.9221 47.9535 21.3739 48.0216 21.7915 48.158C22.2091 48.2944 22.5812 48.4947 22.9079 48.7589C23.2346 49.0202 23.5031 49.3412 23.7133 49.7219C23.9264 50.0998 24.0656 50.5316 24.131 51.0174ZM25.5106 56.8V50.2546H27.0063V51.3455H27.0745C27.1938 50.9677 27.3984 50.6765 27.6881 50.4719C27.9807 50.2645 28.3145 50.1608 28.6895 50.1608C28.7748 50.1608 28.8699 50.1651 28.9751 50.1736C29.083 50.1793 29.1725 50.1893 29.2435 50.2035V51.6225C29.1782 51.5998 29.0745 51.5799 28.9324 51.5628C28.7932 51.5429 28.6583 51.533 28.5276 51.533C28.2464 51.533 27.9935 51.5941 27.7691 51.7162C27.5475 51.8356 27.3728 52.0018 27.2449 52.2148C27.1171 52.4279 27.0532 52.6736 27.0532 52.952V56.8H25.5106ZM32.8966 56.9279C32.2403 56.9279 31.6736 56.7915 31.1963 56.5188C30.7219 56.2432 30.3568 55.854 30.1011 55.3512C29.8454 54.8455 29.7176 54.2503 29.7176 53.5657C29.7176 52.8924 29.8454 52.3015 30.1011 51.7929C30.3596 51.2816 30.7204 50.8839 31.1835 50.5998C31.6466 50.3128 32.1906 50.1694 32.8156 50.1694C33.219 50.1694 33.5997 50.2347 33.9577 50.3654C34.3185 50.4932 34.6366 50.6921 34.9122 50.962C35.1906 51.2319 35.4094 51.5756 35.5685 51.9932C35.7275 52.408 35.8071 52.9023 35.8071 53.4762V53.9492H30.442V52.9094H34.3284C34.3256 52.614 34.2616 52.3512 34.1366 52.1211C34.0116 51.8881 33.8369 51.7049 33.6125 51.5714C33.3909 51.4378 33.1324 51.3711 32.8369 51.3711C32.5216 51.3711 32.2446 51.4478 32.006 51.6012C31.7673 51.7518 31.5812 51.9506 31.4477 52.1978C31.317 52.4421 31.2503 52.7106 31.2474 53.0032V53.9108C31.2474 54.2915 31.317 54.6182 31.4562 54.891C31.5954 55.1608 31.79 55.3682 32.04 55.5131C32.29 55.6552 32.5827 55.7262 32.9179 55.7262C33.1423 55.7262 33.3454 55.6949 33.5273 55.6324C33.7091 55.5671 33.8667 55.4719 34.0003 55.3469C34.1338 55.2219 34.2346 55.0671 34.3028 54.8824L35.7432 55.0444C35.6523 55.425 35.479 55.7574 35.2233 56.0415C34.9704 56.3228 34.6466 56.5415 34.2517 56.6978C33.8568 56.8512 33.4051 56.9279 32.8966 56.9279ZM39.5411 56.9151C39.0269 56.9151 38.5667 56.783 38.1604 56.5188C37.7542 56.2546 37.4332 55.8711 37.1974 55.3682C36.9616 54.8654 36.8437 54.2546 36.8437 53.5358C36.8437 52.8086 36.963 52.1949 37.2016 51.6949C37.4431 51.1921 37.7684 50.8128 38.1775 50.5572C38.5866 50.2986 39.0425 50.1694 39.5454 50.1694C39.9289 50.1694 40.2442 50.2347 40.4914 50.3654C40.7386 50.4932 40.9346 50.6481 41.0795 50.8299C41.2243 51.0089 41.3366 51.1779 41.4161 51.337H41.48V48.0728H43.0269V56.8H41.5099V55.7688H41.4161C41.3366 55.9279 41.2215 56.0969 41.0709 56.2759C40.9204 56.452 40.7215 56.6026 40.4743 56.7276C40.2272 56.8526 39.9161 56.9151 39.5411 56.9151ZM39.9715 55.6495C40.2982 55.6495 40.5766 55.5614 40.8067 55.3853C41.0368 55.2063 41.2116 54.9577 41.3309 54.6395C41.4502 54.3214 41.5099 53.9506 41.5099 53.5273C41.5099 53.104 41.4502 52.7361 41.3309 52.4236C41.2144 52.1111 41.0411 51.8682 40.811 51.6949C40.5837 51.5216 40.3039 51.435 39.9715 51.435C39.6278 51.435 39.3408 51.5245 39.1107 51.7035C38.8806 51.8824 38.7073 52.1296 38.5908 52.4449C38.4743 52.7603 38.4161 53.1211 38.4161 53.5273C38.4161 53.9364 38.4743 54.3015 38.5908 54.6225C38.7101 54.9407 38.8849 55.1921 39.115 55.3768C39.3479 55.5586 39.6334 55.6495 39.9715 55.6495ZM44.6707 56.8V50.2546H46.2133V56.8H44.6707ZM45.4463 49.3256C45.202 49.3256 44.9917 49.2447 44.8156 49.0827C44.6395 48.9179 44.5514 48.7205 44.5514 48.4904C44.5514 48.2574 44.6395 48.06 44.8156 47.8981C44.9917 47.7333 45.202 47.6509 45.4463 47.6509C45.6935 47.6509 45.9037 47.7333 46.077 47.8981C46.2531 48.06 46.3412 48.2574 46.3412 48.4904C46.3412 48.7205 46.2531 48.9179 46.077 49.0827C45.9037 49.2447 45.6935 49.3256 45.4463 49.3256ZM51.0681 50.2546V51.4478H47.3053V50.2546H51.0681ZM48.2343 48.6864H49.7769V54.8313C49.7769 55.0387 49.8082 55.1978 49.8707 55.3086C49.936 55.4165 50.0212 55.4904 50.1263 55.5302C50.2315 55.5699 50.3479 55.5898 50.4758 55.5898C50.5724 55.5898 50.6604 55.5827 50.74 55.5685C50.8224 55.5543 50.8849 55.5415 50.9275 55.5302L51.1874 56.7361C51.105 56.7645 50.9871 56.7958 50.8337 56.8299C50.6832 56.864 50.4985 56.8839 50.2797 56.8895C49.8934 56.9009 49.5454 56.8427 49.2357 56.7148C48.9261 56.5841 48.6803 56.3824 48.4985 56.1097C48.3195 55.837 48.2315 55.4961 48.2343 55.087V48.6864ZM62.8731 51.0174H61.2794C61.2339 50.756 61.1501 50.5245 61.028 50.3228C60.9058 50.1182 60.7538 49.9449 60.572 49.8029C60.3902 49.6608 60.1828 49.5543 59.9498 49.4833C59.7197 49.4094 59.4712 49.3725 59.2041 49.3725C58.7297 49.3725 58.3092 49.4918 57.9427 49.7304C57.5763 49.9662 57.2893 50.3128 57.0819 50.7702C56.8746 51.2248 56.7709 51.7802 56.7709 52.4364C56.7709 53.104 56.8746 53.6665 57.0819 54.1239C57.2922 54.5785 57.5791 54.9222 57.9427 55.1552C58.3092 55.3853 58.7283 55.5003 59.1998 55.5003C59.4612 55.5003 59.7055 55.4662 59.9328 55.3981C60.1629 55.327 60.3689 55.2233 60.5507 55.087C60.7354 54.9506 60.8902 54.783 61.0152 54.5841C61.143 54.3853 61.2311 54.158 61.2794 53.9023L62.8731 53.9108C62.8135 54.3256 62.6842 54.7148 62.4854 55.0785C62.2893 55.4421 62.0322 55.7631 61.7141 56.0415C61.3959 56.3171 61.0237 56.533 60.5976 56.6893C60.1714 56.8427 59.6984 56.9194 59.1785 56.9194C58.4115 56.9194 57.7268 56.7418 57.1246 56.3867C56.5223 56.0316 56.0479 55.5188 55.7013 54.8483C55.3547 54.1779 55.1814 53.3739 55.1814 52.4364C55.1814 51.4961 55.3561 50.6921 55.7055 50.0245C56.055 49.354 56.5308 48.8412 57.1331 48.4861C57.7354 48.131 58.4172 47.9535 59.1785 47.9535C59.6643 47.9535 60.116 48.0216 60.5337 48.158C60.9513 48.2944 61.3234 48.4947 61.6501 48.7589C61.9768 49.0202 62.2453 49.3412 62.4555 49.7219C62.6686 50.0998 62.8078 50.5316 62.8731 51.0174ZM66.1363 56.9322C65.7215 56.9322 65.3479 56.8583 65.0155 56.7106C64.686 56.56 64.4246 56.3384 64.2315 56.0458C64.0411 55.7532 63.9459 55.3924 63.9459 54.9634C63.9459 54.5941 64.0141 54.2887 64.1505 54.0472C64.2868 53.8057 64.4729 53.6125 64.7087 53.4677C64.9445 53.3228 65.2101 53.2134 65.5056 53.1395C65.8039 53.0628 66.1121 53.0074 66.4303 52.9733C66.8138 52.9336 67.1249 52.8981 67.3636 52.8668C67.6022 52.8327 67.7755 52.7816 67.8834 52.7134C67.9942 52.6424 68.0496 52.533 68.0496 52.3853V52.3597C68.0496 52.0387 67.9545 51.7901 67.7641 51.614C67.5738 51.4378 67.2996 51.3498 66.9417 51.3498C66.5638 51.3498 66.2641 51.4322 66.0425 51.5969C65.8238 51.7617 65.6761 51.9563 65.5993 52.1807L64.159 51.9762C64.2726 51.5785 64.4601 51.2461 64.7215 50.979C64.9829 50.7091 65.3025 50.5074 65.6803 50.3739C66.0582 50.2375 66.4758 50.1694 66.9332 50.1694C67.2485 50.1694 67.5624 50.2063 67.8749 50.2802C68.1874 50.354 68.4729 50.4762 68.7315 50.6466C68.99 50.8143 69.1974 51.0429 69.3536 51.3327C69.5127 51.6225 69.5922 51.9847 69.5922 52.4194V56.8H68.1093V55.9009H68.0582C67.9644 56.0827 67.8323 56.2532 67.6618 56.4123C67.4942 56.5685 67.2826 56.6949 67.0269 56.7915C66.7741 56.8853 66.4772 56.9322 66.1363 56.9322ZM66.5368 55.7986C66.8465 55.7986 67.115 55.7375 67.3422 55.6154C67.5695 55.4904 67.7442 55.3256 67.8664 55.1211C67.9914 54.9165 68.0539 54.6935 68.0539 54.452V53.6807C68.0056 53.7205 67.9232 53.7574 67.8067 53.7915C67.6931 53.8256 67.5653 53.8554 67.4232 53.881C67.2812 53.9066 67.1405 53.9293 67.0013 53.9492C66.8621 53.9691 66.7414 53.9861 66.6391 54.0003C66.409 54.0316 66.203 54.0827 66.0212 54.1537C65.8394 54.2248 65.6959 54.3242 65.5908 54.452C65.4857 54.577 65.4332 54.739 65.4332 54.9378C65.4332 55.2219 65.5368 55.4364 65.7442 55.5813C65.9516 55.7262 66.2158 55.7986 66.5368 55.7986ZM71.1434 56.8V50.2546H72.6391V51.3455H72.7073C72.8266 50.9677 73.0312 50.6765 73.3209 50.4719C73.6136 50.2645 73.9474 50.1608 74.3224 50.1608C74.4076 50.1608 74.5028 50.1651 74.6079 50.1736C74.7158 50.1793 74.8053 50.1893 74.8763 50.2035V51.6225C74.811 51.5998 74.7073 51.5799 74.5653 51.5628C74.4261 51.5429 74.2911 51.533 74.1604 51.533C73.8792 51.533 73.6263 51.5941 73.4019 51.7162C73.1803 51.8356 73.0056 52.0018 72.8778 52.2148C72.7499 52.4279 72.686 52.6736 72.686 52.952V56.8H71.1434ZM78.0606 56.9151C77.5464 56.9151 77.0862 56.783 76.68 56.5188C76.2737 56.2546 75.9527 55.8711 75.7169 55.3682C75.4811 54.8654 75.3632 54.2546 75.3632 53.5358C75.3632 52.8086 75.4825 52.1949 75.7212 51.6949C75.9626 51.1921 76.2879 50.8128 76.697 50.5572C77.1061 50.2986 77.5621 50.1694 78.0649 50.1694C78.4484 50.1694 78.7638 50.2347 79.0109 50.3654C79.2581 50.4932 79.4541 50.6481 79.599 50.8299C79.7439 51.0089 79.8561 51.1779 79.9356 51.337H79.9996V48.0728H81.5464V56.8H80.0294V55.7688H79.9356C79.8561 55.9279 79.741 56.0969 79.5905 56.2759C79.4399 56.452 79.241 56.6026 78.9939 56.7276C78.7467 56.8526 78.4356 56.9151 78.0606 56.9151ZM78.491 55.6495C78.8177 55.6495 79.0962 55.5614 79.3263 55.3853C79.5564 55.2063 79.7311 54.9577 79.8504 54.6395C79.9697 54.3214 80.0294 53.9506 80.0294 53.5273C80.0294 53.104 79.9697 52.7361 79.8504 52.4236C79.7339 52.1111 79.5606 51.8682 79.3305 51.6949C79.1033 51.5216 78.8234 51.435 78.491 51.435C78.1473 51.435 77.8604 51.5245 77.6302 51.7035C77.4001 51.8824 77.2268 52.1296 77.1104 52.4449C76.9939 52.7603 76.9356 53.1211 76.9356 53.5273C76.9356 53.9364 76.9939 54.3015 77.1104 54.6225C77.2297 54.9407 77.4044 55.1921 77.6345 55.3768C77.8675 55.5586 78.153 55.6495 78.491 55.6495ZM16.6608 71.8V63.0728H20.0017C20.6324 63.0728 21.1565 63.1722 21.5741 63.3711C21.9946 63.5671 22.3085 63.8356 22.5159 64.1765C22.7261 64.5174 22.8312 64.9037 22.8312 65.3356C22.8312 65.6907 22.7631 65.9947 22.6267 66.2475C22.4903 66.4975 22.3071 66.7006 22.077 66.8569C21.8469 67.0131 21.5898 67.1253 21.3057 67.1935V67.2787C21.6153 67.2958 21.9122 67.391 22.1963 67.5643C22.4832 67.7347 22.7176 67.9762 22.8994 68.2887C23.0812 68.6012 23.1721 68.979 23.1721 69.4222C23.1721 69.8739 23.0628 70.2802 22.844 70.641C22.6253 70.9989 22.2957 71.2816 21.8554 71.489C21.415 71.6964 20.8611 71.8 20.1935 71.8H16.6608ZM18.2417 70.479H19.942C20.5159 70.479 20.9292 70.3697 21.1821 70.1509C21.4378 69.9293 21.5656 69.6452 21.5656 69.2986C21.5656 69.0401 21.5017 68.8072 21.3739 68.5998C21.246 68.3895 21.0642 68.2248 20.8284 68.1054C20.5926 67.9833 20.3114 67.9222 19.9846 67.9222H18.2417V70.479ZM18.2417 66.7844H19.8057C20.0784 66.7844 20.3241 66.7347 20.5429 66.6353C20.7616 66.533 20.9335 66.3895 21.0585 66.2049C21.1864 66.0174 21.2503 65.7958 21.2503 65.5401C21.2503 65.202 21.131 64.9236 20.8923 64.7049C20.6565 64.4861 20.3057 64.3768 19.8398 64.3768H18.2417V66.7844ZM24.4793 71.8V65.2546H26.0219V71.8H24.4793ZM25.2549 64.3256C25.0106 64.3256 24.8003 64.2447 24.6242 64.0827C24.4481 63.9179 24.36 63.7205 24.36 63.4904C24.36 63.2574 24.4481 63.06 24.6242 62.8981C24.8003 62.7333 25.0106 62.6509 25.2549 62.6509C25.502 62.6509 25.7123 62.7333 25.8856 62.8981C26.0617 63.06 26.1498 63.2574 26.1498 63.4904C26.1498 63.7205 26.0617 63.9179 25.8856 64.0827C25.7123 64.2447 25.502 64.3256 25.2549 64.3256ZM29.1508 63.0728V71.8H27.6082V63.0728H29.1508ZM32.2797 63.0728V71.8H30.7371V63.0728H32.2797ZM36.9108 71.8V63.0728H40.1835C40.854 63.0728 41.4165 63.1978 41.871 63.4478C42.3284 63.6978 42.6736 64.0415 42.9065 64.479C43.1423 64.9137 43.2602 65.408 43.2602 65.962C43.2602 66.5216 43.1423 67.0188 42.9065 67.4535C42.6707 67.8881 42.3227 68.2304 41.8625 68.4804C41.4023 68.7276 40.8355 68.8512 40.1622 68.8512H37.9932V67.5515H39.9491C40.3412 67.5515 40.6622 67.4833 40.9122 67.3469C41.1622 67.2106 41.3469 67.0231 41.4662 66.7844C41.5883 66.5458 41.6494 66.2716 41.6494 65.962C41.6494 65.6523 41.5883 65.3796 41.4662 65.1438C41.3469 64.908 41.1608 64.7248 40.9079 64.5941C40.6579 64.4606 40.3355 64.3938 39.9406 64.3938H38.4917V71.8H36.9108ZM46.3316 71.9322C45.9168 71.9322 45.5432 71.8583 45.2109 71.7106C44.8813 71.56 44.6199 71.3384 44.4268 71.0458C44.2364 70.7532 44.1413 70.3924 44.1413 69.9634C44.1413 69.5941 44.2094 69.2887 44.3458 69.0472C44.4822 68.8057 44.6682 68.6125 44.904 68.4677C45.1398 68.3228 45.4055 68.2134 45.7009 68.1395C45.9992 68.0628 46.3074 68.0074 46.6256 67.9733C47.0091 67.9336 47.3202 67.8981 47.5589 67.8668C47.7975 67.8327 47.9708 67.7816 48.0788 67.7134C48.1895 67.6424 48.2449 67.533 48.2449 67.3853V67.3597C48.2449 67.0387 48.1498 66.7901 47.9594 66.614C47.7691 66.4378 47.4949 66.3498 47.137 66.3498C46.7591 66.3498 46.4594 66.4322 46.2378 66.5969C46.0191 66.7617 45.8714 66.9563 45.7947 67.1807L44.3543 66.9762C44.468 66.5785 44.6555 66.2461 44.9168 65.979C45.1782 65.7091 45.4978 65.5074 45.8756 65.3739C46.2535 65.2375 46.6711 65.1694 47.1285 65.1694C47.4438 65.1694 47.7577 65.2063 48.0702 65.2802C48.3827 65.354 48.6682 65.4762 48.9268 65.6466C49.1853 65.8143 49.3927 66.0429 49.5489 66.3327C49.708 66.6225 49.7876 66.9847 49.7876 67.4194V71.8H48.3046V70.9009H48.2535C48.1597 71.0827 48.0276 71.2532 47.8572 71.4123C47.6895 71.5685 47.4779 71.6949 47.2222 71.7915C46.9694 71.8853 46.6725 71.9322 46.3316 71.9322ZM46.7322 70.7986C47.0418 70.7986 47.3103 70.7375 47.5376 70.6154C47.7648 70.4904 47.9395 70.3256 48.0617 70.1211C48.1867 69.9165 48.2492 69.6935 48.2492 69.452V68.6807C48.2009 68.7205 48.1185 68.7574 48.002 68.7915C47.8884 68.8256 47.7606 68.8554 47.6185 68.881C47.4765 68.9066 47.3359 68.9293 47.1966 68.9492C47.0574 68.9691 46.9367 68.9861 46.8344 69.0003C46.6043 69.0316 46.3984 69.0827 46.2165 69.1537C46.0347 69.2248 45.8913 69.3242 45.7861 69.452C45.681 69.577 45.6285 69.739 45.6285 69.9378C45.6285 70.2219 45.7322 70.4364 45.9395 70.5813C46.1469 70.7262 46.4111 70.7986 46.7322 70.7986ZM52.0631 74.2546C51.8529 74.2546 51.6583 74.2375 51.4793 74.2035C51.3032 74.1722 51.1626 74.1353 51.0574 74.0927L51.4154 72.891C51.6398 72.9563 51.8401 72.9875 52.0163 72.9847C52.1924 72.9819 52.3472 72.9265 52.4807 72.8185C52.6171 72.7134 52.7322 72.5373 52.8259 72.2901L52.958 71.9364L50.5844 65.2546H52.2208L53.7293 70.1978H53.7975L55.3103 65.2546H56.9509L54.3302 72.5927C54.208 72.9393 54.0461 73.2361 53.8444 73.4833C53.6427 73.7333 53.3955 73.9236 53.1029 74.0543C52.8131 74.1878 52.4665 74.2546 52.0631 74.2546ZM58.0184 71.8V65.2546H59.4928V66.3668H59.5695C59.7059 65.9918 59.9317 65.6992 60.2471 65.489C60.5624 65.2759 60.9388 65.1694 61.3763 65.1694C61.8195 65.1694 62.1931 65.2773 62.4971 65.4932C62.8039 65.7063 63.0198 65.9975 63.1448 66.3668H63.213C63.3579 66.0032 63.6022 65.7134 63.9459 65.4975C64.2925 65.2787 64.703 65.1694 65.1775 65.1694C65.7797 65.1694 66.2712 65.3597 66.6519 65.7404C67.0326 66.1211 67.2229 66.6765 67.2229 67.4066V71.8H65.6761V67.6452C65.6761 67.239 65.5681 66.9421 65.3522 66.7546C65.1363 66.5643 64.8721 66.4691 64.5596 66.4691C64.1874 66.4691 63.8962 66.5856 63.686 66.8185C63.4786 67.0486 63.3749 67.3483 63.3749 67.7177V71.8H61.8621V67.5813C61.8621 67.2432 61.7599 66.9733 61.5553 66.7716C61.3536 66.5699 61.0894 66.4691 60.7627 66.4691C60.5411 66.4691 60.3394 66.5259 60.1576 66.6395C59.9758 66.7503 59.8309 66.908 59.7229 67.1125C59.615 67.3143 59.561 67.55 59.561 67.8199V71.8H58.0184ZM71.6856 71.9279C71.0294 71.9279 70.4626 71.7915 69.9854 71.5188C69.5109 71.2432 69.1459 70.854 68.8902 70.3512C68.6345 69.8455 68.5067 69.2503 68.5067 68.5657C68.5067 67.8924 68.6345 67.3015 68.8902 66.7929C69.1487 66.2816 69.5095 65.8839 69.9726 65.5998C70.4356 65.3128 70.9797 65.1694 71.6047 65.1694C72.0081 65.1694 72.3888 65.2347 72.7467 65.3654C73.1075 65.4932 73.4257 65.6921 73.7013 65.962C73.9797 66.2319 74.1984 66.5756 74.3575 66.9932C74.5166 67.408 74.5962 67.9023 74.5962 68.4762V68.9492H69.2311V67.9094H73.1175C73.1146 67.614 73.0507 67.3512 72.9257 67.1211C72.8007 66.8881 72.626 66.7049 72.4016 66.5714C72.18 66.4378 71.9214 66.3711 71.626 66.3711C71.3106 66.3711 71.0337 66.4478 70.795 66.6012C70.5564 66.7518 70.3703 66.9506 70.2368 67.1978C70.1061 67.4421 70.0393 67.7106 70.0365 68.0032V68.9108C70.0365 69.2915 70.1061 69.6182 70.2453 69.891C70.3845 70.1608 70.5791 70.3682 70.8291 70.5131C71.0791 70.6552 71.3717 70.7262 71.7069 70.7262C71.9314 70.7262 72.1345 70.6949 72.3163 70.6324C72.4981 70.5671 72.6558 70.4719 72.7893 70.3469C72.9229 70.2219 73.0237 70.0671 73.0919 69.8824L74.5322 70.0444C74.4413 70.425 74.268 70.7574 74.0123 71.0415C73.7595 71.3228 73.4356 71.5415 73.0408 71.6978C72.6459 71.8512 72.1942 71.9279 71.6856 71.9279ZM77.4438 67.9648V71.8H75.9012V65.2546H77.3756V66.3668H77.4523C77.6029 66.0003 77.843 65.7091 78.1725 65.4932C78.5049 65.2773 78.9154 65.1694 79.404 65.1694C79.8557 65.1694 80.2492 65.266 80.5844 65.4591C80.9225 65.6523 81.1839 65.9322 81.3685 66.2986C81.556 66.6651 81.6484 67.1097 81.6455 67.6324V71.8H80.1029V67.8711C80.1029 67.4336 79.9893 67.0912 79.762 66.8441C79.5376 66.5969 79.2265 66.4733 78.8288 66.4733C78.5589 66.4733 78.3188 66.533 78.1086 66.6523C77.9012 66.7688 77.7378 66.9378 77.6185 67.1594C77.502 67.381 77.4438 67.6495 77.4438 67.9648ZM86.4822 65.2546V66.4478H82.7194V65.2546H86.4822ZM83.6484 63.6864H85.191V69.8313C85.191 70.0387 85.2222 70.1978 85.2847 70.3086C85.3501 70.4165 85.4353 70.4904 85.5404 70.5302C85.6455 70.5699 85.762 70.5898 85.8898 70.5898C85.9864 70.5898 86.0745 70.5827 86.154 70.5685C86.2364 70.5543 86.2989 70.5415 86.3415 70.5302L86.6015 71.7361C86.5191 71.7645 86.4012 71.7958 86.2478 71.8299C86.0972 71.864 85.9126 71.8839 85.6938 71.8895C85.3074 71.9009 84.9594 71.8427 84.6498 71.7148C84.3401 71.5841 84.0944 71.3824 83.9126 71.1097C83.7336 70.837 83.6455 70.4961 83.6484 70.087V63.6864Z" fill="#1A3C63"/>
<rect x="15.8" y="15.8" width="74" height="20" rx="10" fill="#FFD275"/>
<path d="M24.165 26.1233C25.182 24.1873 25.9568 22.8506 27.0281 21.1606C27.2863 20.7533 27.4154 20.5496 27.5342 20.5215C27.6363 20.4973 27.7449 20.5288 27.8182 20.6039C27.9034 20.6913 27.9034 20.9334 27.9034 21.4176V22.8957C27.9034 23.4558 27.9034 23.7358 28.0124 23.9497C28.1083 24.1379 28.2613 24.2908 28.4494 24.3867C28.6634 24.4957 28.9434 24.4957 29.5034 24.4957H30.0566C30.3039 24.4957 30.4276 24.4957 30.5043 24.5483C30.5709 24.5941 30.6168 24.666 30.6303 24.7457C30.6458 24.8374 30.594 24.9492 30.4905 25.1726C29.5155 27.2761 28.7276 28.6874 27.5655 30.4844C27.3101 30.8794 27.1824 31.0768 27.0639 31.1041C26.9623 31.1276 26.8538 31.0955 26.7812 31.0207C26.6965 30.9334 26.6965 30.697 26.6965 30.224V28.4235C26.6965 27.8634 26.6965 27.5834 26.5875 27.3695C26.4917 27.1813 26.3387 27.0283 26.1505 26.9325C25.9366 26.8235 25.6566 26.8235 25.0965 26.8235H24.5889C24.3284 26.8235 24.1981 26.8235 24.1202 26.7683C24.0524 26.7202 24.0072 26.6455 23.9962 26.5631C23.9836 26.4685 24.0441 26.3534 24.165 26.1233Z" fill="#B87D00"/>
<path d="M39.2417 21.0728V29.8H37.6608V21.0728H39.2417ZM42.4282 25.9648V29.8H40.8856V23.2546H42.36V24.3668H42.4367C42.5873 24.0003 42.8273 23.7091 43.1569 23.4932C43.4893 23.2773 43.8998 23.1694 44.3884 23.1694C44.8401 23.1694 45.2336 23.266 45.5688 23.4591C45.9069 23.6523 46.1682 23.9322 46.3529 24.2986C46.5404 24.6651 46.6327 25.1097 46.6299 25.6324V29.8H45.0873V25.8711C45.0873 25.4336 44.9736 25.0912 44.7464 24.8441C44.5219 24.5969 44.2109 24.4733 43.8131 24.4733C43.5432 24.4733 43.3032 24.533 43.093 24.6523C42.8856 24.7688 42.7222 24.9378 42.6029 25.1594C42.4864 25.381 42.4282 25.6495 42.4282 25.9648ZM53.3714 24.9847L51.9651 25.1381C51.9253 24.9961 51.8557 24.8625 51.7563 24.7375C51.6597 24.6125 51.529 24.5117 51.3643 24.435C51.1995 24.3583 50.9978 24.3199 50.7591 24.3199C50.4381 24.3199 50.1682 24.3895 49.9495 24.5287C49.7336 24.6679 49.627 24.8483 49.6299 25.0699C49.627 25.2603 49.6966 25.4151 49.8387 25.5344C49.9836 25.6537 50.2222 25.7518 50.5546 25.8285L51.6711 26.0671C52.2904 26.2006 52.7506 26.4123 53.0518 26.702C53.3557 26.9918 53.5092 27.3711 53.512 27.8398C53.5092 28.2518 53.3884 28.6154 53.1498 28.9307C52.914 29.2432 52.5859 29.4875 52.1654 29.6637C51.7449 29.8398 51.262 29.9279 50.7165 29.9279C49.9154 29.9279 49.2705 29.7603 48.7819 29.425C48.2932 29.087 48.002 28.6168 47.9083 28.0145L49.4126 27.8697C49.4807 28.1651 49.6256 28.3881 49.8472 28.5387C50.0688 28.6893 50.3572 28.7645 50.7123 28.7645C51.0788 28.7645 51.3728 28.6893 51.5944 28.5387C51.8188 28.3881 51.931 28.202 51.931 27.9804C51.931 27.7929 51.8586 27.6381 51.7137 27.516C51.5716 27.3938 51.3501 27.3 51.0489 27.2347L49.9324 27.0003C49.3046 26.8697 48.8401 26.6495 48.539 26.3398C48.2378 26.0273 48.0887 25.6324 48.0915 25.1552C48.0887 24.7518 48.1981 24.4023 48.4197 24.1069C48.6441 23.8086 48.9552 23.5785 49.3529 23.4165C49.7535 23.2518 50.2151 23.1694 50.7378 23.1694C51.5049 23.1694 52.1086 23.3327 52.5489 23.6594C52.9921 23.9861 53.2663 24.4279 53.3714 24.9847ZM58.0525 23.2546V24.4478H54.2897V23.2546H58.0525ZM55.2187 21.6864H56.7613V27.8313C56.7613 28.0387 56.7925 28.1978 56.855 28.3086C56.9204 28.4165 57.0056 28.4904 57.1107 28.5302C57.2158 28.5699 57.3323 28.5898 57.4601 28.5898C57.5567 28.5898 57.6448 28.5827 57.7243 28.5685C57.8067 28.5543 57.8692 28.5415 57.9118 28.5302L58.1718 29.7361C58.0894 29.7645 57.9715 29.7958 57.8181 29.8299C57.6675 29.864 57.4829 29.8839 57.2641 29.8895C56.8778 29.9009 56.5297 29.8427 56.2201 29.7148C55.9104 29.5841 55.6647 29.3824 55.4829 29.1097C55.3039 28.837 55.2158 28.4961 55.2187 28.087V21.6864ZM61.2261 29.9322C60.8114 29.9322 60.4378 29.8583 60.1054 29.7106C59.7758 29.56 59.5145 29.3384 59.3213 29.0458C59.131 28.7532 59.0358 28.3924 59.0358 27.9634C59.0358 27.5941 59.104 27.2887 59.2403 27.0472C59.3767 26.8057 59.5628 26.6125 59.7986 26.4677C60.0344 26.3228 60.3 26.2134 60.5954 26.1395C60.8937 26.0628 61.202 26.0074 61.5202 25.9733C61.9037 25.9336 62.2148 25.8981 62.4534 25.8668C62.692 25.8327 62.8653 25.7816 62.9733 25.7134C63.0841 25.6424 63.1395 25.533 63.1395 25.3853V25.3597C63.1395 25.0387 63.0443 24.7901 62.854 24.614C62.6636 24.4378 62.3895 24.3498 62.0315 24.3498C61.6537 24.3498 61.354 24.4322 61.1324 24.5969C60.9136 24.7617 60.7659 24.9563 60.6892 25.1807L59.2489 24.9762C59.3625 24.5785 59.55 24.2461 59.8114 23.979C60.0727 23.7091 60.3923 23.5074 60.7702 23.3739C61.148 23.2375 61.5656 23.1694 62.023 23.1694C62.3383 23.1694 62.6523 23.2063 62.9648 23.2802C63.2773 23.354 63.5628 23.4762 63.8213 23.6466C64.0798 23.8143 64.2872 24.0429 64.4435 24.3327C64.6025 24.6225 64.6821 24.9847 64.6821 25.4194V29.8H63.1991V28.9009H63.148C63.0542 29.0827 62.9221 29.2532 62.7517 29.4123C62.5841 29.5685 62.3724 29.6949 62.1167 29.7915C61.8639 29.8853 61.567 29.9322 61.2261 29.9322ZM61.6267 28.7986C61.9364 28.7986 62.2048 28.7375 62.4321 28.6154C62.6594 28.4904 62.8341 28.3256 62.9562 28.1211C63.0812 27.9165 63.1437 27.6935 63.1437 27.452V26.6807C63.0954 26.7205 63.0131 26.7574 62.8966 26.7915C62.7829 26.8256 62.6551 26.8554 62.5131 26.881C62.371 26.9066 62.2304 26.9293 62.0912 26.9492C61.952 26.9691 61.8312 26.9861 61.729 27.0003C61.4989 27.0316 61.2929 27.0827 61.1111 27.1537C60.9292 27.2248 60.7858 27.3242 60.6807 27.452C60.5756 27.577 60.523 27.739 60.523 27.9378C60.523 28.2219 60.6267 28.4364 60.8341 28.5813C61.0415 28.7262 61.3057 28.7986 61.6267 28.7986ZM67.7758 25.9648V29.8H66.2332V23.2546H67.7077V24.3668H67.7844C67.9349 24.0003 68.175 23.7091 68.5045 23.4932C68.8369 23.2773 69.2474 23.1694 69.7361 23.1694C70.1878 23.1694 70.5812 23.266 70.9165 23.4591C71.2545 23.6523 71.5159 23.9322 71.7006 24.2986C71.8881 24.6651 71.9804 25.1097 71.9775 25.6324V29.8H70.4349V25.8711C70.4349 25.4336 70.3213 25.0912 70.094 24.8441C69.8696 24.5969 69.5585 24.4733 69.1608 24.4733C68.8909 24.4733 68.6508 24.533 68.4406 24.6523C68.2332 24.7688 68.0699 24.9378 67.9506 25.1594C67.8341 25.381 67.7758 25.6495 67.7758 25.9648ZM76.8142 23.2546V24.4478H73.0514V23.2546H76.8142ZM73.9804 21.6864H75.523V27.8313C75.523 28.0387 75.5542 28.1978 75.6167 28.3086C75.6821 28.4165 75.7673 28.4904 75.8724 28.5302C75.9775 28.5699 76.094 28.5898 76.2219 28.5898C76.3185 28.5898 76.4065 28.5827 76.4861 28.5685C76.5685 28.5543 76.631 28.5415 76.6736 28.5302L76.9335 29.7361C76.8511 29.7645 76.7332 29.7958 76.5798 29.8299C76.4292 29.864 76.2446 29.8839 76.0258 29.8895C75.6395 29.9009 75.2915 29.8427 74.9818 29.7148C74.6721 29.5841 74.4264 29.3824 74.2446 29.1097C74.0656 28.837 73.9775 28.4961 73.9804 28.087V21.6864Z" fill="#B87D00"/>
<path fill-rule="evenodd" clip-rule="evenodd" d="M133.487 48.4302C136.675 46.597 141.76 46.4724 145.057 48.1833C153.482 52.5546 160.283 56.4549 167.752 61.2221C170.718 63.1156 170.493 66.0324 167.312 67.8618L135.271 86.286C134.408 86.7822 132.946 86.5335 132.717 85.8515L131.639 82.6357C131.451 82.075 130.652 81.6542 129.663 81.5953L124.371 81.2799C123.146 81.2069 122.155 80.6854 121.923 79.9906L120.742 76.4682C120.526 75.8241 119.656 75.3237 118.536 75.1996L112.41 74.5207C111.202 74.3868 110.295 73.8173 110.168 73.1125L109.619 70.0697C109.517 69.5011 108.785 69.0415 107.81 68.9335L102.217 68.3137C101.031 68.1822 100.599 67.3414 101.462 66.8452L133.487 48.4302ZM134.671 55.7544C135.786 55.1132 137.58 55.1054 138.679 55.737L154.589 64.8856C155.687 65.5172 155.674 66.549 154.559 67.1902C153.443 67.8314 151.649 67.8392 150.551 67.2076L134.641 58.059C133.542 57.4274 133.556 56.3956 134.671 55.7544ZM132.591 61.5246C131.493 60.893 129.698 60.9008 128.583 61.542C127.468 62.1832 127.455 63.215 128.553 63.8466L140.486 70.708C141.584 71.3396 143.378 71.3318 144.494 70.6906C145.609 70.0494 145.622 69.0176 144.524 68.386L132.591 61.5246Z" fill="#4277A5"/>
<path d="M128.583 61.542C129.698 60.9008 131.493 60.893 132.591 61.5246L144.524 68.386C145.622 69.0176 145.609 70.0494 144.494 70.6906C143.378 71.3318 141.584 71.3396 140.486 70.708L128.553 63.8466C127.455 63.215 127.468 62.1832 128.583 61.542Z" fill="#4277A5"/>
<path d="M138.679 55.737C137.58 55.1054 135.786 55.1132 134.671 55.7544C133.556 56.3956 133.542 57.4274 134.641 58.059L150.551 67.2076C151.649 67.8392 153.443 67.8314 154.559 67.1902C155.674 66.549 155.687 65.5172 154.589 64.8856L138.679 55.737Z" fill="#4277A5"/>
<path fill-rule="evenodd" clip-rule="evenodd" d="M133.032 48.1146C135.943 46.4408 140.548 46.3052 143.509 47.8391C151.077 51.7584 157.18 55.2586 163.876 59.5405C166.536 61.2413 166.293 63.8827 163.388 65.553L134.133 82.3751C133.345 82.8282 132.025 82.6095 131.827 81.9932L130.895 79.087C130.733 78.5803 130.015 78.203 129.12 78.154L124.334 77.8923C123.226 77.8317 122.337 77.3641 122.135 76.7362L121.114 73.5529C120.928 72.9708 120.147 72.5217 119.134 72.4143L113.598 71.8273C112.506 71.7115 111.693 71.2 111.588 70.5626L111.132 67.8106C111.047 67.2963 110.391 66.8836 109.51 66.7901L104.456 66.2542C103.384 66.1405 103.004 65.3813 103.792 64.9282L133.032 48.1146ZM134.004 54.7394C135.022 54.1539 136.647 54.1388 137.633 54.7056L151.911 62.9159C152.897 63.4827 152.87 64.4168 151.852 65.0023C150.834 65.5877 149.21 65.6028 148.224 65.036L133.946 56.8257C132.96 56.2589 132.986 55.3248 134.004 54.7394ZM132.043 59.9721C131.058 59.4053 129.433 59.4204 128.415 60.0059C127.397 60.5913 127.371 61.5254 128.356 62.0922L139.065 68.2499C140.051 68.8167 141.675 68.8016 142.693 68.2162C143.712 67.6307 143.738 66.6966 142.752 66.1298L132.043 59.9721Z" fill="#5CBAE4"/>
<path d="M128.415 60.0059C129.433 59.4204 131.058 59.4053 132.043 59.9721L142.752 66.1298C143.738 66.6966 143.712 67.6307 142.693 68.2162C141.675 68.8016 140.051 68.8167 139.065 68.2499L128.356 62.0922C127.371 61.5254 127.397 60.5913 128.415 60.0059Z" fill="#5CBAE4"/>
<path d="M137.633 54.7056C136.647 54.1388 135.022 54.1539 134.004 54.7394C132.986 55.3248 132.96 56.2589 133.946 56.8257L148.224 65.036C149.21 65.6028 150.834 65.5877 151.852 65.0023C152.87 64.4168 152.897 63.4827 151.911 62.9159L137.633 54.7056Z" fill="#5CBAE4"/>
<path d="M166.8 64.8V59.8H162.8V64.8H166.8Z" fill="#5CBAE4"/>
<path d="M109.8 65.8V62.8H103.8V65.8H109.8Z" fill="#5CBAE4"/>
<path fill-rule="evenodd" clip-rule="evenodd" d="M133.036 45.1146C135.947 43.4408 140.552 43.3052 143.513 44.8391C151.081 48.7584 157.184 52.2586 163.88 56.5405C166.54 58.2413 166.297 60.8827 163.392 62.553L134.137 79.3751C133.349 79.8282 132.029 79.6096 131.831 78.9932L130.899 76.087C130.737 75.5803 130.019 75.203 129.124 75.1541L124.338 74.8923C123.23 74.8317 122.34 74.3641 122.139 73.7362L121.118 70.5529C120.931 69.9708 120.15 69.5217 119.138 69.4143L113.602 68.8273C112.51 68.7115 111.697 68.2 111.591 67.5626L111.136 64.8106C111.051 64.2963 110.395 63.8836 109.514 63.7901L104.46 63.2542C103.388 63.1405 103.008 62.3813 103.796 61.9282L133.036 45.1146ZM134.008 51.7394C135.026 51.1539 136.651 51.1388 137.637 51.7056L151.915 59.9159C152.901 60.4827 152.874 61.4168 151.856 62.0023C150.838 62.5877 149.214 62.6028 148.228 62.036L133.95 53.8257C132.964 53.2589 132.99 52.3248 134.008 51.7394ZM132.047 56.9721C131.062 56.4053 129.437 56.4204 128.419 57.0059C127.401 57.5913 127.375 58.5254 128.36 59.0922L139.069 65.2499C140.055 65.8167 141.679 65.8016 142.697 65.2162C143.716 64.6307 143.742 63.6966 142.756 63.1298L132.047 56.9721Z" fill="url(#paint1_linear_185_373)"/>
<g filter="url(#filter1_i_185_373)">
<path fill-rule="evenodd" clip-rule="evenodd" d="M133.036 45.1146C135.947 43.4408 140.552 43.3052 143.513 44.8391C151.081 48.7584 157.184 52.2586 163.88 56.5405C166.54 58.2413 166.297 60.8827 163.392 62.553L134.137 79.3751C133.349 79.8282 132.029 79.6096 131.831 78.9932L130.899 76.087C130.737 75.5803 130.019 75.203 129.124 75.154L124.338 74.8923C123.23 74.8317 122.34 74.3641 122.139 73.7362L121.118 70.5529C120.931 69.9708 120.15 69.5217 119.138 69.4143L113.602 68.8273C112.51 68.7115 111.697 68.2 111.591 67.5626L111.136 64.8106C111.051 64.2963 110.395 63.8836 109.514 63.7901L104.46 63.2542C103.388 63.1405 103.008 62.3813 103.796 61.9282L133.036 45.1146ZM134.008 51.7394C135.026 51.1539 136.651 51.1388 137.637 51.7056L151.915 59.9159C152.901 60.4827 152.874 61.4168 151.856 62.0023C150.838 62.5877 149.214 62.6028 148.228 62.036L133.95 53.8257C132.964 53.2589 132.99 52.3248 134.008 51.7394ZM132.047 56.9721C131.062 56.4053 129.437 56.4204 128.419 57.0059C127.401 57.5913 127.375 58.5254 128.36 59.0922L139.069 65.2499C140.055 65.8167 141.679 65.8016 142.697 65.2162C143.716 64.6307 143.742 63.6966 142.756 63.1298L132.047 56.9721Z" fill="white" fill-opacity="0.02"/>
<path d="M128.419 57.0059C129.437 56.4204 131.062 56.4053 132.047 56.9721L142.756 63.1298C143.742 63.6966 143.716 64.6307 142.697 65.2162C141.679 65.8016 140.055 65.8167 139.069 65.2499L128.36 59.0922C127.375 58.5254 127.401 57.5913 128.419 57.0059Z" fill="white" fill-opacity="0.02"/>
<path d="M137.637 51.7056C136.651 51.1388 135.026 51.1539 134.008 51.7394C132.99 52.3248 132.964 53.2589 133.95 53.8257L148.228 62.036C149.214 62.6028 150.838 62.5877 151.856 62.0023C152.874 61.4168 152.901 60.4827 151.915 59.9159L137.637 51.7056Z" fill="white" fill-opacity="0.02"/>
</g>
</g>
<rect x="3.29999" y="3.30005" width="161.096" height="96" rx="12.5" stroke="#DCEFFF"/>
</g>
<defs>
<filter id="filter0_d_185_373" x="-1.23978e-05" y="4.86374e-05" width="171.696" height="106.6" filterUnits="userSpaceOnUse" color-interpolation-filters="sRGB">
<feFlood flood-opacity="0" result="BackgroundImageFix"/>
<feColorMatrix in="SourceAlpha" type="matrix" values="0 0 0 0 0 0 0 0 0 0 0 0 0 0 0 0 0 0 127 0" result="hardAlpha"/>
<feOffset dx="2" dy="2"/>
<feGaussianBlur stdDeviation="2.4"/>
<feComposite in2="hardAlpha" operator="out"/>
<feColorMatrix type="matrix" values="0 0 0 0 0 0 0 0 0 0 0 0 0 0 0 0 0 0 0.022 0"/>
<feBlend mode="normal" in2="BackgroundImageFix" result="effect1_dropShadow_185_373"/>
<feBlend mode="normal" in="SourceGraphic" in2="effect1_dropShadow_185_373" result="shape"/>
</filter>
<filter id="filter1_i_185_373" x="103.376" y="43.769" width="62.3552" height="35.847" filterUnits="userSpaceOnUse" color-interpolation-filters="sRGB">
<feFlood flood-opacity="0" result="BackgroundImageFix"/>
<feBlend mode="normal" in="SourceGraphic" in2="BackgroundImageFix" result="shape"/>
<feColorMatrix in="SourceAlpha" type="matrix" values="0 0 0 0 0 0 0 0 0 0 0 0 0 0 0 0 0 0 127 0" result="hardAlpha"/>
<feOffset dx="0.2" dy="1.4"/>
<feComposite in2="hardAlpha" operator="arithmetic" k2="-1" k3="1"/>
<feColorMatrix type="matrix" values="0 0 0 0 1 0 0 0 0 1 0 0 0 0 1 0 0 0 1 0"/>
<feBlend mode="normal" in2="shape" result="effect1_innerShadow_185_373"/>
</filter>
<linearGradient id="paint0_linear_185_373" x1="3.79999" y1="3.80005" x2="157.763" y2="107.873" gradientUnits="userSpaceOnUse">
<stop stop-color="white"/>
<stop offset="1" stop-color="#9BE3FD"/>
</linearGradient>
<linearGradient id="paint1_linear_185_373" x1="167.065" y1="50.8148" x2="98.7253" y2="54.5128" gradientUnits="userSpaceOnUse">
<stop stop-color="#C1ECFF"/>
<stop offset="1" stop-color="#73D4FF"/>
</linearGradient>
<clipPath id="clip0_185_373">
<rect x="3.79999" y="3.80005" width="160.096" height="95" rx="12" fill="white"/>
</clipPath>
</defs>
</svg>
