<svg xmlns="http://www.w3.org/2000/svg" width="172" height="107" fill="none" viewBox="0 0 172 107"><g filter="url(#a)"><g clip-path="url(#b)"><rect width="160.096" height="95" x="3.8" y="3.8" fill="url(#c)" rx="12"/><rect width="160.096" height="95" x="3.8" y="3.8" fill="#fff" fill-opacity=".65" rx="12"/><path fill="#1a3c63" d="M24.131 51.017h-1.594a2 2 0 0 0-.251-.694 1.87 1.87 0 0 0-1.078-.84 2.4 2.4 0 0 0-.746-.11q-.712 0-1.261.357-.55.354-.861 1.04-.311.682-.311 1.666 0 1.001.31 1.688.316.681.862 1.031.549.345 1.257.345.391 0 .733-.102a2 2 0 0 0 .617-.311q.277-.204.465-.503.192-.298.264-.682l1.594.009q-.09.623-.388 1.167a3.5 3.5 0 0 1-.771.963q-.477.414-1.117.648-.639.23-1.419.23-1.15 0-2.054-.532t-1.423-1.539-.52-2.412q0-1.41.524-2.411.525-1.007 1.428-1.539t2.045-.532q.73 0 1.355.204.627.205 1.117.6.49.393.805.964.32.567.418 1.295m1.38 5.783v-6.545h1.495v1.09h.069q.178-.566.613-.873a1.7 1.7 0 0 1 1.002-.311q.128 0 .285.013.162.008.268.03v1.419a1.6 1.6 0 0 0-.31-.06 3 3 0 0 0-.405-.03q-.422 0-.759.183-.332.18-.524.499a1.4 1.4 0 0 0-.192.737V56.8zm7.386.128q-.985 0-1.7-.41a2.77 2.77 0 0 1-1.096-1.167q-.384-.758-.383-1.785 0-1.011.383-1.773a2.9 2.9 0 0 1 1.082-1.193q.696-.43 1.633-.43.605 0 1.142.195.54.192.954.597.418.405.657 1.031.237.623.238 1.483v.473h-5.365v-1.04h3.886a1.66 1.66 0 0 0-.191-.788 1.4 1.4 0 0 0-.525-.55q-.332-.2-.775-.2-.472 0-.831.23-.358.226-.558.597-.197.366-.2.805v.908q0 .57.208.98.21.405.584.622.375.213.878.213.336 0 .61-.094.272-.097.472-.285a1.2 1.2 0 0 0 .303-.465l1.44.162q-.136.571-.52.998-.379.421-.971.656-.593.23-1.355.23m6.644-.013q-.771 0-1.38-.396-.61-.397-.964-1.15-.353-.755-.353-1.833 0-1.09.358-1.841.361-.754.976-1.138.613-.387 1.367-.388.577 0 .946.196.372.192.589.465.217.268.336.507h.064v-3.264h1.547V56.8H41.51v-1.031h-.094q-.12.239-.345.507-.226.264-.597.452-.37.187-.933.187m.43-1.265q.49 0 .836-.265.345-.268.524-.745a3.2 3.2 0 0 0 .179-1.113q0-.634-.18-1.103a1.57 1.57 0 0 0-.519-.73q-.34-.258-.84-.259-.515 0-.86.268-.345.27-.52.742a3.1 3.1 0 0 0-.175 1.082q0 .614.175 1.096.18.478.524.754.35.273.856.273m4.7 1.15v-6.545h1.542V56.8zm.775-7.474a.9.9 0 0 1-.63-.243.78.78 0 0 1-.265-.593q0-.35.265-.592a.9.9 0 0 1 .63-.247q.372 0 .631.247.264.243.264.592 0 .345-.264.593a.9.9 0 0 1-.63.243m5.622.929v1.193h-3.763v-1.193zm-2.834-1.569h1.543v6.145q0 .312.094.478.097.162.255.221.158.06.35.06.144 0 .264-.022.123-.02.188-.038l.26 1.206q-.124.043-.354.094-.226.051-.554.06a2.5 2.5 0 0 1-1.044-.175 1.6 1.6 0 0 1-.737-.605q-.27-.41-.265-1.023zm14.64 2.331H61.28a2 2 0 0 0-.251-.694 1.87 1.87 0 0 0-1.078-.84 2.4 2.4 0 0 0-.746-.11q-.712 0-1.261.357-.55.354-.861 1.04-.31.682-.311 1.666 0 1.001.31 1.688.316.681.862 1.031.549.345 1.257.345.391 0 .733-.102a2 2 0 0 0 .618-.311q.277-.204.464-.503.192-.298.264-.682l1.594.009q-.09.623-.388 1.167a3.5 3.5 0 0 1-.77.963q-.479.414-1.117.648-.64.23-1.42.23-1.15 0-2.053-.532-.904-.532-1.424-1.539-.52-1.005-.52-2.412 0-1.41.525-2.411.524-1.007 1.427-1.539t2.045-.532q.729 0 1.356.204.626.205 1.116.6.49.393.806.964.32.567.417 1.295m3.262 5.915q-.621 0-1.12-.221-.494-.227-.785-.665-.285-.44-.285-1.083 0-.553.204-.916.205-.361.559-.58.353-.217.797-.328.447-.114.924-.166.576-.06.934-.106.357-.05.52-.154.165-.105.166-.328v-.025q0-.482-.286-.746-.285-.264-.822-.264-.567 0-.9.247-.327.248-.443.584l-1.44-.205a2.3 2.3 0 0 1 .563-.997q.39-.405.958-.605a3.7 3.7 0 0 1 1.253-.205q.474 0 .942.111.469.11.856.367.388.25.623.686.238.435.238 1.086V56.8H68.11v-.9h-.05a1.9 1.9 0 0 1-.397.512q-.252.235-.635.38-.38.14-.89.14m.4-1.133q.465 0 .806-.184.341-.188.524-.494a1.26 1.26 0 0 0 .188-.669v-.771a.7.7 0 0 1-.247.11 4 4 0 0 1-.384.09q-.213.038-.422.068L66.64 54q-.345.048-.618.154-.273.105-.43.298a.73.73 0 0 0-.158.486q0 .426.311.643.312.218.793.218m4.607 1.001v-6.545h1.496v1.09h.068q.18-.566.614-.873a1.7 1.7 0 0 1 1.001-.311q.128 0 .286.013.162.008.268.03v1.419a1.6 1.6 0 0 0-.31-.06q-.21-.03-.406-.03-.421 0-.758.183-.332.18-.524.499a1.4 1.4 0 0 0-.192.737V56.8zm6.918.115q-.772 0-1.381-.396-.609-.397-.963-1.15-.354-.755-.354-1.833 0-1.09.358-1.841.363-.754.976-1.138.614-.387 1.368-.388.575 0 .946.196.37.192.588.465.217.268.337.507H80v-3.264h1.546V56.8H80.03v-1.031h-.093q-.12.239-.346.507a1.9 1.9 0 0 1-.596.452q-.37.187-.933.187m.43-1.265q.49 0 .835-.265.345-.268.524-.745a3.2 3.2 0 0 0 .18-1.113q0-.634-.18-1.103a1.57 1.57 0 0 0-.52-.73q-.34-.258-.839-.259-.515 0-.86.268-.346.27-.52.742a3.1 3.1 0 0 0-.175 1.082q0 .614.174 1.096.18.478.525.754.35.273.856.273M16.661 71.8v-8.727H20q.947 0 1.573.298.63.294.942.806.315.51.315 1.159 0 .532-.204.912-.205.375-.55.609t-.771.337v.085q.465.025.89.285.431.255.703.725.273.468.273 1.133 0 .678-.328 1.219-.328.537-.989.848-.66.31-1.662.311zm1.58-1.321h1.701q.86 0 1.24-.328.384-.333.384-.852a1.3 1.3 0 0 0-.738-1.194 1.8 1.8 0 0 0-.843-.183h-1.743zm0-3.695h1.565q.408 0 .737-.149.328-.153.515-.43a1.15 1.15 0 0 0 .192-.665q0-.507-.358-.835-.353-.328-1.052-.328h-1.598zM24.48 71.8v-6.545h1.543V71.8zm.776-7.474a.9.9 0 0 1-.63-.243.78.78 0 0 1-.265-.593q0-.35.264-.592a.9.9 0 0 1 .63-.247q.372 0 .632.247.264.243.264.592 0 .345-.264.593a.9.9 0 0 1-.631.243m3.896-1.253V71.8h-1.543v-8.727zm3.129 0V71.8h-1.543v-8.727zm4.63 8.727v-8.727h3.274q1.005 0 1.687.375.686.375 1.035 1.031.354.652.354 1.483 0 .84-.353 1.492a2.53 2.53 0 0 1-1.044 1.026q-.69.371-1.7.371h-2.17v-1.3h1.956q.588 0 .963-.204a1.3 1.3 0 0 0 .554-.563 1.8 1.8 0 0 0 .183-.822q0-.464-.183-.818a1.25 1.25 0 0 0-.558-.55q-.375-.2-.967-.2h-1.45V71.8zm9.422.132a2.7 2.7 0 0 1-1.121-.221 1.83 1.83 0 0 1-.784-.665q-.286-.44-.286-1.083 0-.553.205-.916.204-.361.558-.58.354-.216.797-.328.447-.114.925-.166.575-.06.933-.106.358-.05.52-.154.165-.105.166-.328v-.025q0-.482-.286-.746-.285-.264-.822-.264-.567 0-.9.247-.328.248-.442.584l-1.44-.205q.17-.596.562-.997.391-.405.959-.605a3.7 3.7 0 0 1 1.253-.205q.473 0 .941.111.469.11.857.367.388.25.622.686.239.435.239 1.086V71.8h-1.483v-.9h-.051a1.9 1.9 0 0 1-.397.512q-.252.234-.635.38-.38.14-.89.14m.4-1.133q.465 0 .806-.184.34-.188.524-.494a1.26 1.26 0 0 0 .187-.669v-.771a.7.7 0 0 1-.247.11 4 4 0 0 1-.384.09q-.213.038-.421.068l-.363.051q-.345.048-.617.154-.274.105-.43.298a.73.73 0 0 0-.158.486q0 .426.31.643.312.218.793.218m5.331 3.456q-.315 0-.584-.051a2 2 0 0 1-.422-.111l.358-1.202q.337.097.601.094a.74.74 0 0 0 .465-.166q.204-.159.345-.529l.132-.354-2.374-6.681h1.637l1.508 4.943h.069l1.512-4.943h1.64l-2.62 7.338a3 3 0 0 1-.486.89q-.302.375-.741.571-.435.2-1.04.2m5.955-2.455v-6.545h1.475v1.112h.076q.205-.563.678-.878.473-.32 1.13-.32.664 0 1.12.324.46.32.648.874h.068a1.8 1.8 0 0 1 .733-.87q.52-.328 1.231-.328.904 0 1.475.571.57.572.57 1.667V71.8h-1.546v-4.155q0-.61-.324-.89a1.16 1.16 0 0 0-.792-.286q-.56 0-.874.35-.31.345-.311.899V71.8h-1.513v-4.219q0-.507-.307-.81-.302-.302-.792-.302-.333 0-.605.17a1.2 1.2 0 0 0-.435.474 1.5 1.5 0 0 0-.162.707v3.98zm13.668.128q-.985 0-1.7-.41a2.77 2.77 0 0 1-1.096-1.167q-.383-.757-.383-1.785 0-1.01.383-1.773a2.9 2.9 0 0 1 1.083-1.193q.695-.43 1.632-.43.605 0 1.142.195.54.192.954.597.418.405.657 1.031.238.623.238 1.483v.473h-5.365v-1.04h3.887a1.66 1.66 0 0 0-.192-.788 1.4 1.4 0 0 0-.524-.55q-.333-.2-.776-.2-.472 0-.831.23-.359.226-.558.597-.196.367-.2.805v.908q0 .57.208.98.21.405.584.622.375.213.878.213.336 0 .61-.094.272-.097.472-.285.201-.187.303-.465l1.44.162q-.135.571-.52.998-.378.421-.971.656-.593.23-1.355.23m5.758-3.963V71.8H75.9v-6.545h1.475v1.112h.076q.226-.55.72-.874.499-.324 1.232-.324.678 0 1.18.29.507.29.784.84.281.549.278 1.333V71.8h-1.543v-3.929q0-.656-.341-1.027-.336-.37-.933-.37-.405 0-.72.178a1.24 1.24 0 0 0-.49.507q-.175.332-.175.806m9.038-2.71v1.193H82.72v-1.193zm-2.834-1.569h1.543v6.145q0 .312.094.478.098.161.255.221.158.06.35.06.144 0 .264-.022.123-.02.188-.038l.26 1.206q-.124.043-.354.094a3 3 0 0 1-.554.06 2.5 2.5 0 0 1-1.044-.175 1.6 1.6 0 0 1-.737-.605q-.269-.41-.265-1.023z"/><rect width="74" height="20" x="15.8" y="15.8" fill="#ffd275" rx="10"/><path fill="#b87d00" d="M24.165 26.123a64 64 0 0 1 2.863-4.962c.258-.408.387-.611.506-.64a.3.3 0 0 1 .284.083c.085.087.085.33.085.814v1.478c0 .56 0 .84.11 1.054a1 1 0 0 0 .436.437c.214.109.494.109 1.054.109h.554c.247 0 .37 0 .447.052a.3.3 0 0 1 .126.198c.016.091-.036.203-.14.427-.974 2.103-1.762 3.514-2.924 5.311-.256.395-.384.593-.502.62a.3.3 0 0 1-.283-.083c-.084-.088-.084-.324-.084-.797v-1.8c0-.56 0-.84-.11-1.055a1 1 0 0 0-.436-.436c-.214-.11-.494-.11-1.055-.11h-.507c-.26 0-.39 0-.469-.055a.3.3 0 0 1-.124-.205c-.012-.095.048-.21.169-.44m15.077-5.05V29.8H37.66v-8.727zm3.186 4.892V29.8h-1.542v-6.545h1.474v1.112h.077q.225-.55.72-.874.498-.324 1.231-.324.678 0 1.18.29.508.29.785.84.281.549.277 1.333V29.8h-1.543v-3.929q0-.656-.34-1.027-.337-.37-.934-.37-.405 0-.72.178a1.24 1.24 0 0 0-.49.507q-.175.332-.175.806m10.943-.98-1.406.153a1.1 1.1 0 0 0-.209-.4 1.04 1.04 0 0 0-.392-.303 1.4 1.4 0 0 0-.605-.115q-.48 0-.81.209-.323.21-.32.54a.57.57 0 0 0 .21.465q.217.18.716.294l1.116.24q.93.2 1.38.634.457.436.461 1.138a1.78 1.78 0 0 1-.362 1.09q-.354.47-.985.734-.63.264-1.448.264-1.203 0-1.935-.503a2.02 2.02 0 0 1-.874-1.41l1.505-.145q.102.443.434.669.333.225.865.226.55 0 .882-.226.337-.225.337-.559a.58.58 0 0 0-.217-.464q-.213-.183-.665-.281L49.932 27q-.941-.195-1.393-.66-.452-.47-.447-1.185a1.68 1.68 0 0 1 .328-1.048q.336-.448.933-.69.6-.248 1.385-.248 1.15 0 1.81.49.666.49.823 1.326m4.682-1.73v1.193H54.29v-1.193zm-2.834-1.569h1.542v6.145q0 .312.094.478.097.16.256.221.157.06.35.06.144 0 .263-.021.124-.022.188-.039l.26 1.206q-.124.043-.354.094a3 3 0 0 1-.554.06 2.5 2.5 0 0 1-1.044-.175 1.6 1.6 0 0 1-.737-.605q-.27-.41-.264-1.023zm6.007 8.246q-.622 0-1.12-.221a1.83 1.83 0 0 1-.785-.665q-.285-.44-.285-1.083 0-.553.204-.916.205-.361.559-.58.353-.217.796-.327.448-.116.925-.167.576-.06.933-.106.358-.05.52-.154.166-.105.166-.328v-.025q0-.482-.285-.746-.286-.264-.822-.264-.567 0-.9.247-.327.248-.443.584l-1.44-.205a2.3 2.3 0 0 1 .562-.997q.392-.405.96-.605a3.7 3.7 0 0 1 1.252-.205q.473 0 .942.111.469.11.856.367.388.25.623.686.238.435.238 1.086V29.8H63.2v-.9h-.051a1.9 1.9 0 0 1-.396.512q-.252.235-.635.38-.38.14-.89.14m.4-1.133q.465 0 .806-.184.34-.188.524-.494a1.26 1.26 0 0 0 .188-.669v-.771a.7.7 0 0 1-.247.11 4 4 0 0 1-.384.09 12 12 0 0 1-.422.068L61.73 27q-.345.048-.618.154-.273.105-.43.298a.73.73 0 0 0-.158.486q0 .426.311.643t.793.218m6.15-2.834V29.8h-1.543v-6.545h1.475v1.112h.076q.226-.55.72-.874.499-.324 1.232-.324.678 0 1.18.29.507.29.785.84.281.549.277 1.333V29.8h-1.543v-3.929q0-.656-.341-1.027-.336-.37-.933-.37-.405 0-.72.178a1.24 1.24 0 0 0-.49.507q-.175.332-.175.806m9.038-2.71v1.193h-3.763v-1.193zm-2.834-1.569h1.543v6.145q0 .312.094.478.098.16.255.221.158.06.35.06.145 0 .264-.021.123-.022.188-.039l.26 1.206q-.124.043-.354.094a3 3 0 0 1-.554.06 2.5 2.5 0 0 1-1.044-.175 1.6 1.6 0 0 1-.737-.605q-.269-.41-.265-1.023z"/><path fill="#4277a5" fill-rule="evenodd" d="M133.487 48.43c3.188-1.833 8.273-1.958 11.57-.247 8.425 4.372 15.226 8.272 22.695 13.04 2.966 1.893 2.741 4.81-.44 6.639l-32.041 18.424c-.863.496-2.325.248-2.554-.434l-1.078-3.216c-.188-.561-.987-.982-1.976-1.04l-5.292-.316c-1.225-.073-2.216-.595-2.448-1.29l-1.181-3.522c-.216-.644-1.086-1.144-2.206-1.268l-6.126-.68c-1.208-.133-2.115-.703-2.242-1.407l-.549-3.043c-.102-.569-.834-1.028-1.809-1.136l-5.593-.62c-1.186-.132-1.618-.973-.755-1.469zm1.184 7.324c1.115-.64 2.909-.649 4.008-.017l15.91 9.149c1.098.631 1.085 1.663-.03 2.304-1.116.641-2.91.65-4.008.018l-15.91-9.149c-1.099-.632-1.085-1.663.03-2.305m-2.08 5.77c-1.098-.631-2.893-.623-4.008.018s-1.128 1.673-.03 2.305l11.933 6.861c1.098.632 2.892.624 4.008-.017 1.115-.642 1.128-1.673.03-2.305z" clip-rule="evenodd"/><path fill="#4277a5" d="M128.583 61.542c1.115-.641 2.91-.649 4.008-.017l11.933 6.861c1.098.632 1.085 1.663-.03 2.305-1.116.64-2.91.649-4.008.017l-11.933-6.861c-1.098-.632-1.085-1.664.03-2.305m10.096-5.805c-1.099-.632-2.893-.624-4.008.017-1.115.642-1.129 1.673-.03 2.305l15.91 9.149c1.098.631 2.892.623 4.008-.018 1.115-.641 1.128-1.673.03-2.304z"/><path fill="#5cbae4" fill-rule="evenodd" d="M133.032 48.115c2.911-1.674 7.516-1.81 10.477-.276 7.568 3.92 13.671 7.42 20.367 11.702 2.66 1.7 2.417 4.342-.488 6.012l-29.255 16.822c-.788.453-2.108.234-2.306-.382l-.932-2.906c-.162-.507-.88-.884-1.775-.933l-4.786-.262c-1.108-.06-1.997-.528-2.199-1.156l-1.021-3.183c-.186-.582-.967-1.031-1.98-1.139l-5.536-.587c-1.092-.115-1.905-.627-2.01-1.264l-.456-2.752c-.085-.515-.741-.927-1.622-1.02l-5.054-.537c-1.072-.114-1.452-.873-.664-1.326zm.972 6.624c1.018-.585 2.643-.6 3.629-.033l14.278 8.21c.986.567.959 1.5-.059 2.086s-2.642.6-3.628.034l-14.278-8.21c-.986-.567-.96-1.501.058-2.087m-1.961 5.233c-.985-.567-2.61-.552-3.628.034-1.018.585-1.044 1.52-.059 2.086l10.709 6.158c.986.567 2.61.552 3.628-.034 1.019-.585 1.045-1.52.059-2.086z" clip-rule="evenodd"/><path fill="#5cbae4" d="M128.415 60.006c1.018-.586 2.643-.6 3.628-.034l10.709 6.158c.986.567.96 1.5-.059 2.086s-2.642.6-3.628.034l-10.709-6.158c-.985-.567-.959-1.5.059-2.086m9.218-5.3c-.986-.567-2.611-.552-3.629.033s-1.044 1.52-.058 2.087l14.278 8.21c.986.567 2.61.552 3.628-.034 1.018-.585 1.045-1.52.059-2.086zM166.8 64.8v-5h-4v5zm-57 1v-3h-6v3z"/><path fill="url(#d)" fill-rule="evenodd" d="M133.036 45.115c2.911-1.674 7.516-1.81 10.477-.276 7.568 3.92 13.671 7.42 20.367 11.702 2.66 1.7 2.417 4.342-.488 6.012l-29.255 16.822c-.788.453-2.108.235-2.306-.382l-.932-2.906c-.162-.507-.88-.884-1.775-.933l-4.786-.262c-1.108-.06-1.998-.528-2.199-1.156l-1.021-3.183c-.187-.582-.968-1.031-1.98-1.139l-5.536-.587c-1.092-.115-1.905-.627-2.011-1.264l-.455-2.752c-.085-.515-.741-.927-1.622-1.02l-5.054-.537c-1.072-.113-1.452-.873-.664-1.326zm.972 6.624c1.018-.585 2.643-.6 3.629-.033l14.278 8.21c.986.567.959 1.5-.059 2.086s-2.642.6-3.628.034l-14.278-8.21c-.986-.567-.96-1.501.058-2.087m-1.961 5.233c-.985-.567-2.61-.552-3.628.034-1.018.585-1.044 1.52-.059 2.086l10.709 6.158c.986.567 2.61.552 3.628-.034 1.019-.585 1.045-1.52.059-2.086z" clip-rule="evenodd"/><g fill="#fff" fill-opacity=".02" filter="url(#e)"><path fill-rule="evenodd" d="M133.036 45.115c2.911-1.674 7.516-1.81 10.477-.276 7.568 3.92 13.671 7.42 20.367 11.702 2.66 1.7 2.417 4.342-.488 6.012l-29.255 16.822c-.788.453-2.108.235-2.306-.382l-.932-2.906c-.162-.507-.88-.884-1.775-.933l-4.786-.262c-1.108-.06-1.998-.528-2.199-1.156l-1.021-3.183c-.187-.582-.968-1.031-1.98-1.139l-5.536-.587c-1.092-.115-1.905-.627-2.011-1.264l-.455-2.752c-.085-.515-.741-.927-1.622-1.02l-5.054-.537c-1.072-.113-1.452-.873-.664-1.326zm.972 6.624c1.018-.585 2.643-.6 3.629-.033l14.278 8.21c.986.567.959 1.5-.059 2.086s-2.642.6-3.628.034l-14.278-8.21c-.986-.567-.96-1.501.058-2.087m-1.961 5.233c-.985-.567-2.61-.552-3.628.034-1.018.585-1.044 1.52-.059 2.086l10.709 6.158c.986.567 2.61.552 3.628-.034 1.019-.585 1.045-1.52.059-2.086z" clip-rule="evenodd"/><path d="M128.419 57.006c1.018-.586 2.643-.6 3.628-.034l10.709 6.158c.986.567.96 1.5-.059 2.086s-2.642.6-3.628.034l-10.709-6.158c-.985-.567-.959-1.5.059-2.086m9.218-5.3c-.986-.567-2.611-.552-3.629.033s-1.044 1.52-.058 2.087l14.278 8.21c.986.567 2.61.552 3.628-.034 1.018-.585 1.045-1.52.059-2.086z"/></g></g><rect width="161.096" height="96" x="3.3" y="3.3" stroke="#dcefff" rx="12.5"/></g><defs><linearGradient id="c" x1="3.8" x2="157.763" y1="3.8" y2="107.873" gradientUnits="userSpaceOnUse"><stop stop-color="#fff"/><stop offset="1" stop-color="#9be3fd"/></linearGradient><linearGradient id="d" x1="167.065" x2="98.725" y1="50.815" y2="54.513" gradientUnits="userSpaceOnUse"><stop stop-color="#c1ecff"/><stop offset="1" stop-color="#73d4ff"/></linearGradient><filter id="a" width="171.696" height="106.6" x="0" y="0" color-interpolation-filters="sRGB" filterUnits="userSpaceOnUse"><feFlood flood-opacity="0" result="BackgroundImageFix"/><feColorMatrix in="SourceAlpha" result="hardAlpha" values="0 0 0 0 0 0 0 0 0 0 0 0 0 0 0 0 0 0 127 0"/><feOffset dx="2" dy="2"/><feGaussianBlur stdDeviation="2.4"/><feComposite in2="hardAlpha" operator="out"/><feColorMatrix values="0 0 0 0 0 0 0 0 0 0 0 0 0 0 0 0 0 0 0.022 0"/><feBlend in2="BackgroundImageFix" result="effect1_dropShadow_185_373"/><feBlend in="SourceGraphic" in2="effect1_dropShadow_185_373" result="shape"/></filter><filter id="e" width="62.355" height="35.847" x="103.376" y="43.769" color-interpolation-filters="sRGB" filterUnits="userSpaceOnUse"><feFlood flood-opacity="0" result="BackgroundImageFix"/><feBlend in="SourceGraphic" in2="BackgroundImageFix" result="shape"/><feColorMatrix in="SourceAlpha" result="hardAlpha" values="0 0 0 0 0 0 0 0 0 0 0 0 0 0 0 0 0 0 127 0"/><feOffset dx=".2" dy="1.4"/><feComposite in2="hardAlpha" k2="-1" k3="1" operator="arithmetic"/><feColorMatrix values="0 0 0 0 1 0 0 0 0 1 0 0 0 0 1 0 0 0 1 0"/><feBlend in2="shape" result="effect1_innerShadow_185_373"/></filter><clipPath id="b"><rect width="160.096" height="95" x="3.8" y="3.8" fill="#fff" rx="12"/></clipPath></defs></svg>