<svg xmlns="http://www.w3.org/2000/svg" width="26" height="26" fill="none" viewBox="0 0 26 26"><path fill="#0066b4" d="M24.406 10.633c.726 0 1.09 0 1.324.23.235.23.243.584.259 1.292a44 44 0 0 1-.227 5.448c-.158 1.574-.238 2.362-.795 2.907-.558.545-1.37.608-2.994.733-6.588.51-11.363.514-17.944.008-1.66-.127-2.49-.192-3.05-.748-.561-.556-.63-1.372-.768-3.002a53 53 0 0 1-.204-5.33c.01-.716.015-1.075.25-1.306.236-.232.603-.232 1.336-.232zM3.969 15.221a1.148 1.148 0 0 0 0 2.294h2.21a1.147 1.147 0 0 0 0-2.294zm.082-10.589c6.54-.45 11.301-.45 17.85.003 1.654.114 2.481.171 3.045.719s.644 1.356.803 2.97a.014.014 0 0 1-.014.015H1.957c-.863 0-1.295 0-1.536-.292S.253 7.37.4 6.598c.104-.55.265-.931.574-1.235.567-.558 1.403-.616 3.076-.73"/></svg>