<svg xmlns="http://www.w3.org/2000/svg" width="26" height="26" fill="none" viewBox="0 0 26 26"><path fill="#0066b4" d="M7.095 24.253 4.573 22.58c-4.756-3.153-6.005-9.482-2.785-14.128l.367-.527a2.37 2.37 0 0 1 3.243-.618l15.863 10.515a2.26 2.26 0 0 1 .63 3.176l-.367.527c-3.22 4.657-9.673 5.88-14.43 2.727"/><path fill="#0066b4" d="M11.278 15.534a1.067 1.067 0 0 1-.298-1.493l3.152-4.567a1.12 1.12 0 0 1 1.524-.292c.504.337.63 1 .298 1.493l-3.152 4.567a1.11 1.11 0 0 1-1.524.292m8.562-3.681a1.06 1.06 0 0 1-.436-.595 6.52 6.52 0 0 0-2.66-3.613 6.72 6.72 0 0 0-4.389-1.077c-.607.056-1.146-.37-1.203-.954a1.08 1.08 0 0 1 .974-1.178 8.97 8.97 0 0 1 5.845 1.436 8.66 8.66 0 0 1 3.542 4.814 1.07 1.07 0 0 1-.757 1.324 1.22 1.22 0 0 1-.917-.157"/><path fill="#0066b4" d="M24.286 11.214a1.1 1.1 0 0 1-.458-.651c-.63-2.682-2.258-5.005-4.585-6.554a11.18 11.18 0 0 0-7.862-1.739c-.607.09-1.169-.314-1.26-.898-.092-.583.32-1.133.928-1.223a13.4 13.4 0 0 1 9.42 2.087c2.786 1.852 4.746 4.635 5.502 7.844a1.07 1.07 0 0 1-.825 1.29c-.31.068-.62 0-.86-.156"/></svg>