<svg xmlns="http://www.w3.org/2000/svg" width="26" height="26" fill="none" viewBox="0 0 26 26"><path fill="#0066b4" d="M16.25 19.5c.899 0 1.625.726 1.625 1.625 0 1.29-.51 2.535-1.43 3.445A4.85 4.85 0 0 1 13 26a4.9 4.9 0 0 1-3.445-1.43 4.85 4.85 0 0 1-1.43-3.445c0-.9.725-1.625 1.625-1.625zM13 0a9.67 9.67 0 0 1 5.796 1.918 9.82 9.82 0 0 1 3.52 5.016 9.7 9.7 0 0 1-.162 6.12 9.8 9.8 0 0 1-2.741 4.02c-.64.562-1.485.79-2.34.79h-2.99v-4.96c0-.285.114-.558.315-.76l2.3-2.3a1.09 1.09 0 0 0-1.531-1.551L13.75 9.675a1.074 1.074 0 0 1-1.5 0l-1.416-1.382A1.09 1.09 0 0 0 9.3 9.843l2.301 2.302c.201.2.314.474.315.758v4.961H8.905c-.845 0-1.7-.228-2.34-.79a9.7 9.7 0 0 1-2.741-4.02 9.7 9.7 0 0 1-.162-6.12 9.75 9.75 0 0 1 3.52-5.005A9.7 9.7 0 0 1 13 0"/></svg>