<svg xmlns="http://www.w3.org/2000/svg" width="25" height="26" fill="none" viewBox="0 0 25 26"><path fill="#0066b4" fill-rule="evenodd" d="M13.914 9.443c1.17 0 2.17.827 2.371 1.96l.698 3.938c.05.282.3.488.59.488.931 0 1.686.741 1.686 1.656v3.784c0 1.307-1.078 2.365-2.407 2.365-.2 0-.361.16-.361.355v.826a1.19 1.19 0 0 1-1.202 1.18h-.405a1.19 1.19 0 0 1-1.202-1.18 1.19 1.19 0 0 0-1.202-1.18H6.458c-.664 0-1.202.528-1.202 1.18s-.538 1.18-1.202 1.18H3.65a1.19 1.19 0 0 1-1.202-1.18v-1.141a.04.04 0 0 0-.04-.04C1.077 23.634 0 22.576 0 21.27v-3.784c0-.915.754-1.656 1.685-1.656a.215.215 0 0 0 .213-.176l.753-4.25c.201-1.133 1.202-1.96 2.372-1.96zm1.956 11.302c-.17.105-.377.13-.579.13h-.328c-.202 0-.408-.025-.58-.13a1.37 1.37 0 0 1-.66-1.171c0-.762.628-1.38 1.404-1.38s1.404.618 1.404 1.38c0 .494-.264.927-.66 1.17m-10.415-1.17c0 .494-.264.927-.66 1.17-.172.106-.378.13-.58.13h-.328c-.202 0-.408-.024-.58-.13a1.37 1.37 0 0 1-.66-1.17c0-.762.628-1.38 1.404-1.38s1.404.618 1.404 1.38m.31-8.002c-.585 0-1.085.412-1.186.978l-.28 1.573c-.13.724.437 1.387 1.185 1.387h7.968c.748 0 1.314-.663 1.185-1.387l-.28-1.573a1.2 1.2 0 0 0-1.186-.978z" clip-rule="evenodd"/><path fill="#0066b4" d="M8.24 1.742A.956.956 0 0 1 8.04.39.995.995 0 0 1 9.415.192l12.64 9.251h1.175v.004c.941.06 1.686.83 1.686 1.77v13.009c0 .98-.809 1.774-1.806 1.774s-1.805-.794-1.805-1.774V11.305z"/></svg>