<svg xmlns="http://www.w3.org/2000/svg" width="26" height="26" fill="none" viewBox="0 0 26 26"><path fill="#0066b4" d="M15.143 7.623c2.78 0 4.17 0 5.046.867.875.867.89 2.245.918 5 .016 1.562.021 3.033.015 4.531-.014 3.708-.02 5.561-1.192 6.752l-.06.06C18.673 26 16.792 26 13.03 26c-3.817 0-5.725 0-6.922-1.172l-.06-.06c-1.173-1.197-1.173-3.106-1.173-6.922v-4.23c0-2.825 0-4.237.877-5.115.878-.878 2.291-.878 5.116-.878zM18.192 0c.92 0 1.668.746 1.668 1.667a.667.667 0 0 1-.667.667h-.546c.05.442.053 1.013.053 1.823 0 .688 0 1.033-.123 1.3-.135.293-.37.527-.663.661-.267.123-.611.123-1.3.123H9.612c-.689 0-1.034 0-1.301-.123a1.35 1.35 0 0 1-.661-.661c-.123-.267-.123-.612-.123-1.3 0-.81.001-1.381.052-1.823h-.5a.667.667 0 0 1-.667-.667C6.412.747 7.16 0 8.08 0zm-7.187 2.34a.975.975 0 0 0 0 1.951h4.214a.975.975 0 1 0 0-1.95z"/></svg>