<svg width="24" height="24" viewBox="0 0 24 24" fill="none" xmlns="http://www.w3.org/2000/svg">
<path d="M12 2C17.5228 2 22 6.47715 22 12C22 17.5228 17.5228 22 12 22C6.47715 22 2 17.5228 2 12C2 6.47715 6.47715 2 12 2Z" fill="#1F71CF"/>
<path d="M9 9.5C9 8.11929 10.1193 7 11.5 7H12.4156C13.8429 7 15 8.15706 15 9.58437C15 10.6898 14.2008 11.6332 13.1104 11.8149L12 12V14" stroke="#F5F5F5" stroke-width="2" stroke-linecap="round" stroke-linejoin="round"/>
<circle cx="1" cy="1" r="1" transform="matrix(1 0 0 -1 11 18.5)" fill="white"/>
</svg>
