<svg xmlns="http://www.w3.org/2000/svg" width="266" height="167" fill="none" viewBox="0 0 266 167"><rect width="88.869" height="60.158" fill="#4277a5" rx="6.254" transform="matrix(-.86603 .5 .86603 .5 213.89 1.447)"/><path fill="#63bfe8" d="M144.452 40.143h4.032v4.044h-4.032z"/><rect width="80.209" height="54.295" fill="#63c0e8" rx="6.254" transform="matrix(-.86603 .5 .86603 .5 210.972 4.164)"/><g filter="url(#a)"><rect width="80.209" height="54.295" fill="url(#b)" rx="6.254" transform="matrix(-.86603 .5 .86603 .5 210.972 0)"/></g><rect width="14.113" height="9.553" fill="#fff" rx="2.345" transform="matrix(-.86603 .5 .86603 .5 168.081 33.625)"/><path fill="#5abce7" fill-opacity=".6" d="m233.214 21.99-61.538 35.53 9.591 5.537 61.538-35.53z"/><path fill="url(#c)" fill-opacity=".38" d="m180.661 98.72-108.28 68.242L0 137.377 106.053 71.3z"/><path fill="#4277a5" fill-rule="evenodd" d="M187.44 84.917c-.594-.865-1.754-1.829-3.228-2.68L139.076 56.14c-1.481-.856-3.157-1.53-4.66-1.872s-2.708-.325-3.352.048l-26.72 17.21c-1.129.796-2.104 1.48-.884 2.238l54.608 32.459c1.48.856 3.156 1.529 4.659 1.872 1.503.342 2.708.324 3.352-.048l26.072-15.073c.643-.372.674-1.069.081-1.938a862 862 0 0 0-4.792-6.12" clip-rule="evenodd"/><path fill="url(#d)" d="m104.945 69.733-.131-4.843a.816.816 0 0 1 .947-.827l70.128 11.467a.8.8 0 0 1 .286.104l14.15 8.432a3.26 3.26 0 0 1 1.592 2.733l.033 1.556a3.13 3.13 0 0 1-1.568 2.778l-24.045 13.826a5.71 5.71 0 0 1-5.773-.047l-53.83-32.127a3.67 3.67 0 0 1-1.789-3.052"/><path fill="url(#e)" d="m161.355 100.264-55.522-33.175c-1.438-.86-1.421-2.948.031-3.783l23.233-13.369a4.08 4.08 0 0 1 4.125.034l57.562 34.38a.815.815 0 0 1-.011 1.407l-25.294 14.541a4.08 4.08 0 0 1-4.124-.035"/><path fill="url(#f)" d="m115.439 60.438-7.47 4.31a.603.603 0 0 0-.009 1.04l53.816 32.37c.761.459 1.71.468 2.48.026l21.134-12.142a1.223 1.223 0 0 0 .021-2.109l-53.303-32.109a1.63 1.63 0 0 0-1.653-.017l-5.219 2.994a.408.408 0 0 0-.004.705l.472.28a.815.815 0 0 1-.008 1.409l-6.547 3.763a2.04 2.04 0 0 1-2.07-.022l-.811-.49a.82.82 0 0 0-.829-.008"/><path fill="#feffe6" d="m136.808 76.274 2.317-1.244 3.184 1.846 3.638-1.954 2.027 1.176-5.957 3.199-5.805-3.367zm18.443-4.085-5.955 3.199-2.026-1.177 3.642-1.956-3.183-1.846 2.314-1.243zm-16.832-1.635-3.64 1.955 3.185 1.848-2.317 1.244-5.213-3.025 5.957-3.199zm10.463-2.061-2.313 1.242-3.185-1.848-3.64 1.955-2.028-1.177 5.953-3.197zm-2.316 3.832-3.971 2.133-3.474-2.013 3.974-2.135z"/><defs><linearGradient id="b" x1="58.082" x2="17.065" y1="-9.386" y2="67.997" gradientUnits="userSpaceOnUse"><stop stop-color="#c1ecff"/><stop offset="1" stop-color="#73d4ff"/></linearGradient><linearGradient id="c" x1="158.265" x2="135.265" y1="54.5" y2="126" gradientUnits="userSpaceOnUse"><stop stop-color="#70bdd9"/><stop offset="1" stop-color="#70bdd9" stop-opacity="0"/></linearGradient><linearGradient id="d" x1="110.99" x2="165.986" y1="82.051" y2="110.679" gradientUnits="userSpaceOnUse"><stop stop-color="#dba437"/><stop offset="1" stop-color="#c28f2b"/></linearGradient><linearGradient id="e" x1="122.671" x2="157.33" y1="52.293" y2="106.219" gradientUnits="userSpaceOnUse"><stop stop-color="#fde898"/><stop offset="1" stop-color="#f9db6a"/></linearGradient><linearGradient id="f" x1="126.06" x2="195.266" y1="50.409" y2="113.097" gradientUnits="userSpaceOnUse"><stop stop-color="#ecbe49"/><stop offset="1" stop-color="#ca9329"/></linearGradient><filter id="a" width="110.138" height="63.588" x="144.682" y="1.832" color-interpolation-filters="sRGB" filterUnits="userSpaceOnUse"><feFlood flood-opacity="0" result="BackgroundImageFix"/><feBlend in="SourceGraphic" in2="BackgroundImageFix" result="shape"/><feColorMatrix in="SourceAlpha" result="hardAlpha" values="0 0 0 0 0 0 0 0 0 0 0 0 0 0 0 0 0 0 127 0"/><feOffset dx="2.033" dy="1.188"/><feComposite in2="hardAlpha" k2="-1" k3="1" operator="arithmetic"/><feColorMatrix values="0 0 0 0 1 0 0 0 0 1 0 0 0 0 1 0 0 0 1 0"/><feBlend in2="shape" result="effect1_innerShadow_20_315"/></filter></defs></svg>