<svg xmlns="http://www.w3.org/2000/svg" width="24" height="24" fill="none" viewBox="0 0 24 24"><path fill="#1f71cf" d="M7 5.432c0-.212 0-.317.007-.407a2.204 2.204 0 0 1 2.018-2.018C9.115 3 9.22 3 9.432 3h.29c1.116 0 2.1.731 2.42 1.8A2.53 2.53 0 0 1 14.565 3h.3c.202 0 .303 0 .388.007a2.204 2.204 0 0 1 2.027 2.026c.007.086.007.187.007.389 0 .14 0 .21-.003.285a4.56 4.56 0 0 1-.928 2.558c-.046.06-.076.095-.135.165-1.038 1.242-1.904 2.102-3.357 3.097-.246.168-.369.252-.52.29a.9.9 0 0 1-.408.007c-.152-.034-.277-.114-.528-.273-1.556-.992-2.44-1.86-3.44-3.14-.061-.078-.092-.117-.148-.196a4.66 4.66 0 0 1-.815-2.365C7 5.753 7 5.667 7 5.497z"/><path fill="#1f71cf" fill-rule="evenodd" d="M22.098 13.99a1.04 1.04 0 0 0-.085-1.381 1.05 1.05 0 0 0-1.222-.194l-5.628 2.867.462-2.157H7.362c-1.235 0-2.465.17-3.655.504l-1.387.39c-.485.137-.82.58-.82 1.083v3.817c0 .894.993 1.431 1.741.941l.873-.571a2.25 2.25 0 0 1 1.778-.3l7.148 1.787a2.2 2.2 0 0 0 1.69-.254c3.212-1.974 5.028-3.58 7.368-6.532" clip-rule="evenodd"/><path fill="#dcefff" d="M10.563 12h4.17a2.58 2.58 0 1 1-.424 5.124l-3.746-.624z"/><path fill="#1f71cf" d="M10.563 13.125h4.021a1.603 1.603 0 1 1-.16 3.199l-3.861-.387z"/></svg>