<svg xmlns="http://www.w3.org/2000/svg" width="26" height="26" fill="none" viewBox="0 0 26 26"><g fill="#0066b4" clip-path="url(#a)"><path fill-rule="evenodd" d="M4.439 7.205c.122-3.365.183-5.047 1.293-6.126S8.554 0 11.975 0h1.952c3.434 0 5.151 0 6.26 1.072 1.11 1.073 1.18 2.783 1.32 6.205.09 2.155.16 4.313.16 5.723s-.07 3.568-.16 5.723c-.14 3.422-.21 5.132-1.32 6.205C19.078 26 17.361 26 13.927 26H12c-3.43 0-5.146 0-6.256-1.078s-1.172-2.77-1.296-6.152a152 152 0 0 1-.009-11.565m2.208.485c.049-2.58.073-3.87.909-4.696.836-.827 2.142-.827 4.754-.827h1.515c2.595 0 3.893 0 4.729.822.835.822.865 2.1.924 4.655.05 2.154.052 4.22.003 6.389-.058 2.548-.087 3.821-.923 4.644-.835.823-2.131.823-4.723.823h-1.523c-2.613 0-3.919 0-4.755-.827-.836-.826-.86-2.117-.91-4.698-.04-2.121-.04-4.155 0-6.285m5.345 13.977a1.08 1.08 0 0 0-1.075 1.083 1.08 1.08 0 0 0 1.075 1.083h2.15a1.08 1.08 0 0 0 1.075-1.083 1.08 1.08 0 0 0-1.075-1.083z" clip-rule="evenodd"/><path d="m12.083 8.53-1.506 2.355c-.42.655-.629.982-.493 1.234.136.25.523.25 1.296.25h.087c.456 0 .684 0 .823.136l.046.053c.118.155.092.383.039.84-.17 1.476-.256 2.214.045 2.364q.05.026.105.038c.327.077.727-.548 1.526-1.797l1.506-2.355c.42-.655.629-.982.493-1.233s-.523-.251-1.296-.251h-.087c-.456 0-.684 0-.823-.136l-.046-.053c-.118-.155-.092-.383-.039-.839.17-1.476.256-2.215-.045-2.365a.5.5 0 0 0-.105-.038c-.327-.077-.727.548-1.526 1.797"/></g><defs><clipPath id="a"><path fill="#fff" d="M0 0h26v26H0z"/></clipPath></defs></svg>