<svg xmlns="http://www.w3.org/2000/svg" width="26" height="26" fill="none" viewBox="0 0 26 26"><path fill="#0066b4" d="M13 0c.487 0 1.088.02 1.739.054 2.996.154 4.494.232 5.534 1.28s1.106 2.586 1.24 5.66c.085 1.994.153 4.154.153 6.012 0 1.851-.067 4.003-.153 5.99-.133 3.083-.2 4.624-1.24 5.673s-2.547 1.125-5.559 1.278c-.647.033-1.24.053-1.715.053a36 36 0 0 1-1.795-.058c-2.978-.154-4.468-.232-5.507-1.282-1.04-1.05-1.103-2.561-1.228-5.58a149 149 0 0 1-.136-6.074c0-2.113.06-4.226.137-6.095.125-3.012.188-4.518 1.227-5.568C6.735.293 8.217.215 11.18.059A36 36 0 0 1 13 0m-.868 2.167c-2.422 0-3.633 0-4.46.775-.826.776-.899 1.932-1.045 4.244a59 59 0 0 0-.127 3.647c0 1.21.053 2.474.127 3.648.146 2.311.22 3.467 1.045 4.243.827.776 2.038.776 4.46.776h1.663c2.454 0 3.68 0 4.506-.773.826-.774.904-1.956 1.06-4.32.08-1.219.139-2.482.139-3.574s-.059-2.355-.14-3.573c-.155-2.364-.233-3.547-1.059-4.32s-2.053-.773-4.506-.773z"/><rect width="4.333" height="2.167" x="10.833" y="21.667" fill="#e7f4ff" rx="1.083"/></svg>