<svg xmlns="http://www.w3.org/2000/svg" width="24" height="24" fill="none" viewBox="0 0 24 24"><path fill="#2f4b6a" fill-rule="evenodd" d="M9.876 7.659a5.776 5.776 0 0 1 9.954 5.747l-.901 1.998c-.267.59-.31 1.274-.355 1.957-.05.766-.099 1.53-.462 2.16a1.947 1.947 0 0 1-2.66.713L6.15 14.863a1.947 1.947 0 0 1-.713-2.66c.364-.63 1.002-1.055 1.643-1.482.57-.38 1.141-.76 1.52-1.286zm-2.328 9.729c.056-.429.557-.564.907-.31a20.8 20.8 0 0 0 3.927 2.27c.393.176.526.675.184.937a3.136 3.136 0 0 1-5.018-2.897" clip-rule="evenodd"/></svg>