<svg xmlns="http://www.w3.org/2000/svg" width="20" height="20" fill="none" viewBox="0 0 20 20"><rect width="13.333" height="16.667" x="4.166" y="1.668" fill="#2f4b6a" rx="2.5"/><path fill="#2f4b6a" d="M1.666 5.415c0-.46.373-.833.833-.833h.834v2.5h-.834a.833.833 0 0 1-.833-.833zm0 4.168c0-.46.373-.833.833-.833h.834v2.5h-.834a.833.833 0 0 1-.833-.833zm0 4.168c0-.46.373-.833.833-.833h.834v2.5h-.834a.833.833 0 0 1-.833-.833z"/><path stroke="#edf7ff" stroke-linecap="round" stroke-width="1.5" d="M8.559 6.74h4.553"/><path stroke="#edf7ff" stroke-linecap="round" stroke-linejoin="round" stroke-width="1.5" d="M8.88 6.736h.98a1.96 1.96 0 1 1 0 3.919h-.98l2.613 2.612"/></svg>