<svg width="20" height="20" viewBox="0 0 20 20" fill="none" xmlns="http://www.w3.org/2000/svg">
<rect x="4.16602" y="1.66797" width="13.3333" height="16.6667" rx="2.5" fill="#2F4B6A"/>
<path d="M1.66602 5.41536C1.66602 4.95513 2.03911 4.58203 2.49935 4.58203H3.33268V7.08203H2.49935C2.03911 7.08203 1.66602 6.70894 1.66602 6.2487V5.41536Z" fill="#2F4B6A"/>
<path d="M1.66602 9.58333C1.66602 9.1231 2.03911 8.75 2.49935 8.75H3.33268V11.25H2.49935C2.03911 11.25 1.66602 10.8769 1.66602 10.4167V9.58333Z" fill="#2F4B6A"/>
<path d="M1.66602 13.7513C1.66602 13.2911 2.03911 12.918 2.49935 12.918H3.33268V15.418H2.49935C2.03911 15.418 1.66602 15.0449 1.66602 14.5846V13.7513Z" fill="#2F4B6A"/>
<line x1="8.55859" y1="6.74023" x2="13.1121" y2="6.74023" stroke="#EDF7FF" stroke-width="1.5" stroke-linecap="round"/>
<path d="M8.88086 6.73633H9.8604C10.9424 6.73633 11.8195 7.61344 11.8195 8.6954C11.8195 9.77737 10.9424 10.6545 9.8604 10.6545H8.88086L11.493 13.2666" stroke="#EDF7FF" stroke-width="1.5" stroke-linecap="round" stroke-linejoin="round"/>
</svg>
