<svg xmlns="http://www.w3.org/2000/svg" width="74" height="17" fill="none" viewBox="0 0 74 17"><path fill="url(#a)" d="M8.858 16.266a.454.454 0 0 1-.456-.45v-1.047c0-.25.202-.451.456-.451h4.36c.611 0 1.138-.521 1.138-1.13v-10.1c0-.608-.527-1.13-1.137-1.13H3.092c-.61 0-1.137.522-1.137 1.13v10.1c0 .608.526 1.13 1.137 1.13h.2c1.16 0 1.334-.506 1.355-.721V5.39c0-.41.336-.748.75-.748h4.188c1.146 0 2.079.93 2.079 2.07v2.875a2.05 2.05 0 0 1-2.051 2.044H6.609v1.976a2.6 2.6 0 0 1-.765 1.76c-.583.585-1.417.886-2.473.9H.92A.92.92 0 0 1 0 15.35V.916C0 .41.412 0 .92 0h14.478c.508 0 .92.41.92.916v14.43a.92.92 0 0 1-.92.917h-6.54zm.847-6.59V6.59H6.61v3.086z"/><path fill="#364251" d="M27.695 1.945c1.746.106 3.544 1.217 3.544 4.074 0 2.556-2.486 3.455-3.544 3.596H24.68v4.814h-1.957V1.945zM24.68 3.798v3.967h3.015c.53-.071 1.598-.519 1.64-1.745.053-1.534-.635-2.01-1.64-2.222zm10.633-1.902h1.904v12.801h-1.904zm19.995-.004h5.925v1.904h-5.925v3.491h4.972v1.905h-4.972v3.597h5.925v1.905h-7.83V1.89h1.905m11.955 10.897h5.924v1.905h-7.83v-1.905h.002V1.891h1.904zM45.196 6.296l2.494-4.405h1.904l-3.44 6.074 3.864 6.727h-1.904l-2.905-5.057-2.862 5.057h-1.904l3.807-6.727-3.489-6.074h1.904z"/><defs><linearGradient id="a" x1="8.159" x2="8.133" y1="0" y2="26.771" gradientUnits="userSpaceOnUse"><stop offset=".163" stop-color="#16becf"/><stop offset="1" stop-color="#045f69"/></linearGradient></defs></svg>