<svg xmlns="http://www.w3.org/2000/svg" width="16" height="16" fill="none" viewBox="0 0 16 16"><path fill="#1f589a" d="M5.667 1.334a2 2 0 0 1 2 2v2.333a2 2 0 0 1-2 2H3.334a2 2 0 0 1-2-2V3.334a2 2 0 0 1 2-2zm-1.666 2a.667.667 0 0 0-.667.667v1c0 .368.299.666.667.666h1a.666.666 0 0 0 .666-.666v-1a.667.667 0 0 0-.666-.667zm8.666-2a2 2 0 0 1 2 2v2.333a2 2 0 0 1-2 2h-2.333a2 2 0 0 1-2-2V3.334a2 2 0 0 1 2-2zm-1.666 2a.667.667 0 0 0-.667.667v1c0 .368.299.666.667.666h1a.666.666 0 0 0 .666-.666v-1a.667.667 0 0 0-.666-.667zm-5.334 5a2 2 0 0 1 2 2v2.333a2 2 0 0 1-2 2H3.334a2 2 0 0 1-2-2v-2.333a2 2 0 0 1 2-2zm-1.666 2a.667.667 0 0 0-.667.667v1c0 .368.299.666.667.666h1a.666.666 0 0 0 .666-.666v-1a.667.667 0 0 0-.666-.667zm11.582 2.504a.37.37 0 0 1 .065.733l-6.07 1.212a1.044 1.044 0 1 1-.183-2.067z"/><path fill="#1f589a" d="M13.207 8.558a.697.697 0 0 1 .79.603.76.76 0 0 1-.1.851l-2.403 2.716a5 5 0 0 1-.494.482l-.442.372-.595.641a.948.948 0 1 1-1.342-1.337l3.138-2.942H8.797a.37.37 0 0 1-.053-.737z"/></svg>