<svg xmlns="http://www.w3.org/2000/svg" width="16" height="16" fill="none" viewBox="0 0 16 16"><path fill="#39337b" d="M13.947 6.868c.306 0 .46 0 .557.095.097.096.1.249.107.554v.032c.01.522.01 1.034-.002 1.553-.042 1.934-.063 2.902-.743 3.567s-1.712.665-3.775.665H5.857c-2.045 0-3.068 0-3.748-.661-.679-.662-.704-1.614-.755-3.518a32 32 0 0 1-.002-1.668c.006-.278.01-.417.092-.508q.015-.016.032-.031c.093-.08.233-.08.512-.08zM3.999 10a.667.667 0 0 0 0 1.333h1.333a.667.667 0 1 0 0-1.333zm6.108-6.666c2.056 0 3.085 0 3.765.667.229.224.383.481.488.797.102.307.154.46.054.599s-.284.138-.653.138H2.207c-.37 0-.554 0-.654-.138-.1-.14-.048-.293.055-.6.106-.316.261-.574.493-.8.68-.663 1.697-.663 3.731-.663z"/></svg>