<svg width="24" height="24" viewBox="0 0 24 24" fill="none" xmlns="http://www.w3.org/2000/svg">
<path d="M17.5001 3.01025C18.3285 3.01025 19.0001 3.68183 19.0001 4.51025C19.0001 5.33868 18.3285 6.01025 17.5001 6.01025H14.7198C15.1436 6.80355 15.3848 7.70916 15.3848 8.67139C15.3848 11.3221 13.5613 13.5459 11.1006 14.1597L15.5616 18.6206C16.147 19.2064 16.1471 20.156 15.5616 20.7417C14.9758 21.3275 14.0253 21.3275 13.4395 20.7417L6.58795 13.8892C6.15918 13.4603 6.03082 12.8157 6.26276 12.2554C6.49493 11.6949 7.04181 11.3286 7.6485 11.3286H9.7276C11.1951 11.3284 12.3848 10.1389 12.3848 8.67139C12.3847 7.20396 11.195 6.01438 9.7276 6.01416H7.6485C7.62292 6.01416 7.59759 6.01152 7.57233 6.01025H6.50006C5.67163 6.01025 5.00006 5.33868 5.00006 4.51025C5.00006 3.68183 5.67163 3.01025 6.50006 3.01025H17.5001Z" fill="#83A2C2"/>
</svg>
