<svg xmlns="http://www.w3.org/2000/svg" width="24" height="24" fill="none" viewBox="0 0 24 24"><path fill="#fff" fill-rule="evenodd" d="M.849.89C.26 1.481.2 2.218.079 3.691a23 23 0 0 0 .014 3.952c.133 1.568.2 2.352.798 2.944s1.38.65 2.943.768a24.6 24.6 0 0 0 3.672.01c1.582-.114 2.373-.17 2.972-.755.599-.584.677-1.401.834-3.035.128-1.33.164-2.55.04-3.962-.125-1.428-.188-2.142-.773-2.73C9.993.296 9.262.23 7.799.096a22 22 0 0 0-4.117 0C2.184.232 1.436.3.849.89M3.8 3.82c-.308.31-.326.675-.361 1.404-.015.313-.014.617.003.928.042.778.063 1.167.377 1.477.313.31.7.327 1.477.361.27.012.53.013.795.003.787-.03 1.181-.045 1.496-.351.314-.307.34-.712.394-1.523.02-.31.025-.612.01-.934-.035-.704-.052-1.056-.36-1.367s-.67-.332-1.394-.374a9 9 0 0 0-1.017 0c-.741.043-1.111.064-1.42.375" clip-rule="evenodd"/><path fill="#fff" d="M12.61 14.417c.062-.736.092-1.105.386-1.4.293-.296.668-.33 1.416-.397a11 11 0 0 1 2.06 0c.73.066 1.096.1 1.389.393s.324.651.387 1.365c.061.707.043 1.316-.02 1.981-.079.817-.118 1.225-.418 1.518-.299.292-.694.32-1.485.377-.618.044-1.196.043-1.836-.005-.782-.058-1.173-.088-1.472-.384s-.332-.688-.399-1.472a11.5 11.5 0 0 1-.007-1.976m5.714 5.714c.061-.736.091-1.105.385-1.4.294-.296.668-.33 1.417-.397a11 11 0 0 1 2.058 0c.732.066 1.097.1 1.39.393s.324.651.387 1.365a10.4 10.4 0 0 1-.02 1.981c-.079.817-.118 1.226-.417 1.518-.3.292-.695.32-1.486.377a12 12 0 0 1-1.836-.005c-.782-.058-1.172-.088-1.471-.384s-.333-.688-.4-1.472a11.5 11.5 0 0 1-.007-1.976"/><path fill="#fff" fill-rule="evenodd" d="M13.42.89c-.587.591-.648 1.328-.77 2.801-.113 1.36-.1 2.604.014 3.952.134 1.568.2 2.352.799 2.944.598.592 1.38.65 2.943.768a24.6 24.6 0 0 0 3.672.01c1.582-.114 2.373-.17 2.971-.755.6-.584.678-1.401.835-3.035.127-1.33.163-2.55.04-3.962-.125-1.428-.188-2.142-.774-2.73-.585-.587-1.316-.654-2.78-.787a22 22 0 0 0-4.117 0C14.756.232 14.007.3 13.42.89m2.952 2.93c-.309.31-.326.675-.361 1.404a9 9 0 0 0 .003.928c.042.778.063 1.167.376 1.477.314.31.701.327 1.477.361.27.012.531.013.795.003.788-.03 1.182-.045 1.496-.351.315-.307.341-.712.395-1.523.02-.31.025-.612.01-.934-.035-.704-.052-1.056-.36-1.367-.309-.311-.67-.332-1.394-.374a9 9 0 0 0-1.018 0c-.74.043-1.11.064-1.42.375M.849 13.462c-.588.59-.649 1.328-.77 2.8a23 23 0 0 0 .014 3.953c.133 1.568.2 2.352.798 2.944s1.38.65 2.943.767c1.281.096 2.437.098 3.672.01 1.582-.113 2.373-.17 2.972-.754.599-.585.677-1.401.834-3.035.128-1.331.164-2.55.04-3.962-.125-1.428-.188-2.142-.773-2.73-.586-.588-1.317-.654-2.78-.788a22 22 0 0 0-4.117.001c-1.498.135-2.246.202-2.833.793M3.8 16.39c-.308.311-.326.676-.361 1.404-.015.314-.014.617.003.93.042.776.063 1.165.377 1.476.313.31.7.327 1.477.361.27.012.53.013.795.002.787-.03 1.181-.045 1.496-.35.314-.307.34-.712.394-1.523.02-.31.025-.612.01-.934-.035-.704-.052-1.056-.36-1.367s-.67-.333-1.394-.375a9 9 0 0 0-1.017 0c-.741.043-1.111.065-1.42.376" clip-rule="evenodd"/></svg>