<svg xmlns="http://www.w3.org/2000/svg" width="95" height="95" fill="none" viewBox="0 0 95 95"><g filter="url(#a)"><circle cx="47.2" cy="47.2" r="26.8" fill="url(#b)" stroke="url(#c)" stroke-width="2.4"/><path fill="#e5f2ff" d="M35.304 39.06a3.756 3.756 0 0 1 3.757-3.756h2.504a1.252 1.252 0 1 0 0-2.504h-2.504a6.26 6.26 0 0 0-6.261 6.26v2.505a1.252 1.252 0 0 0 2.504 0zm23.792 0a3.757 3.757 0 0 0-3.757-3.756h-2.504a1.252 1.252 0 0 1 0-2.504h2.504a6.26 6.26 0 0 1 6.26 6.26v2.505a1.252 1.252 0 0 1-2.503 0zM39.06 59.096a3.757 3.757 0 0 1-3.756-3.757v-2.504a1.252 1.252 0 0 0-2.504 0v2.504a6.26 6.26 0 0 0 6.26 6.261h2.505a1.252 1.252 0 1 0 0-2.504zm20.036-3.756a3.757 3.757 0 0 1-3.757 3.756h-2.504a1.252 1.252 0 0 0 0 2.504h2.504a6.26 6.26 0 0 0 6.26-6.26v-2.505a1.252 1.252 0 0 0-2.503 0z" opacity=".5"/><path fill="#fff" d="M44.167 47.633a2.6 2.6 0 0 1 2.6 2.6v3.034a2.6 2.6 0 0 1-2.6 2.6h-3.034a2.6 2.6 0 0 1-2.6-2.6v-3.034a2.6 2.6 0 0 1 2.6-2.6zm9.75 4.767c.597 0 1.083.485 1.083 1.083v1.3c0 .599-.486 1.084-1.084 1.084h-1.3a1.083 1.083 0 0 1-1.083-1.083v-1.301c0-.598.485-1.083 1.084-1.083zM42 50.233a.87.87 0 0 0-.867.867v1.3c0 .479.389.867.867.867h1.3a.867.867 0 0 0 .866-.867v-1.3a.867.867 0 0 0-.866-.867zm8.45-2.166c.599 0 1.083.485 1.083 1.083v1.3c0 .598-.484 1.084-1.083 1.084h-1.3a1.084 1.084 0 0 1-1.083-1.084v-1.3c0-.598.485-1.083 1.084-1.083zm-6.283-9.533a2.6 2.6 0 0 1 2.6 2.6v3.033a2.6 2.6 0 0 1-2.6 2.6h-3.034a2.6 2.6 0 0 1-2.6-2.6v-3.034a2.6 2.6 0 0 1 2.6-2.6zm9.1 0a2.6 2.6 0 0 1 2.6 2.6v3.033a2.6 2.6 0 0 1-2.6 2.6h-3.034a2.6 2.6 0 0 1-2.6-2.6v-3.034a2.6 2.6 0 0 1 2.6-2.6zM42 41.134a.867.867 0 0 0-.867.865V43.3c0 .479.389.867.867.867h1.3a.866.866 0 0 0 .866-.867V42a.866.866 0 0 0-.866-.867zm9.1 0a.867.867 0 0 0-.867.865V43.3c0 .479.389.866.867.867h1.3a.867.867 0 0 0 .867-.867V42a.867.867 0 0 0-.867-.867z"/></g><defs><linearGradient id="b" x1="41.6" x2="47.2" y1="16.45" y2="79.25" gradientUnits="userSpaceOnUse"><stop stop-color="#6ddcff"/><stop offset="1" stop-color="#0055d5"/></linearGradient><linearGradient id="c" x1="55.2" x2="47.2" y1="18.85" y2="72.8" gradientUnits="userSpaceOnUse"><stop stop-color="#fff"/><stop offset="1" stop-color="#116adc"/></linearGradient><filter id="a" width="94.4" height="94.4" x="0" y="0" color-interpolation-filters="sRGB" filterUnits="userSpaceOnUse"><feFlood flood-opacity="0" result="BackgroundImageFix"/><feColorMatrix in="SourceAlpha" result="hardAlpha" values="0 0 0 0 0 0 0 0 0 0 0 0 0 0 0 0 0 0 127 0"/><feOffset/><feGaussianBlur stdDeviation="9.6"/><feComposite in2="hardAlpha" operator="out"/><feColorMatrix values="0 0 0 0 0 0 0 0 0 0 0 0 0 0 0 0 0 0 0.24 0"/><feBlend in2="BackgroundImageFix" result="effect1_dropShadow_214_1104"/><feBlend in="SourceGraphic" in2="effect1_dropShadow_214_1104" result="shape"/></filter></defs></svg>