<svg xmlns="http://www.w3.org/2000/svg" width="15" height="15" fill="none" viewBox="0 0 15 15"><path fill="#1f589a" d="M7.946 0a1.5 1.5 0 0 1 1.5 1.5v.515a.75.75 0 0 0 1.125.65l.572-.33a1.5 1.5 0 0 1 2.048.549l1 1.732a1.5 1.5 0 0 1-.549 2.049l-.32.186a.75.75 0 0 0 0 1.298l.32.186a1.5 1.5 0 0 1 .55 2.049l-1 1.732a1.5 1.5 0 0 1-2.05.549l-.57-.33a.75.75 0 0 0-1.126.65v.515a1.5 1.5 0 0 1-1.5 1.5h-1.5a1.5 1.5 0 0 1-1.5-1.5v-.516a.75.75 0 0 0-1.125-.649l-.57.33a1.5 1.5 0 0 1-2.05-.549l-1-1.732A1.5 1.5 0 0 1 .75 8.335l.321-.186a.75.75 0 0 0 0-1.298L.75 6.665A1.5 1.5 0 0 1 .2 4.616l1-1.732a1.5 1.5 0 0 1 2.05-.549l.57.33a.75.75 0 0 0 1.125-.65V1.5a1.5 1.5 0 0 1 1.5-1.5zm-.749 5.25a2.25 2.25 0 1 0 0 4.5 2.25 2.25 0 0 0 0-4.5"/></svg>