<svg xmlns="http://www.w3.org/2000/svg" width="73" height="17" fill="none" viewBox="0 0 73 17"><path fill="#004b8d" d="M5.061 14.147q-1.37 0-2.38-.41-1.012-.418-1.575-1.246-.564-.835-.579-2.094H3.01q.03.526.286.886.256.359.703.542.447.176 1.033.176.542 0 .93-.147.388-.146.593-.41a.94.94 0 0 0 .213-.608.8.8 0 0 0-.19-.535q-.192-.227-.587-.395a5.5 5.5 0 0 0-.996-.3l-1.15-.264q-1.42-.323-2.234-1.055-.805-.74-.805-1.97 0-1.011.549-1.773.55-.76 1.501-1.179.96-.425 2.205-.425 1.267 0 2.197.433.93.424 1.443 1.193.52.77.528 1.788H6.746q-.052-.609-.484-.938-.431-.337-1.208-.337-.513 0-.865.14-.351.138-.534.38a.9.9 0 0 0-.176.55q0 .33.198.563.198.228.564.381.366.154.857.264l.944.22a6.3 6.3 0 0 1 1.414.461q.623.285 1.055.689.432.394.652.922t.22 1.18q0 1.032-.52 1.78-.514.746-1.48 1.142-.968.396-2.322.396M10.752 14V5.834h2.358l.14 2.109h-.176q.19-.79.564-1.275.373-.49.879-.717.505-.228 1.062-.227.87 0 1.413.564.55.556.835 1.823h-.278q.19-.849.615-1.377a2.56 2.56 0 0 1 .989-.769q.57-.24 1.194-.241.762 0 1.355.337.592.33.93.952.336.615.337 1.487V14h-2.556V9.07q0-.615-.33-.937a1.1 1.1 0 0 0-.82-.322q-.366 0-.63.161a1.1 1.1 0 0 0-.41.454 1.54 1.54 0 0 0-.14.681V14h-2.446V9.041q0-.57-.315-.9t-.827-.33q-.352 0-.623.161a1.1 1.1 0 0 0-.417.454 1.64 1.64 0 0 0-.147.725V14zm16.18.146q-.785 0-1.392-.263a2.2 2.2 0 0 1-.96-.806q-.344-.534-.344-1.348 0-.674.241-1.142.242-.47.66-.754a3.2 3.2 0 0 1 .974-.447 6 6 0 0 1 1.172-.205 19 19 0 0 0 1.12-.132q.425-.066.623-.205a.45.45 0 0 0 .198-.388v-.03q0-.285-.132-.476a.8.8 0 0 0-.381-.3 1.6 1.6 0 0 0-.6-.103q-.352 0-.623.103a1.15 1.15 0 0 0-.447.293 1 1 0 0 0-.242.447l-2.322-.286q.162-.71.63-1.238.47-.535 1.23-.835.77-.3 1.803-.3.762 0 1.42.183.667.176 1.158.527.497.345.776.857.279.505.279 1.165V14h-2.41v-1.143h-.059q-.227.418-.564.704-.337.285-.79.439a3.3 3.3 0 0 1-1.019.146m.776-1.691q.432 0 .776-.169.352-.176.556-.483a1.25 1.25 0 0 0 .206-.71v-.777a2 2 0 0 1-.279.102 5 5 0 0 1-.747.168l-.38.06q-.374.051-.638.183a1 1 0 0 0-.403.322.76.76 0 0 0-.139.461q0 .278.132.47a.87.87 0 0 0 .373.277q.235.096.543.096M33.442 14V5.834h2.476V7.32h.088q.22-.805.725-1.194a1.9 1.9 0 0 1 1.186-.388q.177 0 .367.022.197.022.359.066v2.212a2.4 2.4 0 0 0-.484-.088 4 4 0 0 0-.535-.036q-.46 0-.834.212-.375.205-.586.571a1.74 1.74 0 0 0-.206.865V14zm11.03-8.166v1.904h-5.126V5.833zm-4.028-1.956h2.55v7.61q0 .33.153.49.154.154.505.154.14 0 .374-.029a7 7 0 0 0 .344-.059l.315 1.868q-.418.117-.82.154a7 7 0 0 1-.77.044q-1.303 0-1.977-.608-.674-.607-.674-1.773z"/><path fill="red" d="M45.842 14V3.087h7.603v2.117h-5.017v2.248h4.621v2.073h-4.621v2.358h5.017V14zm9.156 0V3.087h4.02l1.392 4.248q.117.396.264 1.033.153.63.307 1.355t.286 1.406q.132.675.212 1.157h-.505q.08-.475.205-1.15a81 81 0 0 1 .586-2.768q.154-.638.271-1.033l1.37-4.248h4.028V14h-2.6V9.298q0-.366.015-.938.015-.57.036-1.245.022-.673.037-1.355.014-.688.014-1.281h.169q-.14.651-.315 1.347a67 67 0 0 1-.344 1.348q-.168.66-.33 1.208-.153.55-.264.916L62.3 14h-2.16l-1.575-4.702-.271-.908a57 57 0 0 1-.337-1.202q-.177-.658-.352-1.354a49 49 0 0 1-.322-1.355h.197q.008.577.022 1.26l.03 1.362q.022.673.036 1.252.022.57.022.945V14zM71.704 3.087V14H69.12V3.087z"/></svg>