<svg xmlns="http://www.w3.org/2000/svg" width="87" height="22" fill="none" viewBox="0 0 87 22"><g clip-path="url(#a)"><path fill="#004a8f" d="M50.24 5.93h2.656a6.73 6.73 0 0 1 1.309-3.4c.28-.333.684-.536 1.115-.557a1.74 1.74 0 0 1 1.151.478 7 7 0 0 1 1.705 3.436h2.62l1.352 11.799-12.396.478.518-12.234zm3.094 0h4.49a6.63 6.63 0 0 0-1.554-3.16 1.24 1.24 0 0 0-.87-.399 1.23 1.23 0 0 0-.835.442c-.554.515-.993 1.559-1.23 3.117"/><path fill="#ed1c24" d="m61.26 5.053 11.51 2.08c-.72 4.037-1.554 8.755-2.065 11.597L59.21 16.65c.51-2.842 1.33-7.56 2.05-11.597"/><path fill="#004a8f" d="M81.92 6.293h-2.54a1.8 1.8 0 0 1 .475-.645c.194-.16.431-.268.676-.32.094.211.23.4.396.559l3.597-.957a3.05 3.05 0 0 1-.518-2.276L80.409 3.93c-.08.326-.08.674 0 1-.288.073-.561.21-.799.399q-.27.218-.431.522v-.725a.36.36 0 0 0-.36-.362h-3.597a.354.354 0 0 0-.353.355v1.21h-2.741a.903.903 0 0 0-.928.877v9.879c0 .53.424.95.95.964h9.77a.974.974 0 0 0 .928-.964V7.228a.974.974 0 0 0-.928-.935m-3.339.08H75.41V5.69a.226.226 0 0 1 .208-.239h2.727c.13 0 .23.109.237.24z"/><path fill="#fff" d="M55.688 12.915h-.72v1.276h.993c.64 0 .957-.196.957-.638a.56.56 0 0 0-.36-.558 4 4 0 0 0-.87-.08m.079-2.4h-.799v1.16h.914c.518 0 .72-.202.72-.601a.454.454 0 0 0-.274-.478 1.7 1.7 0 0 0-.597-.08zm.273 5.277h-3.33V8.914h3.251c1.828 0 2.741.558 2.741 1.718a1.63 1.63 0 0 1-.87 1.45c.338.08.633.275.834.557.202.298.31.646.317 1 0 1.45-.957 2.124-2.943 2.124zm6.632-3V8.915h2.223v4.116c-.014.305.05.61.194.885.21.26.547.398.878.355.72 0 1.029-.442 1.029-1.276V8.871h2.223v3.878a3.2 3.2 0 0 1-.791 2.406 4.49 4.49 0 0 1-4.921 0c-.561-.442-.835-1.24-.835-2.399zm14.892.478v2.522h-2.223v-2.479l-2.54-4.399h2.504l1.144 2.356 1.194-2.356h2.46z"/></g><path fill="#004b8d" d="M5.374 17.35q-1.455 0-2.535-.435-1.074-.442-1.672-1.33Q.575 14.7.552 13.37h2.644q.031.56.304.941.272.381.746.576t1.097.194a2.8 2.8 0 0 0 .987-.155q.42-.157.638-.436.226-.288.226-.653a.84.84 0 0 0-.203-.568q-.201-.24-.622-.42a6 6 0 0 0-1.065-.319l-1.213-.28q-1.525-.342-2.388-1.12-.855-.784-.855-2.092 0-1.08.583-1.882.584-.808 1.602-1.252 1.02-.45 2.333-.45 1.353 0 2.34.45.99.451 1.533 1.276.552.817.568 1.905H7.17q-.054-.645-.52-1.003-.46-.358-1.284-.358-.544 0-.925.148a1.2 1.2 0 0 0-.568.404.97.97 0 0 0-.187.584q0 .35.21.59.21.242.599.413.39.163.918.28l1.003.225q.856.187 1.516.498.662.303 1.112.731.459.42.693.98.233.552.233 1.244 0 1.104-.552 1.898-.545.793-1.571 1.213-1.027.42-2.473.42m6.035-.155v-8.64h2.504l.14 2.217h-.187q.21-.833.607-1.346.396-.52.933-.762.537-.24 1.12-.241.933 0 1.516.599.591.591.887 1.92h-.296q.195-.886.646-1.438.45-.56 1.05-.817a3.1 3.1 0 0 1 1.26-.264q.817 0 1.438.358.63.357.988 1.019.358.653.358 1.57v5.825h-2.707v-5.21q0-.66-.35-1.003-.342-.342-.878-.343-.382 0-.661.172a1.16 1.16 0 0 0-.436.482 1.66 1.66 0 0 0-.148.73v5.172h-2.605v-5.241q0-.607-.334-.957-.334-.357-.88-.358-.364 0-.652.172a1.2 1.2 0 0 0-.444.49q-.155.31-.155.77v5.124zm17.171.156q-.832 0-1.478-.28a2.3 2.3 0 0 1-1.018-.856q-.366-.567-.366-1.423 0-.715.257-1.205a2.14 2.14 0 0 1 .7-.801q.45-.311 1.034-.475a6.6 6.6 0 0 1 1.244-.217q.74-.07 1.19-.14.451-.07.653-.218a.48.48 0 0 0 .21-.412v-.031a.85.85 0 0 0-.14-.498.87.87 0 0 0-.404-.319 1.5 1.5 0 0 0-.638-.117q-.373 0-.66.117-.289.109-.475.311-.18.202-.249.475l-2.465-.288q.164-.762.66-1.33.499-.567 1.307-.887.817-.318 1.921-.318.816 0 1.517.194.7.186 1.22.56.53.366.817.902.296.537.296 1.237v5.863h-2.559v-1.213h-.07a2.5 2.5 0 0 1-.59.755q-.36.296-.833.458a3.5 3.5 0 0 1-1.081.156m.824-1.797q.459 0 .825-.178.365-.187.583-.506.218-.328.218-.754v-.825q-.117.062-.288.117a8 8 0 0 1-.381.093 9 9 0 0 1-.42.086q-.21.03-.404.062a2.3 2.3 0 0 0-.677.187q-.28.132-.428.342a.84.84 0 0 0-.14.49.84.84 0 0 0 .14.49.9.9 0 0 0 .397.295q.25.102.575.101m6.066 1.641v-8.64h2.63v1.571h.085q.234-.856.77-1.267a2 2 0 0 1 1.26-.413q.195 0 .397.024.202.023.373.07v2.34a2.4 2.4 0 0 0-.505-.093 6 6 0 0 0-.576-.03q-.49 0-.886.217-.39.218-.615.614-.218.39-.218.918v4.69zm11.712-8.64v2.014h-5.467V8.555zm-4.285-2.092h2.706v8.057q0 .35.164.521.164.163.536.163.148 0 .405-.03.256-.032.365-.055l.32 1.99q-.436.117-.864.156a8 8 0 0 1-.817.047q-1.392 0-2.107-.638-.708-.645-.708-1.882z"/><defs><clipPath id="a"><path fill="#fff" d="M47.781 0h38.443v18.729H47.781z"/></clipPath></defs></svg>