<svg xmlns="http://www.w3.org/2000/svg" width="12" height="12" fill="none" viewBox="0 0 12 12"><path fill="#2e888a" d="M2.652 6.267a61 61 0 0 1 2.981-4.771c.259-.377.388-.565.505-.59a.3.3 0 0 1 .279.087c.083.087.083.316.083.774V3.15c0 .56 0 .84.109 1.054a1 1 0 0 0 .437.437c.214.109.494.109 1.054.109h.632c.254 0 .381 0 .459.054a.3.3 0 0 1 .125.202c.013.094-.043.207-.157.433a37 37 0 0 1-3.049 5.107c-.255.365-.383.547-.5.57a.3.3 0 0 1-.278-.087c-.082-.086-.082-.31-.082-.758v-1.69c0-.56 0-.84-.109-1.054a1 1 0 0 0-.437-.437c-.214-.11-.494-.11-1.054-.11h-.582c-.268 0-.403 0-.482-.056a.3.3 0 0 1-.122-.21c-.01-.097.056-.214.188-.447"/></svg>