<svg xmlns="http://www.w3.org/2000/svg" width="26" height="26" fill="none" viewBox="0 0 26 26"><path fill="#0066b4" d="M8.59 12.886a2.154 2.154 0 0 0-2.147-2.147 2.154 2.154 0 0 0-2.148 2.147c0 1.182.967 2.148 2.148 2.148a2.154 2.154 0 0 0 2.148-2.148m2.149 0c0 1.182.966 2.148 2.147 2.148a2.154 2.154 0 0 0 2.148-2.148 2.154 2.154 0 0 0-2.148-2.147 2.154 2.154 0 0 0-2.147 2.147m6.443 0c0 1.182.966 2.148 2.148 2.148a2.154 2.154 0 0 0 2.147-2.148 2.154 2.154 0 0 0-2.148-2.147 2.154 2.154 0 0 0-2.147 2.147"/></svg>