<svg xmlns="http://www.w3.org/2000/svg" width="92" height="19" fill="none" viewBox="0 0 92 19"><path fill="#ed1c24" d="M8.984 3.753 0 3.796 14.884.568 7.238 14.724l81.318.537L.85 18.523z"/><path fill="#ed1c24" d="m10.92 12.951 4.918-10.296h2.567l.533 10.296h-2.163l-.014-2.177h-2.74l-.937 2.177zm5.797-8.508-1.975 4.63h2.019l-.015-4.63zm2.793 8.508 2.192-10.296h3.634c2.105 0 2.495 1.543 2.163 3.086-.447 2.134-1.961 3.1-3.922 3.1h-1.11l-.88 4.11zm3.937-8.767-.663 3.129h.922c.823 0 1.486-.49 1.717-1.543.216-1.01-.072-1.586-1.11-1.586zm3.397 8.767 2.192-10.296h3.634c2.105 0 2.494 1.543 2.163 3.086-.447 2.134-1.962 3.1-3.923 3.1H29.8l-.88 4.11zm3.937-8.767-.664 3.129h.923c.822 0 1.485-.49 1.716-1.543.216-1.01-.072-1.586-1.11-1.586z"/><path fill="#0f4c8b" d="m36.046 12.951 4.917-10.296h2.567l.534 10.296H41.9l-.015-2.177h-2.74l-.937 2.177zm5.797-8.508-1.976 4.63h2.02l-.015-4.63zm10.58 1.687h-2.077c.317-1.5.144-2.148-.793-2.148-1.053 0-1.514 1.052-2.134 3.965-.663 3.115-.346 3.677.548 3.677.75 0 1.37-.389 1.846-2.61h2.076c-.476 2.221-1.428 4.14-4.153 4.14-3.115 0-3.028-2.222-2.365-5.35.663-3.13 1.529-5.35 4.643-5.35 2.971 0 2.726 2.177 2.409 3.676m7.457 0h-2.077c.317-1.5.144-2.148-.793-2.148-1.053 0-1.514 1.052-2.134 3.965-.664 3.115-.346 3.677.548 3.677.75 0 1.37-.389 1.846-2.61h2.076c-.476 2.221-1.427 4.14-4.153 4.14-3.115 0-3.028-2.222-2.365-5.35.663-3.13 1.529-5.35 4.643-5.35 2.971 0 2.726 2.177 2.409 3.676m.405 1.673c.663-3.13 1.529-5.35 4.643-5.35 3.115 0 3.029 2.22 2.365 5.35s-1.528 5.35-4.643 5.35-3.028-2.22-2.365-5.35m2.077 0c-.592 2.769-.606 3.821.62 3.821s1.644-1.052 2.235-3.82c.577-2.755.606-3.822-.62-3.822s-1.659 1.067-2.235 3.821m6.83-5.148h2.077L69.74 9.836c-.216 1.024-.13 1.788.836 1.788.967 0 1.37-.764 1.587-1.788l1.528-7.181h2.077l-1.529 7.181c-.562 2.625-2.307 3.317-3.994 3.317s-3.173-.562-2.582-3.317zm7.6 0h2.395l1.01 7.052h.028l1.5-7.052h1.903L81.436 12.95h-2.365l-1.01-7.21h-.028l-1.529 7.21h-1.903zm7.445 0h6.576l-.36 1.702h-2.25L86.37 12.95h-2.076l1.831-8.594h-2.25z"/></svg>