<svg xmlns="http://www.w3.org/2000/svg" width="16" height="16" fill="none" viewBox="0 0 16 16"><path fill="#fff" d="M6.913 2.643a1.24 1.24 0 0 1 2.173 0l4.508 8.196c.572 1.04.859 1.56.808 1.986a1.33 1.33 0 0 1-.547.925c-.349.25-.943.25-2.13.25h-7.45c-1.189 0-1.783 0-2.13-.25a1.33 1.33 0 0 1-.548-.925c-.05-.425.235-.946.808-1.986z"/><path fill="#ff8189" d="M8 2c.452 0 .868.246 1.086.643l4.508 8.196c.572 1.04.859 1.56.808 1.986a1.33 1.33 0 0 1-.547.925c-.348.25-.943.25-2.13.25H4.273c-1.188 0-1.782 0-2.13-.25a1.33 1.33 0 0 1-.547-.925c-.05-.425.235-.946.808-1.986l4.508-8.196A1.24 1.24 0 0 1 8 2m0 9.334a.667.667 0 1 0-.001 1.333.667.667 0 0 0 0-1.333M8 6c-.369 0-.667.256-.667.571V9.43c0 .315.298.57.667.571.367 0 .665-.256.666-.571V6.57c0-.315-.299-.57-.666-.571"/></svg>