<svg xmlns="http://www.w3.org/2000/svg" width="24" height="24" fill="none" viewBox="0 0 24 24"><path fill="#83a2c2" d="M10.854 1.803a2 2 0 0 1 2.293 0L21.572 7.7a1 1 0 0 1 .427.82v.98a1 1 0 0 1-1 1h-1.25a.25.25 0 0 0-.25.25v7c0 .138.112.25.25.25h.75a1.5 1.5 0 0 1 1.5 1.5v1a1.5 1.5 0 0 1-1.5 1.5h-17A1.5 1.5 0 0 1 2 20.5v-1A1.5 1.5 0 0 1 3.5 18h.75a.25.25 0 0 0 .25-.25v-7a.25.25 0 0 0-.25-.25H3a1 1 0 0 1-1-1v-.98a1 1 0 0 1 .427-.819zM8 10.5a.5.5 0 0 0-.5.5v5.5a.5.5 0 0 0 .5.5h2a.5.5 0 0 0 .5-.5V11a.5.5 0 0 0-.5-.5zm6 0a.5.5 0 0 0-.5.5v5.5a.5.5 0 0 0 .5.5h2a.5.5 0 0 0 .5-.5V11a.5.5 0 0 0-.5-.5z"/></svg>