<svg xmlns="http://www.w3.org/2000/svg" width="46" height="22" fill="none" viewBox="0 0 46 22"><path fill="#d1dae6" d="M8.814 17c3.258.016 6.232-2.675 6.232-5.948C15.046 7.472 12.072 5 8.814 5H6.011C2.714 4.999 0 7.474 0 11.052 0 14.326 2.714 17.016 6.01 17z"/><path fill="#0d223a" d="M6.024 5.496C3.01 5.497.57 7.956.569 10.99c.001 3.034 2.442 5.492 5.455 5.493 3.013-.001 5.455-2.46 5.455-5.493S9.037 5.497 6.024 5.496M2.566 10.99a3.49 3.49 0 0 1 2.22-3.249v6.498a3.485 3.485 0 0 1-2.22-3.249m4.695 3.25v-6.5a3.485 3.485 0 0 1 2.221 3.25 3.49 3.49 0 0 1-2.22 3.25"/><path fill="#d1dae6" d="M16.956 7.583c0-.567-.294-.53-.576-.536v-.164c.245.012.495.012.74.012.263 0 .62-.012 1.084-.012 1.623 0 2.507 1.091 2.507 2.209 0 .625-.363 2.196-2.582 2.196-.32 0-.614-.012-.909-.012-.282 0-.558.006-.84.012v-.164c.376-.038.558-.05.576-.48zm.615 2.96c0 .486.345.543.652.543 1.354 0 1.799-1.029 1.799-1.97 0-1.179-.753-2.03-1.962-2.03-.258 0-.376.018-.49.024zm3.36.58h.119c.175 0 .3 0 .3-.21v-1.71c0-.276-.093-.315-.325-.44V8.66c.294-.089.646-.208.67-.227a.2.2 0 0 1 .113-.032c.031 0 .044.038.044.09v2.422c0 .209.138.209.314.209h.106v.164c-.213 0-.433-.013-.658-.013q-.336.001-.683.013zm.67-3.692c-.162 0-.306-.152-.306-.316a.32.32 0 0 1 .307-.303c.162 0 .307.133.307.303s-.139.316-.307.316m1.266 1.812c0-.234-.07-.297-.364-.417v-.12c.27-.088.526-.17.827-.303.019 0 .038.013.038.063v.41c.357-.258.665-.473 1.085-.473.532 0 .72.392.72.884v1.628c0 .209.138.209.314.209h.113v.164c-.22 0-.44-.013-.665-.013q-.338.001-.677.013v-.164h.113c.176 0 .3 0 .3-.209V9.281c0-.36-.218-.537-.576-.537-.2 0-.52.164-.728.303v1.868c0 .209.139.209.315.209h.112v.164c-.219 0-.439-.013-.664-.013q-.34.001-.677.013v-.164h.113c.175 0 .3 0 .3-.21zm3.209.303c-.013.057-.013.151 0 .366.037.6.42 1.092.921 1.092.345 0 .615-.19.847-.423l.087.088c-.288.385-.645.713-1.16.713-.996 0-1.196-.972-1.196-1.375 0-1.237.827-1.604 1.265-1.604.508 0 1.054.322 1.06.991q.001.057-.006.114l-.057.038zm1.11-.202c.156 0 .175-.082.175-.158 0-.322-.195-.58-.546-.58-.382 0-.645.283-.72.738zm.858 1.78h.17c.174 0 .3 0 .3-.209V9.142c0-.196-.232-.234-.326-.284v-.094c.457-.196.708-.36.765-.36.037 0 .056.018.056.082v.568h.013c.157-.246.42-.65.802-.65.157 0 .357.106.357.334 0 .17-.118.322-.294.322-.195 0-.195-.152-.414-.152a.53.53 0 0 0-.457.524v1.483c0 .209.125.209.3.209h.351v.164c-.345-.007-.607-.013-.877-.013-.257 0-.52.006-.746.013zm2.413-.714c.082.417.332.77.79.77.37 0 .507-.227.507-.448 0-.744-1.366-.505-1.366-1.52 0-.354.283-.809.972-.809.2 0 .47.057.714.184l.044.643h-.144c-.063-.397-.282-.625-.684-.625-.25 0-.488.146-.488.417 0 .739 1.454.511 1.454 1.502 0 .416-.332.858-1.078.858-.251 0-.545-.088-.765-.214l-.069-.726zm7.459-2.386h-.157c-.119-.739-.64-1.035-1.34-1.035-.722 0-1.769.485-1.769 2 0 1.275.903 2.19 1.868 2.19.62 0 1.135-.429 1.26-1.092l.144.038-.144.921c-.263.165-.971.335-1.385.335-1.467 0-2.394-.953-2.394-2.373 0-1.294 1.147-2.222 2.375-2.222.508 0 .997.165 1.48.335zm.226 3.1h.119c.175 0 .301 0 .301-.209V7.4c0-.41-.094-.423-.332-.492v-.101c.25-.082.514-.196.645-.272.069-.037.12-.07.138-.07.038 0 .05.039.05.09v4.36c0 .209.138.209.314.209h.106v.164c-.213 0-.432-.013-.658-.013-.225 0-.45.007-.683.013zm4.024-.184c0 .114.069.12.175.12.076 0 .17-.006.251-.006v.133a6.4 6.4 0 0 0-.903.195l-.031-.019v-.51c-.376.308-.664.53-1.11.53-.338 0-.69-.222-.69-.751V9.015c0-.164-.024-.321-.375-.353v-.12c.226-.006.727-.044.809-.044.07 0 .07.044.07.183v1.628c0 .19 0 .732.544.732.213 0 .495-.164.758-.384V8.958c0-.125-.3-.195-.526-.258v-.114c.564-.038.915-.088.978-.088.05 0 .05.044.05.114zm1.248-2.082c.25-.215.588-.455.934-.455.727 0 1.165.639 1.165 1.326 0 .827-.601 1.654-1.498 1.654-.464 0-.708-.152-.871-.221l-.188.144-.131-.068c.055-.373.087-.74.087-1.124V7.4c0-.41-.094-.423-.332-.492v-.101c.251-.082.513-.196.645-.272.07-.037.12-.07.139-.07.037 0 .05.039.05.09zm0 1.716c0 .24.225.645.645.645.67 0 .953-.663.953-1.225 0-.682-.514-1.25-1.003-1.25-.232 0-.426.152-.595.298zm-27.042 4.383h.048c.123 0 .252-.017.252-.196v-1.799c0-.179-.13-.196-.252-.196h-.048v-.103c.133 0 .338.014.506.014.17 0 .374-.014.534-.014v.103h-.047c-.123 0-.253.017-.253.196v1.8c0 .178.13.195.253.195h.047v.103c-.163 0-.368-.013-.538-.013-.167 0-.369.013-.502.013z"/><path fill="#d1dae6" d="M17.414 15.074c-.165 0-.37-.013-.54-.013-.166 0-.367.013-.5.013h-.015v-.132h.062c.124-.003.236-.013.237-.181v-1.8c0-.167-.113-.178-.237-.18h-.062v-.133h.014c.134 0 .339.013.505.013.17 0 .374-.013.535-.013h.016v.132h-.063c-.124.003-.237.014-.238.182v1.799c0 .168.114.178.238.18h.063v.133zm-.015-.029v-.073h-.033c-.122 0-.267-.021-.268-.211v-1.8c.001-.189.146-.21.268-.21h.033v-.073c-.158 0-.355.013-.52.013-.163 0-.359-.012-.49-.013v.073h.032c.122 0 .267.021.267.21v1.8c0 .19-.145.21-.267.21h-.033v.074c.132-.001.325-.014.486-.014.167 0 .364.013.525.014m2.358-.662.007-.006v-1.288c0-.282-.195-.323-.297-.323h-.075v-.103c.16 0 .317.014.477.014.14 0 .28-.014.42-.014v.103h-.051c-.144 0-.304.028-.304.436v1.563c0 .12.003.24.02.346h-.13l-1.756-1.97v1.414c0 .3.058.402.32.402h.058v.103c-.146 0-.292-.013-.44-.013-.152 0-.31.013-.463.013v-.103h.048c.235 0 .307-.161.307-.436v-1.446a.307.307 0 0 0-.31-.309h-.045v-.103c.13 0 .263.014.392.014.102 0 .202-.014.304-.014z"/><path fill="#d1dae6" d="m19.954 15.127-.14-.006-1.732-1.942v1.376c.004.299.05.384.306.387h.073v.133h-.015c-.147 0-.294-.014-.44-.014-.152 0-.309.014-.464.014h-.015v-.133h.063c.226-.001.29-.147.293-.42v-1.447a.293.293 0 0 0-.296-.294h-.06v-.133h.015c.13 0 .264.014.392.014.102 0 .2-.014.316-.009l1.499 1.7v-1.264c-.002-.273-.183-.306-.283-.308h-.09v-.133h.015c.161 0 .318.014.478.014.139 0 .278-.014.42-.014h.014v.133h-.065c-.141.004-.286.016-.29.421v1.563c0 .12.004.24.02.344l.004.018zm-.13-.03h.113a2 2 0 0 1-.018-.332v-1.563c0-.412.172-.45.319-.45h.035v-.074c-.134.001-.269.013-.404.013-.156 0-.308-.012-.463-.013v.073h.06c.105 0 .312.047.312.338l-.005 1.298-.006.007-.012.01-1.517-1.726c-.1 0-.2.013-.304.013-.125 0-.253-.012-.376-.013l-.001.073h.03c.16 0 .325.123.325.324v1.446c0 .275-.076.45-.322.451h-.032v.074c.148-.002.3-.014.448-.014.143 0 .285.012.425.014v-.074h-.043c-.268 0-.335-.118-.335-.417v-1.453zm-.075-.72v-.002l-.003-.002zm1.051-1.542c-.257 0-.267.062-.318.312h-.102c.013-.096.03-.192.04-.292a2 2 0 0 0 .021-.291h.082c.028.103.113.1.205.1h1.76c.092 0 .177-.004.184-.107l.081.013q-.02.14-.037.279-.007.138-.006.278l-.103.038c-.007-.127-.024-.33-.252-.33h-.56v1.827c0 .265.12.295.283.295h.065v.103c-.133 0-.372-.013-.556-.013-.204 0-.443.013-.576.013v-.103h.065c.188 0 .283-.017.283-.288v-1.834z"/><path fill="#d1dae6" d="M22.144 15.074c-.134 0-.373-.014-.556-.014-.205 0-.443.014-.577.014h-.014v-.133h.079c.188-.005.263-.007.268-.273v-1.82h-.545v-.03h.574v1.85c0 .275-.11.303-.297.303h-.05v.073c.134 0 .364-.013.562-.013.177 0 .405.012.54.013v-.073h-.05c-.165 0-.297-.04-.297-.31v-1.843h.574c.229.001.259.197.266.325l.074-.028q-.002-.134.006-.27.016-.132.036-.263l-.052-.009c-.016.1-.112.105-.198.104h-1.776c-.08 0-.168-.004-.199-.1h-.056q0 .143-.02.279c-.01.094-.026.185-.038.276h.073c.044-.24.074-.317.328-.314v.031c-.252.004-.247.047-.302.3l-.003.013h-.132l.003-.018q.023-.144.041-.292c.014-.096.02-.19.02-.29v-.014h.109l.002.01c.024.087.087.088.174.089h1.777c.094-.002.163-.003.17-.093v-.016l.016.003.096.016-.002.015a7 7 0 0 0-.037.277q-.009.137-.007.277v.01l-.01.004-.12.044-.001-.02c-.009-.129-.023-.315-.238-.315h-.544v1.812c.003.259.105.277.267.28h.08v.133zm.719-.117h.048c.122 0 .252-.017.252-.196v-1.799c0-.179-.13-.196-.252-.196h-.048v-.103c.207 0 .563.014.848.014.288 0 .642-.014.873-.014-.005.147-.002.375.008.525l-.103.028c-.016-.223-.057-.401-.416-.401H23.6v.899h.405c.205 0 .25-.117.27-.303h.102a8 8 0 0 0 0 .794l-.102.02c-.02-.205-.03-.34-.266-.34h-.41v.8c0 .224.198.224.416.224.41 0 .59-.028.693-.419l.095.024a7 7 0 0 0-.116.546c-.218 0-.61-.013-.917-.013s-.713.013-.907.013z"/><path fill="#d1dae6" d="M24.687 15.075c-.219 0-.61-.014-.917-.014s-.713.014-.907.014h-.015v-.133h.062c.124-.002.236-.013.238-.18v-1.8c-.002-.167-.114-.179-.238-.181h-.062v-.133h.015c.208 0 .563.014.848.014.287 0 .641-.014.873-.014h.016l-.001.016-.003.177c0 .119.003.249.01.347v.012l-.011.003-.12.032v-.018c-.02-.223-.05-.385-.402-.388h-.459v.87h.391c.197-.002.232-.104.255-.289l.001-.013h.131v.015q-.01.201-.011.402 0 .195.01.39v.013l-.011.003-.119.023-.001-.016c-.024-.21-.025-.324-.252-.327h-.394v.786c0 .208.179.207.401.208.41-.002.575-.022.678-.408l.004-.014.014.003.11.028-.004.014a8 8 0 0 0-.115.546l-.003.012zm-.012-.03a8 8 0 0 1 .11-.52l-.067-.017c-.102.384-.3.419-.703.416-.214 0-.43 0-.43-.239v-.814h.423c.238-.003.263.142.28.337l.073-.015a7 7 0 0 1 0-.766h-.073c-.02.178-.075.304-.283.302h-.42v-.93h.488c.355-.002.414.182.43.398l.073-.02a6 6 0 0 1-.007-.499c-.232.001-.577.013-.858.013-.28 0-.625-.012-.834-.013v.073h.033c.122 0 .267.022.268.211v1.8c0 .189-.146.21-.268.21h-.033v.073c.2 0 .593-.013.893-.013s.685.013.905.013m.588-2.018c0-.25-.136-.26-.242-.26h-.061v-.104c.109 0 .32.014.528.014.205 0 .369-.014.55-.014.429 0 .811.117.811.605 0 .308-.204.497-.474.604l.583.879c.096.145.164.186.331.206v.103c-.113 0-.222-.013-.334-.013-.106 0-.215.013-.32.013a10 10 0 0 1-.71-1.113H25.7v.736c0 .264.123.274.28.274h.06v.103c-.194 0-.391-.013-.586-.013-.164 0-.324.013-.494.013v-.103h.061c.127 0 .242-.058.242-.185zm.437.797h.167c.341 0 .525-.13.525-.536 0-.305-.194-.501-.498-.501-.103 0-.146.01-.194.014z"/><path fill="#d1dae6" d="M27.29 15.075c-.115 0-.224-.013-.336-.013-.104 0-.213.013-.332.008a10 10 0 0 1-.706-1.107h-.201v.72c.003.258.106.256.264.26h.076v.132h-.015c-.195 0-.392-.013-.586-.013-.163 0-.323.013-.494.013h-.015v-.133h.076c.123 0 .227-.054.227-.17v-1.745c-.003-.243-.121-.242-.227-.245h-.076v-.134h.015c.11 0 .32.014.528.014.204 0 .368-.014.55-.014.43.001.825.12.826.62 0 .31-.203.503-.467.611l.574.864c.095.143.154.178.32.2l.013.001v.131zm-1.59-1.142h.233l.004.008c.222.394.446.765.697 1.105.104 0 .214-.014.32-.014.11 0 .214.012.32.014v-.076c-.16-.02-.235-.068-.328-.21l-.593-.894.016-.007c.267-.106.465-.29.465-.592 0-.476-.368-.586-.796-.588-.18 0-.344.013-.55.013-.2 0-.402-.012-.514-.013v.072h.047c.106 0 .257.018.257.276v1.745c0 .138-.129.2-.257.201h-.047v.072c.164 0 .32-.013.48-.013.19 0 .383.013.572.014v-.073h-.047c-.156 0-.294-.02-.294-.29v-.75zm0-.094h-.015v-1.052l.013-.001c.046-.004.093-.013.196-.013.31 0 .512.203.513.516-.001.41-.196.55-.54.55zm.167-.03c.337-.003.507-.12.51-.52-.001-.3-.186-.486-.483-.487-.093 0-.136.008-.18.012v.995zm3.738.574.006-.006v-1.288c0-.282-.194-.323-.297-.323h-.074v-.103c.16 0 .317.014.477.014.14 0 .28-.014.42-.014v.103h-.051c-.144 0-.304.028-.304.436v1.563c0 .12.003.24.02.346h-.13l-1.755-1.97v1.414c0 .3.057.402.32.402h.058v.103c-.147 0-.293-.013-.44-.013-.154 0-.31.013-.464.013v-.103h.048c.235 0 .307-.161.307-.436v-1.446a.307.307 0 0 0-.31-.309h-.045v-.103c.13 0 .263.014.392.014.102 0 .201-.014.304-.014z"/><path fill="#d1dae6" d="m29.802 15.127-.14-.005-1.731-1.942v1.376c.004.298.049.383.306.387h.072v.132h-.015c-.147 0-.293-.014-.44-.014-.152 0-.31.014-.463.014h-.015v-.132h.063c.225-.002.29-.147.291-.422v-1.446a.29.29 0 0 0-.294-.294h-.06v-.133h.015c.13 0 .264.014.392.014.1 0 .2-.014.314-.009l1.5 1.7v-1.264c-.002-.273-.183-.306-.283-.308h-.09v-.133h.015c.162 0 .319.014.478.014.14 0 .279-.014.42-.014h.014v.133h-.065c-.141.004-.286.017-.29.422v1.562c0 .12.003.24.02.345l.003.017zm-.13-.03h.113a2.4 2.4 0 0 1-.018-.332v-1.562c0-.412.173-.45.319-.452h.035v-.072c-.133 0-.268.013-.404.013-.157 0-.309-.012-.463-.013v.072h.06c.105.002.312.048.312.338l-.005 1.298-.006.008-.01.01-1.518-1.726c-.102 0-.2.013-.304.013-.126 0-.253-.012-.378-.013v.072h.03c.16.002.325.123.325.324v1.446c0 .275-.077.451-.321.452h-.034v.072c.148 0 .3-.013.45-.013.143 0 .284.013.425.013v-.072h-.043c-.268 0-.336-.119-.336-.418v-1.452zm-.076-.72-.003-.003zm1.09.191c-.035.117-.076.207-.076.268 0 .103.143.12.256.12h.038v.104a8 8 0 0 0-.414-.014 6 6 0 0 0-.368.014v-.104h.02c.134 0 .247-.079.297-.223l.546-1.576c.044-.127.106-.299.127-.426.109-.038.245-.106.31-.148.01-.003.016-.007.027-.007s.017 0 .024.01c.01.028.02.06.031.087l.628 1.796c.04.12.08.247.125.35.041.096.113.137.226.137h.02v.104a10 10 0 0 0-.982 0v-.104h.037c.079 0 .212-.013.212-.1 0-.044-.03-.136-.069-.247l-.133-.398h-.774zm.497-1.521h-.007l-.317.972h.637z"/><path fill="#d1dae6" d="M32.502 15.075q-.227-.012-.47-.014-.25.002-.511.014l-.015.001v-.134h.052c.08 0 .196-.018.196-.084.001-.04-.03-.133-.067-.243l-.13-.388h-.752l-.106.347c-.035.117-.076.208-.075.264 0 .084.128.104.241.104h.053v.135l-.015-.002q-.207-.012-.412-.014-.183.002-.368.014l-.015.001v-.134h.034c.128 0 .234-.073.283-.213l.546-1.576c.045-.127.106-.298.136-.435.107-.037.244-.106.31-.148q.012-.006.032-.008c.008 0 .027.002.038.02l.03.087.629 1.796c.04.12.08.248.125.349.04.092.102.128.212.128h.035v.135zm-.967-.03q.254-.011.498-.013c.158 0 .306.007.455.013v-.072h-.005c-.117 0-.198-.046-.24-.147a5 5 0 0 1-.126-.352l-.627-1.795c-.01-.028-.02-.059-.03-.083q-.003-.005-.005-.004h-.006q-.009.001-.02.005c-.066.043-.202.11-.303.137-.021.13-.083.302-.127.429l-.546 1.576c-.052.15-.171.234-.31.234h-.006v.072q.176-.011.354-.013c.131 0 .266.007.396.013v-.072h-.022c-.11-.002-.266-.014-.27-.135 0-.069.042-.157.076-.273l.015.005-.015-.005.112-.367h.795l.137.408c.038.11.07.201.07.252-.006.105-.15.113-.227.115h-.023zm-.697-1.01.327-1.002h.028l.324 1.002zm.041-.03h.597l-.297-.92zm1.774-1.17c-.256 0-.266.062-.317.312h-.103c.014-.096.031-.192.042-.292a2 2 0 0 0 .02-.291h.082c.027.103.113.1.204.1h1.76c.092 0 .177-.004.184-.107l.082.013q-.02.14-.037.279-.009.138-.007.278l-.103.038c-.006-.127-.023-.33-.252-.33h-.559v1.827c0 .265.12.295.283.295h.065v.103c-.133 0-.372-.013-.556-.013-.205 0-.444.013-.577.013v-.103h.065c.188 0 .284-.017.284-.288v-1.834z"/><path fill="#d1dae6" d="M33.996 15.076c-.133 0-.372-.014-.555-.014-.204 0-.443.014-.577.014h-.015v-.133h.08c.188-.005.263-.007.268-.273v-1.82h-.544v-.03h.574v1.85c0 .275-.11.302-.298.303h-.05v.073c.135-.001.364-.013.562-.013.178 0 .406.012.54.014v-.074h-.05c-.164 0-.297-.04-.297-.31V12.82h.574c.229.001.259.197.266.325l.074-.028q-.002-.135.007-.27.015-.13.035-.263l-.052-.009c-.016.1-.112.106-.197.104h-1.777c-.08.001-.168-.004-.199-.1h-.056q0 .143-.02.279c-.01.094-.026.185-.039.276h.073c.045-.24.075-.317.33-.314v.03c-.253.005-.247.048-.303.302l-.003.011h-.132l.003-.017c.014-.097.031-.192.041-.292q.02-.142.02-.29v-.014h.108l.003.01c.024.087.086.087.174.089h1.777c.094-.002.163-.003.17-.092v-.017l.016.003.097.016-.003.015a7 7 0 0 0-.037.277q-.009.137-.007.276v.011l-.01.004-.12.044-.001-.02c-.009-.129-.022-.316-.238-.316h-.544v1.813c.003.259.105.277.267.28h.08v.133zm.737-.119h.047c.124 0 .252-.017.252-.196v-1.799c0-.179-.128-.196-.252-.196h-.047v-.103c.133 0 .337.014.504.014.171 0 .376-.014.536-.014v.103h-.048c-.123 0-.253.017-.253.196v1.8c0 .178.13.195.253.195h.048v.103c-.164 0-.369-.013-.539-.013-.167 0-.368.013-.501.013z"/><path fill="#d1dae6" d="M35.773 15.075c-.165 0-.369-.014-.539-.014-.167 0-.368.014-.501.014h-.015v-.133h.063c.123-.002.236-.013.236-.18v-1.8c0-.167-.113-.179-.236-.181h-.063v-.133h.015c.133 0 .338.014.504.014.17 0 .375-.014.536-.014h.014v.133h-.062c-.124.002-.236.014-.238.181v1.8c.002.167.114.178.238.18h.063v.133zm-.015-.03v-.073h-.033c-.122 0-.267-.021-.267-.21v-1.8c0-.19.145-.211.267-.211h.033v-.073c-.158.001-.355.013-.521.013-.162 0-.357-.012-.49-.013v.073h.034c.12 0 .266.022.267.211v1.8c-.001.188-.146.21-.267.21h-.033v.073c.131-.002.324-.013.486-.013.165 0 .363.012.524.013m1.375-2.434c.727 0 1.306.454 1.306 1.185 0 .79-.562 1.315-1.288 1.315-.724 0-1.276-.494-1.276-1.232 0-.715.549-1.268 1.258-1.268m.052 2.35c.661 0 .776-.588.776-1.09 0-.501-.268-1.109-.835-1.109-.596 0-.774.536-.774.996 0 .615.28 1.202.833 1.202"/><path fill="#d1dae6" d="M35.86 13.879a1.26 1.26 0 0 1 1.273-1.282v.029c-.7 0-1.244.546-1.244 1.253.002.73.546 1.217 1.262 1.217.719 0 1.273-.518 1.274-1.3 0-.722-.57-1.169-1.292-1.17v-.029c.733 0 1.32.459 1.321 1.199 0 .798-.57 1.329-1.303 1.33-.73-.001-1.29-.5-1.291-1.247m.478-.12c0-.463.18-1.012.789-1.012.579.002.849.62.85 1.125-.001.5-.118 1.103-.792 1.103v-.029c.648-.001.76-.573.762-1.074 0-.498-.266-1.094-.82-1.094-.585 0-.759.523-.76.98 0 .612.278 1.186.818 1.188v.029c-.566-.001-.846-.598-.847-1.217m4.4.625.007-.006v-1.288c0-.282-.195-.323-.297-.323h-.074v-.103c.16 0 .316.014.476.014.14 0 .28-.014.42-.014v.103h-.051c-.143 0-.304.028-.304.436v1.563c0 .12.004.24.02.346h-.129l-1.756-1.97v1.414c0 .3.058.402.32.402h.058v.103c-.146 0-.293-.013-.44-.013-.153 0-.31.013-.464.013v-.103h.048c.236 0 .307-.161.307-.436v-1.446a.306.306 0 0 0-.31-.309h-.045v-.103c.13 0 .263.014.392.014.103 0 .201-.014.304-.014z"/><path fill="#d1dae6" d="m40.936 15.126-.141-.005-1.73-1.942v1.376c.003.299.048.383.304.386h.074v.134h-.015c-.147 0-.294-.014-.44-.014-.153 0-.31.014-.464.014h-.014v-.134h.062c.225 0 .29-.146.292-.42v-1.446a.293.293 0 0 0-.295-.294h-.06v-.133h.015c.13 0 .264.014.392.014.102 0 .2-.014.315-.009l1.499 1.7v-1.264c-.001-.273-.183-.306-.283-.308h-.09v-.132h.016c.16 0 .318.013.477.013.14 0 .279-.014.42-.014h.015v.133h-.066c-.14.004-.286.017-.289.421v1.563c0 .12.003.24.02.345l.002.016zm-.13-.03h.112a2.4 2.4 0 0 1-.017-.331v-1.563c0-.413.172-.45.318-.451h.037v-.073c-.135.001-.27.013-.406.013-.155 0-.308-.012-.462-.013v.073h.06c.105.001.31.048.31.338l-.003 1.298-.006.007-.011.011-1.518-1.727c-.1 0-.2.013-.304.013-.125 0-.253-.012-.377-.013v.073h.03c.16.001.325.123.325.324v1.446c0 .275-.076.45-.322.451h-.033v.073c.148 0 .3-.013.45-.013.142 0 .283.012.425.013v-.072h-.044c-.268 0-.335-.12-.335-.418v-1.453zm-.076-.72-.003-.003zm1.088.192c-.033.117-.074.207-.074.268 0 .103.143.12.255.12h.038v.104a8 8 0 0 0-.413-.014 6 6 0 0 0-.367.014v-.104h.019c.133 0 .247-.079.297-.223l.546-1.576c.044-.127.106-.299.126-.426.11-.038.245-.106.31-.148q.013-.006.028-.007c.01 0 .016 0 .023.01.01.028.021.06.032.087l.627 1.796c.04.12.081.247.126.35.041.096.113.137.225.137h.021v.104a10 10 0 0 0-.983 0v-.104h.038c.078 0 .212-.013.212-.1a1 1 0 0 0-.07-.247l-.132-.398h-.774zm.499-1.521h-.007l-.318.972h.639z"/><path fill="#d1dae6" d="M43.636 15.075c-.154-.006-.307-.014-.47-.014-.166 0-.337.008-.511.014h-.015v-.133h.051c.08 0 .197-.019.198-.085 0-.039-.03-.132-.069-.242l-.13-.389h-.752l-.105.347c-.034.118-.075.208-.074.264 0 .084.127.105.24.105h.052v.134l-.015-.001c-.136-.006-.276-.014-.412-.014-.122 0-.245.008-.367.014h-.015v-.133h.034c.127 0 .234-.074.283-.213l.546-1.576c.044-.128.105-.299.135-.435.107-.038.244-.106.31-.148q.013-.006.033-.007a.04.04 0 0 1 .037.02q.014.042.032.086l.627 1.796c.04.12.081.247.126.35.04.09.102.126.21.127h.036v.134zm-.967-.03q.254-.012.497-.014c.159 0 .307.007.456.013v-.072h-.006c-.116 0-.196-.045-.239-.146-.045-.104-.085-.232-.126-.352l-.628-1.796-.029-.082q-.002-.005-.005-.004h-.006q-.009 0-.02.005c-.066.042-.203.11-.303.137-.022.13-.084.301-.127.428l-.547 1.577c-.051.149-.17.234-.31.233h-.005v.072q.175-.011.353-.013.2.002.398.013v-.072H42c-.11-.001-.266-.013-.27-.135 0-.068.043-.156.075-.272l.014.004-.014-.005.113-.367h.795l.137.408c.038.11.069.202.069.252-.005.106-.149.113-.227.115h-.022zm-.697-1.01.327-1.002h.028l.323 1.001zm.041-.03h.597l-.297-.92zm2.483.719c0 .137.095.178.204.192.14.01.293.01.45-.007a.5.5 0 0 0 .328-.186.8.8 0 0 0 .105-.247h.1c-.038.196-.086.389-.127.584-.3 0-.6-.013-.9-.013s-.6.013-.9.013v-.103h.047c.123 0 .257-.017.257-.23v-1.765c0-.179-.134-.196-.257-.196h-.047v-.103c.18 0 .358.014.538.014.175 0 .345-.014.519-.014v.103h-.086c-.129 0-.23.004-.23.185z"/><path fill="#d1dae6" d="M45.556 15.075c-.3 0-.6-.014-.9-.014s-.6.014-.9.014h-.015v-.133h.062c.123-.003.24-.011.242-.215v-1.766c-.002-.166-.118-.178-.242-.18h-.062v-.133h.014c.181 0 .36.014.54.014.172 0 .343-.014.518-.014h.014v.133h-.1c-.132.004-.214-.003-.217.17v1.773c.001.127.084.162.19.177a3 3 0 0 0 .448-.007.47.47 0 0 0 .318-.179.8.8 0 0 0 .103-.242l.003-.012h.128l-.003.018c-.038.197-.085.389-.127.584l-.002.012zm-.012-.03c.04-.186.084-.368.12-.554h-.07a.8.8 0 0 1-.105.242.5.5 0 0 1-.337.19 2.6 2.6 0 0 1-.454.008c-.11-.013-.218-.06-.218-.207V12.95c0-.19.12-.2.247-.2h.07v-.073c-.167.001-.333.014-.503.014-.176 0-.349-.013-.524-.014v.073h.033c.121 0 .27.021.27.21v1.766c0 .222-.148.245-.27.245h-.033v.073c.295 0 .59-.013.886-.013s.593.013.888.013m.097-2.479c.206 0 .359.16.359.363s-.154.36-.359.36a.353.353 0 0 1-.36-.36c0-.203.154-.363.36-.363m0 .656a.29.29 0 0 0 .284-.293.29.29 0 0 0-.284-.295.29.29 0 0 0-.285.295.29.29 0 0 0 .285.293m-.179-.102V13.1c.044-.006.052-.005.052-.033V12.8c0-.038-.004-.05-.05-.049v-.018h.184c.063 0 .12.03.12.096a.11.11 0 0 1-.084.109l.059.083a.4.4 0 0 0 .08.085v.012h-.07c-.035 0-.064-.072-.13-.167h-.04v.12c0 .024.009.023.053.029v.018zm.121-.19h.043c.046 0 .068-.036.068-.093 0-.058-.034-.078-.07-.078h-.04zM8.814 17c3.258.016 6.232-2.675 6.232-5.948C15.046 7.472 12.072 5 8.814 5H6.011C2.714 4.999 0 7.474 0 11.052 0 14.326 2.714 17.016 6.01 17z"/><path fill="#0d223a" d="M6.024 5.496C3.01 5.497.57 7.956.569 10.99c.001 3.034 2.442 5.492 5.455 5.493 3.013-.001 5.455-2.46 5.455-5.493S9.037 5.497 6.024 5.496M2.566 10.99a3.49 3.49 0 0 1 2.22-3.249v6.498a3.485 3.485 0 0 1-2.22-3.249m4.695 3.25v-6.5a3.485 3.485 0 0 1 2.221 3.25 3.49 3.49 0 0 1-2.22 3.25"/><path fill="#d1dae6" d="M16.956 7.583c0-.567-.294-.53-.576-.536v-.164c.245.012.495.012.74.012.263 0 .62-.012 1.084-.012 1.623 0 2.507 1.091 2.507 2.209 0 .625-.363 2.196-2.582 2.196-.32 0-.614-.012-.909-.012-.282 0-.558.006-.84.012v-.164c.376-.038.558-.05.576-.48zm.615 2.96c0 .486.345.543.652.543 1.354 0 1.799-1.029 1.799-1.97 0-1.179-.753-2.03-1.962-2.03-.258 0-.376.018-.49.024zm3.36.58h.119c.175 0 .3 0 .3-.21v-1.71c0-.276-.093-.315-.325-.44V8.66c.294-.089.646-.208.67-.227a.2.2 0 0 1 .113-.032c.031 0 .044.038.044.09v2.422c0 .209.138.209.314.209h.106v.164c-.213 0-.433-.013-.658-.013q-.336.001-.683.013zm.67-3.692c-.162 0-.306-.152-.306-.316a.32.32 0 0 1 .307-.303c.162 0 .307.133.307.303s-.139.316-.307.316m1.266 1.812c0-.234-.07-.297-.364-.417v-.12c.27-.088.526-.17.827-.303.019 0 .038.013.038.063v.41c.357-.258.665-.473 1.085-.473.532 0 .72.392.72.884v1.628c0 .209.138.209.314.209h.113v.164c-.22 0-.44-.013-.665-.013q-.338.001-.677.013v-.164h.113c.176 0 .3 0 .3-.209V9.281c0-.36-.218-.537-.576-.537-.2 0-.52.164-.728.303v1.868c0 .209.139.209.315.209h.112v.164c-.219 0-.439-.013-.664-.013q-.34.001-.677.013v-.164h.113c.175 0 .3 0 .3-.21zm3.209.303c-.013.057-.013.151 0 .366.037.6.42 1.092.921 1.092.345 0 .615-.19.847-.423l.087.088c-.288.385-.645.713-1.16.713-.996 0-1.196-.972-1.196-1.375 0-1.237.827-1.604 1.265-1.604.508 0 1.054.322 1.06.991q.001.057-.006.114l-.057.038zm1.11-.202c.156 0 .175-.082.175-.158 0-.322-.195-.58-.546-.58-.382 0-.645.283-.72.738zm.858 1.78h.17c.174 0 .3 0 .3-.209V9.142c0-.196-.232-.234-.326-.284v-.094c.457-.196.708-.36.765-.36.037 0 .056.018.056.082v.568h.013c.157-.246.42-.65.802-.65.157 0 .357.106.357.334 0 .17-.118.322-.294.322-.195 0-.195-.152-.414-.152a.53.53 0 0 0-.457.524v1.483c0 .209.125.209.3.209h.351v.164c-.345-.007-.607-.013-.877-.013-.257 0-.52.006-.746.013zm2.413-.714c.082.417.332.77.79.77.37 0 .507-.227.507-.448 0-.744-1.366-.505-1.366-1.52 0-.354.283-.809.972-.809.2 0 .47.057.714.184l.044.643h-.144c-.063-.397-.282-.625-.684-.625-.25 0-.488.146-.488.417 0 .739 1.454.511 1.454 1.502 0 .416-.332.858-1.078.858-.251 0-.545-.088-.765-.214l-.069-.726zm7.459-2.386h-.157c-.119-.739-.64-1.035-1.34-1.035-.722 0-1.769.485-1.769 2 0 1.275.903 2.19 1.868 2.19.62 0 1.135-.429 1.26-1.092l.144.038-.144.921c-.263.165-.971.335-1.385.335-1.467 0-2.394-.953-2.394-2.373 0-1.294 1.147-2.222 2.375-2.222.508 0 .997.165 1.48.335zm.226 3.1h.119c.175 0 .301 0 .301-.209V7.4c0-.41-.094-.423-.332-.492v-.101c.25-.082.514-.196.645-.272.069-.037.12-.07.138-.07.038 0 .05.039.05.09v4.36c0 .209.138.209.314.209h.106v.164c-.213 0-.432-.013-.658-.013-.225 0-.45.007-.683.013zm4.024-.184c0 .114.069.12.175.12.076 0 .17-.006.251-.006v.133a6.4 6.4 0 0 0-.903.195l-.031-.019v-.51c-.376.308-.664.53-1.11.53-.338 0-.69-.222-.69-.751V9.015c0-.164-.024-.321-.375-.353v-.12c.226-.006.727-.044.809-.044.07 0 .07.044.07.183v1.628c0 .19 0 .732.544.732.213 0 .495-.164.758-.384V8.958c0-.125-.3-.195-.526-.258v-.114c.564-.038.915-.088.978-.088.05 0 .05.044.05.114zm1.248-2.082c.25-.215.588-.455.934-.455.727 0 1.165.639 1.165 1.326 0 .827-.601 1.654-1.498 1.654-.464 0-.708-.152-.871-.221l-.188.144-.131-.068c.055-.373.087-.74.087-1.124V7.4c0-.41-.094-.423-.332-.492v-.101c.251-.082.513-.196.645-.272.07-.037.12-.07.139-.07.037 0 .05.039.05.09zm0 1.716c0 .24.225.645.645.645.67 0 .953-.663.953-1.225 0-.682-.514-1.25-1.003-1.25-.232 0-.426.152-.595.298zm-27.042 4.383h.048c.123 0 .252-.017.252-.196v-1.799c0-.179-.13-.196-.252-.196h-.048v-.103c.133 0 .338.014.506.014.17 0 .374-.014.534-.014v.103h-.047c-.123 0-.253.017-.253.196v1.8c0 .178.13.195.253.195h.047v.103c-.163 0-.368-.013-.538-.013-.167 0-.369.013-.502.013z"/><path fill="#d1dae6" d="M17.414 15.074c-.165 0-.37-.013-.54-.013-.166 0-.367.013-.5.013h-.015v-.132h.062c.124-.003.236-.013.237-.181v-1.8c0-.167-.113-.178-.237-.18h-.062v-.133h.014c.134 0 .339.013.505.013.17 0 .374-.013.535-.013h.016v.132h-.063c-.124.003-.237.014-.238.182v1.799c0 .168.114.178.238.18h.063v.133zm-.015-.029v-.073h-.033c-.122 0-.267-.021-.268-.211v-1.8c.001-.189.146-.21.268-.21h.033v-.073c-.158 0-.355.013-.52.013-.163 0-.359-.012-.49-.013v.073h.032c.122 0 .267.021.267.21v1.8c0 .19-.145.21-.267.21h-.033v.074c.132-.001.325-.014.486-.014.167 0 .364.013.525.014m2.358-.662.007-.006v-1.288c0-.282-.195-.323-.297-.323h-.075v-.103c.16 0 .317.014.477.014.14 0 .28-.014.42-.014v.103h-.051c-.144 0-.304.028-.304.436v1.563c0 .12.003.24.02.346h-.13l-1.756-1.97v1.414c0 .3.058.402.32.402h.058v.103c-.146 0-.292-.013-.44-.013-.152 0-.31.013-.463.013v-.103h.048c.235 0 .307-.161.307-.436v-1.446a.307.307 0 0 0-.31-.309h-.045v-.103c.13 0 .263.014.392.014.102 0 .202-.014.304-.014z"/><path fill="#d1dae6" d="m19.954 15.127-.14-.006-1.732-1.942v1.376c.004.299.05.384.306.387h.073v.133h-.015c-.147 0-.294-.014-.44-.014-.152 0-.309.014-.464.014h-.015v-.133h.063c.226-.001.29-.147.293-.42v-1.447a.293.293 0 0 0-.296-.294h-.06v-.133h.015c.13 0 .264.014.392.014.102 0 .2-.014.316-.009l1.499 1.7v-1.264c-.002-.273-.183-.306-.283-.308h-.09v-.133h.015c.161 0 .318.014.478.014.139 0 .278-.014.42-.014h.014v.133h-.065c-.141.004-.286.016-.29.421v1.563c0 .12.004.24.02.344l.004.018zm-.13-.03h.113a2 2 0 0 1-.018-.332v-1.563c0-.412.172-.45.319-.45h.035v-.074c-.134.001-.269.013-.404.013-.156 0-.308-.012-.463-.013v.073h.06c.105 0 .312.047.312.338l-.005 1.298-.006.007-.012.01-1.517-1.726c-.1 0-.2.013-.304.013-.125 0-.253-.012-.376-.013l-.001.073h.03c.16 0 .325.123.325.324v1.446c0 .275-.076.45-.322.451h-.032v.074c.148-.002.3-.014.448-.014.143 0 .285.012.425.014v-.074h-.043c-.268 0-.335-.118-.335-.417v-1.453zm-.075-.72v-.002l-.003-.002zm1.051-1.542c-.257 0-.267.062-.318.312h-.102c.013-.096.03-.192.04-.292a2 2 0 0 0 .021-.291h.082c.028.103.113.1.205.1h1.76c.092 0 .177-.004.184-.107l.081.013q-.02.14-.037.279-.007.138-.006.278l-.103.038c-.007-.127-.024-.33-.252-.33h-.56v1.827c0 .265.12.295.283.295h.065v.103c-.133 0-.372-.013-.556-.013-.204 0-.443.013-.576.013v-.103h.065c.188 0 .283-.017.283-.288v-1.834z"/><path fill="#d1dae6" d="M22.144 15.074c-.134 0-.373-.014-.556-.014-.205 0-.443.014-.577.014h-.014v-.133h.079c.188-.005.263-.007.268-.273v-1.82h-.545v-.03h.574v1.85c0 .275-.11.303-.297.303h-.05v.073c.134 0 .364-.013.562-.013.177 0 .405.012.54.013v-.073h-.05c-.165 0-.297-.04-.297-.31v-1.843h.574c.229.001.259.197.266.325l.074-.028q-.002-.134.006-.27.016-.132.036-.263l-.052-.009c-.016.1-.112.105-.198.104h-1.776c-.08 0-.168-.004-.199-.1h-.056q0 .143-.02.279c-.01.094-.026.185-.038.276h.073c.044-.24.074-.317.328-.314v.031c-.252.004-.247.047-.302.3l-.003.013h-.132l.003-.018q.023-.144.041-.292c.014-.096.02-.19.02-.29v-.014h.109l.002.01c.024.087.087.088.174.089h1.777c.094-.002.163-.003.17-.093v-.016l.016.003.096.016-.002.015a7 7 0 0 0-.037.277q-.009.137-.007.277v.01l-.01.004-.12.044-.001-.02c-.009-.129-.023-.315-.238-.315h-.544v1.812c.003.259.105.277.267.28h.08v.133zm.719-.117h.048c.122 0 .252-.017.252-.196v-1.799c0-.179-.13-.196-.252-.196h-.048v-.103c.207 0 .563.014.848.014.288 0 .642-.014.873-.014-.005.147-.002.375.008.525l-.103.028c-.016-.223-.057-.401-.416-.401H23.6v.899h.405c.205 0 .25-.117.27-.303h.102a8 8 0 0 0 0 .794l-.102.02c-.02-.205-.03-.34-.266-.34h-.41v.8c0 .224.198.224.416.224.41 0 .59-.028.693-.419l.095.024a7 7 0 0 0-.116.546c-.218 0-.61-.013-.917-.013s-.713.013-.907.013z"/><path fill="#d1dae6" d="M24.687 15.075c-.219 0-.61-.014-.917-.014s-.713.014-.907.014h-.015v-.133h.062c.124-.002.236-.013.238-.18v-1.8c-.002-.167-.114-.179-.238-.181h-.062v-.133h.015c.208 0 .563.014.848.014.287 0 .641-.014.873-.014h.016l-.001.016-.003.177c0 .119.003.249.01.347v.012l-.011.003-.12.032v-.018c-.02-.223-.05-.385-.402-.388h-.459v.87h.391c.197-.002.232-.104.255-.289l.001-.013h.131v.015q-.01.201-.011.402 0 .195.01.39v.013l-.011.003-.119.023-.001-.016c-.024-.21-.025-.324-.252-.327h-.394v.786c0 .208.179.207.401.208.41-.002.575-.022.678-.408l.004-.014.014.003.11.028-.004.014a8 8 0 0 0-.115.546l-.003.012zm-.012-.03a8 8 0 0 1 .11-.52l-.067-.017c-.102.384-.3.419-.703.416-.214 0-.43 0-.43-.239v-.814h.423c.238-.003.263.142.28.337l.073-.015a7 7 0 0 1 0-.766h-.073c-.02.178-.075.304-.283.302h-.42v-.93h.488c.355-.002.414.182.43.398l.073-.02a6 6 0 0 1-.007-.499c-.232.001-.577.013-.858.013-.28 0-.625-.012-.834-.013v.073h.033c.122 0 .267.022.268.211v1.8c0 .189-.146.21-.268.21h-.033v.073c.2 0 .593-.013.893-.013s.685.013.905.013m.588-2.018c0-.25-.136-.26-.242-.26h-.061v-.104c.109 0 .32.014.528.014.205 0 .369-.014.55-.014.429 0 .811.117.811.605 0 .308-.204.497-.474.604l.583.879c.096.145.164.186.331.206v.103c-.113 0-.222-.013-.334-.013-.106 0-.215.013-.32.013a10 10 0 0 1-.71-1.113H25.7v.736c0 .264.123.274.28.274h.06v.103c-.194 0-.391-.013-.586-.013-.164 0-.324.013-.494.013v-.103h.061c.127 0 .242-.058.242-.185zm.437.797h.167c.341 0 .525-.13.525-.536 0-.305-.194-.501-.498-.501-.103 0-.146.01-.194.014z"/><path fill="#d1dae6" d="M27.29 15.075c-.115 0-.224-.013-.336-.013-.104 0-.213.013-.332.008a10 10 0 0 1-.706-1.107h-.201v.72c.003.258.106.256.264.26h.076v.132h-.015c-.195 0-.392-.013-.586-.013-.163 0-.323.013-.494.013h-.015v-.133h.076c.123 0 .227-.054.227-.17v-1.745c-.003-.243-.121-.242-.227-.245h-.076v-.134h.015c.11 0 .32.014.528.014.204 0 .368-.014.55-.014.43.001.825.12.826.62 0 .31-.203.503-.467.611l.574.864c.095.143.154.178.32.2l.013.001v.131zm-1.59-1.142h.233l.004.008c.222.394.446.765.697 1.105.104 0 .214-.014.32-.014.11 0 .214.012.32.014v-.076c-.16-.02-.235-.068-.328-.21l-.593-.894.016-.007c.267-.106.465-.29.465-.592 0-.476-.368-.586-.796-.588-.18 0-.344.013-.55.013-.2 0-.402-.012-.514-.013v.072h.047c.106 0 .257.018.257.276v1.745c0 .138-.129.2-.257.201h-.047v.072c.164 0 .32-.013.48-.013.19 0 .383.013.572.014v-.073h-.047c-.156 0-.294-.02-.294-.29v-.75zm0-.094h-.015v-1.052l.013-.001c.046-.004.093-.013.196-.013.31 0 .512.203.513.516-.001.41-.196.55-.54.55zm.167-.03c.337-.003.507-.12.51-.52-.001-.3-.186-.486-.483-.487-.093 0-.136.008-.18.012v.995zm3.738.574.006-.006v-1.288c0-.282-.194-.323-.297-.323h-.074v-.103c.16 0 .317.014.477.014.14 0 .28-.014.42-.014v.103h-.051c-.144 0-.304.028-.304.436v1.563c0 .12.003.24.02.346h-.13l-1.755-1.97v1.414c0 .3.057.402.32.402h.058v.103c-.147 0-.293-.013-.44-.013-.154 0-.31.013-.464.013v-.103h.048c.235 0 .307-.161.307-.436v-1.446a.307.307 0 0 0-.31-.309h-.045v-.103c.13 0 .263.014.392.014.102 0 .201-.014.304-.014z"/><path fill="#d1dae6" d="m29.802 15.127-.14-.005-1.731-1.942v1.376c.004.298.049.383.306.387h.072v.132h-.015c-.147 0-.293-.014-.44-.014-.152 0-.31.014-.463.014h-.015v-.132h.063c.225-.002.29-.147.291-.422v-1.446a.29.29 0 0 0-.294-.294h-.06v-.133h.015c.13 0 .264.014.392.014.1 0 .2-.014.314-.009l1.5 1.7v-1.264c-.002-.273-.183-.306-.283-.308h-.09v-.133h.015c.162 0 .319.014.478.014.14 0 .279-.014.42-.014h.014v.133h-.065c-.141.004-.286.017-.29.422v1.562c0 .12.003.24.02.345l.003.017zm-.13-.03h.113a2.4 2.4 0 0 1-.018-.332v-1.562c0-.412.173-.45.319-.452h.035v-.072c-.133 0-.268.013-.404.013-.157 0-.309-.012-.463-.013v.072h.06c.105.002.312.048.312.338l-.005 1.298-.006.008-.01.01-1.518-1.726c-.102 0-.2.013-.304.013-.126 0-.253-.012-.378-.013v.072h.03c.16.002.325.123.325.324v1.446c0 .275-.077.451-.321.452h-.034v.072c.148 0 .3-.013.45-.013.143 0 .284.013.425.013v-.072h-.043c-.268 0-.336-.119-.336-.418v-1.452zm-.076-.72-.003-.003zm1.09.191c-.035.117-.076.207-.076.268 0 .103.143.12.256.12h.038v.104a8 8 0 0 0-.414-.014 6 6 0 0 0-.368.014v-.104h.02c.134 0 .247-.079.297-.223l.546-1.576c.044-.127.106-.299.127-.426.109-.038.245-.106.31-.148.01-.003.016-.007.027-.007s.017 0 .024.01c.01.028.02.06.031.087l.628 1.796c.04.12.08.247.125.35.041.096.113.137.226.137h.02v.104a10 10 0 0 0-.982 0v-.104h.037c.079 0 .212-.013.212-.1 0-.044-.03-.136-.069-.247l-.133-.398h-.774zm.497-1.521h-.007l-.317.972h.637z"/><path fill="#d1dae6" d="M32.502 15.075q-.227-.012-.47-.014-.25.002-.511.014l-.015.001v-.134h.052c.08 0 .196-.018.196-.084.001-.04-.03-.133-.067-.243l-.13-.388h-.752l-.106.347c-.035.117-.076.208-.075.264 0 .084.128.104.241.104h.053v.135l-.015-.002q-.207-.012-.412-.014-.183.002-.368.014l-.015.001v-.134h.034c.128 0 .234-.073.283-.213l.546-1.576c.045-.127.106-.298.136-.435.107-.037.244-.106.31-.148q.012-.006.032-.008c.008 0 .027.002.038.02l.03.087.629 1.796c.04.12.08.248.125.349.04.092.102.128.212.128h.035v.135zm-.967-.03q.254-.011.498-.013c.158 0 .306.007.455.013v-.072h-.005c-.117 0-.198-.046-.24-.147a5 5 0 0 1-.126-.352l-.627-1.795c-.01-.028-.02-.059-.03-.083q-.003-.005-.005-.004h-.006q-.009.001-.02.005c-.066.043-.202.11-.303.137-.021.13-.083.302-.127.429l-.546 1.576c-.052.15-.171.234-.31.234h-.006v.072q.176-.011.354-.013c.131 0 .266.007.396.013v-.072h-.022c-.11-.002-.266-.014-.27-.135 0-.069.042-.157.076-.273l.015.005-.015-.005.112-.367h.795l.137.408c.038.11.07.201.07.252-.006.105-.15.113-.227.115h-.023zm-.697-1.01.327-1.002h.028l.324 1.002zm.041-.03h.597l-.297-.92zm1.774-1.17c-.256 0-.266.062-.317.312h-.103c.014-.096.031-.192.042-.292a2 2 0 0 0 .02-.291h.082c.027.103.113.1.204.1h1.76c.092 0 .177-.004.184-.107l.082.013q-.02.14-.037.279-.009.138-.007.278l-.103.038c-.006-.127-.023-.33-.252-.33h-.559v1.827c0 .265.12.295.283.295h.065v.103c-.133 0-.372-.013-.556-.013-.205 0-.444.013-.577.013v-.103h.065c.188 0 .284-.017.284-.288v-1.834z"/><path fill="#d1dae6" d="M33.996 15.076c-.133 0-.372-.014-.555-.014-.204 0-.443.014-.577.014h-.015v-.133h.08c.188-.005.263-.007.268-.273v-1.82h-.544v-.03h.574v1.85c0 .275-.11.302-.298.303h-.05v.073c.135-.001.364-.013.562-.013.178 0 .406.012.54.014v-.074h-.05c-.164 0-.297-.04-.297-.31V12.82h.574c.229.001.259.197.266.325l.074-.028q-.002-.135.007-.27.015-.13.035-.263l-.052-.009c-.016.1-.112.106-.197.104h-1.777c-.08.001-.168-.004-.199-.1h-.056q0 .143-.02.279c-.01.094-.026.185-.039.276h.073c.045-.24.075-.317.33-.314v.03c-.253.005-.247.048-.303.302l-.003.011h-.132l.003-.017c.014-.097.031-.192.041-.292q.02-.142.02-.29v-.014h.108l.003.01c.024.087.086.087.174.089h1.777c.094-.002.163-.003.17-.092v-.017l.016.003.097.016-.003.015a7 7 0 0 0-.037.277q-.009.137-.007.276v.011l-.01.004-.12.044-.001-.02c-.009-.129-.022-.316-.238-.316h-.544v1.813c.003.259.105.277.267.28h.08v.133zm.737-.119h.047c.124 0 .252-.017.252-.196v-1.799c0-.179-.128-.196-.252-.196h-.047v-.103c.133 0 .337.014.504.014.171 0 .376-.014.536-.014v.103h-.048c-.123 0-.253.017-.253.196v1.8c0 .178.13.195.253.195h.048v.103c-.164 0-.369-.013-.539-.013-.167 0-.368.013-.501.013z"/><path fill="#d1dae6" d="M35.773 15.075c-.165 0-.369-.014-.539-.014-.167 0-.368.014-.501.014h-.015v-.133h.063c.123-.002.236-.013.236-.18v-1.8c0-.167-.113-.179-.236-.181h-.063v-.133h.015c.133 0 .338.014.504.014.17 0 .375-.014.536-.014h.014v.133h-.062c-.124.002-.236.014-.238.181v1.8c.002.167.114.178.238.18h.063v.133zm-.015-.03v-.073h-.033c-.122 0-.267-.021-.267-.21v-1.8c0-.19.145-.211.267-.211h.033v-.073c-.158.001-.355.013-.521.013-.162 0-.357-.012-.49-.013v.073h.034c.12 0 .266.022.267.211v1.8c-.001.188-.146.21-.267.21h-.033v.073c.131-.002.324-.013.486-.013.165 0 .363.012.524.013m1.375-2.434c.727 0 1.306.454 1.306 1.185 0 .79-.562 1.315-1.288 1.315-.724 0-1.276-.494-1.276-1.232 0-.715.549-1.268 1.258-1.268m.052 2.35c.661 0 .776-.588.776-1.09 0-.501-.268-1.109-.835-1.109-.596 0-.774.536-.774.996 0 .615.28 1.202.833 1.202"/><path fill="#d1dae6" d="M35.86 13.879a1.26 1.26 0 0 1 1.273-1.282v.029c-.7 0-1.244.546-1.244 1.253.002.73.546 1.217 1.262 1.217.719 0 1.273-.518 1.274-1.3 0-.722-.57-1.169-1.292-1.17v-.029c.733 0 1.32.459 1.321 1.199 0 .798-.57 1.329-1.303 1.33-.73-.001-1.29-.5-1.291-1.247m.478-.12c0-.463.18-1.012.789-1.012.579.002.849.62.85 1.125-.001.5-.118 1.103-.792 1.103v-.029c.648-.001.76-.573.762-1.074 0-.498-.266-1.094-.82-1.094-.585 0-.759.523-.76.98 0 .612.278 1.186.818 1.188v.029c-.566-.001-.846-.598-.847-1.217m4.4.625.007-.006v-1.288c0-.282-.195-.323-.297-.323h-.074v-.103c.16 0 .316.014.476.014.14 0 .28-.014.42-.014v.103h-.051c-.143 0-.304.028-.304.436v1.563c0 .12.004.24.02.346h-.129l-1.756-1.97v1.414c0 .3.058.402.32.402h.058v.103c-.146 0-.293-.013-.44-.013-.153 0-.31.013-.464.013v-.103h.048c.236 0 .307-.161.307-.436v-1.446a.306.306 0 0 0-.31-.309h-.045v-.103c.13 0 .263.014.392.014.103 0 .201-.014.304-.014z"/><path fill="#d1dae6" d="m40.936 15.126-.141-.005-1.73-1.942v1.376c.003.299.048.383.304.386h.074v.134h-.015c-.147 0-.294-.014-.44-.014-.153 0-.31.014-.464.014h-.014v-.134h.062c.225 0 .29-.146.292-.42v-1.446a.293.293 0 0 0-.295-.294h-.06v-.133h.015c.13 0 .264.014.392.014.102 0 .2-.014.315-.009l1.499 1.7v-1.264c-.001-.273-.183-.306-.283-.308h-.09v-.132h.016c.16 0 .318.013.477.013.14 0 .279-.014.42-.014h.015v.133h-.066c-.14.004-.286.017-.289.421v1.563c0 .12.003.24.02.345l.002.016zm-.13-.03h.112a2.4 2.4 0 0 1-.017-.331v-1.563c0-.413.172-.45.318-.451h.037v-.073c-.135.001-.27.013-.406.013-.155 0-.308-.012-.462-.013v.073h.06c.105.001.31.048.31.338l-.003 1.298-.006.007-.011.011-1.518-1.727c-.1 0-.2.013-.304.013-.125 0-.253-.012-.377-.013v.073h.03c.16.001.325.123.325.324v1.446c0 .275-.076.45-.322.451h-.033v.073c.148 0 .3-.013.45-.013.142 0 .283.012.425.013v-.072h-.044c-.268 0-.335-.12-.335-.418v-1.453zm-.076-.72-.003-.003zm1.088.192c-.033.117-.074.207-.074.268 0 .103.143.12.255.12h.038v.104a8 8 0 0 0-.413-.014 6 6 0 0 0-.367.014v-.104h.019c.133 0 .247-.079.297-.223l.546-1.576c.044-.127.106-.299.126-.426.11-.038.245-.106.31-.148q.013-.006.028-.007c.01 0 .016 0 .023.01.01.028.021.06.032.087l.627 1.796c.04.12.081.247.126.35.041.096.113.137.225.137h.021v.104a10 10 0 0 0-.983 0v-.104h.038c.078 0 .212-.013.212-.1a1 1 0 0 0-.07-.247l-.132-.398h-.774zm.499-1.521h-.007l-.318.972h.639z"/><path fill="#d1dae6" d="M43.636 15.075c-.154-.006-.307-.014-.47-.014-.166 0-.337.008-.511.014h-.015v-.133h.051c.08 0 .197-.019.198-.085 0-.039-.03-.132-.069-.242l-.13-.389h-.752l-.105.347c-.034.118-.075.208-.074.264 0 .084.127.105.24.105h.052v.134l-.015-.001c-.136-.006-.276-.014-.412-.014-.122 0-.245.008-.367.014h-.015v-.133h.034c.127 0 .234-.074.283-.213l.546-1.576c.044-.128.105-.299.135-.435.107-.038.244-.106.31-.148q.013-.006.033-.007a.04.04 0 0 1 .037.02q.014.042.032.086l.627 1.796c.04.12.081.247.126.35.04.09.102.126.21.127h.036v.134zm-.967-.03q.254-.012.497-.014c.159 0 .307.007.456.013v-.072h-.006c-.116 0-.196-.045-.239-.146-.045-.104-.085-.232-.126-.352l-.628-1.796-.029-.082q-.002-.005-.005-.004h-.006q-.009 0-.02.005c-.066.042-.203.11-.303.137-.022.13-.084.301-.127.428l-.547 1.577c-.051.149-.17.234-.31.233h-.005v.072q.175-.011.353-.013.2.002.398.013v-.072H42c-.11-.001-.266-.013-.27-.135 0-.068.043-.156.075-.272l.014.004-.014-.005.113-.367h.795l.137.408c.038.11.069.202.069.252-.005.106-.149.113-.227.115h-.022zm-.697-1.01.327-1.002h.028l.323 1.001zm.041-.03h.597l-.297-.92zm2.483.719c0 .137.095.178.204.192.14.01.293.01.45-.007a.5.5 0 0 0 .328-.186.8.8 0 0 0 .105-.247h.1c-.038.196-.086.389-.127.584-.3 0-.6-.013-.9-.013s-.6.013-.9.013v-.103h.047c.123 0 .257-.017.257-.23v-1.765c0-.179-.134-.196-.257-.196h-.047v-.103c.18 0 .358.014.538.014.175 0 .345-.014.519-.014v.103h-.086c-.129 0-.23.004-.23.185z"/><path fill="#d1dae6" d="M45.556 15.075c-.3 0-.6-.014-.9-.014s-.6.014-.9.014h-.015v-.133h.062c.123-.003.24-.011.242-.215v-1.766c-.002-.166-.118-.178-.242-.18h-.062v-.133h.014c.181 0 .36.014.54.014.172 0 .343-.014.518-.014h.014v.133h-.1c-.132.004-.214-.003-.217.17v1.773c.001.127.084.162.19.177a3 3 0 0 0 .448-.007.47.47 0 0 0 .318-.179.8.8 0 0 0 .103-.242l.003-.012h.128l-.003.018c-.038.197-.085.389-.127.584l-.002.012zm-.012-.03c.04-.186.084-.368.12-.554h-.07a.8.8 0 0 1-.105.242.5.5 0 0 1-.337.19 2.6 2.6 0 0 1-.454.008c-.11-.013-.218-.06-.218-.207V12.95c0-.19.12-.2.247-.2h.07v-.073c-.167.001-.333.014-.503.014-.176 0-.349-.013-.524-.014v.073h.033c.121 0 .27.021.27.21v1.766c0 .222-.148.245-.27.245h-.033v.073c.295 0 .59-.013.886-.013s.593.013.888.013m.097-2.479c.206 0 .359.16.359.363s-.154.36-.359.36a.353.353 0 0 1-.36-.36c0-.203.154-.363.36-.363m0 .656a.29.29 0 0 0 .284-.293.29.29 0 0 0-.284-.295.29.29 0 0 0-.285.295.29.29 0 0 0 .285.293m-.179-.102V13.1c.044-.006.052-.005.052-.033V12.8c0-.038-.004-.05-.05-.049v-.018h.184c.063 0 .12.03.12.096a.11.11 0 0 1-.084.109l.059.083a.4.4 0 0 0 .08.085v.012h-.07c-.035 0-.064-.072-.13-.167h-.04v.12c0 .024.009.023.053.029v.018zm.121-.19h.043c.046 0 .068-.036.068-.093 0-.058-.034-.078-.07-.078h-.04z"/></svg>