<svg width="46" height="22" viewBox="0 0 46 22" fill="none" xmlns="http://www.w3.org/2000/svg">
<path d="M8.81425 16.9999C12.0721 17.0156 15.0456 14.3252 15.0456 11.0521C15.0456 7.47284 12.0721 4.99881 8.81425 5H6.0105C2.71364 4.99881 0 7.47358 0 11.0521C0 14.3259 2.71364 17.0156 6.0105 16.9999H8.81425Z" fill="#D1DAE6"/>
<path d="M6.02379 5.49609C3.0112 5.49705 0.570015 7.95537 0.569305 10.9894C0.570015 14.0229 3.01118 16.481 6.02379 16.482C9.03708 16.481 11.4788 14.0229 11.4792 10.9894C11.4787 7.95537 9.03708 5.49705 6.02379 5.49609ZM2.56634 10.9894C2.56918 9.50681 3.48894 8.24253 4.78593 7.74013V14.2379C3.48894 13.7358 2.56916 12.4722 2.56634 10.9894ZM7.26117 14.2394V7.73991C8.55863 8.2411 9.47981 9.50609 9.48218 10.9894C9.47981 12.4732 8.55863 13.7372 7.26117 14.2394Z" fill="#0D223A"/>
<path d="M16.9563 7.58328C16.9563 7.01565 16.6623 7.05303 16.3803 7.04686V6.88281C16.6247 6.89496 16.8751 6.89496 17.1199 6.89496C17.3831 6.89496 17.7405 6.88281 18.2045 6.88281C19.8274 6.88281 20.7112 7.97423 20.7112 9.09182C20.7112 9.71682 20.348 11.288 18.1291 11.288C17.8095 11.288 17.5146 11.2756 17.2202 11.2756C16.9383 11.2756 16.6623 11.2818 16.3803 11.288V11.1242C16.7562 11.0861 16.9383 11.0735 16.9562 10.6442L16.9563 7.58328ZM17.5707 10.5435C17.5707 11.0294 17.9158 11.0861 18.2227 11.0861C19.577 11.0861 20.0216 10.0573 20.0216 9.11682C20.0216 7.93707 19.2693 7.08517 18.0598 7.08517C17.8025 7.08517 17.6842 7.10374 17.5707 7.11043L17.5707 10.5435Z" fill="#D1DAE6"/>
<path d="M20.9312 11.1227H21.0499C21.2251 11.1227 21.3507 11.1227 21.3507 10.9139V9.20391C21.3507 8.92656 21.2568 8.88796 21.0248 8.76249V8.6613C21.3193 8.57225 21.6707 8.4532 21.6953 8.43416C21.7395 8.40892 21.7769 8.40225 21.8084 8.40225C21.8394 8.40225 21.8524 8.44035 21.8524 8.49106V10.9139C21.8524 11.1227 21.9902 11.1227 22.1657 11.1227H22.2722V11.2868C22.0588 11.2868 21.8394 11.2742 21.6142 11.2742C21.3886 11.2742 21.1627 11.2804 20.9312 11.2868V11.1227H20.9312ZM21.6016 7.43057C21.4385 7.43057 21.2947 7.27916 21.2947 7.11509C21.2947 6.957 21.4451 6.81152 21.6016 6.81152C21.7641 6.81152 21.9089 6.94464 21.9089 7.11509C21.9089 7.28557 21.7705 7.43057 21.6016 7.43057Z" fill="#D1DAE6"/>
<path d="M22.8676 9.2426C22.8676 9.00927 22.7982 8.94641 22.5043 8.82641V8.70668C22.7737 8.61834 23.0303 8.5362 23.3313 8.40334C23.35 8.40334 23.3685 8.4162 23.3685 8.46644V8.87689C23.7263 8.61834 24.0335 8.40332 24.454 8.40332C24.9861 8.40332 25.1741 8.79472 25.1741 9.28686V10.915C25.1741 11.1238 25.312 11.1238 25.4877 11.1238H25.6006V11.2878C25.3806 11.2878 25.1614 11.2752 24.9362 11.2752C24.7104 11.2752 24.4845 11.2814 24.2591 11.2878V11.1238H24.3717C24.5476 11.1238 24.6723 11.1238 24.6723 10.915V9.28091C24.6723 8.92067 24.454 8.74425 24.0962 8.74425C23.8959 8.74425 23.5761 8.90832 23.3684 9.04734V10.9149C23.3684 11.1238 23.507 11.1238 23.6828 11.1238H23.7953V11.2878C23.5761 11.2878 23.3564 11.2752 23.1308 11.2752C22.9054 11.2752 22.6793 11.2814 22.4539 11.2878V11.1238H22.5669C22.7424 11.1238 22.8675 11.1238 22.8675 10.9149V9.2426H22.8676Z" fill="#D1DAE6"/>
<path d="M26.0771 9.54593C26.0641 9.60286 26.0641 9.69736 26.0771 9.91212C26.114 10.5114 26.4974 11.0036 26.998 11.0036C27.3431 11.0036 27.6132 10.8143 27.8448 10.581L27.9322 10.6695C27.6437 11.0543 27.2866 11.3824 26.7729 11.3824C25.776 11.3824 25.5755 10.4102 25.5755 10.0067C25.5755 8.76951 26.4027 8.40332 26.8412 8.40332C27.3492 8.40332 27.8949 8.72501 27.9008 9.39403C27.9008 9.43236 27.9008 9.46974 27.8949 9.50808L27.8381 9.54593H26.0771ZM27.1868 9.34382C27.3431 9.34382 27.3616 9.26167 27.3616 9.1862C27.3616 8.86427 27.1674 8.60546 26.8162 8.60546C26.4342 8.60546 26.171 8.88903 26.0958 9.34382H27.1868Z" fill="#D1DAE6"/>
<path d="M28.0451 11.1238H28.2144C28.3894 11.1238 28.5147 11.1238 28.5147 10.915V9.14189C28.5147 8.94641 28.2832 8.90832 28.1889 8.85784V8.76356C28.6465 8.56761 28.8974 8.40332 28.9544 8.40332C28.9915 8.40332 29.01 8.42237 29.01 8.4857V9.05355H29.0232C29.1795 8.8076 29.4433 8.40332 29.8252 8.40332C29.982 8.40332 30.1823 8.51046 30.1823 8.73784C30.1823 8.90832 30.0636 9.06022 29.8882 9.06022C29.693 9.06022 29.693 8.90832 29.474 8.90832C29.3674 8.90832 29.0166 9.05355 29.0166 9.43236V10.915C29.0166 11.1238 29.1417 11.1238 29.3174 11.1238H29.6682V11.2879C29.3234 11.2814 29.0611 11.2752 28.791 11.2752C28.5342 11.2752 28.2707 11.2814 28.0451 11.2879L28.0451 11.1238Z" fill="#D1DAE6"/>
<path d="M30.4583 10.4102C30.54 10.8269 30.7904 11.1804 31.2483 11.1804C31.6172 11.1804 31.7553 10.9533 31.7553 10.7324C31.7553 9.9876 30.3892 10.2274 30.3892 9.21141C30.3892 8.85784 30.6716 8.40332 31.3608 8.40332C31.5612 8.40332 31.8305 8.46046 32.0748 8.58689L32.1193 9.23001H31.9748C31.9123 8.83284 31.6931 8.60549 31.2915 8.60549C31.0408 8.60549 30.8029 8.75075 30.8029 9.02191C30.8029 9.76096 32.2569 9.5331 32.2569 10.5238C32.2569 10.9402 31.9246 11.3824 31.1787 11.3824C30.928 11.3824 30.6335 11.294 30.4143 11.1681L30.3453 10.4422L30.4583 10.4102Z" fill="#D1DAE6"/>
<path d="M37.9168 8.02351H37.7604C37.6413 7.28542 37.1209 6.98851 36.4192 6.98851C35.6979 6.98851 34.6511 7.4742 34.6511 8.98874C34.6511 10.2644 35.5543 11.1792 36.5193 11.1792C37.1396 11.1792 37.654 10.7501 37.7794 10.0873L37.9231 10.1249L37.7794 11.0463C37.5161 11.2108 36.8078 11.3811 36.3937 11.3811C34.9274 11.3811 34 10.428 34 9.00802C34 7.71422 35.1468 6.78613 36.3752 6.78613C36.8828 6.78613 37.3716 6.95089 37.8543 7.12137L37.9168 8.02351Z" fill="#D1DAE6"/>
<path d="M38.1429 11.1239H38.2616C38.4373 11.1239 38.5631 11.1239 38.5631 10.9151V7.40036C38.5631 6.98989 38.469 6.97725 38.2306 6.90796V6.80701C38.4813 6.72513 38.7445 6.6113 38.8763 6.53537C38.9446 6.49775 38.9952 6.46582 39.0136 6.46582C39.052 6.46582 39.0645 6.50394 39.0645 6.55463V10.9151C39.0645 11.1239 39.2021 11.1239 39.3779 11.1239H39.4836V11.288C39.2714 11.288 39.052 11.2753 38.8261 11.2753C38.6007 11.2753 38.3751 11.2816 38.1428 11.288V11.1239H38.1429Z" fill="#D1DAE6"/>
<path d="M42.1674 10.94C42.1674 11.0541 42.236 11.0602 42.3424 11.0602C42.4178 11.0602 42.5115 11.0541 42.5933 11.0541V11.1869C42.3235 11.2119 41.8096 11.3445 41.6903 11.3821L41.6589 11.3631V10.8524C41.2833 11.1614 40.9945 11.3821 40.5492 11.3821C40.2108 11.3821 39.8599 11.1614 39.8599 10.6317V9.01547C39.8599 8.85143 39.835 8.69355 39.4845 8.66214V8.54214C39.7104 8.53595 40.2108 8.49807 40.2926 8.49807C40.3622 8.49807 40.3622 8.54214 40.3622 8.68095V10.3088C40.3622 10.4986 40.3622 11.0412 40.9071 11.0412C41.1202 11.0412 41.4021 10.8771 41.6651 10.6569V8.95831C41.6651 8.83259 41.3645 8.76331 41.1393 8.69995V8.58638C41.7027 8.54828 42.0543 8.49805 42.1166 8.49805C42.1674 8.49805 42.1674 8.54209 42.1674 8.61186L42.1674 10.94Z" fill="#D1DAE6"/>
<path d="M43.4146 8.85797C43.6651 8.64343 44.0034 8.40345 44.3485 8.40345C45.0758 8.40345 45.514 9.04154 45.514 9.7289C45.514 10.5556 44.9126 11.3825 44.0157 11.3825C43.5522 11.3825 43.3079 11.2308 43.1447 11.1617L42.9569 11.3065L42.8257 11.2375C42.8813 10.8651 42.9132 10.4989 42.9132 10.1141V7.40034C42.9132 6.98989 42.8186 6.97725 42.5806 6.90796V6.80701C42.832 6.72513 43.0945 6.6113 43.2263 6.53534C43.2954 6.49772 43.3452 6.46582 43.3646 6.46582C43.402 6.46582 43.4145 6.50394 43.4145 6.55463V8.85795H43.4146V8.85797ZM43.4146 10.5744C43.4146 10.8144 43.64 11.2187 44.06 11.2187C44.7307 11.2187 45.0126 10.5556 45.0126 9.99371C45.0126 9.31228 44.4992 8.74443 44.0101 8.74443C43.7776 8.74443 43.5836 8.89609 43.4146 9.04154L43.4146 10.5744Z" fill="#D1DAE6"/>
<path d="M16.3732 14.9566H16.4212C16.5437 14.9566 16.6733 14.94 16.6733 14.7612V12.9621C16.6733 12.7831 16.5437 12.7662 16.4212 12.7662H16.3732V12.6631C16.5063 12.6631 16.7109 12.6767 16.8786 12.6767C17.0489 12.6767 17.2532 12.6631 17.4135 12.6631V12.7662H17.3655C17.2433 12.7662 17.1134 12.7831 17.1134 12.9621V14.7612C17.1134 14.94 17.2433 14.9566 17.3655 14.9566H17.4135V15.0602C17.2499 15.0602 17.0448 15.0467 16.8748 15.0467C16.7076 15.0467 16.5063 15.0602 16.3732 15.0602V14.9566Z" fill="#D1DAE6"/>
<path d="M17.4135 15.0744C17.2487 15.0744 17.0444 15.0606 16.8745 15.0606C16.7078 15.0606 16.5073 15.0744 16.3731 15.0744H16.3585V15.0596V14.9565V14.9415H16.3731H16.4209C16.5446 14.9387 16.6572 14.9287 16.6584 14.7608V12.9617C16.6572 12.7939 16.5446 12.7827 16.4209 12.7803H16.3585V12.7658V12.6475H16.3731C16.5073 12.6475 16.7116 12.661 16.8783 12.661C17.0481 12.661 17.2523 12.6475 17.4135 12.6475H17.4287V12.6632V12.7803H17.4135H17.3657C17.2421 12.7827 17.1288 12.7939 17.1281 12.9617V14.7608C17.1288 14.9287 17.242 14.9387 17.3657 14.9415H17.4287V14.9565V15.0744H17.4135ZM17.3989 15.0451V14.9717H17.3658C17.244 14.9717 17.099 14.9505 17.0983 14.7608V12.9617C17.099 12.772 17.244 12.7506 17.3658 12.7506H17.3989V12.6777C17.2413 12.6777 17.0439 12.691 16.8783 12.691C16.7163 12.691 16.5202 12.6787 16.3883 12.6777V12.7506H16.4209C16.5425 12.7506 16.6879 12.772 16.6879 12.9617V14.7608C16.6879 14.9506 16.5425 14.9717 16.4209 14.9717H16.3883V15.0451C16.5202 15.0436 16.713 15.0313 16.8745 15.0313C17.0406 15.0313 17.238 15.0441 17.3989 15.0451Z" fill="#D1DAE6"/>
<path d="M19.7567 14.3833L19.7636 14.3767V13.0891C19.7636 12.8072 19.569 12.7662 19.4668 12.7662H19.3916V12.6631C19.5521 12.6631 19.7089 12.6767 19.8691 12.6767C20.0088 12.6767 20.1493 12.6631 20.2889 12.6631V12.7662H20.2378C20.0942 12.7662 19.9339 12.7936 19.9339 13.2022V14.765C19.9339 14.885 19.9374 15.005 19.9542 15.1115H19.8244L18.0683 13.1403V14.5553C18.0683 14.8541 18.1258 14.9567 18.3888 14.9567H18.4465V15.0603C18.3001 15.0603 18.1537 15.0467 18.0068 15.0467C17.8538 15.0467 17.6968 15.0603 17.543 15.0603V14.9567H17.5908C17.8261 14.9567 17.8976 14.7957 17.8976 14.5212V13.0748C17.8976 12.8827 17.7403 12.7662 17.5875 12.7662H17.5431V12.6631C17.6726 12.6631 17.8056 12.6767 17.935 12.6767C18.0373 12.6767 18.1365 12.6631 18.2386 12.6631L19.7567 14.3833Z" fill="#D1DAE6"/>
<path d="M19.9539 15.1265L19.8132 15.1213L18.0824 13.1791V14.5553C18.0864 14.8539 18.1316 14.9387 18.3884 14.942H18.4615V14.9568V15.0749H18.4464C18.2988 15.0749 18.1519 15.061 18.0065 15.061C17.8537 15.061 17.6971 15.0749 17.5424 15.0749H17.5275V15.0601V14.942H17.5424H17.5905C17.8158 14.9408 17.8802 14.7951 17.8828 14.5213V13.0751C17.8823 12.8922 17.7333 12.7813 17.5871 12.7808H17.5275V12.7656V12.6484H17.5424C17.6728 12.6484 17.8064 12.6615 17.9343 12.6615C18.0358 12.6615 18.1347 12.6484 18.2496 12.6534L19.7485 14.3523V13.0894C19.7466 12.8161 19.5657 12.7832 19.4664 12.7808H19.376V12.7656V12.6484H19.3912C19.5523 12.6484 19.7093 12.6615 19.8687 12.6615C20.0075 12.6615 20.1473 12.6484 20.2882 12.6484H20.3031V12.6632V12.7808H20.2882H20.2374C20.0967 12.7849 19.9522 12.7972 19.9482 13.2022V14.7648C19.9482 14.8848 19.9517 15.0048 19.9683 15.1089L19.9716 15.1265H19.9539V15.1265ZM19.8243 15.0963H19.9371C19.9217 14.9932 19.9191 14.8789 19.9191 14.7648V13.2022C19.9191 12.7901 20.0906 12.7511 20.2375 12.7511H20.2734V12.6782C20.1391 12.6791 20.0043 12.6915 19.8688 12.6915C19.7127 12.6915 19.5608 12.6791 19.4064 12.6782L19.4062 12.7511H19.4665C19.5712 12.7511 19.7782 12.7982 19.7782 13.0894L19.7735 14.387L19.7666 14.3941L19.755 14.4049L18.2383 12.6782C18.1371 12.6782 18.0382 12.6915 17.9344 12.6915C17.8093 12.6915 17.6813 12.6791 17.5577 12.6782L17.5569 12.751H17.5872C17.7473 12.751 17.9117 12.8741 17.9117 13.0751V14.5213C17.9117 14.7958 17.8358 14.9715 17.5905 14.9724L17.5577 14.9715V15.0455C17.7055 15.0441 17.8573 15.0317 18.0065 15.0317C18.1489 15.0317 18.2906 15.0441 18.4315 15.0455V14.9724H18.3885C18.12 14.9715 18.0534 14.8539 18.0531 14.5553V13.1017L19.8243 15.0963ZM19.7486 14.3765V14.3753L19.7457 14.3729L19.7486 14.3765Z" fill="#D1DAE6"/>
<path d="M20.7992 12.8347C20.5431 12.8347 20.5334 12.8966 20.4823 13.1471H20.3799C20.3934 13.0511 20.4104 12.9552 20.4208 12.8552C20.4345 12.759 20.4412 12.6633 20.4412 12.5638H20.5232C20.5507 12.6669 20.6358 12.6633 20.7283 12.6633H22.4876C22.5799 12.6633 22.665 12.6599 22.6721 12.5566L22.7535 12.5704C22.7402 12.6633 22.7265 12.7559 22.7161 12.8488C22.7099 12.9414 22.7099 13.0342 22.7099 13.1266L22.6073 13.1649C22.6002 13.038 22.5832 12.8347 22.3549 12.8347H21.7956V14.6618C21.7956 14.9266 21.9151 14.9569 22.0782 14.9569H22.1433V15.0604C22.0104 15.0604 21.7713 15.0469 21.5875 15.0469C21.3829 15.0469 21.1438 15.0604 21.0107 15.0604V14.9569H21.0757C21.2637 14.9569 21.3588 14.9399 21.3588 14.669V12.8347H20.7992Z" fill="#D1DAE6"/>
<path d="M22.1438 15.0738C22.0095 15.0738 21.7709 15.06 21.5876 15.06C21.3832 15.06 21.1446 15.0738 21.0107 15.0738H20.9965V15.0593V14.941H21.0107H21.0758C21.2638 14.9365 21.3394 14.9341 21.3437 14.6679V12.8486H20.7993V12.8336V12.8183H21.3733V14.6679C21.3733 14.9433 21.2631 14.9712 21.0758 14.9714H21.0257V15.0438C21.1602 15.0431 21.3896 15.0307 21.5876 15.0307C21.7655 15.0307 21.9934 15.0431 22.1282 15.0438V14.9714H22.0783C21.9135 14.9712 21.7808 14.9305 21.7808 14.6607V12.8183H22.355C22.584 12.8193 22.6138 13.0152 22.6213 13.1426L22.6949 13.1152C22.6949 13.0257 22.6954 12.936 22.7015 12.8455C22.7114 12.7572 22.724 12.6695 22.7368 12.5819L22.6847 12.5731C22.6689 12.6731 22.5731 12.6781 22.4872 12.6772H20.7283H20.7106C20.6304 12.6772 20.5427 12.6733 20.5122 12.5774H20.4559C20.4554 12.6724 20.4488 12.7646 20.4358 12.856C20.4258 12.9503 20.4102 13.041 20.3975 13.1317H20.4706C20.5155 12.8924 20.5448 12.8148 20.7993 12.8184V12.8336V12.8486C20.5472 12.8531 20.5524 12.896 20.4968 13.1498L20.4942 13.1615H20.4824H20.3629L20.3648 13.1436C20.3786 13.0474 20.3958 12.9517 20.406 12.8517C20.4202 12.7564 20.4268 12.6612 20.4268 12.5626V12.5476H20.4412H20.5349L20.5372 12.5583C20.5607 12.645 20.6238 12.6455 20.7106 12.6469H20.7283H22.4872C22.5823 12.6455 22.6514 12.6441 22.6573 12.5543L22.6587 12.5381L22.6741 12.5414L22.7703 12.5567L22.7682 12.5717C22.7544 12.6636 22.741 12.7564 22.7311 12.8486C22.7242 12.94 22.7242 13.0329 22.7242 13.1255V13.1362L22.7147 13.14L22.5939 13.1843L22.593 13.1643C22.584 13.0352 22.5705 12.8486 22.355 12.8486H21.8106V14.6607C21.8137 14.9197 21.9158 14.9376 22.0783 14.9409H22.1582V14.9557V15.0738L22.1438 15.0738Z" fill="#D1DAE6"/>
<path d="M22.8626 14.9566H22.9106C23.0332 14.9566 23.163 14.94 23.163 14.7612V12.9621C23.163 12.7831 23.0332 12.7662 22.9106 12.7662H22.8626V12.6631C23.0703 12.6631 23.4255 12.6767 23.7114 12.6767C23.9986 12.6767 24.3526 12.6631 24.5843 12.6631C24.5787 12.8105 24.5818 13.0376 24.5919 13.1883L24.489 13.2159C24.4727 12.9929 24.4318 12.8145 24.0735 12.8145H23.5998V13.7138H24.0052C24.2097 13.7138 24.2544 13.5974 24.2746 13.4115H24.3767C24.3701 13.546 24.3666 13.6798 24.3666 13.8136C24.3666 13.9443 24.3701 14.0746 24.3767 14.205L24.2746 14.2255C24.2544 14.0196 24.2441 13.8857 24.0085 13.8857H23.5998V14.6855C23.5998 14.909 23.7968 14.909 24.0154 14.909C24.4247 14.909 24.6052 14.8812 24.7076 14.4902L24.8032 14.5138C24.7585 14.6962 24.7178 14.8779 24.6875 15.0602C24.469 15.0602 24.0766 15.0467 23.7701 15.0467C23.4626 15.0467 23.0571 15.0602 22.8626 15.0602V14.9566Z" fill="#D1DAE6"/>
<path d="M24.6872 15.0749C24.4682 15.0749 24.0761 15.0608 23.7698 15.0608C23.4626 15.0608 23.0572 15.0749 22.8626 15.0749H22.8482V15.0603V14.9568V14.942H22.8626H22.9104C23.0341 14.9401 23.1462 14.9291 23.1478 14.7613V12.9622C23.1462 12.7946 23.0341 12.7834 22.9104 12.7808H22.8482V12.7663V12.6484H22.8626C23.0707 12.6484 23.4255 12.6615 23.7114 12.6615C23.9983 12.6615 24.3521 12.6484 24.5843 12.6484H24.5997L24.599 12.6637C24.5966 12.7153 24.5957 12.7763 24.5957 12.8411C24.5957 12.9598 24.599 13.0896 24.6059 13.1875L24.6063 13.1999L24.595 13.2032L24.4751 13.2346L24.4744 13.217C24.4543 12.9942 24.4247 12.8325 24.0735 12.8292H23.614L23.6135 13.6985H24.0052C24.2015 13.6966 24.2367 13.5954 24.2599 13.4104L24.2611 13.3968H24.2743H24.3919L24.3917 13.4122C24.3851 13.5461 24.3808 13.6799 24.3808 13.8137C24.3808 13.9437 24.3851 14.0739 24.3917 14.2046L24.3919 14.2168L24.3796 14.2196L24.2611 14.2434L24.2599 14.2272C24.2365 14.0177 24.2348 13.903 24.0082 13.9004L23.614 13.9001V14.6856C23.6143 14.8941 23.793 14.8929 24.0154 14.8941C24.4259 14.8918 24.5905 14.8718 24.6934 14.486L24.6967 14.4722L24.7112 14.4749L24.8204 14.5032L24.8171 14.5175C24.7731 14.6994 24.7322 14.8808 24.7017 15.0627L24.6989 15.0749H24.6872ZM24.6747 15.0449C24.7043 14.8717 24.7432 14.6979 24.7852 14.5251L24.7178 14.5079C24.6156 14.8922 24.4178 14.9265 24.0153 14.9239C23.8006 14.9239 23.5853 14.9239 23.5844 14.6855V13.8708H24.0082C24.2464 13.8682 24.2708 14.0129 24.2875 14.2084L24.3613 14.193C24.3547 14.0665 24.3516 13.9396 24.3516 13.8136C24.3516 13.6844 24.3547 13.5558 24.3613 13.4265H24.2875C24.2686 13.6053 24.213 13.731 24.0052 13.7286H23.5844V12.7991H24.0735C24.4283 12.7967 24.4871 12.981 24.5023 13.197L24.5759 13.177C24.57 13.0801 24.5659 12.9558 24.5659 12.841C24.5659 12.7822 24.5673 12.7267 24.5692 12.6782C24.3375 12.6791 23.9922 12.6915 23.7114 12.6915C23.4312 12.6915 23.0861 12.6791 22.8773 12.6782V12.751H22.9104C23.0319 12.751 23.1772 12.7725 23.1776 12.9622V14.7613C23.1771 14.9506 23.0319 14.9715 22.9104 14.9725H22.8773V15.0449C23.0762 15.0446 23.4702 15.0318 23.7698 15.0318C24.0707 15.0318 24.4547 15.0446 24.6747 15.0449Z" fill="#D1DAE6"/>
<path d="M25.2634 13.0271C25.2634 12.7767 25.1272 12.7664 25.021 12.7664H24.9597V12.6631C25.069 12.6631 25.2802 12.6769 25.4883 12.6769C25.6929 12.6769 25.8568 12.6631 26.0372 12.6631C26.4667 12.6631 26.8492 12.78 26.8492 13.2681C26.8492 13.5764 26.6446 13.7655 26.3752 13.8724L26.9582 14.7509C27.0537 14.8962 27.1216 14.9369 27.289 14.9569V15.0605C27.1765 15.0605 27.0672 15.0469 26.9548 15.0469C26.8491 15.0469 26.7396 15.0605 26.6344 15.0605C26.3718 14.7136 26.1462 14.3426 25.9246 13.9474H25.7002V14.6826C25.7002 14.9474 25.8225 14.9569 25.9793 14.9569H26.0408V15.0605C25.8459 15.0605 25.6489 15.0469 25.4542 15.0469C25.2903 15.0469 25.13 15.0605 24.9597 15.0605V14.9569H25.021C25.1477 14.9569 25.2634 14.8993 25.2634 14.7719V13.0271ZM25.7002 13.8238H25.8667C26.208 13.8238 26.3917 13.6933 26.3917 13.2881C26.3917 12.9828 26.1976 12.7869 25.8936 12.7869C25.7912 12.7869 25.7477 12.7976 25.7001 12.8007V13.8238H25.7002Z" fill="#D1DAE6"/>
<path d="M27.2891 15.0753C27.1748 15.0753 27.0663 15.0615 26.9542 15.0615C26.8501 15.0615 26.7413 15.0753 26.6224 15.0696C26.3608 14.7241 26.1366 14.3553 25.9162 13.9629H25.7147V14.6824C25.7182 14.9408 25.8213 14.9386 25.9791 14.9424H26.0555V14.9572V15.0753H26.0403C25.8454 15.0753 25.6475 15.0615 25.4538 15.0615C25.2908 15.0615 25.131 15.0753 24.9597 15.0753H24.9448V15.0605V14.9424H24.9597H25.021C25.1439 14.9417 25.2476 14.8879 25.248 14.7722V13.0275C25.2455 12.7837 25.127 12.7851 25.021 12.7815H24.9448V12.7668V12.6484H24.9597C25.0702 12.6484 25.2807 12.662 25.4883 12.662C25.6919 12.662 25.8559 12.6484 26.0375 12.6484C26.4672 12.6494 26.8631 12.7689 26.8643 13.2675C26.8643 13.5777 26.6607 13.7713 26.3974 13.8794L26.9705 14.7432C27.0658 14.8855 27.1252 14.921 27.2912 14.9424L27.3037 14.9444V14.9572V15.0753H27.2891V15.0753ZM25.6998 13.9329H25.933L25.937 13.9405C26.1593 14.335 26.3832 14.7055 26.6344 15.046C26.7385 15.046 26.848 15.0319 26.9542 15.0319C27.0632 15.0319 27.1682 15.0438 27.2744 15.0455V14.9703C27.1143 14.9503 27.0393 14.9022 26.9462 14.7595L26.3528 13.8655L26.3695 13.8586C26.6363 13.7529 26.8338 13.5693 26.834 13.2674C26.8338 12.791 26.4663 12.6805 26.0375 12.6786C25.8575 12.6786 25.6938 12.6922 25.4883 12.6922C25.288 12.6922 25.0858 12.6796 24.9742 12.6786V12.7515H25.021C25.1269 12.7517 25.2778 12.7693 25.2778 13.0274V14.7722C25.2778 14.91 25.1494 14.9729 25.021 14.9731H24.9742V15.0455C25.1383 15.045 25.2937 15.0319 25.4538 15.0319C25.6446 15.0319 25.8369 15.045 26.0257 15.0455V14.9731H25.9791C25.8234 14.9729 25.6849 14.9534 25.6849 14.6824V13.9329H25.6998H25.6998ZM25.6998 13.8386H25.6849V12.7872L25.6979 12.786C25.7445 12.7824 25.7906 12.7727 25.8937 12.7727C26.2045 12.7727 26.4064 12.976 26.4069 13.2891C26.406 13.699 26.2106 13.8383 25.8667 13.8386H25.6998V13.8386ZM25.8667 13.8091C26.2044 13.8062 26.3743 13.6881 26.3778 13.2891C26.3759 12.9891 26.1908 12.8029 25.8937 12.8017C25.8014 12.8017 25.7582 12.8103 25.7147 12.8141V13.8091H25.8667Z" fill="#D1DAE6"/>
<path d="M29.6047 14.3833L29.6108 14.3767V13.0891C29.6108 12.8072 29.4167 12.7662 29.3145 12.7662H29.2398V12.6631C29.3999 12.6631 29.5565 12.6767 29.717 12.6767C29.857 12.6767 29.9964 12.6631 30.1371 12.6631V12.7662H30.0857C29.9424 12.7662 29.7821 12.7936 29.7821 13.2022V14.765C29.7821 14.885 29.7854 15.005 29.8022 15.1115H29.6728L27.9166 13.1403V14.5553C27.9166 14.8541 27.9745 14.9567 28.237 14.9567H28.295V15.0603C28.1485 15.0603 28.0017 15.0467 27.8553 15.0467C27.7013 15.0467 27.5445 15.0603 27.3913 15.0603V14.9567H27.4386C27.6741 14.9567 27.7458 14.7957 27.7458 14.5212V13.0748C27.7458 12.8827 27.5889 12.7662 27.4357 12.7662H27.3913V12.6631C27.5204 12.6631 27.654 12.6767 27.7834 12.6767C27.8851 12.6767 27.9844 12.6631 28.0868 12.6631L29.6047 14.3833Z" fill="#D1DAE6"/>
<path d="M29.8024 15.1267L29.6619 15.122L27.931 13.1796V14.5556C27.935 14.8544 27.9799 14.9391 28.2372 14.9425H28.3094V14.9572V15.0753H28.2944C28.1469 15.0753 28.0007 15.0613 27.8545 15.0613C27.7023 15.0613 27.5447 15.0753 27.3912 15.0753H27.3759V15.0608V14.9425H27.3912H27.4385C27.6637 14.9415 27.7282 14.7956 27.7304 14.5208V13.0753C27.7301 12.8925 27.5814 12.7815 27.4357 12.7813H27.3759V12.7668V12.6484H27.3912C27.5213 12.6484 27.6547 12.662 27.7833 12.662C27.8836 12.662 27.9825 12.6484 28.097 12.6532L29.5962 14.3527V13.0894C29.5952 12.8165 29.4136 12.7827 29.3145 12.7813H29.2244V12.7668V12.6484H29.2393C29.4006 12.6484 29.5576 12.662 29.717 12.662C29.8561 12.662 29.9959 12.6484 30.1363 12.6484H30.1512V12.6639V12.7813H30.1363H30.0857C29.945 12.7851 29.8 12.7977 29.7964 13.2027V14.7653C29.7964 14.8853 29.7995 15.0044 29.8168 15.1101L29.8187 15.1267H29.8024ZM29.6728 15.0967H29.7849C29.77 14.9936 29.7666 14.8794 29.7666 14.7653V13.2027C29.7669 12.7905 29.9396 12.7525 30.0857 12.7513H30.1214V12.6787C29.9875 12.6796 29.8525 12.692 29.717 12.692C29.5604 12.692 29.4083 12.6796 29.2539 12.6787V12.7513H29.3145C29.4195 12.7525 29.6262 12.7987 29.6262 13.0894L29.6215 14.3875L29.6148 14.3946L29.6044 14.4055L28.0866 12.6787C27.9853 12.6787 27.8865 12.692 27.7834 12.692C27.6571 12.692 27.5296 12.6796 27.4054 12.6787V12.7513H27.4357C27.5958 12.7525 27.7602 12.8742 27.7602 13.0753V14.5208C27.7602 14.7965 27.6831 14.972 27.4386 14.9729L27.4054 14.9727V15.0453C27.5528 15.0446 27.7049 15.0322 27.8546 15.0322C27.9977 15.0322 28.1393 15.0446 28.2803 15.0453V14.9729H28.2372C27.9686 14.9727 27.9014 14.8544 27.9009 14.5555V13.1027L29.6728 15.0967ZM29.5961 14.3772V14.376L29.5935 14.3734L29.5961 14.3772Z" fill="#D1DAE6"/>
<path d="M30.6855 14.5683C30.651 14.6847 30.6098 14.7747 30.6098 14.8359C30.6098 14.9393 30.7534 14.9559 30.8655 14.9559H30.9035V15.0595C30.7669 15.0521 30.6275 15.0459 30.4901 15.0459C30.3674 15.0459 30.2453 15.0521 30.1224 15.0595V14.9559H30.1429C30.2758 14.9559 30.3887 14.8771 30.439 14.7326L30.9854 13.1569C31.0294 13.0297 31.0913 12.8581 31.1119 12.7307C31.2205 12.6933 31.3572 12.6247 31.4218 12.5833C31.4324 12.5798 31.4383 12.5762 31.449 12.5762C31.4591 12.5762 31.4657 12.5762 31.4733 12.5869C31.4832 12.614 31.4932 12.6452 31.5041 12.6726L32.1315 14.4688C32.1724 14.5888 32.2128 14.7157 32.2571 14.819C32.2982 14.9152 32.3701 14.9559 32.4829 14.9559H32.503V15.0595C32.3496 15.0521 32.1959 15.0459 32.0327 15.0459C31.8654 15.0459 31.6944 15.0521 31.5206 15.0595V14.9559H31.5585C31.6365 14.9559 31.7699 14.9426 31.7699 14.8566C31.7699 14.8121 31.7392 14.7195 31.7011 14.6093L31.5684 14.2109H30.7943L30.6855 14.5683ZM31.1831 13.0469H31.1762L30.8591 14.0188H31.4965L31.1831 13.0469Z" fill="#D1DAE6"/>
<path d="M32.5021 15.0753C32.3486 15.0684 32.1951 15.0613 32.0326 15.0613C31.8654 15.0613 31.6956 15.0684 31.521 15.0753L31.5056 15.0763V15.0608V14.942H31.5206H31.5582C31.6372 14.942 31.7544 14.9239 31.7544 14.858C31.7554 14.8189 31.7246 14.7246 31.687 14.6154L31.5572 14.227H30.8049L30.699 14.5739C30.6644 14.6911 30.6235 14.7818 30.6237 14.8377C30.6249 14.9216 30.7524 14.942 30.8654 14.942H30.918V14.9575V15.0763L30.9026 15.0753C30.7661 15.0684 30.6268 15.0613 30.4908 15.0613C30.3686 15.0613 30.2456 15.0684 30.1233 15.0753L30.1075 15.0763V15.0608V14.942H30.1224H30.1427C30.2697 14.9415 30.3757 14.8689 30.4249 14.7292L30.971 13.1532C31.0157 13.0258 31.0771 12.8547 31.1067 12.7178C31.2136 12.6813 31.3505 12.6123 31.4163 12.5704C31.4258 12.5673 31.4352 12.5625 31.4492 12.5625C31.4575 12.5623 31.4759 12.5644 31.4868 12.5825C31.4965 12.6108 31.5071 12.6413 31.5175 12.6692L32.1457 14.4652C32.1859 14.5856 32.2266 14.7126 32.2711 14.814C32.3106 14.9056 32.3732 14.9416 32.4829 14.9421H32.5177V14.9575V15.0763L32.5021 15.0753ZM31.5354 15.0446C31.7043 15.0387 31.8696 15.032 32.0326 15.032C32.191 15.032 32.3393 15.0387 32.4876 15.0446V14.9729H32.4829C32.3661 14.9736 32.2854 14.9275 32.2435 14.8263C32.1991 14.722 32.1574 14.5946 32.1175 14.4744L31.4896 12.6787C31.4792 12.6513 31.4692 12.6201 31.4602 12.5958C31.4574 12.5925 31.4581 12.5925 31.4553 12.5925H31.4491C31.442 12.5925 31.438 12.5946 31.4292 12.597C31.3635 12.6401 31.2266 12.7075 31.1256 12.7344C31.1045 12.8644 31.0433 13.0358 30.9988 13.163L30.453 14.7391C30.401 14.8882 30.2815 14.9732 30.1427 14.9729H30.1373V15.0446C30.2541 15.0387 30.3723 15.032 30.4908 15.032C30.6225 15.032 30.7573 15.0387 30.8874 15.0446V14.9729H30.8654C30.7545 14.9715 30.5994 14.9589 30.5951 14.8377C30.5953 14.7691 30.6372 14.6813 30.6705 14.5653L30.6855 14.5698L30.6705 14.5648L30.7829 14.1977H31.578L31.7149 14.6058C31.7533 14.7161 31.7842 14.8075 31.7842 14.858C31.7795 14.9634 31.6355 14.9708 31.5581 14.973H31.5354L31.5354 15.0446ZM30.8383 14.0348L31.1648 13.0332H31.1762H31.1833H31.1935L31.5172 14.0348H30.8383ZM30.8791 14.0051H31.4761L31.1792 13.0848L30.8791 14.0051Z" fill="#D1DAE6"/>
<path d="M32.653 12.8347C32.3971 12.8347 32.387 12.8966 32.3356 13.1471H32.2332C32.2467 13.0511 32.264 12.9552 32.2746 12.8552C32.2883 12.759 32.2945 12.6633 32.2945 12.5638H32.3768C32.404 12.6669 32.4896 12.6633 32.5811 12.6633H34.3414C34.433 12.6633 34.5181 12.6599 34.5252 12.5566L34.6068 12.5704C34.5938 12.6633 34.5803 12.7559 34.5699 12.8488C34.5626 12.9414 34.5626 13.0342 34.5626 13.1266L34.4604 13.1649C34.454 13.038 34.437 12.8347 34.2083 12.8347H33.649V14.6618C33.649 14.9266 33.7687 14.9569 33.9318 14.9569H33.9966V15.0604C33.8637 15.0604 33.6253 15.0469 33.4408 15.0469C33.2365 15.0469 32.9974 15.0604 32.8645 15.0604V14.9569H32.929C33.117 14.9569 33.2126 14.9399 33.2126 14.669V12.8347H32.653Z" fill="#D1DAE6"/>
<path d="M33.9964 15.0758C33.8626 15.0758 33.6237 15.062 33.4407 15.062C33.2368 15.062 32.9979 15.0758 32.8643 15.0758H32.8492V15.0612V14.9429H32.8643H32.9288C33.1168 14.9384 33.1923 14.936 33.197 14.6698L33.1966 12.8505H32.6528V12.8355V12.8203H33.2266V14.6698C33.2266 14.9453 33.1162 14.9724 32.9288 14.9731H32.8787V15.0465C33.0138 15.045 33.2427 15.0326 33.4407 15.0326C33.6187 15.0326 33.8467 15.045 33.9815 15.0465V14.9731H33.9312C33.7672 14.9724 33.6343 14.9326 33.6339 14.6626V12.8203H34.2081C34.437 12.8212 34.467 13.0172 34.4735 13.1446L34.548 13.1172C34.548 13.0277 34.5482 12.9379 34.5548 12.8479C34.5643 12.7596 34.577 12.6715 34.5896 12.5838L34.538 12.575C34.5224 12.675 34.4262 12.6805 34.3413 12.6791H32.5809H32.5637C32.4833 12.68 32.3962 12.6753 32.3652 12.5788H32.3094C32.3085 12.6741 32.3021 12.7665 32.2886 12.8579C32.2796 12.9524 32.2628 13.0434 32.2501 13.1336H32.3232C32.3683 12.8943 32.3979 12.8167 32.6528 12.8203V12.8355L32.6528 12.8505C32.4 12.8548 32.4057 12.8979 32.3498 13.1517L32.3473 13.1634H32.3354H32.2157L32.2179 13.1462C32.2321 13.0493 32.2491 12.9536 32.259 12.8543C32.273 12.7583 32.2796 12.6631 32.2796 12.5645V12.5495H32.2943H32.3874L32.3903 12.5603C32.4142 12.6469 32.4763 12.6474 32.5636 12.6488L32.5809 12.6493H34.3412C34.4354 12.6474 34.5042 12.646 34.5101 12.5565L34.511 12.54L34.5271 12.5434L34.6238 12.5586L34.6213 12.5736C34.6073 12.6655 34.5943 12.7584 34.5839 12.8505C34.577 12.942 34.577 13.0351 34.577 13.1274V13.1382L34.5674 13.142L34.4465 13.1863L34.4458 13.1662C34.437 13.0372 34.4236 12.8505 34.2081 12.8505H33.6635V14.6626C33.667 14.9217 33.7689 14.9395 33.9312 14.9429H34.0111V14.9576V15.0757L33.9964 15.0758Z" fill="#D1DAE6"/>
<path d="M34.7326 14.9566H34.7804C34.9036 14.9566 35.0325 14.94 35.0325 14.7612V12.9621C35.0325 12.7831 34.9036 12.7662 34.7804 12.7662H34.7326V12.6631C34.8658 12.6631 35.0701 12.6767 35.2369 12.6767C35.4081 12.6767 35.6127 12.6631 35.773 12.6631V12.7662H35.7252C35.6025 12.7662 35.4724 12.7831 35.4724 12.9621V14.7612C35.4724 14.94 35.6025 14.9566 35.7252 14.9566H35.773V15.0602C35.6091 15.0602 35.4043 15.0467 35.2343 15.0467C35.0668 15.0467 34.8658 15.0602 34.7326 15.0602V14.9566Z" fill="#D1DAE6"/>
<path d="M35.7731 15.0749C35.6083 15.0749 35.4041 15.0608 35.2341 15.0608C35.0674 15.0608 34.8659 15.0749 34.7327 15.0749H34.7178V15.0603V14.9568V14.942H34.7327H34.7805C34.9037 14.9401 35.0168 14.9294 35.0172 14.7613V12.9622C35.0168 12.7946 34.9037 12.7832 34.7805 12.7808H34.7178V12.7663V12.6484H34.7327C34.8659 12.6484 35.0707 12.6615 35.2369 12.6615C35.407 12.6615 35.6116 12.6484 35.7731 12.6484H35.7875V12.6632V12.7808H35.7731H35.7253C35.6007 12.7832 35.4888 12.7946 35.4872 12.9622V14.7613C35.4888 14.9294 35.6007 14.9401 35.7253 14.942H35.7875V14.9568V15.0749H35.7731ZM35.7577 15.0449V14.9722H35.7253C35.603 14.9722 35.4583 14.9506 35.4583 14.7613V12.9622C35.4583 12.7725 35.603 12.751 35.7253 12.751H35.7577V12.6782C35.6002 12.6791 35.4032 12.6915 35.2369 12.6915C35.0754 12.6915 34.8798 12.6791 34.7476 12.6782V12.751H34.7805C34.9018 12.751 35.0471 12.7725 35.0475 12.9622V14.7613C35.047 14.9505 34.9018 14.9722 34.7805 14.9722H34.7476V15.0449C34.8792 15.0434 35.0721 15.0317 35.2341 15.0317C35.3994 15.0317 35.5969 15.0441 35.7577 15.0449Z" fill="#D1DAE6"/>
<path d="M37.133 12.6113C37.86 12.6113 38.4395 13.0651 38.4395 13.7963C38.4395 14.5863 37.8768 15.1113 37.1508 15.1113C36.4271 15.1113 35.8751 14.6168 35.8751 13.8785C35.8751 13.1644 36.4238 12.6113 37.133 12.6113ZM37.1846 14.9601C37.8463 14.9601 37.9615 14.3725 37.9615 13.8718C37.9615 13.3699 37.6929 12.7623 37.1264 12.7623C36.5295 12.7623 36.3524 13.298 36.3524 13.7578C36.3524 14.3725 36.6319 14.9601 37.1846 14.9601Z" fill="#D1DAE6"/>
<path d="M35.8599 13.8788C35.8614 13.1564 36.4167 12.5976 37.133 12.5967V12.6117V12.6262C36.4321 12.6262 35.8895 13.1722 35.8888 13.8788C35.8905 14.6088 36.4347 15.0959 37.1508 15.0962C37.8697 15.0959 38.4244 14.5783 38.4255 13.796C38.4248 13.0741 37.8541 12.6271 37.1331 12.6262V12.6117V12.5967C37.8658 12.5972 38.453 13.0555 38.4544 13.796C38.4537 14.5943 37.8837 15.1248 37.1508 15.1262C36.4214 15.1247 35.8614 14.6252 35.86 13.8788H35.8599V13.8788ZM36.3377 13.7581C36.3386 13.2962 36.5179 12.7472 37.1267 12.7472C37.7056 12.7486 37.976 13.3677 37.9769 13.8721C37.976 14.3729 37.8589 14.9748 37.1849 14.9748V14.9605V14.9457C37.8334 14.9448 37.9457 14.3729 37.9473 13.8721C37.9473 13.3743 37.681 12.7784 37.1267 12.7776C36.5416 12.7783 36.3684 13.3007 36.3673 13.7581C36.3678 14.3698 36.6447 14.9443 37.1849 14.9457V14.9605V14.9748C36.6187 14.974 36.3386 14.3765 36.3377 13.7581Z" fill="#D1DAE6"/>
<path d="M40.738 14.3833L40.7448 14.3767V13.0891C40.7448 12.8072 40.55 12.7662 40.4475 12.7662H40.3737V12.6631C40.5336 12.6631 40.6904 12.6767 40.8503 12.6767C40.9905 12.6767 41.1303 12.6631 41.2703 12.6631V12.7662H41.2188C41.0759 12.7662 40.9153 12.7936 40.9153 13.2022V14.765C40.9153 14.885 40.9187 15.005 40.9359 15.1115H40.8065L39.0498 13.1403V14.5553C39.0498 14.8541 39.1075 14.9567 39.37 14.9567H39.4284V15.0603C39.2816 15.0603 39.1352 15.0467 38.9885 15.0467C38.835 15.0467 38.6778 15.0603 38.5243 15.0603V14.9567H38.5723C38.8081 14.9567 38.8788 14.7957 38.8788 14.5212V13.0748C38.8788 12.8827 38.7227 12.7662 38.5687 12.7662H38.5243V12.6631C38.6539 12.6631 38.787 12.6767 38.9164 12.6767C39.0188 12.6767 39.1174 12.6631 39.2201 12.6631L40.738 14.3833Z" fill="#D1DAE6"/>
<path d="M40.9361 15.1263L40.7949 15.1213L39.0644 13.1791V14.5553C39.0681 14.8539 39.1133 14.9384 39.3694 14.9415H39.4432V14.957V15.0749H39.4283C39.2805 15.0749 39.1341 15.061 38.9884 15.061C38.8354 15.061 38.6788 15.0749 38.5239 15.0749H38.5097V15.0601V14.9415H38.5239H38.5722C38.7971 14.9408 38.8617 14.7951 38.8645 14.5213V13.0749C38.864 12.892 38.7152 12.7811 38.5686 12.7808H38.5097V12.7663V12.6484H38.5239C38.6547 12.6484 38.7876 12.6616 38.9163 12.6616C39.0175 12.6616 39.1159 12.6484 39.2313 12.6535L40.7298 14.3523V13.0894C40.7288 12.8161 40.5472 12.7832 40.4474 12.7808H40.3578V12.7663V12.6485H40.3732C40.5337 12.6485 40.691 12.6616 40.8497 12.6616C40.9897 12.6616 41.1288 12.6485 41.2702 12.6485H41.2848V12.6632V12.7808H41.2702H41.2186C41.0783 12.7849 40.9332 12.7977 40.9303 13.2023V14.7649C40.9303 14.8849 40.9329 15.0046 40.9495 15.1096L40.9523 15.1263H40.9361V15.1263ZM40.8065 15.0963H40.9181C40.9032 14.9932 40.9006 14.8789 40.9006 14.7648V13.2022C40.9006 12.7894 41.0726 12.752 41.2187 12.7508H41.2556V12.6782C41.1211 12.6791 40.9862 12.6915 40.8498 12.6915C40.6946 12.6915 40.5421 12.6791 40.3877 12.6782V12.7508H40.4475C40.5532 12.752 40.7589 12.7989 40.7589 13.0894L40.7552 14.387L40.7488 14.3941L40.7379 14.4051L39.2201 12.6782C39.1195 12.6782 39.02 12.6915 38.9164 12.6915C38.7908 12.6915 38.6628 12.6792 38.5387 12.6782V12.7508H38.5687C38.7288 12.752 38.8937 12.8737 38.8937 13.0749V14.5213C38.8937 14.7958 38.8175 14.9715 38.5723 14.9725L38.5387 14.9722V15.0449C38.6867 15.0441 38.8386 15.0318 38.9885 15.0318C39.1306 15.0318 39.2718 15.0441 39.4135 15.0449V14.9725H39.3695C39.1018 14.9722 39.0349 14.8539 39.0349 14.5553V13.1017L40.8065 15.0963ZM40.7299 14.3767V14.3755L40.727 14.3729L40.7299 14.3767Z" fill="#D1DAE6"/>
<path d="M41.8184 14.5683C41.7851 14.6847 41.7437 14.7747 41.7437 14.8359C41.7437 14.9393 41.8873 14.9559 41.9992 14.9559H42.0372V15.0595C41.9008 15.0521 41.7608 15.0459 41.6243 15.0459C41.5011 15.0459 41.3788 15.0521 41.2565 15.0595V14.9559H41.2759C41.4095 14.9559 41.5226 14.8771 41.573 14.7326L42.1193 13.1569C42.1633 13.0297 42.225 12.8581 42.2449 12.7307C42.3542 12.6933 42.4904 12.6247 42.5559 12.5833C42.5656 12.5798 42.5724 12.5762 42.5828 12.5762C42.593 12.5762 42.5994 12.5762 42.6063 12.5869C42.6166 12.614 42.6273 12.6452 42.6375 12.6726L43.2647 14.4688C43.3056 14.5888 43.3463 14.7157 43.3912 14.819C43.4321 14.9152 43.504 14.9559 43.6161 14.9559H43.637V15.0595C43.4832 15.0521 43.3298 15.0459 43.1659 15.0459C42.9991 15.0459 42.8284 15.0521 42.6543 15.0595V14.9559H42.6922C42.7699 14.9559 42.9038 14.9426 42.9038 14.8566C42.9038 14.8121 42.8728 14.7195 42.8347 14.6093L42.7023 14.2109H41.928L41.8184 14.5683ZM42.317 13.0469H42.3102L41.9925 14.0188H42.6308L42.317 13.0469Z" fill="#D1DAE6"/>
<path d="M43.6355 15.0748C43.482 15.0686 43.3288 15.061 43.1658 15.061C42.9995 15.061 42.8288 15.0686 42.6547 15.0748L42.6396 15.0758V15.0601V14.942H42.6543H42.6914C42.7708 14.942 42.8884 14.9234 42.8886 14.8575C42.8893 14.8184 42.8586 14.7248 42.8205 14.6148L42.6909 14.2265H41.9381L41.8326 14.5734C41.7986 14.691 41.7579 14.7812 41.7586 14.8367C41.7586 14.921 41.8863 14.942 41.9992 14.942H42.0512V14.9567V15.0758L42.0361 15.0748C41.8996 15.0686 41.76 15.061 41.6243 15.061C41.502 15.061 41.3795 15.0686 41.2565 15.0748L41.2416 15.0758V15.0601V14.942H41.2565H41.2759C41.4031 14.9415 41.5096 14.8679 41.5592 14.7286L42.1051 13.1527C42.1486 13.0253 42.2101 12.8541 42.2403 12.7177C42.3475 12.6803 42.4844 12.6118 42.5507 12.5698C42.5596 12.5667 42.5689 12.5627 42.5828 12.5627C42.5918 12.5617 42.6093 12.5639 42.6202 12.5827C42.6303 12.6096 42.6403 12.6408 42.6516 12.6686L43.2788 14.4646C43.3195 14.5851 43.3605 14.712 43.4047 14.8141C43.4446 14.9051 43.5068 14.941 43.6156 14.942H43.6511V14.9567V15.0758L43.6355 15.0748ZM42.6689 15.0446C42.8375 15.0381 43.0036 15.0315 43.1658 15.0315C43.3245 15.0315 43.4733 15.0381 43.6218 15.0441L43.6213 14.9724H43.6156C43.5002 14.9727 43.4196 14.927 43.3772 14.8258C43.3323 14.7215 43.2917 14.5941 43.2509 14.4743L42.6232 12.6782C42.6131 12.6508 42.6027 12.6196 42.5944 12.5963C42.5916 12.592 42.5918 12.592 42.5892 12.592H42.5828C42.5757 12.592 42.5719 12.5944 42.5636 12.5967C42.4972 12.6389 42.3605 12.7074 42.2595 12.7339C42.2384 12.8639 42.1765 13.0351 42.1325 13.1624L41.5864 14.7386C41.5346 14.8877 41.4154 14.9727 41.2759 14.9724H41.2709V15.0441C41.3882 15.0381 41.5055 15.0315 41.6243 15.0315C41.7565 15.0315 41.891 15.0381 42.0223 15.0441V14.9724H41.9991C41.8882 14.971 41.7326 14.9589 41.7286 14.8367C41.7293 14.7686 41.7716 14.6812 41.8045 14.5648L41.8184 14.5693L41.8045 14.5643L41.9168 14.1972H42.7122L42.8489 14.6053C42.8865 14.7158 42.9175 14.807 42.9175 14.8574C42.9125 14.9629 42.7694 14.9703 42.6913 14.9724H42.6689V15.0446H42.6689ZM41.9722 14.0341L42.2993 13.0327H42.3096H42.317H42.3277L42.65 14.0341H41.9722ZM42.0131 14.0046H42.6096L42.313 13.0848L42.0131 14.0046Z" fill="#D1DAE6"/>
<path d="M44.4963 14.7235C44.4963 14.861 44.5909 14.9019 44.7001 14.9159C44.8399 14.9264 44.9934 14.9264 45.1509 14.909C45.2938 14.8917 45.4168 14.8093 45.4777 14.7235C45.5322 14.6478 45.5629 14.5516 45.5835 14.4762H45.6823C45.645 14.6719 45.5972 14.8647 45.5561 15.0602C45.2566 15.0602 44.9558 15.0466 44.6561 15.0466C44.3556 15.0466 44.0559 15.0602 43.7558 15.0602V14.9566H43.8026C43.9261 14.9566 44.0595 14.94 44.0595 14.7269V12.9621C44.0595 12.7831 43.9261 12.7662 43.8026 12.7662H43.7558V12.6631C43.936 12.6631 44.1136 12.6767 44.2941 12.6767C44.4686 12.6767 44.6389 12.6631 44.813 12.6631V12.7662H44.7271C44.598 12.7662 44.4963 12.77 44.4963 12.9514V14.7235Z" fill="#D1DAE6"/>
<path d="M45.5561 15.0748C45.2555 15.0748 44.9554 15.061 44.6562 15.061C44.3558 15.061 44.0557 15.0748 43.7551 15.0748H43.7407V15.0601V14.942H43.7551H43.8027C43.9263 14.9391 44.0432 14.9305 44.0446 14.727V12.9615C44.0432 12.7946 43.927 12.7832 43.8027 12.7808H43.7407V12.7663V12.6484H43.7551C43.9365 12.6484 44.1141 12.6615 44.2943 12.6615C44.4674 12.6615 44.6377 12.6484 44.813 12.6484H44.827V12.6632V12.7808H44.813H44.7274C44.5952 12.7846 44.5129 12.7784 44.5103 12.9515V14.7237C44.5112 14.8515 44.5945 14.886 44.7009 14.901C44.7612 14.9053 44.8243 14.9079 44.8901 14.9079C44.9736 14.9079 45.0604 14.9039 45.1484 14.8944C45.2874 14.878 45.4071 14.7972 45.4658 14.7153C45.5182 14.642 45.5485 14.5477 45.5689 14.4727L45.572 14.4613H45.5833H45.7004L45.6973 14.4794C45.6588 14.6758 45.6119 14.8677 45.5705 15.0632L45.5677 15.0749H45.5561H45.5561V15.0748ZM45.5438 15.0448C45.5833 14.8586 45.628 14.6765 45.6646 14.4908H45.5946C45.5733 14.5655 45.5431 14.6577 45.4894 14.7327C45.4258 14.8217 45.2995 14.9055 45.1516 14.9239C45.0623 14.9331 44.9738 14.9379 44.8901 14.9379C44.8241 14.9379 44.76 14.9348 44.6983 14.9305C44.5874 14.9181 44.4797 14.8705 44.4802 14.7236V12.9515C44.4802 12.7608 44.6001 12.751 44.7274 12.751H44.7978V12.6782C44.6297 12.6791 44.4642 12.6917 44.2943 12.6917C44.1176 12.6917 43.945 12.6791 43.77 12.6782V12.751H43.8026C43.9244 12.751 44.0734 12.7724 44.0734 12.9615V14.7269C44.0734 14.9491 43.9251 14.9722 43.8026 14.9722H43.77V15.0448C44.0649 15.0446 44.3598 15.0317 44.6562 15.0317C44.9525 15.0317 45.2487 15.0446 45.5438 15.0448Z" fill="#D1DAE6"/>
<path d="M45.641 12.5654C45.8465 12.5654 46 12.7245 46 12.9283C46 13.1311 45.8465 13.2888 45.641 13.2888C45.4354 13.2888 45.2817 13.1311 45.2817 12.9283C45.2817 12.7245 45.4354 12.5654 45.641 12.5654ZM45.641 13.2214C45.8015 13.2214 45.925 13.0833 45.925 12.9283C45.925 12.7723 45.8034 12.633 45.641 12.633C45.4794 12.633 45.356 12.7724 45.356 12.9283C45.356 13.0833 45.4794 13.2214 45.641 13.2214ZM45.4621 13.1188V13.1009C45.5063 13.0947 45.5144 13.0961 45.5144 13.0685V12.8009C45.5144 12.7633 45.5104 12.7505 45.4638 12.7523V12.734H45.6476C45.7109 12.734 45.7689 12.7642 45.7689 12.83C45.7689 12.8838 45.7334 12.9235 45.684 12.939L45.7429 13.0218C45.7705 13.0595 45.8015 13.0947 45.8221 13.1071V13.1187H45.7521C45.7185 13.1187 45.6892 13.0475 45.6229 12.9521H45.5832V13.0723C45.5832 13.0961 45.5915 13.0947 45.6357 13.1009V13.1187L45.4621 13.1188ZM45.5832 12.9283H45.6256C45.6719 12.9283 45.6937 12.8928 45.6937 12.8359C45.6937 12.7783 45.6601 12.758 45.6232 12.758H45.5832V12.9283Z" fill="#D1DAE6"/>
<path d="M8.81425 16.9999C12.0721 17.0156 15.0456 14.3252 15.0456 11.0521C15.0456 7.47284 12.0721 4.99881 8.81425 5H6.0105C2.71364 4.99881 0 7.47358 0 11.0521C0 14.3259 2.71364 17.0156 6.0105 16.9999H8.81425Z" fill="#D1DAE6"/>
<path d="M6.02379 5.49609C3.0112 5.49705 0.570015 7.95537 0.569305 10.9894C0.570015 14.0229 3.01118 16.481 6.02379 16.482C9.03708 16.481 11.4788 14.0229 11.4792 10.9894C11.4787 7.95537 9.03708 5.49705 6.02379 5.49609ZM2.56634 10.9894C2.56918 9.50681 3.48894 8.24253 4.78593 7.74013V14.2379C3.48894 13.7358 2.56916 12.4722 2.56634 10.9894ZM7.26117 14.2394V7.73991C8.55863 8.2411 9.47981 9.50609 9.48218 10.9894C9.47981 12.4732 8.55863 13.7372 7.26117 14.2394Z" fill="#0D223A"/>
<path d="M16.9563 7.58328C16.9563 7.01565 16.6623 7.05303 16.3803 7.04686V6.88281C16.6247 6.89496 16.8751 6.89496 17.1199 6.89496C17.3831 6.89496 17.7405 6.88281 18.2045 6.88281C19.8274 6.88281 20.7112 7.97423 20.7112 9.09182C20.7112 9.71682 20.348 11.288 18.1291 11.288C17.8095 11.288 17.5146 11.2756 17.2202 11.2756C16.9383 11.2756 16.6623 11.2818 16.3803 11.288V11.1242C16.7562 11.0861 16.9383 11.0735 16.9562 10.6442L16.9563 7.58328ZM17.5707 10.5435C17.5707 11.0294 17.9158 11.0861 18.2227 11.0861C19.577 11.0861 20.0216 10.0573 20.0216 9.11682C20.0216 7.93707 19.2693 7.08517 18.0598 7.08517C17.8025 7.08517 17.6842 7.10374 17.5707 7.11043L17.5707 10.5435Z" fill="#D1DAE6"/>
<path d="M20.9312 11.1227H21.0499C21.2251 11.1227 21.3507 11.1227 21.3507 10.9139V9.20391C21.3507 8.92656 21.2568 8.88796 21.0248 8.76249V8.6613C21.3193 8.57225 21.6707 8.4532 21.6953 8.43416C21.7395 8.40892 21.7769 8.40225 21.8084 8.40225C21.8394 8.40225 21.8524 8.44035 21.8524 8.49106V10.9139C21.8524 11.1227 21.9902 11.1227 22.1657 11.1227H22.2722V11.2868C22.0588 11.2868 21.8394 11.2742 21.6142 11.2742C21.3886 11.2742 21.1627 11.2804 20.9312 11.2868V11.1227H20.9312ZM21.6016 7.43057C21.4385 7.43057 21.2947 7.27916 21.2947 7.11509C21.2947 6.957 21.4451 6.81152 21.6016 6.81152C21.7641 6.81152 21.9089 6.94464 21.9089 7.11509C21.9089 7.28557 21.7705 7.43057 21.6016 7.43057Z" fill="#D1DAE6"/>
<path d="M22.8676 9.2426C22.8676 9.00927 22.7982 8.94641 22.5043 8.82641V8.70668C22.7737 8.61834 23.0303 8.5362 23.3313 8.40334C23.35 8.40334 23.3685 8.4162 23.3685 8.46644V8.87689C23.7263 8.61834 24.0335 8.40332 24.454 8.40332C24.9861 8.40332 25.1741 8.79472 25.1741 9.28686V10.915C25.1741 11.1238 25.312 11.1238 25.4877 11.1238H25.6006V11.2878C25.3806 11.2878 25.1614 11.2752 24.9362 11.2752C24.7104 11.2752 24.4845 11.2814 24.2591 11.2878V11.1238H24.3717C24.5476 11.1238 24.6723 11.1238 24.6723 10.915V9.28091C24.6723 8.92067 24.454 8.74425 24.0962 8.74425C23.8959 8.74425 23.5761 8.90832 23.3684 9.04734V10.9149C23.3684 11.1238 23.507 11.1238 23.6828 11.1238H23.7953V11.2878C23.5761 11.2878 23.3564 11.2752 23.1308 11.2752C22.9054 11.2752 22.6793 11.2814 22.4539 11.2878V11.1238H22.5669C22.7424 11.1238 22.8675 11.1238 22.8675 10.9149V9.2426H22.8676Z" fill="#D1DAE6"/>
<path d="M26.0771 9.54593C26.0641 9.60286 26.0641 9.69736 26.0771 9.91212C26.114 10.5114 26.4974 11.0036 26.998 11.0036C27.3431 11.0036 27.6132 10.8143 27.8448 10.581L27.9322 10.6695C27.6437 11.0543 27.2866 11.3824 26.7729 11.3824C25.776 11.3824 25.5755 10.4102 25.5755 10.0067C25.5755 8.76951 26.4027 8.40332 26.8412 8.40332C27.3492 8.40332 27.8949 8.72501 27.9008 9.39403C27.9008 9.43236 27.9008 9.46974 27.8949 9.50808L27.8381 9.54593H26.0771ZM27.1868 9.34382C27.3431 9.34382 27.3616 9.26167 27.3616 9.1862C27.3616 8.86427 27.1674 8.60546 26.8162 8.60546C26.4342 8.60546 26.171 8.88903 26.0958 9.34382H27.1868Z" fill="#D1DAE6"/>
<path d="M28.0451 11.1238H28.2144C28.3894 11.1238 28.5147 11.1238 28.5147 10.915V9.14189C28.5147 8.94641 28.2832 8.90832 28.1889 8.85784V8.76356C28.6465 8.56761 28.8974 8.40332 28.9544 8.40332C28.9915 8.40332 29.01 8.42237 29.01 8.4857V9.05355H29.0232C29.1795 8.8076 29.4433 8.40332 29.8252 8.40332C29.982 8.40332 30.1823 8.51046 30.1823 8.73784C30.1823 8.90832 30.0636 9.06022 29.8882 9.06022C29.693 9.06022 29.693 8.90832 29.474 8.90832C29.3674 8.90832 29.0166 9.05355 29.0166 9.43236V10.915C29.0166 11.1238 29.1417 11.1238 29.3174 11.1238H29.6682V11.2879C29.3234 11.2814 29.0611 11.2752 28.791 11.2752C28.5342 11.2752 28.2707 11.2814 28.0451 11.2879L28.0451 11.1238Z" fill="#D1DAE6"/>
<path d="M30.4583 10.4102C30.54 10.8269 30.7904 11.1804 31.2483 11.1804C31.6172 11.1804 31.7553 10.9533 31.7553 10.7324C31.7553 9.9876 30.3892 10.2274 30.3892 9.21141C30.3892 8.85784 30.6716 8.40332 31.3608 8.40332C31.5612 8.40332 31.8305 8.46046 32.0748 8.58689L32.1193 9.23001H31.9748C31.9123 8.83284 31.6931 8.60549 31.2915 8.60549C31.0408 8.60549 30.8029 8.75075 30.8029 9.02191C30.8029 9.76096 32.2569 9.5331 32.2569 10.5238C32.2569 10.9402 31.9246 11.3824 31.1787 11.3824C30.928 11.3824 30.6335 11.294 30.4143 11.1681L30.3453 10.4422L30.4583 10.4102Z" fill="#D1DAE6"/>
<path d="M37.9168 8.02351H37.7604C37.6413 7.28542 37.1209 6.98851 36.4192 6.98851C35.6979 6.98851 34.6511 7.4742 34.6511 8.98874C34.6511 10.2644 35.5543 11.1792 36.5193 11.1792C37.1396 11.1792 37.654 10.7501 37.7794 10.0873L37.9231 10.1249L37.7794 11.0463C37.5161 11.2108 36.8078 11.3811 36.3937 11.3811C34.9274 11.3811 34 10.428 34 9.00802C34 7.71422 35.1468 6.78613 36.3752 6.78613C36.8828 6.78613 37.3716 6.95089 37.8543 7.12137L37.9168 8.02351Z" fill="#D1DAE6"/>
<path d="M38.1429 11.1239H38.2616C38.4373 11.1239 38.5631 11.1239 38.5631 10.9151V7.40036C38.5631 6.98989 38.469 6.97725 38.2306 6.90796V6.80701C38.4813 6.72513 38.7445 6.6113 38.8763 6.53537C38.9446 6.49775 38.9952 6.46582 39.0136 6.46582C39.052 6.46582 39.0645 6.50394 39.0645 6.55463V10.9151C39.0645 11.1239 39.2021 11.1239 39.3779 11.1239H39.4836V11.288C39.2714 11.288 39.052 11.2753 38.8261 11.2753C38.6007 11.2753 38.3751 11.2816 38.1428 11.288V11.1239H38.1429Z" fill="#D1DAE6"/>
<path d="M42.1674 10.94C42.1674 11.0541 42.236 11.0602 42.3424 11.0602C42.4178 11.0602 42.5115 11.0541 42.5933 11.0541V11.1869C42.3235 11.2119 41.8096 11.3445 41.6903 11.3821L41.6589 11.3631V10.8524C41.2833 11.1614 40.9945 11.3821 40.5492 11.3821C40.2108 11.3821 39.8599 11.1614 39.8599 10.6317V9.01547C39.8599 8.85143 39.835 8.69355 39.4845 8.66214V8.54214C39.7104 8.53595 40.2108 8.49807 40.2926 8.49807C40.3622 8.49807 40.3622 8.54214 40.3622 8.68095V10.3088C40.3622 10.4986 40.3622 11.0412 40.9071 11.0412C41.1202 11.0412 41.4021 10.8771 41.6651 10.6569V8.95831C41.6651 8.83259 41.3645 8.76331 41.1393 8.69995V8.58638C41.7027 8.54828 42.0543 8.49805 42.1166 8.49805C42.1674 8.49805 42.1674 8.54209 42.1674 8.61186L42.1674 10.94Z" fill="#D1DAE6"/>
<path d="M43.4146 8.85797C43.6651 8.64343 44.0034 8.40345 44.3485 8.40345C45.0758 8.40345 45.514 9.04154 45.514 9.7289C45.514 10.5556 44.9126 11.3825 44.0157 11.3825C43.5522 11.3825 43.3079 11.2308 43.1447 11.1617L42.9569 11.3065L42.8257 11.2375C42.8813 10.8651 42.9132 10.4989 42.9132 10.1141V7.40034C42.9132 6.98989 42.8186 6.97725 42.5806 6.90796V6.80701C42.832 6.72513 43.0945 6.6113 43.2263 6.53534C43.2954 6.49772 43.3452 6.46582 43.3646 6.46582C43.402 6.46582 43.4145 6.50394 43.4145 6.55463V8.85795H43.4146V8.85797ZM43.4146 10.5744C43.4146 10.8144 43.64 11.2187 44.06 11.2187C44.7307 11.2187 45.0126 10.5556 45.0126 9.99371C45.0126 9.31228 44.4992 8.74443 44.0101 8.74443C43.7776 8.74443 43.5836 8.89609 43.4146 9.04154L43.4146 10.5744Z" fill="#D1DAE6"/>
<path d="M16.3732 14.9566H16.4212C16.5437 14.9566 16.6733 14.94 16.6733 14.7612V12.9621C16.6733 12.7831 16.5437 12.7662 16.4212 12.7662H16.3732V12.6631C16.5063 12.6631 16.7109 12.6767 16.8786 12.6767C17.0489 12.6767 17.2532 12.6631 17.4135 12.6631V12.7662H17.3655C17.2433 12.7662 17.1134 12.7831 17.1134 12.9621V14.7612C17.1134 14.94 17.2433 14.9566 17.3655 14.9566H17.4135V15.0602C17.2499 15.0602 17.0448 15.0467 16.8748 15.0467C16.7076 15.0467 16.5063 15.0602 16.3732 15.0602V14.9566Z" fill="#D1DAE6"/>
<path d="M17.4135 15.0744C17.2487 15.0744 17.0444 15.0606 16.8745 15.0606C16.7078 15.0606 16.5073 15.0744 16.3731 15.0744H16.3585V15.0596V14.9565V14.9415H16.3731H16.4209C16.5446 14.9387 16.6572 14.9287 16.6584 14.7608V12.9617C16.6572 12.7939 16.5446 12.7827 16.4209 12.7803H16.3585V12.7658V12.6475H16.3731C16.5073 12.6475 16.7116 12.661 16.8783 12.661C17.0481 12.661 17.2523 12.6475 17.4135 12.6475H17.4287V12.6632V12.7803H17.4135H17.3657C17.2421 12.7827 17.1288 12.7939 17.1281 12.9617V14.7608C17.1288 14.9287 17.242 14.9387 17.3657 14.9415H17.4287V14.9565V15.0744H17.4135ZM17.3989 15.0451V14.9717H17.3658C17.244 14.9717 17.099 14.9505 17.0983 14.7608V12.9617C17.099 12.772 17.244 12.7506 17.3658 12.7506H17.3989V12.6777C17.2413 12.6777 17.0439 12.691 16.8783 12.691C16.7163 12.691 16.5202 12.6787 16.3883 12.6777V12.7506H16.4209C16.5425 12.7506 16.6879 12.772 16.6879 12.9617V14.7608C16.6879 14.9506 16.5425 14.9717 16.4209 14.9717H16.3883V15.0451C16.5202 15.0436 16.713 15.0313 16.8745 15.0313C17.0406 15.0313 17.238 15.0441 17.3989 15.0451Z" fill="#D1DAE6"/>
<path d="M19.7567 14.3833L19.7636 14.3767V13.0891C19.7636 12.8072 19.569 12.7662 19.4668 12.7662H19.3916V12.6631C19.5521 12.6631 19.7089 12.6767 19.8691 12.6767C20.0088 12.6767 20.1493 12.6631 20.2889 12.6631V12.7662H20.2378C20.0942 12.7662 19.9339 12.7936 19.9339 13.2022V14.765C19.9339 14.885 19.9374 15.005 19.9542 15.1115H19.8244L18.0683 13.1403V14.5553C18.0683 14.8541 18.1258 14.9567 18.3888 14.9567H18.4465V15.0603C18.3001 15.0603 18.1537 15.0467 18.0068 15.0467C17.8538 15.0467 17.6968 15.0603 17.543 15.0603V14.9567H17.5908C17.8261 14.9567 17.8976 14.7957 17.8976 14.5212V13.0748C17.8976 12.8827 17.7403 12.7662 17.5875 12.7662H17.5431V12.6631C17.6726 12.6631 17.8056 12.6767 17.935 12.6767C18.0373 12.6767 18.1365 12.6631 18.2386 12.6631L19.7567 14.3833Z" fill="#D1DAE6"/>
<path d="M19.9539 15.1265L19.8132 15.1213L18.0824 13.1791V14.5553C18.0864 14.8539 18.1316 14.9387 18.3884 14.942H18.4615V14.9568V15.0749H18.4464C18.2988 15.0749 18.1519 15.061 18.0065 15.061C17.8537 15.061 17.6971 15.0749 17.5424 15.0749H17.5275V15.0601V14.942H17.5424H17.5905C17.8158 14.9408 17.8802 14.7951 17.8828 14.5213V13.0751C17.8823 12.8922 17.7333 12.7813 17.5871 12.7808H17.5275V12.7656V12.6484H17.5424C17.6728 12.6484 17.8064 12.6615 17.9343 12.6615C18.0358 12.6615 18.1347 12.6484 18.2496 12.6534L19.7485 14.3523V13.0894C19.7466 12.8161 19.5657 12.7832 19.4664 12.7808H19.376V12.7656V12.6484H19.3912C19.5523 12.6484 19.7093 12.6615 19.8687 12.6615C20.0075 12.6615 20.1473 12.6484 20.2882 12.6484H20.3031V12.6632V12.7808H20.2882H20.2374C20.0967 12.7849 19.9522 12.7972 19.9482 13.2022V14.7648C19.9482 14.8848 19.9517 15.0048 19.9683 15.1089L19.9716 15.1265H19.9539V15.1265ZM19.8243 15.0963H19.9371C19.9217 14.9932 19.9191 14.8789 19.9191 14.7648V13.2022C19.9191 12.7901 20.0906 12.7511 20.2375 12.7511H20.2734V12.6782C20.1391 12.6791 20.0043 12.6915 19.8688 12.6915C19.7127 12.6915 19.5608 12.6791 19.4064 12.6782L19.4062 12.7511H19.4665C19.5712 12.7511 19.7782 12.7982 19.7782 13.0894L19.7735 14.387L19.7666 14.3941L19.755 14.4049L18.2383 12.6782C18.1371 12.6782 18.0382 12.6915 17.9344 12.6915C17.8093 12.6915 17.6813 12.6791 17.5577 12.6782L17.5569 12.751H17.5872C17.7473 12.751 17.9117 12.8741 17.9117 13.0751V14.5213C17.9117 14.7958 17.8358 14.9715 17.5905 14.9724L17.5577 14.9715V15.0455C17.7055 15.0441 17.8573 15.0317 18.0065 15.0317C18.1489 15.0317 18.2906 15.0441 18.4315 15.0455V14.9724H18.3885C18.12 14.9715 18.0534 14.8539 18.0531 14.5553V13.1017L19.8243 15.0963ZM19.7486 14.3765V14.3753L19.7457 14.3729L19.7486 14.3765Z" fill="#D1DAE6"/>
<path d="M20.7992 12.8347C20.5431 12.8347 20.5334 12.8966 20.4823 13.1471H20.3799C20.3934 13.0511 20.4104 12.9552 20.4208 12.8552C20.4345 12.759 20.4412 12.6633 20.4412 12.5638H20.5232C20.5507 12.6669 20.6358 12.6633 20.7283 12.6633H22.4876C22.5799 12.6633 22.665 12.6599 22.6721 12.5566L22.7535 12.5704C22.7402 12.6633 22.7265 12.7559 22.7161 12.8488C22.7099 12.9414 22.7099 13.0342 22.7099 13.1266L22.6073 13.1649C22.6002 13.038 22.5832 12.8347 22.3549 12.8347H21.7956V14.6618C21.7956 14.9266 21.9151 14.9569 22.0782 14.9569H22.1433V15.0604C22.0104 15.0604 21.7713 15.0469 21.5875 15.0469C21.3829 15.0469 21.1438 15.0604 21.0107 15.0604V14.9569H21.0757C21.2637 14.9569 21.3588 14.9399 21.3588 14.669V12.8347H20.7992Z" fill="#D1DAE6"/>
<path d="M22.1438 15.0738C22.0095 15.0738 21.7709 15.06 21.5876 15.06C21.3832 15.06 21.1446 15.0738 21.0107 15.0738H20.9965V15.0593V14.941H21.0107H21.0758C21.2638 14.9365 21.3394 14.9341 21.3437 14.6679V12.8486H20.7993V12.8336V12.8183H21.3733V14.6679C21.3733 14.9433 21.2631 14.9712 21.0758 14.9714H21.0257V15.0438C21.1602 15.0431 21.3896 15.0307 21.5876 15.0307C21.7655 15.0307 21.9934 15.0431 22.1282 15.0438V14.9714H22.0783C21.9135 14.9712 21.7808 14.9305 21.7808 14.6607V12.8183H22.355C22.584 12.8193 22.6138 13.0152 22.6213 13.1426L22.6949 13.1152C22.6949 13.0257 22.6954 12.936 22.7015 12.8455C22.7114 12.7572 22.724 12.6695 22.7368 12.5819L22.6847 12.5731C22.6689 12.6731 22.5731 12.6781 22.4872 12.6772H20.7283H20.7106C20.6304 12.6772 20.5427 12.6733 20.5122 12.5774H20.4559C20.4554 12.6724 20.4488 12.7646 20.4358 12.856C20.4258 12.9503 20.4102 13.041 20.3975 13.1317H20.4706C20.5155 12.8924 20.5448 12.8148 20.7993 12.8184V12.8336V12.8486C20.5472 12.8531 20.5524 12.896 20.4968 13.1498L20.4942 13.1615H20.4824H20.3629L20.3648 13.1436C20.3786 13.0474 20.3958 12.9517 20.406 12.8517C20.4202 12.7564 20.4268 12.6612 20.4268 12.5626V12.5476H20.4412H20.5349L20.5372 12.5583C20.5607 12.645 20.6238 12.6455 20.7106 12.6469H20.7283H22.4872C22.5823 12.6455 22.6514 12.6441 22.6573 12.5543L22.6587 12.5381L22.6741 12.5414L22.7703 12.5567L22.7682 12.5717C22.7544 12.6636 22.741 12.7564 22.7311 12.8486C22.7242 12.94 22.7242 13.0329 22.7242 13.1255V13.1362L22.7147 13.14L22.5939 13.1843L22.593 13.1643C22.584 13.0352 22.5705 12.8486 22.355 12.8486H21.8106V14.6607C21.8137 14.9197 21.9158 14.9376 22.0783 14.9409H22.1582V14.9557V15.0738L22.1438 15.0738Z" fill="#D1DAE6"/>
<path d="M22.8626 14.9566H22.9106C23.0332 14.9566 23.163 14.94 23.163 14.7612V12.9621C23.163 12.7831 23.0332 12.7662 22.9106 12.7662H22.8626V12.6631C23.0703 12.6631 23.4255 12.6767 23.7114 12.6767C23.9986 12.6767 24.3526 12.6631 24.5843 12.6631C24.5787 12.8105 24.5818 13.0376 24.5919 13.1883L24.489 13.2159C24.4727 12.9929 24.4318 12.8145 24.0735 12.8145H23.5998V13.7138H24.0052C24.2097 13.7138 24.2544 13.5974 24.2746 13.4115H24.3767C24.3701 13.546 24.3666 13.6798 24.3666 13.8136C24.3666 13.9443 24.3701 14.0746 24.3767 14.205L24.2746 14.2255C24.2544 14.0196 24.2441 13.8857 24.0085 13.8857H23.5998V14.6855C23.5998 14.909 23.7968 14.909 24.0154 14.909C24.4247 14.909 24.6052 14.8812 24.7076 14.4902L24.8032 14.5138C24.7585 14.6962 24.7178 14.8779 24.6875 15.0602C24.469 15.0602 24.0766 15.0467 23.7701 15.0467C23.4626 15.0467 23.0571 15.0602 22.8626 15.0602V14.9566Z" fill="#D1DAE6"/>
<path d="M24.6872 15.0749C24.4682 15.0749 24.0761 15.0608 23.7698 15.0608C23.4626 15.0608 23.0572 15.0749 22.8626 15.0749H22.8482V15.0603V14.9568V14.942H22.8626H22.9104C23.0341 14.9401 23.1462 14.9291 23.1478 14.7613V12.9622C23.1462 12.7946 23.0341 12.7834 22.9104 12.7808H22.8482V12.7663V12.6484H22.8626C23.0707 12.6484 23.4255 12.6615 23.7114 12.6615C23.9983 12.6615 24.3521 12.6484 24.5843 12.6484H24.5997L24.599 12.6637C24.5966 12.7153 24.5957 12.7763 24.5957 12.8411C24.5957 12.9598 24.599 13.0896 24.6059 13.1875L24.6063 13.1999L24.595 13.2032L24.4751 13.2346L24.4744 13.217C24.4543 12.9942 24.4247 12.8325 24.0735 12.8292H23.614L23.6135 13.6985H24.0052C24.2015 13.6966 24.2367 13.5954 24.2599 13.4104L24.2611 13.3968H24.2743H24.3919L24.3917 13.4122C24.3851 13.5461 24.3808 13.6799 24.3808 13.8137C24.3808 13.9437 24.3851 14.0739 24.3917 14.2046L24.3919 14.2168L24.3796 14.2196L24.2611 14.2434L24.2599 14.2272C24.2365 14.0177 24.2348 13.903 24.0082 13.9004L23.614 13.9001V14.6856C23.6143 14.8941 23.793 14.8929 24.0154 14.8941C24.4259 14.8918 24.5905 14.8718 24.6934 14.486L24.6967 14.4722L24.7112 14.4749L24.8204 14.5032L24.8171 14.5175C24.7731 14.6994 24.7322 14.8808 24.7017 15.0627L24.6989 15.0749H24.6872ZM24.6747 15.0449C24.7043 14.8717 24.7432 14.6979 24.7852 14.5251L24.7178 14.5079C24.6156 14.8922 24.4178 14.9265 24.0153 14.9239C23.8006 14.9239 23.5853 14.9239 23.5844 14.6855V13.8708H24.0082C24.2464 13.8682 24.2708 14.0129 24.2875 14.2084L24.3613 14.193C24.3547 14.0665 24.3516 13.9396 24.3516 13.8136C24.3516 13.6844 24.3547 13.5558 24.3613 13.4265H24.2875C24.2686 13.6053 24.213 13.731 24.0052 13.7286H23.5844V12.7991H24.0735C24.4283 12.7967 24.4871 12.981 24.5023 13.197L24.5759 13.177C24.57 13.0801 24.5659 12.9558 24.5659 12.841C24.5659 12.7822 24.5673 12.7267 24.5692 12.6782C24.3375 12.6791 23.9922 12.6915 23.7114 12.6915C23.4312 12.6915 23.0861 12.6791 22.8773 12.6782V12.751H22.9104C23.0319 12.751 23.1772 12.7725 23.1776 12.9622V14.7613C23.1771 14.9506 23.0319 14.9715 22.9104 14.9725H22.8773V15.0449C23.0762 15.0446 23.4702 15.0318 23.7698 15.0318C24.0707 15.0318 24.4547 15.0446 24.6747 15.0449Z" fill="#D1DAE6"/>
<path d="M25.2634 13.0271C25.2634 12.7767 25.1272 12.7664 25.021 12.7664H24.9597V12.6631C25.069 12.6631 25.2802 12.6769 25.4883 12.6769C25.6929 12.6769 25.8568 12.6631 26.0372 12.6631C26.4667 12.6631 26.8492 12.78 26.8492 13.2681C26.8492 13.5764 26.6446 13.7655 26.3752 13.8724L26.9582 14.7509C27.0537 14.8962 27.1216 14.9369 27.289 14.9569V15.0605C27.1765 15.0605 27.0672 15.0469 26.9548 15.0469C26.8491 15.0469 26.7396 15.0605 26.6344 15.0605C26.3718 14.7136 26.1462 14.3426 25.9246 13.9474H25.7002V14.6826C25.7002 14.9474 25.8225 14.9569 25.9793 14.9569H26.0408V15.0605C25.8459 15.0605 25.6489 15.0469 25.4542 15.0469C25.2903 15.0469 25.13 15.0605 24.9597 15.0605V14.9569H25.021C25.1477 14.9569 25.2634 14.8993 25.2634 14.7719V13.0271ZM25.7002 13.8238H25.8667C26.208 13.8238 26.3917 13.6933 26.3917 13.2881C26.3917 12.9828 26.1976 12.7869 25.8936 12.7869C25.7912 12.7869 25.7477 12.7976 25.7001 12.8007V13.8238H25.7002Z" fill="#D1DAE6"/>
<path d="M27.2891 15.0753C27.1748 15.0753 27.0663 15.0615 26.9542 15.0615C26.8501 15.0615 26.7413 15.0753 26.6224 15.0696C26.3608 14.7241 26.1366 14.3553 25.9162 13.9629H25.7147V14.6824C25.7182 14.9408 25.8213 14.9386 25.9791 14.9424H26.0555V14.9572V15.0753H26.0403C25.8454 15.0753 25.6475 15.0615 25.4538 15.0615C25.2908 15.0615 25.131 15.0753 24.9597 15.0753H24.9448V15.0605V14.9424H24.9597H25.021C25.1439 14.9417 25.2476 14.8879 25.248 14.7722V13.0275C25.2455 12.7837 25.127 12.7851 25.021 12.7815H24.9448V12.7668V12.6484H24.9597C25.0702 12.6484 25.2807 12.662 25.4883 12.662C25.6919 12.662 25.8559 12.6484 26.0375 12.6484C26.4672 12.6494 26.8631 12.7689 26.8643 13.2675C26.8643 13.5777 26.6607 13.7713 26.3974 13.8794L26.9705 14.7432C27.0658 14.8855 27.1252 14.921 27.2912 14.9424L27.3037 14.9444V14.9572V15.0753H27.2891V15.0753ZM25.6998 13.9329H25.933L25.937 13.9405C26.1593 14.335 26.3832 14.7055 26.6344 15.046C26.7385 15.046 26.848 15.0319 26.9542 15.0319C27.0632 15.0319 27.1682 15.0438 27.2744 15.0455V14.9703C27.1143 14.9503 27.0393 14.9022 26.9462 14.7595L26.3528 13.8655L26.3695 13.8586C26.6363 13.7529 26.8338 13.5693 26.834 13.2674C26.8338 12.791 26.4663 12.6805 26.0375 12.6786C25.8575 12.6786 25.6938 12.6922 25.4883 12.6922C25.288 12.6922 25.0858 12.6796 24.9742 12.6786V12.7515H25.021C25.1269 12.7517 25.2778 12.7693 25.2778 13.0274V14.7722C25.2778 14.91 25.1494 14.9729 25.021 14.9731H24.9742V15.0455C25.1383 15.045 25.2937 15.0319 25.4538 15.0319C25.6446 15.0319 25.8369 15.045 26.0257 15.0455V14.9731H25.9791C25.8234 14.9729 25.6849 14.9534 25.6849 14.6824V13.9329H25.6998H25.6998ZM25.6998 13.8386H25.6849V12.7872L25.6979 12.786C25.7445 12.7824 25.7906 12.7727 25.8937 12.7727C26.2045 12.7727 26.4064 12.976 26.4069 13.2891C26.406 13.699 26.2106 13.8383 25.8667 13.8386H25.6998V13.8386ZM25.8667 13.8091C26.2044 13.8062 26.3743 13.6881 26.3778 13.2891C26.3759 12.9891 26.1908 12.8029 25.8937 12.8017C25.8014 12.8017 25.7582 12.8103 25.7147 12.8141V13.8091H25.8667Z" fill="#D1DAE6"/>
<path d="M29.6047 14.3833L29.6108 14.3767V13.0891C29.6108 12.8072 29.4167 12.7662 29.3145 12.7662H29.2398V12.6631C29.3999 12.6631 29.5565 12.6767 29.717 12.6767C29.857 12.6767 29.9964 12.6631 30.1371 12.6631V12.7662H30.0857C29.9424 12.7662 29.7821 12.7936 29.7821 13.2022V14.765C29.7821 14.885 29.7854 15.005 29.8022 15.1115H29.6728L27.9166 13.1403V14.5553C27.9166 14.8541 27.9745 14.9567 28.237 14.9567H28.295V15.0603C28.1485 15.0603 28.0017 15.0467 27.8553 15.0467C27.7013 15.0467 27.5445 15.0603 27.3913 15.0603V14.9567H27.4386C27.6741 14.9567 27.7458 14.7957 27.7458 14.5212V13.0748C27.7458 12.8827 27.5889 12.7662 27.4357 12.7662H27.3913V12.6631C27.5204 12.6631 27.654 12.6767 27.7834 12.6767C27.8851 12.6767 27.9844 12.6631 28.0868 12.6631L29.6047 14.3833Z" fill="#D1DAE6"/>
<path d="M29.8024 15.1267L29.6619 15.122L27.931 13.1796V14.5556C27.935 14.8544 27.9799 14.9391 28.2372 14.9425H28.3094V14.9572V15.0753H28.2944C28.1469 15.0753 28.0007 15.0613 27.8545 15.0613C27.7023 15.0613 27.5447 15.0753 27.3912 15.0753H27.3759V15.0608V14.9425H27.3912H27.4385C27.6637 14.9415 27.7282 14.7956 27.7304 14.5208V13.0753C27.7301 12.8925 27.5814 12.7815 27.4357 12.7813H27.3759V12.7668V12.6484H27.3912C27.5213 12.6484 27.6547 12.662 27.7833 12.662C27.8836 12.662 27.9825 12.6484 28.097 12.6532L29.5962 14.3527V13.0894C29.5952 12.8165 29.4136 12.7827 29.3145 12.7813H29.2244V12.7668V12.6484H29.2393C29.4006 12.6484 29.5576 12.662 29.717 12.662C29.8561 12.662 29.9959 12.6484 30.1363 12.6484H30.1512V12.6639V12.7813H30.1363H30.0857C29.945 12.7851 29.8 12.7977 29.7964 13.2027V14.7653C29.7964 14.8853 29.7995 15.0044 29.8168 15.1101L29.8187 15.1267H29.8024ZM29.6728 15.0967H29.7849C29.77 14.9936 29.7666 14.8794 29.7666 14.7653V13.2027C29.7669 12.7905 29.9396 12.7525 30.0857 12.7513H30.1214V12.6787C29.9875 12.6796 29.8525 12.692 29.717 12.692C29.5604 12.692 29.4083 12.6796 29.2539 12.6787V12.7513H29.3145C29.4195 12.7525 29.6262 12.7987 29.6262 13.0894L29.6215 14.3875L29.6148 14.3946L29.6044 14.4055L28.0866 12.6787C27.9853 12.6787 27.8865 12.692 27.7834 12.692C27.6571 12.692 27.5296 12.6796 27.4054 12.6787V12.7513H27.4357C27.5958 12.7525 27.7602 12.8742 27.7602 13.0753V14.5208C27.7602 14.7965 27.6831 14.972 27.4386 14.9729L27.4054 14.9727V15.0453C27.5528 15.0446 27.7049 15.0322 27.8546 15.0322C27.9977 15.0322 28.1393 15.0446 28.2803 15.0453V14.9729H28.2372C27.9686 14.9727 27.9014 14.8544 27.9009 14.5555V13.1027L29.6728 15.0967ZM29.5961 14.3772V14.376L29.5935 14.3734L29.5961 14.3772Z" fill="#D1DAE6"/>
<path d="M30.6855 14.5683C30.651 14.6847 30.6098 14.7747 30.6098 14.8359C30.6098 14.9393 30.7534 14.9559 30.8655 14.9559H30.9035V15.0595C30.7669 15.0521 30.6275 15.0459 30.4901 15.0459C30.3674 15.0459 30.2453 15.0521 30.1224 15.0595V14.9559H30.1429C30.2758 14.9559 30.3887 14.8771 30.439 14.7326L30.9854 13.1569C31.0294 13.0297 31.0913 12.8581 31.1119 12.7307C31.2205 12.6933 31.3572 12.6247 31.4218 12.5833C31.4324 12.5798 31.4383 12.5762 31.449 12.5762C31.4591 12.5762 31.4657 12.5762 31.4733 12.5869C31.4832 12.614 31.4932 12.6452 31.5041 12.6726L32.1315 14.4688C32.1724 14.5888 32.2128 14.7157 32.2571 14.819C32.2982 14.9152 32.3701 14.9559 32.4829 14.9559H32.503V15.0595C32.3496 15.0521 32.1959 15.0459 32.0327 15.0459C31.8654 15.0459 31.6944 15.0521 31.5206 15.0595V14.9559H31.5585C31.6365 14.9559 31.7699 14.9426 31.7699 14.8566C31.7699 14.8121 31.7392 14.7195 31.7011 14.6093L31.5684 14.2109H30.7943L30.6855 14.5683ZM31.1831 13.0469H31.1762L30.8591 14.0188H31.4965L31.1831 13.0469Z" fill="#D1DAE6"/>
<path d="M32.5021 15.0753C32.3486 15.0684 32.1951 15.0613 32.0326 15.0613C31.8654 15.0613 31.6956 15.0684 31.521 15.0753L31.5056 15.0763V15.0608V14.942H31.5206H31.5582C31.6372 14.942 31.7544 14.9239 31.7544 14.858C31.7554 14.8189 31.7246 14.7246 31.687 14.6154L31.5572 14.227H30.8049L30.699 14.5739C30.6644 14.6911 30.6235 14.7818 30.6237 14.8377C30.6249 14.9216 30.7524 14.942 30.8654 14.942H30.918V14.9575V15.0763L30.9026 15.0753C30.7661 15.0684 30.6268 15.0613 30.4908 15.0613C30.3686 15.0613 30.2456 15.0684 30.1233 15.0753L30.1075 15.0763V15.0608V14.942H30.1224H30.1427C30.2697 14.9415 30.3757 14.8689 30.4249 14.7292L30.971 13.1532C31.0157 13.0258 31.0771 12.8547 31.1067 12.7178C31.2136 12.6813 31.3505 12.6123 31.4163 12.5704C31.4258 12.5673 31.4352 12.5625 31.4492 12.5625C31.4575 12.5623 31.4759 12.5644 31.4868 12.5825C31.4965 12.6108 31.5071 12.6413 31.5175 12.6692L32.1457 14.4652C32.1859 14.5856 32.2266 14.7126 32.2711 14.814C32.3106 14.9056 32.3732 14.9416 32.4829 14.9421H32.5177V14.9575V15.0763L32.5021 15.0753ZM31.5354 15.0446C31.7043 15.0387 31.8696 15.032 32.0326 15.032C32.191 15.032 32.3393 15.0387 32.4876 15.0446V14.9729H32.4829C32.3661 14.9736 32.2854 14.9275 32.2435 14.8263C32.1991 14.722 32.1574 14.5946 32.1175 14.4744L31.4896 12.6787C31.4792 12.6513 31.4692 12.6201 31.4602 12.5958C31.4574 12.5925 31.4581 12.5925 31.4553 12.5925H31.4491C31.442 12.5925 31.438 12.5946 31.4292 12.597C31.3635 12.6401 31.2266 12.7075 31.1256 12.7344C31.1045 12.8644 31.0433 13.0358 30.9988 13.163L30.453 14.7391C30.401 14.8882 30.2815 14.9732 30.1427 14.9729H30.1373V15.0446C30.2541 15.0387 30.3723 15.032 30.4908 15.032C30.6225 15.032 30.7573 15.0387 30.8874 15.0446V14.9729H30.8654C30.7545 14.9715 30.5994 14.9589 30.5951 14.8377C30.5953 14.7691 30.6372 14.6813 30.6705 14.5653L30.6855 14.5698L30.6705 14.5648L30.7829 14.1977H31.578L31.7149 14.6058C31.7533 14.7161 31.7842 14.8075 31.7842 14.858C31.7795 14.9634 31.6355 14.9708 31.5581 14.973H31.5354L31.5354 15.0446ZM30.8383 14.0348L31.1648 13.0332H31.1762H31.1833H31.1935L31.5172 14.0348H30.8383ZM30.8791 14.0051H31.4761L31.1792 13.0848L30.8791 14.0051Z" fill="#D1DAE6"/>
<path d="M32.653 12.8347C32.3971 12.8347 32.387 12.8966 32.3356 13.1471H32.2332C32.2467 13.0511 32.264 12.9552 32.2746 12.8552C32.2883 12.759 32.2945 12.6633 32.2945 12.5638H32.3768C32.404 12.6669 32.4896 12.6633 32.5811 12.6633H34.3414C34.433 12.6633 34.5181 12.6599 34.5252 12.5566L34.6068 12.5704C34.5938 12.6633 34.5803 12.7559 34.5699 12.8488C34.5626 12.9414 34.5626 13.0342 34.5626 13.1266L34.4604 13.1649C34.454 13.038 34.437 12.8347 34.2083 12.8347H33.649V14.6618C33.649 14.9266 33.7687 14.9569 33.9318 14.9569H33.9966V15.0604C33.8637 15.0604 33.6253 15.0469 33.4408 15.0469C33.2365 15.0469 32.9974 15.0604 32.8645 15.0604V14.9569H32.929C33.117 14.9569 33.2126 14.9399 33.2126 14.669V12.8347H32.653Z" fill="#D1DAE6"/>
<path d="M33.9964 15.0758C33.8626 15.0758 33.6237 15.062 33.4407 15.062C33.2368 15.062 32.9979 15.0758 32.8643 15.0758H32.8492V15.0612V14.9429H32.8643H32.9288C33.1168 14.9384 33.1923 14.936 33.197 14.6698L33.1966 12.8505H32.6528V12.8355V12.8203H33.2266V14.6698C33.2266 14.9453 33.1162 14.9724 32.9288 14.9731H32.8787V15.0465C33.0138 15.045 33.2427 15.0326 33.4407 15.0326C33.6187 15.0326 33.8467 15.045 33.9815 15.0465V14.9731H33.9312C33.7672 14.9724 33.6343 14.9326 33.6339 14.6626V12.8203H34.2081C34.437 12.8212 34.467 13.0172 34.4735 13.1446L34.548 13.1172C34.548 13.0277 34.5482 12.9379 34.5548 12.8479C34.5643 12.7596 34.577 12.6715 34.5896 12.5838L34.538 12.575C34.5224 12.675 34.4262 12.6805 34.3413 12.6791H32.5809H32.5637C32.4833 12.68 32.3962 12.6753 32.3652 12.5788H32.3094C32.3085 12.6741 32.3021 12.7665 32.2886 12.8579C32.2796 12.9524 32.2628 13.0434 32.2501 13.1336H32.3232C32.3683 12.8943 32.3979 12.8167 32.6528 12.8203V12.8355L32.6528 12.8505C32.4 12.8548 32.4057 12.8979 32.3498 13.1517L32.3473 13.1634H32.3354H32.2157L32.2179 13.1462C32.2321 13.0493 32.2491 12.9536 32.259 12.8543C32.273 12.7583 32.2796 12.6631 32.2796 12.5645V12.5495H32.2943H32.3874L32.3903 12.5603C32.4142 12.6469 32.4763 12.6474 32.5636 12.6488L32.5809 12.6493H34.3412C34.4354 12.6474 34.5042 12.646 34.5101 12.5565L34.511 12.54L34.5271 12.5434L34.6238 12.5586L34.6213 12.5736C34.6073 12.6655 34.5943 12.7584 34.5839 12.8505C34.577 12.942 34.577 13.0351 34.577 13.1274V13.1382L34.5674 13.142L34.4465 13.1863L34.4458 13.1662C34.437 13.0372 34.4236 12.8505 34.2081 12.8505H33.6635V14.6626C33.667 14.9217 33.7689 14.9395 33.9312 14.9429H34.0111V14.9576V15.0757L33.9964 15.0758Z" fill="#D1DAE6"/>
<path d="M34.7326 14.9566H34.7804C34.9036 14.9566 35.0325 14.94 35.0325 14.7612V12.9621C35.0325 12.7831 34.9036 12.7662 34.7804 12.7662H34.7326V12.6631C34.8658 12.6631 35.0701 12.6767 35.2369 12.6767C35.4081 12.6767 35.6127 12.6631 35.773 12.6631V12.7662H35.7252C35.6025 12.7662 35.4724 12.7831 35.4724 12.9621V14.7612C35.4724 14.94 35.6025 14.9566 35.7252 14.9566H35.773V15.0602C35.6091 15.0602 35.4043 15.0467 35.2343 15.0467C35.0668 15.0467 34.8658 15.0602 34.7326 15.0602V14.9566Z" fill="#D1DAE6"/>
<path d="M35.7731 15.0749C35.6083 15.0749 35.4041 15.0608 35.2341 15.0608C35.0674 15.0608 34.8659 15.0749 34.7327 15.0749H34.7178V15.0603V14.9568V14.942H34.7327H34.7805C34.9037 14.9401 35.0168 14.9294 35.0172 14.7613V12.9622C35.0168 12.7946 34.9037 12.7832 34.7805 12.7808H34.7178V12.7663V12.6484H34.7327C34.8659 12.6484 35.0707 12.6615 35.2369 12.6615C35.407 12.6615 35.6116 12.6484 35.7731 12.6484H35.7875V12.6632V12.7808H35.7731H35.7253C35.6007 12.7832 35.4888 12.7946 35.4872 12.9622V14.7613C35.4888 14.9294 35.6007 14.9401 35.7253 14.942H35.7875V14.9568V15.0749H35.7731ZM35.7577 15.0449V14.9722H35.7253C35.603 14.9722 35.4583 14.9506 35.4583 14.7613V12.9622C35.4583 12.7725 35.603 12.751 35.7253 12.751H35.7577V12.6782C35.6002 12.6791 35.4032 12.6915 35.2369 12.6915C35.0754 12.6915 34.8798 12.6791 34.7476 12.6782V12.751H34.7805C34.9018 12.751 35.0471 12.7725 35.0475 12.9622V14.7613C35.047 14.9505 34.9018 14.9722 34.7805 14.9722H34.7476V15.0449C34.8792 15.0434 35.0721 15.0317 35.2341 15.0317C35.3994 15.0317 35.5969 15.0441 35.7577 15.0449Z" fill="#D1DAE6"/>
<path d="M37.133 12.6113C37.86 12.6113 38.4395 13.0651 38.4395 13.7963C38.4395 14.5863 37.8768 15.1113 37.1508 15.1113C36.4271 15.1113 35.8751 14.6168 35.8751 13.8785C35.8751 13.1644 36.4238 12.6113 37.133 12.6113ZM37.1846 14.9601C37.8463 14.9601 37.9615 14.3725 37.9615 13.8718C37.9615 13.3699 37.6929 12.7623 37.1264 12.7623C36.5295 12.7623 36.3524 13.298 36.3524 13.7578C36.3524 14.3725 36.6319 14.9601 37.1846 14.9601Z" fill="#D1DAE6"/>
<path d="M35.8599 13.8788C35.8614 13.1564 36.4167 12.5976 37.133 12.5967V12.6117V12.6262C36.4321 12.6262 35.8895 13.1722 35.8888 13.8788C35.8905 14.6088 36.4347 15.0959 37.1508 15.0962C37.8697 15.0959 38.4244 14.5783 38.4255 13.796C38.4248 13.0741 37.8541 12.6271 37.1331 12.6262V12.6117V12.5967C37.8658 12.5972 38.453 13.0555 38.4544 13.796C38.4537 14.5943 37.8837 15.1248 37.1508 15.1262C36.4214 15.1247 35.8614 14.6252 35.86 13.8788H35.8599V13.8788ZM36.3377 13.7581C36.3386 13.2962 36.5179 12.7472 37.1267 12.7472C37.7056 12.7486 37.976 13.3677 37.9769 13.8721C37.976 14.3729 37.8589 14.9748 37.1849 14.9748V14.9605V14.9457C37.8334 14.9448 37.9457 14.3729 37.9473 13.8721C37.9473 13.3743 37.681 12.7784 37.1267 12.7776C36.5416 12.7783 36.3684 13.3007 36.3673 13.7581C36.3678 14.3698 36.6447 14.9443 37.1849 14.9457V14.9605V14.9748C36.6187 14.974 36.3386 14.3765 36.3377 13.7581Z" fill="#D1DAE6"/>
<path d="M40.738 14.3833L40.7448 14.3767V13.0891C40.7448 12.8072 40.55 12.7662 40.4475 12.7662H40.3737V12.6631C40.5336 12.6631 40.6904 12.6767 40.8503 12.6767C40.9905 12.6767 41.1303 12.6631 41.2703 12.6631V12.7662H41.2188C41.0759 12.7662 40.9153 12.7936 40.9153 13.2022V14.765C40.9153 14.885 40.9187 15.005 40.9359 15.1115H40.8065L39.0498 13.1403V14.5553C39.0498 14.8541 39.1075 14.9567 39.37 14.9567H39.4284V15.0603C39.2816 15.0603 39.1352 15.0467 38.9885 15.0467C38.835 15.0467 38.6778 15.0603 38.5243 15.0603V14.9567H38.5723C38.8081 14.9567 38.8788 14.7957 38.8788 14.5212V13.0748C38.8788 12.8827 38.7227 12.7662 38.5687 12.7662H38.5243V12.6631C38.6539 12.6631 38.787 12.6767 38.9164 12.6767C39.0188 12.6767 39.1174 12.6631 39.2201 12.6631L40.738 14.3833Z" fill="#D1DAE6"/>
<path d="M40.9361 15.1263L40.7949 15.1213L39.0644 13.1791V14.5553C39.0681 14.8539 39.1133 14.9384 39.3694 14.9415H39.4432V14.957V15.0749H39.4283C39.2805 15.0749 39.1341 15.061 38.9884 15.061C38.8354 15.061 38.6788 15.0749 38.5239 15.0749H38.5097V15.0601V14.9415H38.5239H38.5722C38.7971 14.9408 38.8617 14.7951 38.8645 14.5213V13.0749C38.864 12.892 38.7152 12.7811 38.5686 12.7808H38.5097V12.7663V12.6484H38.5239C38.6547 12.6484 38.7876 12.6616 38.9163 12.6616C39.0175 12.6616 39.1159 12.6484 39.2313 12.6535L40.7298 14.3523V13.0894C40.7288 12.8161 40.5472 12.7832 40.4474 12.7808H40.3578V12.7663V12.6485H40.3732C40.5337 12.6485 40.691 12.6616 40.8497 12.6616C40.9897 12.6616 41.1288 12.6485 41.2702 12.6485H41.2848V12.6632V12.7808H41.2702H41.2186C41.0783 12.7849 40.9332 12.7977 40.9303 13.2023V14.7649C40.9303 14.8849 40.9329 15.0046 40.9495 15.1096L40.9523 15.1263H40.9361V15.1263ZM40.8065 15.0963H40.9181C40.9032 14.9932 40.9006 14.8789 40.9006 14.7648V13.2022C40.9006 12.7894 41.0726 12.752 41.2187 12.7508H41.2556V12.6782C41.1211 12.6791 40.9862 12.6915 40.8498 12.6915C40.6946 12.6915 40.5421 12.6791 40.3877 12.6782V12.7508H40.4475C40.5532 12.752 40.7589 12.7989 40.7589 13.0894L40.7552 14.387L40.7488 14.3941L40.7379 14.4051L39.2201 12.6782C39.1195 12.6782 39.02 12.6915 38.9164 12.6915C38.7908 12.6915 38.6628 12.6792 38.5387 12.6782V12.7508H38.5687C38.7288 12.752 38.8937 12.8737 38.8937 13.0749V14.5213C38.8937 14.7958 38.8175 14.9715 38.5723 14.9725L38.5387 14.9722V15.0449C38.6867 15.0441 38.8386 15.0318 38.9885 15.0318C39.1306 15.0318 39.2718 15.0441 39.4135 15.0449V14.9725H39.3695C39.1018 14.9722 39.0349 14.8539 39.0349 14.5553V13.1017L40.8065 15.0963ZM40.7299 14.3767V14.3755L40.727 14.3729L40.7299 14.3767Z" fill="#D1DAE6"/>
<path d="M41.8184 14.5683C41.7851 14.6847 41.7437 14.7747 41.7437 14.8359C41.7437 14.9393 41.8873 14.9559 41.9992 14.9559H42.0372V15.0595C41.9008 15.0521 41.7608 15.0459 41.6243 15.0459C41.5011 15.0459 41.3788 15.0521 41.2565 15.0595V14.9559H41.2759C41.4095 14.9559 41.5226 14.8771 41.573 14.7326L42.1193 13.1569C42.1633 13.0297 42.225 12.8581 42.2449 12.7307C42.3542 12.6933 42.4904 12.6247 42.5559 12.5833C42.5656 12.5798 42.5724 12.5762 42.5828 12.5762C42.593 12.5762 42.5994 12.5762 42.6063 12.5869C42.6166 12.614 42.6273 12.6452 42.6375 12.6726L43.2647 14.4688C43.3056 14.5888 43.3463 14.7157 43.3912 14.819C43.4321 14.9152 43.504 14.9559 43.6161 14.9559H43.637V15.0595C43.4832 15.0521 43.3298 15.0459 43.1659 15.0459C42.9991 15.0459 42.8284 15.0521 42.6543 15.0595V14.9559H42.6922C42.7699 14.9559 42.9038 14.9426 42.9038 14.8566C42.9038 14.8121 42.8728 14.7195 42.8347 14.6093L42.7023 14.2109H41.928L41.8184 14.5683ZM42.317 13.0469H42.3102L41.9925 14.0188H42.6308L42.317 13.0469Z" fill="#D1DAE6"/>
<path d="M43.6355 15.0748C43.482 15.0686 43.3288 15.061 43.1658 15.061C42.9995 15.061 42.8288 15.0686 42.6547 15.0748L42.6396 15.0758V15.0601V14.942H42.6543H42.6914C42.7708 14.942 42.8884 14.9234 42.8886 14.8575C42.8893 14.8184 42.8586 14.7248 42.8205 14.6148L42.6909 14.2265H41.9381L41.8326 14.5734C41.7986 14.691 41.7579 14.7812 41.7586 14.8367C41.7586 14.921 41.8863 14.942 41.9992 14.942H42.0512V14.9567V15.0758L42.0361 15.0748C41.8996 15.0686 41.76 15.061 41.6243 15.061C41.502 15.061 41.3795 15.0686 41.2565 15.0748L41.2416 15.0758V15.0601V14.942H41.2565H41.2759C41.4031 14.9415 41.5096 14.8679 41.5592 14.7286L42.1051 13.1527C42.1486 13.0253 42.2101 12.8541 42.2403 12.7177C42.3475 12.6803 42.4844 12.6118 42.5507 12.5698C42.5596 12.5667 42.5689 12.5627 42.5828 12.5627C42.5918 12.5617 42.6093 12.5639 42.6202 12.5827C42.6303 12.6096 42.6403 12.6408 42.6516 12.6686L43.2788 14.4646C43.3195 14.5851 43.3605 14.712 43.4047 14.8141C43.4446 14.9051 43.5068 14.941 43.6156 14.942H43.6511V14.9567V15.0758L43.6355 15.0748ZM42.6689 15.0446C42.8375 15.0381 43.0036 15.0315 43.1658 15.0315C43.3245 15.0315 43.4733 15.0381 43.6218 15.0441L43.6213 14.9724H43.6156C43.5002 14.9727 43.4196 14.927 43.3772 14.8258C43.3323 14.7215 43.2917 14.5941 43.2509 14.4743L42.6232 12.6782C42.6131 12.6508 42.6027 12.6196 42.5944 12.5963C42.5916 12.592 42.5918 12.592 42.5892 12.592H42.5828C42.5757 12.592 42.5719 12.5944 42.5636 12.5967C42.4972 12.6389 42.3605 12.7074 42.2595 12.7339C42.2384 12.8639 42.1765 13.0351 42.1325 13.1624L41.5864 14.7386C41.5346 14.8877 41.4154 14.9727 41.2759 14.9724H41.2709V15.0441C41.3882 15.0381 41.5055 15.0315 41.6243 15.0315C41.7565 15.0315 41.891 15.0381 42.0223 15.0441V14.9724H41.9991C41.8882 14.971 41.7326 14.9589 41.7286 14.8367C41.7293 14.7686 41.7716 14.6812 41.8045 14.5648L41.8184 14.5693L41.8045 14.5643L41.9168 14.1972H42.7122L42.8489 14.6053C42.8865 14.7158 42.9175 14.807 42.9175 14.8574C42.9125 14.9629 42.7694 14.9703 42.6913 14.9724H42.6689V15.0446H42.6689ZM41.9722 14.0341L42.2993 13.0327H42.3096H42.317H42.3277L42.65 14.0341H41.9722ZM42.0131 14.0046H42.6096L42.313 13.0848L42.0131 14.0046Z" fill="#D1DAE6"/>
<path d="M44.4963 14.7235C44.4963 14.861 44.5909 14.9019 44.7001 14.9159C44.8399 14.9264 44.9934 14.9264 45.1509 14.909C45.2938 14.8917 45.4168 14.8093 45.4777 14.7235C45.5322 14.6478 45.5629 14.5516 45.5835 14.4762H45.6823C45.645 14.6719 45.5972 14.8647 45.5561 15.0602C45.2566 15.0602 44.9558 15.0466 44.6561 15.0466C44.3556 15.0466 44.0559 15.0602 43.7558 15.0602V14.9566H43.8026C43.9261 14.9566 44.0595 14.94 44.0595 14.7269V12.9621C44.0595 12.7831 43.9261 12.7662 43.8026 12.7662H43.7558V12.6631C43.936 12.6631 44.1136 12.6767 44.2941 12.6767C44.4686 12.6767 44.6389 12.6631 44.813 12.6631V12.7662H44.7271C44.598 12.7662 44.4963 12.77 44.4963 12.9514V14.7235Z" fill="#D1DAE6"/>
<path d="M45.5561 15.0748C45.2555 15.0748 44.9554 15.061 44.6562 15.061C44.3558 15.061 44.0557 15.0748 43.7551 15.0748H43.7407V15.0601V14.942H43.7551H43.8027C43.9263 14.9391 44.0432 14.9305 44.0446 14.727V12.9615C44.0432 12.7946 43.927 12.7832 43.8027 12.7808H43.7407V12.7663V12.6484H43.7551C43.9365 12.6484 44.1141 12.6615 44.2943 12.6615C44.4674 12.6615 44.6377 12.6484 44.813 12.6484H44.827V12.6632V12.7808H44.813H44.7274C44.5952 12.7846 44.5129 12.7784 44.5103 12.9515V14.7237C44.5112 14.8515 44.5945 14.886 44.7009 14.901C44.7612 14.9053 44.8243 14.9079 44.8901 14.9079C44.9736 14.9079 45.0604 14.9039 45.1484 14.8944C45.2874 14.878 45.4071 14.7972 45.4658 14.7153C45.5182 14.642 45.5485 14.5477 45.5689 14.4727L45.572 14.4613H45.5833H45.7004L45.6973 14.4794C45.6588 14.6758 45.6119 14.8677 45.5705 15.0632L45.5677 15.0749H45.5561H45.5561V15.0748ZM45.5438 15.0448C45.5833 14.8586 45.628 14.6765 45.6646 14.4908H45.5946C45.5733 14.5655 45.5431 14.6577 45.4894 14.7327C45.4258 14.8217 45.2995 14.9055 45.1516 14.9239C45.0623 14.9331 44.9738 14.9379 44.8901 14.9379C44.8241 14.9379 44.76 14.9348 44.6983 14.9305C44.5874 14.9181 44.4797 14.8705 44.4802 14.7236V12.9515C44.4802 12.7608 44.6001 12.751 44.7274 12.751H44.7978V12.6782C44.6297 12.6791 44.4642 12.6917 44.2943 12.6917C44.1176 12.6917 43.945 12.6791 43.77 12.6782V12.751H43.8026C43.9244 12.751 44.0734 12.7724 44.0734 12.9615V14.7269C44.0734 14.9491 43.9251 14.9722 43.8026 14.9722H43.77V15.0448C44.0649 15.0446 44.3598 15.0317 44.6562 15.0317C44.9525 15.0317 45.2487 15.0446 45.5438 15.0448Z" fill="#D1DAE6"/>
<path d="M45.641 12.5654C45.8465 12.5654 46 12.7245 46 12.9283C46 13.1311 45.8465 13.2888 45.641 13.2888C45.4354 13.2888 45.2817 13.1311 45.2817 12.9283C45.2817 12.7245 45.4354 12.5654 45.641 12.5654ZM45.641 13.2214C45.8015 13.2214 45.925 13.0833 45.925 12.9283C45.925 12.7723 45.8034 12.633 45.641 12.633C45.4794 12.633 45.356 12.7724 45.356 12.9283C45.356 13.0833 45.4794 13.2214 45.641 13.2214ZM45.4621 13.1188V13.1009C45.5063 13.0947 45.5144 13.0961 45.5144 13.0685V12.8009C45.5144 12.7633 45.5104 12.7505 45.4638 12.7523V12.734H45.6476C45.7109 12.734 45.7689 12.7642 45.7689 12.83C45.7689 12.8838 45.7334 12.9235 45.684 12.939L45.7429 13.0218C45.7705 13.0595 45.8015 13.0947 45.8221 13.1071V13.1187H45.7521C45.7185 13.1187 45.6892 13.0475 45.6229 12.9521H45.5832V13.0723C45.5832 13.0961 45.5915 13.0947 45.6357 13.1009V13.1187L45.4621 13.1188ZM45.5832 12.9283H45.6256C45.6719 12.9283 45.6937 12.8928 45.6937 12.8359C45.6937 12.7783 45.6601 12.758 45.6232 12.758H45.5832V12.9283Z" fill="#D1DAE6"/>
</svg>
