<svg xmlns="http://www.w3.org/2000/svg" width="24" height="24" fill="none" viewBox="0 0 24 24"><rect width="17.25" height="12.326" x="7.27" y="21.09" fill="#79c7ff" rx="3" transform="rotate(-77.184 7.27 21.09)"/><rect width="20.625" height="13.875" x="2.625" y="22.5" fill="#3998f8" rx="2.25" transform="rotate(-90 2.625 22.5)"/><path fill="#1768b9" d="M5.25 22.5V1.875h3V22.5z"/><circle cx="17.813" cy="17.813" r="6.188" fill="#1768b9"/><mask id="a" width="8" height="8" x="13.996" y="14" fill="#000" maskUnits="userSpaceOnUse"><path fill="#fff" d="M13.996 14h8v8h-8z"/><path d="M17.396 15a2.4 2.4 0 0 1 2.22 3.311c-.102.25-.154.375-.136.464s.096.168.253.325l1.132 1.131a.451.451 0 0 1-.639.638l-1.13-1.132c-.157-.156-.236-.235-.325-.253-.089-.017-.214.034-.464.137A2.4 2.4 0 1 1 17.396 15m.001.9a1.5 1.5 0 1 0 0 3 1.5 1.5 0 0 0 0-3"/></mask><path fill="#fff" d="M17.396 15a2.4 2.4 0 0 1 2.22 3.311c-.102.25-.154.375-.136.464s.096.168.253.325l1.132 1.131a.451.451 0 0 1-.639.638l-1.13-1.132c-.157-.156-.236-.235-.325-.253-.089-.017-.214.034-.464.137A2.4 2.4 0 1 1 17.396 15m.001.9a1.5 1.5 0 1 0 0 3 1.5 1.5 0 0 0 0-3"/><path fill="#fff" d="M17.396 15v-.1zm2.4 2.4h.1zm-.18.912.093.037zm-.136.463-.098.02zm.253.325.07-.071zm1.132 1.131.07-.07zm0 .638.07.07zm-.639 0-.07.07zm-1.13-1.132.07-.07zm-.325-.253.02-.098zm-.464.137.038.093zm-.911.179v.1zm-2.4-2.4h-.1zm2.401-1.5v-.1zm-1.5 1.5h-.1zm1.5 1.5v.1zm1.5-1.5h.1zM17.396 15v.1a2.3 2.3 0 0 1 2.3 2.3h.2a2.5 2.5 0 0 0-2.5-2.5zm2.4 2.4h-.1c0 .31-.061.605-.172.874l.093.037.092.038c.12-.292.186-.613.186-.949zm-.18.912-.092-.039q-.077.184-.116.3a.45.45 0 0 0-.026.222l.098-.02.098-.02c-.004-.018-.002-.05.02-.12.023-.07.06-.159.111-.286zm-.136.463-.098.02c.013.068.05.125.095.18.046.056.108.118.185.195l.07-.07.072-.071a3 3 0 0 1-.172-.18.2.2 0 0 1-.054-.093zm.253.325-.07.07 1.131 1.132.07-.07.072-.071-1.132-1.132zm1.132 1.131-.071.071a.35.35 0 0 1 0 .496l.07.071.072.07a.55.55 0 0 0 0-.778zm0 .638-.071-.07a.35.35 0 0 1-.497 0l-.07.07-.072.07a.55.55 0 0 0 .78 0zm-.639 0 .07-.07-1.13-1.132-.07.07-.072.071 1.131 1.132zm-1.13-1.132.07-.07q-.114-.117-.195-.185a.4.4 0 0 0-.18-.096l-.02.098-.02.098a.2.2 0 0 1 .093.054c.046.038.1.092.18.172zm-.325-.253.02-.098a.45.45 0 0 0-.222.026q-.116.039-.3.117l.038.092.038.093c.127-.052.216-.09.285-.111.07-.023.103-.024.121-.02zm-.464.137-.038-.092c-.269.11-.564.17-.873.17v.2c.336 0 .656-.065.95-.185zm-.911.179v-.1a2.3 2.3 0 0 1-2.3-2.3h-.2a2.5 2.5 0 0 0 2.5 2.5zm-2.4-2.4h.1a2.3 2.3 0 0 1 2.3-2.3v-.2a2.5 2.5 0 0 0-2.5 2.5zm2.401-1.5v-.1a1.6 1.6 0 0 0-1.6 1.6h.2a1.4 1.4 0 0 1 1.4-1.4zm-1.5 1.5h-.1a1.6 1.6 0 0 0 1.6 1.6v-.2a1.4 1.4 0 0 1-1.4-1.4zm1.5 1.5v.1a1.6 1.6 0 0 0 1.6-1.6h-.2a1.4 1.4 0 0 1-1.4 1.4zm1.5-1.5h.1a1.6 1.6 0 0 0-1.6-1.6v.2a1.4 1.4 0 0 1 1.4 1.4z" mask="url(#a)"/></svg>