<svg xmlns="http://www.w3.org/2000/svg" width="41" height="48" fill="none" viewBox="0 0 41 48"><rect width="40.615" height="40.615" y="7.384" fill="#0e2c4e" rx="20.308"/><path fill="#5cc06b" d="M20.83.014c5.366.272 9.632 4.708 9.632 10.14v3.958a.9.9 0 0 0 .336.696 16.58 16.58 0 0 1 6.125 12.884c0 9.177-7.44 16.616-16.616 16.616S3.692 36.868 3.692 27.692c0-5.198 2.388-9.838 6.126-12.885a.9.9 0 0 0 .336-.696v-3.957C10.154 4.546 14.7 0 20.308 0zm-.523 21.217a4.616 4.616 0 0 0-2.146 8.7c.192.102.3.314.3.53v2.77a1.847 1.847 0 1 0 3.693 0v-2.77a.59.59 0 0 1 .298-.528 4.614 4.614 0 0 0-2.145-8.702m.001-17.734a6.657 6.657 0 0 0-6.657 6.657v.974c0 .63.649 1.056 1.245.85a16.6 16.6 0 0 1 5.411-.9c1.896 0 3.717.317 5.413.902.597.205 1.245-.22 1.245-.851v-.975a6.66 6.66 0 0 0-6.657-6.657"/></svg>