<svg xmlns="http://www.w3.org/2000/svg" width="20" height="22" fill="none" viewBox="0 0 20 22"><path fill="#ff5a00" d="M12.698 6.283H7.286v9.433h5.412z"/><path fill="#eb001b" d="M7.646 10.999c0-1.916.929-3.617 2.354-4.716a6.27 6.27 0 0 0-3.815-1.284c-3.419 0-6.185 2.684-6.185 6s2.766 6 6.185 6A6.27 6.27 0 0 0 10 15.716a5.93 5.93 0 0 1-2.354-4.717"/><path fill="#f79e1b" d="M20 10.999c0 3.316-2.766 6-6.185 6A6.27 6.27 0 0 1 10 15.716c1.443-1.101 2.354-2.8 2.354-4.717S11.425 7.382 10 6.283a6.26 6.26 0 0 1 3.813-1.284c3.42 0 6.187 2.701 6.187 6"/></svg>