<svg xmlns="http://www.w3.org/2000/svg" width="24" height="24" fill="none" viewBox="0 0 24 24"><path fill="#fff" fill-rule="evenodd" d="M8.33 5.588a6.906 6.906 0 0 1 11.902 6.872l-1.079 2.39c-.318.705-.37 1.522-.423 2.339-.06.916-.119 1.83-.553 2.583a2.33 2.33 0 0 1-3.18.852L3.873 14.202a2.33 2.33 0 0 1-.853-3.18c.435-.753 1.2-1.262 1.964-1.772.682-.454 1.365-.909 1.818-1.538zM5.544 17.221c.068-.512.667-.674 1.086-.371a25 25 0 0 0 4.695 2.715c.47.21.628.808.22 1.12a3.75 3.75 0 0 1-6-3.464" clip-rule="evenodd"/></svg>