<svg xmlns="http://www.w3.org/2000/svg" width="64" height="22" fill="none" viewBox="0 0 64 22"><path fill="#5cc06b" d="M7.794 14.063c.237.076.423.136.773.103 1.23-.193 7.595-7.39 12.208-8.756a.3.3 0 0 0 .09-.044.13.13 0 0 0 .048-.057s.057-.17-.494-.347c-3.3-1.155-9.037 4.455-11.756 6.527-.037.025-.144-.046-.144-.046S7.766 9.668 6.885 8.8c-.023-.016-.128-.095-.257-.127-.085-.028-.61-.087-.916.068-.364.19-.408.347-.521.681a.6.6 0 0 0-.015.212c.114.524.764 2.464 1.447 3.64.109.152.247.494 1.17.79"/><path stroke="#5cc06b" stroke-linecap="round" stroke-linejoin="round" stroke-width="1.941" d="M16.515 11.439a7.43 7.43 0 0 1-1.503 4.468 7.77 7.77 0 0 1-3.925 2.74 8 8 0 0 1-4.83-.044 7.76 7.76 0 0 1-3.87-2.814 7.42 7.42 0 0 1-1.415-4.495 7.44 7.44 0 0 1 1.588-4.44 7.78 7.78 0 0 1 3.977-2.67 8 8 0 0 1 4.829.133"/><path fill="#d1dae6" d="M22.598 9.5V2.955h2.583q.745 0 1.268.284.525.281.8.783.278.499.278 1.15 0 .653-.282 1.151a1.94 1.94 0 0 1-.815.777q-.53.278-1.285.278H23.5v-1.11h1.422q.4 0 .658-.137a.9.9 0 0 0 .39-.386 1.2 1.2 0 0 0 .131-.572 1.2 1.2 0 0 0-.13-.57.88.88 0 0 0-.39-.38q-.262-.137-.666-.137h-.933V9.5zm11.603-4.254h-1.4a1.4 1.4 0 0 0-.157-.483 1.2 1.2 0 0 0-.303-.364 1.3 1.3 0 0 0-.429-.23 1.6 1.6 0 0 0-.52-.08q-.509 0-.886.253-.377.25-.585.728-.207.476-.207 1.157 0 .7.207 1.176.21.477.588.72.378.242.873.242.278 0 .514-.073.24-.074.425-.214.186-.144.307-.349.124-.204.173-.466l1.4.006q-.055.45-.272.87a2.6 2.6 0 0 1-.579.744q-.36.326-.862.518a3.2 3.2 0 0 1-1.129.188 3.1 3.1 0 0 1-1.566-.396 2.8 2.8 0 0 1-1.086-1.147q-.397-.75-.397-1.819 0-1.07.403-1.821.403-.752 1.093-1.145.69-.396 1.553-.396.57 0 1.055.16.49.16.866.466.378.304.614.745.24.44.307 1.01m2.376-2.291V9.5h-1.384V2.955zM42.119 9.5h-2.32V2.955h2.339q.987 0 1.7.393.712.39 1.096 1.121.387.732.387 1.752 0 1.023-.386 1.758-.384.735-1.103 1.128-.715.393-1.713.393m-.937-1.186h.88q.613 0 1.032-.217.421-.22.632-.68.215-.465.215-1.196 0-.726-.215-1.186a1.4 1.4 0 0 0-.63-.677q-.417-.218-1.031-.218h-.883zm8.715-3.477a.8.8 0 0 0-.33-.6q-.29-.216-.788-.215-.339 0-.573.096a.8.8 0 0 0-.358.259.62.62 0 0 0-.121.377.54.54 0 0 0 .074.307.8.8 0 0 0 .227.227q.143.092.332.163.189.066.403.115l.588.14q.427.097.786.256.358.16.62.393.262.234.406.55.147.316.15.725a1.8 1.8 0 0 1-.307 1.042q-.3.438-.87.681-.564.24-1.364.24-.793 0-1.38-.243a2 2 0 0 1-.915-.72q-.325-.479-.342-1.185h1.34q.021.33.188.55.17.217.45.329.285.108.643.109.352 0 .61-.103a.94.94 0 0 0 .407-.284.66.66 0 0 0 .143-.419.54.54 0 0 0-.13-.37A1 1 0 0 0 49.407 7a4 4 0 0 0-.604-.192l-.713-.179q-.828-.201-1.307-.63-.48-.428-.476-1.153a1.7 1.7 0 0 1 .316-1.04q.323-.442.886-.693.562-.249 1.278-.249.729 0 1.272.25.546.249.85.693.304.445.314 1.029zm5.898 0a.8.8 0 0 0-.33-.6q-.291-.216-.789-.215-.34 0-.572.096a.8.8 0 0 0-.358.259.62.62 0 0 0-.122.377q-.006.176.074.307a.8.8 0 0 0 .227.227q.144.092.332.163.189.066.403.115l.588.14q.429.097.786.256.359.16.62.393.262.234.406.55.147.316.15.725a1.8 1.8 0 0 1-.306 1.042q-.3.438-.87.681-.566.24-1.364.24-.793 0-1.381-.243a2 2 0 0 1-.914-.72q-.326-.479-.342-1.185h1.339q.023.33.189.55.169.217.45.329.285.108.643.109.352 0 .61-.103a.94.94 0 0 0 .406-.284.66.66 0 0 0 .144-.419.54.54 0 0 0-.131-.37A1 1 0 0 0 55.306 7a4 4 0 0 0-.604-.192l-.713-.179q-.828-.201-1.307-.63-.48-.428-.477-1.153a1.7 1.7 0 0 1 .317-1.04q.323-.442.885-.693.562-.249 1.279-.249.728 0 1.272.25.546.249.85.693.303.445.313 1.029zM26.742 16h-.616a1.28 1.28 0 0 0-.52-.805 1.4 1.4 0 0 0-.425-.21 1.7 1.7 0 0 0-.487-.069q-.462 0-.837.234a1.63 1.63 0 0 0-.595.688q-.218.456-.218 1.117 0 .66.218 1.116.222.454.595.688.375.234.837.234.255 0 .487-.07.234-.07.425-.206a1.3 1.3 0 0 0 .52-.808h.616q-.069.39-.253.699a1.9 1.9 0 0 1-1.071.85 2.3 2.3 0 0 1-.724.112q-.651 0-1.158-.319a2.2 2.2 0 0 1-.798-.904q-.291-.588-.291-1.393 0-.804.29-1.392.291-.585.799-.904a2.13 2.13 0 0 1 1.158-.319q.385 0 .724.112.34.112.614.329.273.213.457.522.184.305.253.698m5.292.954q0 .806-.29 1.393-.291.585-.799.904a2.13 2.13 0 0 1-1.158.319q-.651 0-1.158-.319a2.2 2.2 0 0 1-.798-.904q-.291-.588-.291-1.393 0-.804.29-1.392.292-.585.799-.904a2.13 2.13 0 0 1 1.158-.319q.651 0 1.158.319.507.318.798.905.291.586.291 1.391m-.596 0q0-.66-.222-1.116a1.6 1.6 0 0 0-.594-.688 1.54 1.54 0 0 0-.835-.234q-.462 0-.838.234a1.63 1.63 0 0 0-.594.688q-.219.456-.219 1.117 0 .66.22 1.116.22.454.593.688.376.234.838.234t.835-.234q.375-.233.594-.688.222-.456.221-1.117m1.633-2.545h.736l1.73 4.226h.06l1.73-4.226h.735V19.5h-.576v-3.868h-.05l-1.59 3.868h-.557l-1.59-3.868h-.05V19.5h-.577zm6.227 5.091v-5.09h1.72q.6 0 .98.215.383.214.567.58.183.365.184.815 0 .45-.184.818-.182.367-.562.586-.381.217-.975.217h-1.233v-.547h1.213q.41 0 .66-.142a.85.85 0 0 0 .36-.383q.114-.243.114-.55a1.3 1.3 0 0 0-.114-.546.8.8 0 0 0-.363-.378q-.252-.14-.666-.139h-1.084V19.5zm4.444 0v-5.09h.616v4.543h2.367v.547zm4.554-5.09v5.09h-.617v-5.09zm1.444 5.09h-.646l1.87-5.09h.636l1.87 5.09h-.647L51.3 15.214h-.04zm.24-1.989h2.604v.547H49.98zm8.319-3.102V19.5h-.597l-2.774-3.997h-.05V19.5h-.616v-5.09h.597l2.784 4.006h.05V14.41zm.955.547v-.547h3.818v.547h-1.6V19.5h-.617v-4.544z"/></svg>