<svg xmlns="http://www.w3.org/2000/svg" width="11" height="9" fill="none" viewBox="0 0 11 9"><path fill="url(#a)" fill-opacity=".8" fill-rule="evenodd" d="M7.42 2.922c-.088.433.095.8.404 1.144.244.271.232.622-.024.898-.323.346-.443.725-.368 1.206.058.365-.145.651-.51.721-.454.087-.769.315-.984.745-.177.353-.496.456-.845.278-.404-.206-.777-.209-1.182-.003-.365.186-.671.076-.867-.299-.207-.398-.494-.628-.928-.707-.433-.078-.603-.358-.542-.826a1.3 1.3 0 0 0-.298-1.02c-.368-.42-.367-.7.001-1.124.233-.268.341-.628.3-.988-.06-.518.104-.774.582-.867.406-.08.676-.301.87-.674q.314-.61.926-.302a1.2 1.2 0 0 0 1.082.001c.41-.204.713-.11.924.295.208.4.506.618.936.695.289.052.466.228.524.492a.8.8 0 0 1 0 .335m-3.366.276a.437.437 0 1 1-.67.562.437.437 0 0 1 .67-.562m1.687 2.01a.437.437 0 1 1-.67.563.437.437 0 0 1 .67-.562m-2.631.495a.29.29 0 0 1 .036-.41L5.604 3.23a.292.292 0 0 1 .375.447L3.52 5.739a.29.29 0 0 1-.411-.036" clip-rule="evenodd"/><defs><linearGradient id="a" x1="4.396" x2="4.5" y1="11.421" y2="1.657" gradientUnits="userSpaceOnUse"><stop stop-color="#999" stop-opacity=".1"/><stop offset="1" stop-color="#fff" stop-opacity=".6"/></linearGradient></defs></svg>