<svg xmlns="http://www.w3.org/2000/svg" width="45" height="22" fill="none" viewBox="0 0 45 22"><path fill="#008c44" d="M42.461 5.882 45 10.998l-5.337 5.118z"/><path fill="#f47920" d="m40.703 5.882 2.535 5.116-5.333 5.118z"/><path fill="#d1dae6" d="M0 14.255 2.531 5h4.047c1.265 0 2.11.203 2.54.622.426.415.509 1.093.251 2.046-.155.561-.392 1.033-.717 1.405q-.484.56-1.27.885.664.162.853.646.188.483-.042 1.409l-.307 1.293-.001.035q-.135.545.082.571l-.093.343H5.136a9 9 0 0 1 .044-.576 3 3 0 0 1 .07-.386l.254-.925q.195-.72.018-1.008-.178-.297-.816-.296h-1.15l-.878 3.19zm4.125-5.277h1.232q.65.002.947-.192c.197-.13.344-.35.43-.67q.132-.486-.06-.678-.193-.195-.913-.194H4.599zm12.758-1.552-1.866 6.829h-2.268l.279-1c-.4.397-.808.7-1.22.892q-.612.294-1.293.293c-.375 0-.697-.069-.956-.206a1.32 1.32 0 0 1-.59-.618q-.176-.359-.147-.89.03-.521.367-1.757l.967-3.543h2.48l-.965 3.527c-.14.516-.174.879-.105 1.077q.107.3.572.302.469.001.793-.35.328-.347.518-1.04l.957-3.516zm-.9 6.829L18.51 5h3.479c.767 0 1.361.046 1.785.147q.633.145 1 .475c.31.29.499.648.576 1.078.073.43.03.93-.13 1.519q-.425 1.55-1.488 2.381-1.065.821-2.636.822H19.47l-.773 2.833zm4.103-5.094h.874q.848 0 1.197-.207.337-.21.483-.735.146-.533-.075-.742-.215-.207-1.087-.207h-.873zm8.053 5.093.025-.649a4.5 4.5 0 0 1-1.212.678q-.608.22-1.3.22c-.703 0-1.193-.194-1.476-.569-.28-.375-.326-.915-.135-1.603q.274-1.019.977-1.498c.466-.324 1.245-.555 2.338-.703.138-.023.324-.042.556-.07.808-.095 1.262-.313 1.36-.67.05-.195.02-.339-.1-.427q-.173-.138-.641-.137c-.258 0-.466.054-.636.167s-.297.28-.383.515h-2.418q.329-1.155 1.334-1.739c.668-.395 1.548-.585 2.638-.585q.768-.002 1.377.154c.406.102.703.246.896.42q.357.328.418.74.067.412-.146 1.18l-1.04 3.808a.8.8 0 0 0-.022.337.4.4 0 0 0 .136.238l-.055.193zm.603-3.05a9 9 0 0 1-1.031.324q-1.002.274-1.126.725c-.056.193-.033.342.06.455q.137.16.475.161.619 0 .99-.314.367-.316.56-1c.023-.098.043-.168.055-.22zm1.906 5.742.55-2.021h.71c.238 0 .424-.048.556-.135q.201-.137.279-.445.038-.133.053-.292a3 3 0 0 0 0-.374l-.379-6.253h2.511l-.039 4.143 2.192-4.143h2.335l-3.875 6.796q-.66 1.14-.962 1.566-.299.425-.575.648-.361.308-.794.435-.435.129-1.32.129c-.17 0-.366-.003-.578-.015q-.317-.011-.664-.039"/></svg>