<svg width="16" height="16" viewBox="0 0 16 16" fill="none" xmlns="http://www.w3.org/2000/svg">
<circle cx="7.99502" cy="7.99502" r="6.665" fill="white"/>
<path fill-rule="evenodd" clip-rule="evenodd" d="M7.9998 14.6665C11.6817 14.6665 14.6665 11.6817 14.6665 7.9998C14.6665 4.3179 11.6817 1.33313 7.9998 1.33313C4.3179 1.33313 1.33313 4.3179 1.33313 7.9998C1.33313 11.6817 4.3179 14.6665 7.9998 14.6665ZM10.6665 8.66646C11.0347 8.66646 11.3331 8.36799 11.3331 7.9998C11.3331 7.63161 11.0347 7.33313 10.6665 7.33313H8.66646V4.66646C8.66646 4.29827 8.36799 3.9998 7.9998 3.9998C7.63161 3.9998 7.33313 4.29827 7.33313 4.66646V7.9998C7.33313 8.17661 7.40337 8.34618 7.52839 8.4712C7.65342 8.59623 7.82299 8.66646 7.9998 8.66646H10.6665Z" fill="#FFBD33"/>
</svg>
