<svg xmlns="http://www.w3.org/2000/svg" width="10" height="9" fill="none" viewBox="0 0 10 9"><path fill="url(#a)" fill-opacity=".8" fill-rule="evenodd" d="M3.4 2.027a.72.72 0 0 1 .704-.58h.491a.717.717 0 0 1 .717.762c-.008.13.043.267.155.333.121.07.28.037.393-.047a.68.68 0 0 1 1.01.213l.274.49a.724.724 0 0 1-.28.983c-.129.071-.237.203-.233.35l.001.096c-.001.143.103.269.228.339q.07.037.13.094c.25.225.31.596.147.887l-.274.49a.68.68 0 0 1-.96.247c-.125-.078-.291-.105-.417-.03-.122.073-.178.223-.173.365a.717.717 0 0 1-.717.741h-.492a.717.717 0 0 1-.717-.734c.003-.14-.054-.29-.175-.361l-.034-.02c-.12-.073-.275-.052-.398.016a.68.68 0 0 1-.932-.263l-.275-.49a.724.724 0 0 1 .261-.971c.118-.07.213-.19.213-.327v-.044c.002-.145-.103-.272-.23-.342a.724.724 0 0 1-.278-.982l.275-.49a.68.68 0 0 1 .97-.24c.124.08.292.11.42.034l.008-.004c.121-.071.178-.22.175-.361a.7.7 0 0 1 .013-.154m.95 3.724c.616 0 1.116-.514 1.116-1.147 0-.634-.5-1.148-1.116-1.148s-1.116.514-1.116 1.148.5 1.147 1.116 1.147" clip-rule="evenodd"/><defs><linearGradient id="a" x1="4.256" x2="4.358" y1="10.845" y2="2.039" gradientUnits="userSpaceOnUse"><stop stop-color="#999" stop-opacity=".1"/><stop offset="1" stop-color="#fff" stop-opacity=".6"/></linearGradient></defs></svg>