<svg xmlns="http://www.w3.org/2000/svg" width="13" height="11" fill="none" viewBox="0 0 13 11"><g clip-path="url(#a)"><path fill="#fff" fill-rule="evenodd" d="M2.106 2.053v-.01c0-.416.505-.623.797-.327a.465.465 0 0 0 .663 0l.287-.292a.715.715 0 0 1 1.02 0l.11.112a.715.715 0 0 0 1.018 0l.11-.112a.715.715 0 0 1 1.02 0l.287.292a.465.465 0 0 0 .663 0 .465.465 0 0 1 .797.327v.011c.258 2.703.27 4.22 0 6.88v.011a.465.465 0 0 1-.797.327.465.465 0 0 0-.663 0l-.288.292a.715.715 0 0 1-1.02 0l-.109-.111a.715.715 0 0 0-1.019 0l-.11.11a.715.715 0 0 1-1.019 0l-.287-.291a.465.465 0 0 0-.663 0 .465.465 0 0 1-.797-.327v-.01c-.24-2.687-.24-4.194 0-6.882m4.268 2.478h.286c.149 0 .27.118.27.262a.27.27 0 0 1-.27.262h-.231a.19.19 0 0 0-.17.128 1.15 1.15 0 0 1-1.084.745.124.124 0 0 0-.095.204l.966 1.158a.256.256 0 0 1-.04.37.28.28 0 0 1-.383-.04L4.131 5.83a.25.25 0 0 1-.033-.277.27.27 0 0 1 .244-.15h.833a.6.6 0 0 0 .397-.144c.092-.078.017-.204-.104-.204H4.342a.27.27 0 0 1-.271-.262c0-.144.122-.262.271-.262h1.059c.13 0 .2-.14.088-.207a.6.6 0 0 0-.314-.086h-.833a.27.27 0 0 1-.271-.263c0-.144.122-.262.271-.262H6.66c.149 0 .27.118.27.262a.27.27 0 0 1-.27.263h-.283c-.098 0-.161.11-.127.203.02.052.068.09.124.09" clip-rule="evenodd"/></g><defs><clipPath id="a"><path fill="#fff" d="M1.21 1.21h8.58v8.58H1.21z"/></clipPath></defs></svg>