<svg xmlns="http://www.w3.org/2000/svg" width="36" height="22" fill="none" viewBox="0 0 36 22"><path fill="#d1dae6" d="M15.606 16.8H12.67l1.836-11.593h2.938zM10.198 5.207l-2.8 7.974-.332-1.717-.988-5.213s-.12-1.044-1.394-1.044H.054L0 5.403s1.416.303 3.073 1.325L5.625 16.8h3.06L13.36 5.207zM33.303 16.8H36L33.648 5.207h-2.361c-1.09 0-1.356.864-1.356.864L25.55 16.8h3.062l.612-1.722h3.735zm-3.233-4.1 1.544-4.34.868 4.34zm-4.29-4.705.419-2.49S24.905 5 23.557 5c-1.458 0-4.92.654-4.92 3.838 0 2.995 4.063 3.032 4.063 4.605s-3.644 1.291-4.847.3l-.437 2.602s1.312.655 3.316.655c2.005 0 5.029-1.067 5.029-3.97 0-3.013-4.1-3.294-4.1-4.604s2.861-1.143 4.118-.431"/><path fill="#e6a540" d="m7.066 11.464-.988-5.213s-.12-1.044-1.394-1.044H.054L0 5.403s2.225.474 4.36 2.25c2.04 1.696 2.706 3.811 2.706 3.811"/></svg>