<svg xmlns="http://www.w3.org/2000/svg" width="237" height="145" fill="none" viewBox="0 0 237 145"><g clip-path="url(#a)"><rect width="237" height="145" fill="url(#b)" rx="20"/><path fill="url(#c)" d="M174.863-32.611h53.459v150.789h-53.459z" opacity=".24" transform="rotate(35.59 174.863 -32.611)"/><path fill="url(#d)" d="M210.863-26.867h56.459v150.789h-56.459z" opacity=".24" transform="rotate(35.59 210.863 -26.867)"/><g clip-path="url(#e)"><path fill="#473607" d="M20.058 64.811c.422-.811 1.033-1.015 1.851-.602a2.4 2.4 0 0 0 2.164 0c.823-.407 1.427-.22 1.848.59.417.802 1.013 1.236 1.873 1.391.578.104.932.456 1.048.984.048.218.042.45-.002.67-.176.866.19 1.599.808 2.288.488.542.464 1.244-.048 1.795-.646.694-.887 1.45-.736 2.412.116.73-.29 1.304-1.02 1.444-.907.174-1.537.63-1.968 1.49-.354.705-.994.912-1.69.556-.809-.413-1.554-.418-2.364-.006-.73.37-1.342.152-1.733-.599-.414-.795-.99-1.257-1.856-1.415-.866-.156-1.207-.716-1.085-1.651a2.6 2.6 0 0 0-.595-2.04c-.737-.841-.736-1.402 0-2.247a2.57 2.57 0 0 0 .601-1.977c-.118-1.036.207-1.549 1.163-1.735.813-.158 1.354-.602 1.74-1.348m5.424 7.607a.875.875 0 1 0-1.34 1.125.875.875 0 0 0 1.34-1.125m.547-3.886a.584.584 0 0 0-.822-.072l-4.915 4.125a.584.584 0 1 0 .75.893l4.915-4.124a.584.584 0 0 0 .072-.822m-3.921-.136a.876.876 0 1 0-1.342 1.126.876.876 0 0 0 1.342-1.126"/></g><path fill="#473300" d="M36.77 75v-.875l2.707-2.805q.434-.456.714-.8.285-.348.426-.66a1.6 1.6 0 0 0 .14-.665q0-.398-.187-.687a1.23 1.23 0 0 0-.511-.45 1.6 1.6 0 0 0-.73-.16q-.43 0-.75.176a1.2 1.2 0 0 0-.493.496 1.56 1.56 0 0 0-.172.75h-1.152q0-.73.336-1.277.335-.547.922-.848.585-.304 1.332-.304.753 0 1.328.3.578.298.902.813.324.512.324 1.156 0 .445-.168.871-.164.425-.574.95-.41.519-1.14 1.261l-1.59 1.664v.059h3.601V75zm6.406-1.562v-.977L46.633 67h.77v1.438h-.489l-2.473 3.914v.062h4.739v1.023zM46.969 75v-1.86l.008-.445V67h1.144v8zm8.341-1.328-4.492-4.492.739-.739 4.492 4.493zm-3.753 0-.739-.738 4.493-4.493.738.739zM58.137 75l3.492-6.906v-.059h-4.04V67h5.29v1.07L59.399 75zm10.773.133q-.57 0-1.031-.211a1.74 1.74 0 0 1-.73-.621q-.266-.407-.266-.996 0-.509.195-.836.195-.328.528-.52.33-.191.742-.289.41-.097.836-.148l.875-.102q.335-.042.488-.137.152-.094.152-.304v-.028q0-.51-.289-.793-.285-.28-.851-.28-.59 0-.93.26a1.4 1.4 0 0 0-.465.575l-1.098-.25q.195-.547.57-.883.38-.339.872-.492a3.4 3.4 0 0 1 1.035-.156q.36 0 .762.086.405.082.757.305.356.222.582.636.228.411.227 1.067V75h-1.14v-.82h-.047q-.114.226-.34.445a1.8 1.8 0 0 1-.582.363q-.355.145-.852.145m.254-.938q.484 0 .828-.191a1.34 1.34 0 0 0 .527-.5q.184-.312.184-.668v-.773a.6.6 0 0 1-.242.117 4 4 0 0 1-.402.09l-.442.066-.36.047a3 3 0 0 0-.62.144 1.1 1.1 0 0 0-.446.293q-.164.188-.164.5 0 .434.32.657.32.218.817.218m6.79.926q-.87 0-1.5-.394a2.6 2.6 0 0 1-.96-1.098q-.337-.699-.337-1.602 0-.914.344-1.613.344-.704.969-1.098.624-.394 1.472-.394.684 0 1.22.254.535.249.862.703.332.453.395 1.058h-1.137a1.36 1.36 0 0 0-.43-.726q-.331-.305-.89-.305-.488 0-.856.258-.363.255-.566.727-.203.468-.203 1.109 0 .657.2 1.133.198.477.562.738.366.262.863.262.332 0 .602-.121.273-.126.457-.356.187-.23.261-.554h1.137a2.2 2.2 0 0 1-.379 1.039 2.2 2.2 0 0 1-.848.718q-.527.262-1.238.262m6.241 0q-.87 0-1.5-.394a2.6 2.6 0 0 1-.96-1.098q-.337-.699-.337-1.602 0-.914.344-1.613.344-.704.969-1.098t1.473-.394q.683 0 1.218.254.535.249.864.703.331.453.394 1.058h-1.137a1.36 1.36 0 0 0-.43-.726q-.33-.305-.89-.305-.487 0-.855.258-.363.255-.567.727-.203.468-.203 1.109 0 .657.2 1.133.198.477.562.738.367.262.863.262.332 0 .602-.121.273-.126.457-.356.188-.23.261-.554h1.137a2.2 2.2 0 0 1-.379 1.039 2.2 2.2 0 0 1-.847.718q-.528.262-1.239.262m6.3 0q-.886 0-1.527-.379a2.57 2.57 0 0 1-.985-1.074q-.343-.696-.343-1.629 0-.922.343-1.625a2.67 2.67 0 0 1 .97-1.098q.624-.394 1.46-.394.509 0 .984.168.477.168.856.527.378.36.598.934.218.57.218 1.386v.415H86.3v-.875h3.626q0-.462-.188-.817-.187-.36-.527-.566a1.47 1.47 0 0 0-.79-.207q-.491 0-.859.242-.364.238-.562.625-.195.382-.195.832v.683q0 .603.21 1.024.216.422.598.644.384.22.895.22.332 0 .605-.094.274-.099.473-.29t.305-.472l1.105.199q-.132.488-.476.856a2.3 2.3 0 0 1-.856.566q-.511.2-1.168.2m8.366-4.656-1.058.187a1.3 1.3 0 0 0-.211-.386 1.05 1.05 0 0 0-.383-.301 1.4 1.4 0 0 0-.606-.117q-.495 0-.828.222-.332.219-.332.567 0 .3.223.484.222.184.719.3l.953.22q.828.19 1.234.59.406.398.406 1.035 0 .54-.312.96a2.05 2.05 0 0 1-.863.657q-.55.238-1.278.238-1.008 0-1.644-.43-.637-.433-.781-1.23l1.129-.172q.105.441.433.668.328.223.856.223.573 0 .918-.239.343-.242.343-.59a.61.61 0 0 0-.21-.472q-.207-.192-.637-.29l-1.016-.222q-.84-.19-1.242-.61-.399-.417-.399-1.058 0-.531.297-.93.297-.398.82-.62a3 3 0 0 1 1.2-.227q.972 0 1.531.422.558.418.738 1.12m5.898 0-1.059.187a1.2 1.2 0 0 0-.211-.386 1 1 0 0 0-.383-.301 1.4 1.4 0 0 0-.605-.117q-.496 0-.828.222-.332.219-.332.567 0 .3.223.484.222.184.718.3l.953.22q.828.19 1.235.59.406.398.406 1.035 0 .54-.313.96a2.04 2.04 0 0 1-.863.657q-.55.238-1.277.238-1.008 0-1.645-.43-.637-.433-.78-1.23l1.128-.172q.105.441.434.668.327.223.855.223.574 0 .918-.239.344-.242.344-.59a.62.62 0 0 0-.211-.472q-.207-.192-.637-.29l-1.015-.222q-.84-.19-1.243-.61-.398-.417-.398-1.058 0-.531.297-.93.297-.398.82-.62a3 3 0 0 1 1.199-.227q.973 0 1.532.422.558.418.738 1.12M109.872 69v.938h-3.277V69zm-2.398-1.437h1.168v5.675q0 .34.101.512a.53.53 0 0 0 .262.23q.164.06.355.06.141 0 .246-.02l.165-.032.21.965a2.3 2.3 0 0 1-.757.125 2.1 2.1 0 0 1-.86-.164 1.5 1.5 0 0 1-.644-.531q-.246-.36-.246-.902zm6.153 7.558q-.844 0-1.473-.387a2.6 2.6 0 0 1-.976-1.082q-.348-.695-.348-1.625 0-.933.348-1.633t.976-1.085q.63-.387 1.473-.387t1.473.387q.628.386.976 1.085.348.7.348 1.633 0 .93-.348 1.625a2.6 2.6 0 0 1-.976 1.082q-.63.387-1.473.387m.004-.98q.547 0 .906-.29.36-.288.531-.769.176-.48.176-1.059a3 3 0 0 0-.176-1.054 1.7 1.7 0 0 0-.531-.778q-.36-.293-.906-.293-.55 0-.914.293a1.74 1.74 0 0 0-.535.778q-.172.48-.172 1.054 0 .579.172 1.059.175.48.535.77.363.288.914.289m9.535.98q-.843 0-1.473-.387a2.6 2.6 0 0 1-.976-1.082q-.348-.695-.348-1.625 0-.933.348-1.633t.976-1.085q.63-.387 1.473-.387t1.473.387q.628.386.976 1.085.348.7.348 1.633 0 .93-.348 1.625a2.6 2.6 0 0 1-.976 1.082q-.63.387-1.473.387m.004-.98q.547 0 .906-.29.36-.288.531-.769.176-.48.176-1.059a3 3 0 0 0-.176-1.054 1.7 1.7 0 0 0-.531-.778q-.358-.293-.906-.293-.55 0-.914.293a1.74 1.74 0 0 0-.535.778q-.172.48-.172 1.054 0 .579.172 1.059.175.48.535.77.363.288.914.289M130.122 69v.938h-3.391V69zm-2.461 6v-6.695q0-.563.246-.934a1.5 1.5 0 0 1 .653-.558q.406-.189.882-.188.352 0 .602.059.25.054.371.101l-.273.946-.211-.055a1.2 1.2 0 0 0-.313-.035q-.426 0-.609.21-.18.211-.18.61V75zm6.522-6v.938h-3.391V69zm-2.461 6v-6.695q0-.563.246-.934.246-.375.652-.558.406-.189.883-.188.352 0 .601.059.25.054.372.101l-.274.946-.211-.055a1.2 1.2 0 0 0-.312-.035q-.426 0-.61.21-.179.211-.179.61V75zm6.015.121q-.886 0-1.527-.379a2.56 2.56 0 0 1-.984-1.074q-.344-.696-.344-1.629 0-.922.344-1.625.347-.704.968-1.098.626-.394 1.461-.394.508 0 .985.168.476.168.855.527.38.36.598.934.219.57.219 1.386v.415h-4.77v-.875h3.625q0-.462-.188-.817-.187-.36-.527-.566a1.47 1.47 0 0 0-.789-.207q-.492 0-.859.242a1.63 1.63 0 0 0-.563.625q-.195.382-.195.832v.683q0 .603.211 1.024.214.422.597.644.384.22.895.22.332 0 .605-.094.274-.099.473-.29a1.25 1.25 0 0 0 .305-.472l1.105.199q-.132.488-.476.856a2.3 2.3 0 0 1-.856.566 3.2 3.2 0 0 1-1.168.2m3.87-.121v-6h1.129v.953h.063q.164-.484.578-.762.418-.28.945-.28a5 5 0 0 1 .496.026v1.118a2 2 0 0 0-.25-.043 2.4 2.4 0 0 0-.359-.028q-.414 0-.738.176a1.3 1.3 0 0 0-.696 1.176V75zm8.718-4.535-1.058.187a1.3 1.3 0 0 0-.211-.386 1.05 1.05 0 0 0-.383-.301 1.4 1.4 0 0 0-.606-.117q-.495 0-.828.222-.332.219-.332.567 0 .3.223.484.222.184.719.3l.953.22q.828.19 1.234.59.406.398.406 1.035 0 .54-.312.96a2.05 2.05 0 0 1-.863.657q-.551.238-1.278.238-1.008 0-1.644-.43-.637-.433-.782-1.23l1.129-.172q.106.441.434.668.328.223.855.223.575 0 .918-.239.344-.242.344-.59a.61.61 0 0 0-.211-.472q-.207-.192-.636-.29l-1.016-.222q-.84-.19-1.242-.61-.399-.417-.399-1.058 0-.531.297-.93.297-.398.82-.62a3 3 0 0 1 1.2-.227q.972 0 1.531.422.558.418.738 1.12"/><path fill="#584309" d="M18.47 90.095c-.286.243-.371.603-.54 1.325a34 34 0 0 0-.286 1.327h4.77v-1.98c0-.156.131-.283.293-.283h.587c.162 0 .293.127.293.283v1.98h4.765c-.081-.42-.174-.852-.28-1.308-.17-.73-.254-1.094-.541-1.338-.287-.243-.674-.277-1.448-.345-2.241-.198-3.975-.206-6.184-.006-.762.069-1.143.103-1.43.345m10.077 3.784h-4.959v4.809a.3.3 0 0 1-.041.145 39 39 0 0 0 3.25-.19c.982-.097 1.473-.144 1.779-.49.306-.344.279-.816.224-1.76a27 27 0 0 0-.253-2.514m-6.091 4.952a.3.3 0 0 1-.041-.143v-4.81H17.45c-.12.812-.2 1.618-.25 2.507-.054.946-.08 1.42.226 1.764.307.345.8.392 1.79.487 1.161.111 2.21.177 3.238.195"/><path fill="#584309" fill-rule="evenodd" d="m20.205 88.298-.001.003c-.018.063-.012.1.036.159.068.084.212.192.46.303.254.113.562.205.882.276a4.6 4.6 0 0 0-.735-.51c-.303-.166-.525-.229-.642-.23m2.289.011c.301.272.585.586.74.884a.75.75 0 0 1 .076.49.74.74 0 0 1-.25.419.97.97 0 0 1-.733.206c-.634-.07-1.466-.226-2.121-.519-.326-.145-.66-.348-.893-.636a1.24 1.24 0 0 1-.241-1.15c.07-.248.207-.473.432-.63a1.2 1.2 0 0 1 .695-.206c.424 0 .865.18 1.228.379.38.208.756.483 1.067.763" clip-rule="evenodd"/><path fill="#584309" fill-rule="evenodd" d="M25.808 88.298v.003c.019.063.012.1-.036.159-.068.084-.211.192-.459.303a5 5 0 0 1-.882.276c.228-.192.485-.373.735-.51.303-.166.525-.229.642-.23m.036.002h-.001Zm-2.325.009c-.302.272-.585.586-.74.884a.75.75 0 0 0-.076.49c.035.179.134.32.25.419.217.185.5.232.733.206.633-.07 1.465-.226 2.12-.519.326-.145.661-.348.893-.636.252-.312.366-.711.242-1.15a1.13 1.13 0 0 0-.432-.63 1.2 1.2 0 0 0-.696-.206c-.424 0-.865.18-1.228.379-.38.208-.755.483-1.066.763" clip-rule="evenodd"/><path fill="#473300" d="M37.555 97h-1.282l2.88-8h1.394l2.879 8h-1.282l-2.261-6.547h-.063zm.215-3.133h4.156v1.016h-4.157zm9.148 3.254q-.87 0-1.5-.394a2.6 2.6 0 0 1-.961-1.098q-.336-.699-.336-1.602 0-.914.344-1.613.343-.704.969-1.098.624-.394 1.472-.394.684 0 1.219.254.536.249.863.703.333.453.395 1.058h-1.137a1.36 1.36 0 0 0-.43-.726q-.331-.305-.89-.305-.488 0-.856.258-.362.255-.566.727-.204.468-.203 1.109 0 .657.199 1.133.199.477.563.738.366.262.863.262.332 0 .601-.121.274-.126.457-.356.188-.23.262-.554h1.137a2.2 2.2 0 0 1-.38 1.039 2.2 2.2 0 0 1-.847.718q-.527.262-1.238.262m6.241 0q-.87 0-1.5-.394a2.6 2.6 0 0 1-.96-1.098q-.337-.699-.337-1.602 0-.914.344-1.613.344-.704.969-1.098t1.473-.394q.682 0 1.218.254.536.249.864.703.33.453.394 1.058h-1.137a1.36 1.36 0 0 0-.43-.726q-.331-.305-.89-.305-.488 0-.855.258-.364.255-.567.727-.203.468-.203 1.109 0 .657.2 1.133.199.477.562.738.366.262.863.262.332 0 .602-.121.273-.126.457-.356.188-.23.261-.554h1.137a2.2 2.2 0 0 1-.379 1.039 2.2 2.2 0 0 1-.847.718q-.528.262-1.239.262m6.3 0q-.886 0-1.527-.379a2.57 2.57 0 0 1-.985-1.074q-.344-.696-.344-1.629 0-.922.344-1.625.348-.704.969-1.098.626-.394 1.461-.394.508 0 .984.168.477.168.856.527.379.36.598.934.218.57.218 1.386v.415h-4.77v-.875h3.626q0-.462-.188-.817-.187-.36-.527-.566a1.47 1.47 0 0 0-.79-.207q-.491 0-.859.242-.363.238-.562.625-.195.382-.195.832v.683q0 .603.21 1.024.216.422.598.644.383.22.895.22.332 0 .605-.094.273-.098.473-.29t.304-.472l1.106.199q-.133.488-.477.856a2.3 2.3 0 0 1-.855.566q-.511.2-1.168.2M64.497 89v8H63.33v-8zm4.157 8.121q-.886 0-1.527-.379a2.57 2.57 0 0 1-.984-1.074q-.345-.696-.344-1.629 0-.922.344-1.625.347-.704.968-1.098.625-.394 1.461-.394.508 0 .985.168.475.168.855.527.38.36.598.934.219.57.218 1.386v.415H66.46v-.875h3.625q0-.462-.187-.817-.188-.36-.528-.566a1.47 1.47 0 0 0-.789-.207q-.492 0-.86.242-.363.238-.562.625-.195.382-.195.832v.683q0 .603.21 1.024.216.422.599.644.382.22.894.22.332 0 .606-.094.273-.098.472-.29t.305-.472l1.105.199q-.132.488-.476.856a2.3 2.3 0 0 1-.856.566q-.51.2-1.168.2m3.87-.121v-6h1.13v.953h.062a1.45 1.45 0 0 1 .578-.762q.418-.28.945-.28a5 5 0 0 1 .496.026v1.118a2 2 0 0 0-.25-.043 2.4 2.4 0 0 0-.359-.028q-.414 0-.738.176a1.31 1.31 0 0 0-.696 1.176V97zm5.915.133q-.57 0-1.032-.211a1.74 1.74 0 0 1-.73-.621q-.266-.407-.266-.996 0-.509.195-.836.195-.328.528-.52.332-.191.742-.289a7 7 0 0 1 .836-.148l.875-.102q.336-.042.488-.137.153-.094.153-.304v-.028q0-.51-.29-.793-.285-.28-.851-.28-.59 0-.93.26a1.4 1.4 0 0 0-.465.575l-1.097-.25q.195-.547.57-.883.38-.339.871-.492a3.4 3.4 0 0 1 1.035-.156q.36 0 .762.086.405.082.758.305.355.222.582.636.226.411.226 1.067V97h-1.14v-.82h-.047q-.114.226-.34.445a1.8 1.8 0 0 1-.582.363q-.355.145-.852.145m.253-.938q.485 0 .829-.191a1.34 1.34 0 0 0 .527-.5q.183-.312.183-.668v-.773a.6.6 0 0 1-.242.117 4 4 0 0 1-.402.09l-.442.066-.359.047a3 3 0 0 0-.621.144 1.1 1.1 0 0 0-.445.293q-.165.188-.164.5 0 .434.32.657.32.218.816.218M85.756 91v.938h-3.278V91zm-2.399-1.437h1.168v5.675q0 .34.102.512a.53.53 0 0 0 .262.23q.164.06.355.06.141 0 .246-.02l.164-.032.211.965a2.3 2.3 0 0 1-.758.125 2.1 2.1 0 0 1-.859-.164 1.47 1.47 0 0 1-.645-.531q-.245-.36-.246-.902zm6.212 7.558q-.886 0-1.527-.379a2.57 2.57 0 0 1-.984-1.074q-.344-.696-.344-1.629 0-.922.344-1.625.347-.704.968-1.098.626-.394 1.461-.394.508 0 .985.168.476.168.855.527.38.36.598.934.219.57.219 1.386v.415h-4.77v-.875h3.625q0-.462-.187-.817-.188-.36-.528-.566a1.47 1.47 0 0 0-.789-.207q-.492 0-.86.242-.362.238-.562.625-.195.382-.195.832v.683q0 .603.21 1.024.216.422.599.644.382.22.894.22.332 0 .605-.094.274-.098.473-.29.2-.191.305-.472l1.105.199q-.132.488-.476.856a2.3 2.3 0 0 1-.856.566q-.51.2-1.168.2m6.117-.004q-.727 0-1.297-.37-.567-.375-.891-1.067-.32-.696-.32-1.668 0-.973.324-1.664.328-.691.898-1.059.57-.367 1.293-.367.559 0 .899.187.344.184.531.43.192.246.297.434h.07V89h1.168v8h-1.14v-.934h-.098q-.105.192-.305.438-.195.246-.539.43-.344.183-.89.183m.257-.996q.504 0 .852-.265.351-.27.531-.747.184-.476.184-1.109 0-.625-.18-1.094a1.6 1.6 0 0 0-.527-.73q-.348-.262-.86-.262-.526 0-.879.273a1.67 1.67 0 0 0-.53.747q-.177.472-.177 1.066 0 .602.18 1.082t.531.762q.356.277.875.277"/><g clip-path="url(#f)"><path fill="#473300" d="M103.795 97v-6.005h1.144v.967h.064q.167-.495.58-.773.415-.28.94-.28.114 0 .258.01.145.007.242.022v1.128a1.5 1.5 0 0 0-.247-.043 3 3 0 0 0-.371-.021q-.408 0-.736.172a1.27 1.27 0 0 0-.51.478q-.182.3-.182.698V97zm6.628.124q-.886 0-1.531-.382a2.55 2.55 0 0 1-.994-1.074q-.343-.693-.343-1.628 0-.923.338-1.627.343-.703.967-1.096.623-.397 1.461-.397.516 0 .993.172.479.166.86.526.382.36.601.935.226.57.226 1.386v.418h-4.786v-.88h4.179l-.553.29a2.5 2.5 0 0 0-.172-.973 1.45 1.45 0 0 0-.51-.66q-.334-.237-.838-.237-.5 0-.854.242a1.57 1.57 0 0 0-.543.64 2 2 0 0 0-.182.859v.601q0 .618.209 1.048.215.423.596.644.382.215.887.215.333 0 .601-.091.268-.097.462-.285.2-.193.301-.473l1.112.264a2.04 2.04 0 0 1-.489.816 2.3 2.3 0 0 1-.849.553 3.2 3.2 0 0 1-1.149.194m5.011-.124-1.805-6.005h1.246l.661 2.487q.145.558.312 1.246.166.683.322 1.541h-.172q.156-.826.322-1.514.167-.688.317-1.273l.661-2.487h1.181l.65 2.487q.15.57.312 1.257.166.687.322 1.53h-.177q.161-.832.322-1.52.161-.687.312-1.267l.66-2.487h1.257L120.327 97h-1.187l-.741-2.584a25 25 0 0 1-.22-.816 42 42 0 0 1-.21-.875 74 74 0 0 0-.209-.887h.241l-.209.887q-.102.445-.209.88-.107.43-.221.811L116.621 97zm9.475.134q-.57 0-1.032-.21a1.7 1.7 0 0 1-.73-.622q-.269-.408-.269-1 0-.51.194-.837a1.5 1.5 0 0 1 .532-.521q.338-.195.746-.29a7 7 0 0 1 .838-.145q.531-.065.865-.102.333-.043.489-.135.16-.096.161-.306v-.032q0-.338-.129-.57a.85.85 0 0 0-.387-.354 1.4 1.4 0 0 0-.634-.129q-.392 0-.677.124-.279.118-.456.306a1.4 1.4 0 0 0-.258.392l-1.112-.29q.204-.537.586-.865a2.4 2.4 0 0 1 .875-.478 3.5 3.5 0 0 1 1.794-.064q.408.086.768.311t.586.634q.225.408.225 1.064V97h-1.144v-.822h-.059a1.7 1.7 0 0 1-.349.451 1.9 1.9 0 0 1-.585.366q-.35.14-.838.14m.263-.95a1.7 1.7 0 0 0 .827-.188q.344-.189.526-.5.183-.312.183-.66v-.769a.6.6 0 0 1-.247.119 5 5 0 0 1-.408.09q-.231.038-.446.065-.214.028-.355.043a3 3 0 0 0-.612.145 1.1 1.1 0 0 0-.44.29q-.161.189-.161.5 0 .285.145.478.15.193.402.29.253.096.586.097m4.307.816v-6.005h1.145v.967h.064a1.47 1.47 0 0 1 .58-.773q.414-.28.94-.28.112 0 .258.01.144.007.242.022v1.128a1.5 1.5 0 0 0-.248-.043 3 3 0 0 0-.37-.021 1.56 1.56 0 0 0-.736.172 1.26 1.26 0 0 0-.51.478q-.183.3-.183.698V97zm6.274.118q-.73 0-1.3-.37a2.5 2.5 0 0 1-.891-1.07q-.323-.698-.323-1.664 0-.978.328-1.67.327-.694.897-1.059a2.33 2.33 0 0 1 1.289-.365q.558 0 .897.188.344.183.537.43t.295.435h.065v-2.976h1.182V97h-1.15v-.94h-.097a3 3 0 0 1-.3.44 1.8 1.8 0 0 1-.543.436q-.343.182-.886.182m.258-1.004q.504 0 .848-.269.35-.268.527-.741a3.1 3.1 0 0 0 .182-1.101q0-.628-.177-1.09a1.57 1.57 0 0 0-.526-.725q-.344-.264-.854-.264-.522 0-.87.274-.345.275-.521.747a3 3 0 0 0-.172 1.058q0 .596.177 1.074.178.478.526.758.35.279.86.279m7.24 3.131v-8.25h1.149v.978h.097q.108-.188.295-.435.194-.247.532-.43.344-.188.908-.188.72 0 1.284.365.569.365.897 1.058.327.693.327 1.67 0 .967-.322 1.666-.322.693-.892 1.069-.564.37-1.294.37-.543 0-.892-.182a1.8 1.8 0 0 1-.542-.436 3.5 3.5 0 0 1-.301-.44h-.064v3.185zm2.718-3.131q.515 0 .864-.28.35-.279.521-.757.178-.479.178-1.074 0-.591-.178-1.058a1.63 1.63 0 0 0-.521-.747q-.344-.273-.864-.274-.506 0-.854.263a1.57 1.57 0 0 0-.527.726 3 3 0 0 0-.177 1.09q0 .622.177 1.101.183.473.532.741.35.27.849.269m6.606 1.01q-.843 0-1.477-.387a2.6 2.6 0 0 1-.977-1.085q-.35-.698-.35-1.622 0-.935.35-1.633.348-.705.977-1.09.634-.387 1.477-.387.849 0 1.477.387.634.385.983 1.09.35.698.349 1.633 0 .924-.349 1.622t-.983 1.085q-.628.387-1.477.387m0-1q.548 0 .903-.284.36-.29.531-.763.177-.478.178-1.047 0-.574-.178-1.053a1.66 1.66 0 0 0-.531-.768q-.356-.29-.903-.29-.541 0-.897.29-.354.285-.532.763a3.1 3.1 0 0 0-.171 1.058q0 .57.171 1.047.178.473.532.763.356.284.897.284M156.7 97v-6.005h1.182V97zm.596-6.923a.75.75 0 0 1-.526-.204.66.66 0 0 1-.215-.495q0-.295.215-.5a.75.75 0 0 1 .526-.203.75.75 0 0 1 .527.204q.22.204.22.5a.65.65 0 0 1-.22.494.75.75 0 0 1-.527.204m3.357 3.367V97h-1.181v-6.005h1.128l.01 1.472h-.123q.263-.806.763-1.177.499-.37 1.208-.37.612 0 1.069.258t.714.762q.258.5.258 1.246V97h-1.182v-3.668q0-.65-.338-1.016-.339-.365-.929-.365-.397 0-.715.177a1.24 1.24 0 0 0-.499.505q-.183.333-.183.811m8.003-2.449v.962h-3.255v-.962zm-2.379-1.429h1.181v5.812q0 .36.151.532.156.166.505.166.091 0 .241-.021.151-.022.258-.043l.21.945a2 2 0 0 1-.403.091 3 3 0 0 1-.424.033q-.817 0-1.268-.42-.451-.424-.451-1.186zm5.618 7.558q-.65 0-1.16-.188a2.1 2.1 0 0 1-.833-.554 1.93 1.93 0 0 1-.429-.902l1.111-.231q.124.468.462.693.339.225.86.226.569 0 .907-.237.339-.241.339-.575a.61.61 0 0 0-.21-.478q-.204-.187-.633-.279l-1.01-.23q-.838-.19-1.246-.602-.408-.414-.408-1.058 0-.538.3-.94.302-.404.822-.624.52-.225 1.203-.225.65 0 1.112.188.462.187.747.526.29.339.413.784l-1.058.231a1.3 1.3 0 0 0-.392-.553q-.28-.241-.811-.242-.489 0-.816.22-.328.221-.328.56 0 .3.215.488.22.182.714.296l.967.214q.833.189 1.235.591.403.403.403 1.031 0 .549-.317.973-.311.42-.87.66-.553.237-1.289.237"/></g><g clip-path="url(#g)"><path fill="#473607" d="M27.865 109.948c.514.514.603 1.323.184 1.919a25 25 0 0 1-1.847 2.328.37.37 0 0 0-.093.229l-.268 5.906a.605.605 0 0 1-1.177.164l-1.055-3.167a.367.367 0 0 0-.58-.167 97 97 0 0 1-1.858 1.463.73.73 0 0 0-.274.457l-.206 1.244a.91.91 0 0 1-.83.752.763.763 0 0 1-.81-.635l-.158-.917a.73.73 0 0 0-.594-.594l-.917-.158a.764.764 0 0 1-.636-.811.91.91 0 0 1 .753-.83l1.242-.206a.73.73 0 0 0 .462-.28c.508-.676.968-1.292 1.42-1.871a.368.368 0 0 0-.171-.575l-3.122-1.04a.606.606 0 0 1 .16-1.179l5.86-.309a.37.37 0 0 0 .222-.091 24 24 0 0 1 2.385-1.828 1.504 1.504 0 0 1 1.908.196"/></g><path fill="#473300" d="M36.879 119v-8h2.852q.93 0 1.542.32.618.32.922.887.305.563.305 1.301 0 .734-.309 1.293-.304.555-.922.863-.613.309-1.542.309h-2.16v-1.039h2.05q.586 0 .953-.168a1.1 1.1 0 0 0 .543-.489q.172-.32.172-.769 0-.453-.176-.785a1.13 1.13 0 0 0-.543-.508q-.367-.18-.964-.18h-1.516V119zm3.95-3.609L42.804 119H41.43l-1.938-3.609zm5.557 3.73q-.886 0-1.528-.379a2.57 2.57 0 0 1-.984-1.074q-.344-.696-.344-1.629 0-.922.344-1.625.348-.703.969-1.098.624-.394 1.46-.394.509 0 .985.168.477.168.856.527.378.36.597.934.219.57.219 1.386v.415h-4.77v-.875h3.625q0-.462-.187-.817a1.42 1.42 0 0 0-1.316-.773q-.493 0-.86.242-.364.238-.562.625-.196.382-.196.832v.684q0 .602.211 1.023.215.422.598.644.382.219.895.219.331 0 .605-.094a1.25 1.25 0 0 0 .777-.761l1.106.199a2 2 0 0 1-.477.855 2.3 2.3 0 0 1-.855.567q-.511.2-1.168.199m6.116-.004q-.727 0-1.297-.371-.566-.375-.89-1.066-.32-.696-.32-1.668 0-.973.323-1.664.33-.691.899-1.059.57-.367 1.293-.367.558 0 .898.187.345.184.532.43.19.246.296.434h.07V111h1.169v8h-1.141v-.934h-.098q-.105.192-.304.438-.195.246-.54.43-.344.183-.89.183m.258-.996q.504 0 .851-.266.352-.269.532-.746a3.1 3.1 0 0 0 .183-1.109q0-.625-.18-1.094a1.6 1.6 0 0 0-.527-.73q-.347-.262-.86-.262-.526 0-.878.274-.352.273-.531.746a3 3 0 0 0-.176 1.066q0 .602.18 1.082t.53.762q.357.277.876.277m6.968 1q-.887 0-1.528-.379a2.57 2.57 0 0 1-.984-1.074q-.345-.696-.344-1.629 0-.922.344-1.625.347-.703.969-1.098.624-.394 1.46-.394.508 0 .985.168t.855.527q.38.36.598.934.219.57.219 1.386v.415h-4.77v-.875h3.625q0-.462-.187-.817a1.42 1.42 0 0 0-1.317-.773q-.492 0-.86.242-.362.238-.562.625-.195.382-.195.832v.684q0 .602.211 1.023.215.422.598.644.383.219.894.219.332 0 .606-.094a1.25 1.25 0 0 0 .777-.761l1.105.199a2 2 0 0 1-.476.855 2.3 2.3 0 0 1-.855.567q-.513.2-1.169.199m6.456 0q-.887 0-1.528-.379a2.57 2.57 0 0 1-.984-1.074q-.344-.696-.344-1.629 0-.922.344-1.625.348-.703.969-1.098.624-.394 1.46-.394.509 0 .985.168.477.168.855.527.38.36.598.934.219.57.219 1.386v.415h-4.77v-.875h3.625q0-.462-.187-.817a1.42 1.42 0 0 0-1.317-.773q-.492 0-.859.242-.364.238-.562.625-.195.382-.196.832v.684q0 .602.211 1.023.215.422.598.644.383.219.894.219.333 0 .606-.094a1.25 1.25 0 0 0 .777-.761l1.106.199a2 2 0 0 1-.477.855 2.3 2.3 0 0 1-.855.567q-.512.2-1.168.199m3.87-.121v-6h1.12v.977h.075q.188-.497.613-.774.426-.28 1.02-.281.6 0 1.008.281.41.281.605.774h.063q.214-.481.683-.766.47-.29 1.117-.289.818 0 1.332.512.52.511.52 1.543V119h-1.168v-3.914q0-.61-.332-.883a1.2 1.2 0 0 0-.793-.273q-.57 0-.887.351-.315.348-.316.895V119H73.55v-3.988q0-.49-.305-.785-.304-.297-.793-.297-.332 0-.613.175a1.3 1.3 0 0 0-.45.481 1.5 1.5 0 0 0-.167.715V119zm12.632 0v-6h1.13v.953h.062q.165-.484.578-.762.419-.28.945-.281a5 5 0 0 1 .496.027v1.118a2 2 0 0 0-.25-.043 2.3 2.3 0 0 0-.359-.028q-.414 0-.738.176a1.31 1.31 0 0 0-.695 1.176V119zm6.593.121q-.886 0-1.527-.379a2.57 2.57 0 0 1-.984-1.074q-.345-.696-.344-1.629 0-.922.344-1.625.347-.703.968-1.098.625-.394 1.461-.394.508 0 .985.168.475.168.855.527.38.36.598.934.219.57.218 1.386v.415h-4.769v-.875h3.625q0-.462-.187-.817a1.42 1.42 0 0 0-1.317-.773q-.492 0-.86.242-.363.238-.562.625-.195.382-.195.832v.684q0 .602.21 1.023.215.422.599.644.382.219.894.219.332 0 .606-.094a1.25 1.25 0 0 0 .777-.761l1.105.199a2 2 0 0 1-.476.855 2.3 2.3 0 0 1-.856.567q-.51.2-1.168.199m5.16-.121-1.765-6h1.207l1.176 4.406h.058l1.18-4.406h1.207l1.172 4.387h.058L99.9 113h1.207l-1.761 6h-1.192l-1.218-4.332h-.09L95.627 119zm9.523.133q-.57 0-1.031-.211a1.73 1.73 0 0 1-.731-.621q-.265-.406-.265-.996 0-.509.195-.836.195-.328.527-.52.333-.191.742-.289.41-.097.836-.148l.875-.102q.336-.042.489-.137.152-.094.152-.304v-.028q0-.511-.289-.793-.285-.28-.852-.281-.59 0-.929.262a1.4 1.4 0 0 0-.465.574l-1.098-.25q.195-.547.57-.883.379-.339.872-.492a3.4 3.4 0 0 1 1.035-.156q.359 0 .761.086.407.082.758.304.355.223.582.637.227.41.227 1.067V119h-1.141v-.82h-.047a1.7 1.7 0 0 1-.339.445 1.8 1.8 0 0 1-.583.363 2.2 2.2 0 0 1-.851.145m.254-.938q.484 0 .828-.191a1.34 1.34 0 0 0 .527-.5 1.3 1.3 0 0 0 .184-.668v-.774a.6.6 0 0 1-.242.118 4 4 0 0 1-.403.09l-.441.066-.359.047a3 3 0 0 0-.622.144 1.1 1.1 0 0 0-.445.293q-.164.188-.164.5 0 .434.32.657.32.218.817.218m4.263.805v-6h1.128v.953h.063a1.45 1.45 0 0 1 .578-.762 1.66 1.66 0 0 1 .945-.281 5 5 0 0 1 .496.027v1.118a2 2 0 0 0-.25-.043 2 2 0 0 0-.359-.028q-.414 0-.738.176a1.31 1.31 0 0 0-.696 1.176V119zm6.252.117q-.726 0-1.296-.371-.567-.375-.891-1.066-.32-.696-.32-1.668 0-.973.324-1.664.328-.691.898-1.059.57-.367 1.293-.367.559 0 .899.187.344.184.531.43.192.246.297.434h.07V111h1.168v8h-1.141v-.934h-.097a3 3 0 0 1-.305.438q-.195.246-.539.43-.344.183-.891.183m.258-.996q.504 0 .852-.266.351-.269.531-.746a3.1 3.1 0 0 0 .184-1.109q0-.625-.18-1.094a1.6 1.6 0 0 0-.527-.73q-.348-.262-.86-.262-.527 0-.879.274-.351.273-.531.746-.176.472-.176 1.066 0 .602.18 1.082t.531.762q.356.277.875.277m7.293 3.129V113h1.141v.973h.098q.101-.188.292-.434a1.7 1.7 0 0 1 .532-.43q.34-.187.898-.187.727 0 1.297.367.57.368.895 1.059.327.691.328 1.664 0 .972-.325 1.668-.324.691-.89 1.066a2.3 2.3 0 0 1-1.293.371q-.547 0-.895-.183a1.7 1.7 0 0 1-.539-.43q-.195-.246-.3-.438h-.071v3.184zm1.145-5.25q0 .633.183 1.109.184.477.532.746.347.266.851.266.524 0 .875-.277.353-.282.531-.762.184-.48.184-1.082 0-.594-.18-1.066a1.6 1.6 0 0 0-.531-.746q-.351-.274-.879-.274-.507 0-.859.262a1.6 1.6 0 0 0-.528.73 3.1 3.1 0 0 0-.179 1.094m8.172 3.121q-.844 0-1.473-.387a2.6 2.6 0 0 1-.977-1.082q-.347-.695-.347-1.625 0-.933.347-1.632.348-.7.977-1.086t1.473-.387q.843 0 1.472.387.63.386.977 1.086.348.699.348 1.632 0 .93-.348 1.625a2.6 2.6 0 0 1-.977 1.082q-.629.387-1.472.387m.004-.98q.546 0 .906-.289.359-.29.531-.77.176-.48.176-1.059 0-.573-.176-1.054a1.73 1.73 0 0 0-.531-.778q-.36-.293-.906-.293-.551 0-.915.293a1.76 1.76 0 0 0-.535.778q-.172.48-.172 1.054 0 .579.172 1.059.177.48.535.77.364.288.915.289m4.096.859v-6h1.168v6zm.59-6.926a.74.74 0 0 1-.523-.203.66.66 0 0 1-.215-.492q0-.29.215-.492a.73.73 0 0 1 .523-.207q.304 0 .52.207a.65.65 0 0 1 .218.492q0 .285-.218.492a.73.73 0 0 1-.52.203m3.317 3.363V119h-1.168v-6h1.122v.977h.074q.207-.477.648-.766.446-.29 1.121-.289.613 0 1.075.258.46.254.714.757.254.504.254 1.247V119h-1.168v-3.676q0-.653-.34-1.019-.339-.372-.933-.371-.406 0-.723.175a1.27 1.27 0 0 0-.496.516 1.7 1.7 0 0 0-.18.812m8.207-2.437v.937h-3.277V113zm-2.398-1.438h1.168v5.676q0 .34.102.512a.52.52 0 0 0 .261.23q.165.06.356.059.141 0 .246-.019l.164-.032.211.965a2 2 0 0 1-.289.078 2.2 2.2 0 0 1-.469.047 2.05 2.05 0 0 1-.859-.164 1.5 1.5 0 0 1-.645-.531q-.246-.36-.246-.903zm8.09 2.903-1.059.187a1.2 1.2 0 0 0-.211-.386 1 1 0 0 0-.382-.301 1.4 1.4 0 0 0-.606-.117q-.496 0-.828.222-.332.219-.332.567 0 .3.223.484.223.183.718.301l.953.219q.829.191 1.235.589.406.399.406 1.036 0 .538-.312.961a2.06 2.06 0 0 1-.864.656q-.55.238-1.277.238-1.008 0-1.645-.43-.636-.434-.781-1.23l1.129-.172q.105.441.434.668.328.222.855.223.575 0 .918-.239.344-.242.344-.589a.61.61 0 0 0-.211-.473q-.207-.192-.637-.289l-1.015-.223q-.84-.191-1.243-.609-.398-.418-.398-1.059 0-.531.297-.929.297-.399.82-.622a3 3 0 0 1 1.199-.226q.973 0 1.532.422.558.417.738 1.121m6.84 4.656q-.845 0-1.473-.387a2.6 2.6 0 0 1-.976-1.082q-.348-.695-.348-1.625 0-.933.348-1.632.347-.7.976-1.086.628-.387 1.473-.387.843 0 1.472.387.63.386.977 1.086.348.699.348 1.632 0 .93-.348 1.625a2.6 2.6 0 0 1-.977 1.082q-.629.387-1.472.387m.004-.98q.546 0 .906-.289.36-.29.531-.77.176-.48.176-1.059 0-.573-.176-1.054a1.7 1.7 0 0 0-.531-.778q-.36-.293-.906-.293-.552 0-.914.293-.36.294-.536.778-.171.48-.171 1.054 0 .579.171 1.059.176.48.536.77.362.288.914.289m5.264-2.704V119h-1.168v-6h1.121v.977h.075q.207-.477.648-.766.446-.29 1.121-.289.613 0 1.074.258.462.254.715.757.254.504.254 1.247V119h-1.168v-3.676q0-.653-.34-1.019-.339-.372-.933-.371-.406 0-.723.175a1.27 1.27 0 0 0-.496.516 1.7 1.7 0 0 0-.18.812M176.731 113v.937h-3.277V113zm-2.398-1.438h1.168v5.676q0 .34.102.512a.52.52 0 0 0 .261.23q.165.06.356.059.14 0 .246-.019l.164-.032.211.965a2 2 0 0 1-.289.078 2.2 2.2 0 0 1-.469.047 2.05 2.05 0 0 1-.859-.164 1.5 1.5 0 0 1-.645-.531q-.246-.36-.246-.903zm3.69 7.438v-6h1.129v.953h.063a1.45 1.45 0 0 1 .578-.762 1.66 1.66 0 0 1 .945-.281 5 5 0 0 1 .496.027v1.118a2 2 0 0 0-.25-.043 2 2 0 0 0-.359-.028q-.414 0-.738.176a1.31 1.31 0 0 0-.696 1.176V119zm5.915.133q-.57 0-1.032-.211a1.73 1.73 0 0 1-.73-.621q-.266-.406-.266-.996 0-.509.195-.836.196-.328.528-.52a2.8 2.8 0 0 1 .742-.289q.41-.097.836-.148l.875-.102q.336-.042.488-.137.153-.094.153-.304v-.028q0-.511-.289-.793-.286-.28-.852-.281-.59 0-.93.262a1.4 1.4 0 0 0-.465.574l-1.097-.25q.195-.547.57-.883a2.3 2.3 0 0 1 .871-.492 3.4 3.4 0 0 1 1.035-.156q.36 0 .762.086.406.082.758.304.356.223.582.637.226.41.226 1.067V119h-1.14v-.82h-.047a1.7 1.7 0 0 1-.34.445 1.8 1.8 0 0 1-.582.363 2.2 2.2 0 0 1-.851.145m.253-.938q.484 0 .829-.191.347-.192.527-.5a1.3 1.3 0 0 0 .183-.668v-.774a.6.6 0 0 1-.242.118 4 4 0 0 1-.402.09l-.441.066-.36.047a3 3 0 0 0-.621.144 1.1 1.1 0 0 0-.445.293q-.165.188-.164.5 0 .434.32.657.321.218.816.218m9.181-5.195-2.176 6h-1.25l-2.179-6h1.254l1.519 4.617h.063l1.515-4.617zm3.48 6.121q-.888 0-1.528-.379a2.57 2.57 0 0 1-.984-1.074q-.344-.696-.344-1.629 0-.922.344-1.625.348-.703.969-1.098.624-.394 1.461-.394.507 0 .984.168t.855.527q.38.36.598.934.219.57.219 1.386v.415h-4.77v-.875h3.625q0-.462-.187-.817a1.4 1.4 0 0 0-.528-.566 1.47 1.47 0 0 0-.789-.207q-.492 0-.859.242a1.63 1.63 0 0 0-.563.625q-.195.382-.195.832v.684q0 .602.211 1.023.215.422.598.644.383.219.894.219.332 0 .606-.094.274-.097.472-.289.2-.191.305-.472l1.106.199a2 2 0 0 1-.477.855 2.3 2.3 0 0 1-.855.567 3.2 3.2 0 0 1-1.168.199M201.89 111v8h-1.168v-8z"/><path fill="#4d3802" d="M18.312 30h-1.969l3.585-10.182h2.276L25.795 30h-1.969l-2.72-8.094h-.079zm.064-3.992h5.37v1.481h-5.37zm14.592-1.626-1.64.18a1.3 1.3 0 0 0-.244-.468 1.2 1.2 0 0 0-.458-.353 1.7 1.7 0 0 0-.706-.134q-.561 0-.944.243-.378.244-.373.631a.66.66 0 0 0 .244.542q.253.21.835.343l1.302.279q1.084.234 1.611.74.532.508.537 1.328-.005.72-.422 1.273-.413.547-1.149.855-.735.308-1.69.308-1.402 0-2.257-.587-.855-.59-1.02-1.645l1.755-.17q.12.519.508.781.388.264 1.009.264.64 0 1.029-.264.393-.263.393-.65 0-.33-.254-.543-.249-.213-.775-.328l-1.303-.273q-1.098-.23-1.626-.77-.526-.547-.522-1.383-.004-.705.383-1.223.393-.523 1.089-.805.7-.29 1.616-.289 1.343 0 2.112.572.776.572.96 1.546m7.684 0-1.641.18a1.3 1.3 0 0 0-.244-.468 1.2 1.2 0 0 0-.457-.353 1.7 1.7 0 0 0-.706-.134q-.562 0-.945.243-.377.244-.372.631a.66.66 0 0 0 .243.542q.255.21.835.343l1.303.279q1.085.234 1.61.74.532.508.538 1.328-.006.72-.423 1.273-.413.547-1.148.855-.736.308-1.69.308-1.403 0-2.258-.587-.855-.59-1.019-1.645l1.755-.17q.12.519.507.781.388.264 1.01.264.64 0 1.029-.264.392-.263.392-.65 0-.33-.253-.543-.25-.213-.776-.328l-1.302-.273q-1.1-.23-1.626-.77-.528-.547-.522-1.383-.005-.705.383-1.223.392-.523 1.088-.805.702-.29 1.616-.289 1.343 0 2.113.572.776.572.96 1.546m6.515 2.406v-4.424h1.8V30h-1.745v-1.357h-.08a2.3 2.3 0 0 1-.85 1.049q-.586.407-1.447.407-.75 0-1.327-.333a2.3 2.3 0 0 1-.895-.98q-.324-.645-.323-1.56v-4.862h1.8v4.583q0 .726.397 1.154.398.427 1.044.427.398 0 .77-.194.374-.194.612-.576.244-.388.244-.97M50.817 30v-7.636h1.745v1.272h.08q.21-.66.716-1.019a1.97 1.97 0 0 1 1.168-.363q.15 0 .333.015.189.01.313.035v1.656a2 2 0 0 0-.362-.07 3 3 0 0 0-.473-.035q-.492 0-.885.214-.387.21-.611.582a1.64 1.64 0 0 0-.224.86V30zm8.617.15q-1.148 0-1.983-.478a3.23 3.23 0 0 1-1.278-1.362q-.447-.886-.448-2.083 0-1.179.448-2.069a3.4 3.4 0 0 1 1.263-1.392q.81-.502 1.904-.502.706 0 1.332.229.631.224 1.114.696.487.473.765 1.203.279.725.279 1.73v.552h-6.26v-1.213h4.535a1.94 1.94 0 0 0-.224-.92 1.6 1.6 0 0 0-.611-.641 1.7 1.7 0 0 0-.905-.234q-.552 0-.97.269a1.85 1.85 0 0 0-.651.696q-.228.427-.234.94v1.058q0 .666.244 1.144.244.472.681.726.438.248 1.024.248.393 0 .711-.11.318-.113.552-.332.233-.22.353-.542l1.68.189a2.6 2.6 0 0 1-.606 1.163 2.96 2.96 0 0 1-1.134.766q-.69.268-1.58.268m7.752-.016a2.9 2.9 0 0 1-1.61-.462q-.711-.462-1.124-1.343-.413-.88-.413-2.137 0-1.274.418-2.148.423-.881 1.138-1.327a2.93 2.93 0 0 1 1.596-.453q.672 0 1.104.229.432.224.686.542.254.314.393.591h.074v-3.808h1.805V30h-1.77v-1.203h-.11a3 3 0 0 1-.402.591 2.2 2.2 0 0 1-.696.527q-.432.22-1.089.22m.502-1.476q.572 0 .975-.309.402-.312.611-.87.21-.556.21-1.297t-.21-1.288q-.204-.547-.606-.85-.398-.303-.98-.303-.6 0-1.004.313-.402.313-.606.865a3.6 3.6 0 0 0-.204 1.263q0 .716.204 1.277.209.558.611.88.408.32 1 .319M76.723 30V19.818h3.898q1.104 0 1.834.348.736.343 1.099.94.368.596.368 1.352 0 .621-.239 1.064-.239.438-.641.711a2.7 2.7 0 0 1-.9.393v.1q.542.029 1.04.332.5.299.82.845.318.547.318 1.323 0 .79-.383 1.422-.383.626-1.154.99-.77.362-1.939.362zm1.844-1.541h1.984q1.005 0 1.447-.383.447-.388.447-.994a1.52 1.52 0 0 0-.86-1.392q-.413-.214-.984-.214h-2.034zm0-4.31h1.825q.477 0 .86-.175.383-.178.602-.502.223-.328.223-.775 0-.592-.417-.975-.413-.383-1.228-.383h-1.865zm10.658 6q-1.148 0-1.983-.477a3.23 3.23 0 0 1-1.278-1.362q-.448-.886-.448-2.083 0-1.179.448-2.069a3.4 3.4 0 0 1 1.263-1.392q.81-.502 1.904-.502.706 0 1.332.229.631.224 1.114.696.487.473.766 1.203.278.725.278 1.73v.552h-6.26v-1.213h4.535a1.94 1.94 0 0 0-.224-.92 1.63 1.63 0 0 0-.611-.641 1.7 1.7 0 0 0-.905-.234q-.552 0-.97.269a1.85 1.85 0 0 0-.651.696q-.229.427-.234.94v1.058q0 .666.244 1.144.244.472.681.726.438.248 1.024.248.393 0 .711-.11.318-.113.552-.332t.353-.542l1.68.189a2.6 2.6 0 0 1-.606 1.163 2.96 2.96 0 0 1-1.134.766q-.69.268-1.58.268m6.718-4.623V30h-1.8v-7.636h1.72v1.297h.09q.264-.64.84-1.019.582-.378 1.437-.378.79 0 1.377.338.593.338.915.98.328.64.323 1.556V30h-1.8v-4.584q0-.766-.397-1.198-.393-.433-1.09-.433-.471 0-.84.21a1.45 1.45 0 0 0-.571.59q-.204.39-.204.94m10.112 4.623q-1.148 0-1.983-.477a3.23 3.23 0 0 1-1.278-1.362q-.447-.886-.447-2.083 0-1.179.447-2.069a3.4 3.4 0 0 1 1.263-1.392q.81-.502 1.904-.502.707 0 1.332.229.631.224 1.114.696.487.473.766 1.203.278.725.278 1.73v.552h-6.259V25.46h4.534a1.9 1.9 0 0 0-.224-.92 1.63 1.63 0 0 0-.611-.641 1.7 1.7 0 0 0-.905-.234q-.552 0-.97.269a1.85 1.85 0 0 0-.651.696q-.228.427-.234.94v1.058q0 .666.244 1.144.243.472.681.726.438.248 1.024.248.393 0 .711-.11.318-.113.552-.332a1.4 1.4 0 0 0 .353-.542l1.68.189a2.6 2.6 0 0 1-.606 1.163 2.96 2.96 0 0 1-1.134.766q-.69.268-1.581.268m8.786-7.785v1.392h-4.514v-1.392zM111.456 30v-8.357q0-.771.318-1.283.323-.512.865-.765.541-.255 1.203-.254.467 0 .83.075t.537.134l-.358 1.392a3 3 0 0 0-.288-.07 1.7 1.7 0 0 0-.388-.04q-.502 0-.711.244-.204.24-.204.686V30zm4.795 0v-7.636h1.8V30zm.905-8.72a1.05 1.05 0 0 1-.736-.284.91.91 0 0 1-.308-.69q0-.408.308-.692a1.04 1.04 0 0 1 .736-.288q.432 0 .736.288.308.285.308.691a.92.92 0 0 1-.308.691 1.04 1.04 0 0 1-.736.284m6.558 1.084v1.392h-4.389v-1.392zm-3.306-1.83h1.8v7.17q0 .362.109.556a.6.6 0 0 0 .299.258q.183.07.407.07.17 0 .309-.025.144-.024.218-.044l.304 1.406a4 4 0 0 1-.413.11q-.264.06-.646.07a2.9 2.9 0 0 1-1.218-.204 1.9 1.9 0 0 1-.86-.706q-.313-.478-.309-1.194zm10.738 3.848-1.641.18a1.3 1.3 0 0 0-.243-.468 1.2 1.2 0 0 0-.458-.353 1.7 1.7 0 0 0-.706-.134q-.561 0-.944.243-.378.244-.373.631a.66.66 0 0 0 .243.542q.254.21.836.343l1.302.279q1.084.234 1.611.74.532.508.537 1.328-.005.72-.423 1.273-.413.547-1.148.855-.736.308-1.691.308-1.401 0-2.257-.587-.855-.59-1.019-1.645l1.755-.17q.12.519.507.781.388.264 1.01.264.64 0 1.029-.264.392-.263.392-.65 0-.33-.253-.543-.249-.213-.776-.328l-1.302-.273q-1.1-.23-1.626-.77-.526-.547-.522-1.383-.005-.705.383-1.223.393-.523 1.089-.805.7-.29 1.615-.289 1.343 0 2.113.572.775.572.96 1.546m8.988-2.018v1.392h-4.514v-1.392zM136.749 30v-8.357q0-.771.318-1.283.323-.512.865-.765.541-.255 1.203-.254.468 0 .83.075.363.075.537.134l-.358 1.392a3 3 0 0 0-.288-.07 1.7 1.7 0 0 0-.388-.04q-.502 0-.711.244-.204.24-.204.686V30zm7.839.15q-1.119 0-1.939-.493a3.35 3.35 0 0 1-1.273-1.377q-.447-.886-.447-2.068 0-1.184.447-2.073a3.34 3.34 0 0 1 1.273-1.383q.82-.492 1.939-.492 1.118 0 1.939.492.82.493 1.267 1.383.453.89.453 2.073t-.453 2.068a3.3 3.3 0 0 1-1.267 1.377q-.821.492-1.939.492m.01-1.443q.606 0 1.014-.333.408-.338.606-.904.204-.568.204-1.263 0-.701-.204-1.268a2 2 0 0 0-.606-.91q-.408-.338-1.014-.338-.622 0-1.034.338a2.04 2.04 0 0 0-.612.91 3.8 3.8 0 0 0-.199 1.268q0 .696.199 1.262.204.567.612.905.412.333 1.034.333M149.774 30v-7.636h1.745v1.272h.08q.209-.66.716-1.019a1.97 1.97 0 0 1 1.168-.363q.15 0 .333.015.19.01.313.035v1.656a2 2 0 0 0-.362-.07 3 3 0 0 0-.473-.035q-.492 0-.885.214-.387.21-.611.582a1.64 1.64 0 0 0-.224.86V30zm9.103 0V19.818h1.845v4.31h4.718v-4.31h1.849V30h-1.849v-4.325h-4.718V30zm13.869 0h-3.451V19.818h3.52q1.516 0 2.605.612a4.1 4.1 0 0 1 1.681 1.745q.586 1.139.586 2.724 0 1.59-.591 2.735a4.1 4.1 0 0 1-1.696 1.755q-1.103.61-2.654.611m-1.606-1.596h1.516q1.064 0 1.775-.388.71-.391 1.069-1.168.358-.78.358-1.949 0-1.168-.358-1.939a2.44 2.44 0 0 0-1.059-1.158q-.696-.388-1.73-.388h-1.571zm8.3 1.596V19.818h6.523v1.546h-4.679v2.765h4.231v1.546h-4.231V30zm16.918-6.746h-1.859a2.3 2.3 0 0 0-.294-.81 2.16 2.16 0 0 0-1.257-.98 2.8 2.8 0 0 0-.87-.13q-.83 0-1.472.418-.642.413-1.004 1.213-.363.795-.363 1.944 0 1.168.363 1.969.368.795 1.004 1.203a2.7 2.7 0 0 0 1.467.403q.458 0 .855-.12.402-.124.721-.363.323-.238.542-.586a2.2 2.2 0 0 0 .308-.796l1.859.01a4 4 0 0 1-.452 1.362 4 4 0 0 1-.9 1.124 4.2 4.2 0 0 1-1.303.756 4.9 4.9 0 0 1-1.655.268q-1.343 0-2.397-.621-1.053-.622-1.66-1.795-.606-1.173-.607-2.814 0-1.646.612-2.814.612-1.173 1.665-1.795 1.055-.621 2.387-.621.85 0 1.581.239.73.238 1.302.7.572.459.94 1.124.372.662.487 1.512M17.004 48V37.818h3.898q1.104 0 1.834.348.736.343 1.1.94.367.597.367 1.352 0 .621-.238 1.064-.24.438-.642.711a2.7 2.7 0 0 1-.9.393v.1q.542.029 1.04.332.5.299.82.845.318.548.318 1.323 0 .79-.383 1.422-.383.626-1.153.99-.77.362-1.94.362zm1.845-1.541h1.983q1.005 0 1.447-.383.447-.387.448-.994a1.52 1.52 0 0 0-.86-1.392q-.414-.214-.985-.214H18.85zm0-4.31h1.824q.478 0 .86-.175.383-.178.602-.502.224-.328.224-.775 0-.593-.418-.975-.412-.383-1.228-.383H18.85zm9.474 6.005q-.726 0-1.307-.258a2.13 2.13 0 0 1-.915-.776q-.333-.512-.333-1.263 0-.645.239-1.069.239-.422.65-.676.414-.253.93-.383.523-.135 1.08-.194.67-.069 1.088-.124.418-.06.607-.179.194-.124.194-.383v-.03q0-.561-.334-.87-.332-.308-.959-.308-.66 0-1.049.289a1.43 1.43 0 0 0-.517.68l-1.68-.238q.198-.696.656-1.163.458-.472 1.118-.706.661-.24 1.462-.239.552 0 1.099.13a3.1 3.1 0 0 1 .999.427q.453.294.726.8.279.507.278 1.268V48h-1.73v-1.049h-.06q-.164.318-.462.597-.293.273-.74.442-.444.165-1.04.164m.468-1.322q.54 0 .94-.214a1.6 1.6 0 0 0 .61-.577 1.47 1.47 0 0 0 .22-.78v-.9a.9.9 0 0 1-.289.13q-.198.059-.447.103-.249.045-.492.08l-.423.06a3 3 0 0 0-.72.179q-.319.124-.503.348-.184.218-.184.566 0 .498.363.751.363.255.925.254m7.174-3.306V48h-1.8v-7.636h1.72v1.297h.09q.262-.64.84-1.019.582-.378 1.437-.378.79 0 1.377.338.592.338.915.98.327.64.323 1.556V48h-1.8v-4.584q0-.765-.398-1.198-.393-.432-1.089-.433-.471 0-.84.21a1.45 1.45 0 0 0-.572.59q-.203.39-.203.94m8.372 2.078-.005-2.173h.288l2.745-3.067h2.102l-3.375 3.758h-.373zM42.697 48V37.818h1.799V48zm4.792 0-2.486-3.475 1.213-1.268L49.641 48zm15.445-6.746h-1.86a2.3 2.3 0 0 0-.292-.81 2.18 2.18 0 0 0-1.258-.98 2.8 2.8 0 0 0-.87-.13q-.83 0-1.472.418-.64.413-1.004 1.213-.363.795-.363 1.944 0 1.168.363 1.969.368.795 1.004 1.203a2.7 2.7 0 0 0 1.467.403q.458 0 .855-.12.403-.123.72-.363.324-.238.543-.586.224-.348.308-.796l1.86.01q-.105.726-.453 1.363a4 4 0 0 1-.9 1.123 4.2 4.2 0 0 1-1.303.756 4.9 4.9 0 0 1-1.655.268q-1.343 0-2.396-.621-1.055-.622-1.66-1.795-.607-1.173-.607-2.814 0-1.646.611-2.814.612-1.173 1.666-1.795t2.386-.621q.85 0 1.58.239.732.238 1.303.7.573.458.94 1.124.373.662.487 1.512m6.477 3.534v-4.424h1.8V48h-1.745v-1.357h-.08a2.3 2.3 0 0 1-.85 1.049q-.586.407-1.447.407-.75 0-1.327-.333a2.3 2.3 0 0 1-.895-.98q-.323-.645-.323-1.56v-4.862h1.8v4.583q0 .726.397 1.154.399.427 1.044.427.399 0 .77-.194.374-.193.612-.576.244-.388.244-.97m9.686-2.406-1.64.18a1.3 1.3 0 0 0-.244-.468 1.2 1.2 0 0 0-.458-.353 1.7 1.7 0 0 0-.706-.135q-.561 0-.944.244-.378.244-.373.631a.66.66 0 0 0 .243.542q.254.21.836.343l1.302.279q1.085.234 1.611.74.533.508.537 1.328-.005.72-.423 1.273-.412.547-1.148.855t-1.69.308q-1.402 0-2.257-.587-.855-.59-1.02-1.645l1.755-.17q.12.519.507.781.388.264 1.01.264.64 0 1.029-.264.392-.263.392-.65 0-.33-.253-.543-.249-.214-.776-.328l-1.302-.273q-1.099-.23-1.626-.77-.527-.547-.522-1.383-.005-.705.383-1.223.393-.522 1.089-.805.701-.29 1.615-.289 1.343 0 2.113.572.775.572.96 1.546m5.461-2.018v1.392h-4.39v-1.392zm-3.306-1.83h1.8v7.17q0 .362.11.556a.6.6 0 0 0 .297.259q.184.07.408.07.17-.001.308-.026.145-.024.22-.044l.302 1.406q-.144.05-.412.11-.264.06-.647.07a2.9 2.9 0 0 1-1.218-.204 1.9 1.9 0 0 1-.86-.706q-.312-.478-.308-1.194zm8.06 9.615q-1.118 0-1.939-.492a3.34 3.34 0 0 1-1.272-1.377q-.448-.886-.448-2.068 0-1.184.448-2.074a3.34 3.34 0 0 1 1.272-1.382q.82-.492 1.94-.492 1.118 0 1.938.492.82.493 1.268 1.383.453.89.452 2.073 0 1.183-.452 2.068a3.3 3.3 0 0 1-1.268 1.377q-.82.492-1.939.492m.01-1.442q.608 0 1.014-.333.408-.338.607-.905a3.7 3.7 0 0 0 .204-1.262q0-.702-.204-1.268a2 2 0 0 0-.606-.91q-.408-.338-1.015-.338-.621 0-1.034.338a2.04 2.04 0 0 0-.611.91 3.8 3.8 0 0 0-.2 1.268q0 .696.2 1.262.204.567.611.905.413.333 1.034.333M94.5 48v-7.636h1.72v1.297h.09q.238-.656.79-1.024.552-.372 1.317-.373.776 0 1.308.378.537.373.756 1.02h.079q.254-.637.855-1.015.608-.383 1.437-.383 1.054 0 1.72.666.667.667.667 1.944V48h-1.805v-4.847q0-.71-.378-1.04a1.35 1.35 0 0 0-.925-.332q-.651 0-1.019.407-.363.403-.363 1.05V48h-1.765v-4.922q0-.592-.358-.945-.353-.352-.924-.352-.388 0-.706.198-.319.195-.507.552-.19.353-.19.825V48zm15.945.15q-1.149 0-1.984-.478a3.23 3.23 0 0 1-1.277-1.362q-.448-.885-.448-2.083 0-1.178.448-2.069a3.4 3.4 0 0 1 1.262-1.392q.81-.502 1.905-.502.705 0 1.332.229.631.224 1.114.696.487.473.765 1.203.279.726.279 1.73v.552h-6.26v-1.213h4.535a1.94 1.94 0 0 0-.224-.92 1.63 1.63 0 0 0-.612-.641 1.7 1.7 0 0 0-.905-.234q-.551 0-.969.269a1.85 1.85 0 0 0-.651.696 2 2 0 0 0-.234.94v1.058q0 .666.244 1.144.243.472.681.726.437.248 1.024.248.393 0 .711-.11.318-.114.552-.332.233-.22.353-.542l1.68.189a2.6 2.6 0 0 1-.606 1.163 2.96 2.96 0 0 1-1.134.766q-.692.268-1.581.268m4.918-.15v-7.636h1.745v1.272h.08q.209-.66.716-1.019a1.97 1.97 0 0 1 1.168-.363q.148 0 .333.015.189.01.313.035v1.655a2 2 0 0 0-.363-.07 3 3 0 0 0-.472-.034q-.492 0-.885.214-.387.21-.611.582a1.64 1.64 0 0 0-.224.86V48zm11.587-5.618-1.641.18a1.3 1.3 0 0 0-.244-.468 1.2 1.2 0 0 0-.457-.353 1.7 1.7 0 0 0-.706-.135q-.562 0-.945.244-.378.244-.373.631a.66.66 0 0 0 .244.542q.254.21.835.343l1.303.279q1.083.234 1.611.74.531.508.537 1.328-.006.72-.423 1.273-.413.547-1.148.855-.736.308-1.691.308-1.401 0-2.257-.587-.855-.59-1.019-1.645l1.755-.17q.119.519.507.781.388.264 1.009.264.642 0 1.029-.264.393-.263.393-.65 0-.33-.253-.543-.25-.214-.776-.328l-1.303-.273q-1.098-.23-1.625-.77-.528-.547-.522-1.383a1.95 1.95 0 0 1 .383-1.223q.392-.522 1.088-.805.701-.29 1.616-.289 1.342 0 2.113.572.775.572.96 1.546"/></g><defs><clipPath id="a"><rect width="237" height="145" fill="#fff" rx="20"/></clipPath><clipPath id="e"><path fill="#fff" d="M16 64h14v14H16z"/></clipPath><clipPath id="f"><path fill="#fff" d="M103 86h76v14h-76z"/></clipPath><clipPath id="g"><path fill="#fff" d="M16 108h14v14H16z"/></clipPath><linearGradient id="b" x1="0" x2="221.884" y1="0" y2="165.291" gradientUnits="userSpaceOnUse"><stop stop-color="#fcc946"/><stop offset="1" stop-color="#ffaa04"/></linearGradient><linearGradient id="c" x1="202.03" x2="201.339" y1="-9.93" y2="118.176" gradientUnits="userSpaceOnUse"><stop stop-color="#fff"/><stop offset="1" stop-color="#fff" stop-opacity="0"/></linearGradient><linearGradient id="d" x1="239.554" x2="238.9" y1="-4.186" y2="123.921" gradientUnits="userSpaceOnUse"><stop stop-color="#fff"/><stop offset="1" stop-color="#fff" stop-opacity="0"/></linearGradient></defs></svg>