<svg width="237" height="145" viewBox="0 0 237 145" fill="none" xmlns="http://www.w3.org/2000/svg">
<g clip-path="url(#clip0_687_2249)">
<rect width="237" height="145" rx="20" fill="url(#paint0_linear_687_2249)"/>
<rect opacity="0.24" x="174.863" y="-32.6113" width="53.4587" height="150.789" transform="rotate(35.5896 174.863 -32.6113)" fill="url(#paint1_linear_687_2249)"/>
<rect opacity="0.24" x="210.863" y="-26.8672" width="56.459" height="150.789" transform="rotate(35.5896 210.863 -26.8672)" fill="url(#paint2_linear_687_2249)"/>
<g clip-path="url(#clip1_687_2249)">
<path d="M20.0576 64.8112C20.4803 64 21.0911 63.7964 21.9092 64.2086C22.5961 64.5527 23.3849 64.5521 24.0733 64.2096C24.8957 63.8017 25.4997 63.9896 25.9209 64.7995C26.3379 65.6007 26.9342 66.0352 27.794 66.1901C28.3721 66.2944 28.7262 66.6464 28.8418 67.1735C28.8904 67.3924 28.8841 67.6231 28.8399 67.8434C28.6642 68.7101 29.0301 69.443 29.6485 70.1325C30.1355 70.6745 30.1123 71.3764 29.5996 71.9274C28.9544 72.6212 28.7129 73.3777 28.8643 74.3395C28.98 75.0691 28.5748 75.6428 27.8438 75.7829C26.9369 75.9571 26.3073 76.4129 25.876 77.2721C25.5218 77.9779 24.8825 78.1847 24.1856 77.8288C23.3774 77.4164 22.6319 77.4105 21.8223 77.8229C21.0927 78.1935 20.4802 77.9746 20.0889 77.2243C19.6748 76.4291 19.0992 75.9671 18.2325 75.8092C17.367 75.6529 17.0257 75.0931 17.1485 74.1579C17.2456 73.4208 17.0339 72.6673 16.5528 72.1178C15.816 71.2766 15.8172 70.7164 16.5537 69.8708C17.0193 69.3347 17.2371 68.6135 17.1543 67.8942C17.0358 66.8578 17.3608 66.345 18.3174 66.1588C19.13 66.001 19.6706 65.5573 20.0576 64.8112ZM25.4815 72.4176C25.1708 72.0476 24.6192 71.9996 24.2491 72.3102C23.8791 72.6209 23.8311 73.1725 24.1416 73.5426C24.4523 73.9126 25.0039 73.9606 25.3741 73.6501C25.7441 73.3394 25.7921 72.7878 25.4815 72.4176ZM26.0293 68.5319C25.8223 68.2852 25.4539 68.2527 25.2071 68.4596L20.292 72.5846C20.0452 72.7917 20.0127 73.1601 20.2198 73.4069C20.4269 73.6534 20.7953 73.6852 21.042 73.4782L25.9571 69.3542C26.2038 69.1471 26.2363 68.7787 26.0293 68.5319ZM22.1075 68.3961C21.7968 68.026 21.2442 67.9771 20.8741 68.2878C20.504 68.5984 20.456 69.151 20.7666 69.5211C21.0772 69.8911 21.6289 69.939 21.9991 69.6286C22.3692 69.318 22.4179 68.7663 22.1075 68.3961Z" fill="#473607"/>
</g>
<path d="M36.7695 75V74.125L39.4766 71.3203C39.7656 71.0156 40.0039 70.7487 40.1914 70.5195C40.3815 70.2878 40.5234 70.0677 40.6172 69.8594C40.7109 69.651 40.7578 69.4297 40.7578 69.1953C40.7578 68.9297 40.6953 68.7005 40.5703 68.5078C40.4453 68.3125 40.2747 68.1628 40.0586 68.0586C39.8424 67.9518 39.599 67.8984 39.3281 67.8984C39.0417 67.8984 38.7917 67.957 38.5781 68.0742C38.3646 68.1914 38.2005 68.3568 38.0859 68.5703C37.9714 68.7839 37.9141 69.0339 37.9141 69.3203H36.7617C36.7617 68.8333 36.8737 68.4076 37.0977 68.043C37.3216 67.6784 37.6289 67.3958 38.0195 67.1953C38.4102 66.9922 38.8542 66.8906 39.3516 66.8906C39.8542 66.8906 40.2969 66.9909 40.6797 67.1914C41.0651 67.3893 41.3659 67.6602 41.582 68.0039C41.7982 68.3451 41.9062 68.7305 41.9062 69.1602C41.9062 69.457 41.8503 69.7474 41.7383 70.0312C41.6289 70.3151 41.4375 70.6315 41.1641 70.9805C40.8906 71.3268 40.5104 71.7474 40.0234 72.2422L38.4336 73.9062V73.9648H42.0352V75H36.7695ZM43.1758 73.4375V72.4609L46.6328 67H47.4023V68.4375H46.9141L44.4414 72.3516V72.4141H49.1797V73.4375H43.1758ZM46.9688 75V73.1406L46.9766 72.6953V67H48.1211V75H46.9688ZM55.3105 73.6719L50.8184 69.1797L51.5566 68.4414L56.0488 72.9336L55.3105 73.6719ZM51.5566 73.6719L50.8184 72.9336L55.3105 68.4414L56.0488 69.1797L51.5566 73.6719ZM58.1367 75L61.6289 68.0937V68.0352H57.5898V67H62.8789V68.0703L59.3984 75H58.1367ZM68.9102 75.1328C68.5299 75.1328 68.1862 75.0625 67.8789 74.9219C67.5716 74.7786 67.3281 74.5716 67.1484 74.3008C66.9714 74.0299 66.8828 73.6979 66.8828 73.3047C66.8828 72.9661 66.9479 72.6875 67.0781 72.4687C67.2083 72.25 67.3841 72.0768 67.6055 71.9492C67.8268 71.8216 68.0742 71.7253 68.3477 71.6602C68.6211 71.5951 68.8997 71.5456 69.1836 71.5117C69.543 71.4701 69.8346 71.4362 70.0586 71.4102C70.2826 71.3815 70.4453 71.3359 70.5469 71.2734C70.6484 71.2109 70.6992 71.1094 70.6992 70.9687V70.9414C70.6992 70.6003 70.6029 70.3359 70.4102 70.1484C70.2201 69.9609 69.9362 69.8672 69.5586 69.8672C69.1654 69.8672 68.8555 69.9544 68.6289 70.1289C68.4049 70.3008 68.25 70.4922 68.1641 70.7031L67.0664 70.4531C67.1966 70.0885 67.3867 69.7943 67.6367 69.5703C67.8893 69.3437 68.1797 69.1797 68.5078 69.0781C68.8359 68.974 69.181 68.9219 69.543 68.9219C69.7826 68.9219 70.0365 68.9505 70.3047 69.0078C70.5755 69.0625 70.8281 69.1641 71.0625 69.3125C71.2995 69.4609 71.4935 69.6732 71.6445 69.9492C71.7956 70.2227 71.8711 70.5781 71.8711 71.0156V75H70.7305V74.1797H70.6836C70.6081 74.3307 70.4948 74.4792 70.3438 74.625C70.1927 74.7708 69.9987 74.8919 69.7617 74.9883C69.5247 75.0846 69.2409 75.1328 68.9102 75.1328ZM69.1641 74.1953C69.487 74.1953 69.763 74.1315 69.9922 74.0039C70.224 73.8763 70.3997 73.7096 70.5195 73.5039C70.6419 73.2956 70.7031 73.0729 70.7031 72.8359V72.0625C70.6615 72.1042 70.5807 72.1432 70.4609 72.1797C70.3438 72.2135 70.2096 72.2435 70.0586 72.2695C69.9076 72.293 69.7604 72.3151 69.6172 72.3359C69.474 72.3542 69.3542 72.3698 69.2578 72.3828C69.0313 72.4115 68.8242 72.4596 68.6367 72.5273C68.4518 72.5951 68.3034 72.6927 68.1914 72.8203C68.082 72.9453 68.0273 73.112 68.0273 73.3203C68.0273 73.6094 68.1341 73.8281 68.3477 73.9766C68.5612 74.1224 68.8333 74.1953 69.1641 74.1953ZM75.9541 75.1211C75.3734 75.1211 74.8734 74.9896 74.4541 74.7266C74.0374 74.4609 73.7171 74.0951 73.4932 73.6289C73.2692 73.1628 73.1572 72.6289 73.1572 72.0273C73.1572 71.418 73.2718 70.8802 73.501 70.4141C73.7301 69.9453 74.0531 69.5794 74.4697 69.3164C74.8864 69.0534 75.3773 68.9219 75.9424 68.9219C76.3981 68.9219 76.8044 69.0065 77.1611 69.1758C77.5179 69.3424 77.8057 69.5768 78.0244 69.8789C78.2458 70.181 78.3773 70.5339 78.4189 70.9375H77.2822C77.2197 70.6562 77.0765 70.4141 76.8525 70.2109C76.6312 70.0078 76.3343 69.9062 75.9619 69.9062C75.6364 69.9062 75.3512 69.9922 75.1064 70.1641C74.8643 70.3333 74.6755 70.5755 74.54 70.8906C74.4046 71.2031 74.3369 71.5729 74.3369 72C74.3369 72.4375 74.4033 72.8151 74.5361 73.1328C74.6689 73.4505 74.8564 73.6966 75.0986 73.8711C75.3434 74.0456 75.6312 74.1328 75.9619 74.1328C76.1833 74.1328 76.3838 74.0924 76.5635 74.0117C76.7458 73.9284 76.8981 73.8099 77.0205 73.6562C77.1455 73.5026 77.2327 73.3177 77.2822 73.1016H78.4189C78.3773 73.4896 78.251 73.8359 78.04 74.1406C77.8291 74.4453 77.5465 74.6849 77.1924 74.8594C76.8408 75.0339 76.4281 75.1211 75.9541 75.1211ZM82.1953 75.1211C81.6146 75.1211 81.1146 74.9896 80.6953 74.7266C80.2786 74.4609 79.9583 74.0951 79.7344 73.6289C79.5104 73.1628 79.3984 72.6289 79.3984 72.0273C79.3984 71.418 79.513 70.8802 79.7422 70.4141C79.9714 69.9453 80.2943 69.5794 80.7109 69.3164C81.1276 69.0534 81.6185 68.9219 82.1836 68.9219C82.6393 68.9219 83.0456 69.0065 83.4023 69.1758C83.7591 69.3424 84.0469 69.5768 84.2656 69.8789C84.487 70.181 84.6185 70.5339 84.6602 70.9375H83.5234C83.4609 70.6562 83.3177 70.4141 83.0938 70.2109C82.8724 70.0078 82.5755 69.9062 82.2031 69.9062C81.8776 69.9062 81.5924 69.9922 81.3477 70.1641C81.1055 70.3333 80.9167 70.5755 80.7813 70.8906C80.6458 71.2031 80.5781 71.5729 80.5781 72C80.5781 72.4375 80.6445 72.8151 80.7773 73.1328C80.9102 73.4505 81.0977 73.6966 81.3398 73.8711C81.5846 74.0456 81.8724 74.1328 82.2031 74.1328C82.4245 74.1328 82.625 74.0924 82.8047 74.0117C82.987 73.9284 83.1393 73.8099 83.2617 73.6562C83.3867 73.5026 83.474 73.3177 83.5234 73.1016H84.6602C84.6185 73.4896 84.4922 73.8359 84.2813 74.1406C84.0703 74.4453 83.7878 74.6849 83.4336 74.8594C83.082 75.0339 82.6693 75.1211 82.1953 75.1211ZM88.4951 75.1211C87.904 75.1211 87.3949 74.9948 86.9678 74.7422C86.5433 74.487 86.2152 74.1289 85.9834 73.668C85.7542 73.2044 85.6396 72.6615 85.6396 72.0391C85.6396 71.4245 85.7542 70.8828 85.9834 70.4141C86.2152 69.9453 86.5381 69.5794 86.9521 69.3164C87.3688 69.0534 87.8558 68.9219 88.4131 68.9219C88.7516 68.9219 89.0798 68.9779 89.3975 69.0898C89.7152 69.2018 90.0003 69.3776 90.2529 69.6172C90.5055 69.8568 90.7048 70.168 90.8506 70.5508C90.9964 70.931 91.0693 71.3932 91.0693 71.9375V72.3516H86.2998V71.4766H89.9248C89.9248 71.1693 89.8623 70.8971 89.7373 70.6602C89.6123 70.4206 89.4365 70.2318 89.21 70.0937C88.986 69.9557 88.723 69.8867 88.4209 69.8867C88.0928 69.8867 87.8063 69.9674 87.5615 70.1289C87.3193 70.2878 87.1318 70.4961 86.999 70.7539C86.8688 71.0091 86.8037 71.2865 86.8037 71.5859V72.2695C86.8037 72.6706 86.874 73.0117 87.0146 73.293C87.1579 73.5742 87.3571 73.7891 87.6123 73.9375C87.8675 74.0833 88.1657 74.1562 88.5068 74.1562C88.7282 74.1562 88.93 74.125 89.1123 74.0625C89.2946 73.9974 89.4521 73.901 89.585 73.7734C89.7178 73.6458 89.8193 73.4883 89.8896 73.3008L90.9951 73.5C90.9066 73.8255 90.7477 74.1107 90.5186 74.3555C90.292 74.5977 90.0068 74.7865 89.6631 74.9219C89.3219 75.0547 88.9326 75.1211 88.4951 75.1211ZM96.8613 70.4648L95.8027 70.6523C95.7585 70.5169 95.6882 70.388 95.5918 70.2656C95.498 70.1432 95.3704 70.043 95.209 69.9648C95.0475 69.8867 94.8457 69.8477 94.6035 69.8477C94.2728 69.8477 93.9967 69.9219 93.7754 70.0703C93.554 70.2161 93.4434 70.4049 93.4434 70.6367C93.4434 70.8372 93.5176 70.9987 93.666 71.1211C93.8145 71.2435 94.054 71.3437 94.3848 71.4219L95.3379 71.6406C95.89 71.7682 96.3014 71.9648 96.5723 72.2305C96.8431 72.4961 96.9785 72.8411 96.9785 73.2656C96.9785 73.625 96.8743 73.9453 96.666 74.2266C96.4603 74.5052 96.1725 74.724 95.8027 74.8828C95.4355 75.0417 95.0098 75.1211 94.5254 75.1211C93.8535 75.1211 93.3053 74.9779 92.8809 74.6914C92.4564 74.4023 92.196 73.9922 92.0996 73.4609L93.2285 73.2891C93.2988 73.5833 93.4434 73.806 93.6621 73.957C93.8809 74.1055 94.166 74.1797 94.5176 74.1797C94.9004 74.1797 95.2064 74.1003 95.4355 73.9414C95.6647 73.7799 95.7793 73.5833 95.7793 73.3516C95.7793 73.1641 95.709 73.0065 95.5684 72.8789C95.4303 72.7513 95.2181 72.6549 94.9316 72.5898L93.916 72.3672C93.3561 72.2396 92.9421 72.0365 92.6738 71.7578C92.4082 71.4792 92.2754 71.1263 92.2754 70.6992C92.2754 70.3451 92.3743 70.0352 92.5723 69.7695C92.7702 69.5039 93.0436 69.2969 93.3926 69.1484C93.7415 68.9974 94.1413 68.9219 94.5918 68.9219C95.2402 68.9219 95.7507 69.0625 96.123 69.3437C96.4954 69.6224 96.7415 69.9961 96.8613 70.4648ZM102.759 70.4648L101.7 70.6523C101.656 70.5169 101.586 70.388 101.489 70.2656C101.396 70.1432 101.268 70.043 101.106 69.9648C100.945 69.8867 100.743 69.8477 100.501 69.8477C100.17 69.8477 99.8942 69.9219 99.6729 70.0703C99.4515 70.2161 99.3408 70.4049 99.3408 70.6367C99.3408 70.8372 99.415 70.9987 99.5635 71.1211C99.7119 71.2435 99.9515 71.3437 100.282 71.4219L101.235 71.6406C101.787 71.7682 102.199 71.9648 102.47 72.2305C102.741 72.4961 102.876 72.8411 102.876 73.2656C102.876 73.625 102.772 73.9453 102.563 74.2266C102.358 74.5052 102.07 74.724 101.7 74.8828C101.333 75.0417 100.907 75.1211 100.423 75.1211C99.751 75.1211 99.2028 74.9779 98.7783 74.6914C98.3538 74.4023 98.0934 73.9922 97.9971 73.4609L99.126 73.2891C99.1963 73.5833 99.3408 73.806 99.5596 73.957C99.7783 74.1055 100.063 74.1797 100.415 74.1797C100.798 74.1797 101.104 74.1003 101.333 73.9414C101.562 73.7799 101.677 73.5833 101.677 73.3516C101.677 73.1641 101.606 73.0065 101.466 72.8789C101.328 72.7513 101.116 72.6549 100.829 72.5898L99.8135 72.3672C99.2536 72.2396 98.8395 72.0365 98.5713 71.7578C98.3057 71.4792 98.1729 71.1263 98.1729 70.6992C98.1729 70.3451 98.2718 70.0352 98.4697 69.7695C98.6676 69.5039 98.9411 69.2969 99.29 69.1484C99.639 68.9974 100.039 68.9219 100.489 68.9219C101.138 68.9219 101.648 69.0625 102.021 69.3437C102.393 69.6224 102.639 69.9961 102.759 70.4648ZM109.872 69V69.9375H106.595V69H109.872ZM107.474 67.5625H108.642V73.2383C108.642 73.4648 108.675 73.6354 108.743 73.75C108.811 73.862 108.898 73.9388 109.005 73.9805C109.114 74.0195 109.233 74.0391 109.36 74.0391C109.454 74.0391 109.536 74.0326 109.606 74.0195C109.677 74.0065 109.731 73.9961 109.771 73.9883L109.981 74.9531C109.914 74.9792 109.817 75.0052 109.692 75.0313C109.567 75.0599 109.411 75.0755 109.224 75.0781C108.916 75.0833 108.63 75.0286 108.364 74.9141C108.099 74.7995 107.884 74.6224 107.72 74.3828C107.556 74.1432 107.474 73.8424 107.474 73.4805V67.5625ZM113.627 75.1211C113.064 75.1211 112.574 74.9922 112.154 74.7344C111.735 74.4766 111.41 74.1159 111.178 73.6523C110.946 73.1888 110.83 72.6471 110.83 72.0273C110.83 71.4049 110.946 70.8607 111.178 70.3945C111.41 69.9284 111.735 69.5664 112.154 69.3086C112.574 69.0508 113.064 68.9219 113.627 68.9219C114.189 68.9219 114.68 69.0508 115.1 69.3086C115.519 69.5664 115.844 69.9284 116.076 70.3945C116.308 70.8607 116.424 71.4049 116.424 72.0273C116.424 72.6471 116.308 73.1888 116.076 73.6523C115.844 74.1159 115.519 74.4766 115.1 74.7344C114.68 74.9922 114.189 75.1211 113.627 75.1211ZM113.631 74.1406C113.995 74.1406 114.298 74.0443 114.537 73.8516C114.777 73.6589 114.954 73.4023 115.068 73.082C115.186 72.7617 115.244 72.4089 115.244 72.0234C115.244 71.6406 115.186 71.2891 115.068 70.9687C114.954 70.6458 114.777 70.3867 114.537 70.1914C114.298 69.9961 113.995 69.8984 113.631 69.8984C113.264 69.8984 112.959 69.9961 112.717 70.1914C112.477 70.3867 112.299 70.6458 112.182 70.9687C112.067 71.2891 112.01 71.6406 112.01 72.0234C112.01 72.4089 112.067 72.7617 112.182 73.082C112.299 73.4023 112.477 73.6589 112.717 73.8516C112.959 74.0443 113.264 74.1406 113.631 74.1406ZM123.166 75.1211C122.604 75.1211 122.113 74.9922 121.693 74.7344C121.274 74.4766 120.949 74.1159 120.717 73.6523C120.485 73.1888 120.369 72.6471 120.369 72.0273C120.369 71.4049 120.485 70.8607 120.717 70.3945C120.949 69.9284 121.274 69.5664 121.693 69.3086C122.113 69.0508 122.604 68.9219 123.166 68.9219C123.729 68.9219 124.219 69.0508 124.639 69.3086C125.058 69.5664 125.383 69.9284 125.615 70.3945C125.847 70.8607 125.963 71.4049 125.963 72.0273C125.963 72.6471 125.847 73.1888 125.615 73.6523C125.383 74.1159 125.058 74.4766 124.639 74.7344C124.219 74.9922 123.729 75.1211 123.166 75.1211ZM123.17 74.1406C123.535 74.1406 123.837 74.0443 124.076 73.8516C124.316 73.6589 124.493 73.4023 124.607 73.082C124.725 72.7617 124.783 72.4089 124.783 72.0234C124.783 71.6406 124.725 71.2891 124.607 70.9687C124.493 70.6458 124.316 70.3867 124.076 70.1914C123.837 69.9961 123.535 69.8984 123.17 69.8984C122.803 69.8984 122.498 69.9961 122.256 70.1914C122.016 70.3867 121.838 70.6458 121.721 70.9687C121.606 71.2891 121.549 71.6406 121.549 72.0234C121.549 72.4089 121.606 72.7617 121.721 73.082C121.838 73.4023 122.016 73.6589 122.256 73.8516C122.498 74.0443 122.803 74.1406 123.17 74.1406ZM130.122 69V69.9375H126.731V69H130.122ZM127.661 75V68.3047C127.661 67.9297 127.743 67.6185 127.907 67.3711C128.071 67.1211 128.289 66.9349 128.56 66.8125C128.83 66.6875 129.125 66.625 129.442 66.625C129.677 66.625 129.877 66.6445 130.044 66.6836C130.211 66.7201 130.334 66.7539 130.415 66.7852L130.142 67.7305C130.087 67.7148 130.017 67.6966 129.931 67.6758C129.845 67.6523 129.741 67.6406 129.618 67.6406C129.334 67.6406 129.131 67.7109 129.009 67.8516C128.889 67.9922 128.829 68.1953 128.829 68.4609V75H127.661ZM134.183 69V69.9375H130.792V69H134.183ZM131.722 75V68.3047C131.722 67.9297 131.804 67.6185 131.968 67.3711C132.132 67.1211 132.349 66.9349 132.62 66.8125C132.891 66.6875 133.185 66.625 133.503 66.625C133.737 66.625 133.938 66.6445 134.104 66.6836C134.271 66.7201 134.395 66.7539 134.476 66.7852L134.202 67.7305C134.147 67.7148 134.077 67.6966 133.991 67.6758C133.905 67.6523 133.801 67.6406 133.679 67.6406C133.395 67.6406 133.192 67.7109 133.069 67.8516C132.95 67.9922 132.89 68.1953 132.89 68.4609V75H131.722ZM137.737 75.1211C137.146 75.1211 136.637 74.9948 136.21 74.7422C135.785 74.487 135.457 74.1289 135.226 73.668C134.996 73.2044 134.882 72.6615 134.882 72.0391C134.882 71.4245 134.996 70.8828 135.226 70.4141C135.457 69.9453 135.78 69.5794 136.194 69.3164C136.611 69.0534 137.098 68.9219 137.655 68.9219C137.994 68.9219 138.322 68.9779 138.64 69.0898C138.957 69.2018 139.243 69.3776 139.495 69.6172C139.748 69.8568 139.947 70.168 140.093 70.5508C140.239 70.931 140.312 71.3932 140.312 71.9375V72.3516H135.542V71.4766H139.167C139.167 71.1693 139.104 70.8971 138.979 70.6602C138.854 70.4206 138.679 70.2318 138.452 70.0937C138.228 69.9557 137.965 69.8867 137.663 69.8867C137.335 69.8867 137.049 69.9674 136.804 70.1289C136.562 70.2878 136.374 70.4961 136.241 70.7539C136.111 71.0091 136.046 71.2865 136.046 71.5859V72.2695C136.046 72.6706 136.116 73.0117 136.257 73.293C136.4 73.5742 136.599 73.7891 136.854 73.9375C137.11 74.0833 137.408 74.1562 137.749 74.1562C137.97 74.1562 138.172 74.125 138.354 74.0625C138.537 73.9974 138.694 73.901 138.827 73.7734C138.96 73.6458 139.062 73.4883 139.132 73.3008L140.237 73.5C140.149 73.8255 139.99 74.1107 139.761 74.3555C139.534 74.5977 139.249 74.7865 138.905 74.9219C138.564 75.0547 138.175 75.1211 137.737 75.1211ZM141.607 75V69H142.736V69.9531H142.799C142.908 69.6302 143.101 69.3763 143.377 69.1914C143.656 69.0039 143.971 68.9102 144.322 68.9102C144.395 68.9102 144.481 68.9128 144.58 68.918C144.682 68.9232 144.761 68.9297 144.818 68.9375V70.0547C144.771 70.0417 144.688 70.0273 144.568 70.0117C144.449 69.9935 144.329 69.9844 144.209 69.9844C143.933 69.9844 143.687 70.043 143.471 70.1602C143.257 70.2747 143.088 70.4349 142.963 70.6406C142.838 70.8437 142.775 71.0755 142.775 71.3359V75H141.607ZM150.325 70.4648L149.267 70.6523C149.222 70.5169 149.152 70.388 149.056 70.2656C148.962 70.1432 148.834 70.043 148.673 69.9648C148.511 69.8867 148.31 69.8477 148.067 69.8477C147.737 69.8477 147.461 69.9219 147.239 70.0703C147.018 70.2161 146.907 70.4049 146.907 70.6367C146.907 70.8372 146.981 70.9987 147.13 71.1211C147.278 71.2435 147.518 71.3437 147.849 71.4219L148.802 71.6406C149.354 71.7682 149.765 71.9648 150.036 72.2305C150.307 72.4961 150.442 72.8411 150.442 73.2656C150.442 73.625 150.338 73.9453 150.13 74.2266C149.924 74.5052 149.636 74.724 149.267 74.8828C148.899 75.0417 148.474 75.1211 147.989 75.1211C147.317 75.1211 146.769 74.9779 146.345 74.6914C145.92 74.4023 145.66 73.9922 145.563 73.4609L146.692 73.2891C146.763 73.5833 146.907 73.806 147.126 73.957C147.345 74.1055 147.63 74.1797 147.981 74.1797C148.364 74.1797 148.67 74.1003 148.899 73.9414C149.129 73.7799 149.243 73.5833 149.243 73.3516C149.243 73.1641 149.173 73.0065 149.032 72.8789C148.894 72.7513 148.682 72.6549 148.396 72.5898L147.38 72.3672C146.82 72.2396 146.406 72.0365 146.138 71.7578C145.872 71.4792 145.739 71.1263 145.739 70.6992C145.739 70.3451 145.838 70.0352 146.036 69.7695C146.234 69.5039 146.507 69.2969 146.856 69.1484C147.205 68.9974 147.605 68.9219 148.056 68.9219C148.704 68.9219 149.215 69.0625 149.587 69.3437C149.959 69.6224 150.205 69.9961 150.325 70.4648Z" fill="#473300"/>
<path d="M18.4696 90.0953C18.1837 90.3376 18.099 90.6984 17.9296 91.4201C17.821 91.8828 17.7263 92.3212 17.6439 92.7474H22.4139V90.7673C22.4139 90.6111 22.5453 90.4844 22.7073 90.4844H23.2941C23.4561 90.4844 23.5875 90.6111 23.5875 90.7673V92.7474H28.3518C28.2709 92.3273 28.1782 91.8949 28.0723 91.4389C27.9028 90.7093 27.818 90.3445 27.5309 90.1013C27.2437 89.8581 26.8568 89.824 26.0831 89.7559C23.8418 89.5585 22.1079 89.5496 19.8986 89.7496C19.1366 89.8186 18.7556 89.8531 18.4696 90.0953Z" fill="#584309"/>
<path d="M28.5458 93.8789H23.5875V98.6878C23.5875 98.7411 23.5722 98.7909 23.5457 98.8334C24.5846 98.8185 25.6359 98.7551 26.7955 98.6422C27.7779 98.5465 28.2692 98.4987 28.575 98.1537C28.8808 97.8088 28.8536 97.3372 28.7993 96.3939C28.748 95.5026 28.6676 94.6946 28.5458 93.8789Z" fill="#584309"/>
<path d="M22.4545 98.8313C22.4287 98.7892 22.4139 98.7402 22.4139 98.6878V93.8789H17.4498C17.3291 94.6904 17.2499 95.4958 17.1997 96.3852C17.1464 97.3314 17.1197 97.8046 17.4262 98.1492C17.7326 98.4938 18.2269 98.5412 19.2156 98.6359C20.3774 98.7472 21.4263 98.8127 22.4545 98.8313Z" fill="#584309"/>
<path fill-rule="evenodd" clip-rule="evenodd" d="M20.2046 88.2983L20.2039 88.3007C20.1858 88.3644 20.1925 88.4001 20.2403 88.4595C20.3083 88.5438 20.452 88.652 20.6993 88.7625C20.9538 88.8763 21.2622 88.9683 21.5816 89.0395C21.3538 88.847 21.0962 88.6658 20.847 88.529C20.5438 88.3626 20.3217 88.3001 20.2046 88.2983ZM20.169 88.3005L20.1699 88.3003ZM20.2169 88.2661L20.2164 88.267ZM22.4938 88.3095C22.7954 88.5811 23.0791 88.8953 23.2339 89.1927C23.3063 89.3319 23.3451 89.5017 23.3099 89.6822C23.2748 89.862 23.1756 90.0034 23.0603 90.1016C22.8427 90.2869 22.5594 90.3344 22.3271 90.3085C21.6934 90.238 20.8612 90.0821 20.2057 89.7891C19.8802 89.6436 19.5453 89.4414 19.3134 89.1534C19.0614 88.8405 18.9471 88.4419 19.0719 88.0021C19.1419 87.7554 19.2793 87.5303 19.5039 87.3727C19.725 87.2174 19.975 87.1667 20.1995 87.1667C20.6234 87.1668 21.0642 87.3463 21.4275 87.5456C21.8079 87.7544 22.183 88.0295 22.4938 88.3095Z" fill="#584309"/>
<path fill-rule="evenodd" clip-rule="evenodd" d="M25.8081 88.2983L25.8088 88.3007C25.8268 88.3644 25.8201 88.4001 25.7723 88.4595C25.7044 88.5438 25.5606 88.652 25.3134 88.7625C25.0588 88.8763 24.7504 88.9683 24.431 89.0395C24.6588 88.847 24.9164 88.6658 25.1656 88.529C25.4688 88.3626 25.6909 88.3001 25.8081 88.2983ZM25.8436 88.3005L25.8427 88.3003ZM25.7957 88.2661L25.7962 88.267ZM23.5188 88.3095C23.2172 88.5811 22.9335 88.8953 22.7787 89.1927C22.7063 89.3319 22.6675 89.5017 22.7028 89.6822C22.7379 89.862 22.837 90.0034 22.9523 90.1016C23.17 90.2869 23.4532 90.3344 23.6856 90.3085C24.3193 90.238 25.1514 90.0821 25.8069 89.7891C26.1324 89.6436 26.4673 89.4414 26.6992 89.1534C26.9513 88.8405 27.0655 88.4419 26.9407 88.0021C26.8707 87.7554 26.7334 87.5303 26.5087 87.3727C26.2876 87.2174 26.0376 87.1667 25.8131 87.1667C25.3892 87.1668 24.9484 87.3463 24.5851 87.5456C24.2047 87.7544 23.8296 88.0295 23.5188 88.3095Z" fill="#584309"/>
<path d="M37.5547 97H36.2734L39.1523 89H40.5469L43.4258 97H42.1445L39.8828 90.4531H39.8203L37.5547 97ZM37.7695 93.8672H41.9258V94.8828H37.7695V93.8672ZM46.918 97.1211C46.3372 97.1211 45.8372 96.9896 45.418 96.7266C45.0013 96.4609 44.681 96.0951 44.457 95.6289C44.2331 95.1628 44.1211 94.6289 44.1211 94.0273C44.1211 93.418 44.2357 92.8802 44.4648 92.4141C44.694 91.9453 45.0169 91.5794 45.4336 91.3164C45.8503 91.0534 46.3411 90.9219 46.9063 90.9219C47.362 90.9219 47.7682 91.0065 48.125 91.1758C48.4818 91.3424 48.7695 91.5768 48.9883 91.8789C49.2096 92.181 49.3411 92.5339 49.3828 92.9375H48.2461C48.1836 92.6562 48.0404 92.4141 47.8164 92.2109C47.5951 92.0078 47.2982 91.9062 46.9258 91.9062C46.6003 91.9062 46.3151 91.9922 46.0703 92.1641C45.8281 92.3333 45.6393 92.5755 45.5039 92.8906C45.3685 93.2031 45.3008 93.5729 45.3008 94C45.3008 94.4375 45.3672 94.8151 45.5 95.1328C45.6328 95.4505 45.8203 95.6966 46.0625 95.8711C46.3073 96.0456 46.5951 96.1328 46.9258 96.1328C47.1471 96.1328 47.3477 96.0924 47.5273 96.0117C47.7096 95.9284 47.862 95.8099 47.9844 95.6562C48.1094 95.5026 48.1966 95.3177 48.2461 95.1016H49.3828C49.3411 95.4896 49.2148 95.8359 49.0039 96.1406C48.793 96.4453 48.5104 96.6849 48.1563 96.8594C47.8047 97.0339 47.3919 97.1211 46.918 97.1211ZM53.1592 97.1211C52.5785 97.1211 52.0785 96.9896 51.6592 96.7266C51.2425 96.4609 50.9222 96.0951 50.6982 95.6289C50.4743 95.1628 50.3623 94.6289 50.3623 94.0273C50.3623 93.418 50.4769 92.8802 50.7061 92.4141C50.9352 91.9453 51.2581 91.5794 51.6748 91.3164C52.0915 91.0534 52.5824 90.9219 53.1475 90.9219C53.6032 90.9219 54.0094 91.0065 54.3662 91.1758C54.723 91.3424 55.0107 91.5768 55.2295 91.8789C55.4508 92.181 55.5824 92.5339 55.624 92.9375H54.4873C54.4248 92.6562 54.2816 92.4141 54.0576 92.2109C53.8363 92.0078 53.5394 91.9062 53.167 91.9062C52.8415 91.9062 52.5563 91.9922 52.3115 92.1641C52.0693 92.3333 51.8805 92.5755 51.7451 92.8906C51.6097 93.2031 51.542 93.5729 51.542 94C51.542 94.4375 51.6084 94.8151 51.7412 95.1328C51.874 95.4505 52.0615 95.6966 52.3037 95.8711C52.5485 96.0456 52.8363 96.1328 53.167 96.1328C53.3883 96.1328 53.5889 96.0924 53.7686 96.0117C53.9508 95.9284 54.1032 95.8099 54.2256 95.6562C54.3506 95.5026 54.4378 95.3177 54.4873 95.1016H55.624C55.5824 95.4896 55.4561 95.8359 55.2451 96.1406C55.0342 96.4453 54.7516 96.6849 54.3975 96.8594C54.0459 97.0339 53.6331 97.1211 53.1592 97.1211ZM59.459 97.1211C58.8678 97.1211 58.3587 96.9948 57.9316 96.7422C57.5072 96.487 57.179 96.1289 56.9473 95.668C56.7181 95.2044 56.6035 94.6615 56.6035 94.0391C56.6035 93.4245 56.7181 92.8828 56.9473 92.4141C57.179 91.9453 57.502 91.5794 57.916 91.3164C58.3327 91.0534 58.8197 90.9219 59.377 90.9219C59.7155 90.9219 60.0436 90.9779 60.3613 91.0898C60.679 91.2018 60.9642 91.3776 61.2168 91.6172C61.4694 91.8568 61.6686 92.168 61.8145 92.5508C61.9603 92.931 62.0332 93.3932 62.0332 93.9375V94.3516H57.2637V93.4766H60.8887C60.8887 93.1693 60.8262 92.8971 60.7012 92.6602C60.5762 92.4206 60.4004 92.2318 60.1738 92.0937C59.9499 91.9557 59.6868 91.8867 59.3848 91.8867C59.0566 91.8867 58.7702 91.9674 58.5254 92.1289C58.2832 92.2878 58.0957 92.4961 57.9629 92.7539C57.8327 93.0091 57.7676 93.2865 57.7676 93.5859V94.2695C57.7676 94.6706 57.8379 95.0117 57.9785 95.293C58.1217 95.5742 58.321 95.7891 58.5762 95.9375C58.8314 96.0833 59.1296 96.1562 59.4707 96.1562C59.6921 96.1562 59.8939 96.125 60.0762 96.0625C60.2585 95.9974 60.416 95.901 60.5488 95.7734C60.6816 95.6458 60.7832 95.4883 60.8535 95.3008L61.959 95.5C61.8704 95.8255 61.7116 96.1107 61.4824 96.3555C61.2559 96.5977 60.9707 96.7865 60.627 96.9219C60.2858 97.0547 59.8965 97.1211 59.459 97.1211ZM64.4971 89V97H63.3291V89H64.4971ZM68.6543 97.1211C68.0632 97.1211 67.554 96.9948 67.127 96.7422C66.7025 96.487 66.3743 96.1289 66.1426 95.668C65.9134 95.2044 65.7988 94.6615 65.7988 94.0391C65.7988 93.4245 65.9134 92.8828 66.1426 92.4141C66.3743 91.9453 66.6973 91.5794 67.1113 91.3164C67.528 91.0534 68.015 90.9219 68.5723 90.9219C68.9108 90.9219 69.2389 90.9779 69.5566 91.0898C69.8743 91.2018 70.1595 91.3776 70.4121 91.6172C70.6647 91.8568 70.8639 92.168 71.0098 92.5508C71.1556 92.931 71.2285 93.3932 71.2285 93.9375V94.3516H66.459V93.4766H70.084C70.084 93.1693 70.0215 92.8971 69.8965 92.6602C69.7715 92.4206 69.5957 92.2318 69.3691 92.0937C69.1452 91.9557 68.8822 91.8867 68.5801 91.8867C68.252 91.8867 67.9655 91.9674 67.7207 92.1289C67.4785 92.2878 67.291 92.4961 67.1582 92.7539C67.028 93.0091 66.9629 93.2865 66.9629 93.5859V94.2695C66.9629 94.6706 67.0332 95.0117 67.1738 95.293C67.3171 95.5742 67.5163 95.7891 67.7715 95.9375C68.0267 96.0833 68.3249 96.1562 68.666 96.1562C68.8874 96.1562 69.0892 96.125 69.2715 96.0625C69.4538 95.9974 69.6113 95.901 69.7441 95.7734C69.877 95.6458 69.9785 95.4883 70.0488 95.3008L71.1543 95.5C71.0658 95.8255 70.9069 96.1107 70.6777 96.3555C70.4512 96.5977 70.166 96.7865 69.8223 96.9219C69.4811 97.0547 69.0918 97.1211 68.6543 97.1211ZM72.5244 97V91H73.6533V91.9531H73.7158C73.8252 91.6302 74.0179 91.3763 74.2939 91.1914C74.5726 91.0039 74.8877 90.9102 75.2393 90.9102C75.3122 90.9102 75.3981 90.9128 75.4971 90.918C75.5986 90.9232 75.6781 90.9297 75.7354 90.9375V92.0547C75.6885 92.0417 75.6051 92.0273 75.4854 92.0117C75.3656 91.9935 75.2458 91.9844 75.126 91.9844C74.8499 91.9844 74.6038 92.043 74.3877 92.1602C74.1742 92.2747 74.0049 92.4349 73.8799 92.6406C73.7549 92.8437 73.6924 93.0755 73.6924 93.3359V97H72.5244ZM78.4385 97.1328C78.0583 97.1328 77.7145 97.0625 77.4072 96.9219C77.0999 96.7786 76.8564 96.5716 76.6768 96.3008C76.4997 96.0299 76.4111 95.6979 76.4111 95.3047C76.4111 94.9661 76.4762 94.6875 76.6064 94.4687C76.7367 94.25 76.9124 94.0768 77.1338 93.9492C77.3551 93.8216 77.6025 93.7253 77.876 93.6602C78.1494 93.5951 78.4281 93.5456 78.7119 93.5117C79.0713 93.4701 79.363 93.4362 79.5869 93.4102C79.8109 93.3815 79.9736 93.3359 80.0752 93.2734C80.1768 93.2109 80.2275 93.1094 80.2275 92.9687V92.9414C80.2275 92.6003 80.1312 92.3359 79.9385 92.1484C79.7484 91.9609 79.4645 91.8672 79.0869 91.8672C78.6937 91.8672 78.3838 91.9544 78.1572 92.1289C77.9333 92.3008 77.7783 92.4922 77.6924 92.7031L76.5947 92.4531C76.7249 92.0885 76.915 91.7943 77.165 91.5703C77.4176 91.3437 77.708 91.1797 78.0361 91.0781C78.3643 90.974 78.7093 90.9219 79.0713 90.9219C79.3109 90.9219 79.5648 90.9505 79.833 91.0078C80.1038 91.0625 80.3564 91.1641 80.5908 91.3125C80.8278 91.4609 81.0218 91.6732 81.1729 91.9492C81.3239 92.2227 81.3994 92.5781 81.3994 93.0156V97H80.2588V96.1797H80.2119C80.1364 96.3307 80.0231 96.4792 79.8721 96.625C79.721 96.7708 79.527 96.8919 79.29 96.9883C79.0531 97.0846 78.7692 97.1328 78.4385 97.1328ZM78.6924 96.1953C79.0153 96.1953 79.2913 96.1315 79.5205 96.0039C79.7523 95.8763 79.9281 95.7096 80.0479 95.5039C80.1702 95.2956 80.2314 95.0729 80.2314 94.8359V94.0625C80.1898 94.1042 80.109 94.1432 79.9893 94.1797C79.8721 94.2135 79.738 94.2435 79.5869 94.2695C79.4359 94.293 79.2887 94.3151 79.1455 94.3359C79.0023 94.3542 78.8825 94.3698 78.7861 94.3828C78.5596 94.4115 78.3525 94.4596 78.165 94.5273C77.9801 94.5951 77.8317 94.6927 77.7197 94.8203C77.6104 94.9453 77.5557 95.112 77.5557 95.3203C77.5557 95.6094 77.6624 95.8281 77.876 95.9766C78.0895 96.1224 78.3617 96.1953 78.6924 96.1953ZM85.7559 91V91.9375H82.4785V91H85.7559ZM83.3574 89.5625H84.5254V95.2383C84.5254 95.4648 84.5592 95.6354 84.627 95.75C84.6947 95.862 84.7819 95.9388 84.8887 95.9805C84.998 96.0195 85.1165 96.0391 85.2441 96.0391C85.3379 96.0391 85.4199 96.0326 85.4902 96.0195C85.5605 96.0065 85.6152 95.9961 85.6543 95.9883L85.8652 96.9531C85.7975 96.9792 85.7012 97.0052 85.5762 97.0313C85.4512 97.0599 85.2949 97.0755 85.1074 97.0781C84.8001 97.0833 84.5137 97.0286 84.248 96.9141C83.9824 96.7995 83.7676 96.6224 83.6035 96.3828C83.4395 96.1432 83.3574 95.8424 83.3574 95.4805V89.5625ZM89.5693 97.1211C88.9782 97.1211 88.4691 96.9948 88.042 96.7422C87.6175 96.487 87.2894 96.1289 87.0576 95.668C86.8285 95.2044 86.7139 94.6615 86.7139 94.0391C86.7139 93.4245 86.8285 92.8828 87.0576 92.4141C87.2894 91.9453 87.6123 91.5794 88.0264 91.3164C88.443 91.0534 88.93 90.9219 89.4873 90.9219C89.8258 90.9219 90.154 90.9779 90.4717 91.0898C90.7894 91.2018 91.0745 91.3776 91.3271 91.6172C91.5798 91.8568 91.779 92.168 91.9248 92.5508C92.0706 92.931 92.1436 93.3932 92.1436 93.9375V94.3516H87.374V93.4766H90.999C90.999 93.1693 90.9365 92.8971 90.8115 92.6602C90.6865 92.4206 90.5107 92.2318 90.2842 92.0937C90.0602 91.9557 89.7972 91.8867 89.4951 91.8867C89.167 91.8867 88.8805 91.9674 88.6357 92.1289C88.3936 92.2878 88.2061 92.4961 88.0732 92.7539C87.943 93.0091 87.8779 93.2865 87.8779 93.5859V94.2695C87.8779 94.6706 87.9482 95.0117 88.0889 95.293C88.2321 95.5742 88.4313 95.7891 88.6865 95.9375C88.9417 96.0833 89.2399 96.1562 89.5811 96.1562C89.8024 96.1562 90.0042 96.125 90.1865 96.0625C90.3688 95.9974 90.5264 95.901 90.6592 95.7734C90.792 95.6458 90.8936 95.4883 90.9639 95.3008L92.0693 95.5C91.9808 95.8255 91.8219 96.1107 91.5928 96.3555C91.3662 96.5977 91.0811 96.7865 90.7373 96.9219C90.3962 97.0547 90.0068 97.1211 89.5693 97.1211ZM95.6855 97.1172C95.2012 97.1172 94.7689 96.9935 94.3887 96.7461C94.0111 96.4961 93.7142 96.1406 93.498 95.6797C93.2845 95.2161 93.1777 94.6602 93.1777 94.0117C93.1777 93.3633 93.2858 92.8086 93.502 92.3477C93.7207 91.8867 94.0202 91.5339 94.4004 91.2891C94.7806 91.0443 95.2116 90.9219 95.6934 90.9219C96.0658 90.9219 96.3652 90.9844 96.5918 91.1094C96.821 91.2318 96.998 91.375 97.123 91.5391C97.2507 91.7031 97.3496 91.8477 97.4199 91.9727H97.4902V89H98.6582V97H97.5176V96.0664H97.4199C97.3496 96.194 97.248 96.3398 97.1152 96.5039C96.985 96.668 96.8053 96.8112 96.5762 96.9336C96.347 97.056 96.0501 97.1172 95.6855 97.1172ZM95.9434 96.1211C96.2793 96.1211 96.5632 96.0326 96.7949 95.8555C97.0293 95.6758 97.2064 95.4271 97.3262 95.1094C97.4486 94.7917 97.5098 94.4219 97.5098 94C97.5098 93.5833 97.4499 93.2187 97.3301 92.9062C97.2103 92.5937 97.0345 92.3503 96.8027 92.1758C96.571 92.0013 96.2845 91.9141 95.9434 91.9141C95.5918 91.9141 95.2988 92.0052 95.0645 92.1875C94.8301 92.3698 94.653 92.6185 94.5332 92.9336C94.416 93.2487 94.3574 93.6042 94.3574 94C94.3574 94.401 94.4173 94.7617 94.5371 95.082C94.6569 95.4023 94.834 95.6562 95.0684 95.8437C95.3053 96.0286 95.597 96.1211 95.9434 96.1211Z" fill="#473300"/>
<g clip-path="url(#clip2_687_2249)">
<path d="M103.795 97V90.9951H104.939V91.9619H105.003C105.114 91.6325 105.308 91.3747 105.583 91.1885C105.859 91.0023 106.173 90.9092 106.523 90.9092C106.599 90.9092 106.685 90.9128 106.781 90.9199C106.878 90.9235 106.958 90.9307 107.023 90.9414V92.0693C106.98 92.055 106.898 92.0407 106.776 92.0264C106.654 92.012 106.531 92.0049 106.405 92.0049C106.133 92.0049 105.888 92.0622 105.669 92.1768C105.451 92.2913 105.281 92.4507 105.159 92.6548C105.037 92.8553 104.977 93.0881 104.977 93.353V97H103.795ZM110.423 97.1235C109.832 97.1235 109.322 96.9964 108.892 96.7422C108.462 96.488 108.131 96.1299 107.898 95.668C107.669 95.2061 107.555 94.6636 107.555 94.0405C107.555 93.4246 107.667 92.8822 107.893 92.4131C108.122 91.944 108.444 91.5788 108.86 91.3174C109.275 91.0524 109.762 90.9199 110.321 90.9199C110.665 90.9199 110.996 90.9772 111.314 91.0918C111.633 91.2028 111.92 91.3783 112.174 91.6182C112.428 91.8581 112.629 92.1696 112.775 92.5527C112.926 92.9323 113.001 93.3942 113.001 93.9385V94.3574H108.215V93.4766H112.394L111.841 93.7666C111.841 93.3978 111.784 93.0737 111.669 92.7944C111.554 92.5116 111.384 92.2913 111.159 92.1338C110.937 91.9762 110.657 91.8975 110.321 91.8975C109.988 91.8975 109.703 91.978 109.467 92.1392C109.23 92.3003 109.05 92.5133 108.924 92.7783C108.803 93.0397 108.742 93.3262 108.742 93.6377V94.2393C108.742 94.651 108.812 95.0002 108.951 95.2866C109.094 95.5695 109.293 95.7843 109.547 95.9312C109.802 96.0744 110.097 96.146 110.434 96.146C110.656 96.146 110.856 96.1156 111.035 96.0547C111.214 95.9902 111.368 95.8953 111.497 95.77C111.63 95.6411 111.73 95.4836 111.798 95.2974L112.91 95.5605C112.813 95.8685 112.65 96.1406 112.421 96.377C112.195 96.6133 111.912 96.7977 111.572 96.9302C111.236 97.0591 110.853 97.1235 110.423 97.1235ZM115.434 97L113.629 90.9951H114.875L115.536 93.4819C115.633 93.8543 115.737 94.2697 115.848 94.728C115.959 95.1828 116.066 95.6966 116.17 96.2695H115.998C116.102 95.7181 116.209 95.2132 116.32 94.7549C116.431 94.2965 116.537 93.8722 116.637 93.4819L117.298 90.9951H118.479L119.129 93.4819C119.23 93.8615 119.333 94.2804 119.441 94.7388C119.552 95.1971 119.659 95.7074 119.763 96.2695H119.586C119.693 95.7145 119.801 95.2078 119.908 94.7495C120.016 94.2912 120.119 93.8687 120.22 93.4819L120.88 90.9951H122.137L120.327 97H119.14L118.399 94.4165C118.324 94.1551 118.25 93.883 118.179 93.6001C118.107 93.3136 118.037 93.0218 117.969 92.7246C117.901 92.4274 117.831 92.132 117.76 91.8384H118.001C117.933 92.1284 117.864 92.4238 117.792 92.7246C117.724 93.0218 117.654 93.3154 117.583 93.6055C117.511 93.8919 117.438 94.1623 117.362 94.4165L116.621 97H115.434ZM124.909 97.1343C124.529 97.1343 124.185 97.0645 123.877 96.9248C123.569 96.7816 123.326 96.5739 123.147 96.3018C122.968 96.0296 122.878 95.6966 122.878 95.3027C122.878 94.9626 122.943 94.6833 123.072 94.4648C123.204 94.2464 123.382 94.0728 123.604 93.9438C123.829 93.8149 124.078 93.7183 124.35 93.6538C124.626 93.5894 124.905 93.541 125.188 93.5088C125.542 93.4658 125.831 93.4318 126.053 93.4067C126.275 93.3781 126.438 93.3333 126.542 93.2725C126.649 93.208 126.703 93.106 126.703 92.9663V92.9341C126.703 92.7085 126.66 92.5187 126.574 92.3647C126.488 92.2108 126.359 92.0926 126.187 92.0103C126.019 91.9243 125.807 91.8813 125.553 91.8813C125.292 91.8813 125.066 91.9225 124.876 92.0049C124.69 92.0837 124.538 92.1857 124.42 92.311C124.305 92.4364 124.219 92.5671 124.162 92.7031L123.05 92.4131C123.186 92.055 123.382 91.7668 123.636 91.5483C123.89 91.3299 124.182 91.1706 124.511 91.0703C124.841 90.9701 125.181 90.9199 125.532 90.9199C125.775 90.9199 126.033 90.9486 126.305 91.0059C126.577 91.0632 126.833 91.167 127.073 91.3174C127.313 91.4678 127.508 91.679 127.659 91.9512C127.809 92.2233 127.884 92.5778 127.884 93.0146V97H126.74V96.1782H126.681C126.602 96.3322 126.486 96.4826 126.332 96.6294C126.178 96.7762 125.983 96.8979 125.747 96.9946C125.514 97.0877 125.235 97.1343 124.909 97.1343ZM125.172 96.1836C125.494 96.1836 125.77 96.1209 125.999 95.9956C126.228 95.8703 126.404 95.7038 126.525 95.4961C126.647 95.2884 126.708 95.0682 126.708 94.8354V94.0674C126.665 94.1104 126.583 94.1497 126.461 94.1855C126.343 94.2178 126.207 94.2482 126.053 94.2769C125.899 94.3019 125.75 94.3234 125.607 94.3413C125.464 94.3592 125.346 94.3735 125.252 94.3843C125.03 94.4129 124.826 94.4613 124.64 94.5293C124.458 94.5973 124.311 94.694 124.2 94.8193C124.092 94.9447 124.039 95.1112 124.039 95.3188C124.039 95.5086 124.087 95.668 124.184 95.7969C124.284 95.9258 124.418 96.0225 124.586 96.0869C124.755 96.1514 124.95 96.1836 125.172 96.1836ZM129.479 97V90.9951H130.624V91.9619H130.688C130.799 91.6325 130.992 91.3747 131.268 91.1885C131.544 91.0023 131.857 90.9092 132.208 90.9092C132.283 90.9092 132.369 90.9128 132.466 90.9199C132.562 90.9235 132.643 90.9307 132.708 90.9414V92.0693C132.665 92.055 132.582 92.0407 132.46 92.0264C132.339 92.012 132.215 92.0049 132.09 92.0049C131.818 92.0049 131.572 92.0622 131.354 92.1768C131.136 92.2913 130.965 92.4507 130.844 92.6548C130.722 92.8553 130.661 93.0881 130.661 93.353V97H129.479ZM135.753 97.1182C135.266 97.1182 134.833 96.9946 134.453 96.7476C134.074 96.4969 133.776 96.1406 133.562 95.6787C133.347 95.2132 133.239 94.6582 133.239 94.0137C133.239 93.362 133.348 92.8052 133.567 92.3433C133.785 91.8813 134.084 91.5286 134.464 91.2852C134.843 91.0417 135.273 90.9199 135.753 90.9199C136.125 90.9199 136.424 90.9826 136.65 91.1079C136.879 91.2297 137.058 91.3729 137.187 91.5376C137.316 91.7023 137.414 91.8473 137.482 91.9727H137.547V88.9971H138.729V97H137.579V96.0601H137.482C137.414 96.189 137.314 96.3358 137.182 96.5005C137.049 96.6652 136.868 96.8102 136.639 96.9355C136.41 97.0573 136.115 97.1182 135.753 97.1182ZM136.011 96.1138C136.347 96.1138 136.63 96.0243 136.859 95.8452C137.092 95.6662 137.268 95.4191 137.386 95.104C137.507 94.7853 137.568 94.4183 137.568 94.0029C137.568 93.584 137.509 93.2205 137.391 92.9126C137.273 92.6011 137.097 92.3594 136.865 92.1875C136.636 92.012 136.351 91.9243 136.011 91.9243C135.663 91.9243 135.373 92.0156 135.141 92.1982C134.911 92.3809 134.738 92.6297 134.62 92.9448C134.505 93.2563 134.448 93.609 134.448 94.0029C134.448 94.4004 134.507 94.7585 134.625 95.0771C134.743 95.3958 134.919 95.6483 135.151 95.8345C135.384 96.0207 135.671 96.1138 136.011 96.1138ZM143.251 99.2451V90.9951H144.4V91.9727H144.497C144.569 91.8473 144.667 91.7023 144.792 91.5376C144.921 91.3729 145.099 91.2297 145.324 91.1079C145.553 90.9826 145.856 90.9199 146.232 90.9199C146.712 90.9199 147.14 91.0417 147.516 91.2852C147.895 91.5286 148.194 91.8813 148.413 92.3433C148.631 92.8052 148.74 93.362 148.74 94.0137C148.74 94.6582 148.633 95.2132 148.418 95.6787C148.203 96.1406 147.906 96.4969 147.526 96.7476C147.15 96.9946 146.719 97.1182 146.232 97.1182C145.87 97.1182 145.573 97.0573 145.34 96.9355C145.111 96.8102 144.93 96.6652 144.798 96.5005C144.669 96.3358 144.569 96.189 144.497 96.0601H144.433V99.2451H143.251ZM145.969 96.1138C146.312 96.1138 146.601 96.0207 146.833 95.8345C147.066 95.6483 147.24 95.3958 147.354 95.0771C147.473 94.7585 147.532 94.4004 147.532 94.0029C147.532 93.609 147.473 93.2563 147.354 92.9448C147.24 92.6297 147.066 92.3809 146.833 92.1982C146.604 92.0156 146.316 91.9243 145.969 91.9243C145.632 91.9243 145.347 92.012 145.115 92.1875C144.882 92.3594 144.707 92.6011 144.588 92.9126C144.47 93.2205 144.411 93.584 144.411 94.0029C144.411 94.4183 144.47 94.7853 144.588 95.104C144.71 95.4191 144.887 95.6662 145.12 95.8452C145.353 96.0243 145.636 96.1138 145.969 96.1138ZM152.575 97.1235C152.013 97.1235 151.521 96.9946 151.098 96.7368C150.679 96.479 150.353 96.1174 150.121 95.6519C149.888 95.1864 149.771 94.6457 149.771 94.0298C149.771 93.4067 149.888 92.8625 150.121 92.397C150.353 91.9279 150.679 91.5645 151.098 91.3066C151.521 91.0488 152.013 90.9199 152.575 90.9199C153.141 90.9199 153.633 91.0488 154.052 91.3066C154.475 91.5645 154.802 91.9279 155.035 92.397C155.268 92.8625 155.384 93.4067 155.384 94.0298C155.384 94.6457 155.268 95.1864 155.035 95.6519C154.802 96.1174 154.475 96.479 154.052 96.7368C153.633 96.9946 153.141 97.1235 152.575 97.1235ZM152.575 96.1245C152.94 96.1245 153.241 96.0296 153.478 95.8398C153.717 95.6465 153.895 95.3923 154.009 95.0771C154.127 94.7585 154.187 94.4093 154.187 94.0298C154.187 93.6466 154.127 93.2957 154.009 92.9771C153.895 92.6548 153.717 92.3988 153.478 92.209C153.241 92.0156 152.94 91.9189 152.575 91.9189C152.214 91.9189 151.915 92.0156 151.678 92.209C151.442 92.3988 151.265 92.653 151.146 92.9717C151.032 93.2904 150.975 93.6431 150.975 94.0298C150.975 94.4093 151.032 94.7585 151.146 95.0771C151.265 95.3923 151.442 95.6465 151.678 95.8398C151.915 96.0296 152.214 96.1245 152.575 96.1245ZM156.7 97V90.9951H157.882V97H156.7ZM157.296 90.0767C157.092 90.0767 156.917 90.0086 156.77 89.8726C156.627 89.7365 156.555 89.5718 156.555 89.3784C156.555 89.1815 156.627 89.015 156.77 88.8789C156.917 88.7428 157.092 88.6748 157.296 88.6748C157.5 88.6748 157.676 88.7428 157.823 88.8789C157.97 89.015 158.043 89.1815 158.043 89.3784C158.043 89.5718 157.97 89.7365 157.823 89.8726C157.676 90.0086 157.5 90.0767 157.296 90.0767ZM160.653 93.4443V97H159.472V90.9951H160.6L160.61 92.4668H160.487C160.662 91.9297 160.917 91.5376 161.25 91.2905C161.583 91.0435 161.985 90.9199 162.458 90.9199C162.866 90.9199 163.222 91.0059 163.527 91.1777C163.831 91.3496 164.069 91.6038 164.241 91.9404C164.413 92.2734 164.499 92.6888 164.499 93.1865V97H163.317V93.3315C163.317 92.8983 163.205 92.5599 162.979 92.3164C162.753 92.0729 162.444 91.9512 162.05 91.9512C161.785 91.9512 161.547 92.0103 161.335 92.1284C161.124 92.243 160.958 92.4113 160.836 92.6333C160.714 92.8553 160.653 93.1257 160.653 93.4443ZM168.656 90.9951V91.9565H165.401V90.9951H168.656ZM166.277 89.5664H167.458V95.3779C167.458 95.6178 167.509 95.7951 167.609 95.9097C167.713 96.0207 167.881 96.0762 168.114 96.0762C168.175 96.0762 168.255 96.069 168.355 96.0547C168.456 96.0404 168.542 96.026 168.613 96.0117L168.823 96.957C168.697 97 168.563 97.0304 168.42 97.0483C168.277 97.0698 168.135 97.0806 167.996 97.0806C167.451 97.0806 167.029 96.9409 166.728 96.6616C166.427 96.3787 166.277 95.9831 166.277 95.4746V89.5664ZM171.895 97.1235C171.462 97.1235 171.075 97.0609 170.735 96.9355C170.398 96.8102 170.121 96.6258 169.902 96.3823C169.688 96.1353 169.544 95.8345 169.473 95.48L170.584 95.249C170.667 95.5605 170.821 95.7915 171.046 95.9419C171.272 96.0923 171.558 96.1675 171.906 96.1675C172.285 96.1675 172.588 96.0887 172.813 95.9312C173.039 95.77 173.152 95.5785 173.152 95.3564C173.152 95.1631 173.082 95.0037 172.942 94.8784C172.806 94.7531 172.595 94.66 172.309 94.5991L171.299 94.3682C170.74 94.2428 170.325 94.0423 170.053 93.7666C169.781 93.4909 169.645 93.1382 169.645 92.7085C169.645 92.3504 169.745 92.0371 169.945 91.7686C170.146 91.5 170.42 91.2923 170.767 91.1455C171.114 90.9951 171.515 90.9199 171.97 90.9199C172.403 90.9199 172.774 90.9826 173.082 91.1079C173.39 91.2332 173.639 91.4087 173.829 91.6343C174.022 91.8599 174.16 92.1213 174.242 92.4185L173.184 92.6494C173.109 92.4382 172.978 92.2537 172.792 92.0962C172.606 91.9351 172.335 91.8545 171.981 91.8545C171.655 91.8545 171.383 91.9279 171.165 92.0747C170.946 92.2215 170.837 92.4077 170.837 92.6333C170.837 92.8338 170.909 92.9967 171.052 93.1221C171.199 93.2438 171.437 93.3423 171.766 93.4175L172.733 93.6323C173.288 93.7576 173.7 93.9546 173.968 94.2231C174.237 94.4917 174.371 94.8354 174.371 95.2544C174.371 95.6196 174.265 95.9437 174.054 96.2266C173.847 96.5059 173.556 96.7261 173.184 96.8872C172.815 97.0448 172.386 97.1235 171.895 97.1235Z" fill="#473300"/>
</g>
<g clip-path="url(#clip3_687_2249)">
<path d="M27.8646 109.948C28.3794 110.462 28.4676 111.271 28.0489 111.867C27.4273 112.751 26.819 113.509 26.2024 114.195C26.1458 114.258 26.1131 114.339 26.1092 114.424L25.8406 120.33C25.8338 120.48 25.7709 120.623 25.6645 120.73C25.3469 121.047 24.8062 120.92 24.6639 120.494L23.6088 117.327C23.5278 117.084 23.2275 116.999 23.0288 117.16C22.4475 117.633 21.8325 118.111 21.1706 118.623C21.0251 118.735 20.9273 118.898 20.8973 119.08L20.6913 120.324C20.6234 120.733 20.271 121.052 19.8613 121.076C19.4595 121.1 19.1182 120.833 19.0506 120.441L18.8926 119.524C18.8404 119.22 18.6027 118.983 18.2993 118.93L17.3816 118.772C16.99 118.704 16.7228 118.363 16.7463 117.961C16.7705 117.551 17.0898 117.199 17.499 117.131L18.7411 116.925C18.9252 116.894 19.0905 116.794 19.2027 116.645C19.711 115.969 20.1712 115.353 20.6229 114.774C20.7786 114.574 20.6918 114.279 20.4517 114.199L17.3305 113.159C16.9034 113.017 16.7753 112.474 17.0936 112.156C17.1994 112.05 17.3414 111.988 17.4907 111.98L23.3499 111.671C23.4321 111.667 23.5103 111.634 23.5722 111.58C24.247 110.988 25.0202 110.389 25.9566 109.752C26.5536 109.346 27.3541 109.437 27.8646 109.948Z" fill="#473607"/>
</g>
<path d="M36.8789 119V111H39.7305C40.3503 111 40.8646 111.107 41.2734 111.32C41.6849 111.534 41.9922 111.829 42.1953 112.207C42.3984 112.582 42.5 113.016 42.5 113.508C42.5 113.997 42.3971 114.428 42.1914 114.801C41.9883 115.171 41.681 115.458 41.2695 115.664C40.8607 115.87 40.3464 115.973 39.7266 115.973H37.5664V114.934H39.6172C40.0078 114.934 40.3255 114.878 40.5703 114.766C40.8177 114.654 40.9987 114.491 41.1133 114.277C41.2279 114.064 41.2852 113.807 41.2852 113.508C41.2852 113.206 41.2266 112.944 41.1094 112.723C40.9948 112.501 40.8138 112.332 40.5664 112.215C40.3216 112.095 40 112.035 39.6016 112.035H38.0859V119H36.8789ZM40.8281 115.391L42.8047 119H41.4297L39.4922 115.391H40.8281ZM46.3857 119.121C45.7946 119.121 45.2855 118.995 44.8584 118.742C44.4339 118.487 44.1058 118.129 43.874 117.668C43.6449 117.204 43.5303 116.661 43.5303 116.039C43.5303 115.424 43.6449 114.883 43.874 114.414C44.1058 113.945 44.4287 113.579 44.8428 113.316C45.2594 113.053 45.7464 112.922 46.3037 112.922C46.6423 112.922 46.9704 112.978 47.2881 113.09C47.6058 113.202 47.891 113.378 48.1436 113.617C48.3962 113.857 48.5954 114.168 48.7412 114.551C48.887 114.931 48.96 115.393 48.96 115.937V116.352H44.1904V115.477H47.8154C47.8154 115.169 47.7529 114.897 47.6279 114.66C47.5029 114.421 47.3271 114.232 47.1006 114.094C46.8766 113.956 46.6136 113.887 46.3115 113.887C45.9834 113.887 45.6969 113.967 45.4521 114.129C45.21 114.288 45.0225 114.496 44.8896 114.754C44.7594 115.009 44.6943 115.286 44.6943 115.586V116.27C44.6943 116.671 44.7646 117.012 44.9053 117.293C45.0485 117.574 45.2477 117.789 45.5029 117.937C45.7581 118.083 46.0563 118.156 46.3975 118.156C46.6188 118.156 46.8206 118.125 47.0029 118.062C47.1852 117.997 47.3428 117.901 47.4756 117.773C47.6084 117.646 47.71 117.488 47.7803 117.301L48.8857 117.5C48.7972 117.826 48.6383 118.111 48.4092 118.355C48.1826 118.598 47.8975 118.786 47.5537 118.922C47.2126 119.055 46.8232 119.121 46.3857 119.121ZM52.502 119.117C52.0176 119.117 51.5853 118.993 51.2051 118.746C50.8275 118.496 50.5306 118.141 50.3145 117.68C50.1009 117.216 49.9941 116.66 49.9941 116.012C49.9941 115.363 50.1022 114.809 50.3184 114.348C50.5371 113.887 50.8366 113.534 51.2168 113.289C51.597 113.044 52.028 112.922 52.5098 112.922C52.8822 112.922 53.1816 112.984 53.4082 113.109C53.6374 113.232 53.8145 113.375 53.9395 113.539C54.0671 113.703 54.166 113.848 54.2363 113.973H54.3066V111H55.4746V119H54.334V118.066H54.2363C54.166 118.194 54.0645 118.34 53.9316 118.504C53.8014 118.668 53.6217 118.811 53.3926 118.934C53.1634 119.056 52.8665 119.117 52.502 119.117ZM52.7598 118.121C53.0957 118.121 53.3796 118.033 53.6113 117.855C53.8457 117.676 54.0228 117.427 54.1426 117.109C54.265 116.792 54.3262 116.422 54.3262 116C54.3262 115.583 54.2663 115.219 54.1465 114.906C54.0267 114.594 53.8509 114.35 53.6191 114.176C53.3874 114.001 53.1009 113.914 52.7598 113.914C52.4082 113.914 52.1152 114.005 51.8809 114.188C51.6465 114.37 51.4694 114.618 51.3496 114.934C51.2324 115.249 51.1738 115.604 51.1738 116C51.1738 116.401 51.2337 116.762 51.3535 117.082C51.4733 117.402 51.6504 117.656 51.8848 117.844C52.1217 118.029 52.4134 118.121 52.7598 118.121ZM59.7275 119.121C59.1364 119.121 58.6273 118.995 58.2002 118.742C57.7757 118.487 57.4476 118.129 57.2158 117.668C56.9867 117.204 56.8721 116.661 56.8721 116.039C56.8721 115.424 56.9867 114.883 57.2158 114.414C57.4476 113.945 57.7705 113.579 58.1846 113.316C58.6012 113.053 59.0882 112.922 59.6455 112.922C59.984 112.922 60.3122 112.978 60.6299 113.09C60.9476 113.202 61.2327 113.378 61.4854 113.617C61.738 113.857 61.9372 114.168 62.083 114.551C62.2288 114.931 62.3018 115.393 62.3018 115.937V116.352H57.5322V115.477H61.1572C61.1572 115.169 61.0947 114.897 60.9697 114.66C60.8447 114.421 60.6689 114.232 60.4424 114.094C60.2184 113.956 59.9554 113.887 59.6533 113.887C59.3252 113.887 59.0387 113.967 58.7939 114.129C58.5518 114.288 58.3643 114.496 58.2314 114.754C58.1012 115.009 58.0361 115.286 58.0361 115.586V116.27C58.0361 116.671 58.1064 117.012 58.2471 117.293C58.3903 117.574 58.5895 117.789 58.8447 117.937C59.0999 118.083 59.3981 118.156 59.7393 118.156C59.9606 118.156 60.1624 118.125 60.3447 118.062C60.527 117.997 60.6846 117.901 60.8174 117.773C60.9502 117.646 61.0518 117.488 61.1221 117.301L62.2275 117.5C62.139 117.826 61.9801 118.111 61.751 118.355C61.5244 118.598 61.2393 118.786 60.8955 118.922C60.5544 119.055 60.165 119.121 59.7275 119.121ZM66.1836 119.121C65.5924 119.121 65.0833 118.995 64.6563 118.742C64.2318 118.487 63.9036 118.129 63.6719 117.668C63.4427 117.204 63.3281 116.661 63.3281 116.039C63.3281 115.424 63.4427 114.883 63.6719 114.414C63.9036 113.945 64.2266 113.579 64.6406 113.316C65.0573 113.053 65.5443 112.922 66.1016 112.922C66.4401 112.922 66.7682 112.978 67.0859 113.09C67.4036 113.202 67.6888 113.378 67.9414 113.617C68.194 113.857 68.3932 114.168 68.5391 114.551C68.6849 114.931 68.7578 115.393 68.7578 115.937V116.352H63.9883V115.477H67.6133C67.6133 115.169 67.5508 114.897 67.4258 114.66C67.3008 114.421 67.125 114.232 66.8984 114.094C66.6745 113.956 66.4115 113.887 66.1094 113.887C65.7813 113.887 65.4948 113.967 65.25 114.129C65.0078 114.288 64.8203 114.496 64.6875 114.754C64.5573 115.009 64.4922 115.286 64.4922 115.586V116.27C64.4922 116.671 64.5625 117.012 64.7031 117.293C64.8464 117.574 65.0456 117.789 65.3008 117.937C65.556 118.083 65.8542 118.156 66.1953 118.156C66.4167 118.156 66.6185 118.125 66.8008 118.062C66.9831 117.997 67.1406 117.901 67.2734 117.773C67.4063 117.646 67.5078 117.488 67.5781 117.301L68.6836 117.5C68.5951 117.826 68.4362 118.111 68.207 118.355C67.9805 118.598 67.6953 118.786 67.3516 118.922C67.0104 119.055 66.6211 119.121 66.1836 119.121ZM70.0537 119V113H71.1748V113.977H71.249C71.374 113.646 71.5785 113.388 71.8623 113.203C72.1462 113.016 72.486 112.922 72.8818 112.922C73.2829 112.922 73.6188 113.016 73.8896 113.203C74.1631 113.391 74.3649 113.648 74.4951 113.977H74.5576C74.7008 113.656 74.9287 113.401 75.2412 113.211C75.5537 113.018 75.9261 112.922 76.3584 112.922C76.9027 112.922 77.3467 113.092 77.6904 113.434C78.0368 113.775 78.21 114.289 78.21 114.977V119H77.042V115.086C77.042 114.68 76.9313 114.385 76.71 114.203C76.4886 114.021 76.2243 113.93 75.917 113.93C75.5368 113.93 75.2412 114.047 75.0303 114.281C74.8193 114.513 74.7139 114.811 74.7139 115.176V119H73.5498V115.012C73.5498 114.686 73.4482 114.424 73.2451 114.227C73.042 114.029 72.7777 113.93 72.4521 113.93C72.2308 113.93 72.0264 113.988 71.8389 114.105C71.654 114.22 71.5042 114.38 71.3896 114.586C71.2777 114.792 71.2217 115.03 71.2217 115.301V119H70.0537ZM82.6865 119V113H83.8154V113.953H83.8779C83.9873 113.63 84.18 113.376 84.4561 113.191C84.7347 113.004 85.0498 112.91 85.4014 112.91C85.4743 112.91 85.5602 112.913 85.6592 112.918C85.7607 112.923 85.8402 112.93 85.8975 112.937V114.055C85.8506 114.042 85.7673 114.027 85.6475 114.012C85.5277 113.993 85.4079 113.984 85.2881 113.984C85.012 113.984 84.766 114.043 84.5498 114.16C84.3363 114.275 84.167 114.435 84.042 114.641C83.917 114.844 83.8545 115.076 83.8545 115.336V119H82.6865ZM89.2793 119.121C88.6882 119.121 88.179 118.995 87.752 118.742C87.3275 118.487 86.9993 118.129 86.7676 117.668C86.5384 117.204 86.4238 116.661 86.4238 116.039C86.4238 115.424 86.5384 114.883 86.7676 114.414C86.9993 113.945 87.3223 113.579 87.7363 113.316C88.153 113.053 88.64 112.922 89.1973 112.922C89.5358 112.922 89.8639 112.978 90.1816 113.09C90.4993 113.202 90.7845 113.378 91.0371 113.617C91.2897 113.857 91.4889 114.168 91.6348 114.551C91.7806 114.931 91.8535 115.393 91.8535 115.937V116.352H87.084V115.477H90.709C90.709 115.169 90.6465 114.897 90.5215 114.66C90.3965 114.421 90.2207 114.232 89.9941 114.094C89.7702 113.956 89.5072 113.887 89.2051 113.887C88.877 113.887 88.5905 113.967 88.3457 114.129C88.1035 114.288 87.916 114.496 87.7832 114.754C87.653 115.009 87.5879 115.286 87.5879 115.586V116.27C87.5879 116.671 87.6582 117.012 87.7988 117.293C87.9421 117.574 88.1413 117.789 88.3965 117.937C88.6517 118.083 88.9499 118.156 89.291 118.156C89.5124 118.156 89.7142 118.125 89.8965 118.062C90.0788 117.997 90.2363 117.901 90.3691 117.773C90.502 117.646 90.6035 117.488 90.6738 117.301L91.7793 117.5C91.6908 117.826 91.5319 118.111 91.3027 118.355C91.0762 118.598 90.791 118.786 90.4473 118.922C90.1061 119.055 89.7168 119.121 89.2793 119.121ZM94.4395 119L92.6738 113H93.8809L95.0566 117.406H95.1152L96.2949 113H97.502L98.6738 117.387H98.7324L99.9004 113H101.107L99.3457 119H98.1543L96.9355 114.668H96.8457L95.627 119H94.4395ZM103.962 119.133C103.582 119.133 103.238 119.063 102.931 118.922C102.623 118.779 102.38 118.572 102.2 118.301C102.023 118.03 101.935 117.698 101.935 117.305C101.935 116.966 102 116.687 102.13 116.469C102.26 116.25 102.436 116.077 102.657 115.949C102.879 115.822 103.126 115.725 103.399 115.66C103.673 115.595 103.951 115.546 104.235 115.512C104.595 115.47 104.886 115.436 105.11 115.41C105.334 115.382 105.497 115.336 105.599 115.273C105.7 115.211 105.751 115.109 105.751 114.969V114.941C105.751 114.6 105.655 114.336 105.462 114.148C105.272 113.961 104.988 113.867 104.61 113.867C104.217 113.867 103.907 113.954 103.681 114.129C103.457 114.301 103.302 114.492 103.216 114.703L102.118 114.453C102.248 114.089 102.438 113.794 102.688 113.57C102.941 113.344 103.231 113.18 103.56 113.078C103.888 112.974 104.233 112.922 104.595 112.922C104.834 112.922 105.088 112.951 105.356 113.008C105.627 113.062 105.88 113.164 106.114 113.312C106.351 113.461 106.545 113.673 106.696 113.949C106.847 114.223 106.923 114.578 106.923 115.016V119H105.782V118.18H105.735C105.66 118.331 105.547 118.479 105.396 118.625C105.244 118.771 105.05 118.892 104.813 118.988C104.576 119.085 104.293 119.133 103.962 119.133ZM104.216 118.195C104.539 118.195 104.815 118.132 105.044 118.004C105.276 117.876 105.451 117.71 105.571 117.504C105.694 117.296 105.755 117.073 105.755 116.836V116.062C105.713 116.104 105.632 116.143 105.513 116.18C105.396 116.214 105.261 116.243 105.11 116.27C104.959 116.293 104.812 116.315 104.669 116.336C104.526 116.354 104.406 116.37 104.31 116.383C104.083 116.411 103.876 116.46 103.688 116.527C103.504 116.595 103.355 116.693 103.243 116.82C103.134 116.945 103.079 117.112 103.079 117.32C103.079 117.609 103.186 117.828 103.399 117.977C103.613 118.122 103.885 118.195 104.216 118.195ZM108.479 119V113H109.607V113.953H109.67C109.779 113.63 109.972 113.376 110.248 113.191C110.527 113.004 110.842 112.91 111.193 112.91C111.266 112.91 111.352 112.913 111.451 112.918C111.553 112.923 111.632 112.93 111.689 112.937V114.055C111.643 114.042 111.559 114.027 111.439 114.012C111.32 113.993 111.2 113.984 111.08 113.984C110.804 113.984 110.558 114.043 110.342 114.16C110.128 114.275 109.959 114.435 109.834 114.641C109.709 114.844 109.646 115.076 109.646 115.336V119H108.479ZM114.731 119.117C114.247 119.117 113.815 118.993 113.435 118.746C113.057 118.496 112.76 118.141 112.544 117.68C112.33 117.216 112.224 116.66 112.224 116.012C112.224 115.363 112.332 114.809 112.548 114.348C112.767 113.887 113.066 113.534 113.446 113.289C113.826 113.044 114.257 112.922 114.739 112.922C115.112 112.922 115.411 112.984 115.638 113.109C115.867 113.232 116.044 113.375 116.169 113.539C116.297 113.703 116.396 113.848 116.466 113.973H116.536V111H117.704V119H116.563V118.066H116.466C116.396 118.194 116.294 118.34 116.161 118.504C116.031 118.668 115.851 118.811 115.622 118.934C115.393 119.056 115.096 119.117 114.731 119.117ZM114.989 118.121C115.325 118.121 115.609 118.033 115.841 117.855C116.075 117.676 116.252 117.427 116.372 117.109C116.494 116.792 116.556 116.422 116.556 116C116.556 115.583 116.496 115.219 116.376 114.906C116.256 114.594 116.08 114.35 115.849 114.176C115.617 114.001 115.33 113.914 114.989 113.914C114.638 113.914 114.345 114.005 114.11 114.188C113.876 114.37 113.699 114.618 113.579 114.934C113.462 115.249 113.403 115.604 113.403 116C113.403 116.401 113.463 116.762 113.583 117.082C113.703 117.402 113.88 117.656 114.114 117.844C114.351 118.029 114.643 118.121 114.989 118.121ZM122.282 121.25V113H123.423V113.973H123.521C123.588 113.848 123.686 113.703 123.813 113.539C123.941 113.375 124.118 113.232 124.345 113.109C124.571 112.984 124.871 112.922 125.243 112.922C125.728 112.922 126.16 113.044 126.54 113.289C126.92 113.534 127.218 113.887 127.435 114.348C127.653 114.809 127.763 115.363 127.763 116.012C127.763 116.66 127.655 117.216 127.438 117.68C127.222 118.141 126.925 118.496 126.548 118.746C126.17 118.993 125.739 119.117 125.255 119.117C124.89 119.117 124.592 119.056 124.36 118.934C124.131 118.811 123.951 118.668 123.821 118.504C123.691 118.34 123.591 118.194 123.521 118.066H123.45V121.25H122.282ZM123.427 116C123.427 116.422 123.488 116.792 123.61 117.109C123.733 117.427 123.91 117.676 124.142 117.855C124.373 118.033 124.657 118.121 124.993 118.121C125.342 118.121 125.634 118.029 125.868 117.844C126.103 117.656 126.28 117.402 126.399 117.082C126.522 116.762 126.583 116.401 126.583 116C126.583 115.604 126.523 115.249 126.403 114.934C126.286 114.618 126.109 114.37 125.872 114.188C125.638 114.005 125.345 113.914 124.993 113.914C124.655 113.914 124.368 114.001 124.134 114.176C123.902 114.35 123.726 114.594 123.606 114.906C123.487 115.219 123.427 115.583 123.427 116ZM131.599 119.121C131.036 119.121 130.545 118.992 130.126 118.734C129.707 118.477 129.381 118.116 129.149 117.652C128.918 117.189 128.802 116.647 128.802 116.027C128.802 115.405 128.918 114.861 129.149 114.395C129.381 113.928 129.707 113.566 130.126 113.309C130.545 113.051 131.036 112.922 131.599 112.922C132.161 112.922 132.652 113.051 133.071 113.309C133.491 113.566 133.816 113.928 134.048 114.395C134.28 114.861 134.396 115.405 134.396 116.027C134.396 116.647 134.28 117.189 134.048 117.652C133.816 118.116 133.491 118.477 133.071 118.734C132.652 118.992 132.161 119.121 131.599 119.121ZM131.603 118.141C131.967 118.141 132.269 118.044 132.509 117.852C132.748 117.659 132.925 117.402 133.04 117.082C133.157 116.762 133.216 116.409 133.216 116.023C133.216 115.641 133.157 115.289 133.04 114.969C132.925 114.646 132.748 114.387 132.509 114.191C132.269 113.996 131.967 113.898 131.603 113.898C131.235 113.898 130.931 113.996 130.688 114.191C130.449 114.387 130.271 114.646 130.153 114.969C130.039 115.289 129.981 115.641 129.981 116.023C129.981 116.409 130.039 116.762 130.153 117.082C130.271 117.402 130.449 117.659 130.688 117.852C130.931 118.044 131.235 118.141 131.603 118.141ZM135.699 119V113H136.867V119H135.699ZM136.289 112.074C136.086 112.074 135.911 112.007 135.766 111.871C135.622 111.733 135.551 111.569 135.551 111.379C135.551 111.186 135.622 111.022 135.766 110.887C135.911 110.749 136.086 110.68 136.289 110.68C136.492 110.68 136.665 110.749 136.809 110.887C136.954 111.022 137.027 111.186 137.027 111.379C137.027 111.569 136.954 111.733 136.809 111.871C136.665 112.007 136.492 112.074 136.289 112.074ZM139.606 115.437V119H138.438V113H139.56V113.977H139.634C139.772 113.659 139.988 113.404 140.282 113.211C140.579 113.018 140.953 112.922 141.403 112.922C141.812 112.922 142.17 113.008 142.478 113.18C142.785 113.349 143.023 113.602 143.192 113.937C143.362 114.273 143.446 114.689 143.446 115.184V119H142.278V115.324C142.278 114.889 142.165 114.549 141.938 114.305C141.712 114.057 141.401 113.934 141.005 113.934C140.734 113.934 140.493 113.992 140.282 114.109C140.074 114.227 139.909 114.398 139.786 114.625C139.666 114.849 139.606 115.12 139.606 115.437ZM147.813 113V113.937H144.536V113H147.813ZM145.415 111.562H146.583V117.238C146.583 117.465 146.617 117.635 146.685 117.75C146.752 117.862 146.84 117.939 146.946 117.98C147.056 118.02 147.174 118.039 147.302 118.039C147.396 118.039 147.478 118.033 147.548 118.02C147.618 118.007 147.673 117.996 147.712 117.988L147.923 118.953C147.855 118.979 147.759 119.005 147.634 119.031C147.509 119.06 147.353 119.076 147.165 119.078C146.858 119.083 146.571 119.029 146.306 118.914C146.04 118.799 145.825 118.622 145.661 118.383C145.497 118.143 145.415 117.842 145.415 117.48V111.562ZM153.505 114.465L152.446 114.652C152.402 114.517 152.332 114.388 152.235 114.266C152.142 114.143 152.014 114.043 151.853 113.965C151.691 113.887 151.489 113.848 151.247 113.848C150.916 113.848 150.64 113.922 150.419 114.07C150.198 114.216 150.087 114.405 150.087 114.637C150.087 114.837 150.161 114.999 150.31 115.121C150.458 115.243 150.698 115.344 151.028 115.422L151.981 115.641C152.534 115.768 152.945 115.965 153.216 116.23C153.487 116.496 153.622 116.841 153.622 117.266C153.622 117.625 153.518 117.945 153.31 118.227C153.104 118.505 152.816 118.724 152.446 118.883C152.079 119.042 151.653 119.121 151.169 119.121C150.497 119.121 149.949 118.978 149.524 118.691C149.1 118.402 148.84 117.992 148.743 117.461L149.872 117.289C149.942 117.583 150.087 117.806 150.306 117.957C150.524 118.105 150.81 118.18 151.161 118.18C151.544 118.18 151.85 118.1 152.079 117.941C152.308 117.78 152.423 117.583 152.423 117.352C152.423 117.164 152.353 117.007 152.212 116.879C152.074 116.751 151.862 116.655 151.575 116.59L150.56 116.367C150 116.24 149.586 116.036 149.317 115.758C149.052 115.479 148.919 115.126 148.919 114.699C148.919 114.345 149.018 114.035 149.216 113.77C149.414 113.504 149.687 113.297 150.036 113.148C150.385 112.997 150.785 112.922 151.235 112.922C151.884 112.922 152.394 113.062 152.767 113.344C153.139 113.622 153.385 113.996 153.505 114.465ZM160.345 119.121C159.782 119.121 159.291 118.992 158.872 118.734C158.453 118.477 158.127 118.116 157.896 117.652C157.664 117.189 157.548 116.647 157.548 116.027C157.548 115.405 157.664 114.861 157.896 114.395C158.127 113.928 158.453 113.566 158.872 113.309C159.291 113.051 159.782 112.922 160.345 112.922C160.907 112.922 161.398 113.051 161.817 113.309C162.237 113.566 162.562 113.928 162.794 114.395C163.026 114.861 163.142 115.405 163.142 116.027C163.142 116.647 163.026 117.189 162.794 117.652C162.562 118.116 162.237 118.477 161.817 118.734C161.398 118.992 160.907 119.121 160.345 119.121ZM160.349 118.141C160.713 118.141 161.015 118.044 161.255 117.852C161.494 117.659 161.672 117.402 161.786 117.082C161.903 116.762 161.962 116.409 161.962 116.023C161.962 115.641 161.903 115.289 161.786 114.969C161.672 114.646 161.494 114.387 161.255 114.191C161.015 113.996 160.713 113.898 160.349 113.898C159.981 113.898 159.677 113.996 159.435 114.191C159.195 114.387 159.017 114.646 158.899 114.969C158.785 115.289 158.728 115.641 158.728 116.023C158.728 116.409 158.785 116.762 158.899 117.082C159.017 117.402 159.195 117.659 159.435 117.852C159.677 118.044 159.981 118.141 160.349 118.141ZM165.613 115.437V119H164.445V113H165.566V113.977H165.641C165.779 113.659 165.995 113.404 166.289 113.211C166.586 113.018 166.96 112.922 167.41 112.922C167.819 112.922 168.177 113.008 168.484 113.18C168.792 113.349 169.03 113.602 169.199 113.937C169.368 114.273 169.453 114.689 169.453 115.184V119H168.285V115.324C168.285 114.889 168.172 114.549 167.945 114.305C167.719 114.057 167.408 113.934 167.012 113.934C166.741 113.934 166.5 113.992 166.289 114.109C166.081 114.227 165.915 114.398 165.793 114.625C165.673 114.849 165.613 115.12 165.613 115.437ZM176.731 113V113.937H173.454V113H176.731ZM174.333 111.562H175.501V117.238C175.501 117.465 175.535 117.635 175.603 117.75C175.67 117.862 175.757 117.939 175.864 117.98C175.974 118.02 176.092 118.039 176.22 118.039C176.313 118.039 176.396 118.033 176.466 118.02C176.536 118.007 176.591 117.996 176.63 117.988L176.841 118.953C176.773 118.979 176.677 119.005 176.552 119.031C176.427 119.06 176.271 119.076 176.083 119.078C175.776 119.083 175.489 119.029 175.224 118.914C174.958 118.799 174.743 118.622 174.579 118.383C174.415 118.143 174.333 117.842 174.333 117.48V111.562ZM178.023 119V113H179.152V113.953H179.215C179.324 113.63 179.517 113.376 179.793 113.191C180.072 113.004 180.387 112.91 180.738 112.91C180.811 112.91 180.897 112.913 180.996 112.918C181.098 112.923 181.177 112.93 181.234 112.937V114.055C181.188 114.042 181.104 114.027 180.984 114.012C180.865 113.993 180.745 113.984 180.625 113.984C180.349 113.984 180.103 114.043 179.887 114.16C179.673 114.275 179.504 114.435 179.379 114.641C179.254 114.844 179.191 115.076 179.191 115.336V119H178.023ZM183.938 119.133C183.557 119.133 183.214 119.063 182.906 118.922C182.599 118.779 182.355 118.572 182.176 118.301C181.999 118.03 181.91 117.698 181.91 117.305C181.91 116.966 181.975 116.687 182.105 116.469C182.236 116.25 182.411 116.077 182.633 115.949C182.854 115.822 183.102 115.725 183.375 115.66C183.648 115.595 183.927 115.546 184.211 115.512C184.57 115.47 184.862 115.436 185.086 115.41C185.31 115.382 185.473 115.336 185.574 115.273C185.676 115.211 185.727 115.109 185.727 114.969V114.941C185.727 114.6 185.63 114.336 185.438 114.148C185.247 113.961 184.964 113.867 184.586 113.867C184.193 113.867 183.883 113.954 183.656 114.129C183.432 114.301 183.277 114.492 183.191 114.703L182.094 114.453C182.224 114.089 182.414 113.794 182.664 113.57C182.917 113.344 183.207 113.18 183.535 113.078C183.863 112.974 184.208 112.922 184.57 112.922C184.81 112.922 185.064 112.951 185.332 113.008C185.603 113.062 185.855 113.164 186.09 113.312C186.327 113.461 186.521 113.673 186.672 113.949C186.823 114.223 186.898 114.578 186.898 115.016V119H185.758V118.18H185.711C185.635 118.331 185.522 118.479 185.371 118.625C185.22 118.771 185.026 118.892 184.789 118.988C184.552 119.085 184.268 119.133 183.938 119.133ZM184.191 118.195C184.514 118.195 184.79 118.132 185.02 118.004C185.251 117.876 185.427 117.71 185.547 117.504C185.669 117.296 185.73 117.073 185.73 116.836V116.062C185.689 116.104 185.608 116.143 185.488 116.18C185.371 116.214 185.237 116.243 185.086 116.27C184.935 116.293 184.788 116.315 184.645 116.336C184.501 116.354 184.382 116.37 184.285 116.383C184.059 116.411 183.852 116.46 183.664 116.527C183.479 116.595 183.331 116.693 183.219 116.82C183.109 116.945 183.055 117.112 183.055 117.32C183.055 117.609 183.161 117.828 183.375 117.977C183.589 118.122 183.861 118.195 184.191 118.195ZM193.372 113L191.196 119H189.946L187.767 113H189.021L190.54 117.617H190.603L192.118 113H193.372ZM196.852 119.121C196.26 119.121 195.751 118.995 195.324 118.742C194.9 118.487 194.572 118.129 194.34 117.668C194.111 117.204 193.996 116.661 193.996 116.039C193.996 115.424 194.111 114.883 194.34 114.414C194.572 113.945 194.895 113.579 195.309 113.316C195.725 113.053 196.212 112.922 196.77 112.922C197.108 112.922 197.436 112.978 197.754 113.09C198.072 113.202 198.357 113.378 198.609 113.617C198.862 113.857 199.061 114.168 199.207 114.551C199.353 114.931 199.426 115.393 199.426 115.937V116.352H194.656V115.477H198.281C198.281 115.169 198.219 114.897 198.094 114.66C197.969 114.421 197.793 114.232 197.566 114.094C197.342 113.956 197.079 113.887 196.777 113.887C196.449 113.887 196.163 113.967 195.918 114.129C195.676 114.288 195.488 114.496 195.355 114.754C195.225 115.009 195.16 115.286 195.16 115.586V116.27C195.16 116.671 195.23 117.012 195.371 117.293C195.514 117.574 195.714 117.789 195.969 117.937C196.224 118.083 196.522 118.156 196.863 118.156C197.085 118.156 197.286 118.125 197.469 118.062C197.651 117.997 197.809 117.901 197.941 117.773C198.074 117.646 198.176 117.488 198.246 117.301L199.352 117.5C199.263 117.826 199.104 118.111 198.875 118.355C198.648 118.598 198.363 118.786 198.02 118.922C197.678 119.055 197.289 119.121 196.852 119.121ZM201.89 111V119H200.722V111H201.89Z" fill="#473300"/>
<path d="M18.3118 30H16.343L19.9276 19.8182H22.2045L25.794 30H23.8253L21.1058 21.9062H21.0263L18.3118 30ZM18.3764 26.0078H23.7457V27.4893H18.3764V26.0078ZM32.968 24.3821L31.3274 24.5611C31.281 24.3954 31.1998 24.2396 31.0838 24.0938C30.9711 23.9479 30.8187 23.8303 30.6264 23.7408C30.4342 23.6513 30.1989 23.6065 29.9205 23.6065C29.5459 23.6065 29.2311 23.6877 28.9759 23.8501C28.724 24.0125 28.5997 24.223 28.603 24.4815C28.5997 24.7036 28.6809 24.8842 28.8466 25.0234C29.0156 25.1626 29.294 25.277 29.6818 25.3665L30.9844 25.6449C31.7069 25.8007 32.2438 26.0476 32.5952 26.3857C32.9498 26.7237 33.1288 27.1662 33.1321 27.7131C33.1288 28.1937 32.9879 28.6179 32.7095 28.9858C32.4344 29.3504 32.0516 29.6354 31.5611 29.8409C31.0705 30.0464 30.5071 30.1491 29.8707 30.1491C28.9361 30.1491 28.1837 29.9536 27.6136 29.5625C27.0436 29.1681 26.7038 28.6196 26.5945 27.9169L28.3494 27.7479C28.429 28.0926 28.598 28.3527 28.8565 28.5284C29.1151 28.7041 29.4515 28.7919 29.8658 28.7919C30.2933 28.7919 30.6364 28.7041 30.8949 28.5284C31.1567 28.3527 31.2876 28.1357 31.2876 27.8771C31.2876 27.6584 31.2031 27.4777 31.0341 27.3352C30.8684 27.1927 30.6098 27.0833 30.2585 27.0071L28.956 26.7337C28.2235 26.5812 27.6816 26.3243 27.3303 25.9631C26.9789 25.5985 26.8049 25.1378 26.8082 24.581C26.8049 24.1103 26.9325 23.7027 27.1911 23.358C27.4529 23.0099 27.8158 22.7415 28.2798 22.5526C28.7472 22.3603 29.2857 22.2642 29.8956 22.2642C30.7905 22.2642 31.4948 22.4548 32.0085 22.8359C32.5256 23.2171 32.8454 23.7325 32.968 24.3821ZM40.6516 24.3821L39.011 24.5611C38.9646 24.3954 38.8834 24.2396 38.7674 24.0938C38.6547 23.9479 38.5022 23.8303 38.31 23.7408C38.1178 23.6513 37.8825 23.6065 37.604 23.6065C37.2295 23.6065 36.9147 23.6877 36.6594 23.8501C36.4076 24.0125 36.2833 24.223 36.2866 24.4815C36.2833 24.7036 36.3645 24.8842 36.5302 25.0234C36.6992 25.1626 36.9776 25.277 37.3654 25.3665L38.668 25.6449C39.3905 25.8007 39.9274 26.0476 40.2788 26.3857C40.6334 26.7237 40.8124 27.1662 40.8157 27.7131C40.8124 28.1937 40.6715 28.6179 40.3931 28.9858C40.118 29.3504 39.7352 29.6354 39.2447 29.8409C38.7541 30.0464 38.1907 30.1491 37.5543 30.1491C36.6197 30.1491 35.8673 29.9536 35.2972 29.5625C34.7272 29.1681 34.3874 28.6196 34.2781 27.9169L36.033 27.7479C36.1126 28.0926 36.2816 28.3527 36.5401 28.5284C36.7987 28.7041 37.1351 28.7919 37.5494 28.7919C37.9769 28.7919 38.32 28.7041 38.5785 28.5284C38.8403 28.3527 38.9712 28.1357 38.9712 27.8771C38.9712 27.6584 38.8867 27.4777 38.7177 27.3352C38.552 27.1927 38.2934 27.0833 37.9421 27.0071L36.6396 26.7337C35.9071 26.5812 35.3652 26.3243 35.0138 25.9631C34.6625 25.5985 34.4885 25.1378 34.4918 24.581C34.4885 24.1103 34.6161 23.7027 34.8746 23.358C35.1365 23.0099 35.4994 22.7415 35.9634 22.5526C36.4308 22.3603 36.9693 22.2642 37.5792 22.2642C38.4741 22.2642 39.1784 22.4548 39.6921 22.8359C40.2092 23.2171 40.529 23.7325 40.6516 24.3821ZM47.1669 26.7884V22.3636H48.9666V30H47.2216V28.6428H47.142C46.9697 29.0703 46.6863 29.42 46.2919 29.6918C45.9008 29.9635 45.4186 30.0994 44.8452 30.0994C44.3447 30.0994 43.9022 29.9884 43.5178 29.7663C43.1366 29.541 42.8383 29.2145 42.6229 28.7869C42.4074 28.3561 42.2997 27.8357 42.2997 27.2259V22.3636H44.0994V26.9474C44.0994 27.4313 44.232 27.8158 44.4972 28.1009C44.7623 28.3859 45.1103 28.5284 45.5412 28.5284C45.8063 28.5284 46.0632 28.4638 46.3118 28.3345C46.5604 28.2053 46.7642 28.013 46.9233 27.7578C47.0857 27.4993 47.1669 27.1761 47.1669 26.7884ZM50.8173 30V22.3636H52.5623V23.6364H52.6419C52.7811 23.1955 53.0197 22.8558 53.3578 22.6172C53.6992 22.3752 54.0886 22.2543 54.5261 22.2543C54.6255 22.2543 54.7366 22.2592 54.8592 22.2692C54.9851 22.2758 55.0895 22.2874 55.1724 22.304V23.9595C55.0962 23.933 54.9752 23.9098 54.8095 23.8899C54.6471 23.8667 54.4896 23.8551 54.3372 23.8551C54.0091 23.8551 53.7141 23.9264 53.4522 24.0689C53.1937 24.2081 52.9899 24.402 52.8407 24.6506C52.6916 24.8991 52.617 25.1858 52.617 25.5107V30H50.8173ZM59.4343 30.1491C58.6687 30.1491 58.0075 29.9901 57.4506 29.6719C56.8971 29.3504 56.4712 28.8963 56.1729 28.3097C55.8746 27.7197 55.7255 27.0253 55.7255 26.2266C55.7255 25.4411 55.8746 24.7517 56.1729 24.1584C56.4746 23.5618 56.8955 23.0978 57.4357 22.7663C57.976 22.4316 58.6107 22.2642 59.3398 22.2642C59.8105 22.2642 60.2546 22.3404 60.6722 22.4929C61.0932 22.642 61.4644 22.8741 61.7859 23.1889C62.1107 23.5038 62.3659 23.9048 62.5515 24.392C62.7371 24.8759 62.8299 25.4527 62.8299 26.1222V26.674H56.5707V25.4609H61.1048C61.1014 25.1162 61.0269 24.8097 60.881 24.5412C60.7352 24.2694 60.5314 24.0556 60.2695 23.8999C60.011 23.7441 59.7094 23.6662 59.3647 23.6662C58.9968 23.6662 58.6737 23.7557 58.3952 23.9347C58.1168 24.1103 57.8997 24.3423 57.744 24.6307C57.5915 24.9157 57.5136 25.2289 57.5103 25.5703V26.6293C57.5103 27.0734 57.5915 27.4545 57.7539 27.7727C57.9163 28.0876 58.1433 28.3295 58.435 28.4986C58.7267 28.6643 59.0681 28.7472 59.4592 28.7472C59.721 28.7472 59.958 28.7107 60.1701 28.6378C60.3822 28.5616 60.5662 28.4505 60.7219 28.3047C60.8777 28.1589 60.9954 27.9782 61.0749 27.7628L62.7553 27.9517C62.6493 28.3958 62.4471 28.7836 62.1488 29.1151C61.8538 29.4432 61.476 29.6984 61.0153 29.8807C60.5546 30.0597 60.0276 30.1491 59.4343 30.1491ZM67.1863 30.1342C66.5864 30.1342 66.0494 29.9801 65.5755 29.6719C65.1015 29.3636 64.727 28.9162 64.4519 28.3295C64.1768 27.7429 64.0392 27.0303 64.0392 26.1918C64.0392 25.3433 64.1784 24.6274 64.4569 24.044C64.7386 23.4574 65.1181 23.0149 65.5953 22.7166C66.0726 22.415 66.6046 22.2642 67.1912 22.2642C67.6387 22.2642 68.0066 22.3404 68.2949 22.4929C68.5833 22.642 68.812 22.8227 68.981 23.0348C69.15 23.2436 69.281 23.4408 69.3738 23.6264H69.4483V19.8182H71.253V30H69.4831V28.7969H69.3738C69.281 28.9825 69.1467 29.1797 68.9711 29.3885C68.7954 29.594 68.5634 29.7696 68.275 29.9155C67.9867 30.0613 67.6238 30.1342 67.1863 30.1342ZM67.6884 28.6577C68.0695 28.6577 68.3944 28.5549 68.6628 28.3494C68.9313 28.1406 69.1351 27.8506 69.2743 27.4794C69.4135 27.1082 69.4831 26.6757 69.4831 26.1818C69.4831 25.688 69.4135 25.2588 69.2743 24.8942C69.1384 24.5296 68.9363 24.2462 68.6678 24.044C68.4026 23.8419 68.0762 23.7408 67.6884 23.7408C67.2873 23.7408 66.9526 23.8452 66.6841 24.054C66.4157 24.2628 66.2135 24.5511 66.0776 24.919C65.9417 25.2869 65.8738 25.7079 65.8738 26.1818C65.8738 26.6591 65.9417 27.085 66.0776 27.4595C66.2168 27.8307 66.4206 28.1241 66.6891 28.3395C66.9609 28.5516 67.294 28.6577 67.6884 28.6577ZM76.723 30V19.8182H80.6207C81.3565 19.8182 81.968 19.9342 82.4553 20.1662C82.9458 20.3949 83.312 20.7081 83.554 21.1058C83.7992 21.5036 83.9219 21.9543 83.9219 22.4581C83.9219 22.8724 83.8423 23.227 83.6832 23.522C83.5241 23.8137 83.3104 24.0507 83.0419 24.233C82.7734 24.4152 82.4735 24.5462 82.142 24.6257V24.7251C82.5033 24.745 82.8497 24.8561 83.1811 25.0582C83.5159 25.2571 83.7893 25.5388 84.0014 25.9034C84.2135 26.268 84.3196 26.7088 84.3196 27.2259C84.3196 27.7528 84.192 28.2268 83.9368 28.6477C83.6816 29.0653 83.2971 29.3951 82.7834 29.6371C82.2696 29.879 81.6233 30 80.8445 30H76.723ZM78.5675 28.4588H80.5511C81.2206 28.4588 81.7029 28.3312 81.9979 28.076C82.2962 27.8175 82.4453 27.486 82.4453 27.0817C82.4453 26.7801 82.3707 26.5083 82.2216 26.2663C82.0724 26.0211 81.8603 25.8288 81.5852 25.6896C81.3101 25.5471 80.982 25.4759 80.6009 25.4759H78.5675V28.4588ZM78.5675 24.1484H80.392C80.7102 24.1484 80.9969 24.0904 81.2521 23.9744C81.5073 23.8551 81.7079 23.6877 81.8537 23.4723C82.0028 23.2536 82.0774 22.995 82.0774 22.6967C82.0774 22.3023 81.9382 21.9775 81.6598 21.7223C81.3847 21.4671 80.9754 21.3395 80.4318 21.3395H78.5675V24.1484ZM89.2253 30.1491C88.4597 30.1491 87.7985 29.9901 87.2417 29.6719C86.6882 29.3504 86.2623 28.8963 85.964 28.3097C85.6657 27.7197 85.5165 27.0253 85.5165 26.2266C85.5165 25.4411 85.6657 24.7517 85.964 24.1584C86.2656 23.5618 86.6865 23.0978 87.2267 22.7663C87.767 22.4316 88.4017 22.2642 89.1309 22.2642C89.6015 22.2642 90.0456 22.3404 90.4632 22.4929C90.8842 22.642 91.2554 22.8741 91.5769 23.1889C91.9017 23.5038 92.1569 23.9048 92.3425 24.392C92.5281 24.8759 92.6209 25.4527 92.6209 26.1222V26.674H86.3617V25.4609H90.8958C90.8925 25.1162 90.8179 24.8097 90.6721 24.5412C90.5262 24.2694 90.3224 24.0556 90.0605 23.8999C89.802 23.7441 89.5004 23.6662 89.1557 23.6662C88.7878 23.6662 88.4647 23.7557 88.1863 23.9347C87.9078 24.1103 87.6908 24.3423 87.535 24.6307C87.3825 24.9157 87.3046 25.2289 87.3013 25.5703V26.6293C87.3013 27.0734 87.3825 27.4545 87.5449 27.7727C87.7073 28.0876 87.9344 28.3295 88.226 28.4986C88.5177 28.6643 88.8591 28.7472 89.2502 28.7472C89.512 28.7472 89.749 28.7107 89.9611 28.6378C90.1732 28.5616 90.3572 28.4505 90.513 28.3047C90.6687 28.1589 90.7864 27.9782 90.8659 27.7628L92.5463 27.9517C92.4403 28.3958 92.2381 28.7836 91.9398 29.1151C91.6448 29.4432 91.267 29.6984 90.8063 29.8807C90.3456 30.0597 89.8186 30.1491 89.2253 30.1491ZM95.9432 25.5256V30H94.1435V22.3636H95.8636V23.6612H95.9531C96.1288 23.2337 96.4089 22.8939 96.7933 22.642C97.1811 22.3902 97.66 22.2642 98.2301 22.2642C98.7571 22.2642 99.2161 22.3769 99.6072 22.6023C100.002 22.8277 100.307 23.1541 100.522 23.5817C100.741 24.0092 100.848 24.5279 100.845 25.1378V30H99.0455V25.4162C99.0455 24.9058 98.9129 24.5064 98.6477 24.218C98.3859 23.9297 98.023 23.7855 97.5589 23.7855C97.2441 23.7855 96.964 23.8551 96.7188 23.9943C96.4768 24.1302 96.2862 24.3274 96.147 24.5859C96.0111 24.8445 95.9432 25.1577 95.9432 25.5256ZM106.055 30.1491C105.29 30.1491 104.629 29.9901 104.072 29.6719C103.518 29.3504 103.092 28.8963 102.794 28.3097C102.496 27.7197 102.347 27.0253 102.347 26.2266C102.347 25.4411 102.496 24.7517 102.794 24.1584C103.096 23.5618 103.517 23.0978 104.057 22.7663C104.597 22.4316 105.232 22.2642 105.961 22.2642C106.432 22.2642 106.876 22.3404 107.293 22.4929C107.714 22.642 108.085 22.8741 108.407 23.1889C108.732 23.5038 108.987 23.9048 109.173 24.392C109.358 24.8759 109.451 25.4527 109.451 26.1222V26.674H103.192V25.4609H107.726C107.723 25.1162 107.648 24.8097 107.502 24.5412C107.356 24.2694 107.152 24.0556 106.891 23.8999C106.632 23.7441 106.33 23.6662 105.986 23.6662C105.618 23.6662 105.295 23.7557 105.016 23.9347C104.738 24.1103 104.521 24.3423 104.365 24.6307C104.213 24.9157 104.135 25.2289 104.131 25.5703V26.6293C104.131 27.0734 104.213 27.4545 104.375 27.7727C104.537 28.0876 104.764 28.3295 105.056 28.4986C105.348 28.6643 105.689 28.7472 106.08 28.7472C106.342 28.7472 106.579 28.7107 106.791 28.6378C107.003 28.5616 107.187 28.4505 107.343 28.3047C107.499 28.1589 107.616 27.9782 107.696 27.7628L109.376 27.9517C109.27 28.3958 109.068 28.7836 108.77 29.1151C108.475 29.4432 108.097 29.6984 107.636 29.8807C107.176 30.0597 106.649 30.1491 106.055 30.1491ZM114.841 22.3636V23.7557H110.327V22.3636H114.841ZM111.456 30V21.6428C111.456 21.129 111.562 20.7015 111.774 20.3601C111.989 20.0187 112.278 19.7635 112.639 19.5945C113 19.4254 113.401 19.3409 113.842 19.3409C114.154 19.3409 114.43 19.3658 114.672 19.4155C114.914 19.4652 115.093 19.5099 115.209 19.5497L114.851 20.9418C114.775 20.9186 114.679 20.8954 114.563 20.8722C114.447 20.8456 114.318 20.8324 114.175 20.8324C113.84 20.8324 113.604 20.9136 113.464 21.076C113.328 21.2351 113.26 21.4638 113.26 21.7621V30H111.456ZM116.251 30V22.3636H118.051V30H116.251ZM117.156 21.2798C116.871 21.2798 116.625 21.1854 116.42 20.9964C116.214 20.8042 116.112 20.5739 116.112 20.3054C116.112 20.0336 116.214 19.8033 116.42 19.6143C116.625 19.4221 116.871 19.326 117.156 19.326C117.444 19.326 117.689 19.4221 117.892 19.6143C118.097 19.8033 118.2 20.0336 118.2 20.3054C118.2 20.5739 118.097 20.8042 117.892 20.9964C117.689 21.1854 117.444 21.2798 117.156 21.2798ZM123.714 22.3636V23.7557H119.325V22.3636H123.714ZM120.408 20.5341H122.208V27.7031C122.208 27.9451 122.245 28.1307 122.317 28.2599C122.394 28.3859 122.493 28.4721 122.616 28.5185C122.738 28.5649 122.874 28.5881 123.023 28.5881C123.136 28.5881 123.239 28.5798 123.332 28.5632C123.428 28.5466 123.501 28.5317 123.55 28.5185L123.854 29.9254C123.758 29.9586 123.62 29.995 123.441 30.0348C123.265 30.0746 123.05 30.0978 122.795 30.1044C122.344 30.1177 121.938 30.0497 121.577 29.9006C121.215 29.7481 120.929 29.5128 120.717 29.1946C120.508 28.8764 120.405 28.4787 120.408 28.0014V20.5341ZM131.146 24.3821L129.505 24.5611C129.459 24.3954 129.378 24.2396 129.262 24.0938C129.149 23.9479 128.996 23.8303 128.804 23.7408C128.612 23.6513 128.377 23.6065 128.098 23.6065C127.724 23.6065 127.409 23.6877 127.154 23.8501C126.902 24.0125 126.777 24.223 126.781 24.4815C126.777 24.7036 126.859 24.8842 127.024 25.0234C127.193 25.1626 127.472 25.277 127.86 25.3665L129.162 25.6449C129.885 25.8007 130.422 26.0476 130.773 26.3857C131.128 26.7237 131.307 27.1662 131.31 27.7131C131.307 28.1937 131.166 28.6179 130.887 28.9858C130.612 29.3504 130.229 29.6354 129.739 29.8409C129.248 30.0464 128.685 30.1491 128.048 30.1491C127.114 30.1491 126.361 29.9536 125.791 29.5625C125.221 29.1681 124.882 28.6196 124.772 27.9169L126.527 27.7479C126.607 28.0926 126.776 28.3527 127.034 28.5284C127.293 28.7041 127.629 28.7919 128.044 28.7919C128.471 28.7919 128.814 28.7041 129.073 28.5284C129.334 28.3527 129.465 28.1357 129.465 27.8771C129.465 27.6584 129.381 27.4777 129.212 27.3352C129.046 27.1927 128.788 27.0833 128.436 27.0071L127.134 26.7337C126.401 26.5812 125.859 26.3243 125.508 25.9631C125.157 25.5985 124.983 25.1378 124.986 24.581C124.983 24.1103 125.11 23.7027 125.369 23.358C125.631 23.0099 125.994 22.7415 126.458 22.5526C126.925 22.3603 127.463 22.2642 128.073 22.2642C128.968 22.2642 129.673 22.4548 130.186 22.8359C130.703 23.2171 131.023 23.7325 131.146 24.3821ZM140.134 22.3636V23.7557H135.62V22.3636H140.134ZM136.749 30V21.6428C136.749 21.129 136.855 20.7015 137.067 20.3601C137.282 20.0187 137.571 19.7635 137.932 19.5945C138.293 19.4254 138.694 19.3409 139.135 19.3409C139.447 19.3409 139.723 19.3658 139.965 19.4155C140.207 19.4652 140.386 19.5099 140.502 19.5497L140.144 20.9418C140.068 20.9186 139.972 20.8954 139.856 20.8722C139.74 20.8456 139.611 20.8324 139.468 20.8324C139.133 20.8324 138.896 20.9136 138.757 21.076C138.621 21.2351 138.553 21.4638 138.553 21.7621V30H136.749ZM144.588 30.1491C143.842 30.1491 143.196 29.9851 142.649 29.657C142.102 29.3288 141.678 28.8698 141.376 28.2798C141.078 27.6899 140.929 27.0005 140.929 26.2116C140.929 25.4228 141.078 24.7318 141.376 24.1385C141.678 23.5452 142.102 23.0845 142.649 22.7564C143.196 22.4283 143.842 22.2642 144.588 22.2642C145.333 22.2642 145.98 22.4283 146.527 22.7564C147.074 23.0845 147.496 23.5452 147.794 24.1385C148.096 24.7318 148.247 25.4228 148.247 26.2116C148.247 27.0005 148.096 27.6899 147.794 28.2798C147.496 28.8698 147.074 29.3288 146.527 29.657C145.98 29.9851 145.333 30.1491 144.588 30.1491ZM144.598 28.7074C145.002 28.7074 145.34 28.5964 145.612 28.3743C145.884 28.1489 146.086 27.8473 146.218 27.4695C146.354 27.0916 146.422 26.6707 146.422 26.2067C146.422 25.7393 146.354 25.3168 146.218 24.9389C146.086 24.5578 145.884 24.2545 145.612 24.0291C145.34 23.8037 145.002 23.6911 144.598 23.6911C144.183 23.6911 143.839 23.8037 143.564 24.0291C143.292 24.2545 143.088 24.5578 142.952 24.9389C142.819 25.3168 142.753 25.7393 142.753 26.2067C142.753 26.6707 142.819 27.0916 142.952 27.4695C143.088 27.8473 143.292 28.1489 143.564 28.3743C143.839 28.5964 144.183 28.7074 144.598 28.7074ZM149.774 30V22.3636H151.519V23.6364H151.599C151.738 23.1955 151.977 22.8558 152.315 22.6172C152.656 22.3752 153.046 22.2543 153.483 22.2543C153.583 22.2543 153.694 22.2592 153.816 22.2692C153.942 22.2758 154.047 22.2874 154.129 22.304V23.9595C154.053 23.933 153.932 23.9098 153.767 23.8899C153.604 23.8667 153.447 23.8551 153.294 23.8551C152.966 23.8551 152.671 23.9264 152.409 24.0689C152.151 24.2081 151.947 24.402 151.798 24.6506C151.649 24.8991 151.574 25.1858 151.574 25.5107V30H149.774ZM158.877 30V19.8182H160.722V24.1286H165.44V19.8182H167.289V30H165.44V25.6747H160.722V30H158.877ZM172.746 30H169.295V19.8182H172.815C173.826 19.8182 174.694 20.022 175.42 20.4297C176.149 20.834 176.71 21.4157 177.101 22.1747C177.492 22.9337 177.687 23.8419 177.687 24.8991C177.687 25.9598 177.49 26.8712 177.096 27.6335C176.705 28.3958 176.14 28.9808 175.4 29.3885C174.665 29.7962 173.78 30 172.746 30ZM171.14 28.4041H172.656C173.365 28.4041 173.957 28.2749 174.431 28.0163C174.905 27.7545 175.261 27.3651 175.5 26.848C175.738 26.3277 175.858 25.678 175.858 24.8991C175.858 24.1203 175.738 23.474 175.5 22.9602C175.261 22.4432 174.908 22.0571 174.441 21.8018C173.977 21.5433 173.4 21.4141 172.711 21.4141H171.14V28.4041ZM179.44 30V19.8182H185.963V21.3643H181.284V24.1286H185.515V25.6747H181.284V30H179.44ZM196.358 23.2536H194.499C194.446 22.9486 194.348 22.6785 194.205 22.4432C194.063 22.2045 193.886 22.0024 193.673 21.8366C193.461 21.6709 193.219 21.5466 192.948 21.4638C192.679 21.3776 192.389 21.3345 192.078 21.3345C191.524 21.3345 191.034 21.4737 190.606 21.7521C190.178 22.0272 189.844 22.4316 189.602 22.9652C189.36 23.4955 189.239 24.1435 189.239 24.9091C189.239 25.688 189.36 26.3442 189.602 26.8778C189.847 27.4081 190.182 27.8092 190.606 28.081C191.034 28.3494 191.522 28.4837 192.073 28.4837C192.378 28.4837 192.663 28.4439 192.928 28.3643C193.196 28.2815 193.436 28.1605 193.649 28.0014C193.864 27.8423 194.045 27.6468 194.191 27.4148C194.34 27.1828 194.442 26.9176 194.499 26.6193L196.358 26.6293C196.289 27.1132 196.138 27.5672 195.906 27.9915C195.677 28.4157 195.377 28.7902 195.006 29.1151C194.635 29.4366 194.2 29.6884 193.703 29.8707C193.206 30.0497 192.654 30.1392 192.048 30.1392C191.153 30.1392 190.354 29.9321 189.651 29.5178C188.949 29.1035 188.395 28.5052 187.991 27.723C187.587 26.9408 187.384 26.0028 187.384 24.9091C187.384 23.812 187.588 22.8741 187.996 22.0952C188.404 21.313 188.959 20.7147 189.661 20.3004C190.364 19.8861 191.16 19.679 192.048 19.679C192.615 19.679 193.142 19.7585 193.629 19.9176C194.116 20.0767 194.55 20.3104 194.931 20.6186C195.312 20.9235 195.626 21.2981 195.871 21.7422C196.119 22.183 196.282 22.6868 196.358 23.2536ZM17.0043 48V37.8182H20.902C21.6378 37.8182 22.2493 37.9342 22.7365 38.1662C23.227 38.3949 23.5933 38.7081 23.8352 39.1058C24.0805 39.5036 24.2031 39.9543 24.2031 40.4581C24.2031 40.8724 24.1236 41.227 23.9645 41.522C23.8054 41.8137 23.5916 42.0507 23.3232 42.233C23.0547 42.4152 22.7547 42.5462 22.4233 42.6257V42.7251C22.7846 42.745 23.1309 42.8561 23.4624 43.0582C23.7971 43.2571 24.0705 43.5388 24.2827 43.9034C24.4948 44.268 24.6009 44.7088 24.6009 45.2259C24.6009 45.7528 24.4732 46.2268 24.218 46.6477C23.9628 47.0653 23.5784 47.3951 23.0646 47.6371C22.5509 47.879 21.9046 48 21.1257 48H17.0043ZM18.8487 46.4588H20.8324C21.5019 46.4588 21.9841 46.3312 22.2791 46.076C22.5774 45.8175 22.7266 45.486 22.7266 45.0817C22.7266 44.7801 22.652 44.5083 22.5028 44.2663C22.3537 44.0211 22.1416 43.8288 21.8665 43.6896C21.5914 43.5471 21.2633 43.4759 20.8821 43.4759H18.8487V46.4588ZM18.8487 42.1484H20.6733C20.9915 42.1484 21.2782 42.0904 21.5334 41.9744C21.7886 41.8551 21.9891 41.6877 22.1349 41.4723C22.2841 41.2536 22.3587 40.995 22.3587 40.6967C22.3587 40.3023 22.2195 39.9775 21.9411 39.7223C21.666 39.4671 21.2566 39.3395 20.7131 39.3395H18.8487V42.1484ZM28.3233 48.1541C27.8394 48.1541 27.4036 48.0679 27.0158 47.8956C26.6313 47.7199 26.3264 47.4614 26.101 47.12C25.879 46.7786 25.7679 46.3577 25.7679 45.8572C25.7679 45.4264 25.8475 45.0701 26.0066 44.7884C26.1657 44.5066 26.3828 44.2812 26.6578 44.1122C26.9329 43.9432 27.2428 43.8156 27.5875 43.7294C27.9355 43.6399 28.2952 43.5753 28.6664 43.5355C29.1138 43.4891 29.4767 43.4477 29.7551 43.4112C30.0336 43.3714 30.2357 43.3118 30.3617 43.2322C30.4909 43.1494 30.5556 43.0218 30.5556 42.8494V42.8196C30.5556 42.4451 30.4445 42.1551 30.2225 41.9496C30.0004 41.7441 29.6806 41.6413 29.263 41.6413C28.8221 41.6413 28.4725 41.7375 28.214 41.9297C27.9587 42.1219 27.7864 42.349 27.6969 42.6108L26.0165 42.3722C26.1491 41.9081 26.3678 41.5204 26.6728 41.2088C26.9777 40.8939 27.3506 40.6586 27.7914 40.5028C28.2322 40.3438 28.7194 40.2642 29.253 40.2642C29.6209 40.2642 29.9872 40.3073 30.3517 40.3935C30.7163 40.4796 31.0494 40.6222 31.351 40.821C31.6526 41.0166 31.8946 41.2834 32.0769 41.6214C32.2625 41.9595 32.3553 42.3821 32.3553 42.8892V48H30.6252V46.951H30.5655C30.4561 47.1631 30.302 47.362 30.1032 47.5476C29.9076 47.7299 29.6607 47.8774 29.3624 47.9901C29.0674 48.0994 28.7211 48.1541 28.3233 48.1541ZM28.7907 46.8317C29.1519 46.8317 29.4651 46.7604 29.7303 46.6179C29.9954 46.4721 30.1993 46.2798 30.3418 46.0412C30.4876 45.8026 30.5605 45.5424 30.5605 45.2607V44.3608C30.5042 44.4072 30.4081 44.4503 30.2722 44.4901C30.1396 44.5298 29.9905 44.5646 29.8248 44.5945C29.659 44.6243 29.495 44.6508 29.3326 44.674C29.1702 44.6972 29.0293 44.7171 28.91 44.7337C28.6415 44.7701 28.4012 44.8298 28.1891 44.9126C27.977 44.9955 27.8096 45.1115 27.687 45.2607C27.5643 45.4065 27.503 45.5954 27.503 45.8274C27.503 46.1589 27.624 46.4091 27.8659 46.5781C28.1079 46.7472 28.4161 46.8317 28.7907 46.8317ZM35.9647 43.5256V48H34.165V40.3636H35.8851V41.6612H35.9746C36.1503 41.2337 36.4303 40.8939 36.8148 40.642C37.2026 40.3902 37.6815 40.2642 38.2516 40.2642C38.7786 40.2642 39.2376 40.3769 39.6287 40.6023C40.0231 40.8277 40.3281 41.1541 40.5435 41.5817C40.7623 42.0092 40.87 42.5279 40.8667 43.1378V48H39.0669V43.4162C39.0669 42.9058 38.9344 42.5064 38.6692 42.218C38.4074 41.9297 38.0444 41.7855 37.5804 41.7855C37.2656 41.7855 36.9855 41.8551 36.7402 41.9943C36.4983 42.1302 36.3077 42.3274 36.1685 42.5859C36.0326 42.8445 35.9647 43.1577 35.9647 43.5256ZM44.3368 45.6037L44.3319 43.4311H44.6202L47.3645 40.3636H49.4675L46.0918 44.1222H45.7189L44.3368 45.6037ZM42.6962 48V37.8182H44.4959V48H42.6962ZM47.4888 48L45.003 44.5249L46.2161 43.2571L49.6415 48H47.4888ZM62.9343 41.2536H61.0749C61.0219 40.9486 60.9241 40.6785 60.7816 40.4432C60.6391 40.2045 60.4618 40.0024 60.2496 39.8366C60.0375 39.6709 59.7956 39.5466 59.5238 39.4638C59.2553 39.3776 58.9653 39.3345 58.6538 39.3345C58.1003 39.3345 57.6097 39.4737 57.1822 39.7521C56.7546 40.0272 56.4199 40.4316 56.1779 40.9652C55.936 41.4955 55.815 42.1435 55.815 42.9091C55.815 43.688 55.936 44.3442 56.1779 44.8778C56.4232 45.4081 56.7579 45.8092 57.1822 46.081C57.6097 46.3494 58.0986 46.4837 58.6488 46.4837C58.9537 46.4837 59.2388 46.4439 59.5039 46.3643C59.7724 46.2815 60.0127 46.1605 60.2248 46.0014C60.4402 45.8423 60.6209 45.6468 60.7667 45.4148C60.9158 45.1828 61.0186 44.9176 61.0749 44.6193L62.9343 44.6293C62.8647 45.1132 62.7139 45.5672 62.4819 45.9915C62.2532 46.4157 61.9532 46.7902 61.582 47.1151C61.2108 47.4366 60.7766 47.6884 60.2795 47.8707C59.7823 48.0497 59.2305 48.1392 58.6239 48.1392C57.729 48.1392 56.9303 47.9321 56.2276 47.5178C55.525 47.1035 54.9715 46.5052 54.5671 45.723C54.1628 44.9408 53.9606 44.0028 53.9606 42.9091C53.9606 41.812 54.1644 40.8741 54.5721 40.0952C54.9798 39.313 55.5349 38.7147 56.2376 38.3004C56.9402 37.8861 57.7357 37.679 58.6239 37.679C59.1907 37.679 59.7177 37.7585 60.2049 37.9176C60.6921 38.0767 61.1263 38.3104 61.5075 38.6186C61.8886 38.9235 62.2018 39.2981 62.4471 39.7422C62.6957 40.183 62.8581 40.6868 62.9343 41.2536ZM69.411 44.7884V40.3636H71.2108V48H69.4657V46.6428H69.3862C69.2138 47.0703 68.9305 47.42 68.536 47.6918C68.1449 47.9635 67.6627 48.0994 67.0893 48.0994C66.5888 48.0994 66.1464 47.9884 65.7619 47.7663C65.3807 47.541 65.0824 47.2145 64.867 46.7869C64.6516 46.3561 64.5439 45.8357 64.5439 45.2259V40.3636H66.3436V44.9474C66.3436 45.4313 66.4761 45.8158 66.7413 46.1009C67.0065 46.3859 67.3545 46.5284 67.7853 46.5284C68.0505 46.5284 68.3074 46.4638 68.5559 46.3345C68.8045 46.2053 69.0083 46.013 69.1674 45.7578C69.3298 45.4993 69.411 45.1761 69.411 44.7884ZM79.0969 42.3821L77.4563 42.5611C77.4099 42.3954 77.3287 42.2396 77.2127 42.0938C77.1 41.9479 76.9476 41.8303 76.7553 41.7408C76.5631 41.6513 76.3278 41.6065 76.0494 41.6065C75.6748 41.6065 75.36 41.6877 75.1048 41.8501C74.8529 42.0125 74.7286 42.223 74.7319 42.4815C74.7286 42.7036 74.8098 42.8842 74.9755 43.0234C75.1445 43.1626 75.4229 43.277 75.8107 43.3665L77.1133 43.6449C77.8358 43.8007 78.3728 44.0476 78.7241 44.3857C79.0787 44.7237 79.2577 45.1662 79.261 45.7131C79.2577 46.1937 79.1168 46.6179 78.8384 46.9858C78.5633 47.3504 78.1805 47.6354 77.69 47.8409C77.1995 48.0464 76.636 48.1491 75.9996 48.1491C75.065 48.1491 74.3126 47.9536 73.7425 47.5625C73.1725 47.1681 72.8327 46.6196 72.7234 45.9169L74.4783 45.7479C74.5579 46.0926 74.7269 46.3527 74.9854 46.5284C75.244 46.7041 75.5804 46.7919 75.9947 46.7919C76.4222 46.7919 76.7653 46.7041 77.0238 46.5284C77.2856 46.3527 77.4165 46.1357 77.4165 45.8771C77.4165 45.6584 77.332 45.4777 77.163 45.3352C76.9973 45.1927 76.7388 45.0833 76.3874 45.0071L75.0849 44.7337C74.3524 44.5812 73.8105 44.3243 73.4592 43.9631C73.1078 43.5985 72.9338 43.1378 72.9371 42.581C72.9338 42.1103 73.0614 41.7027 73.32 41.358C73.5818 41.0099 73.9447 40.7415 74.4087 40.5526C74.8761 40.3603 75.4147 40.2642 76.0245 40.2642C76.9194 40.2642 77.6237 40.4548 78.1374 40.8359C78.6545 41.2171 78.9743 41.7325 79.0969 42.3821ZM84.5582 40.3636V41.7557H80.1683V40.3636H84.5582ZM81.2521 38.5341H83.0518V45.7031C83.0518 45.9451 83.0883 46.1307 83.1612 46.2599C83.2375 46.3859 83.3369 46.4721 83.4595 46.5185C83.5821 46.5649 83.718 46.5881 83.8672 46.5881C83.9799 46.5881 84.0826 46.5798 84.1754 46.5632C84.2715 46.5466 84.3445 46.5317 84.3942 46.5185L84.6974 47.9254C84.6013 47.9586 84.4638 47.995 84.2848 48.0348C84.1091 48.0746 83.8937 48.0978 83.6385 48.1044C83.1877 48.1177 82.7817 48.0497 82.4205 47.9006C82.0592 47.7481 81.7725 47.5128 81.5604 47.1946C81.3516 46.8764 81.2488 46.4787 81.2521 46.0014V38.5341ZM89.3123 48.1491C88.5666 48.1491 87.9203 47.9851 87.3734 47.657C86.8265 47.3288 86.4023 46.8698 86.1007 46.2798C85.8024 45.6899 85.6532 45.0005 85.6532 44.2116C85.6532 43.4228 85.8024 42.7318 86.1007 42.1385C86.4023 41.5452 86.8265 41.0845 87.3734 40.7564C87.9203 40.4283 88.5666 40.2642 89.3123 40.2642C90.0581 40.2642 90.7044 40.4283 91.2512 40.7564C91.7981 41.0845 92.2207 41.5452 92.519 42.1385C92.8206 42.7318 92.9714 43.4228 92.9714 44.2116C92.9714 45.0005 92.8206 45.6899 92.519 46.2798C92.2207 46.8698 91.7981 47.3288 91.2512 47.657C90.7044 47.9851 90.0581 48.1491 89.3123 48.1491ZM89.3223 46.7074C89.7266 46.7074 90.0647 46.5964 90.3365 46.3743C90.6083 46.1489 90.8104 45.8473 90.943 45.4695C91.0789 45.0916 91.1468 44.6707 91.1468 44.2067C91.1468 43.7393 91.0789 43.3168 90.943 42.9389C90.8104 42.5578 90.6083 42.2545 90.3365 42.0291C90.0647 41.8037 89.7266 41.6911 89.3223 41.6911C88.908 41.6911 88.5633 41.8037 88.2882 42.0291C88.0164 42.2545 87.8126 42.5578 87.6767 42.9389C87.5441 43.3168 87.4778 43.7393 87.4778 44.2067C87.4778 44.6707 87.5441 45.0916 87.6767 45.4695C87.8126 45.8473 88.0164 46.1489 88.2882 46.3743C88.5633 46.5964 88.908 46.7074 89.3223 46.7074ZM94.4989 48V40.3636H96.2191V41.6612H96.3086C96.4677 41.2237 96.7312 40.8823 97.0991 40.6371C97.467 40.3885 97.9061 40.2642 98.4165 40.2642C98.9336 40.2642 99.3694 40.3902 99.7241 40.642C100.082 40.8906 100.334 41.2304 100.48 41.6612H100.559C100.728 41.237 101.013 40.8989 101.414 40.647C101.819 40.3918 102.298 40.2642 102.851 40.2642C103.554 40.2642 104.127 40.4863 104.571 40.9304C105.016 41.3745 105.238 42.0225 105.238 42.8743V48H103.433V43.1527C103.433 42.6787 103.307 42.3324 103.055 42.1136C102.803 41.8916 102.495 41.7805 102.13 41.7805C101.696 41.7805 101.356 41.9164 101.111 42.1882C100.869 42.4567 100.748 42.8063 100.748 43.2372V48H98.9833V43.0781C98.9833 42.6837 98.864 42.3688 98.6254 42.1335C98.39 41.8982 98.0818 41.7805 97.7006 41.7805C97.4421 41.7805 97.2068 41.8468 96.9947 41.9794C96.7826 42.1087 96.6135 42.2926 96.4876 42.5312C96.3616 42.7666 96.2987 43.0417 96.2987 43.3565V48H94.4989ZM110.444 48.1491C109.678 48.1491 109.017 47.9901 108.46 47.6719C107.907 47.3504 107.481 46.8963 107.183 46.3097C106.884 45.7197 106.735 45.0253 106.735 44.2266C106.735 43.4411 106.884 42.7517 107.183 42.1584C107.484 41.5618 107.905 41.0978 108.445 40.7663C108.986 40.4316 109.62 40.2642 110.35 40.2642C110.82 40.2642 111.264 40.3404 111.682 40.4929C112.103 40.642 112.474 40.8741 112.796 41.1889C113.12 41.5038 113.376 41.9048 113.561 42.392C113.747 42.8759 113.84 43.4527 113.84 44.1222V44.674H107.58V43.4609H112.115C112.111 43.1162 112.037 42.8097 111.891 42.5412C111.745 42.2694 111.541 42.0556 111.279 41.8999C111.021 41.7441 110.719 41.6662 110.374 41.6662C110.007 41.6662 109.683 41.7557 109.405 41.9347C109.127 42.1103 108.91 42.3423 108.754 42.6307C108.601 42.9157 108.523 43.2289 108.52 43.5703V44.6293C108.52 45.0734 108.601 45.4545 108.764 45.7727C108.926 46.0876 109.153 46.3295 109.445 46.4986C109.736 46.6643 110.078 46.7472 110.469 46.7472C110.731 46.7472 110.968 46.7107 111.18 46.6378C111.392 46.5616 111.576 46.4505 111.732 46.3047C111.887 46.1589 112.005 45.9782 112.085 45.7628L113.765 45.9517C113.659 46.3958 113.457 46.7836 113.159 47.1151C112.864 47.4432 112.486 47.6984 112.025 47.8807C111.564 48.0597 111.037 48.1491 110.444 48.1491ZM115.362 48V40.3636H117.107V41.6364H117.187C117.326 41.1955 117.565 40.8558 117.903 40.6172C118.244 40.3752 118.634 40.2543 119.071 40.2543C119.17 40.2543 119.281 40.2592 119.404 40.2692C119.53 40.2758 119.634 40.2874 119.717 40.304V41.9595C119.641 41.933 119.52 41.9098 119.354 41.8899C119.192 41.8667 119.035 41.8551 118.882 41.8551C118.554 41.8551 118.259 41.9264 117.997 42.0689C117.739 42.2081 117.535 42.402 117.386 42.6506C117.237 42.8991 117.162 43.1858 117.162 43.5107V48H115.362ZM126.949 42.3821L125.308 42.5611C125.261 42.3954 125.18 42.2396 125.064 42.0938C124.952 41.9479 124.799 41.8303 124.607 41.7408C124.415 41.6513 124.179 41.6065 123.901 41.6065C123.526 41.6065 123.212 41.6877 122.956 41.8501C122.704 42.0125 122.58 42.223 122.583 42.4815C122.58 42.7036 122.661 42.8842 122.827 43.0234C122.996 43.1626 123.275 43.277 123.662 43.3665L124.965 43.6449C125.687 43.8007 126.224 44.0476 126.576 44.3857C126.93 44.7237 127.109 45.1662 127.113 45.7131C127.109 46.1937 126.968 46.6179 126.69 46.9858C126.415 47.3504 126.032 47.6354 125.542 47.8409C125.051 48.0464 124.488 48.1491 123.851 48.1491C122.917 48.1491 122.164 47.9536 121.594 47.5625C121.024 47.1681 120.684 46.6196 120.575 45.9169L122.33 45.7479C122.409 46.0926 122.578 46.3527 122.837 46.5284C123.096 46.7041 123.432 46.7919 123.846 46.7919C124.274 46.7919 124.617 46.7041 124.875 46.5284C125.137 46.3527 125.268 46.1357 125.268 45.8771C125.268 45.6584 125.184 45.4777 125.015 45.3352C124.849 45.1927 124.59 45.0833 124.239 45.0071L122.936 44.7337C122.204 44.5812 121.662 44.3243 121.311 43.9631C120.959 43.5985 120.785 43.1378 120.789 42.581C120.785 42.1103 120.913 41.7027 121.172 41.358C121.433 41.0099 121.796 40.7415 122.26 40.5526C122.728 40.3603 123.266 40.2642 123.876 40.2642C124.771 40.2642 125.475 40.4548 125.989 40.8359C126.506 41.2171 126.826 41.7325 126.949 42.3821Z" fill="#4D3802"/>
</g>
<defs>
<linearGradient id="paint0_linear_687_2249" x1="0" y1="0" x2="221.884" y2="165.291" gradientUnits="userSpaceOnUse">
<stop stop-color="#FCC946"/>
<stop offset="1" stop-color="#FFAA04"/>
</linearGradient>
<linearGradient id="paint1_linear_687_2249" x1="202.03" y1="-9.92975" x2="201.339" y2="118.176" gradientUnits="userSpaceOnUse">
<stop stop-color="white"/>
<stop offset="1" stop-color="white" stop-opacity="0"/>
</linearGradient>
<linearGradient id="paint2_linear_687_2249" x1="239.554" y1="-4.18561" x2="238.9" y2="123.921" gradientUnits="userSpaceOnUse">
<stop stop-color="white"/>
<stop offset="1" stop-color="white" stop-opacity="0"/>
</linearGradient>
<clipPath id="clip0_687_2249">
<rect width="237" height="145" rx="20" fill="white"/>
</clipPath>
<clipPath id="clip1_687_2249">
<rect width="14" height="14" fill="white" transform="translate(16 64)"/>
</clipPath>
<clipPath id="clip2_687_2249">
<rect width="76" height="14" fill="white" transform="translate(103 86)"/>
</clipPath>
<clipPath id="clip3_687_2249">
<rect width="14" height="14" fill="white" transform="translate(16 108)"/>
</clipPath>
</defs>
</svg>
