<svg xmlns="http://www.w3.org/2000/svg" width="94" height="53" fill="none" viewBox="0 0 94 53"><mask id="a" width="95" height="54" x="-.5" y="-.5" fill="#000" maskUnits="userSpaceOnUse"><path fill="#fff" d="M-.5-.5h95v54h-95z"/><path fill-rule="evenodd" d="M.5 8.5a8 8 0 0 1 8-8h77a8 8 0 0 1 8 8v13.1a5.002 5.002 0 0 0 0 9.8v13.1a8 8 0 0 1-8 8h-77a8 8 0 0 1-8-8V31.4a5.002 5.002 0 0 0 0-9.8z" clip-rule="evenodd"/></mask><path fill="#fff" fill-rule="evenodd" d="M.5 8.5a8 8 0 0 1 8-8h77a8 8 0 0 1 8 8v13.1a5.002 5.002 0 0 0 0 9.8v13.1a8 8 0 0 1-8 8h-77a8 8 0 0 1-8-8V31.4a5.002 5.002 0 0 0 0-9.8z" clip-rule="evenodd"/><path fill="#d9d9d9" d="m93.5 21.6.1.49.4-.081V21.6zm0 9.8h.5v-.409l-.4-.081zm-93 0-.1-.49-.4.081v.409zm0-9.8H0v.409l.4.081zM8.5.5V0A8.5 8.5 0 0 0 0 8.5h1A7.5 7.5 0 0 1 8.5 1zm77 0V0h-77v1h77zm8 8h.5A8.5 8.5 0 0 0 85.5 0v1A7.5 7.5 0 0 1 93 8.5zm0 13.1h.5V8.5h-1v13.1zm-4 4.9h.5a4.5 4.5 0 0 1 3.6-4.41l-.1-.49-.1-.49A5.5 5.5 0 0 0 89 26.5zm4 4.9.1-.49A4.5 4.5 0 0 1 90 26.5h-1c0 2.661 1.89 4.88 4.4 5.39zm0 13.1h.5V31.4h-1v13.1zm-8 8v.5a8.5 8.5 0 0 0 8.5-8.5h-1a7.5 7.5 0 0 1-7.5 7.5zm-77 0v.5h77v-1h-77zm-8-8H0A8.5 8.5 0 0 0 8.5 53v-1A7.5 7.5 0 0 1 1 44.5zm0-13.1H0v13.1h1V31.4zm4-4.9H4a4.5 4.5 0 0 1-3.6 4.41l.1.49.1.49A5.5 5.5 0 0 0 5 26.5zm-4-4.9-.1.49A4.5 4.5 0 0 1 4 26.5h1c0-2.661-1.89-4.88-4.4-5.39zm0-13.1H0v13.1h1V8.5z" mask="url(#a)"/><path fill="#f90" d="M52.847 32.75c-2.823 2.109-6.914 3.234-10.436 3.234-4.94 0-9.385-1.852-12.75-4.931-.264-.243-.027-.573.29-.384 3.63 2.14 8.12 3.429 12.756 3.429 3.127 0 6.567-.656 9.73-2.017.478-.206.877.317.41.669"/><path fill="#f90" d="M54.02 31.39c-.359-.467-2.384-.22-3.294-.111-.276.034-.319-.21-.07-.386 1.614-1.151 4.261-.819 4.57-.433.308.388-.08 3.077-1.597 4.361-.232.197-.454.092-.35-.17.34-.86 1.103-2.792.741-3.261"/><path fill="#221f1f" d="M50.79 22.769V21.65c0-.17.127-.283.279-.283h4.941c.159 0 .285.116.285.283v.958c-.002.16-.135.37-.372.703l-2.56 3.705c.952-.023 1.956.12 2.818.613.195.112.248.274.263.435v1.194c0 .163-.178.354-.364.255-1.52-.808-3.54-.896-5.22.008-.172.095-.351-.094-.351-.257v-1.133c0-.183.002-.493.182-.77l2.966-4.312h-2.582a.275.275 0 0 1-.285-.28m-18.024 6.979h-1.503a.286.286 0 0 1-.269-.26v-7.82c0-.156.13-.28.29-.28h1.401c.146.006.263.12.273.261v1.022h.028c.366-.988 1.053-1.448 1.979-1.448.94 0 1.528.46 1.951 1.448.364-.988 1.19-1.448 2.076-1.448.63 0 1.32.263 1.74.855.476.657.379 1.613.379 2.451l-.002 4.936a.286.286 0 0 1-.29.283h-1.501a.29.29 0 0 1-.27-.283V25.32c0-.33.029-1.153-.043-1.466-.112-.525-.448-.673-.884-.673-.363 0-.744.247-.898.641s-.14 1.055-.14 1.498v4.145a.286.286 0 0 1-.29.283h-1.5a.286.286 0 0 1-.271-.283l-.002-4.145c0-.872.141-2.156-.926-2.156-1.08 0-1.038 1.252-1.038 2.156v4.145a.286.286 0 0 1-.29.283m27.784-8.525c2.23 0 3.437 1.941 3.437 4.41 0 2.385-1.334 4.278-3.438 4.278-2.19 0-3.383-1.942-3.383-4.362 0-2.434 1.208-4.326 3.383-4.326m.013 1.596c-1.108 0-1.178 1.53-1.178 2.484 0 .956-.014 2.996 1.165 2.996 1.165 0 1.22-1.646 1.22-2.649 0-.66-.027-1.449-.224-2.074-.169-.545-.505-.757-.983-.757m6.318 6.929h-1.497a.29.29 0 0 1-.271-.283l-.002-7.822a.286.286 0 0 1 .29-.255h1.393a.29.29 0 0 1 .268.218v1.196h.028c.42-1.07 1.01-1.58 2.049-1.58.674 0 1.331.247 1.754.922.394.626.394 1.678.394 2.435V29.5a.29.29 0 0 1-.29.247h-1.507a.286.286 0 0 1-.267-.247v-4.247c0-.855.097-2.107-.94-2.107-.367 0-.703.249-.87.626-.211.478-.239.954-.239 1.48v4.212a.29.29 0 0 1-.294.283m-20.028-3.734v-.33c-1.087 0-2.235.236-2.235 1.534 0 .658.336 1.104.914 1.104.422 0 .8-.264 1.04-.692.296-.527.281-1.022.281-1.616m1.516 3.714a.31.31 0 0 1-.355.036c-.5-.42-.588-.615-.863-1.015-.825.852-1.408 1.107-2.478 1.107-1.264 0-2.25-.79-2.25-2.374 0-1.237.662-2.079 1.603-2.49.816-.365 1.956-.429 2.827-.53v-.197c0-.362.028-.79-.182-1.104-.184-.28-.535-.396-.843-.396-.573 0-1.085.298-1.21.915-.025.137-.125.272-.26.279l-1.459-.159c-.122-.028-.258-.128-.224-.32.336-1.79 1.933-2.33 3.362-2.33.731 0 1.687.196 2.264.758.732.692.662 1.616.662 2.62v2.375c0 .714.292 1.027.567 1.413.097.137.118.302-.005.405-.306.259-.852.741-1.152 1.011zm-21.223-3.714v-.33c-1.087 0-2.235.236-2.235 1.535 0 .657.336 1.103.913 1.103.423 0 .802-.263 1.04-.692.297-.527.282-1.022.282-1.616m1.516 3.714a.31.31 0 0 1-.355.037c-.5-.42-.588-.616-.863-1.016-.825.853-1.408 1.108-2.478 1.108-1.264 0-2.25-.791-2.25-2.375 0-1.236.662-2.079 1.603-2.49.816-.364 1.956-.429 2.827-.53v-.197c0-.362.027-.79-.182-1.103-.184-.281-.535-.397-.844-.397-.573 0-1.084.298-1.21.915-.024.137-.124.273-.26.279l-1.458-.159c-.123-.028-.258-.128-.224-.319.336-1.792 1.932-2.332 3.362-2.332.731 0 1.687.198 2.264.759.732.692.662 1.616.662 2.621v2.375c0 .713.292 1.026.566 1.412.098.137.119.302-.004.405-.306.26-.852.741-1.152 1.011z"/></svg>