<svg xmlns="http://www.w3.org/2000/svg" width="93" height="52" fill="none" viewBox="0 0 93 52"><path fill="#eb1c24" fill-rule="evenodd" d="M0 8a8 8 0 0 1 8-8h77a8 8 0 0 1 8 8v13.1a5.002 5.002 0 0 0 0 9.8V44a8 8 0 0 1-8 8H8a8 8 0 0 1-8-8V30.9a5.002 5.002 0 0 0 0-9.8z" clip-rule="evenodd"/><path fill="#fff" fill-rule="evenodd" d="M57.63 20.298c.517-2.99 3.711-4.507 6.07-4.361.91.056 1.695.362 2.152.926h.005c.189-.219.374-.435.565-.654.112-.126.427-.085.706-.03.318.065.655.208.873.208.22 0 .743-.175 1.239-.257s.969-.07.886.152l-.443 1.213h.008l-1.451 3.957c-.29.79.844.579 2.417-1.254.27.196.393.231.66.968-1.345 1.271-2.626 2.186-4.406 2.86-1.6.609-2.779-.27-3.147-1.735-2.272 2.344-5.437 2.318-6.347-.325-1.478.804-3.242 1.658-3.975 1.891-.573.185-1.095.31-1.586.316-.786.006-1.645-.8-1.375-1.987-1.303.634-2.337 1.049-3.831 1.616-1.6.608-2.518-.044-2.89-1.508-2.273 2.344-5.439 2.317-6.346-.328-.892.474-2.128 1.17-3.264 1.658-1.828.906-3.969.724-5.569-1.123l.523-.906c.753.883 1.671.833 2.393.117.767-.763 1.252-2.236.905-3.44-.154-.529-.695-.935-1.714-.862l.316-.924c1.04-.04 1.854-.192 2.303-.914.631-1.012.642-2.57-.712-2.528a2.9 2.9 0 0 0-.846.178c-.233.763-.647 1.666-.979 2.613-.759 2.16-1.608 4.56-2.592 6.105-1.176 1.841-2.43 2.207-3.444 2.13-1.059-.078-1.89-.432-3.052-1.583-.005-.488.04-.702.123-1.31.406.632 1.806 1.3 2.26.567 1.016-1.64 2.133-4.805 2.967-6.847-.754.274-1.452.78-2.441 1.534.01-.126-.33-.4-.316-.766 1.581-2.01 4.383-3.238 6.27-3.676 2.884-.673 5.977.303 6.442 2.311.31 1.339-1.125 2.596-2.47 2.777.774.503 1.597 1.376 1.804 2.443a3.7 3.7 0 0 1-.08 1.672c.454-.23 1-.535 1.361-.699.568-4.296 6.594-5.675 8.257-3.624l.57-.654c.112-.126.428-.085.706-.03.319.065.656.208.873.208.22 0 .743-.175 1.24-.257.496-.082.968-.07.886.152l-1.895 5.17c-.427 1.169 2.717-.9 2.903-1.014l1.35-3.163-1.39.02.25-1.3h1.536c.252-.368.329-.812.663-1.09.456-.377 1.494-.175 1.972-.517.41-.298.73-.745 1.111-1.432.33-.596 1.529-.442 1.298.123l-1.072 2.951 1.356-.014c.644.038.09 1.216-.642 1.224l-1.12.024-1.3 3.706c-.427 1.216 1.233.134 2.478-.672zM45.184 17.76c-.148-.561-.591-.713-.976-.67-.91.109-1.788 1.22-2.24 1.994-.721 1.239-.551 3.069.598 2.727 1.215-.36 2.833-3.236 2.618-4.054zm20.004 0c-.15-.561-.592-.713-.977-.67-.91.109-1.788 1.22-2.24 1.994-.721 1.239-.551 3.069.598 2.727 1.215-.36 2.836-3.236 2.619-4.054z" clip-rule="evenodd"/><path fill="url(#a)" d="M10 36a6 6 0 0 1 6-6h61a6 6 0 0 1 6 6v16H10z"/><path fill="#fff" d="m25.131 45 3.015-5.966v-.05h-3.512v-1.257h5.103v1.275L26.718 45zm5.308.092a.83.83 0 0 1-.604-.248.83.83 0 0 1-.248-.604q0-.348.248-.596a.83.83 0 0 1 .604-.25q.34 0 .597.25.255.248.255.596 0 .234-.12.43a.9.9 0 0 1-.31.309.8.8 0 0 1-.422.113m4.678.007a3.1 3.1 0 0 1-1.342-.277q-.587-.276-.93-.763a1.96 1.96 0 0 1-.36-1.115h1.492q.025.423.355.685t.785.263q.362 0 .639-.16.28-.163.437-.45.16-.292.16-.668 0-.384-.164-.675a1.16 1.16 0 0 0-.444-.455 1.3 1.3 0 0 0-.65-.166q-.319 0-.62.13a1.1 1.1 0 0 0-.466.36l-1.367-.245.344-3.836h4.446v1.257h-3.178l-.188 1.822h.042q.192-.27.58-.447.386-.178.866-.178.657 0 1.171.31.516.308.814.848.298.536.294 1.236.005.735-.34 1.306a2.4 2.4 0 0 1-.956.895q-.61.324-1.42.323m7.77-1.463v-.383q0-.437.184-.803.189-.368.544-.59.358-.222.873-.223.522 0 .877.22.36.22.54.59.185.366.185.806v.383q0 .438-.185.806-.184.367-.543.586-.359.224-.874.224-.522 0-.877-.224a1.45 1.45 0 0 1-.54-.585 1.8 1.8 0 0 1-.184-.807m1.033-.383v.383q0 .252.12.476.126.224.448.224.324 0 .44-.22a1 1 0 0 0 .121-.48v-.383a1.05 1.05 0 0 0-.113-.483q-.114-.224-.448-.224-.319 0-.444.224a1 1 0 0 0-.124.483m-4.766-3.779v-.383q0-.44.189-.806.187-.37.543-.59.36-.22.866-.22.525 0 .881.22t.54.59q.185.366.185.806v.383q0 .441-.189.807-.184.365-.543.586-.355.216-.873.216-.52 0-.878-.22a1.5 1.5 0 0 1-.54-.586 1.8 1.8 0 0 1-.18-.803m1.041-.383v.383q0 .26.12.48.126.22.438.22.326 0 .443-.22a1 1 0 0 0 .121-.48v-.383q0-.26-.114-.483-.113-.224-.45-.224-.317 0-.437.227-.12.228-.121.48M39.623 45l5-7.273h.93l-5 7.273zm16.917-3.636q0 1.189-.451 2.024a3.13 3.13 0 0 1-1.222 1.275 3.45 3.45 0 0 1-1.733.436 3.44 3.44 0 0 1-1.74-.44 3.13 3.13 0 0 1-1.218-1.275q-.447-.834-.447-2.02 0-1.19.447-2.024a3.1 3.1 0 0 1 1.218-1.272 3.44 3.44 0 0 1 1.74-.44q.963 0 1.733.44.775.437 1.222 1.272.45.833.451 2.024m-1.559 0q0-.77-.23-1.3-.228-.529-.644-.803a1.73 1.73 0 0 0-.973-.273 1.73 1.73 0 0 0-.973.273q-.415.274-.646.803-.227.53-.227 1.3t.227 1.3q.231.529.646.802t.973.273.973-.273.643-.803q.231-.529.231-1.3M57.679 45v-7.273h4.815v1.268h-3.277v1.733h2.958v1.268h-2.958V45zm5.85 0v-7.273h4.815v1.268h-3.278v1.733h2.958v1.268h-2.958V45z"/><defs><linearGradient id="a" x1="46.5" x2="46.5" y1="30" y2="70.944" gradientUnits="userSpaceOnUse"><stop stop-color="#ad0f15"/><stop offset="1" stop-color="#ad0f15" stop-opacity="0"/></linearGradient></defs></svg>