<svg xmlns="http://www.w3.org/2000/svg" width="93" height="52" fill="none" viewBox="0 0 93 52"><g fill-rule="evenodd" clip-path="url(#a)" clip-rule="evenodd"><path fill="#a5cd39" d="M0 8a8 8 0 0 1 8-8h77a8 8 0 0 1 8 8v13.1a5.002 5.002 0 0 0 0 9.8V44a8 8 0 0 1-8 8H8a8 8 0 0 1-8-8V30.9a5.002 5.002 0 0 0 0-9.8z"/><path fill="#a5cd39" d="M16.944 18.52c.124-.019.25-.021.375-.02h10.462a2.29 2.29 0 0 1 1.836 1c.165.244.283.52.34.809.043.214.043.434.043.652v9.845c-.003.306.015.618-.054.92a2.27 2.27 0 0 1-2.298 1.772H17.162a2.24 2.24 0 0 1-2.137-1.926c-.033-.224-.023-.45-.024-.675v-9.778c.001-.284-.014-.573.05-.852.107-.508.401-.97.808-1.288.313-.246.69-.408 1.085-.46"/><path fill="#ec1c24" d="M17.048 20.378h1.909c.001 1.554-.003 3.11.002 4.665.058-.06.097-.137.152-.2.384-.475.952-.764 1.537-.855.515-.078 1.055-.046 1.54.164.577.252 1.045.732 1.355 1.292.228.414.367.874.464 1.339.179.87.113 1.787-.157 2.63a3.5 3.5 0 0 1-.6 1.17c-.228.282-.488.544-.8.72-.401.232-.866.322-1.321.318-.437-.004-.885-.035-1.295-.206a3 3 0 0 1-.465-.264 1.3 1.3 0 0 1-.355-.35c-.061-.099-.128-.196-.163-.31.021.234-.027.482-.174.666-.174.22-.44.334-.702.394a3.1 3.1 0 0 1-.923.052c-.009-1.157 0-2.314-.003-3.471zm3.226 5.09c-.37.057-.688.297-.924.588-.248.308-.368.7-.448 1.086-.087.42-.091.86-.003 1.282.087.423.23.85.516 1.175.227.284.562.47.916.511.348.043.724-.007 1.015-.224.232-.17.384-.43.506-.69.205-.458.277-.97.27-1.471a4.2 4.2 0 0 0-.168-1.12c-.113-.325-.287-.633-.54-.86-.314-.268-.746-.344-1.14-.277"/><path fill="#231f20" d="M21.417 20.377h1.156v3.61c-.343-.229-.745-.376-1.157-.368zm1.597 3.957c.41-.248.883-.39 1.359-.39.705-.011 1.4.285 1.917.779.32.302.575.678.747 1.09.323.807.456 1.699.354 2.568-.051.44-.159.871-.31 1.285a3.4 3.4 0 0 1-.597 1.018c-.22.255-.469.489-.764.645-.392.215-.84.296-1.28.292-.536-.003-1.096-.058-1.566-.348a4 4 0 0 0 .707-.787c.376.14.796.16 1.179.04.307-.093.576-.298.775-.556a2.8 2.8 0 0 0 .464-1 4.9 4.9 0 0 0 .13-1.554 4 4 0 0 0-.335-1.392c-.158-.336-.392-.644-.707-.834-.437-.265-.984-.283-1.457-.122a4 4 0 0 0-.616-.734"/><path fill="#ec1c24" d="M32 20.502c.543-.004 1.087 0 1.63-.002v4.015c.314-.517.876-.776 1.422-.892.719-.14 1.53.053 2.037.638.482.496.742 1.185.86 1.877.163.982.028 2.03-.434 2.903-.334.614-.906 1.106-1.577 1.21-.6.084-1.251.052-1.786-.284a1.36 1.36 0 0 1-.597-.61c-.019.247-.101.503-.302.65-.362.27-.825.271-1.249.261-.009-3.255 0-6.51-.004-9.766m2.617 4.459c-.557.172-.895.747-1 1.325-.167.725-.047 1.537.36 2.15.404.596 1.315.73 1.814.2.526-.608.62-1.51.487-2.295-.053-.464-.268-.911-.616-1.2-.29-.246-.696-.29-1.045-.18m3.818-4.46h1.629v1.449h-1.628q-.002-.724 0-1.45m4.205 3.117c.817-.162 1.809.15 2.182 1a.94.94 0 0 1 .453-.628c.34-.203.742-.228 1.123-.215v5.723a3.9 3.9 0 0 1-.244 1.494c-.371.86-1.244 1.363-2.1 1.466-.846.104-1.78.04-2.49-.51a1.98 1.98 0 0 1-.827-1.484c.54.004 1.08-.002 1.62.004.072.245.198.485.412.62.37.226.824.254 1.234.157.477-.113.754-.632.82-1.113.031-.401 0-.804.017-1.205-.249.495-.72.843-1.238.937-.646.117-1.354.048-1.912-.345-.652-.457-1.017-1.275-1.091-2.085-.061-.73-.066-1.496.214-2.18.312-.812.985-1.515 1.827-1.636m.51 1.338a1.16 1.16 0 0 0-.74.65c-.25.464-.223 1.021-.202 1.536.055.604.375 1.298.986 1.419.55.143 1.162-.153 1.425-.684.308-.75.297-1.67-.08-2.39-.268-.502-.89-.678-1.39-.531m-4.715-1.18q.815-.004 1.63 0v6.51q-.815.002-1.63 0z"/><path fill="#231f20" d="M47.17 20.5h1.042c0 1.362.003 2.723-.002 4.084.24-.404.597-.732 1.027-.883.819-.285 1.791-.068 2.397.598.56.615.782 1.49.81 2.328.01.89-.139 1.817-.592 2.58-.583 1.037-1.93 1.434-2.949.94-.328-.168-.572-.475-.755-.803.01.232-.017.493-.192.657-.209.217-.522.152-.785.16zm2.232 4.103c-.358.07-.665.321-.854.647-.282.48-.358 1.058-.392 1.613-.038.592.003 1.226.3 1.745.281.507.836.819 1.389.787.494.004.951-.317 1.195-.765.304-.557.373-1.22.364-1.852-.022-.585-.09-1.22-.455-1.686-.366-.473-1.003-.605-1.547-.49M64.054 20.5q.487-.002.975 0c.002 2.04-.001 4.08.001 6.12q1.065-1.11 2.135-2.216c.229-.26.545-.47.891-.455.225-.012.413.138.583.277-.66.715-1.346 1.4-2.02 2.1.803 1.348 1.624 2.685 2.43 4.031h-1.312q-.931-1.614-1.865-3.228-.427.395-.844.803c.003.808 0 1.617.001 2.426h-.974zm10.955 0 1.007-.001.001 3.353c.28.034.585.101.784.333.144.15.18.368.2.572h-.985v4.103c-.003.17.037.374.195.457.24.13.52.057.779.073q.003.433 0 .866c-.488.05-1.012.205-1.471-.055-.374-.189-.496-.658-.509-1.064-.004-1.46 0-2.92-.002-4.38h-.823v-.894h.823zm-21.383 3.656c.55-.496 1.306-.586 2-.575.596.031 1.23.175 1.68.62.267.28.423.676.416 1.076l-.001 3.583c.003.18-.006.418.176.509.16.05.332.006.496.003v.79c-.402.16-.88.195-1.258-.048-.261-.164-.331-.502-.363-.798-.37.443-.844.806-1.393.942-.697.181-1.504.131-2.077-.371-.873-.77-.764-2.463.228-3.068.608-.386 1.338-.36 2.016-.473.308-.057.634-.041.928-.163.286-.18.305-.589.253-.899-.07-.43-.463-.692-.842-.759-.466-.084-.993-.11-1.407.172-.293.194-.376.596-.67.787-.227.164-.51.212-.78.173.033-.55.187-1.133.598-1.501m1.786 3.094c-.452.077-.954.085-1.332.398-.382.314-.357.935-.145 1.35.285.465.878.48 1.34.39.598-.128 1.23-.514 1.41-1.174.064-.426.01-.863.03-1.293-.408.208-.864.247-1.303.329m3.82-3.067c.462-.436 1.095-.592 1.698-.605.53.002 1.083.095 1.53.416.45.316.744.857.794 1.427-.303.06-.625.008-.881-.182-.282-.168-.437-.527-.77-.604-.514-.146-1.102-.168-1.58.114-.31.18-.458.62-.311.963.134.258.42.347.666.431.543.163 1.089.31 1.635.463.434.134.895.31 1.186.7.275.375.29.882.224 1.332a1.96 1.96 0 0 1-1.027 1.406c-.637.345-1.382.357-2.075.25-.521-.088-1.057-.302-1.398-.75-.32-.404-.422-.943-.452-1.456.335-.005.67-.001 1.006-.003.025.354.118.738.393.967.389.334.919.36 1.397.337.366-.034.764-.156.992-.484.154-.21.186-.499.127-.75-.091-.298-.39-.43-.646-.52-.647-.211-1.316-.339-1.962-.55-.465-.155-.914-.505-1.047-1.025-.156-.658.016-1.419.5-1.877m10.234.303c.451-.552 1.13-.845 1.808-.893.731-.079 1.531.133 2.033.737.687.794.83 1.93.847 2.968-1.464.002-2.928-.001-4.392.002.012.556.106 1.158.475 1.58.325.388.835.535 1.31.514.697.008 1.37-.54 1.514-1.274l1.008.001c-.117.731-.523 1.41-1.115 1.805-.504.38-1.149.443-1.748.422-.689-.027-1.377-.338-1.825-.904-.509-.634-.72-1.487-.708-2.309-.01-.937.198-1.93.793-2.65m.896.532c-.471.446-.649 1.144-.598 1.799.298-.35.758-.413 1.178-.378h2.142c-.042-.475-.137-.971-.432-1.345-.565-.69-1.677-.705-2.29-.076"/></g><defs><clipPath id="a"><path fill="#fff" d="M0 0h93v52H0z"/></clipPath></defs></svg>