<svg xmlns="http://www.w3.org/2000/svg" width="93" height="52" fill="none" viewBox="0 0 93 52"><path fill="#f8cb46" fill-rule="evenodd" d="M0 8a8 8 0 0 1 8-8h77a8 8 0 0 1 8 8v13.1a5.002 5.002 0 0 0 0 9.8V44a8 8 0 0 1-8 8H8a8 8 0 0 1-8-8V30.9a5.002 5.002 0 0 0 0-9.8z" clip-rule="evenodd"/><path fill="#000" d="M29.51 23.35q1.16 0 2.07.56a3.8 3.8 0 0 1 1.442 1.57q.505.977.505 2.298 0 1.282-.505 2.29a3.8 3.8 0 0 1-1.425 1.578 3.87 3.87 0 0 1-2.087.576 3.8 3.8 0 0 1-1.59-.336 3.7 3.7 0 0 1-1.276-.945v1.081h-2.882V20.556h2.882v4.067a3.6 3.6 0 0 1 1.276-.937 3.8 3.8 0 0 1 1.59-.336m-.861 6.558q.613 0 1.093-.272.48-.273.754-.76a2.2 2.2 0 0 0 .273-1.098q0-.6-.273-1.089a1.95 1.95 0 0 0-.754-.76 2.2 2.2 0 0 0-1.093-.273q-.58 0-1.036.272a1.85 1.85 0 0 0-.712.745 2.34 2.34 0 0 0-.257 1.105q0 .617.257 1.105.257.48.712.753.456.272 1.036.272m5.273 2.114V20.556h2.882v11.466zm3.698 0v-8.48h2.867v8.48zm9.092-8.672q.92 0 1.657.417.737.408 1.16 1.153.405.753.405 1.705v5.397h-2.75V27.25q0-.464-.19-.825a1.33 1.33 0 0 0-.522-.568q-.33-.2-.778-.2-.423 0-.779.2a1.4 1.4 0 0 0-.555.528 1.36 1.36 0 0 0-.207.753l-.017 4.884h-2.865v-8.48h2.865v.97q.407-.545 1.085-.85.68-.31 1.491-.311m9.555 3.899 3.255 4.772h-3.255l-1.905-3.003-.878.985v2.018h-2.882V20.556h2.882v6.333l2.767-3.347h3.254zM37.62 20.557h2.874v2.174H37.62z"/><path fill="#0c831f" d="M59.98 31.996v-8.48h2.865v8.48zm8.925-2.393.571 1.785q-.39.36-.986.585-.588.224-1.15.224a3 3 0 0 1-1.45-.344 2.53 2.53 0 0 1-.994-.977q-.357-.609-.356-1.401v-3.74h-1.152v-2.218h1.152v-2.96h2.75v2.96h1.813v2.218H67.29v3.227q0 .408.224.665.225.256.572.256.248 0 .464-.072a.9.9 0 0 0 .356-.208m-8.949-9.046h2.875v2.174h-2.875z"/></svg>