<svg xmlns="http://www.w3.org/2000/svg" width="377" height="37" fill="none" viewBox="0 0 377 37"><path fill="url(#a)" d="m36.472 2.886-.444.439a10 10 0 0 1-14.056 0l-.444-.439a10 10 0 0 0-14.056 0l-4.5 4.446A10 10 0 0 0 0 14.446v14.497a8 8 0 0 0 8 8h359c5.523 0 10-4.477 10-10V14.446a10 10 0 0 0-2.972-7.114l-4.5-4.446a10 10 0 0 0-14.056 0l-.444.439a10 10 0 0 1-14.056 0l-.444-.439a10 10 0 0 0-14.056 0l-.444.439a10 10 0 0 1-14.056 0l-.444-.439a10 10 0 0 0-14.056 0l-.444.439a10 10 0 0 1-14.056 0l-.444-.439a10 10 0 0 0-14.056 0l-.444.439a10 10 0 0 1-14.056 0l-.444-.439a10 10 0 0 0-14.056 0l-.444.439a10 10 0 0 1-14.056 0l-.444-.439a10 10 0 0 0-14.056 0l-.444.439a10 10 0 0 1-14.056 0l-.444-.439a10 10 0 0 0-14.056 0l-.444.439a10 10 0 0 1-14.056 0l-.444-.439a10 10 0 0 0-14.056 0l-.444.439a10 10 0 0 1-14.056 0l-.444-.439a10 10 0 0 0-14.056 0l-.444.439a10 10 0 0 1-14.056 0l-.444-.439a10 10 0 0 0-14.056 0l-.444.439a10 10 0 0 1-14.056 0l-.444-.439a10 10 0 0 0-14.056 0l-.444.439a10 10 0 0 1-14.056 0l-.444-.439a10 10 0 0 0-14.056 0"/><defs><linearGradient id="a" x1="188.5" x2="188.5" y1="-4.057" y2="36.943" gradientUnits="userSpaceOnUse"><stop stop-color="#0644a3"/><stop offset="1" stop-color="#053c8f"/></linearGradient></defs></svg>