<svg xmlns="http://www.w3.org/2000/svg" width="118" height="52" fill="none" viewBox="0 0 118 52"><path fill="url(#a)" fill-rule="evenodd" d="M0 33.12v13.385c0 1.45.574 2.842 1.602 3.868a5.47 5.47 0 0 0 3.868 1.602h106.486a5.47 5.47 0 0 0 5.471-5.47v-13.35a7.17 7.17 0 0 1-7.169-7.167 7.17 7.17 0 0 1 7.169-7.169V5.47A5.47 5.47 0 0 0 111.956 0H5.47a5.47 5.47 0 0 0-3.868 1.602A5.46 5.46 0 0 0 0 5.47v13.385q.35-.035.717-.036a7.17 7.17 0 0 1 7.168 7.169A7.17 7.17 0 0 1 0 33.12" clip-rule="evenodd"/><path fill="url(#b)" fill-rule="evenodd" d="M0 33.12q.35.036.717.036a7.17 7.17 0 0 0 7.168-7.168A7.17 7.17 0 0 0 0 18.855V5.47c0-1.45.574-2.842 1.602-3.868A5.47 5.47 0 0 1 5.47 0h106.486a5.47 5.47 0 0 1 5.471 5.47v13.35a7.17 7.17 0 0 0-7.169 7.168 7.17 7.17 0 0 0 7.169 7.168v13.35a5.47 5.47 0 0 1-5.471 5.47H5.47a5.47 5.47 0 0 1-3.868-1.603A5.46 5.46 0 0 1 0 46.505zm1.287-15.57c4.4.294 7.885 3.962 7.885 8.438 0 4.475-3.485 8.144-7.885 8.438v12.08a4.18 4.18 0 0 0 4.183 4.18h106.486a4.18 4.18 0 0 0 4.182-4.18v-12.16c-4.057-.62-7.168-4.129-7.168-8.358s3.111-7.738 7.168-8.36V5.47a4.18 4.18 0 0 0-4.182-4.182H5.47A4.183 4.183 0 0 0 1.287 5.47z" clip-rule="evenodd"/><path fill="url(#c)" fill-rule="evenodd" d="M0 33.12q.35.036.717.036a7.17 7.17 0 0 0 7.168-7.168A7.17 7.17 0 0 0 0 18.855V5.47c0-1.45.574-2.842 1.602-3.868A5.47 5.47 0 0 1 5.47 0h106.486a5.47 5.47 0 0 1 5.471 5.47v13.35a7.17 7.17 0 0 0-7.169 7.168 7.17 7.17 0 0 0 7.169 7.168v13.35a5.47 5.47 0 0 1-5.471 5.47H5.47a5.47 5.47 0 0 1-3.868-1.603A5.46 5.46 0 0 1 0 46.505zm1.469-15.74c4.416.383 7.885 4.093 7.885 8.608 0 4.514-3.47 8.224-7.885 8.607v11.91c0 1.06.421 2.078 1.173 2.828a4 4 0 0 0 2.828 1.17h106.486a4 4 0 0 0 3.999-3.998V34.502c-4.068-.699-7.168-4.248-7.168-8.514 0-4.267 3.1-7.816 7.168-8.515V5.47a4 4 0 0 0-3.999-3.999H5.47a4 4 0 0 0-2.828 1.172A4 4 0 0 0 1.47 5.47z" clip-rule="evenodd"/><path fill="#bfdefe" fill-rule="evenodd" d="M47.917 18.526c-1.178.045-2.266.643-3.081 1.672-.635.79-1.088 1.808-1.27 2.904a5.4 5.4 0 0 0-1.178-2.904c-.816-1.029-1.904-1.627-3.082-1.672 1.178-.046 2.266-.633 3.082-1.661.635-.802 1.088-1.82 1.178-2.904a6.4 6.4 0 0 0 1.27 2.904c.815 1.028 1.903 1.615 3.081 1.66m4.13-2.484c-.639.025-1.228.35-1.67.907-.344.428-.59.98-.688 1.573a2.93 2.93 0 0 0-.639-1.573c-.442-.558-1.032-.882-1.67-.907.638-.024 1.228-.343 1.67-.9a2.97 2.97 0 0 0 .639-1.574c.098.588.344 1.14.688 1.574.442.557 1.031.876 1.67.9" clip-rule="evenodd"/><path fill="#bfdefe" d="M27.237 13.234q.27-.108.616-.07.345.038.61.145.264.109.367.26.102.15-.113.28-.162.098-.61.594-.45.498-1.08 1.274a58 58 0 0 0-4.357 6.17 34 34 0 0 0-1.268 2.247q-.556 1.085-.891 2.04t-.346 1.658q0 .302-.216.34-.216.037-.453-.14-.237-.18-.416-.551-.178-.372-.102-.89.119-.832.507-1.836.39-1.005.95-2.084.561-1.08 1.247-2.181t1.393-2.133a51 51 0 0 1 2.656-3.541q.567-.686.972-1.107t.534-.475m9.33-2.095q.291.033.485.238.196.205.238.42a.38.38 0 0 1-.103.363q-.145.146-.534.08a9 9 0 0 0-.659-.07 25 25 0 0 0-1.48-.07 34 34 0 0 0-2.137.027q-1.22.049-2.635.227a33 33 0 0 0-2.974.524q-1.56.345-3.153.928a24 24 0 0 0-3.163 1.431 19 19 0 0 0-3.018 2.035q-.227.184-.33.346a1.4 1.4 0 0 0-.145.286.7.7 0 0 0-.044.2q0 .075-.01.075a.65.65 0 0 1-.325.006.66.66 0 0 1-.35-.2q-.157-.162-.211-.47t.108-.804q.087-.282.513-.724t1.16-.977q.735-.534 1.777-1.101a22 22 0 0 1 2.364-1.09 28 28 0 0 1 2.916-.956 27 27 0 0 1 3.428-.68 33 33 0 0 1 8.282-.043m-6.813 9.069a.8.8 0 0 1 .507-.124q.302.015.55.14a.9.9 0 0 1 .378.33.375.375 0 0 1 0 .42q-.044.066-.15.238l-.255.4q-.145.226-.291.48-.146.255-.248.464t-.146.357q-.043.146.021.167.227.064.53-.032.302-.098.62-.308.32-.21.621-.508.303-.296.53-.631.097-.141.231-.114a.4.4 0 0 1 .233.152q.096.124.13.318a.6.6 0 0 1-.077.389 3 3 0 0 1-.523.653 4.4 4.4 0 0 1-.832.648q-.47.285-1.014.421-.546.135-1.064-.038a1.3 1.3 0 0 1-.41-.227q-.303.346-.643.67t-.696.583a4 4 0 0 1-.735.426 2.6 2.6 0 0 1-.766.211 6 6 0 0 1-.33.016 1.8 1.8 0 0 1-.426-.043 1.7 1.7 0 0 1-.448-.168 1.2 1.2 0 0 1-.389-.345 1.6 1.6 0 0 1-.253-.588q-.086-.363-.044-.902a3.6 3.6 0 0 1 .249-1.01q.216-.566.572-1.16a10 10 0 0 1 .826-1.166 7.4 7.4 0 0 1 1.02-1.026q.552-.453 1.161-.745a3.2 3.2 0 0 1 1.247-.324 2.8 2.8 0 0 1 .762.054q.318.075.523.205t.308.302a.77.77 0 0 1 .054.713 1 1 0 0 1-.178.292.5.5 0 0 1-.222.151q-.113.031-.178-.054a1 1 0 0 0-.55-.383 1.3 1.3 0 0 0-.68-.006q-.595.151-1.097.48a5.2 5.2 0 0 0-.907.751q-.405.42-.718.885a7.5 7.5 0 0 0-.852 1.674q-.12.345-.13.53a.9.9 0 0 0 .048.42.63.63 0 0 0 .426.378 1 1 0 0 0 .228.032 1.24 1.24 0 0 0 .545-.178q.297-.167.605-.442.308-.276.62-.621.313-.346.605-.702a2.8 2.8 0 0 1 .049-.702 3.4 3.4 0 0 1 .216-.707q.146-.34.356-.626.21-.287.48-.47"/><path fill="#bfdefe" d="M30.952 31.265q.031.335-.033.512-.064.179-.189.238a.4.4 0 0 1-.286.016.9.9 0 0 1-.313-.156 1.4 1.4 0 0 1-.275-.276.9.9 0 0 1-.168-.345q-.172-.66-.091-1.539.08-.88.345-1.879.265-.998.664-2.062t.87-2.089.966-1.96q.496-.933.944-1.663.448-.728.816-1.204.366-.474.572-.593.324-.194.6-.206.275-.01.431.092a.36.36 0 0 1 .167.297q.012.195-.172.421l-.551.756q.248-.259.513-.497.265-.237.534-.42.27-.184.53-.314.258-.13.507-.173.529-.096.874.028.345.123.535.377.189.255.237.589.05.334-.016.658a8.4 8.4 0 0 1-1.43 3.315 7.3 7.3 0 0 1-2.025 1.911 5 5 0 0 1-.95.47q-.442.156-.756.167a1 1 0 0 1-.291-.054.8.8 0 0 1-.319-.188.94.94 0 0 1-.232-.357 1.2 1.2 0 0 1-.054-.556 1.9 1.9 0 0 1 .173-.637q.129-.259.297-.416a1 1 0 0 1 .69-.28.4.4 0 0 1 .233.07q.086.065.065.162-.195.356-.27.572t-.065.318.092.125q.08.02.2-.011a2.4 2.4 0 0 0 .777-.383q.4-.287.788-.686.39-.4.734-.875.345-.474.61-.944t.427-.891.173-.724a.8.8 0 0 0-.033-.226.35.35 0 0 0-.124-.178.45.45 0 0 0-.248-.081 1.1 1.1 0 0 0-.384.053 3.8 3.8 0 0 0-.847.41 7.3 7.3 0 0 0-.972.735q-.502.443-.999 1.02-.495.578-.928 1.258-.648 1.307-1.134 2.575a26 26 0 0 0-.788 2.37 14 14 0 0 0-.41 1.97q-.109.87-.011 1.378"/><g filter="url(#d)"><path fill="url(#e)" d="M20.92 39.454q-1.312 0-2.267-.546a3.7 3.7 0 0 1-1.46-1.557q-.51-1.011-.511-2.38 0-1.347.511-2.364a3.87 3.87 0 0 1 1.443-1.591q.926-.574 2.177-.574.806 0 1.522.261.722.255 1.273.796.557.54.875 1.375.318.83.318 1.977v.63h-7.153v-1.386h5.182a2.2 2.2 0 0 0-.256-1.05 1.86 1.86 0 0 0-.699-.734 1.97 1.97 0 0 0-1.034-.267q-.63 0-1.108.307-.477.301-.744.796a2.3 2.3 0 0 0-.267 1.074v1.21q0 .76.278 1.307.279.54.778.83.501.283 1.17.283.45 0 .813-.125.364-.13.631-.38t.404-.62l1.92.216q-.181.761-.693 1.33a3.4 3.4 0 0 1-1.296.875q-.789.306-1.806.306m10.431-5.864v1.693h-5.239V33.59zm2.847-5.943 3.028 9.159h.12l3.022-9.16h2.318l-4.102 11.637h-2.602l-4.097-11.636zm12.32 11.807q-1.28 0-2.217-.563a3.8 3.8 0 0 1-1.454-1.574q-.511-1.011-.511-2.364 0-1.351.51-2.369a3.8 3.8 0 0 1 1.456-1.58q.937-.561 2.215-.562 1.279 0 2.216.563a3.8 3.8 0 0 1 1.45 1.58q.516 1.016.516 2.368 0 1.353-.517 2.364a3.8 3.8 0 0 1-1.449 1.574q-.937.563-2.216.563m.01-1.648q.695 0 1.16-.38.465-.388.693-1.035a4.2 4.2 0 0 0 .233-1.443q0-.8-.233-1.45-.227-.652-.693-1.039t-1.16-.386q-.71 0-1.181.386-.466.387-.699 1.04a4.4 4.4 0 0 0-.227 1.449q0 .795.227 1.443.233.648.699 1.034.471.38 1.182.38m11-2.193v-5.057h2.056v8.727H57.59V37.73h-.091q-.295.733-.972 1.199-.67.465-1.653.466-.858 0-1.517-.381a2.65 2.65 0 0 1-1.023-1.12q-.37-.738-.37-1.783v-5.557h2.058v5.238q0 .83.454 1.319.454.488 1.194.488.453 0 .88-.221a1.8 1.8 0 0 0 .699-.66q.279-.443.278-1.107m7.498 3.84q-1.307 0-2.244-.573a3.83 3.83 0 0 1-1.438-1.586q-.5-1.017-.5-2.34 0-1.331.512-2.347a3.8 3.8 0 0 1 1.443-1.591q.937-.574 2.216-.574 1.062 0 1.88.392.825.387 1.313 1.097.488.705.557 1.647h-1.966a1.88 1.88 0 0 0-.568-1.05q-.444-.427-1.188-.427-.63 0-1.108.341-.477.336-.744.966-.261.63-.262 1.511 0 .892.262 1.535.26.636.733.982.477.342 1.12.341.453 0 .812-.17.363-.176.608-.506.243-.33.335-.8h1.966a3.4 3.4 0 0 1-.546 1.641 3.23 3.23 0 0 1-1.284 1.114q-.812.398-1.909.398m7.005-5.284v5.114h-2.057V27.647h2.011v4.392h.102q.307-.74.95-1.165.646-.432 1.647-.432.909 0 1.585.38.676.382 1.046 1.114.375.735.375 1.79v5.557h-2.057v-5.239q0-.88-.455-1.369-.449-.495-1.261-.494-.546 0-.977.238a1.67 1.67 0 0 0-.67.677q-.24.443-.24 1.073m11.139 5.285q-1.312 0-2.267-.546a3.7 3.7 0 0 1-1.46-1.557q-.512-1.011-.512-2.38 0-1.347.512-2.364a3.87 3.87 0 0 1 1.443-1.591q.926-.574 2.176-.574.806 0 1.523.261.72.255 1.272.796.557.54.875 1.375.32.83.319 1.977v.63h-7.154v-1.386h5.182a2.2 2.2 0 0 0-.256-1.05 1.86 1.86 0 0 0-.699-.734 1.97 1.97 0 0 0-1.034-.267q-.63 0-1.108.307-.477.301-.744.796a2.3 2.3 0 0 0-.267 1.074v1.21q0 .76.278 1.307.28.54.779.83.5.283 1.17.283.45 0 .813-.125.363-.13.63-.38t.404-.62l1.92.216q-.18.761-.693 1.33a3.4 3.4 0 0 1-1.295.875q-.791.306-1.807.306m5.14-.171v-8.727h1.995v1.454h.09q.24-.755.819-1.164.585-.415 1.335-.415.17 0 .38.017.217.01.359.04v1.892a2 2 0 0 0-.415-.08 4 4 0 0 0-.54-.04 2.1 2.1 0 0 0-1.011.245q-.444.238-.699.664-.256.427-.256.983v5.131zm12.762-6.42-1.875.204a1.5 1.5 0 0 0-.278-.534 1.4 1.4 0 0 0-.523-.403q-.33-.154-.807-.154-.642 0-1.08.279-.431.278-.426.721a.76.76 0 0 0 .279.62q.29.239.954.392l1.489.318q1.238.267 1.841.846.608.58.614 1.517a2.38 2.38 0 0 1-.483 1.455q-.472.625-1.313.977-.84.352-1.932.352-1.602 0-2.58-.67-.976-.676-1.164-1.88l2.006-.194q.136.59.58.892.443.301 1.153.301.732 0 1.176-.3.449-.303.449-.745a.78.78 0 0 0-.29-.62q-.285-.243-.886-.374l-1.49-.313q-1.255-.261-1.857-.88-.602-.626-.597-1.58-.006-.807.438-1.398.449-.596 1.244-.92.801-.33 1.847-.33 1.533 0 2.414.654.887.652 1.097 1.767"/></g><defs><linearGradient id="a" x1="55.673" x2="55.673" y1="48.373" y2="7.359" gradientUnits="userSpaceOnUse"><stop stop-color="#033e93"/><stop offset="1" stop-color="#045cda"/></linearGradient><linearGradient id="b" x1="49.173" x2="49.173" y1="62.171" y2="24.311" gradientUnits="userSpaceOnUse"><stop stop-color="#011e47" stop-opacity=".35"/><stop offset="1" stop-color="#011e47" stop-opacity="0"/></linearGradient><linearGradient id="c" x1="73.938" x2="73.938" y1="-3.498" y2="35.704" gradientUnits="userSpaceOnUse"><stop stop-color="#66a4fc"/><stop offset=".48" stop-color="#66a4fc" stop-opacity=".235"/><stop offset="1" stop-color="#66a4fc" stop-opacity="0"/></linearGradient><linearGradient id="e" x1="59.186" x2="59.043" y1="30.495" y2="41.284" gradientUnits="userSpaceOnUse"><stop stop-color="#fffefc"/><stop offset=".253" stop-color="#fef1c8"/><stop offset="1" stop-color="#eac65b"/></linearGradient><filter id="d" width="85.882" height="13.111" x="16.356" y="27.647" color-interpolation-filters="sRGB" filterUnits="userSpaceOnUse"><feFlood flood-opacity="0" result="BackgroundImageFix"/><feColorMatrix in="SourceAlpha" result="hardAlpha" values="0 0 0 0 0 0 0 0 0 0 0 0 0 0 0 0 0 0 127 0"/><feOffset dx=".326" dy=".652"/><feGaussianBlur stdDeviation=".326"/><feComposite in2="hardAlpha" operator="out"/><feColorMatrix values="0 0 0 0 0 0 0 0 0 0 0 0 0 0 0 0 0 0 0.25 0"/><feBlend in2="BackgroundImageFix" result="effect1_dropShadow_624_1077"/><feBlend in="SourceGraphic" in2="effect1_dropShadow_624_1077" result="shape"/></filter></defs></svg>