<svg width="118" height="52" viewBox="0 0 118 52" fill="none" xmlns="http://www.w3.org/2000/svg">
<path fill-rule="evenodd" clip-rule="evenodd" d="M0 33.1202V46.5053C0 47.9558 0.573888 49.3474 1.60166 50.3732C2.62619 51.399 4.01707 51.9755 5.46957 51.9755H111.956C113.407 51.9755 114.799 51.399 115.824 50.3732C116.85 49.3474 117.427 47.9558 117.427 46.5053V33.1559C113.47 33.1559 110.258 29.9439 110.258 25.9877C110.258 22.0313 113.47 18.8193 117.427 18.8193V5.47022C117.427 4.01934 116.85 2.62811 115.824 1.60196C114.799 0.57613 113.407 0 111.956 0H5.46957C4.01707 0 2.62619 0.57613 1.60166 1.60196C0.573888 2.62811 0 4.01934 0 5.47022V18.8549C0.233438 18.8316 0.473389 18.8193 0.716553 18.8193C4.67202 18.8193 7.885 22.0313 7.885 25.9877C7.885 29.9439 4.67202 33.1559 0.716553 33.1559C0.473389 33.1559 0.233438 33.1439 0 33.1202Z" fill="url(#paint0_linear_624_1077)"/>
<path fill-rule="evenodd" clip-rule="evenodd" d="M0 33.1202C0.233438 33.1439 0.473389 33.1559 0.716553 33.1559C4.67202 33.1559 7.885 29.9439 7.885 25.9877C7.885 22.0313 4.67202 18.8193 0.716553 18.8193C0.473389 18.8193 0.233438 18.8316 0 18.8549V5.47022C0 4.01934 0.573888 2.62811 1.60166 1.60196C2.62619 0.57613 4.01707 0 5.46957 0H111.956C113.407 0 114.799 0.57613 115.824 1.60196C116.85 2.62811 117.427 4.01934 117.427 5.47022V18.8193C113.47 18.8193 110.258 22.0313 110.258 25.9877C110.258 29.9439 113.47 33.1559 117.427 33.1559V46.5053C117.427 47.9558 116.85 49.3474 115.824 50.3732C114.799 51.399 113.407 51.9755 111.956 51.9755H5.46957C4.01707 51.9755 2.62619 51.399 1.60166 50.3732C0.573888 49.3474 0 47.9558 0 46.5053V33.1202ZM1.28714 17.55C5.68679 17.844 9.17216 21.5122 9.17216 25.9877C9.17216 30.4633 5.68679 34.1315 1.28714 34.4255V46.5053C1.28714 47.6141 1.72809 48.6779 2.5127 49.4622C3.2973 50.2464 4.36075 50.6867 5.46957 50.6867H111.956C113.065 50.6867 114.129 50.2464 114.913 49.4622C115.697 48.6779 116.138 47.6141 116.138 46.5053V34.3468C112.081 33.7256 108.97 30.2172 108.97 25.9877C108.97 21.7583 112.081 18.25 116.138 17.6284V5.47022C116.138 4.36107 115.697 3.29731 114.913 2.51335C114.129 1.72906 113.065 1.28844 111.956 1.28844H5.46957C4.36075 1.28844 3.2973 1.72906 2.5127 2.51335C1.72809 3.29731 1.28714 4.36107 1.28714 5.47022V17.55Z" fill="url(#paint1_linear_624_1077)"/>
<path fill-rule="evenodd" clip-rule="evenodd" d="M0 33.1202C0.233438 33.1439 0.473389 33.1559 0.716553 33.1559C4.67202 33.1559 7.885 29.9439 7.885 25.9877C7.885 22.0313 4.67202 18.8193 0.716553 18.8193C0.473389 18.8193 0.233438 18.8316 0 18.8549V5.47022C0 4.01934 0.573888 2.62811 1.60166 1.60196C2.62619 0.57613 4.01707 0 5.46957 0H111.956C113.407 0 114.799 0.57613 115.824 1.60196C116.85 2.62811 117.427 4.01934 117.427 5.47022V18.8193C113.47 18.8193 110.258 22.0313 110.258 25.9877C110.258 29.9439 113.47 33.1559 117.427 33.1559V46.5053C117.427 47.9558 116.85 49.3474 115.824 50.3732C114.799 51.399 113.407 51.9755 111.956 51.9755H5.46957C4.01707 51.9755 2.62619 51.399 1.60166 50.3732C0.573888 49.3474 0 47.9558 0 46.5053V33.1202ZM1.46872 17.3804C5.88458 17.763 9.35372 21.4733 9.35372 25.9877C9.35372 30.5018 5.88458 34.2122 1.46872 34.5948V46.5053C1.46872 47.5658 1.89021 48.5829 2.6424 49.3328C3.39134 50.0827 4.40938 50.5039 5.46957 50.5039H111.956C113.017 50.5039 114.034 50.0827 114.784 49.3328C115.534 48.5829 115.955 47.5658 115.955 46.5053V34.5024C111.887 33.803 108.787 30.2545 108.787 25.9877C108.787 21.7207 111.887 18.1721 115.955 17.4731V5.47022C115.955 4.4097 115.534 3.39263 114.784 2.64271C114.034 1.89279 113.017 1.47131 111.956 1.47131H5.46957C4.40938 1.47131 3.39134 1.89279 2.6424 2.64271C1.89021 3.39263 1.46872 4.4097 1.46872 5.47022V17.3804Z" fill="url(#paint2_linear_624_1077)"/>
<path fill-rule="evenodd" clip-rule="evenodd" d="M47.917 18.5255C46.7386 18.5706 45.6514 19.1694 44.8356 20.1976C44.2011 20.9884 43.7476 22.0056 43.5663 23.1016C43.4756 22.0056 43.0226 20.9884 42.3881 20.1976C41.5723 19.1694 40.4842 18.5706 39.3059 18.5255C40.4842 18.4803 41.5723 17.8931 42.3881 16.8649C43.0226 16.0628 43.4756 15.0456 43.5663 13.9609C43.7476 15.0456 44.2011 16.0628 44.8356 16.8649C45.6514 17.8931 46.7386 18.4803 47.917 18.5255Z" fill="#BFDEFE"/>
<path fill-rule="evenodd" clip-rule="evenodd" d="M52.0471 16.0411C51.4084 16.0656 50.8192 16.3902 50.377 16.9475C50.0331 17.3761 49.7872 17.9275 49.689 18.5215C49.6398 17.9275 49.3943 17.3761 49.0504 16.9475C48.6082 16.3902 48.0184 16.0656 47.3798 16.0411C48.0184 16.0167 48.6082 15.6984 49.0504 15.1411C49.3943 14.7063 49.6398 14.155 49.689 13.5671C49.7872 14.155 50.0331 14.7063 50.377 15.1411C50.8192 15.6984 51.4084 16.0167 52.0471 16.0411Z" fill="#BFDEFE"/>
<path d="M27.2374 13.2339C27.4175 13.162 27.6225 13.1384 27.8531 13.1638C28.0834 13.1889 28.2865 13.2376 28.463 13.3094C28.6394 13.3816 28.7618 13.4679 28.83 13.5688C28.8985 13.6694 28.8606 13.763 28.7168 13.8493C28.6089 13.9141 28.4055 14.112 28.1066 14.4432C27.8078 14.7745 27.4481 15.199 27.0269 15.7175C26.6058 16.2356 26.1451 16.8296 25.6447 17.4988C25.1447 18.1683 24.6424 18.8737 24.1387 19.6151C23.6349 20.3565 23.1452 21.1141 22.6702 21.8879C22.1952 22.6618 21.7722 23.4105 21.4015 24.1339C21.0308 24.8572 20.7338 25.5375 20.5109 26.1746C20.2876 26.8114 20.1726 27.3641 20.1652 27.8317C20.1652 28.0333 20.0934 28.1468 19.9493 28.1719C19.8052 28.1972 19.6541 28.1504 19.4957 28.0318C19.3376 27.9128 19.199 27.7293 19.08 27.4809C18.9614 27.2325 18.9271 26.9356 18.9776 26.5902C19.0568 26.036 19.2259 25.424 19.485 24.7548C19.7441 24.0852 20.0609 23.3906 20.4353 22.6706C20.8094 21.9509 21.2253 21.2239 21.6823 20.4898C22.1393 19.7555 22.6036 19.0446 23.0752 18.3574C23.5465 17.6698 24.0127 17.022 24.4733 16.4136C24.9339 15.8056 25.3533 15.2728 25.7313 14.8158C26.109 14.3585 26.433 13.9897 26.703 13.7092C26.9731 13.4284 27.1511 13.27 27.2374 13.2339ZM36.5665 11.1393C36.7607 11.1607 36.9228 11.24 37.0522 11.3767C37.1819 11.5137 37.2611 11.6541 37.2898 11.7979C37.3186 11.9419 37.2843 12.0624 37.1871 12.1597C37.0901 12.2566 36.9118 12.2839 36.6527 12.2407C36.5879 12.2261 36.3683 12.2028 35.9942 12.1704C35.6198 12.138 35.1268 12.1147 34.5147 12.1004C33.903 12.086 33.1904 12.0948 32.3771 12.1273C31.5635 12.1597 30.6854 12.2352 29.7424 12.3539C28.7994 12.4729 27.8078 12.6472 26.7679 12.8775C25.7276 13.1078 24.6767 13.4174 23.615 13.8061C22.5534 14.1949 21.4988 14.6717 20.4515 15.237C19.4039 15.8019 18.398 16.4803 17.4336 17.2722C17.2825 17.3945 17.1727 17.5098 17.1042 17.6178C17.036 17.7258 16.9873 17.8209 16.9586 17.9038C16.9298 17.9867 16.9151 18.053 16.9151 18.1035C16.9151 18.154 16.9118 18.179 16.9044 18.179C16.8182 18.2078 16.7102 18.2096 16.5805 18.1845C16.4511 18.1592 16.334 18.0928 16.2297 17.9848C16.1254 17.8768 16.0551 17.7203 16.019 17.515C15.9832 17.3098 16.019 17.0419 16.1269 16.7106C16.1847 16.5234 16.3557 16.2824 16.6399 15.9872C16.9243 15.6921 17.3112 15.3663 17.8006 15.01C18.29 14.6537 18.8821 14.2866 19.5768 13.9089C20.2714 13.5309 21.0596 13.1675 21.9414 12.8182C22.8232 12.4692 23.7949 12.1505 24.8565 11.8627C25.9185 11.5749 27.0612 11.3479 28.2849 11.1825C29.5084 11.017 30.8132 10.9234 32.1988 10.9017C33.5846 10.8803 35.0402 10.9592 36.5665 11.1393Z" fill="#BFDEFE"/>
<path d="M29.7535 20.209C29.8902 20.1154 30.0593 20.0741 30.2609 20.0848C30.4625 20.0955 30.646 20.1423 30.8114 20.2252C30.9769 20.3078 31.1029 20.4176 31.1895 20.5543C31.2757 20.6914 31.2757 20.8318 31.1895 20.9755C31.1604 21.0186 31.1103 21.0979 31.0381 21.2132C30.9662 21.3282 30.8818 21.4615 30.7845 21.6126C30.6873 21.7637 30.59 21.924 30.493 22.0931C30.3958 22.2623 30.3129 22.417 30.2447 22.5574C30.1762 22.6978 30.1275 22.8165 30.0988 22.9138C30.07 23.0107 30.0774 23.0667 30.1205 23.0811C30.2716 23.1242 30.4481 23.1135 30.6496 23.0486C30.8512 22.9838 31.058 22.8813 31.2702 22.741C31.4828 22.6006 31.6896 22.4314 31.8911 22.2335C32.0927 22.0356 32.2692 21.8249 32.4203 21.6019C32.4851 21.5083 32.5625 21.4704 32.6524 21.4884C32.7424 21.5065 32.8197 21.557 32.8846 21.6395C32.9494 21.7224 32.9925 21.8286 33.0143 21.9582C33.0357 22.0876 33.0106 22.2173 32.9384 22.3467C32.8304 22.5412 32.6561 22.759 32.4148 23C32.1738 23.2413 31.8966 23.4573 31.5834 23.6478C31.2702 23.8387 30.932 23.9791 30.5686 24.069C30.2049 24.1589 29.8504 24.1464 29.5051 24.0311C29.3537 23.9809 29.217 23.9054 29.0946 23.8044C28.8931 24.0347 28.679 24.258 28.4523 24.474C28.2254 24.6899 27.9932 24.8841 27.7559 25.0569C27.5182 25.2297 27.2735 25.372 27.0215 25.4833C26.7698 25.595 26.5141 25.6653 26.255 25.694C26.1688 25.7011 26.059 25.7066 25.9256 25.7103C25.7926 25.7139 25.6503 25.6992 25.4992 25.6671C25.3481 25.6347 25.1986 25.5787 25.0511 25.4995C24.9034 25.4206 24.774 25.3053 24.6624 25.1542C24.5508 25.0031 24.4663 24.8067 24.4085 24.5657C24.351 24.3244 24.3367 24.024 24.3654 23.664C24.3871 23.3689 24.47 23.0324 24.6138 22.6547C24.7578 22.2766 24.9487 21.8897 25.186 21.4939C25.4237 21.0979 25.699 20.7091 26.0122 20.3277C26.3251 19.9463 26.6652 19.6043 27.0325 19.3021C27.3996 18.9996 27.7865 18.7513 28.1933 18.5571C28.5998 18.3625 29.0154 18.2546 29.4403 18.2332C29.7354 18.2188 29.989 18.2365 30.2016 18.287C30.4138 18.3375 30.5885 18.406 30.7252 18.4922C30.8619 18.5785 30.9644 18.6794 31.0329 18.7944C31.1011 18.9097 31.139 19.0247 31.1461 19.14C31.1534 19.2697 31.1335 19.3921 31.0867 19.5071C31.0399 19.6224 30.9806 19.7193 30.9087 19.7986C30.8365 19.8778 30.7628 19.9282 30.6873 19.95C30.6117 19.9714 30.5524 19.9533 30.5093 19.8958C30.3652 19.7016 30.1817 19.5738 29.9584 19.5126C29.7354 19.4514 29.5085 19.4496 29.2782 19.5071C28.8824 19.608 28.5172 19.768 28.1823 19.9876C27.8476 20.2072 27.5451 20.4574 27.2754 20.7382C27.0053 21.0186 26.7661 21.3138 26.5572 21.6233C26.3486 21.9329 26.174 22.2317 26.0336 22.5195C25.8932 22.8076 25.7834 23.0667 25.7045 23.297C25.6253 23.5273 25.5821 23.7038 25.5748 23.8261C25.5604 23.999 25.5766 24.139 25.6234 24.247C25.6702 24.355 25.7314 24.4397 25.8069 24.5009C25.8825 24.562 25.9635 24.6033 26.0498 24.6251C26.1363 24.6468 26.2119 24.6575 26.2767 24.6575C26.4422 24.6501 26.6239 24.5908 26.8218 24.4792C27.0197 24.3678 27.2212 24.2201 27.4265 24.0366C27.6317 23.8531 27.8385 23.646 28.0474 23.4157C28.256 23.1854 28.4575 22.9514 28.6521 22.714C28.6377 22.4908 28.6539 22.2568 28.7007 22.0121C28.7475 21.7674 28.8194 21.5316 28.9166 21.3049C29.0136 21.0783 29.1326 20.8694 29.273 20.6785C29.4134 20.488 29.5733 20.3314 29.7535 20.209Z" fill="#BFDEFE"/>
<path d="M30.9517 31.2645C30.9734 31.4878 30.9624 31.6588 30.9192 31.7775C30.8761 31.8961 30.8131 31.9753 30.7302 32.0151C30.6476 32.0546 30.5522 32.0601 30.4442 32.0313C30.3363 32.0022 30.232 31.9503 30.131 31.8747C30.0304 31.7992 29.9387 31.7074 29.8558 31.5994C29.7729 31.4915 29.7172 31.3761 29.6885 31.2538C29.5732 30.8146 29.5426 30.302 29.5967 29.715C29.6505 29.1284 29.7658 28.5023 29.942 27.8364C30.1185 27.1706 30.3399 26.4833 30.606 25.7743C30.8725 25.065 31.1621 24.3689 31.4753 23.685C31.7885 23.0011 32.1106 22.3477 32.4418 21.7253C32.7728 21.1026 33.0878 20.5483 33.3863 20.0623C33.6852 19.5766 33.9568 19.1753 34.2018 18.8584C34.4464 18.5419 34.637 18.3437 34.774 18.2648C34.99 18.1351 35.1897 18.0666 35.3732 18.0595C35.5567 18.0522 35.7008 18.0828 35.8051 18.1513C35.9094 18.2198 35.965 18.3186 35.9724 18.4483C35.9797 18.5777 35.9219 18.7181 35.7996 18.8692L35.249 19.6252C35.4145 19.4524 35.5855 19.2867 35.762 19.1285C35.9381 18.9701 36.1165 18.8297 36.2963 18.7074C36.4762 18.585 36.6526 18.4807 36.8254 18.3941C36.9983 18.3079 37.1674 18.2504 37.3329 18.2213C37.6855 18.1568 37.977 18.1657 38.2073 18.2486C38.4376 18.3312 38.616 18.4572 38.742 18.6263C38.868 18.7954 38.9472 18.9918 38.9793 19.2148C39.0117 19.4381 39.0065 19.6574 38.9631 19.8733C38.8264 20.5502 38.6322 21.1637 38.3801 21.7143C38.1281 22.2651 37.8458 22.7564 37.5326 23.1882C37.2194 23.6201 36.8884 23.9945 36.5392 24.3111C36.1902 24.6279 35.8464 24.8907 35.5081 25.0993C35.1698 25.3082 34.8529 25.4648 34.5581 25.5691C34.2629 25.6734 34.0109 25.729 33.802 25.7364C33.7231 25.7364 33.6258 25.7183 33.5105 25.6822C33.3955 25.6464 33.2894 25.5834 33.1921 25.4935C33.0948 25.4036 33.0175 25.2846 32.96 25.1372C32.9025 24.9895 32.8844 24.8041 32.9058 24.5811C32.9349 24.3291 32.9924 24.1168 33.0786 23.944C33.1652 23.7712 33.264 23.6326 33.3756 23.5283C33.4873 23.424 33.6059 23.35 33.732 23.3069C33.858 23.2638 33.9696 23.2439 34.0666 23.2476C34.1638 23.2512 34.2412 23.2745 34.2987 23.3179C34.3565 23.361 34.3779 23.4149 34.3636 23.4797C34.2342 23.7174 34.1439 23.9079 34.0938 24.052C34.0433 24.1961 34.0216 24.3022 34.0289 24.3704C34.036 24.4389 34.0666 24.4802 34.1207 24.4946C34.1745 24.5089 34.2412 24.5056 34.3204 24.4839C34.5725 24.419 34.8315 24.2915 35.0979 24.1006C35.364 23.9098 35.6268 23.6813 35.8861 23.4149C36.1452 23.1485 36.3899 22.857 36.6202 22.5404C36.8505 22.2235 37.0539 21.9088 37.2304 21.5956C37.4066 21.2824 37.5488 20.9854 37.6568 20.705C37.7647 20.4242 37.8222 20.1828 37.8296 19.9813C37.8296 19.9024 37.8189 19.8265 37.7972 19.7546C37.7754 19.6827 37.7342 19.6234 37.673 19.5766C37.6118 19.5298 37.5289 19.5026 37.4246 19.4956C37.3203 19.4882 37.1925 19.5063 37.0414 19.5494C36.7893 19.6286 36.5067 19.7653 36.1938 19.9599C35.8806 20.1541 35.5567 20.3988 35.2221 20.6939C34.8872 20.9891 34.5544 21.3292 34.2232 21.7143C33.8922 22.0994 33.5827 22.5187 33.2946 22.9723C32.8627 23.8434 32.485 24.7016 32.161 25.5473C31.8371 26.3931 31.5744 27.1831 31.3728 27.9175C31.1713 28.6515 31.0346 29.3085 30.9624 29.8878C30.8905 30.4674 30.8868 30.9262 30.9517 31.2645Z" fill="#BFDEFE"/>
<g filter="url(#filter0_d_624_1077)">
<path d="M20.9205 39.4535C20.0455 39.4535 19.2898 39.2717 18.6534 38.908C18.0208 38.5406 17.5341 38.0217 17.1932 37.3512C16.8523 36.677 16.6818 35.8834 16.6818 34.9705C16.6818 34.0728 16.8523 33.2849 17.1932 32.6069C17.5379 31.9251 18.0189 31.3948 18.6364 31.016C19.2538 30.6334 19.9792 30.4421 20.8125 30.4421C21.3504 30.4421 21.858 30.5292 22.3352 30.7035C22.8163 30.8739 23.2405 31.1391 23.608 31.4989C23.9792 31.8588 24.2708 32.3171 24.483 32.8739C24.6951 33.427 24.8011 34.0861 24.8011 34.8512V35.4819H17.6477V34.0955H22.8295C22.8258 33.7016 22.7405 33.3512 22.5739 33.0444C22.4072 32.7338 22.1742 32.4895 21.875 32.3114C21.5795 32.1334 21.2348 32.0444 20.8409 32.0444C20.4205 32.0444 20.0511 32.1467 19.733 32.3512C19.4148 32.552 19.1667 32.8171 18.9886 33.1467C18.8144 33.4724 18.7254 33.8304 18.7216 34.2205V35.4307C18.7216 35.9383 18.8144 36.3739 19 36.7376C19.1856 37.0974 19.4451 37.3739 19.7784 37.5671C20.1117 37.7565 20.5019 37.8512 20.9489 37.8512C21.2481 37.8512 21.5189 37.8095 21.7614 37.7262C22.0038 37.6391 22.214 37.5122 22.392 37.3455C22.5701 37.1789 22.7045 36.9724 22.7955 36.7262L24.7159 36.9421C24.5947 37.4497 24.3636 37.8929 24.0227 38.2717C23.6856 38.6467 23.2538 38.9383 22.7273 39.1467C22.2008 39.3512 21.5985 39.4535 20.9205 39.4535ZM31.351 33.5898V35.283H26.1123V33.5898H31.351ZM34.1977 27.6467L37.2261 36.8057H37.3454L40.3681 27.6467H42.6863L38.584 39.283H35.9818L31.8852 27.6467H34.1977ZM46.5174 39.4535C45.6651 39.4535 44.9265 39.266 44.3015 38.891C43.6765 38.516 43.1916 37.9914 42.8469 37.3171C42.506 36.6429 42.3356 35.855 42.3356 34.9535C42.3356 34.052 42.506 33.2622 42.8469 32.5842C43.1916 31.9061 43.6765 31.3796 44.3015 31.0046C44.9265 30.6296 45.6651 30.4421 46.5174 30.4421C47.3697 30.4421 48.1083 30.6296 48.7333 31.0046C49.3583 31.3796 49.8412 31.9061 50.1822 32.5842C50.5269 33.2622 50.6992 34.052 50.6992 34.9535C50.6992 35.855 50.5269 36.6429 50.1822 37.3171C49.8412 37.9914 49.3583 38.516 48.7333 38.891C48.1083 39.266 47.3697 39.4535 46.5174 39.4535ZM46.5287 37.8057C46.9909 37.8057 47.3772 37.6789 47.6878 37.4251C47.9984 37.1675 48.2295 36.8228 48.381 36.391C48.5363 35.9592 48.614 35.4781 48.614 34.9478C48.614 34.4137 48.5363 33.9307 48.381 33.4989C48.2295 33.0633 47.9984 32.7167 47.6878 32.4592C47.3772 32.2016 46.9909 32.0728 46.5287 32.0728C46.0553 32.0728 45.6613 32.2016 45.3469 32.4592C45.0363 32.7167 44.8034 33.0633 44.6481 33.4989C44.4966 33.9307 44.4208 34.4137 44.4208 34.9478C44.4208 35.4781 44.4966 35.9592 44.6481 36.391C44.8034 36.8228 45.0363 37.1675 45.3469 37.4251C45.6613 37.6789 46.0553 37.8057 46.5287 37.8057ZM57.5274 35.6126V30.5557H59.5843V39.283H57.5899V37.7319H57.499C57.3021 38.2205 56.9782 38.6201 56.5274 38.9307C56.0805 39.2414 55.5293 39.3967 54.874 39.3967C54.3021 39.3967 53.7964 39.2698 53.357 39.016C52.9214 38.7584 52.5805 38.3853 52.3343 37.8967C52.0881 37.4042 51.9649 36.8095 51.9649 36.1126V30.5557H54.0218V35.7944C54.0218 36.3474 54.1733 36.7868 54.4763 37.1126C54.7793 37.4383 55.1771 37.6012 55.6695 37.6012C55.9725 37.6012 56.2661 37.5273 56.5502 37.3796C56.8343 37.2319 57.0672 37.0122 57.249 36.7205C57.4346 36.4251 57.5274 36.0557 57.5274 35.6126ZM65.0261 39.4535C64.1549 39.4535 63.4068 39.2622 62.7818 38.8796C62.1606 38.497 61.6814 37.9686 61.3443 37.2944C61.011 36.6164 60.8443 35.8361 60.8443 34.9535C60.8443 34.0671 61.0148 33.2849 61.3557 32.6069C61.6966 31.9251 62.1777 31.3948 62.7989 31.016C63.4239 30.6334 64.1625 30.4421 65.0148 30.4421C65.7231 30.4421 66.35 30.5728 66.8955 30.8342C67.4447 31.0917 67.8822 31.4573 68.208 31.9307C68.5337 32.4004 68.7193 32.9497 68.7648 33.5785H66.7989C66.7193 33.158 66.5299 32.8076 66.2307 32.5273C65.9352 32.2432 65.5394 32.1012 65.0432 32.1012C64.6227 32.1012 64.2534 32.2148 63.9352 32.4421C63.617 32.6656 63.3689 32.9876 63.1909 33.408C63.0167 33.8285 62.9295 34.3323 62.9295 34.9194C62.9295 35.5141 63.0167 36.0254 63.1909 36.4535C63.3652 36.8777 63.6095 37.2054 63.9239 37.4364C64.242 37.6637 64.6152 37.7773 65.0432 37.7773C65.3462 37.7773 65.617 37.7205 65.8557 37.6069C66.0981 37.4895 66.3008 37.3209 66.4636 37.1012C66.6265 36.8815 66.7383 36.6145 66.7989 36.3001H68.7648C68.7155 36.9175 68.5337 37.4648 68.2193 37.9421C67.9049 38.4156 67.4769 38.7868 66.9352 39.0557C66.3936 39.3209 65.7572 39.4535 65.0261 39.4535ZM72.0305 34.1694V39.283H69.9737V27.6467H71.9851V32.0387H72.0873C72.2919 31.5463 72.6082 31.158 73.0362 30.8739C73.468 30.5861 74.0173 30.4421 74.6839 30.4421C75.29 30.4421 75.8184 30.569 76.2691 30.8228C76.7199 31.0766 77.0684 31.4478 77.3146 31.9364C77.5646 32.4251 77.6896 33.0217 77.6896 33.7262V39.283H75.6328V34.0444C75.6328 33.4573 75.4813 33.0008 75.1782 32.6751C74.879 32.3455 74.4585 32.1807 73.9169 32.1807C73.5532 32.1807 73.2275 32.2603 72.9396 32.4194C72.6555 32.5747 72.432 32.8001 72.2691 33.0955C72.1101 33.391 72.0305 33.7489 72.0305 34.1694ZM83.1698 39.4535C82.2948 39.4535 81.5391 39.2717 80.9028 38.908C80.2702 38.5406 79.7835 38.0217 79.4426 37.3512C79.1016 36.677 78.9312 35.8834 78.9312 34.9705C78.9312 34.0728 79.1016 33.2849 79.4426 32.6069C79.7873 31.9251 80.2683 31.3948 80.8857 31.016C81.5032 30.6334 82.2285 30.4421 83.0619 30.4421C83.5998 30.4421 84.1073 30.5292 84.5846 30.7035C85.0657 30.8739 85.4899 31.1391 85.8573 31.4989C86.2285 31.8588 86.5202 32.3171 86.7323 32.8739C86.9445 33.427 87.0505 34.0861 87.0505 34.8512V35.4819H79.8971V34.0955H85.0789C85.0751 33.7016 84.9899 33.3512 84.8232 33.0444C84.6566 32.7338 84.4236 32.4895 84.1244 32.3114C83.8289 32.1334 83.4842 32.0444 83.0903 32.0444C82.6698 32.0444 82.3005 32.1467 81.9823 32.3512C81.6641 32.552 81.416 32.8171 81.238 33.1467C81.0638 33.4724 80.9748 33.8304 80.971 34.2205V35.4307C80.971 35.9383 81.0638 36.3739 81.2494 36.7376C81.435 37.0974 81.6945 37.3739 82.0278 37.5671C82.3611 37.7565 82.7513 37.8512 83.1982 37.8512C83.4975 37.8512 83.7683 37.8095 84.0107 37.7262C84.2532 37.6391 84.4634 37.5122 84.6414 37.3455C84.8195 37.1789 84.9539 36.9724 85.0448 36.7262L86.9653 36.9421C86.8441 37.4497 86.613 37.8929 86.2721 38.2717C85.935 38.6467 85.5032 38.9383 84.9766 39.1467C84.4501 39.3512 83.8479 39.4535 83.1698 39.4535ZM88.3106 39.283V30.5557H90.3049V32.0103H90.3958C90.5549 31.5065 90.8276 31.1182 91.214 30.8455C91.6041 30.569 92.0492 30.4307 92.5492 30.4307C92.6628 30.4307 92.7897 30.4364 92.9299 30.4478C93.0738 30.4554 93.1931 30.4686 93.2878 30.4876V32.3796C93.2007 32.3493 93.0625 32.3228 92.8731 32.3001C92.6875 32.2736 92.5075 32.2603 92.3333 32.2603C91.9583 32.2603 91.6212 32.3417 91.3219 32.5046C91.0265 32.6637 90.7935 32.8853 90.6231 33.1694C90.4526 33.4535 90.3674 33.7811 90.3674 34.1523V39.283H88.3106ZM101.072 32.8626L99.197 33.0671C99.144 32.8777 99.0512 32.6997 98.9186 32.533C98.7898 32.3664 98.6156 32.2319 98.3959 32.1296C98.1762 32.0273 97.9073 31.9762 97.5891 31.9762C97.1611 31.9762 96.8012 32.069 96.5095 32.2546C96.2217 32.4402 96.0796 32.6807 96.0834 32.9762C96.0796 33.23 96.1724 33.4364 96.3618 33.5955C96.555 33.7546 96.8732 33.8853 97.3164 33.9876L98.805 34.3057C99.6308 34.4838 100.244 34.766 100.646 35.1523C101.051 35.5387 101.256 36.0444 101.26 36.6694C101.256 37.2186 101.095 37.7035 100.777 38.1239C100.462 38.5406 100.025 38.8664 99.4641 39.1012C98.9035 39.3361 98.2595 39.4535 97.5323 39.4535C96.4641 39.4535 95.6042 39.23 94.9527 38.783C94.3012 38.3323 93.913 37.7054 93.788 36.9023L95.7936 36.7092C95.8845 37.1031 96.0777 37.4004 96.3732 37.6012C96.6686 37.802 97.0531 37.9023 97.5266 37.9023C98.0152 37.9023 98.4073 37.802 98.7027 37.6012C99.002 37.4004 99.1516 37.1523 99.1516 36.8569C99.1516 36.6069 99.055 36.4004 98.8618 36.2376C98.6724 36.0747 98.377 35.9497 97.9755 35.8626L96.4868 35.5501C95.6497 35.3758 95.0304 35.0823 94.6289 34.6694C94.2273 34.2527 94.0285 33.7262 94.0323 33.0898C94.0285 32.552 94.1743 32.0861 94.4698 31.6921C94.769 31.2944 95.1838 30.9876 95.7141 30.7717C96.2482 30.552 96.8637 30.4421 97.5607 30.4421C98.5834 30.4421 99.3883 30.6599 99.9755 31.0955C100.566 31.5311 100.932 32.1201 101.072 32.8626Z" fill="url(#paint3_linear_624_1077)"/>
</g>
<defs>
<filter id="filter0_d_624_1077" x="16.3558" y="27.6467" width="85.8816" height="13.1107" filterUnits="userSpaceOnUse" color-interpolation-filters="sRGB">
<feFlood flood-opacity="0" result="BackgroundImageFix"/>
<feColorMatrix in="SourceAlpha" type="matrix" values="0 0 0 0 0 0 0 0 0 0 0 0 0 0 0 0 0 0 127 0" result="hardAlpha"/>
<feOffset dx="0.325967" dy="0.651934"/>
<feGaussianBlur stdDeviation="0.325967"/>
<feComposite in2="hardAlpha" operator="out"/>
<feColorMatrix type="matrix" values="0 0 0 0 0 0 0 0 0 0 0 0 0 0 0 0 0 0 0.25 0"/>
<feBlend mode="normal" in2="BackgroundImageFix" result="effect1_dropShadow_624_1077"/>
<feBlend mode="normal" in="SourceGraphic" in2="effect1_dropShadow_624_1077" result="shape"/>
</filter>
<linearGradient id="paint0_linear_624_1077" x1="55.6729" y1="48.3728" x2="55.6729" y2="7.35912" gradientUnits="userSpaceOnUse">
<stop stop-color="#033E93"/>
<stop offset="1" stop-color="#045CDA"/>
</linearGradient>
<linearGradient id="paint1_linear_624_1077" x1="49.1733" y1="62.1712" x2="49.1733" y2="24.3115" gradientUnits="userSpaceOnUse">
<stop stop-color="#011E47" stop-opacity="0.35"/>
<stop offset="1" stop-color="#011E47" stop-opacity="0"/>
</linearGradient>
<linearGradient id="paint2_linear_624_1077" x1="73.9384" y1="-3.49832" x2="73.9384" y2="35.7036" gradientUnits="userSpaceOnUse">
<stop stop-color="#66A4FC"/>
<stop offset="0.48" stop-color="#66A4FC" stop-opacity="0.235294"/>
<stop offset="1" stop-color="#66A4FC" stop-opacity="0"/>
</linearGradient>
<linearGradient id="paint3_linear_624_1077" x1="59.1861" y1="30.4946" x2="59.0426" y2="41.2836" gradientUnits="userSpaceOnUse">
<stop stop-color="#FFFEFC"/>
<stop offset="0.252525" stop-color="#FEF1C8"/>
<stop offset="1" stop-color="#EAC65B"/>
</linearGradient>
</defs>
</svg>
