<svg xmlns="http://www.w3.org/2000/svg" width="93" height="52" fill="none" viewBox="0 0 93 52"><path fill="#51a9a4" fill-rule="evenodd" d="M0 8a8 8 0 0 1 8-8h77a8 8 0 0 1 8 8v13.1a5.002 5.002 0 0 0 0 9.8V44a8 8 0 0 1-8 8H8a8 8 0 0 1-8-8V30.9a5.002 5.002 0 0 0 0-9.8z" clip-rule="evenodd"/><mask id="a" width="9" height="11" x="20" y="20" maskUnits="userSpaceOnUse" style="mask-type:alpha"><path fill="#fff" fill-rule="evenodd" d="M20 20.939h8.386v9.722H20z" clip-rule="evenodd"/></mask><g mask="url(#a)"><path fill="#fff" fill-rule="evenodd" d="M28.386 27.238q-.168 1.284-.783 2.1c-.708.895-1.602 1.361-2.832 1.322-1.566-.038-2.423-.622-3.43-1.633C20.485 28.172 20 26.811 20 25.8c0-.7.186-1.127.485-1.866.335-.778.708-1.167 1.192-1.672.932-.934 2.05-1.362 3.206-1.362q1.397 0 2.348.7c.484.39.745.856.745 1.4 0 .312-.112.545-.26.778-.187.195-.41.311-.672.311-.26 0-.484-.116-.67-.31-.187-.234-.299-.467-.299-.779 0-.31.15-.622.448-.972l.074-.194c0-.39-.559-.545-1.677-.584-1.156-.038-1.864.273-2.311.817-.522.622-.596 1.789-.596 3.422v1.05c0 1.167.037 2.061.298 2.645.335.739 1.118 1.166 2.273 1.166.932 0 1.715-.272 2.311-.816.597-.545.97-1.323 1.156-2.295z" clip-rule="evenodd"/></g><path fill="#fff" fill-rule="evenodd" d="M32.262 23.583c.112-.544.336-1.011.597-1.439.559-.816 1.23-1.244 2.05-1.244.447 0 .782.116 1.043.35s.41.544.41.933c0 .311-.074.544-.26.739-.15.194-.373.272-.634.272a.88.88 0 0 1-.671-.272c-.186-.195-.261-.428-.261-.739 0-.35.186-.661.484-.894 0-.04-1.08.194-1.565.7-.224.233-.447.505-.559.738-.112.234-.26.584-.41 1.09q-.224.699-.224 2.1v4.005h1.901v.389h-5.292v-.39h1.677v-8.205H28.87v-.389h2.162c.596 0 1.006-.194 1.267-.583v2.839zm8.648-2.723c.968 0 1.937.39 2.87 1.206 1.117 1.011 1.676 2.217 1.676 3.656 0 1.322-.484 2.45-1.416 3.46-.932.973-2.013 1.478-3.205 1.478-1.267 0-2.386-.505-3.317-1.516a5.7 5.7 0 0 1-1.081-1.595 4.4 4.4 0 0 1-.373-1.75c0-.66.15-1.283.484-1.944a5.6 5.6 0 0 1 1.305-1.711c.932-.856 1.975-1.284 3.056-1.284m2.534 6.573v-3.267c0-.661-.038-1.128-.112-1.439a2.2 2.2 0 0 0-.41-.778c-.485-.505-1.155-.777-2.087-.777-.97 0-1.678.233-2.087.738-.485.467-.709 1.206-.709 2.217v3.228c0 1.089.224 1.866.709 2.333.186.195.484.35.857.467.41.116.82.194 1.267.194.484 0 .932-.078 1.304-.233.41-.156.671-.35.858-.622.26-.428.41-1.128.41-2.061" clip-rule="evenodd"/><path fill="#fff" fill-rule="evenodd" d="M48.81 23.233c.224-.7.634-1.245 1.23-1.711.634-.428 1.305-.661 2.088-.661 1.006 0 1.789.31 2.273.972.261.35.41.855.485 1.517.261-.778.67-1.362 1.267-1.828a3.3 3.3 0 0 1 2.013-.661c.969 0 1.752.31 2.274.933.223.272.41.622.484.933.075.35.112.895.112 1.672v5.562h1.677v.389H57.57v-.39h1.677v-6.805c0-1.206-.485-1.789-1.454-1.789-.894 0-1.677.467-2.273 1.4-.41.661-.597 1.206-.597 1.672v5.6H56.6v.39h-5.106v-.39h1.715v-7.233c0-.467-.112-.855-.336-1.128-.223-.272-.559-.427-1.006-.427-.633 0-1.267.272-1.863.777-.56.545-.97 1.167-1.156 1.984V30h1.64v.388h-5.069V30h1.64v-8.283h-1.677v-.389h2.087c.708 0 1.155-.194 1.304-.622v2.528z" clip-rule="evenodd"/><mask id="b" width="53" height="13" x="20" y="18" maskUnits="userSpaceOnUse" style="mask-type:alpha"><path fill="#fff" fill-rule="evenodd" d="M20 30.778h53V18.333H20z" clip-rule="evenodd"/></mask><g mask="url(#b)"><path fill="#fff" fill-rule="evenodd" d="M64.13 19.305h6.82v-.972h-6.82zm5.143 5.834v-2.217c0-.506-.075-.895-.186-1.128-.15-.233-.41-.389-.783-.505-.298-.078-.708-.117-1.156-.117-.745 0-1.304.117-1.714.35-.373.194-.596.467-.596.739 0 .117.074.233.223.389q.447.35.447.816c0 .311-.111.545-.26.74a.88.88 0 0 1-.671.271.94.94 0 0 1-.708-.31c-.187-.195-.299-.467-.299-.817 0-.7.336-1.284 1.007-1.79.67-.505 1.49-.738 2.422-.738 1.081 0 2.274.194 3.131.778.485.31.634.583.783.855.112.273.149.623.149 1.09v4.005c.037 1.127.112 1.828.149 1.983.075.389.373.544.67.544.336-.038.523-.194.71-.933h.372c-.336 1.284-.895 1.439-1.715 1.439-.522 0-1.08-.194-1.379-.428-.298-.272-.484-.622-.559-1.128a2.55 2.55 0 0 1-1.304 1.128c-.56.272-1.118.39-1.864.39-1.08 0-1.864-.234-2.385-.7-.485-.429-.746-.973-.746-1.556 0-.506.187-.973.522-1.478.373-.467.783-.817 1.305-1.05.559-.233 1.08-.39 1.9-.545a16 16 0 0 1 2.349-.194h.186zm0 .35h-.112c-1.864 0-3.056.233-3.653.7-.41.31-.596.894-.596 1.71 0 .778.112 1.362.41 1.673.261.311.708.506 1.38.506.596 0 1.117-.156 1.602-.428.484-.272.82-.661 1.006-1.128v-3.033z" clip-rule="evenodd"/></g><path fill="#fff" fill-rule="evenodd" d="M64.13 19.305h6.82v-.972h-6.82z" clip-rule="evenodd"/></svg>