<svg xmlns="http://www.w3.org/2000/svg" width="30" height="30" fill="none" viewBox="0 0 30 30"><g clip-path="url(#a)"><path fill="#fff" d="M24.916 4.09c1.081 1.082 1.267 2.78.387 4.031a52 52 0 0 1-3.959 4.983.43.43 0 0 0-.11.27l-.568 12.52a1.27 1.27 0 0 1-2.472.344l-2.37-7.113a.433.433 0 0 0-.685-.196c-1.392 1.143-2.874 2.292-4.489 3.538a.86.86 0 0 0-.323.54l-.476 2.872a1.91 1.91 0 0 1-1.743 1.582 1.603 1.603 0 0 1-1.702-1.335l-.413-2.391a.86.86 0 0 0-.7-.702L2.9 22.621a1.605 1.605 0 0 1-1.335-1.702 1.91 1.91 0 0 1 1.582-1.744l2.874-.476a.86.86 0 0 0 .546-.331c1.244-1.65 2.346-3.134 3.438-4.52a.433.433 0 0 0-.202-.677l-7.01-2.336a1.272 1.272 0 0 1 .335-2.477l12.414-.652a.43.43 0 0 0 .263-.108c1.439-1.27 3.093-2.552 5.103-3.919 1.253-.852 2.935-.66 4.007.411"/></g><defs><clipPath id="a"><path fill="#fff" d="M0 0h29.4v29.4H0z"/></clipPath></defs></svg>