<svg width="93" height="52" viewBox="0 0 93 52" fill="none" xmlns="http://www.w3.org/2000/svg">
<path fill-rule="evenodd" clip-rule="evenodd" d="M0 8C0 3.58172 3.58172 0 8 0H85C89.4183 0 93 3.58172 93 8V21.1C90.7178 21.5633 89 23.581 89 26C89 28.419 90.7178 30.4367 93 30.9V44C93 48.4183 89.4183 52 85 52H8C3.58172 52 0 48.4183 0 44V30.9C2.28224 30.4367 4 28.419 4 26C4 23.581 2.28224 21.5633 0 21.1V8Z" fill="#1C95DA"/>
<path d="M78.0979 20.771C78.0912 20.7484 78.0844 20.7257 78.0755 20.7031C72.7516 20.7054 67.43 20.7031 62.1084 20.7054C62.0949 20.7212 62.0859 20.7371 62.0837 20.7574C62.0837 24.9131 62.0837 29.0664 62.0814 33.2221C62.1151 33.4438 62.2364 33.6451 62.3983 33.7967C62.405 33.799 62.4207 33.8012 62.4275 33.8035C62.5106 33.8917 62.6297 33.9347 62.7421 33.9754C62.8253 33.9709 62.9062 34.0071 62.9893 33.998H69.5964C69.6593 33.9958 69.7244 34.0071 69.7851 33.9822C69.7874 33.9732 69.7896 33.9573 69.7919 33.9483C69.7942 33.937 69.7964 33.9121 69.7986 33.8986C69.9402 33.1023 70.0773 32.3037 70.2279 31.5074L70.2414 31.4056C69.6301 31.4033 69.0166 31.4056 68.4053 31.4033C68.257 31.3988 68.1042 31.4033 67.9559 31.3852C67.702 31.3739 67.4458 31.3829 67.1918 31.3581C66.8772 31.3581 66.5648 31.3286 66.2502 31.3286C66.003 31.3038 65.7535 31.3128 65.5041 31.3015C65.3423 31.2812 65.176 31.2902 65.012 31.2834C64.7446 31.254 64.4726 31.2744 64.2052 31.245C63.922 31.2473 63.6389 31.2223 63.3557 31.2155C63.358 31.2133 63.3602 31.2042 63.3602 31.202C63.4546 31.2042 63.5467 31.1975 63.6411 31.1952C63.8501 31.168 64.0614 31.1862 64.2704 31.1567C64.4884 31.1567 64.7041 31.1273 64.9221 31.1273C65.1154 31.1002 65.3109 31.116 65.5041 31.0889C65.7311 31.0889 65.9536 31.0595 66.1806 31.0572C66.3671 31.0323 66.5559 31.0459 66.7424 31.021C66.9604 31.0232 67.1761 30.9893 67.3941 30.9916C67.6076 30.9667 67.8256 30.9734 68.0391 30.9508C68.0189 30.8672 68.0031 30.7835 67.9852 30.6997C67.9694 30.6477 67.9065 30.659 67.8661 30.6522C67.3784 30.582 66.893 30.512 66.4076 30.4441C66.439 30.4192 66.4817 30.4305 66.5177 30.426C66.8952 30.3966 67.2705 30.3626 67.6481 30.3355C67.7335 30.331 67.8166 30.3151 67.902 30.3129C67.8638 30.1953 67.8413 30.0663 67.7896 29.9577C66.9829 29.8333 66.1761 29.7225 65.3715 29.589C65.5805 29.555 65.7918 29.5392 66.0008 29.5166L66.0188 29.5098C66.6862 29.4396 67.3559 29.3604 68.0234 29.2949C68.8706 29.2904 69.7156 29.2926 70.5628 29.2949C70.5897 29.2904 70.637 29.3039 70.6415 29.2655C70.7111 28.899 70.7786 28.5325 70.8482 28.166C70.9448 27.6571 71.0976 27.1548 71.3336 26.6911C71.7044 25.9446 72.291 25.3112 73.0056 24.8904C73.673 24.4968 74.4461 24.3068 75.2147 24.2706C75.4642 24.2479 75.7158 24.2547 75.9631 24.2864C76.1249 24.3249 76.2912 24.3701 76.4193 24.481C76.5249 24.5669 76.5878 24.6936 76.635 24.8203C76.7384 25.1212 76.7968 25.4333 76.8462 25.7478C76.8485 25.8745 76.871 26.017 76.8035 26.1324C76.7406 26.2455 76.6148 26.2998 76.4957 26.3337C76.0619 26.4468 75.608 26.3405 75.1742 26.4468C74.817 26.5237 74.4843 26.7228 74.2573 27.0101C73.9899 27.3449 73.8483 27.7611 73.7697 28.1774C73.709 28.5484 73.6326 28.9194 73.5719 29.2926C73.9989 29.2949 74.4282 29.2904 74.8574 29.2949C75.0282 29.2949 75.2035 29.3899 75.2731 29.5528C75.363 29.7609 75.3428 29.9962 75.3136 30.2156C75.2776 30.4622 75.2192 30.7065 75.1091 30.9327C75.0169 31.125 74.8641 31.3015 74.6551 31.3693C74.5473 31.4123 74.4304 31.4033 74.3158 31.4033C73.9382 31.4033 73.5606 31.4078 73.1831 31.4033C73.1225 31.6816 73.082 31.9666 73.0281 32.2493C72.9292 32.799 72.8326 33.351 72.7337 33.903C72.7314 33.9211 72.7292 33.9596 72.7292 33.9799C72.9067 33.989 73.0843 33.9799 73.2618 33.9844C74.5787 33.9844 75.8979 33.9821 77.217 33.9844C77.3586 33.989 77.5025 33.955 77.6261 33.8849C77.7002 33.8578 77.7452 33.7921 77.8103 33.756C77.8733 33.7198 77.8912 33.6452 77.9452 33.5976C78.0036 33.4935 78.0643 33.385 78.0688 33.2628C78.0755 33.2628 78.0935 33.2605 78.1025 33.2583C78.0957 29.0959 78.1024 24.9334 78.0979 20.771Z" fill="url(#paint0_linear_634_1234)" stroke="#FCD109" stroke-width="0.00227706"/>
<path d="M64.1781 18.0349C64.3691 17.9738 64.5691 18.0145 64.7647 18.0009C68.4345 18.0032 72.1044 18.0009 75.7742 18.0009C75.9922 17.9919 76.1832 18.1163 76.3854 18.1796C76.5472 18.2453 76.7158 18.2973 76.8776 18.3674C76.9113 18.381 76.936 18.4104 76.9607 18.4353C76.9584 18.7339 76.9607 19.0348 76.9607 19.3356C76.963 19.4148 76.9495 19.4962 76.9764 19.5732C77.0237 19.5799 77.0483 19.6161 77.0798 19.6456C77.2282 19.7134 77.354 19.8243 77.4888 19.9148C77.6911 20.0595 77.9069 20.1862 78.1046 20.3355C78.1135 20.3943 78.1068 20.4554 78.0888 20.5097C78.0687 20.5731 78.0821 20.6409 78.0754 20.7043C72.7515 20.7065 67.4299 20.7043 62.1083 20.7065C62.097 20.6319 62.1172 20.5572 62.0858 20.4871C62.0813 20.4283 62.0611 20.3514 62.1172 20.3106C62.342 20.1523 62.5802 20.0098 62.8004 19.8424C62.9375 19.7541 63.0701 19.6636 63.2026 19.5732C63.2296 19.5279 63.2206 19.4714 63.2206 19.4216C63.2206 19.0936 63.2206 18.7656 63.2229 18.4375C63.2993 18.338 63.4319 18.3267 63.5375 18.2769C63.7511 18.1955 63.9668 18.1163 64.1781 18.0349M64.1916 18.0733C63.9039 18.1842 63.614 18.2905 63.3263 18.4013C63.2881 18.4081 63.2679 18.4421 63.2477 18.4715C63.2499 18.4896 63.2522 18.5212 63.2522 18.5393C63.2499 18.8108 63.2522 19.0823 63.2499 19.3537C63.2522 19.4216 63.2431 19.4895 63.2679 19.5505C63.2386 19.5799 63.2072 19.6094 63.1712 19.632C62.8454 19.8446 62.5307 20.0754 62.2049 20.2858C62.1487 20.3197 62.0858 20.3649 62.1038 20.4396C62.0925 20.4803 62.1127 20.5142 62.1554 20.5029C62.8611 20.4984 63.5645 20.5074 64.2702 20.4961C65.3197 20.4961 66.3669 20.4984 67.4164 20.4961L67.4322 20.4894C67.4794 20.5007 67.5265 20.4961 67.5759 20.4961C69.4772 20.4961 71.3784 20.4984 73.2818 20.4961C73.8796 20.4984 74.4797 20.4961 75.0797 20.4961C76.0685 20.4961 77.0596 20.5052 78.0484 20.5007C78.0776 20.4939 78.0866 20.4735 78.0754 20.4373C78.0731 20.4011 78.0866 20.3514 78.0484 20.3287C77.8911 20.2541 77.7562 20.1387 77.6057 20.0482C77.5518 20.003 77.4821 19.9781 77.4416 19.917C77.2866 19.8288 77.1427 19.7202 76.9899 19.6229C76.9606 19.6048 76.9382 19.5754 76.9135 19.5505C76.927 19.503 76.9315 19.451 76.9315 19.4012C76.9292 19.1139 76.9315 18.8266 76.9292 18.5393C76.936 18.4941 76.9337 18.4421 76.8932 18.4127C76.6236 18.3154 76.3562 18.2113 76.0887 18.1118C76.0055 18.0711 75.9134 18.0484 75.8235 18.0349H64.3375C64.2882 18.0371 64.241 18.062 64.1916 18.0733V18.0733Z" fill="#F8F3B5"/>
<path d="M64.1781 18.0349C64.3691 17.9738 64.5691 18.0145 64.7647 18.0009C68.4345 18.0032 72.1044 18.0009 75.7742 18.0009C75.9922 17.9919 76.1832 18.1163 76.3854 18.1796C76.5472 18.2453 76.7158 18.2973 76.8776 18.3674C76.9113 18.381 76.936 18.4104 76.9607 18.4353C76.9584 18.7339 76.9607 19.0348 76.9607 19.3356C76.963 19.4148 76.9495 19.4962 76.9764 19.5732C77.0237 19.5799 77.0483 19.6161 77.0798 19.6456C77.2282 19.7134 77.354 19.8243 77.4888 19.9148C77.6911 20.0595 77.9069 20.1862 78.1046 20.3355C78.1135 20.3943 78.1068 20.4554 78.0888 20.5097C78.0687 20.5731 78.0821 20.6409 78.0754 20.7043C72.7515 20.7065 67.4299 20.7043 62.1083 20.7065C62.097 20.6319 62.1172 20.5572 62.0858 20.4871C62.0813 20.4283 62.0611 20.3514 62.1172 20.3106C62.342 20.1523 62.5802 20.0098 62.8004 19.8424C62.9375 19.7541 63.0701 19.6636 63.2026 19.5732C63.2296 19.5279 63.2206 19.4714 63.2206 19.4216C63.2206 19.0936 63.2206 18.7656 63.2229 18.4375C63.2993 18.338 63.4319 18.3267 63.5375 18.2769C63.7511 18.1955 63.9668 18.1163 64.1781 18.0349M64.1916 18.0733C63.9039 18.1842 63.614 18.2905 63.3263 18.4013C63.2881 18.4081 63.2679 18.4421 63.2477 18.4715C63.2499 18.4896 63.2522 18.5212 63.2522 18.5393C63.2499 18.8108 63.2522 19.0823 63.2499 19.3537C63.2522 19.4216 63.2431 19.4895 63.2679 19.5505C63.2386 19.5799 63.2072 19.6094 63.1712 19.632C62.8454 19.8446 62.5307 20.0754 62.2049 20.2858C62.1487 20.3197 62.0858 20.3649 62.1038 20.4396C62.0925 20.4803 62.1127 20.5142 62.1554 20.5029C62.8611 20.4984 63.5645 20.5074 64.2702 20.4961C65.3197 20.4961 66.3669 20.4984 67.4164 20.4961L67.4322 20.4894C67.4794 20.5007 67.5265 20.4961 67.5759 20.4961C69.4772 20.4961 71.3784 20.4984 73.2818 20.4961C73.8796 20.4984 74.4797 20.4961 75.0797 20.4961C76.0685 20.4961 77.0596 20.5052 78.0484 20.5007C78.0776 20.4939 78.0866 20.4735 78.0754 20.4373C78.0731 20.4011 78.0866 20.3514 78.0484 20.3287C77.8911 20.2541 77.7562 20.1387 77.6057 20.0482C77.5518 20.003 77.4821 19.9781 77.4416 19.917C77.2866 19.8288 77.1427 19.7202 76.9899 19.6229C76.9606 19.6048 76.9382 19.5754 76.9135 19.5505C76.927 19.503 76.9315 19.451 76.9315 19.4012C76.9292 19.1139 76.9315 18.8266 76.9292 18.5393C76.936 18.4941 76.9337 18.4421 76.8932 18.4127C76.6236 18.3154 76.3562 18.2113 76.0887 18.1118C76.0055 18.0711 75.9134 18.0484 75.8235 18.0349H64.3375C64.2882 18.0371 64.241 18.062 64.1916 18.0733V18.0733Z" stroke="#F8F3B5" stroke-width="0.00227706"/>
<path d="M63.2522 18.5391C63.45 18.6228 63.6612 18.6703 63.8613 18.7517C63.9691 18.7947 64.0028 18.9123 64.05 19.0073C64.0028 19.0548 63.9466 19.0933 63.8904 19.1295C63.6837 19.2698 63.4724 19.4055 63.2679 19.5503C63.2432 19.4892 63.2522 19.4213 63.2499 19.3535C63.2522 19.082 63.25 18.8105 63.2522 18.5391V18.5391ZM76.3203 18.7517C76.5203 18.6725 76.7293 18.6182 76.9293 18.5391C76.9316 18.8264 76.9293 19.1137 76.9316 19.401C76.9316 19.4507 76.9271 19.5028 76.9136 19.5503C76.7383 19.4281 76.5608 19.3127 76.3855 19.1928C76.3001 19.1295 76.2057 19.082 76.1293 19.0051C76.1765 18.9101 76.2124 18.7947 76.3203 18.7517V18.7517Z" fill="#F7B402" stroke="#F7B402" stroke-width="0.00227706"/>
<path d="M66.6815 18.8458C66.9287 18.787 67.2051 19.0087 67.1849 19.2688C67.1871 19.5245 66.9196 19.7326 66.6747 19.6738C66.5758 19.6398 66.4814 19.5878 66.4208 19.4996C66.3421 19.3797 66.3241 19.2191 66.3871 19.0879C66.432 18.9612 66.5534 18.8752 66.6815 18.8458V18.8458ZM73.093 18.9883C73.1964 18.8729 73.3605 18.8073 73.5133 18.8481C73.6279 18.882 73.7403 18.9567 73.7897 19.0698C73.8886 19.2643 73.8122 19.5267 73.6189 19.6285C73.4481 19.7235 73.2324 19.6783 73.102 19.5403C72.9694 19.3887 72.9604 19.1399 73.093 18.9883V18.9883Z" fill="#BDA727" stroke="#BDA727" stroke-width="0.00227706"/>
<path d="M63.8903 19.1303C63.9464 19.0941 64.0026 19.0556 64.0499 19.0081L64.0656 19.024C64.0813 19.1416 64.07 19.2615 64.0745 19.3791C64.0678 19.732 64.0813 20.0872 64.0656 20.4401C63.4116 20.4401 62.7577 20.4356 62.1037 20.4401C62.0857 20.3654 62.1486 20.3202 62.2048 20.2863C62.5306 20.0759 62.8453 19.8451 63.1711 19.6325C63.2071 19.6099 63.2385 19.5805 63.2678 19.551C63.4723 19.4063 63.6835 19.2705 63.8903 19.1303V19.1303ZM76.1066 19.085C76.1066 19.0556 76.1134 19.0307 76.129 19.0059C76.2054 19.0828 76.2999 19.1303 76.3852 19.1936C76.5605 19.3135 76.7381 19.4289 76.9133 19.551C76.9381 19.5759 76.9605 19.6053 76.9897 19.6234C77.1426 19.7207 77.2864 19.8293 77.4415 19.9175C77.4819 19.9786 77.5516 20.0035 77.6055 20.0487C77.7561 20.1392 77.8909 20.2546 78.0482 20.3292C78.0864 20.3519 78.073 20.4016 78.0752 20.4378C77.4212 20.4401 76.7695 20.4356 76.1156 20.4401C76.1043 20.3496 76.1111 20.2591 76.1088 20.1709C76.1089 19.8089 76.1044 19.447 76.1066 19.085V19.085Z" fill="#F7E62D" stroke="#F7E62D" stroke-width="0.00227706"/>
<path d="M78.0753 20.4376C77.4213 20.4399 76.7695 20.4353 76.1156 20.4399C76.1044 20.3494 76.1111 20.2589 76.1089 20.1707C76.1089 19.8087 76.1044 19.4468 76.1066 19.0848C76.1066 19.0554 76.1134 19.0305 76.1291 19.0056C76.1763 18.9106 76.2122 18.7953 76.3201 18.7523C76.5201 18.6731 76.7291 18.6188 76.9291 18.5396C76.9359 18.4944 76.9336 18.4424 76.8931 18.4129C76.6235 18.3157 76.3561 18.2116 76.0886 18.1121C76.0055 18.0714 75.9133 18.0487 75.8234 18.0352H64.3375C64.288 18.0374 64.2408 18.0623 64.1914 18.0736C63.9037 18.1845 63.6138 18.2908 63.3262 18.4016C63.288 18.4084 63.2677 18.4424 63.2475 18.4718C63.2498 18.4899 63.252 18.5215 63.252 18.5396C63.4498 18.6233 63.661 18.6708 63.861 18.7523C63.9689 18.7953 64.0026 18.9129 64.0498 19.0079L64.0655 19.0237C64.0812 19.1414 64.07 19.2613 64.0745 19.3789C64.0677 19.7318 64.0812 20.087 64.0655 20.4399C63.4115 20.4399 62.7576 20.4353 62.1036 20.4399C62.0924 20.4806 62.1126 20.5145 62.1553 20.5032C62.8609 20.4987 63.5643 20.5077 64.27 20.4964C65.3195 20.4964 66.3668 20.4987 67.4163 20.4964L67.432 20.4896C67.4792 20.501 67.5263 20.4964 67.5758 20.4964C69.477 20.4964 71.3782 20.4987 73.2817 20.4964C73.8795 20.4987 74.4795 20.4964 75.0795 20.4964C76.0683 20.4964 77.0594 20.5055 78.0482 20.501C78.0775 20.4942 78.0865 20.4738 78.0753 20.4376V20.4376ZM66.387 19.0871C66.432 18.9604 66.5533 18.8744 66.6814 18.845C66.9286 18.7862 67.2051 19.0079 67.1848 19.2681C67.1871 19.5237 66.9196 19.7318 66.6747 19.673C66.5758 19.6391 66.4814 19.587 66.4208 19.4988C66.3421 19.3789 66.3241 19.2183 66.387 19.0871ZM73.093 18.9875C73.1964 18.8722 73.3604 18.8066 73.5132 18.8473C73.6279 18.8812 73.7402 18.9559 73.7897 19.069C73.8885 19.2635 73.8121 19.5259 73.6189 19.6277C73.448 19.7228 73.2323 19.6775 73.102 19.5395C72.9694 19.388 72.9604 19.1391 73.093 18.9875Z" fill="url(#paint1_radial_634_1234)" stroke="#FCD109" stroke-width="0.00227706"/>
<path d="M73.6661 21.4308C73.6976 21.4376 73.5024 21.242 73.5406 21.2329C73.5765 21.2374 73.7128 21.1309 73.8777 21.2178C74.0424 21.3047 74.0016 21.5081 73.9829 21.5836C73.9606 21.6733 73.9039 21.7306 73.8589 21.7758C73.8342 21.7962 73.7788 21.8279 73.7451 21.8256C73.7653 21.7148 73.7001 21.6967 73.6956 21.5836L73.6661 21.4308Z" fill="url(#paint2_linear_634_1234)" stroke="#FCD109" stroke-width="0.00227706"/>
<path d="M66.482 21.5523C66.4775 21.6654 66.4122 21.6835 66.4325 21.7944C66.3988 21.7966 66.3433 21.765 66.3186 21.7446C66.2737 21.6994 66.217 21.6421 66.1947 21.5523C66.176 21.4769 66.1351 21.2735 66.2999 21.1866C66.4647 21.0997 66.6011 21.2062 66.637 21.2017C66.6752 21.2107 66.48 21.4063 66.5114 21.3995L66.482 21.5523Z" fill="url(#paint3_linear_634_1234)" stroke="#FCD109" stroke-width="0.00227706"/>
<path d="M73.3718 22.8811C73.4056 22.8516 73.4281 22.8516 73.473 22.8516C73.2034 23.4397 72.8887 24.0279 72.4157 24.4858C72.3651 24.5313 72.3117 24.5735 72.2557 24.612C72.2016 24.6519 72.1485 24.6893 72.0957 24.7274C72.044 24.7636 71.9926 24.7999 71.9426 24.8378C71.8145 24.9079 71.7021 25.0052 71.5606 25.0482C71.3021 25.1726 71.0235 25.2563 70.7426 25.3151C70.6325 25.3332 70.5201 25.3604 70.4077 25.3626C70.2684 25.4034 70.1201 25.3739 69.9785 25.383C69.8998 25.3966 69.8301 25.3513 69.7538 25.3604C69.6875 25.3509 69.6213 25.3396 69.5556 25.3264C69.4889 25.3127 69.4226 25.2969 69.3569 25.2789C68.3267 24.9554 67.3154 24.1636 67.0208 23.0928C67.0075 23.0207 67.0008 22.9475 67.0008 22.8742C67.0322 22.9375 67.0648 23.0004 67.0986 23.0627C67.5177 23.9827 68.3492 24.7066 69.3315 24.9248C69.4113 24.9614 69.4975 24.9486 69.574 24.9803C69.6436 24.9803 69.7111 24.978 69.7785 25.0007C70.01 25.0052 70.2414 25.0029 70.4729 25.0029C70.5043 25.0052 70.5335 24.9893 70.565 24.9826C70.9508 24.9694 71.3288 24.8635 71.6808 24.7029C71.7512 24.6707 71.8205 24.6364 71.8887 24.6002C71.9484 24.5686 72.0066 24.5344 72.0633 24.4976C72.1189 24.4614 72.173 24.423 72.2255 24.3823C72.6415 24.0505 73.0011 23.6207 73.2453 23.1264C73.2917 23.0375 73.3343 22.9551 73.3718 22.8811Z" fill="#BDA727" stroke="#BDA727" stroke-width="0.00227706"/>
<path d="M73.0052 24.891C73.6727 24.4974 74.4458 24.3073 75.2144 24.2711C75.4638 24.2485 75.7155 24.2553 75.9627 24.287C76.1245 24.3254 76.2908 24.3707 76.4189 24.4815C76.3538 24.486 76.2908 24.4566 76.2257 24.4476C76.0414 24.4114 75.8504 24.425 75.6638 24.4204C75.1222 24.4204 74.5761 24.4634 74.0525 24.6127C73.7783 24.6964 73.5042 24.7937 73.2547 24.9385C72.8232 25.1783 72.4345 25.495 72.1198 25.875C71.558 26.5243 71.2277 27.3477 71.0681 28.187C70.9917 28.6372 70.904 29.085 70.8344 29.5375C70.722 29.5488 70.6074 29.542 70.495 29.542C70.0006 29.5398 69.5062 29.5375 69.0118 29.533C68.9062 29.5375 68.8028 29.5127 68.6972 29.5194C67.7983 29.5239 66.8993 29.5171 66.0004 29.5171L66.0184 29.5103C66.6859 29.4402 67.3556 29.361 68.023 29.2954C68.8702 29.2909 69.7152 29.2931 70.5625 29.2954C70.5894 29.2909 70.6366 29.3044 70.6411 29.266C70.7108 28.8995 70.7782 28.5331 70.8478 28.1666C70.9445 27.6576 71.0973 27.1554 71.3333 26.6917C71.7041 25.9451 72.2906 25.3117 73.0052 24.891Z" fill="#0D69B3" stroke="#0D69B3" stroke-width="0.00227706"/>
<path d="M74.0527 24.6142C74.5763 24.4649 75.1224 24.4219 75.664 24.4219C75.8505 24.4264 76.0416 24.4128 76.2258 24.449C76.291 24.4581 76.3539 24.4875 76.4191 24.483C76.5247 24.5689 76.5876 24.6956 76.6348 24.8223C76.7383 25.1232 76.7966 25.4353 76.8461 25.7498C76.8483 25.8765 76.8708 26.019 76.8034 26.1344C76.7405 26.2475 76.6147 26.3018 76.4955 26.3357C76.0618 26.4488 75.6078 26.3425 75.1741 26.4488C74.8168 26.5257 74.4842 26.7248 74.2572 27.0121C73.9898 27.3469 73.8482 27.7631 73.7695 28.1794C73.7089 28.5504 73.6324 28.9214 73.5718 29.2946C73.5448 29.3784 73.5291 29.4688 73.5133 29.5571C73.938 29.5639 74.3628 29.5571 74.7876 29.5616C74.9493 29.5571 75.1111 29.5661 75.273 29.5548C75.3629 29.7629 75.3426 29.9982 75.3134 30.2176C75.2775 30.4642 75.219 30.7085 75.1089 30.9347C75.0167 31.127 74.864 31.3035 74.655 31.3713C74.5471 31.4143 74.4302 31.4053 74.3156 31.4053C73.938 31.4053 73.5605 31.4098 73.183 31.4053C73.1223 31.6836 73.0819 31.9686 73.0279 32.2513C72.9291 32.801 72.8324 33.353 72.7335 33.905C72.7313 33.9231 72.729 33.9616 72.729 33.9819V33.9842C71.747 33.9842 70.7671 33.9865 69.7851 33.9842C69.7873 33.9752 69.7896 33.9593 69.7918 33.9503C69.7941 33.9389 69.7963 33.9141 69.7986 33.9005C69.8008 33.9186 69.803 33.9526 69.8053 33.9684C69.866 33.9752 69.9761 34.0068 69.9919 33.9186C70.1447 33.0861 70.2863 32.2491 70.4436 31.4166C70.3829 31.403 70.32 31.403 70.257 31.4143C70.2481 31.446 70.2391 31.4776 70.2278 31.5093L70.2413 31.4075C69.6301 31.4052 69.0165 31.4075 68.4053 31.4052C68.2569 31.4008 68.1042 31.4052 67.9558 31.3871C67.7019 31.3758 67.4457 31.3849 67.1918 31.36C66.8771 31.36 66.5648 31.3306 66.2501 31.3306C66.0029 31.3057 65.7535 31.3147 65.504 31.3034C65.3423 31.2831 65.1759 31.2921 65.0119 31.2853C64.7445 31.2559 64.4726 31.2763 64.2051 31.2469C63.922 31.2492 63.6388 31.2242 63.3557 31.2175C63.3579 31.2152 63.3601 31.2062 63.3601 31.2039C63.4545 31.2062 63.5467 31.1994 63.6411 31.1971C63.8501 31.17 64.0613 31.188 64.2703 31.1587C64.4883 31.1587 64.704 31.1292 64.922 31.1292C65.1153 31.1021 65.3108 31.1179 65.504 31.0908C65.7311 31.0908 65.9535 31.0614 66.1805 31.0591C66.367 31.0342 66.5558 31.0478 66.7423 31.0229C66.9603 31.0252 67.1761 30.9913 67.3941 30.9935C67.6076 30.9686 67.8255 30.9754 68.039 30.9528C68.0188 30.8691 68.003 30.7854 67.9851 30.7016C67.9694 30.6496 67.9064 30.6609 67.866 30.6541C67.3783 30.584 66.8929 30.5139 66.4075 30.446C66.439 30.4211 66.4817 30.4324 66.5176 30.4279C66.8952 30.3984 67.2705 30.3645 67.648 30.3374C67.7334 30.3329 67.8166 30.3171 67.9019 30.3148C67.8637 30.1972 67.8413 30.0682 67.7896 29.9596C66.9828 29.8352 66.176 29.7244 65.3715 29.5909C65.5805 29.557 65.7917 29.5411 66.0007 29.5185C66.8997 29.5185 67.7986 29.5253 68.6975 29.5208C68.8031 29.514 68.9065 29.5389 69.0121 29.5344C69.5065 29.5389 70.0009 29.5412 70.4953 29.5434C70.6077 29.5434 70.7223 29.5502 70.8347 29.5389C70.9043 29.0864 70.992 28.6385 71.0684 28.1884C71.228 27.349 71.5583 26.5257 72.1201 25.8764C72.4348 25.4964 72.8235 25.1796 73.255 24.9399C73.5043 24.7951 73.7785 24.6979 74.0527 24.6142Z" fill="#107BD4" stroke="#107BD4" stroke-width="0.00227706"/>
<path d="M73.572 29.293C73.999 29.2953 74.4283 29.2907 74.8575 29.2953C75.0282 29.2953 75.2035 29.3903 75.2732 29.5531C75.1114 29.5644 74.9496 29.5554 74.7878 29.5599C74.363 29.5554 73.9383 29.5622 73.5136 29.5554C73.5293 29.4672 73.545 29.3767 73.572 29.293V29.293ZM70.2572 31.4127C70.3201 31.4014 70.3831 31.4014 70.4437 31.4149C70.2864 32.2474 70.1449 33.0845 69.992 33.917C69.9763 34.0052 69.8662 33.9735 69.8055 33.9667C69.8032 33.9509 69.801 33.917 69.7988 33.8988C69.9403 33.1026 70.0774 32.304 70.228 31.5077C70.2392 31.476 70.2482 31.4444 70.2572 31.4127Z" fill="#0D69B3" stroke="#0D69B3" stroke-width="0.00227706"/>
<path d="M73.7682 21.496C73.7502 21.4621 73.748 21.4213 73.748 21.3829L73.73 21.3851C73.703 21.2856 73.6199 21.1906 73.512 21.1861C73.4311 21.1793 73.3299 21.1815 73.2828 21.2585C73.1929 21.3806 73.2355 21.5367 73.2311 21.6747C73.2311 21.6837 73.2333 21.6996 73.2333 21.7086C73.2333 21.8014 73.2221 21.8919 73.2064 21.9824C73.1929 22.0095 73.1862 22.0389 73.1862 22.0706C73.148 22.2832 73.0715 22.4936 72.9682 22.6859C72.948 22.713 72.9322 22.7425 72.9255 22.7741C72.8581 22.8918 72.7772 23.0003 72.694 23.1089C72.6805 23.1202 72.6693 23.1338 72.6581 23.1474C72.5996 23.2198 72.5367 23.2809 72.4715 23.3442C72.4558 23.3533 72.4446 23.3646 72.4311 23.3736C72.3547 23.4483 72.2693 23.5184 72.1771 23.5749C72.1659 23.5817 72.1546 23.5908 72.1411 23.5998C71.5658 23.9821 70.8669 24.1405 70.186 24.1473C69.6084 24.1654 69.0263 24.041 68.505 23.7899C68.496 23.7853 68.4736 23.7763 68.4645 23.7718C68.3769 23.7243 68.287 23.6835 68.2061 23.6247C68.1881 23.6157 68.1701 23.6044 68.1499 23.5953C68.0667 23.5455 67.9881 23.4912 67.9139 23.4279C67.8892 23.4053 67.8622 23.3872 67.8353 23.3668C67.7544 23.3012 67.6712 23.2311 67.6016 23.1519C67.5836 23.1316 67.5656 23.1135 67.5477 23.0954C67.3028 22.8397 67.1117 22.5275 67.0106 22.1882C66.9139 21.919 66.9275 21.6249 66.9162 21.3422C66.8353 21.2177 66.6645 21.1476 66.5297 21.2245C66.4735 21.2652 66.4668 21.3399 66.4241 21.3919C66.3544 22.1385 66.6713 22.8827 67.1769 23.4211C67.1769 23.4392 67.1859 23.4505 67.2017 23.4573C67.2916 23.541 67.3792 23.627 67.4691 23.7084C67.4848 23.7243 67.5028 23.7401 67.523 23.7537C67.6129 23.8283 67.7095 23.8962 67.8039 23.9663C67.8219 23.9799 67.8399 23.9912 67.8601 24.0025C67.9837 24.0749 68.1005 24.1609 68.2331 24.2106C68.2421 24.2174 68.2579 24.2287 68.2668 24.2332C68.6938 24.4391 69.1545 24.5794 69.6265 24.6246C69.6782 24.6246 69.7298 24.6291 69.7815 24.6404C70.0063 24.654 70.231 24.6472 70.4557 24.6427C71.1501 24.5816 71.867 24.412 72.4468 24.0002L72.4536 24.0093C72.4716 23.9935 72.4873 23.9799 72.5053 23.9663C72.5975 23.8984 72.6873 23.8261 72.7772 23.7514C72.7974 23.7356 72.8199 23.7175 72.8402 23.6971C72.939 23.5885 73.0537 23.489 73.1368 23.3646L73.1503 23.3713C73.157 23.36 73.1683 23.3374 73.1751 23.3261C73.2514 23.222 73.3211 23.1135 73.3885 23.0049C73.393 22.9981 73.4042 22.9868 73.4087 22.98L73.3998 22.9709C73.4065 22.9619 73.4223 22.9438 73.429 22.9347C73.5526 22.6814 73.6627 22.4167 73.7009 22.1362C73.7167 22.1294 73.7257 22.1158 73.7257 22.1C73.7279 22.0095 73.7594 21.9235 73.7504 21.8331C73.7704 21.7222 73.7727 21.6091 73.7682 21.496V21.496Z" fill="white" stroke="white" stroke-width="0.00227706"/>
<path d="M66.2514 21.4165C66.4336 21.4741 66.8521 21.3293 66.9705 21.4618M66.3563 21.9745C66.5309 21.9134 66.9052 21.7686 67.0604 21.8539M66.5361 22.5325C66.6205 22.56 66.7868 22.4108 66.8694 22.3671C66.9924 22.302 67.1185 22.2521 67.2552 22.2309M66.8057 23.1207C66.8928 22.9962 66.997 22.8928 67.1227 22.8043C67.2473 22.7167 67.5883 22.4825 67.7346 22.5627M67.0604 23.543C67.1592 23.4639 67.1995 23.3241 67.3032 23.241C67.4287 23.1405 67.6209 23.1225 67.7496 23.0604M67.4837 23.8559C67.5132 23.6372 67.7338 23.3733 67.9444 23.3922M67.8095 24.1613C67.9208 24.1501 68.0149 23.8995 68.0901 23.8145C68.2028 23.6873 68.3196 23.6481 68.4687 23.6033M68.4537 24.4328C68.4465 24.2745 68.609 23.8207 68.7983 23.8446M68.9332 24.5836C68.9253 24.3966 69.0214 23.834 69.2478 23.8145M69.4276 24.8852C69.3846 24.6237 69.3874 24.2453 69.5924 24.0557M70.0419 24.9456C70.019 24.7275 69.8038 24.2868 70.0419 24.1161M70.701 24.7947C70.5983 24.6748 70.5386 24.2018 70.5812 24.0708M71.3303 24.6892C71.2511 24.5443 71.1528 24.4083 71.1228 24.2401C71.1049 24.1397 71.1363 23.9965 71.1205 23.92M71.8547 24.4629C71.6828 24.3498 71.6351 23.9338 71.6899 23.7541M72.3641 24.2367C72.2418 23.9727 72.1114 23.768 72.1093 23.4676M72.8585 23.7541C72.6685 23.6255 72.426 23.3916 72.4539 23.1358M73.3828 23.3469C73.0942 23.2826 72.7478 23.0226 72.5738 22.7889M73.6225 22.8492C73.4143 22.8043 72.7263 22.5341 72.7686 22.2611M73.8473 22.3214C73.5571 22.2143 73.1351 22.1181 72.9034 21.9142M73.9971 21.8388C73.8143 21.8545 73.5525 21.7655 73.3668 21.7332C73.1605 21.6974 72.9693 21.6274 72.7686 21.5824M73.8173 21.3713C73.4648 21.3925 73.1341 21.2711 72.8135 21.1602" stroke="#D1D1D1" stroke-width="0.0484481"/>
<path d="M26.1184 22.068C26.4803 22.0131 26.8967 21.9787 27.2039 22.2055C27.395 22.3497 27.4633 22.6109 27.4496 22.8446C27.4633 23.2294 27.2858 23.6417 26.9445 23.841C26.6441 24.006 26.2823 24.0196 25.9478 23.9853C25.7225 23.9579 25.4972 23.8342 25.3812 23.628C25.1217 23.0301 25.4426 22.1848 26.1184 22.068ZM15.291 22.501C15.3114 22.2948 15.4958 22.1092 15.7074 22.1162C17.2844 22.1162 18.8546 22.123 20.4248 22.1162C20.5955 22.1024 20.7798 22.178 20.8617 22.3291C20.9777 22.5353 20.8754 22.7621 20.8617 22.9752C20.814 23.2637 20.8276 23.6486 20.4931 23.7585C19.3462 23.7929 18.1992 23.7585 17.0523 23.7723C16.9431 24.5007 16.8407 25.2223 16.7314 25.9438C16.7314 25.9713 16.7383 26.0332 16.7383 26.0606C17.578 26.0538 18.4176 26.0606 19.2573 26.0538C19.4895 26.0401 19.7352 26.2394 19.7147 26.4868C19.6943 26.741 19.6396 26.9884 19.6055 27.2427C19.5782 27.4145 19.4417 27.5726 19.2642 27.6069C18.3289 27.6275 17.3799 27.5863 16.4447 27.6275C16.2944 28.6652 16.1169 29.7029 15.9599 30.7406C15.9395 30.9468 15.7756 31.1254 15.5708 31.1323C15.1817 31.1392 14.7925 31.1392 14.4034 31.1323C14.1508 31.1392 13.946 30.8573 14.0142 30.6168C14.4308 27.9093 14.8609 25.2086 15.291 22.501V22.501ZM22.2271 22.1298C22.5821 22.1024 22.9439 22.123 23.2989 22.1162C23.5174 22.1024 23.7359 22.2742 23.7563 22.501C23.7563 22.6796 23.7085 22.8583 23.688 23.037C23.4013 24.8787 23.1077 26.7205 22.821 28.5622C22.78 28.8577 22.7049 29.1738 22.7937 29.4762C22.8961 29.7785 23.3534 29.648 23.4627 29.9641C23.531 30.2184 23.4558 30.4863 23.4354 30.7475C23.4149 31.0911 23.0258 31.1667 22.7596 31.2424C22.1793 31.3523 21.4761 31.2698 21.0596 30.7887C20.7593 30.4383 20.7388 29.9435 20.8003 29.5037C21.1621 27.1672 21.5239 24.8307 21.8926 22.4872C21.9131 22.3154 22.0496 22.1574 22.2271 22.1298V22.1298ZM35.7785 22.501C35.7989 22.2948 35.9833 22.1162 36.1881 22.1162H37.2258C37.4852 22.1092 37.6969 22.391 37.6354 22.6384C37.3965 24.164 37.1507 25.6897 36.9118 27.2152C37.2736 27.1602 37.6832 27.0915 37.9358 26.796C38.359 26.3149 38.7073 25.7584 38.9667 25.1743C39.0554 24.9474 39.1032 24.6176 39.3968 24.5764C39.7859 24.5626 40.1818 24.5695 40.571 24.5764C40.8372 24.5695 41.0352 24.8718 40.9465 25.1192C40.8441 25.4835 40.6734 25.8202 40.4959 26.1432C40.0999 26.7892 39.6631 27.4283 39.0895 27.9368C39.3421 28.6996 39.663 29.4418 39.9429 30.1909C40.0248 30.4383 40.2229 30.7269 40.0385 30.9675C39.8268 31.2561 39.4309 31.1117 39.1373 31.1461C38.8301 31.1117 38.3864 31.2698 38.2157 30.9193C37.8948 30.1702 37.6286 29.4006 37.3008 28.6515C37.1097 28.6583 36.9117 28.6653 36.7206 28.6447C36.707 28.6722 36.6796 28.7271 36.6659 28.7546C36.5635 29.4418 36.4543 30.129 36.3451 30.8162C36.3041 30.9811 36.1744 31.1255 35.9969 31.1392C35.6351 31.153 35.2664 31.1461 34.8978 31.1461C34.7407 31.1461 34.5974 31.043 34.5291 30.9056C34.4609 30.7681 34.5018 30.6101 34.5224 30.4589C34.9456 27.8062 35.362 25.1536 35.7785 22.501V22.501ZM54.7504 23.25C54.7982 23.0576 54.9825 22.927 55.1737 22.9339C55.4468 22.9408 55.7267 22.927 56.0065 22.9408C56.2319 22.9476 56.4093 23.1744 56.382 23.3943C56.3411 23.786 56.2454 24.1778 56.2182 24.5694C56.4844 24.5694 56.7575 24.5626 57.0237 24.5694C57.2627 24.5694 57.4607 24.8168 57.4197 25.0504C57.3855 25.2636 57.3378 25.4697 57.3036 25.6827C57.2695 25.8614 57.1193 26.0057 56.9487 26.0332C56.621 26.0538 56.3001 26.0194 55.9792 26.0538C55.8427 26.9746 55.6925 27.8955 55.5491 28.8164C55.5286 29.0294 55.515 29.2699 55.6379 29.4555C55.8222 29.6823 56.143 29.5998 56.4025 29.6273C56.6073 29.6891 56.737 29.916 56.7029 30.1222C56.6687 30.3558 56.6619 30.5894 56.6073 30.8162C56.5254 31.0704 56.2318 31.1186 56.0065 31.1804C55.3853 31.3454 54.6685 31.3454 54.1155 30.9811C53.6035 30.6306 53.5216 29.9503 53.5762 29.373C53.7195 28.2597 53.9449 27.1533 54.0677 26.0332C53.8766 26.04 53.6444 26.0675 53.5011 25.8957C53.3373 25.7239 53.4192 25.4696 53.4465 25.2566C53.4875 25.0298 53.4806 24.7343 53.7264 24.6106C53.9243 24.535 54.1497 24.59 54.3613 24.5625C54.491 24.1227 54.6139 23.683 54.7504 23.25V23.25ZM50.8932 25.4766C51.3233 25.0436 51.8421 24.6863 52.4361 24.5076C52.6955 24.3908 53.03 24.6107 53.0232 24.8993C52.9754 25.2773 52.8867 25.6484 52.8252 26.0194C52.7978 26.205 52.6409 26.3631 52.4565 26.3837C51.7875 26.5005 51.2072 26.9059 50.743 27.387C50.627 27.5314 50.4563 27.6688 50.4358 27.868C50.2925 28.8301 50.1423 29.7922 49.9921 30.7543C49.9716 30.9605 49.794 31.1598 49.5824 31.1461H48.5447C48.3058 31.1598 48.0942 30.9193 48.1215 30.6788C48.4219 28.7752 48.7223 26.8785 49.0158 24.9749C49.0295 24.7825 49.166 24.5969 49.364 24.5763C49.6166 24.5626 49.8691 24.5694 50.1286 24.5694C50.3334 24.5694 50.5245 24.755 50.5245 24.968C50.5245 25.2635 50.4972 25.5659 50.4904 25.8682C50.6543 25.7652 50.7567 25.6003 50.8932 25.4766V25.4766ZM25.3743 24.6038C25.7429 24.5282 26.1252 24.5901 26.4939 24.5694C26.7055 24.542 26.9308 24.6794 26.9649 24.8925C26.9923 25.0849 26.9376 25.2704 26.9171 25.456C26.6372 27.2222 26.3573 28.9883 26.0842 30.7544C26.0637 30.9538 25.9 31.153 25.6883 31.1461C25.3197 31.1461 24.951 31.153 24.5755 31.1393C24.3434 31.1117 24.1727 30.8438 24.2342 30.617C24.5278 28.7822 24.8077 26.9541 25.1012 25.1192C25.1149 24.9199 25.1695 24.6863 25.3743 24.6038V24.6038ZM47.4661 24.6932C46.4489 24.5007 45.4112 24.3633 44.3803 24.4664C43.4587 24.5832 42.5302 25.0024 41.9637 25.7652C41.1785 26.7685 40.9123 28.1155 41.0897 29.3663C41.1854 29.9641 41.4447 30.5689 41.9295 30.9399C42.38 31.2905 42.9876 31.3385 43.5338 31.2492C44.2984 31.098 44.9469 30.6033 45.4795 30.0535C45.5067 30.2871 45.4521 30.5208 45.4658 30.7476C45.4795 30.9605 45.6706 31.1598 45.8822 31.1461H46.5786C46.7834 31.1461 46.9541 30.9537 46.9678 30.7544C47.2613 28.892 47.5549 27.0365 47.8416 25.1811C47.8825 24.9474 47.6982 24.7207 47.4661 24.6932V24.6932ZM45.5478 27.9299C45.2747 28.4454 44.8923 28.9127 44.4622 29.3112C44.2165 29.5174 43.9024 29.7304 43.568 29.6617C43.2403 29.593 43.0832 29.2494 43.0082 28.9539C42.8375 28.1842 42.9945 27.3458 43.4246 26.6792C43.6157 26.3699 43.9229 26.1363 44.2779 26.0401C44.7763 25.9164 45.302 25.9782 45.7867 26.1157L45.814 26.1432C45.7526 26.741 45.6365 27.3321 45.5478 27.9299V27.9299ZM34.0649 26.8991C34.0581 26.2119 33.8738 25.4904 33.3959 24.9749C33.0682 24.6107 32.5767 24.4252 32.0988 24.432C31.3068 24.4046 30.5627 24.7963 29.9825 25.3185C29.8527 25.4216 29.764 25.5728 29.6207 25.6553C29.6207 25.4284 29.6411 25.2017 29.6342 24.9681C29.6411 24.755 29.4431 24.5694 29.2383 24.5694H28.5419C28.3235 24.5694 28.146 24.7619 28.1323 24.9749C27.7022 27.7238 27.2654 30.4726 26.8353 33.2215C26.7739 33.4757 26.9923 33.7369 27.2517 33.73C27.634 33.7232 28.0232 33.7575 28.3986 33.7025C28.699 33.62 28.6922 33.2695 28.74 33.0153C28.8492 32.4105 28.9243 31.8058 28.9926 31.1941C30.3375 31.4553 31.9008 31.2767 32.9044 30.2527C33.7236 29.3525 34.1059 28.1086 34.0649 26.8991V26.8991ZM32.1534 27.5932C32.1125 28.2254 31.8872 28.8646 31.4503 29.3249C30.8837 29.8679 30.0234 29.7922 29.3271 29.6068C29.3135 29.5861 29.2929 29.5449 29.2861 29.5243C29.3953 28.9264 29.45 28.3217 29.5865 27.7307C29.9688 27.0985 30.433 26.4593 31.0952 26.1089C31.341 25.9921 31.6755 26.0195 31.853 26.2463C32.1534 26.6243 32.1807 27.1328 32.1534 27.5932V27.5932Z" fill="white" stroke="white" stroke-width="0.00244663"/>
<defs>
<linearGradient id="paint0_linear_634_1234" x1="70.0919" y1="20.7031" x2="70.0919" y2="33.9995" gradientUnits="userSpaceOnUse">
<stop stop-color="#F7E830"/>
<stop offset="1" stop-color="#FDCB06"/>
</linearGradient>
<radialGradient id="paint1_radial_634_1234" cx="0" cy="0" r="1" gradientUnits="userSpaceOnUse" gradientTransform="translate(70.0228 26.769) scale(10.7439 10.8151)">
<stop offset="0.596" stop-color="#F29405"/>
<stop offset="0.736" stop-color="#F7D01E"/>
<stop offset="1" stop-color="#FDCB06"/>
</radialGradient>
<linearGradient id="paint2_linear_634_1234" x1="73.7675" y1="21.1834" x2="73.7713" y2="21.8131" gradientUnits="userSpaceOnUse">
<stop stop-color="#FADA1C"/>
<stop offset="1" stop-color="#FDCB06"/>
</linearGradient>
<linearGradient id="paint3_linear_634_1234" x1="66.41" y1="21.1522" x2="66.4062" y2="21.7818" gradientUnits="userSpaceOnUse">
<stop stop-color="#FADA1C"/>
<stop offset="1" stop-color="#FDCB06"/>
</linearGradient>
</defs>
</svg>
