<svg xmlns="http://www.w3.org/2000/svg" width="93" height="52" fill="none" viewBox="0 0 93 52"><path fill="#1c95da" fill-rule="evenodd" d="M0 8a8 8 0 0 1 8-8h77a8 8 0 0 1 8 8v13.1a5.002 5.002 0 0 0 0 9.8V44a8 8 0 0 1-8 8H8a8 8 0 0 1-8-8V30.9a5.002 5.002 0 0 0 0-9.8z" clip-rule="evenodd"/><path fill="url(#a)" stroke="#fcd109" stroke-width=".002" d="m78.098 20.771-.022-.068-15.968.002a.1.1 0 0 0-.024.052q0 6.233-.003 12.465c.034.222.155.423.317.575.007.002.023.004.03.007.083.088.202.13.314.171.083-.004.164.032.247.023h6.607c.063-.002.128.01.19-.016l.006-.034c.002-.011.004-.036.007-.05.141-.796.278-1.594.429-2.39l.013-.102c-.61-.003-1.224 0-1.836-.003-.148-.004-.3 0-.45-.018-.253-.011-.51-.002-.763-.027-.315 0-.627-.03-.942-.03-.247-.024-.496-.015-.746-.026-.162-.02-.328-.012-.492-.019-.267-.029-.54-.009-.807-.038-.283.002-.566-.023-.85-.03.003-.002.005-.01.005-.013.095.002.187-.005.281-.007.21-.027.42-.009.63-.038.217 0 .433-.03.651-.03.193-.027.389-.011.582-.038.227 0 .45-.03.677-.032.186-.025.375-.011.561-.036.218.002.434-.032.652-.03.214-.024.432-.018.645-.04l-.054-.251c-.016-.052-.079-.041-.119-.048q-.731-.106-1.458-.208c.031-.025.074-.014.11-.018.377-.03.752-.063 1.13-.09.086-.005.169-.02.254-.023-.038-.118-.06-.247-.112-.355-.807-.125-1.614-.235-2.419-.369.21-.034.42-.05.63-.072l.018-.007c.667-.07 1.337-.15 2.004-.215.848-.005 1.693-.002 2.54 0 .027-.005.074.009.078-.03l.207-1.099a5.5 5.5 0 0 1 .486-1.475c.37-.746.957-1.38 1.672-1.8.667-.394 1.44-.584 2.209-.62q.376-.033.748.015c.162.039.328.084.456.195a.77.77 0 0 1 .216.34c.103.3.162.612.211.927.002.127.025.269-.043.384-.062.113-.188.168-.307.202-.434.113-.888.006-1.322.113-.357.077-.69.276-.917.563-.267.335-.409.751-.487 1.167-.061.371-.137.742-.198 1.116.427.002.856-.003 1.285.002.171 0 .347.095.416.258.09.208.07.443.04.663a2.4 2.4 0 0 1-.204.717c-.092.192-.245.369-.454.436-.108.043-.225.034-.34.034-.377 0-.754.005-1.132 0-.06.279-.101.564-.155.846l-.294 1.654-.005.077c.178.009.355 0 .533.004q1.976-.002 3.955 0a.8.8 0 0 0 .41-.1c.073-.026.118-.092.183-.128.063-.036.081-.11.135-.158.059-.105.12-.213.124-.335l.034-.005c-.007-4.162 0-8.325-.005-12.487Z"/><path fill="#f8f3b5" d="M64.178 18.035c.191-.061.391-.02.587-.034q5.505.002 11.01 0c.217-.01.408.115.61.179.162.065.33.117.493.187.033.014.058.043.083.068-.003.299 0 .6 0 .9.002.08-.011.161.015.238.048.007.072.043.104.073.148.067.274.178.409.269.202.145.418.271.616.42a.4.4 0 0 1-.016.175c-.02.063-.007.13-.014.194l-15.967.002c-.011-.074.01-.149-.022-.219-.005-.059-.025-.136.031-.176.225-.159.463-.301.683-.469q.205-.132.403-.269c.027-.045.018-.102.018-.151l.002-.985c.076-.099.209-.11.315-.16.213-.082.429-.16.64-.242m.014.038-.866.328c-.038.007-.058.041-.078.07.002.019.004.05.004.068l-.002.815c.002.068-.007.136.018.197a.6.6 0 0 1-.097.081c-.326.213-.64.443-.966.654-.056.034-.12.079-.101.154-.011.04.009.074.051.063.706-.005 1.41.004 2.115-.007q1.574.002 3.146 0l.016-.007c.047.012.094.007.144.007q2.85.002 5.706 0 .897.002 1.798 0c.989 0 1.98.01 2.968.005q.045-.01.027-.064c-.002-.036.012-.086-.027-.108-.157-.075-.292-.19-.442-.28-.054-.046-.124-.07-.164-.132-.155-.088-.3-.197-.452-.294-.03-.018-.052-.048-.076-.073a.6.6 0 0 0 .017-.149c-.002-.287 0-.574-.002-.862.007-.045.005-.097-.036-.126-.27-.098-.537-.202-.804-.301a1 1 0 0 0-.266-.077H64.338c-.05.002-.097.027-.146.038"/><path stroke="#f8f3b5" stroke-width=".002" d="M64.178 18.035c.191-.061.391-.02.587-.034q5.505.002 11.01 0c.217-.01.408.115.61.179.162.065.33.117.493.187.033.014.058.043.083.068-.003.299 0 .6 0 .9.002.08-.011.161.015.238.048.007.072.043.104.073.148.067.274.178.409.269.202.145.418.271.616.42a.4.4 0 0 1-.016.175c-.02.063-.007.13-.014.194l-15.967.002c-.011-.074.01-.149-.022-.219-.005-.059-.025-.136.031-.176.225-.159.463-.301.683-.469q.205-.132.403-.269c.027-.045.018-.102.018-.151l.002-.985c.076-.099.209-.11.315-.16.213-.082.429-.16.64-.242m.014.038-.866.328c-.038.007-.058.041-.078.07.002.019.004.05.004.068l-.002.815c.002.068-.007.136.018.197a.6.6 0 0 1-.097.081c-.326.213-.64.443-.966.654-.056.034-.12.079-.101.154-.011.04.009.074.051.063.706-.005 1.41.004 2.115-.007q1.574.002 3.146 0l.016-.007c.047.012.094.007.144.007q2.85.002 5.706 0 .897.002 1.798 0c.989 0 1.98.01 2.968.005q.045-.01.027-.064c-.002-.036.012-.086-.027-.108-.157-.075-.292-.19-.442-.28-.054-.046-.124-.07-.164-.132-.155-.088-.3-.197-.452-.294-.03-.018-.052-.048-.076-.073a.6.6 0 0 0 .017-.149c-.002-.287 0-.574-.002-.862.007-.045.005-.097-.036-.126-.27-.098-.537-.202-.804-.301a1 1 0 0 0-.266-.077H64.338c-.05.002-.097.027-.146.038Z"/><path fill="#f7b402" stroke="#f7b402" stroke-width=".002" d="M63.252 18.54c.198.083.41.13.61.212.107.043.14.16.188.255a1 1 0 0 1-.16.122c-.206.14-.418.276-.622.421-.025-.06-.016-.129-.018-.197.002-.271 0-.543.002-.814Zm13.068.212c.2-.08.41-.134.61-.213l.002.862q0 .076-.018.15c-.176-.123-.353-.238-.529-.358-.085-.064-.18-.111-.256-.188.047-.095.083-.21.191-.253Z"/><path fill="#bda727" stroke="#bda727" stroke-width=".002" d="M66.682 18.846c.247-.059.523.163.503.423a.43.43 0 0 1-.51.405.5.5 0 0 1-.254-.174.43.43 0 0 1-.034-.412.4.4 0 0 1 .294-.242Zm6.411.142a.43.43 0 0 1 .42-.14.43.43 0 0 1 .277.222.43.43 0 0 1-.171.558.43.43 0 0 1-.517-.088.43.43 0 0 1-.009-.552Z"/><path fill="#f7e62d" stroke="#f7e62d" stroke-width=".002" d="M63.89 19.13a1 1 0 0 0 .16-.122l.016.016c.015.118.004.238.008.355-.006.353.007.708-.008 1.061-.654 0-1.308-.004-1.962 0-.018-.075.045-.12.1-.154.327-.21.641-.44.967-.654a.6.6 0 0 0 .097-.081c.204-.145.416-.28.622-.42Zm12.217-.045q-.001-.043.022-.08c.076.078.17.125.256.189.175.12.353.235.528.357.025.025.047.054.077.072.153.098.296.206.452.294.04.062.11.086.164.132.15.09.285.206.442.28.038.023.025.073.027.109-.654.002-1.306-.002-1.96.002-.01-.09-.004-.18-.006-.27 0-.361-.005-.723-.002-1.085Z"/><path fill="url(#b)" stroke="#fcd109" stroke-width=".002" d="M78.075 20.438c-.654.002-1.306-.003-1.96.002-.01-.09-.004-.181-.006-.27 0-.361-.005-.723-.002-1.085q-.001-.044.022-.08c.047-.094.083-.21.191-.253.2-.079.41-.133.61-.212.006-.046.004-.098-.037-.127-.27-.097-.537-.201-.804-.3a1 1 0 0 0-.266-.078H64.338c-.05.002-.097.027-.147.039l-.865.328c-.038.006-.058.04-.078.07.002.018.004.05.004.068.198.083.409.13.609.212.108.043.142.16.189.256l.016.016c.015.117.004.237.008.355-.006.353.007.708-.008 1.06-.655 0-1.308-.004-1.962 0-.012.042.009.076.051.064.706-.004 1.41.005 2.115-.007 1.05 0 2.097.003 3.146 0l.016-.006c.047.011.094.006.144.006 1.901 0 3.802.003 5.706 0 .597.003 1.198 0 1.797 0 .99 0 1.98.01 2.97.005q.042-.01.026-.063Zm-11.688-1.35a.4.4 0 0 1 .294-.243c.248-.059.524.163.504.423a.428.428 0 0 1-.51.405.5.5 0 0 1-.254-.174.43.43 0 0 1-.034-.412Zm6.706-.1a.43.43 0 0 1 .42-.14.43.43 0 0 1 .277.221.43.43 0 0 1-.171.559.43.43 0 0 1-.517-.088.43.43 0 0 1-.009-.552Z"/><path fill="url(#c)" stroke="#fcd109" stroke-width=".002" d="M73.666 21.43c.032.008-.164-.188-.125-.197.035.004.172-.102.337-.015.164.087.124.29.105.366a.4.4 0 0 1-.124.192c-.025.02-.08.052-.114.05.02-.111-.045-.13-.05-.242z"/><path fill="url(#d)" stroke="#fcd109" stroke-width=".002" d="M66.482 21.552c-.004.113-.07.131-.05.242-.033.003-.089-.029-.113-.05a.4.4 0 0 1-.124-.192c-.019-.075-.06-.279.105-.365.165-.087.301.02.337.015.038.009-.157.204-.126.197z"/><path fill="#bda727" stroke="#bda727" stroke-width=".002" d="M73.372 22.881c.034-.03.056-.03.101-.03-.27.589-.584 1.177-1.057 1.635q-.076.068-.16.126l-.16.115-.153.11c-.129.07-.24.168-.382.211a3.6 3.6 0 0 1-.818.267c-.11.018-.223.045-.335.048-.14.04-.288.01-.43.02-.078.014-.148-.032-.224-.023a4 4 0 0 1-.397-.081c-1.03-.324-2.042-1.115-2.336-2.186a1.2 1.2 0 0 1-.02-.219q.047.095.098.189c.419.92 1.25 1.644 2.233 1.862.08.036.166.024.242.055.07 0 .137-.002.204.02.232.005.463.003.695.003.031.002.06-.014.092-.02.386-.014.764-.12 1.116-.28q.105-.048.208-.103a2.3 2.3 0 0 0 .337-.218 3.7 3.7 0 0 0 1.02-1.256z"/><path fill="#0d69b3" stroke="#0d69b3" stroke-width=".002" d="M73.005 24.891c.668-.394 1.44-.584 2.21-.62q.375-.033.748.016c.162.038.328.084.456.195-.065.004-.128-.025-.193-.034-.185-.037-.376-.023-.562-.028-.542 0-1.088.043-1.612.193a3.8 3.8 0 0 0-.797.326 4 4 0 0 0-1.135.936c-.562.65-.892 1.473-1.052 2.312-.076.45-.164.898-.234 1.35-.112.012-.227.005-.339.005q-.742-.003-1.483-.009c-.106.005-.21-.02-.315-.014-.899.005-1.798-.002-2.697-.002l.018-.007c.668-.07 1.338-.149 2.005-.215q1.27-.005 2.54 0c.026-.004.074.01.078-.029l.207-1.1c.097-.508.25-1.01.485-1.474a4.34 4.34 0 0 1 1.672-1.801Z"/><path fill="#107bd4" stroke="#107bd4" stroke-width=".002" d="M74.053 24.614c.523-.15 1.07-.192 1.611-.192.186.004.378-.01.562.027.065.01.128.038.193.034a.77.77 0 0 1 .216.34c.103.3.162.612.211.927.002.127.025.269-.043.384-.062.113-.188.168-.307.202-.434.113-.888.007-1.322.113-.357.077-.69.276-.917.563-.267.335-.409.751-.488 1.167-.06.371-.137.742-.197 1.116-.027.083-.043.174-.059.262.425.007.85 0 1.275.005.161-.005.323.004.485-.007.09.208.07.443.04.663a2.4 2.4 0 0 1-.204.717c-.092.192-.245.369-.454.436-.108.043-.225.034-.34.034-.377 0-.754.005-1.132 0-.06.279-.101.564-.155.846q-.148.825-.294 1.654l-.005.077v.002q-1.472.002-2.944 0l.007-.034c.002-.011.004-.036.007-.05l.006.068c.061.007.171.039.187-.05.153-.832.294-1.669.452-2.501a.5.5 0 0 0-.187-.003l-.03.095.014-.102c-.61-.002-1.225 0-1.836-.002-.148-.004-.3 0-.45-.018-.253-.011-.51-.002-.763-.027-.315 0-.627-.03-.942-.03-.247-.024-.496-.015-.746-.027-.162-.02-.328-.01-.492-.018-.267-.03-.54-.009-.807-.038-.283.002-.566-.023-.85-.03l.005-.013c.095.002.187-.005.281-.007.21-.027.42-.009.63-.038.217 0 .433-.03.651-.03.193-.027.389-.011.582-.038.227 0 .45-.03.676-.032.187-.025.376-.011.562-.036.218.002.434-.032.652-.03.214-.024.431-.018.645-.04l-.054-.251c-.016-.052-.079-.041-.119-.048q-.731-.106-1.459-.208c.032-.025.075-.014.11-.018.378-.03.754-.064 1.131-.09.085-.005.169-.02.254-.023-.038-.118-.06-.247-.112-.355-.807-.125-1.614-.236-2.419-.37.21-.033.42-.049.63-.072.899 0 1.798.007 2.697.003.105-.007.209.018.314.013l1.483.01c.113 0 .227.006.34-.005.07-.453.157-.9.233-1.35.16-.84.49-1.663 1.052-2.313.315-.38.703-.696 1.135-.936a3.8 3.8 0 0 1 .798-.326Z"/><path fill="#0d69b3" stroke="#0d69b3" stroke-width=".002" d="M73.572 29.293c.427.002.856-.002 1.285.002.171 0 .347.095.416.258-.162.011-.323.002-.485.007-.425-.005-.85.002-1.274-.005a2 2 0 0 1 .058-.262Zm-3.315 2.12a.5.5 0 0 1 .187.002c-.158.832-.3 1.67-.452 2.502-.016.088-.126.056-.187.05l-.006-.068c.141-.796.278-1.595.429-2.391z"/><path fill="#fff" stroke="#fff" stroke-width=".002" d="M73.768 21.496a.24.24 0 0 1-.02-.113l-.018.002c-.027-.1-.11-.194-.218-.199-.08-.007-.182-.005-.23.073-.09.122-.046.278-.05.416l.001.034q0 .138-.027.273a.2.2 0 0 0-.02.089 2.1 2.1 0 0 1-.218.615.2.2 0 0 0-.043.088 3 3 0 0 1-.231.335q-.02.017-.036.038a2 2 0 0 1-.186.197q-.022.015-.04.03a1.5 1.5 0 0 1-.255.2l-.036.026c-.575.382-1.274.54-1.955.547a3.6 3.6 0 0 1-1.681-.357l-.04-.018c-.088-.048-.178-.088-.259-.147l-.056-.03a2 2 0 0 1-.236-.167c-.025-.023-.052-.04-.079-.061a2 2 0 0 1-.233-.215l-.054-.057a2.26 2.26 0 0 1-.537-.907c-.097-.269-.084-.563-.095-.846-.08-.124-.251-.194-.386-.117-.056.04-.063.115-.106.167-.07.747.247 1.49.753 2.03q0 .026.025.035.134.128.267.251a.4.4 0 0 0 .054.046c.09.074.187.142.28.212l.057.037c.124.072.24.158.373.208l.034.022a4 4 0 0 0 1.36.392q.077 0 .154.015c.225.014.45.007.675.003.694-.061 1.411-.231 1.99-.643l.008.01.051-.044a6 6 0 0 0 .335-.269c.099-.108.214-.208.297-.332l.013.006.025-.045q.113-.157.213-.321c.005-.007.016-.018.02-.025l-.008-.01.029-.035c.124-.254.234-.518.272-.799a.04.04 0 0 0 .025-.036c.002-.09.033-.177.024-.267.02-.11.023-.224.018-.337Z"/><path stroke="#d1d1d1" stroke-width=".048" d="M66.251 21.417c.183.057.601-.088.72.045m-.615.512c.175-.06.55-.205.704-.12m-.524.678c.085.028.25-.121.333-.165.123-.065.25-.115.386-.136m-.45.89c.088-.125.192-.228.318-.317.124-.087.465-.321.612-.241m-.675.98c.1-.08.14-.219.243-.302.126-.1.318-.119.447-.18m-.266.795c.03-.219.25-.483.46-.464m-.135.77c.112-.012.206-.262.281-.348.113-.127.23-.166.379-.21m-.015.829c-.007-.159.155-.612.344-.588m.135.739c-.008-.187.088-.75.315-.77m.18 1.071c-.043-.261-.04-.64.164-.83m.45.89c-.023-.218-.238-.658 0-.829m.659.679c-.103-.12-.162-.593-.12-.724m.75.618c-.08-.145-.178-.28-.208-.449-.018-.1.013-.243-.002-.32m.734.543c-.172-.113-.22-.53-.165-.709m.674.483c-.122-.264-.253-.469-.255-.77m.75.287c-.19-.129-.433-.362-.405-.618m.929.21c-.289-.063-.635-.323-.81-.557m1.05.06c-.209-.045-.897-.315-.854-.588m1.078.06c-.29-.107-.712-.203-.944-.407m1.094-.075c-.183.016-.445-.073-.63-.106-.207-.036-.398-.106-.598-.15m1.048-.212c-.352.021-.683-.1-1.003-.21"/><path fill="#fff" stroke="#fff" stroke-width=".002" d="M26.118 22.068c.362-.055.779-.09 1.086.137.191.145.26.406.246.64.013.384-.164.797-.505.996-.3.165-.663.179-.997.144a.75.75 0 0 1-.567-.357c-.26-.598.062-1.443.737-1.56Zm-10.827.433c.02-.206.205-.392.416-.385 1.577 0 3.148.007 4.718 0 .17-.014.355.062.437.213.116.206.013.433 0 .646-.048.289-.034.674-.369.784-1.147.034-2.294 0-3.44.013-.11.729-.212 1.45-.322 2.172 0 .027.007.09.007.117.84-.007 1.68 0 2.52-.007.232-.014.477.185.457.433-.02.254-.075.501-.11.756a.45.45 0 0 1-.34.364c-.936.02-1.885-.02-2.82.02-.15 1.038-.328 2.076-.485 3.114-.02.206-.184.384-.39.391q-.582.01-1.167 0c-.252.007-.457-.275-.389-.515.417-2.708.847-5.408 1.277-8.116Zm6.936-.371c.355-.028.717-.007 1.072-.014a.44.44 0 0 1 .457.385c0 .179-.047.357-.068.536-.287 1.842-.58 3.684-.867 5.525-.041.296-.116.612-.027.914.102.303.56.172.669.488.068.254-.007.522-.028.784-.02.343-.41.419-.675.494-.58.11-1.284.028-1.7-.453-.3-.35-.321-.846-.26-1.285.362-2.337.724-4.673 1.093-7.017a.415.415 0 0 1 .334-.357Zm13.552.371a.43.43 0 0 1 .41-.385h1.037c.26-.007.47.275.41.522-.24 1.526-.485 3.052-.724 4.577.362-.055.771-.123 1.024-.419a6.4 6.4 0 0 0 1.03-1.622c.09-.227.137-.556.43-.598.39-.013.786-.006 1.175 0 .266-.006.464.296.376.543-.103.364-.274.701-.451 1.024-.396.646-.833 1.285-1.407 1.794.253.763.574 1.505.854 2.254.082.247.28.536.096.777-.212.288-.608.144-.902.178-.307-.034-.75.124-.921-.227-.321-.749-.587-1.518-.915-2.268-.191.007-.39.014-.58-.006l-.055.11c-.102.687-.212 1.374-.32 2.061-.042.165-.172.31-.35.323-.36.014-.73.007-1.098.007a.43.43 0 0 1-.369-.24c-.068-.138-.027-.296-.007-.447.424-2.653.84-5.305 1.257-7.958Zm18.971.749a.425.425 0 0 1 .424-.316c.273.007.553-.007.833.007.225.007.402.233.375.453-.04.392-.137.784-.164 1.175.266 0 .54-.006.806 0 .239 0 .437.248.396.481-.035.214-.082.42-.116.633a.45.45 0 0 1-.355.35c-.328.02-.649-.014-.97.02-.136.922-.286 1.842-.43 2.763-.02.213-.034.454.089.64.184.226.505.144.765.171a.45.45 0 0 1 .3.495c-.034.234-.041.467-.096.694-.082.254-.375.303-.6.364-.622.165-1.338.165-1.892-.199-.512-.35-.593-1.03-.539-1.608.143-1.113.369-2.22.492-3.34-.191.007-.424.034-.567-.137-.164-.172-.082-.426-.054-.64.04-.226.034-.522.28-.645.197-.076.423-.021.634-.049.13-.44.253-.879.39-1.312Zm-3.857 2.227c.43-.433.95-.79 1.543-.97.26-.116.594.104.587.392-.048.378-.136.75-.198 1.12a.44.44 0 0 1-.369.365c-.669.116-1.249.522-1.713 1.003-.116.144-.287.282-.307.481q-.217 1.443-.444 2.886c-.02.206-.198.406-.41.392h-1.037c-.24.014-.45-.227-.424-.467.3-1.904.601-3.8.895-5.704.014-.193.15-.378.348-.399.253-.013.505-.007.765-.007.204 0 .396.186.396.399 0 .296-.028.598-.035.9.164-.103.267-.268.403-.391Zm-25.519-.873c.369-.076.751-.014 1.12-.035.212-.027.437.11.47.323.028.193-.026.378-.047.564q-.422 2.649-.833 5.298c-.02.2-.184.399-.396.392-.368 0-.737.007-1.112-.007-.233-.027-.403-.295-.342-.522.294-1.835.574-3.663.867-5.498.014-.2.069-.433.273-.515Zm22.092.09c-1.017-.193-2.055-.33-3.086-.228-.921.117-1.85.536-2.416 1.3-.785 1.003-1.052 2.35-.874 3.6.095.598.355 1.203.84 1.574.45.35 1.058.398 1.604.31.764-.152 1.413-.647 1.946-1.197.027.234-.028.468-.014.695.014.212.205.412.416.398h.697c.204 0 .375-.192.389-.392q.442-2.792.874-5.573c.04-.234-.144-.46-.376-.488Zm-1.918 3.236a5.3 5.3 0 0 1-1.086 1.381c-.245.206-.56.42-.894.35-.328-.068-.485-.412-.56-.707a3.04 3.04 0 0 1 .417-2.275 1.46 1.46 0 0 1 .853-.639c.498-.124 1.024-.062 1.509.076l.027.027c-.061.598-.178 1.19-.266 1.787ZM34.065 26.9c-.007-.688-.191-1.41-.67-1.925-.327-.364-.818-.55-1.296-.543-.792-.027-1.536.364-2.116.887-.13.103-.219.254-.362.336 0-.227.02-.453.013-.687.007-.213-.19-.399-.396-.399h-.696c-.219 0-.396.193-.41.406-.43 2.749-.867 5.498-1.297 8.246a.426.426 0 0 0 .417.509c.382-.007.771.028 1.147-.027.3-.083.293-.434.341-.688.11-.605.184-1.21.253-1.82 1.345.26 2.908.082 3.911-.942.82-.9 1.202-2.144 1.16-3.354Zm-1.912.693c-.04.632-.266 1.272-.703 1.732-.566.543-1.427.467-2.123.282a.5.5 0 0 1-.04-.083c.108-.598.163-1.202.3-1.793.382-.633.846-1.272 1.508-1.622.246-.117.58-.09.758.137.3.378.328.887.3 1.347Z"/><defs><linearGradient id="a" x1="70.092" x2="70.092" y1="20.703" y2="33.999" gradientUnits="userSpaceOnUse"><stop stop-color="#f7e830"/><stop offset="1" stop-color="#fdcb06"/></linearGradient><linearGradient id="c" x1="73.767" x2="73.771" y1="21.183" y2="21.813" gradientUnits="userSpaceOnUse"><stop stop-color="#fada1c"/><stop offset="1" stop-color="#fdcb06"/></linearGradient><linearGradient id="d" x1="66.41" x2="66.406" y1="21.152" y2="21.782" gradientUnits="userSpaceOnUse"><stop stop-color="#fada1c"/><stop offset="1" stop-color="#fdcb06"/></linearGradient><radialGradient id="b" cx="0" cy="0" r="1" gradientTransform="matrix(10.7439 0 0 10.8151 70.023 26.769)" gradientUnits="userSpaceOnUse"><stop offset=".596" stop-color="#f29405"/><stop offset=".736" stop-color="#f7d01e"/><stop offset="1" stop-color="#fdcb06"/></radialGradient></defs></svg>