<svg xmlns="http://www.w3.org/2000/svg" width="316" height="29" fill="none" viewBox="0 0 316 29"><path fill="#114899" fill-rule="evenodd" d="M290.3 0c2.541 0 5.013 1.058 7.022 3.005l6.214 6.037c3.266 3.173 7.228 4.997 11.339 5.254l.992.028c-4.468 0-8.803 1.858-12.331 5.282l-6.214 6.037c-2.009 1.947-4.481 3.01-7.022 3.01H25.567c-2.54 0-5.013-1.063-7.022-3.01l-6.214-6.037C8.803 16.182 4.464 14.324 0 14.324l.991-.028c4.112-.257 8.073-2.081 11.34-5.254l6.214-6.037C20.554 1.058 23.026 0 25.567 0z" clip-rule="evenodd"/></svg>