<svg xmlns="http://www.w3.org/2000/svg" width="30" height="24" fill="none" viewBox="0 0 30 24"><path fill="#fff" d="M1.225 0C1.9 0 2.45.548 2.45 1.225v10.1c0 .293.254.523.546.497 7.756-.684 12.83-1.031 19.343-.62 3.262.205 4.894.309 5.977 1.463 1.02 1.087 1.08 2.669 1.083 5.709v.001l.001.001v3.674a1.226 1.226 0 0 1-2.45 0V20.1a.5.5 0 0 0-.5-.5H2.95a.5.5 0 0 0-.5.5v1.95a1.226 1.226 0 0 1-2.45 0V1.225C0 .548.548 0 1.225 0m3.25 3.89c.746-.274 1.3-.292 2.047-.018.243.089.364.133.452.244.087.111.105.261.14.56.147 1.28.427 3.062.04 5.414-.043.259-.065.389-.154.494-.09.105-.21.147-.453.23-.742.255-1.277.302-2.083.013-.23-.082-.345-.123-.433-.23s-.107-.24-.145-.504c-.282-1.949-.283-3.299.005-5.45.036-.27.054-.406.141-.514.087-.109.206-.153.443-.24"/></svg>