<svg xmlns="http://www.w3.org/2000/svg" width="19" height="19" fill="none" viewBox="0 0 19 19"><path fill="#fff" fill-rule="evenodd" d="M5.62 2.876a6.906 6.906 0 0 1 11.903 6.872l-1.079 2.389c-.318.705-.37 1.523-.424 2.339-.059.916-.118 1.831-.552 2.583a2.33 2.33 0 0 1-3.18.852L1.164 11.49a2.33 2.33 0 0 1-.853-3.18c.435-.754 1.199-1.263 1.964-1.773.682-.454 1.365-.909 1.818-1.538zM2.836 14.509c.068-.513.667-.675 1.086-.372a25 25 0 0 0 4.695 2.716c.47.21.628.807.22 1.12a3.75 3.75 0 0 1-6-3.464" clip-rule="evenodd"/></svg>