<svg xmlns="http://www.w3.org/2000/svg" width="93" height="52" fill="none" viewBox="0 0 93 52"><path fill="#4dadb3" fill-rule="evenodd" d="M0 8a8 8 0 0 1 8-8h77a8 8 0 0 1 8 8v13.1a5.002 5.002 0 0 0 0 9.8V44a8 8 0 0 1-8 8H8a8 8 0 0 1-8-8V30.9a5.002 5.002 0 0 0 0-9.8z" clip-rule="evenodd"/><path fill="#fff" fill-rule="evenodd" d="M20.745 18.91c0 1.652 1.01 3.233 2.833 3.233 1.805 0 2.798-1.545 2.798-3.233 0-2.173-1.576-3.089-2.815-3.089-1.435 0-2.816 1.096-2.816 3.089m5.595-3.672h.707v7.39h-.707v-1.31c-.727 1.13-1.877 1.508-2.816 1.508-1.894 0-3.523-1.454-3.523-3.861 0-2.263 1.416-3.825 3.523-3.825 1.133 0 2.125.449 2.816 1.436z" clip-rule="evenodd"/><path stroke="#fff" stroke-width=".194" d="M20.745 18.91c0 1.652 1.01 3.233 2.833 3.233 1.805 0 2.798-1.545 2.798-3.233 0-2.173-1.576-3.089-2.815-3.089-1.435 0-2.816 1.096-2.816 3.089Zm5.595-3.672h.707v7.39h-.707v-1.31c-.727 1.13-1.877 1.508-2.816 1.508-1.894 0-3.523-1.454-3.523-3.861 0-2.263 1.416-3.825 3.523-3.825 1.133 0 2.125.449 2.816 1.436z" clip-rule="evenodd"/><path fill="#fff" fill-rule="evenodd" d="M41.882 18.91c0 1.652 1.01 3.233 2.833 3.233 1.806 0 2.798-1.545 2.798-3.233 0-2.173-1.575-3.089-2.815-3.089-1.434 0-2.816 1.096-2.816 3.089m5.596-3.672h.708v7.39h-.708v-1.31c-.727 1.13-1.877 1.508-2.815 1.508-1.895 0-3.523-1.454-3.523-3.861 0-2.263 1.416-3.825 3.523-3.825 1.132 0 2.125.449 2.815 1.436z" clip-rule="evenodd"/><path stroke="#fff" stroke-width=".194" d="M41.882 18.91c0 1.652 1.01 3.233 2.833 3.233 1.806 0 2.798-1.545 2.798-3.233 0-2.173-1.575-3.089-2.815-3.089-1.434 0-2.816 1.096-2.816 3.089Zm5.596-3.672h.708v7.39h-.708v-1.31c-.727 1.13-1.877 1.508-2.815 1.508-1.895 0-3.523-1.454-3.523-3.861 0-2.263 1.416-3.825 3.523-3.825 1.132 0 2.125.449 2.815 1.436z" clip-rule="evenodd"/><path fill="#fff" fill-rule="evenodd" d="M38.805 15.856v6.65h-.78v-6.65h-2.65v-.716h6.085v.715z" clip-rule="evenodd"/><path stroke="#fff" stroke-width=".194" d="M38.805 15.856v6.65h-.78v-6.65h-2.65v-.716h6.085v.715z" clip-rule="evenodd"/><path fill="#fff" fill-rule="evenodd" d="M35.375 22.506h-.744v-3.607c0-1.987-1.38-3.078-2.815-3.078-1.24 0-2.815.912-2.815 3.078l.036 3.607h-.709V15.14h.709v1.431c.69-.984 1.682-1.431 2.815-1.431 2.106 0 3.523 1.557 3.523 3.812z" clip-rule="evenodd"/><path stroke="#fff" stroke-width=".194" d="M35.375 22.506h-.744v-3.607c0-1.987-1.38-3.078-2.815-3.078-1.24 0-2.815.912-2.815 3.078l.036 3.607h-.709V15.14h.709v1.431c.69-.984 1.682-1.431 2.815-1.431 2.106 0 3.523 1.557 3.523 3.812z" clip-rule="evenodd"/><path fill="#fff" fill-rule="evenodd" d="M74.448 22.506h-.743v-3.607c0-1.987-1.38-3.078-2.815-3.078-1.24 0-2.815.912-2.815 3.078l.035 3.607h-.708V15.14h.709v1.431c.69-.984 1.682-1.431 2.814-1.431 2.107 0 3.523 1.557 3.523 3.812z" clip-rule="evenodd"/><path stroke="#fff" stroke-width=".194" d="M74.448 22.506h-.743v-3.607c0-1.987-1.38-3.078-2.815-3.078-1.24 0-2.815.912-2.815 3.078l.035 3.607h-.708V15.14h.709v1.431c.69-.984 1.682-1.431 2.814-1.431 2.107 0 3.523 1.557 3.523 3.812z" clip-rule="evenodd"/><path fill="#fff" fill-rule="evenodd" d="M78.876 16.65a1.31 1.31 0 0 0-1.245-.827c-.806 0-1.21.628-1.21 1.167 0 .718.561.952 1.263 1.24.719.286 1.385.484 1.84 1.076.298.378.369.773.369 1.186 0 1.67-1.228 2.334-2.332 2.334-1.193 0-2.174-.718-2.472-1.94l.684-.215c.246.97 1 1.472 1.789 1.472.912 0 1.595-.665 1.595-1.616 0-.826-.509-1.132-1.595-1.58-.72-.306-1.245-.54-1.56-.97a1.56 1.56 0 0 1-.316-.952c0-1.113.824-1.885 1.91-1.885.843 0 1.544.394 1.876 1.185z" clip-rule="evenodd"/><path stroke="#fff" stroke-width=".194" d="M78.876 16.65a1.31 1.31 0 0 0-1.245-.827c-.806 0-1.21.628-1.21 1.167 0 .718.561.952 1.263 1.24.719.286 1.385.484 1.84 1.076.298.378.369.773.369 1.186 0 1.67-1.228 2.334-2.332 2.334-1.193 0-2.174-.718-2.472-1.94l.684-.215c.246.97 1 1.472 1.789 1.472.912 0 1.595-.665 1.595-1.616 0-.826-.509-1.132-1.595-1.58-.72-.306-1.245-.54-1.56-.97a1.56 1.56 0 0 1-.316-.952c0-1.113.824-1.885 1.91-1.885.843 0 1.544.394 1.876 1.185z" clip-rule="evenodd"/><path fill="#fff" fill-rule="evenodd" d="M50.274 15.14v6.65h3.997v.716h-4.804V15.14z" clip-rule="evenodd"/><path stroke="#fff" stroke-width=".194" d="M50.274 15.14v6.65h3.997v.716h-4.804V15.14z" clip-rule="evenodd"/><path fill="#fff" fill-rule="evenodd" d="M18.225 17.89c0 1.504-1.046 2.227-2.59 2.227h-1.56v-4.261h1.568c1.472 0 2.492.659 2.582 2.026zm.816-.03c-.11-1.825-1.48-2.72-3.434-2.72h-2.312l-.02 7.366h.78l.02-1.673h1.526c2.04 0 3.44-.974 3.44-2.961z" clip-rule="evenodd"/><path stroke="#fff" stroke-width=".194" d="M18.225 17.89c0 1.504-1.046 2.227-2.59 2.227h-1.56v-4.261h1.568c1.472 0 2.492.659 2.582 2.026zm.816-.03c-.11-1.825-1.48-2.72-3.434-2.72h-2.312l-.02 7.366h.78l.02-1.673h1.526c2.04 0 3.44-.974 3.44-2.961z" clip-rule="evenodd"/><path fill="#fff" fill-rule="evenodd" d="M57.823 22.144c-1.773 0-3.112-1.383-3.112-3.161s1.339-3.16 3.112-3.16c.789 0 1.493.273 2.03.735l-.01.012a4 4 0 0 0-.33.488 3.9 3.9 0 0 0-.495 1.925c0 .709.18 1.364.497 1.925a2.4 2.4 0 0 0 .512-.65 3.3 3.3 0 0 1-.249-1.275c0-1.779 1.34-3.16 3.113-3.16s3.112 1.381 3.112 3.16c0 1.777-1.34 3.16-3.112 3.16-.79 0-1.494-.274-2.031-.735q.169-.21.306-.443c.338-.574.53-1.25.53-1.983s-.192-1.41-.53-1.984a2.5 2.5 0 0 0-.512.634c.181.407.281.863.281 1.349s-.101.942-.281 1.35c-.191.434-.994 1.813-2.831 1.813m5.067-7.004c-.982 0-1.862.336-2.534.902a3.9 3.9 0 0 0-2.533-.902c-2.19 0-3.872 1.67-3.872 3.843s1.682 3.843 3.872 3.843a3.9 3.9 0 0 0 2.533-.903 3.9 3.9 0 0 0 2.534.903c2.189 0 3.872-1.67 3.872-3.843S65.08 15.14 62.89 15.14" clip-rule="evenodd"/><path stroke="#fff" stroke-width=".194" d="M57.823 22.144c-1.773 0-3.112-1.383-3.112-3.161s1.339-3.16 3.112-3.16c.789 0 1.493.273 2.03.735l-.01.012a4 4 0 0 0-.33.488 3.9 3.9 0 0 0-.495 1.925c0 .709.18 1.364.497 1.925a2.4 2.4 0 0 0 .512-.65 3.3 3.3 0 0 1-.249-1.275c0-1.779 1.34-3.16 3.113-3.16s3.112 1.381 3.112 3.16c0 1.777-1.34 3.16-3.112 3.16-.79 0-1.494-.274-2.031-.735q.169-.21.306-.443c.338-.574.53-1.25.53-1.983s-.192-1.41-.53-1.984a2.5 2.5 0 0 0-.512.634c.181.407.281.863.281 1.349s-.101.942-.281 1.35c-.191.434-.994 1.813-2.831 1.813Zm5.067-7.004c-.982 0-1.862.336-2.534.902a3.9 3.9 0 0 0-2.533-.902c-2.19 0-3.872 1.67-3.872 3.843s1.682 3.843 3.872 3.843a3.9 3.9 0 0 0 2.533-.903 3.9 3.9 0 0 0 2.534.903c2.189 0 3.872-1.67 3.872-3.843S65.08 15.14 62.89 15.14Z" clip-rule="evenodd"/><path fill="url(#a)" d="M10 36a6 6 0 0 1 6-6h61a6 6 0 0 1 6 6v16H10z"/><path fill="#fff" d="M32.092 37.727V45h-1.537v-5.813h-.043l-1.665 1.044v-1.364l1.8-1.14zm5.71 5.91v-.384q0-.437.184-.803.189-.368.544-.59.358-.222.873-.223.522 0 .878.22.358.22.54.59.183.366.184.806v.383q0 .438-.185.806-.184.367-.543.586-.359.224-.874.224-.522 0-.877-.224a1.45 1.45 0 0 1-.54-.585 1.8 1.8 0 0 1-.184-.807m1.033-.384v.383q0 .252.12.476.126.224.448.224.324 0 .44-.22a1 1 0 0 0 .121-.48v-.383q0-.26-.113-.483-.114-.224-.448-.224-.319 0-.444.224a1 1 0 0 0-.124.483m-4.766-3.779v-.383q0-.44.189-.806.188-.37.543-.59.36-.22.866-.22.526 0 .881.22t.54.59q.185.366.185.806v.383q0 .441-.189.807-.184.365-.543.586-.356.216-.873.216-.52 0-.878-.22a1.5 1.5 0 0 1-.54-.586 1.8 1.8 0 0 1-.18-.803m1.041-.383v.383q0 .26.12.48.126.22.438.22.326 0 .443-.22a1 1 0 0 0 .121-.48v-.383a1.05 1.05 0 0 0-.114-.483q-.113-.224-.45-.224-.317 0-.437.227-.12.228-.121.48M34.538 45l5-7.273h.93l-5 7.273zm16.917-3.636q0 1.189-.451 2.024a3.13 3.13 0 0 1-1.222 1.275 3.45 3.45 0 0 1-1.733.436 3.44 3.44 0 0 1-1.74-.44 3.13 3.13 0 0 1-1.218-1.275q-.447-.834-.447-2.02 0-1.19.447-2.024a3.1 3.1 0 0 1 1.218-1.272 3.44 3.44 0 0 1 1.74-.44q.963 0 1.733.44.775.437 1.222 1.272.45.833.451 2.024m-1.559 0q0-.77-.23-1.3-.228-.529-.643-.803a1.73 1.73 0 0 0-.974-.273 1.73 1.73 0 0 0-.973.273q-.415.274-.646.803-.227.53-.227 1.3t.227 1.3q.232.529.646.802.416.273.973.273.558 0 .974-.273.414-.273.642-.803.231-.529.231-1.3M52.594 45v-7.273h4.815v1.268h-3.277v1.733h2.958v1.268h-2.958V45zm5.85 0v-7.273h4.815v1.268h-3.278v1.733h2.958v1.268h-2.958V45z"/><defs><linearGradient id="a" x1="49.976" x2="49.976" y1="30" y2="59.333" gradientUnits="userSpaceOnUse"><stop stop-color="#388084"/><stop offset="1" stop-color="#398085" stop-opacity="0"/></linearGradient></defs></svg>