<svg xmlns="http://www.w3.org/2000/svg" width="300" height="168" fill="none" viewBox="0 0 300 168"><g clip-path="url(#a)"><rect width="300" height="168" fill="#f7b24a" rx="14"/><path fill="#ef9630" d="M198 117h125v88H198z"/><path fill="url(#b)" d="M304.687 141.209c-.123 2.164-.709 4.309-1.954 6.083-10.934 15.575-28.396 11.643-45.708 11.45-17.938-.199-23.683 4.432-35.917 15.554-18.283 16.621-65.223 1.99-71.872 32.907a11.7 11.7 0 0 0-.236 2.428V213c-.021-.425-.479-.425-.5 0v-3.369c0-.807-.067-1.639-.236-2.428-6.649-30.917-53.589-16.286-71.872-32.907-12.234-11.122-17.978-15.753-35.917-15.554-17.312.193-34.774 4.125-45.708-11.45-1.245-1.774-1.83-3.919-1.954-6.083L-14.662 9.292C-15.117 1.262-8.728-5.5-.684-5.5h298.868c8.044 0 14.433 6.762 13.978 14.792z"/><g filter="url(#c)"><rect width="82" height="95" x="15" y="50" fill="#fdecce" rx="10" shape-rendering="crispEdges"/><path fill="#6b440b" d="M24.633 77v-6.44h1.35V77zm2.49 0v-4.74h1.25l.05.45a2.8 2.8 0 0 1 .73-.38q.45-.17.94-.17.94 0 1.37.44t.43 1.36V77h-1.35v-2.97q0-.48-.2-.68-.19-.2-.72-.2-.31 0-.63.14-.31.14-.52.35V77zm6.129 0v-3.7h-.66v-1.04h.66v-.47q0-.5.24-.89t.69-.62q.459-.23 1.08-.23.79 0 1.27.2v1a1.1 1.1 0 0 0-.39-.1 3 3 0 0 0-.46-.04q-.58 0-.83.17t-.25.55v.43h2.72V77h-1.35v-3.7h-1.37V77zm5.209 0v-4.74h1.25l.05.45a2.8 2.8 0 0 1 .73-.38q.45-.17.94-.17.94 0 1.37.44t.43 1.36V77h-1.35v-2.97q0-.48-.2-.68-.19-.2-.72-.2-.31 0-.63.14-.31.14-.52.35V77zm6.199-5.61v-1.06h1.47v1.06zm.11 5.61v-3.74h-.71l.12-1h1.94V77zm3.99.1q-.45 0-.84-.16a1.55 1.55 0 0 1-.62-.49q-.23-.33-.23-.82 0-.7.49-1.12.5-.42 1.47-.42h1.4v-.13q0-.44-.25-.62-.24-.18-.98-.18a4.9 4.9 0 0 0-1.56.25v-.95a4 4 0 0 1 .8-.21q.48-.09 1.04-.09 1.07 0 1.65.44.59.43.59 1.39V77h-1.17l-.07-.43a2 2 0 0 1-.69.39q-.41.14-1.03.14m.37-.89q.45 0 .78-.15t.52-.38v-.75h-1.37q-.79 0-.79.65 0 .63.86.63m3.222 1.99.31-2.01h1.16l-.5 2.01zm4.605-1.2v-6.44h2.7q1.45 0 2.18.75.74.74.74 2.5 0 1.66-.73 2.43-.72.76-2.19.76zm1.35-1.04h1.16q.57 0 .96-.17.39-.18.58-.64.2-.47.2-1.34t-.18-1.33-.56-.63-1-.17h-1.16zm5.288-4.57v-1.06h1.47v1.06zm.11 5.61v-3.74h-.71l.12-1h1.94V77zm2.5 0v-4.74h1.25l.05.45q.29-.22.73-.38.45-.17.94-.17.94 0 1.37.44t.43 1.36V77h-1.35v-2.97q0-.48-.2-.68-.19-.2-.72-.2-.31 0-.63.14-.31.14-.52.35V77zm8.183.1q-1.23 0-1.95-.61-.72-.62-.72-1.87 0-1.13.6-1.79.61-.67 1.81-.67 1.1 0 1.68.58.59.57.59 1.5v.86h-3.43q.11.57.52.78.42.21 1.18.21.38 0 .77-.07.4-.07.68-.18v.96a3 3 0 0 1-.77.22 5.4 5.4 0 0 1-.96.08m-1.42-2.83h2.25v-.26q0-.41-.24-.64-.24-.24-.81-.24-.67 0-.94.27-.26.27-.26.87m4.37 2.73v-4.74h1.25l.06.49q.32-.2.79-.36.48-.17.94-.23v1.02q-.27.04-.59.12a7 7 0 0 0-.61.18 3 3 0 0 0-.49.21V77zm5.351.1q-.53 0-1.01-.08a3.8 3.8 0 0 1-.77-.18v-1.12q.35.14.79.22.441.07.81.07.5 0 .7-.06.21-.06.21-.27 0-.24-.32-.35a37 37 0 0 0-.93-.31q-.65-.22-1-.53t-.35-.92q0-.68.49-1.04.5-.37 1.6-.37.44 0 .83.07.39.06.66.15v1.11a2.3 2.3 0 0 0-.62-.19 3.3 3.3 0 0 0-.65-.07q-.429 0-.69.06-.25.06-.25.26 0 .22.27.31.28.09.86.27.57.17.89.37t.45.48q.13.27.13.68 0 1.44-2.1 1.44m2.837 1.1.31-2.01h1.16l-.5 2.01zM28.046 89v-6.44h3.09q1.11 0 1.63.59.52.58.52 1.57 0 .65-.34 1.12-.33.47-.94.68.16.13.25.28.1.15.2.4l.78 1.8h-1.4l-.76-1.73a.8.8 0 0 0-.22-.31q-.12-.09-.4-.09h-1.06V89zm1.35-3.25h1.39q.53 0 .83-.23.3-.24.3-.8 0-.54-.26-.79t-.79-.25h-1.47zm7.155 3.35q-1.23 0-1.95-.61-.72-.62-.72-1.87 0-1.13.6-1.79.61-.67 1.81-.67 1.1 0 1.68.58.59.57.59 1.5v.86h-3.43q.11.57.52.78.42.21 1.18.21.38 0 .77-.07.4-.07.68-.18v.96q-.33.15-.77.22-.441.08-.96.08m-1.42-2.83h2.25v-.26q0-.41-.24-.64-.24-.24-.81-.24-.67 0-.94.27-.26.27-.26.87m6.37 4.49a9 9 0 0 1-1.09-.07 5 5 0 0 1-.93-.2v-1.01q.4.13.94.2.54.08 1.01.08.69 0 1-.08.31-.07.31-.26 0-.16-.14-.22-.13-.06-.56-.06h-1.29q-1.27 0-1.27-.94 0-.29.16-.53.159-.24.51-.38-.81-.41-.81-1.38 0-.92.57-1.33.57-.42 1.69-.42.23 0 .5.04.279.03.42.06h1.78l-.03.85h-.75q.31.29.31.81 0 .73-.46 1.17-.46.43-1.36.43a5 5 0 0 1-.31-.01l-.29-.04q-.3.04-.51.14-.2.1-.2.27 0 .23.41.23h1.34q.72 0 1.11.33.39.32.39.94 0 .7-.63 1.04t-1.82.34m.11-4q.6 0 .83-.2.24-.21.24-.7t-.24-.71q-.23-.22-.83-.22-.57 0-.82.22-.25.21-.25.71 0 .46.23.68.24.22.84.22m4.595 2.34q-.45 0-.84-.16a1.55 1.55 0 0 1-.62-.49q-.23-.33-.23-.82 0-.7.49-1.12.5-.42 1.47-.42h1.4v-.13q0-.44-.25-.62-.24-.18-.98-.18a4.9 4.9 0 0 0-1.56.25v-.95a4 4 0 0 1 .8-.21q.48-.09 1.04-.09 1.07 0 1.65.44.59.43.59 1.39V89h-1.17l-.07-.43a2 2 0 0 1-.69.39q-.41.14-1.03.14m.37-.89q.45 0 .78-.15t.52-.38v-.75h-1.37q-.79 0-.79.65 0 .63.86.63m4.997.89q-.69 0-1.01-.32-.31-.32-.31-1.02v-5.5h1.35v5.39q0 .25.1.35.1.09.29.09.26 0 .47-.07v.93q-.38.15-.89.15m1.637-5.71v-1.06h1.47v1.06zm.11 5.61v-3.74h-.71l.12-1h1.94V89zm3.989.1q-.45 0-.84-.16a1.55 1.55 0 0 1-.62-.49q-.23-.33-.23-.82 0-.7.49-1.12.5-.42 1.47-.42h1.4v-.13q0-.44-.25-.62-.24-.18-.98-.18a4.9 4.9 0 0 0-1.56.25v-.95a4 4 0 0 1 .8-.21q.48-.09 1.04-.09 1.07 0 1.65.44.59.43.59 1.39V89h-1.17l-.07-.43a2 2 0 0 1-.69.39q-.41.14-1.03.14m.37-.89q.45 0 .78-.15t.52-.38v-.75h-1.37q-.79 0-.79.65 0 .63.86.63m9.014.89q-1.62 0-2.48-.87-.86-.88-.86-2.39 0-1.6.83-2.49.84-.89 2.5-.89.58 0 1.04.09.47.08.88.23v1.18a4.7 4.7 0 0 0-1.82-.35q-1.1 0-1.58.55t-.48 1.68q0 2.12 2.08 2.12.471 0 .93-.08.46-.09.88-.26v1.19a6.1 6.1 0 0 1-1.92.29m4.347 0q-.45 0-.84-.16a1.55 1.55 0 0 1-.62-.49q-.23-.33-.23-.82 0-.7.49-1.12.5-.42 1.47-.42h1.4v-.13q0-.44-.25-.62-.24-.18-.98-.18a4.9 4.9 0 0 0-1.56.25v-.95a4 4 0 0 1 .8-.21q.48-.09 1.04-.09 1.07 0 1.65.44.59.43.59 1.39V89h-1.17l-.07-.43a2 2 0 0 1-.69.39q-.41.14-1.03.14m.37-.89q.45 0 .78-.15t.52-.38v-.75h-1.37q-.79 0-.79.65 0 .63.86.63m3.677.79v-4.74h1.25l.06.49a3.8 3.8 0 0 1 .79-.36q.48-.17.94-.23v1.02q-.27.04-.59.12a7 7 0 0 0-.61.18 3 3 0 0 0-.49.21V89zm5.515.1q-.63 0-1.13-.22a1.7 1.7 0 0 1-.77-.74q-.28-.52-.28-1.37t.31-1.43.83-.88 1.14-.3q.78 0 1.33.36v-2.26h1.35V89h-1.16l-.08-.44q-.31.27-.68.41-.36.13-.86.13m.37-.99q.63 0 1.06-.43v-2.16a1.44 1.44 0 0 0-.98-.37q-1.26 0-1.26 1.62 0 .76.31 1.05.309.29.87.29" opacity=".8"/><path fill="#684002" d="M37.942 124v-6.448l-1.378.221v-1.755l3.47-.52V124zm5.728.13q-.378 0-.845-.052a8 8 0 0 1-.91-.13 4 4 0 0 1-.78-.234v-1.742q.312.13.702.234.403.091.793.143.403.052.715.052.805 0 1.183-.247.39-.247.39-.845 0-.533-.273-.767-.261-.247-1.014-.247h-2.535v-1.053l.22-3.614h5.2l-.155 1.612h-3.25l-.091 1.521h1.092q1.521 0 2.223.676.715.663.715 1.95 0 1.248-.845 2.002-.833.741-2.535.741m4.205 1.43.416-2.769h1.781l-.702 2.769zm6.896-1.326q-1.404 0-2.262-.507t-1.248-1.482q-.377-.989-.377-2.379t.377-2.366q.39-.975 1.248-1.482.858-.52 2.262-.52 1.417 0 2.262.52.858.507 1.248 1.482t.39 2.366q0 1.39-.39 2.379-.39.975-1.248 1.482-.845.507-2.262.507m0-1.794q.989 0 1.365-.65.39-.663.39-1.924t-.39-1.911q-.377-.663-1.365-.663t-1.378.663q-.377.65-.377 1.911t.377 1.924q.39.65 1.378.65m8.595 1.794q-1.404 0-2.262-.507t-1.248-1.482q-.378-.989-.377-2.379 0-1.39.377-2.366.39-.975 1.248-1.482.858-.52 2.262-.52 1.416 0 2.262.52.858.507 1.248 1.482t.39 2.366q0 1.39-.39 2.379-.39.975-1.248 1.482-.846.507-2.262.507m0-1.794q.987 0 1.365-.65.39-.663.39-1.924t-.39-1.911q-.378-.663-1.365-.663-.988 0-1.378.663-.378.65-.377 1.911 0 1.261.377 1.924.39.65 1.378.65m8.594 1.794q-1.404 0-2.262-.507t-1.248-1.482q-.376-.989-.377-2.379 0-1.39.377-2.366.39-.975 1.248-1.482.858-.52 2.262-.52 1.418 0 2.262.52.858.507 1.248 1.482t.39 2.366q0 1.39-.39 2.379-.39.975-1.248 1.482-.844.507-2.262.507m0-1.794q.99 0 1.365-.65.39-.663.39-1.924t-.39-1.911q-.376-.663-1.365-.663-.987 0-1.378.663-.376.65-.377 1.911 0 1.261.377 1.924.39.65 1.378.65" opacity=".8"/><path fill="#684002" d="M24.712 136v-6.44h2.96q1.08 0 1.57.56.5.55.5 1.5 0 .68-.34 1.16t-.98.67q.18.13.28.28t.2.4l.81 1.87h-1.12l-.79-1.8q-.11-.26-.27-.37-.15-.11-.52-.11h-1.21V136zm1.09-3.16h1.58q.59 0 .93-.29t.34-.93q0-1.21-1.17-1.21h-1.68zm7.267 3.26q-1.24 0-1.92-.61t-.68-1.87q0-1.14.58-1.8t1.76-.66q1.08 0 1.62.57.55.56.55 1.45v.88h-3.47q.08.69.5.95t1.28.26q.36 0 .74-.07t.66-.18v.8q-.32.14-.74.21-.41.07-.88.07m-1.56-2.75h2.51v-.33q0-.49-.27-.76-.27-.28-.91-.28-.76 0-1.05.33-.28.33-.28 1.04m5.132 2.65-1.25-4.74h1.09l.82 3.45.93-2.87v-.58h.83l1.03 3.45.82-3.45h1.08L40.75 136h-1.03l-1.01-3.1-1.03 3.1zm7.442.1q-.45 0-.84-.16a1.4 1.4 0 0 1-.61-.48q-.23-.33-.23-.81 0-.68.46-1.09.47-.42 1.44-.42h1.52v-.21q0-.34-.11-.54-.1-.2-.38-.29-.27-.09-.8-.09-.84 0-1.57.25v-.81q.32-.13.78-.21.459-.08.99-.08 1.04 0 1.58.42.55.42.55 1.37V136h-.93l-.07-.48q-.291.28-.72.43-.42.15-1.06.15m.29-.78q.49 0 .85-.16.369-.17.6-.45v-.83h-1.5q-.48 0-.7.19-.21.18-.21.56 0 .37.25.53t.71.16m3.698.68v-4.74h1l.06.55q.34-.22.81-.4t.93-.25v.83a5 5 0 0 0-.61.15q-.32.09-.61.21-.29.11-.49.23V136zm5.359.1q-.64 0-1.13-.22a1.58 1.58 0 0 1-.76-.73q-.27-.51-.27-1.37 0-.85.29-1.43.29-.59.8-.89.519-.3 1.17-.3.43 0 .76.1.34.1.65.31v-2.31h1.09V136h-.93l-.07-.47a2.1 2.1 0 0 1-.7.43q-.38.14-.9.14m.29-.82a1.64 1.64 0 0 0 1.22-.5v-2.37q-.47-.42-1.18-.42-.69 0-1.04.46t-.35 1.34q0 .85.32 1.17.33.32 1.03.32m5.875.72v-6.44h2.87q.74 0 1.22.28t.71.77q.23.48.23 1.1 0 .96-.6 1.54-.59.58-1.6.58h-1.74V136zm1.09-3.03h1.54q.65 0 .98-.34t.33-.92q0-.62-.32-.96-.31-.34-.94-.34h-1.59zm7.078 3.13q-1.28 0-1.88-.64-.59-.64-.59-1.83t.6-1.83 1.87-.64q1.28 0 1.88.64t.6 1.83-.6 1.83q-.59.64-1.88.64m0-.92q.75 0 1.06-.36.32-.37.32-1.19t-.32-1.18q-.31-.36-1.06-.36-.74 0-1.06.36-.31.36-.31 1.18t.31 1.19q.32.36 1.06.36m3.745-4.91v-.9h1.19v.9zm.09 5.73v-3.91h-.72l.1-.83h1.71V136zm2.362 0v-4.74h1l.05.5q.32-.25.76-.42.45-.18.99-.18.92 0 1.34.43t.42 1.34V136h-1.08v-3.02q0-.55-.23-.77-.22-.22-.84-.22-.37 0-.73.15-.35.15-.59.39V136zm7.591.1q-.759 0-1.14-.4-.37-.41-.37-1.11v-2.48h-.7v-.85h.7v-1.09l1.08-.33v1.42h1.26l-.07.85h-1.19v2.42q0 .41.19.58.19.16.62.16.27 0 .57-.1v.77q-.39.16-.95.16m3.364 0a6 6 0 0 1-.94-.07 4.4 4.4 0 0 1-.73-.17v-.92q.34.13.75.2t.78.07q.56 0 .8-.1t.24-.39a.4.4 0 0 0-.15-.33 1.4 1.4 0 0 0-.43-.22 21 21 0 0 0-.72-.24 5 5 0 0 1-.73-.3 1.3 1.3 0 0 1-.48-.43q-.17-.26-.17-.68 0-.65.47-1 .47-.36 1.51-.36.41 0 .78.06t.63.15v.91a3.3 3.3 0 0 0-.62-.17q-.33-.06-.62-.06-.52 0-.79.09-.26.09-.26.36 0 .28.27.4.28.11.89.31.56.17.89.36t.47.46q.15.26.15.68 0 .7-.51 1.05-.51.34-1.48.34" opacity=".5"/><path stroke="#684002" d="M14.713 103h82" opacity=".15"/><path fill="#fdecce" d="M38 98h36v10H38z"/><path fill="#684002" d="M48.213 106.09q-1.196 0-1.899-.576-.693-.585-.693-1.692v-3.618h1.215v3.528q0 .666.36.999.36.324 1.017.324t1.008-.324q.36-.333.36-.999v-3.528h1.215v3.618q0 1.107-.693 1.692-.693.576-1.89.576m3.562-.09v-5.796h2.718q.684 0 1.116.261.441.261.657.711t.216 1.026q0 .585-.252 1.035a1.7 1.7 0 0 1-.702.702q-.45.243-1.071.243H52.99V106zm1.215-2.781h1.215q.522 0 .783-.27.27-.279.27-.747 0-.504-.252-.765-.252-.27-.756-.27h-1.26zM58.576 106v-4.86h-1.782v-.936h4.77v.936H59.79V106zm6.119.09q-2.817 0-2.817-2.961 0-1.593.71-2.304.712-.711 2.107-.711t2.106.711q.71.711.71 2.304 0 2.961-2.816 2.961m0-1.035q.819 0 1.197-.468.387-.477.387-1.458 0-1.089-.387-1.53-.378-.45-1.197-.45t-1.206.45q-.378.441-.378 1.53 0 .981.378 1.458.387.468 1.206.468" opacity=".5"/><circle cx="56" cy="49" r="15" fill="#fff" stroke="#ffe4a8" stroke-width="2"/><path fill="#684002" d="m57.047 42.857 1.014 2.14c.216.455.636.77 1.114.846l2.268.344c1.213.186 1.703 1.737.822 2.63l-1.638 1.661a1.58 1.58 0 0 0-.426 1.365l.385 2.35c.21 1.26-1.061 2.221-2.152 1.627l-2.029-1.108a1.45 1.45 0 0 0-1.382 0l-2.029 1.108c-1.085.594-2.356-.368-2.152-1.627l.385-2.35a1.58 1.58 0 0 0-.425-1.365l-1.639-1.662c-.88-.892-.396-2.443.822-2.63l2.268-.343a1.49 1.49 0 0 0 1.12-.846l1.015-2.14a1.46 1.46 0 0 1 2.659 0"/></g><g filter="url(#d)"><rect width="82" height="95" x="109.713" y="50" fill="#fdecce" rx="10" shape-rendering="crispEdges"/><path fill="#6b440b" d="M128.124 77.1q-3.13 0-3.13-3.29 0-1.77.79-2.56t2.34-.79 2.34.79.79 2.56q0 3.29-3.13 3.29m0-1.15q.91 0 1.33-.52.43-.53.43-1.62 0-1.21-.43-1.7-.42-.5-1.33-.5t-1.34.5q-.42.49-.42 1.7 0 1.09.42 1.62.43.52 1.34.52m5.952 1.15q-.82 0-1.22-.43-.39-.43-.39-1.17v-2.2h-.67v-1.04h.67v-1.02l1.35-.4v1.42h1.2l-.08 1.04h-1.12v2.11q0 .39.18.54.18.14.56.14.28 0 .58-.1v.93q-.22.09-.48.13-.26.05-.58.05m1.753-.1v-6.74h1.35v2.4q.29-.22.71-.36t.91-.14q.94 0 1.37.44t.43 1.36V77h-1.35v-2.97q0-.48-.2-.68-.19-.2-.72-.2-.31 0-.63.14-.31.14-.52.35V77zm8.183.1q-1.23 0-1.95-.61-.72-.62-.72-1.87 0-1.13.6-1.79.61-.67 1.81-.67 1.1 0 1.68.58.59.57.59 1.5v.86h-3.43q.11.57.52.78.42.21 1.18.21.38 0 .77-.07a3.6 3.6 0 0 0 .68-.18v.96q-.33.15-.77.22a5.4 5.4 0 0 1-.96.08m-1.42-2.83h2.25v-.26q0-.41-.24-.64-.24-.24-.81-.24-.67 0-.94.27-.26.27-.26.87m4.37 2.73v-4.74h1.25l.06.49q.32-.2.79-.36.48-.17.94-.23v1.02a7 7 0 0 0-1.2.3 3 3 0 0 0-.49.21V77zm5.927 0v-6.44h1.35v2.7h2.81v-2.7h1.35V77h-1.35v-2.7h-2.81V77zm6.651 0v-6.44h2.7q1.45 0 2.18.75.74.74.74 2.5 0 1.66-.73 2.43-.72.76-2.19.76zm1.35-1.04h1.16q.57 0 .96-.17.39-.18.58-.64.2-.47.2-1.34t-.18-1.33-.56-.63-1-.17h-1.16zm5.212 1.04v-6.44h4.53v1.05h-3.18v1.65h2.81v1.04h-2.81V77zm8.414.1q-1.62 0-2.48-.87-.86-.88-.86-2.39 0-1.6.83-2.49.84-.89 2.5-.89.58 0 1.04.09.47.08.88.23v1.18a4.7 4.7 0 0 0-1.82-.35q-1.1 0-1.58.55t-.48 1.68q0 2.12 2.08 2.12.47 0 .93-.08.46-.09.88-.26v1.19a6.1 6.1 0 0 1-1.92.29M125.643 89v-6.44h3.26q.97 0 1.44.46.48.45.48 1.28 0 .52-.2.87a1.4 1.4 0 0 1-.54.53q.45.14.71.47.27.32.27.95 0 .93-.53 1.41-.52.47-1.51.47zm1.35-3.77h1.66q.49 0 .7-.21.21-.22.21-.61 0-.43-.22-.64-.21-.21-.79-.21h-1.56zm0 2.78h1.71q.51 0 .75-.21t.24-.74q0-.43-.24-.64-.23-.21-.84-.21h-1.62zm6.498 1.09q-.45 0-.84-.16a1.55 1.55 0 0 1-.62-.49q-.23-.33-.23-.82 0-.7.49-1.12.5-.42 1.47-.42h1.4v-.13q0-.44-.25-.62-.24-.18-.98-.18a4.9 4.9 0 0 0-1.56.25v-.95q.33-.13.8-.21.48-.09 1.04-.09 1.07 0 1.65.44.59.43.59 1.39V89h-1.17l-.07-.43a2 2 0 0 1-.69.39q-.41.14-1.03.14m.37-.89q.45 0 .78-.15t.52-.38v-.75h-1.37q-.79 0-.79.65 0 .63.86.63m3.677.79v-4.74h1.25l.05.45q.29-.22.73-.38.45-.17.94-.17.94 0 1.37.44t.43 1.36V89h-1.35v-2.97q0-.48-.2-.68-.19-.2-.72-.2-.31 0-.63.14-.31.14-.52.35V89zm5.869 0v-6.74h1.35v3.71l1.77-1.71h1.54l-1.91 1.94 2.02 2.8h-1.43l-1.44-2.09-.55.53V89zm10.982.1q-1.62 0-2.48-.87-.86-.88-.86-2.39 0-1.6.83-2.49.84-.89 2.5-.89.58 0 1.04.09.47.08.88.23v1.18a4.7 4.7 0 0 0-1.82-.35q-1.1 0-1.58.55t-.48 1.68q0 2.12 2.08 2.12.47 0 .93-.08.46-.09.88-.26v1.19a6.1 6.1 0 0 1-1.92.29m4.346 0q-.45 0-.84-.16a1.55 1.55 0 0 1-.62-.49q-.23-.33-.23-.82 0-.7.49-1.12.5-.42 1.47-.42h1.4v-.13q0-.44-.25-.62-.24-.18-.98-.18a4.9 4.9 0 0 0-1.56.25v-.95q.33-.13.8-.21.48-.09 1.04-.09 1.07 0 1.65.44.59.43.59 1.39V89h-1.17l-.07-.43a2 2 0 0 1-.69.39q-.41.14-1.03.14m.37-.89q.45 0 .78-.15t.52-.38v-.75h-1.37q-.79 0-.79.65 0 .63.86.63m3.677.79v-4.74h1.25l.06.49a3.8 3.8 0 0 1 .79-.36q.48-.17.94-.23v1.02a7.3 7.3 0 0 0-1.2.3 3 3 0 0 0-.49.21V89zm5.515.1q-.63 0-1.13-.22a1.7 1.7 0 0 1-.77-.74q-.28-.52-.28-1.37t.31-1.43a2.16 2.16 0 0 1 1.97-1.18q.78 0 1.33.36v-2.26h1.35V89h-1.16l-.08-.44q-.31.27-.68.41-.36.13-.86.13m.37-.99q.63 0 1.06-.43v-2.16a1.44 1.44 0 0 0-.98-.37q-1.26 0-1.26 1.62 0 .76.31 1.05t.87.29m5.219.99q-.53 0-1.01-.08a3.8 3.8 0 0 1-.77-.18v-1.12q.35.14.79.22.44.07.81.07.5 0 .7-.06.21-.06.21-.27 0-.24-.32-.35a38 38 0 0 0-.93-.31q-.65-.22-1-.53t-.35-.92q0-.68.49-1.04.5-.37 1.6-.37.44 0 .83.07.39.06.66.15v1.11a2.3 2.3 0 0 0-.62-.19 3.3 3.3 0 0 0-.65-.07q-.43 0-.69.06-.25.06-.25.26 0 .22.27.31.28.09.86.27.57.17.89.37t.45.48q.13.27.13.68 0 1.44-2.1 1.44" opacity=".8"/><circle cx="150.713" cy="49" r="15" fill="#fff" stroke="#ffd48d" stroke-width="2"/><path fill="#684002" d="M156.856 47.746c.39 0 .586 0 .712.123s.13.315.138.695c.022.957-.017 1.891-.122 2.938-.085.846-.128 1.27-.427 1.562-.3.294-.737.327-1.61.395-3.55.275-6.122.277-9.668.004-.892-.069-1.338-.103-1.639-.402-.302-.299-.339-.737-.413-1.614a29 29 0 0 1-.112-2.874c.006-.385.009-.577.135-.702s.324-.125.718-.125zm-11.006 2.47a.617.617 0 1 0 0 1.236h1.19a.619.619 0 0 0 0-1.235zm.041-5.7c3.525-.243 6.089-.243 9.617 0 .89.062 1.335.093 1.638.387s.346.73.432 1.598q0 .01-.01.01h-12.803c-.464 0-.695 0-.825-.157s-.091-.364-.012-.779c.057-.297.143-.503.31-.667.304-.3.754-.33 1.653-.392"/><path fill="#684002" d="m135.599 124-.858-1.989q-.168-.39-.429-.546-.26-.17-.819-.169v-1.222h.767q.624 0 1.04-.221.417-.22.468-.819h-2.262v-1.248h2.249a1 1 0 0 0-.468-.663q-.351-.234-.897-.234h-.897v-1.261h5.122v1.261h-1.248q.195.156.312.39t.169.507h.767v1.248h-.754q-.09.728-.533 1.183-.441.455-1.209.689.339.195.481.429.144.221.312.598l.871 2.067zm5.201 0v-6.448l-1.378.221v-1.755l3.471-.52V124zm7.041.234q-1.404 0-2.262-.507t-1.248-1.482q-.377-.989-.377-2.379t.377-2.366q.39-.975 1.248-1.482.858-.52 2.262-.52 1.418 0 2.262.52.858.507 1.248 1.482t.39 2.366q0 1.39-.39 2.379-.39.975-1.248 1.482-.844.507-2.262.507m0-1.794q.988 0 1.365-.65.39-.663.39-1.924t-.39-1.911q-.376-.663-1.365-.663-.987 0-1.378.663-.377.65-.377 1.911t.377 1.924q.39.65 1.378.65m8.595 1.794q-1.404 0-2.262-.507t-1.248-1.482q-.377-.989-.377-2.379t.377-2.366q.39-.975 1.248-1.482.858-.52 2.262-.52 1.418 0 2.262.52.858.507 1.248 1.482t.39 2.366q0 1.39-.39 2.379-.39.975-1.248 1.482-.844.507-2.262.507m0-1.794q.988 0 1.365-.65.39-.663.39-1.924t-.39-1.911q-.376-.663-1.365-.663-.988 0-1.378.663-.377.65-.377 1.911t.377 1.924q.39.65 1.378.65m8.595 1.794q-1.404 0-2.262-.507t-1.248-1.482q-.378-.989-.377-2.379 0-1.39.377-2.366.39-.975 1.248-1.482.858-.52 2.262-.52 1.416 0 2.262.52.858.507 1.248 1.482t.39 2.366q0 1.39-.39 2.379-.39.975-1.248 1.482-.846.507-2.262.507m0-1.794q.987 0 1.365-.65.39-.663.39-1.924t-.39-1.911q-.378-.663-1.365-.663-.988 0-1.378.663-.377.65-.377 1.911t.377 1.924q.39.65 1.378.65" opacity=".8"/><path fill="#684002" d="M132.737 136.1q-1.59 0-2.41-.87-.81-.87-.81-2.35 0-1.06.34-1.82a2.54 2.54 0 0 1 1.06-1.18q.71-.42 1.81-.42.56 0 1.02.09.47.08.87.22v.95a4.2 4.2 0 0 0-.86-.24 5 5 0 0 0-.95-.09q-1.2 0-1.7.64-.49.64-.49 1.85 0 1.13.54 1.72.54.58 1.67.58.46 0 .92-.07.47-.08.88-.24v.96a5.4 5.4 0 0 1-.87.2q-.46.07-1.02.07m4.427 0q-.45 0-.84-.16a1.4 1.4 0 0 1-.61-.48q-.23-.33-.23-.81 0-.68.46-1.09.47-.42 1.44-.42h1.52v-.21q0-.34-.11-.54-.1-.2-.38-.29-.27-.09-.8-.09-.84 0-1.57.25v-.81q.32-.13.78-.21.459-.08.99-.08 1.04 0 1.58.42.55.42.55 1.37V136h-.93l-.07-.48q-.291.28-.72.43-.42.15-1.06.15m.29-.78q.49 0 .85-.16a1.66 1.66 0 0 0 .6-.45v-.83h-1.5q-.48 0-.7.19-.21.18-.21.56 0 .37.25.53t.71.16m5.278.78q-.49 0-.94-.07a4.4 4.4 0 0 1-.73-.17v-.92q.34.13.75.2.411.07.78.07.56 0 .8-.1t.24-.39a.4.4 0 0 0-.15-.33 1.3 1.3 0 0 0-.43-.22 20 20 0 0 0-.72-.24 5 5 0 0 1-.73-.3 1.3 1.3 0 0 1-.48-.43q-.17-.26-.17-.68 0-.65.47-1 .47-.36 1.51-.36.411 0 .78.06t.63.15v.91a3.2 3.2 0 0 0-.62-.17 3.5 3.5 0 0 0-.62-.06q-.52 0-.79.09-.26.09-.26.36 0 .28.27.4.28.11.89.31.56.17.89.36t.47.46q.15.26.15.68 0 .7-.51 1.05-.51.34-1.48.34m3.059-.1v-6.74h1.09v2.46q.31-.25.74-.4.43-.16.97-.16.9 0 1.33.43t.43 1.34V136h-1.08v-3.02q0-.55-.24-.77-.23-.22-.81-.22-.36 0-.73.16-.37.15-.61.4V136zm8.381.1q-.519 0-.9-.14a2.2 2.2 0 0 1-.7-.43l-.06.47h-.94v-6.74h1.09v2.31q.62-.41 1.49-.41 1.011 0 1.59.58.59.57.59 1.85 0 1.29-.58 1.9t-1.58.61m-.29-.82q.74 0 1.04-.42.31-.42.31-1.27 0-.88-.33-1.24t-1.04-.36q-.74 0-1.2.41v2.38q.47.5 1.22.5m4.991.82q-.45 0-.84-.16a1.4 1.4 0 0 1-.61-.48q-.23-.33-.23-.81 0-.68.46-1.09.47-.42 1.44-.42h1.52v-.21q0-.34-.11-.54-.1-.2-.38-.29-.27-.09-.8-.09-.84 0-1.57.25v-.81q.32-.13.78-.21.459-.08.99-.08 1.04 0 1.58.42.55.42.55 1.37V136h-.93l-.07-.48q-.291.28-.72.43-.42.15-1.06.15m.29-.78q.49 0 .85-.16a1.66 1.66 0 0 0 .6-.45v-.83h-1.5q-.48 0-.7.19-.21.18-.21.56 0 .37.25.53t.71.16m6.028.78q-1.25 0-1.89-.63-.64-.64-.64-1.84 0-1.25.7-1.86.711-.61 1.89-.61.49 0 .82.07.34.07.65.22v.81q-.519-.26-1.26-.26-.819 0-1.26.37-.44.36-.44 1.26 0 .85.39 1.25.39.39 1.29.39.711 0 1.29-.27v.83q-.33.13-.71.2-.37.07-.83.07m2.407-.1v-6.74h1.09v3.9l1.99-1.9h1.25l-1.93 1.91 2.04 2.83h-1.15l-1.57-2.25-.63.6V136z" opacity=".5"/><path stroke="#684002" d="M109.713 103h82" opacity=".15"/><path fill="#fdecce" d="M133 98h36v10h-36z"/><path fill="#684002" d="M143.213 106.09q-1.197 0-1.899-.576-.693-.585-.693-1.692v-3.618h1.215v3.528q0 .666.36.999.36.324 1.017.324t1.008-.324q.36-.333.36-.999v-3.528h1.215v3.618q0 1.107-.693 1.692-.693.576-1.89.576m3.562-.09v-5.796h2.718q.684 0 1.116.261.441.261.657.711t.216 1.026q0 .585-.252 1.035a1.7 1.7 0 0 1-.702.702q-.45.243-1.071.243h-1.467V106zm1.215-2.781h1.215q.522 0 .783-.27.27-.279.27-.747 0-.504-.252-.765-.252-.27-.756-.27h-1.26zm5.586 2.781v-4.86h-1.782v-.936h4.77v.936h-1.773V106zm6.119.09q-2.817 0-2.817-2.961 0-1.593.711-2.304t2.106-.711 2.106.711.711 2.304q0 2.961-2.817 2.961m0-1.035q.819 0 1.197-.468.387-.477.387-1.458 0-1.089-.387-1.53-.378-.45-1.197-.45t-1.206.45q-.378.441-.378 1.53 0 .981.378 1.458.387.468 1.206.468" opacity=".5"/></g><g filter="url(#e)"><rect width="82" height="95" x="204" y="50" fill="#fdecce" rx="10" shape-rendering="crispEdges"/><path fill="#6b440b" d="M225.731 77v-6.44h3.02q.76 0 1.24.29.49.29.73.79t.24 1.14q0 .65-.28 1.15-.27.5-.78.78-.5.27-1.19.27h-1.63V77zm1.35-3.09h1.35q.58 0 .87-.3.3-.31.3-.83 0-.56-.28-.85-.28-.3-.84-.3h-1.4zm5.921 3.19q-.45 0-.84-.16a1.56 1.56 0 0 1-.62-.49q-.23-.33-.23-.82 0-.7.49-1.12.501-.42 1.47-.42h1.4v-.13q0-.44-.25-.62-.24-.18-.98-.18a4.9 4.9 0 0 0-1.56.25v-.95q.33-.13.8-.21.48-.09 1.04-.09 1.071 0 1.65.44.59.43.59 1.39V77h-1.17l-.07-.43a2 2 0 0 1-.69.39q-.41.14-1.03.14m.37-.89q.45 0 .78-.15t.52-.38v-.75h-1.37q-.79 0-.79.65 0 .63.86.63m4.468 2.55q-.31 0-.55-.04-.24-.03-.47-.12v-.95a1.7 1.7 0 0 0 .61.1q.411 0 .63-.19.23-.19.46-.64l-2.12-4.66h1.41l1.39 3.22 1.38-3.22h1.4l-1.87 4.41a6.6 6.6 0 0 1-.57 1.09q-.3.48-.71.74t-.99.26m4.244-1.76v-.7l3.24-4.62h-3.08v-1.12h4.84v.82l-3.21 4.58h3.26V77zm7.481.1q-.45 0-.84-.16a1.56 1.56 0 0 1-.62-.49q-.23-.33-.23-.82 0-.7.49-1.12.5-.42 1.47-.42h1.4v-.13q0-.44-.25-.62-.24-.18-.98-.18a4.9 4.9 0 0 0-1.56.25v-.95q.33-.13.8-.21.48-.09 1.04-.09 1.07 0 1.65.44.59.43.59 1.39V77h-1.17l-.07-.43a2 2 0 0 1-.69.39q-.41.14-1.03.14m.37-.89q.45 0 .78-.15t.52-.38v-.75h-1.37q-.79 0-.79.65 0 .63.86.63m3.677 2.95v-6.9h1.17l.07.44q.31-.26.68-.4t.87-.14q1.04 0 1.6.57.57.56.57 1.84t-.61 1.91q-.6.62-1.64.62-.8 0-1.36-.36v2.42zm2.37-3.05q.6 0 .91-.37t.31-1.16q0-.76-.28-1.09-.28-.34-.9-.34t-1.06.43v2.17q.21.16.44.26.24.1.58.1m3.528 3.05v-6.9h1.17l.07.44q.31-.26.68-.4t.87-.14q1.04 0 1.6.57.57.56.57 1.84t-.61 1.91q-.6.62-1.64.62-.8 0-1.36-.36v2.42zm2.37-3.05q.6 0 .91-.37t.31-1.16q0-.76-.28-1.09-.279-.34-.9-.34-.62 0-1.06.43v2.17q.21.16.44.26.24.1.58.1M216.385 89v-6.44h3.02q.76 0 1.24.29.49.29.73.79t.24 1.14q0 .65-.28 1.15-.27.5-.78.78-.5.27-1.19.27h-1.63V89zm1.35-3.09h1.35q.58 0 .87-.3.3-.31.3-.83 0-.56-.28-.85-.279-.3-.84-.3h-1.4zm4.627 3.09v-4.74h1.25l.06.49a3.8 3.8 0 0 1 .79-.36q.48-.17.94-.23v1.02a7.3 7.3 0 0 0-1.2.3 3 3 0 0 0-.49.21V89zm6.005.1q-1.23 0-1.95-.61-.72-.62-.72-1.87 0-1.13.6-1.79.61-.67 1.81-.67 1.1 0 1.68.58.59.57.59 1.5v.86h-3.43q.11.57.52.78.42.21 1.18.21.38 0 .77-.07a3.6 3.6 0 0 0 .68-.18v.96q-.33.15-.77.22-.44.08-.96.08m-1.42-2.83h2.25v-.26q0-.41-.24-.64-.24-.24-.81-.24-.67 0-.94.27-.26.27-.26.87m4.37 4.89v-6.9h1.17l.07.44q.31-.26.68-.4t.87-.14q1.04 0 1.6.57.57.56.57 1.84t-.61 1.91q-.6.62-1.64.62-.8 0-1.36-.36v2.42zm2.37-3.05q.6 0 .91-.37t.31-1.16q0-.76-.28-1.09-.28-.34-.9-.34t-1.06.43v2.17q.21.16.44.26.24.1.58.1m5.019.99q-.45 0-.84-.16a1.55 1.55 0 0 1-.62-.49q-.23-.33-.23-.82 0-.7.49-1.12.5-.42 1.47-.42h1.4v-.13q0-.44-.25-.62-.24-.18-.98-.18a4.9 4.9 0 0 0-1.56.25v-.95q.33-.13.8-.21.48-.09 1.04-.09 1.07 0 1.65.44.59.43.59 1.39V89h-1.17l-.07-.43a2 2 0 0 1-.69.39q-.41.14-1.03.14m.37-.89q.45 0 .78-.15t.52-.38v-.75h-1.37q-.79 0-.79.65 0 .63.86.63m4.007-4.82v-1.06h1.47v1.06zm.11 5.61v-3.74h-.71l.12-1h1.94V89zm4.479.1q-.63 0-1.13-.22a1.7 1.7 0 0 1-.77-.74q-.28-.52-.28-1.37t.31-1.43a2.16 2.16 0 0 1 1.97-1.18q.78 0 1.33.36v-2.26h1.35V89h-1.16l-.08-.44q-.31.27-.68.41-.36.13-.86.13m.37-.99q.63 0 1.06-.43v-2.16a1.44 1.44 0 0 0-.98-.37q-1.26 0-1.26 1.62 0 .76.31 1.05t.87.29m8.886.99q-1.62 0-2.48-.87-.86-.88-.86-2.39 0-1.6.83-2.49.84-.89 2.5-.89.58 0 1.04.09.47.08.88.23v1.18a4.7 4.7 0 0 0-1.82-.35q-1.1 0-1.58.55t-.48 1.68q0 2.12 2.08 2.12.47 0 .93-.08.46-.09.88-.26v1.19a6.1 6.1 0 0 1-1.92.29m4.346 0q-.45 0-.84-.16a1.56 1.56 0 0 1-.62-.49q-.23-.33-.23-.82 0-.7.49-1.12.5-.42 1.47-.42h1.4v-.13q0-.44-.25-.62-.24-.18-.98-.18a4.9 4.9 0 0 0-1.56.25v-.95q.33-.13.8-.21.48-.09 1.04-.09 1.07 0 1.65.44.59.43.59 1.39V89h-1.17l-.07-.43a2 2 0 0 1-.69.39q-.41.14-1.03.14m.37-.89q.45 0 .78-.15t.52-.38v-.75h-1.37q-.79 0-.79.65 0 .63.86.63m3.677.79v-4.74h1.25l.06.49a3.8 3.8 0 0 1 .79-.36q.48-.17.94-.23v1.02a7.3 7.3 0 0 0-1.2.3 3 3 0 0 0-.49.21V89zm5.515.1q-.63 0-1.13-.22a1.7 1.7 0 0 1-.77-.74q-.28-.52-.28-1.37t.31-1.43a2.16 2.16 0 0 1 1.97-1.18q.78 0 1.33.36v-2.26h1.35V89h-1.16l-.08-.44q-.31.27-.68.41-.36.13-.86.13m.37-.99q.63 0 1.06-.43v-2.16a1.44 1.44 0 0 0-.98-.37q-1.26 0-1.26 1.62 0 .76.31 1.05t.87.29" opacity=".8"/><circle cx="245" cy="49" r="15" fill="#fff" stroke="#ffc472" stroke-width="2"/><path fill="#684002" d="M245.48 42.588c2.685.042 4.027.064 5.024 1.081.266.272.461.566.603.902.208.49.311.735.14.994-.171.258-.492.259-1.134.259h-2.401a2.88 2.88 0 1 0 0 5.76h2.361c.646 0 .969 0 1.14.257.171.258.066.507-.143 1.004a2.8 2.8 0 0 1-.606.908c-.993 1.004-2.372 1.028-5.13 1.074a40 40 0 0 1-1.845-.011c-2.423-.071-3.635-.106-4.602-1.048s-1.028-2.034-1.148-4.215a17 17 0 0 1-.008-1.753c.098-2.114.147-3.17 1.112-4.123.965-.952 2.176-.991 4.597-1.07a41 41 0 0 1 2.04-.019m5.62 4.388c.245 0 .458.175.498.417.167 1.036.141 1.699-.003 2.615a.506.506 0 0 1-.5.424h-3.388a1.729 1.729 0 0 1 0-3.456zm-3.258 1.048a.73.73 0 1 0 0 1.458.73.73 0 0 0 0-1.458"/><path fill="#684002" d="M231.836 124v-6.448l-1.378.221v-1.755l3.471-.52V124zm7.041.234q-1.404 0-2.262-.507t-1.248-1.482q-.377-.989-.377-2.379t.377-2.366q.39-.975 1.248-1.482.858-.52 2.262-.52 1.418 0 2.262.52.858.507 1.248 1.482t.39 2.366q0 1.39-.39 2.379-.39.975-1.248 1.482-.844.507-2.262.507m0-1.794q.988 0 1.365-.65.39-.663.39-1.924t-.39-1.911q-.376-.663-1.365-.663-.988 0-1.378.663-.377.65-.377 1.911t.377 1.924q.39.65 1.378.65m8.595 1.794q-1.404 0-2.262-.507t-1.248-1.482q-.378-.989-.377-2.379 0-1.39.377-2.366.39-.975 1.248-1.482.858-.52 2.262-.52 1.416 0 2.262.52.858.507 1.248 1.482t.39 2.366q0 1.39-.39 2.379-.39.975-1.248 1.482-.846.507-2.262.507m0-1.794q.987 0 1.365-.65.39-.663.39-1.924t-.39-1.911q-.378-.663-1.365-.663-.988 0-1.378.663-.377.65-.377 1.911t.377 1.924q.39.65 1.378.65m8.594 1.794q-1.404 0-2.262-.507t-1.248-1.482q-.377-.989-.377-2.379t.377-2.366q.39-.975 1.248-1.482.858-.52 2.262-.52 1.417 0 2.262.52.858.507 1.248 1.482t.39 2.366q0 1.39-.39 2.379-.39.975-1.248 1.482-.845.507-2.262.507m0-1.794q.988 0 1.365-.65.39-.663.39-1.924t-.39-1.911q-.377-.663-1.365-.663t-1.378.663q-.377.65-.377 1.911t.377 1.924q.39.65 1.378.65" opacity=".8"/><path fill="#684002" d="M223.785 136.1q-1.59 0-2.41-.87-.81-.87-.81-2.35 0-1.06.34-1.82a2.53 2.53 0 0 1 1.06-1.18q.71-.42 1.81-.42.56 0 1.02.09.47.08.87.22v.95a4.3 4.3 0 0 0-.86-.24 5 5 0 0 0-.95-.09q-1.2 0-1.7.64-.49.64-.49 1.85 0 1.13.54 1.72.54.58 1.67.58.46 0 .92-.07.47-.08.88-.24v.96a5.4 5.4 0 0 1-.87.2q-.46.07-1.02.07m4.427 0q-.45 0-.84-.16a1.4 1.4 0 0 1-.61-.48q-.23-.33-.23-.81 0-.68.46-1.09.47-.42 1.44-.42h1.52v-.21q0-.34-.11-.54-.1-.2-.38-.29-.27-.09-.8-.09-.84 0-1.57.25v-.81q.32-.13.78-.21.459-.08.99-.08 1.04 0 1.58.42.55.42.55 1.37V136h-.93l-.07-.48q-.291.28-.72.43-.42.15-1.06.15m.29-.78q.49 0 .85-.16a1.66 1.66 0 0 0 .6-.45v-.83h-1.5q-.48 0-.7.19-.21.18-.21.56 0 .37.25.53t.71.16m5.278.78q-.49 0-.94-.07a4.4 4.4 0 0 1-.73-.17v-.92q.34.13.75.2.411.07.78.07.56 0 .8-.1t.24-.39a.4.4 0 0 0-.15-.33 1.3 1.3 0 0 0-.43-.22 20 20 0 0 0-.72-.24 5 5 0 0 1-.73-.3 1.3 1.3 0 0 1-.48-.43q-.17-.26-.17-.68 0-.65.47-1 .47-.36 1.51-.36.411 0 .78.06t.63.15v.91a3.2 3.2 0 0 0-.62-.17 3.5 3.5 0 0 0-.62-.06q-.52 0-.79.09-.26.09-.26.36 0 .28.27.4.28.11.89.31.56.17.89.36t.47.46q.15.26.15.68 0 .7-.51 1.05-.51.34-1.48.34m3.059-.1v-6.74h1.09v2.46q.31-.25.74-.4.43-.16.97-.16.9 0 1.33.43t.43 1.34V136h-1.08v-3.02q0-.55-.24-.77-.23-.22-.81-.22-.36 0-.73.16-.37.15-.61.4V136zm5.781 2.16v-6.9h.94l.06.47a2.2 2.2 0 0 1 .7-.43q.381-.14.9-.14 1.02 0 1.59.56.57.55.57 1.83t-.59 1.92q-.59.63-1.61.63-.86 0-1.47-.4v2.46zm2.28-2.88q1.38 0 1.38-1.74 0-.84-.31-1.19-.31-.36-1.04-.36t-1.22.5v2.37q.231.19.51.31.29.11.68.11m5.811.82q-1.28 0-1.88-.64-.59-.64-.59-1.83t.6-1.83 1.87-.64q1.28 0 1.88.64t.6 1.83-.6 1.83q-.59.64-1.88.64m0-.92q.75 0 1.06-.36.32-.37.32-1.19t-.32-1.18q-.31-.36-1.06-.36-.74 0-1.06.36-.31.36-.31 1.18t.31 1.19q.32.36 1.06.36m3.745-4.91v-.9h1.19v.9zm.09 5.73v-3.91h-.72l.1-.83h1.71V136zm2.361 0v-4.74h1l.05.5q.32-.25.76-.42.45-.18.99-.18.92 0 1.34.43t.42 1.34V136h-1.08v-3.02q0-.55-.23-.77-.219-.22-.84-.22-.37 0-.73.15-.35.15-.59.39V136zm7.592.1q-.76 0-1.14-.4-.37-.41-.37-1.11v-2.48h-.7v-.85h.7v-1.09l1.08-.33v1.42h1.26l-.07.85h-1.19v2.42q0 .41.19.58.19.16.62.16.27 0 .57-.1v.77q-.39.16-.95.16m3.363 0q-.49 0-.94-.07a4.4 4.4 0 0 1-.73-.17v-.92q.34.13.75.2.411.07.78.07.56 0 .8-.1t.24-.39a.4.4 0 0 0-.15-.33 1.3 1.3 0 0 0-.43-.22 20 20 0 0 0-.72-.24 5 5 0 0 1-.73-.3 1.3 1.3 0 0 1-.48-.43q-.17-.26-.17-.68 0-.65.47-1 .47-.36 1.51-.36.411 0 .78.06t.63.15v.91a3.2 3.2 0 0 0-.62-.17 3.5 3.5 0 0 0-.62-.06q-.52 0-.79.09-.26.09-.26.36 0 .28.27.4.28.11.89.31.56.17.89.36t.47.46q.15.26.15.68 0 .7-.51 1.05-.51.34-1.48.34" opacity=".5"/><path stroke="#684002" d="M203.713 103h82" opacity=".15"/><path fill="#fdecce" d="M227 98h36v10h-36z"/><path fill="#684002" d="M237.213 106.09q-1.197 0-1.899-.576-.693-.585-.693-1.692v-3.618h1.215v3.528q0 .666.36.999.36.324 1.017.324t1.008-.324q.36-.333.36-.999v-3.528h1.215v3.618q0 1.107-.693 1.692-.693.576-1.89.576m3.562-.09v-5.796h2.718q.684 0 1.116.261.441.261.657.711t.216 1.026q0 .585-.252 1.035a1.7 1.7 0 0 1-.702.702q-.45.243-1.071.243h-1.467V106zm1.215-2.781h1.215q.522 0 .783-.27.27-.279.27-.747 0-.504-.252-.765-.252-.27-.756-.27h-1.26zm5.586 2.781v-4.86h-1.782v-.936h4.77v.936h-1.773V106zm6.119.09q-2.817 0-2.817-2.961 0-1.593.711-2.304t2.106-.711 2.106.711.711 2.304q0 2.961-2.817 2.961m0-1.035q.819 0 1.197-.468.387-.477.387-1.458 0-1.089-.387-1.53-.378-.45-1.197-.45t-1.206.45q-.378.441-.378 1.53 0 .981.378 1.458.387.468 1.206.468" opacity=".5"/></g><path fill="#4f2f06" d="M30.884 28.16q-2.672 0-4.064-1.344-1.392-1.36-1.392-3.824 0-2.576 1.424-4.016t4.192-1.44q.943 0 1.696.112a9 9 0 0 1 1.456.336v2.208a6.5 6.5 0 0 0-1.44-.352q-.737-.096-1.52-.096-1.665 0-2.432.8-.753.784-.752 2.448 0 1.52.72 2.256.72.72 2.128.72.927 0 1.728-.256V23.76h-2.224v-1.616h4.384v5.104q-.545.352-1.52.64-.96.272-2.384.272m9.287 0q-1.984 0-3.184-.976-1.2-.991-1.2-2.976 0-1.808.992-2.88t2.976-1.072q1.808 0 2.8.928t.992 2.496v1.36h-5.376q.176.752.816 1.056.656.288 1.776.288a7.3 7.3 0 0 0 1.264-.112q.656-.112 1.088-.288v1.68q-.545.255-1.296.368a10 10 0 0 1-1.648.128m-2-4.608h3.136v-.336q0-.56-.336-.88Q40.635 22 39.835 22q-.928 0-1.296.384-.368.368-.368 1.168m9.806 4.608q-1.408 0-2.08-.72-.656-.72-.656-1.984v-3.088h-1.024v-1.952h1.024v-1.584l2.576-.688v2.272h1.84l-.112 1.952h-1.728v2.912q0 .544.272.768.272.208.816.208.465 0 .944-.16v1.744q-.751.32-1.872.32m6.302-.16v-7.584h2.384l.08.672a4.5 4.5 0 0 1 1.152-.592q.64-.24 1.376-.24.768 0 1.2.24.432.225.672.64a4.8 4.8 0 0 1 1.184-.624q.672-.256 1.568-.256 1.328 0 1.952.688t.624 2.096V28h-2.544v-4.656q0-.624-.272-.896-.255-.288-.848-.288-.367 0-.72.16a1.6 1.6 0 0 0-.592.416q.032.176.032.336.015.16.016.384V28h-2.4v-4.688q0-.576-.208-.864-.192-.288-.752-.288-.4 0-.752.208a3.6 3.6 0 0 0-.64.48V28zm15.883.16q-.72 0-1.344-.256a2.2 2.2 0 0 1-.975-.784q-.368-.544-.368-1.344-.001-1.168.784-1.824.8-.672 2.383-.672h2.112v-.176q0-.576-.383-.816-.384-.255-1.44-.256-1.296 0-2.544.4v-1.664q.56-.224 1.36-.368a10 10 0 0 1 1.712-.144q1.76 0 2.751.72 1.008.72 1.009 2.288V28h-2.256l-.128-.64q-.417.384-1.072.592-.64.208-1.6.208m.816-1.584q.609 0 1.056-.208.45-.209.72-.528v-1.072H70.93q-1.136 0-1.136.912 0 .416.288.656.289.24.897.24M75.958 28l2.912-3.856-2.8-3.728h2.8l1.408 1.904 1.408-1.904h2.8l-2.8 3.728L84.597 28h-2.816l-1.504-2-1.504 2zm9.818-8.784V17.28h2.8v1.936zM85.983 28v-5.68h-1.12l.224-1.904h3.472V28zm4.218 0v-7.584h2.384l.08.672a4.5 4.5 0 0 1 1.152-.592q.64-.24 1.376-.24.768 0 1.2.24.432.225.672.64a4.8 4.8 0 0 1 1.184-.624q.671-.256 1.568-.256 1.328 0 1.952.688t.624 2.096V28h-2.544v-4.656q0-.624-.272-.896-.256-.288-.848-.288-.369 0-.72.16a1.6 1.6 0 0 0-.592.416q.032.176.032.336.016.16.016.384V28h-2.4v-4.688q0-.576-.208-.864-.192-.288-.752-.288-.4 0-.752.208a3.6 3.6 0 0 0-.64.48V28zm16.358.16q-1.344 0-2.096-.752-.752-.768-.752-2.224v-4.768h2.576v4.624q0 .64.304.944.32.288.944.288.463 0 .88-.192.415-.192.688-.48v-5.184h2.576V28h-2.4l-.08-.64q-.465.352-1.12.576-.657.224-1.52.224m6.751-.16v-7.584h2.384l.08.672a4.5 4.5 0 0 1 1.152-.592q.64-.24 1.376-.24.768 0 1.2.24.432.225.672.64a4.8 4.8 0 0 1 1.184-.624q.672-.256 1.568-.256 1.328 0 1.952.688t.624 2.096V28h-2.544v-4.656q0-.624-.272-.896-.256-.288-.848-.288-.368 0-.72.16a1.6 1.6 0 0 0-.592.416q.032.176.032.336.016.16.016.384V28h-2.4v-4.688q0-.576-.208-.864-.192-.288-.752-.288-.4 0-.752.208a3.6 3.6 0 0 0-.64.48V28zm21.94.16q-.768 0-1.344-.192a3.3 3.3 0 0 1-1.04-.608l-.128.64h-2.24V17.216h2.576v3.552q.432-.256.976-.384a5 5 0 0 1 1.12-.128q1.664 0 2.624.928.96.912.96 2.96t-.944 3.04q-.945.976-2.56.976m-.736-1.872q.863 0 1.232-.512.384-.527.384-1.616 0-1.12-.4-1.568-.385-.448-1.216-.448-.912 0-1.44.48v3.088q.576.576 1.44.576m9.61 1.872q-1.984 0-3.184-.976-1.2-.991-1.2-2.976 0-1.808.992-2.88t2.976-1.072q1.808 0 2.8.928t.992 2.496v1.36h-5.376q.175.752.816 1.056.656.288 1.776.288.624 0 1.264-.112.656-.112 1.088-.288v1.68a4.7 4.7 0 0 1-1.296.368 10 10 0 0 1-1.648.128m-2-4.608h3.136v-.336q0-.56-.336-.88-.336-.336-1.136-.336-.928 0-1.296.384-.368.368-.368 1.168M148.81 28v-7.584h2.4l.08.656a4.8 4.8 0 0 1 1.168-.56q.704-.256 1.504-.256 1.472 0 2.144.704.672.705.672 2.176V28h-2.576v-4.656q0-.64-.272-.912t-.976-.272q-.416 0-.848.192a2.4 2.4 0 0 0-.72.48V28zm13.486.16q-1.984 0-3.184-.976-1.2-.991-1.2-2.976 0-1.808.992-2.88.991-1.072 2.976-1.072 1.808 0 2.8.928t.992 2.496v1.36h-5.376q.175.752.816 1.056.656.288 1.776.288.624 0 1.264-.112.656-.112 1.088-.288v1.68a4.7 4.7 0 0 1-1.296.368 10 10 0 0 1-1.648.128m-2-4.608h3.136v-.336q0-.56-.336-.88Q162.76 22 161.96 22q-.928 0-1.296.384-.368.368-.368 1.168M167.35 28v-5.632h-1.008v-1.952h1.008v-.592q0-.816.384-1.472a2.8 2.8 0 0 1 1.152-1.04q.751-.4 1.824-.4 1.312 0 2.128.32v1.824q-.192-.096-.576-.144a4 4 0 0 0-.672-.064q-.928 0-1.296.256-.368.255-.368.784v.528h4.448V28h-2.576v-5.632h-1.872V28zm11.783.16q-1.407 0-2.08-.72-.656-.72-.656-1.984v-3.088h-1.024v-1.952h1.024v-1.584l2.576-.688v2.272h1.84l-.112 1.952h-1.728v2.912q0 .544.272.768.273.208.816.208.465 0 .944-.16v1.744q-.752.32-1.872.32m5.681 0q-.912 0-1.728-.128t-1.296-.32v-1.968q.56.24 1.296.368t1.312.128q.687 0 .992-.064.32-.064.32-.352 0-.32-.512-.48a63 63 0 0 1-1.408-.464q-1.041-.368-1.584-.848-.528-.495-.528-1.456 0-1.12.832-1.712.847-.608 2.688-.608.72 0 1.424.112t1.152.256v1.936a4 4 0 0 0-1.024-.304 6.4 6.4 0 0 0-1.04-.096 5.4 5.4 0 0 0-1.008.08q-.4.065-.4.336 0 .305.448.432.447.113 1.296.384.896.272 1.392.592.495.304.704.736.207.431.208 1.088 0 1.136-.896 1.744-.897.608-2.64.608m8.789-8.944V17.28h2.8v1.936zm.208 8.784v-5.68h-1.12l.224-1.904h3.472V28zm4.218 0v-7.584h2.4l.08.656a4.8 4.8 0 0 1 1.168-.56q.704-.256 1.504-.256 1.472 0 2.144.704.672.705.672 2.176V28h-2.576v-4.656q0-.64-.272-.912t-.976-.272q-.416 0-.848.192a2.4 2.4 0 0 0-.72.48V28zm15.321.16q-.72 0-1.344-.256a2.2 2.2 0 0 1-.976-.784q-.368-.544-.368-1.344 0-1.168.784-1.824.8-.672 2.384-.672h2.112v-.176q0-.576-.384-.816-.384-.255-1.44-.256-1.296 0-2.544.4v-1.664q.56-.224 1.36-.368a10 10 0 0 1 1.712-.144q1.76 0 2.752.72 1.008.72 1.008 2.288V28h-2.256l-.128-.64q-.416.384-1.072.592-.64.208-1.6.208m.816-1.584q.608 0 1.056-.208.449-.209.72-.528v-1.072h-1.824q-1.136 0-1.136.912 0 .416.288.656t.896.24M223.388 28v-7.584h2.384l.08.672a4.5 4.5 0 0 1 1.152-.592q.64-.24 1.376-.24.768 0 1.2.24.432.225.672.64a4.8 4.8 0 0 1 1.184-.624q.672-.256 1.568-.256 1.328 0 1.952.688t.624 2.096V28h-2.544v-4.656q0-.624-.272-.896-.255-.288-.848-.288-.368 0-.72.16a1.6 1.6 0 0 0-.592.416q.032.176.032.336.016.16.016.384V28h-2.4v-4.688q0-.576-.208-.864-.191-.288-.752-.288-.4 0-.752.208a3.6 3.6 0 0 0-.64.48V28zm17.609.16q-2.193 0-3.232-1.008-1.04-1.024-1.04-2.944 0-1.904 1.04-2.928 1.056-1.024 3.232-1.024 2.191 0 3.232 1.024 1.056 1.025 1.056 2.928 0 1.92-1.04 2.944-1.04 1.008-3.248 1.008m0-2.016q.896 0 1.28-.448t.384-1.488-.384-1.488-1.28-.448q-.88 0-1.264.448t-.384 1.488.384 1.488 1.264.448M246.591 28v-7.584h2.4l.08.656q.465-.32 1.168-.56a4.4 4.4 0 0 1 1.504-.256q1.472 0 2.144.704.672.705.672 2.176V28h-2.576v-4.656q0-.64-.272-.912-.271-.272-.976-.272-.416 0-.848.192a2.4 2.4 0 0 0-.72.48V28zm12.636.16q-1.408 0-2.08-.72-.656-.72-.656-1.984v-3.088h-1.024v-1.952h1.024v-1.584l2.576-.688v2.272h1.84l-.112 1.952h-1.728v2.912q0 .544.272.768.272.208.816.208.464 0 .944-.16v1.744q-.751.32-1.872.32m2.864-.16V17.216h2.576v3.76a3.5 3.5 0 0 1 1.072-.512 4.4 4.4 0 0 1 1.376-.208q1.52 0 2.224.72.72.72.72 2.208V28h-2.576v-4.64q0-.656-.272-.928-.271-.272-.976-.272-.416 0-.848.192a2.4 2.4 0 0 0-.72.48V28zm9.356-2.816-.096-4.784v-2.704h2.576V20.4l-.096 4.784zm-.16 2.816v-1.856h2.704V28z"/><path fill="#b47528" d="m94.542 157.093-.513-.45.99-.873-.954-.432.432-.585.828.45.162-.999h.756l-.252.999 1.008-.45.17.612-1.133.432.612.873-.64.423-.521-.963zM98.688 160l1.062-5.031h-1.854l.162-.765h4.68l-.162.765h-1.845L99.669 160zm5.439.09q-.936 0-1.413-.405-.477-.414-.333-1.098.126-.612.576-1.035a4.8 4.8 0 0 1 1.161-.765 3 3 0 0 1-.432-.621q-.144-.306-.054-.72.126-.567.585-.945.459-.387 1.224-.387.666 0 .999.369.342.36.216.963a1.7 1.7 0 0 1-.396.801q-.297.333-.855.657l1.044 1.359q.207-.306.297-.72l.027-.153h.747l-.036.171a3 3 0 0 1-.234.675 2.5 2.5 0 0 1-.36.567l.567.738-.702.54-.513-.648q-.405.342-.945.504-.54.153-1.17.153m.756-3.609q.432-.252.666-.45a.93.93 0 0 0 .306-.54q.072-.315-.045-.495-.117-.189-.522-.189-.387 0-.594.171a.8.8 0 0 0-.261.459.75.75 0 0 0 .054.513q.126.225.396.531m-.603 2.925q.891 0 1.485-.513l-1.179-1.521q-.549.207-.855.495-.306.279-.405.702-.09.414.18.63.279.207.774.207m6.714.684q-.873 0-1.449-.351a1.88 1.88 0 0 1-.801-1.008q-.216-.657-.027-1.539.207-.954.63-1.638a2.9 2.9 0 0 1 1.143-1.062q.72-.378 1.773-.378.504 0 .9.081.405.072.738.198l-.18.855a3.3 3.3 0 0 0-.729-.216 4 4 0 0 0-.837-.081q-1.08 0-1.647.576t-.801 1.665q-.216 1.017.117 1.548.342.522 1.431.522.414 0 .846-.063.432-.072.837-.216l-.189.864a6 6 0 0 1-.819.18 6.5 6.5 0 0 1-.936.063m4.582-.09 3.438-5.796h1.098l.972 5.796h-.972l-.261-1.494h-2.331l-.891 1.494zm2.259-2.25h2.016l-.45-2.655zm3.809 4.194 1.314-6.21h.846l-.036.423q.342-.261.711-.387t.837-.126q.576 0 .963.234t.531.729q.144.486-.018 1.26-.243 1.152-.846 1.692-.603.531-1.611.531-.774 0-1.242-.36l-.468 2.214zm2.601-2.592q.63 0 1.008-.351t.549-1.143q.162-.756-.009-1.107-.171-.36-.891-.36-.666 0-1.197.45l-.45 2.133q.162.171.396.279.243.099.594.099m2.646 2.592 1.314-6.21h.846l-.036.423q.342-.261.711-.387t.837-.126q.576 0 .963.234t.531.729q.144.486-.018 1.26-.243 1.152-.846 1.692-.603.531-1.611.531-.774 0-1.242-.36l-.468 2.214zm2.601-2.592q.63 0 1.008-.351t.549-1.143q.162-.756-.009-1.107-.171-.36-.891-.36-.666 0-1.197.45l-.45 2.133q.162.171.396.279.243.099.594.099m4.086.738q-.513 0-.729-.27-.207-.27-.09-.837l1.071-5.049h.981l-1.053 4.959q-.054.252 0 .342t.261.09q.216 0 .432-.054l-.153.711q-.18.063-.351.081a2 2 0 0 1-.369.027m2.537 1.494q-.144 0-.36-.018a9 9 0 0 1-.423-.027 3 3 0 0 1-.315-.045l.171-.783a2 2 0 0 0 .459.09q.279.027.468.027.72 0 1.224-.225t.612-.738l.063-.306q-.333.225-.765.378a2.7 2.7 0 0 1-.927.153q-.693 0-1.044-.432-.351-.441-.18-1.233l.567-2.691h.981l-.567 2.691q-.099.477.054.702t.702.225q.36 0 .693-.135t.603-.36l.666-3.123h.972l-.846 3.978a2.24 2.24 0 0 1-.441.945q-.333.423-.918.675t-1.449.252m3.66-.504.63-1.701h.855l-.774 1.701zm5.142-1.08 1.044-4.932-.972.162.171-.819 1.98-.297-1.251 5.886zm6.911.09q-.873 0-1.449-.351a1.88 1.88 0 0 1-.801-1.008q-.216-.657-.027-1.539.207-.954.63-1.638a2.9 2.9 0 0 1 1.143-1.062q.72-.378 1.773-.378.504 0 .9.081.405.072.738.198l-.18.855a3.3 3.3 0 0 0-.729-.216 4 4 0 0 0-.837-.081q-1.08 0-1.647.576t-.801 1.665q-.216 1.017.117 1.548.342.522 1.431.522.414 0 .846-.063.432-.072.837-.216l-.189.864a6 6 0 0 1-.819.18 6.5 6.5 0 0 1-.936.063m4.416 0q-.576 0-.972-.198a1.1 1.1 0 0 1-.531-.657q-.144-.459 0-1.197.153-.747.531-1.278a2.76 2.76 0 0 1 .909-.828 2.3 2.3 0 0 1 1.125-.288q.387 0 .657.09t.504.297l.063-.297h.981l-.9 4.266h-.837l.018-.423a2.5 2.5 0 0 1-.711.387 2.6 2.6 0 0 1-.837.126m.423-.738q.657 0 1.188-.45l.45-2.115a1.09 1.09 0 0 0-.891-.396q-.648 0-1.08.432-.432.423-.603 1.224-.108.504-.063.792a.53.53 0 0 0 .288.396q.243.117.711.117m4.517.738q-.441 0-.828-.063a3.5 3.5 0 0 1-.63-.153l.18-.828q.279.117.63.18.36.063.693.063.504 0 .738-.09a.47.47 0 0 0 .297-.351q.045-.189-.063-.297a1 1 0 0 0-.351-.198q-.243-.09-.612-.216a4 4 0 0 1-.603-.27.85.85 0 0 1-.342-.387q-.099-.234-.027-.612.126-.585.594-.9.468-.324 1.449-.324.369 0 .684.054.324.054.549.135l-.171.819a2.3 2.3 0 0 0-.522-.153 3 3 0 0 0-.558-.054q-.468 0-.72.081a.42.42 0 0 0-.306.324q-.054.252.171.36.225.099.738.279.468.153.729.324a.8.8 0 0 1 .342.414q.081.234 0 .612-.135.63-.621.945-.477.306-1.44.306m2.78-.09 1.287-6.066h.981l-.477 2.214q.324-.225.738-.36.423-.144.909-.144.774 0 1.089.414.324.405.162 1.179l-.585 2.763h-.972l.576-2.718q.099-.495-.054-.693-.144-.198-.702-.198-.324 0-.693.144-.36.135-.621.36l-.657 3.105zm4.798 1.944 1.314-6.21h.846l-.036.423q.342-.261.711-.387t.837-.126q.576 0 .963.234t.531.729q.144.486-.018 1.26-.243 1.152-.846 1.692-.603.531-1.611.531-.774 0-1.242-.36l-.468 2.214zm2.601-2.592q.63 0 1.008-.351t.549-1.143q.162-.756-.009-1.107-.171-.36-.891-.36-.666 0-1.197.45l-.45 2.133q.162.171.396.279.243.099.594.099m5.067.738q-1.062 0-1.521-.576-.45-.576-.225-1.647t.855-1.647 1.836-.576q1.098 0 1.539.576.45.576.225 1.647t-.855 1.647-1.854.576m.18-.828q.675 0 1.026-.324.351-.333.513-1.071.153-.738-.027-1.062t-.918-.324q-.666 0-1.026.324-.351.324-.504 1.062-.162.738.027 1.071.198.324.909.324m4.307-4.419.171-.81h1.071l-.171.81zM179.909 160l.747-3.519h-.648l.243-.747h1.539l-.9 4.266zm2.125 0 .9-4.266h.9l-.045.45q.333-.225.765-.378.432-.162.918-.162.783 0 1.098.414t.153 1.179l-.585 2.763h-.972l.576-2.718q.099-.495-.045-.693t-.729-.198q-.333 0-.684.135t-.612.351l-.657 3.123zm6.814.09q-.684 0-.945-.36-.261-.369-.126-.999l.477-2.232h-.63l.162-.765h.63l.207-.981 1.035-.297-.27 1.278h1.134l-.225.765h-1.071l-.459 2.178q-.09.414.045.54t.54.126q.252 0 .531-.09l-.144.693a2.6 2.6 0 0 1-.891.144m4.084-2.862.144-.693h3.474l-.144.693zm-.297 1.386.153-.702h3.474l-.153.702zm7.697 1.386-.351-1.62q-.063-.297-.234-.414-.162-.126-.612-.126l.126-.63h.477q.585 0 .972-.198.387-.207.531-.774h-1.764l.135-.63h1.746q.009-.774-.981-.774h-.603l.126-.63h3.285l-.126.63h-1.035q.324.252.306.774h.558l-.135.63h-.549q-.162.603-.576.945-.414.333-1.053.459a.9.9 0 0 1 .279.279q.072.126.126.378l.36 1.701zm3.34 0 1.044-4.932-.972.162.171-.819 1.98-.297-1.251 5.886z"/></g><defs><filter id="c" width="82.287" height="115" x="14.713" y="33" color-interpolation-filters="sRGB" filterUnits="userSpaceOnUse"><feFlood flood-opacity="0" result="BackgroundImageFix"/><feColorMatrix in="SourceAlpha" result="hardAlpha" values="0 0 0 0 0 0 0 0 0 0 0 0 0 0 0 0 0 0 127 0"/><feOffset dy="3"/><feComposite in2="hardAlpha" operator="out"/><feColorMatrix values="0 0 0 0 0.85098 0 0 0 0 0.658824 0 0 0 0 0.396078 0 0 0 1 0"/><feBlend in2="BackgroundImageFix" result="effect1_dropShadow_232_5134"/><feBlend in="SourceGraphic" in2="effect1_dropShadow_232_5134" result="shape"/></filter><filter id="d" width="82" height="115" x="109.713" y="33" color-interpolation-filters="sRGB" filterUnits="userSpaceOnUse"><feFlood flood-opacity="0" result="BackgroundImageFix"/><feColorMatrix in="SourceAlpha" result="hardAlpha" values="0 0 0 0 0 0 0 0 0 0 0 0 0 0 0 0 0 0 127 0"/><feOffset dy="3"/><feComposite in2="hardAlpha" operator="out"/><feColorMatrix values="0 0 0 0 0.85098 0 0 0 0 0.658824 0 0 0 0 0.396078 0 0 0 1 0"/><feBlend in2="BackgroundImageFix" result="effect1_dropShadow_232_5134"/><feBlend in="SourceGraphic" in2="effect1_dropShadow_232_5134" result="shape"/></filter><filter id="e" width="82.287" height="115" x="203.713" y="33" color-interpolation-filters="sRGB" filterUnits="userSpaceOnUse"><feFlood flood-opacity="0" result="BackgroundImageFix"/><feColorMatrix in="SourceAlpha" result="hardAlpha" values="0 0 0 0 0 0 0 0 0 0 0 0 0 0 0 0 0 0 127 0"/><feOffset dy="3"/><feComposite in2="hardAlpha" operator="out"/><feColorMatrix values="0 0 0 0 0.85098 0 0 0 0 0.658824 0 0 0 0 0.396078 0 0 0 1 0"/><feBlend in2="BackgroundImageFix" result="effect1_dropShadow_232_5134"/><feBlend in="SourceGraphic" in2="effect1_dropShadow_232_5134" result="shape"/></filter><linearGradient id="b" x1="260.5" x2="6.046" y1="171" y2="4.143" gradientUnits="userSpaceOnUse"><stop stop-color="#feb254"/><stop offset="1" stop-color="#ffefbc"/></linearGradient><clipPath id="a"><rect width="300" height="168" fill="#fff" rx="14"/></clipPath></defs></svg>