<svg xmlns="http://www.w3.org/2000/svg" width="75" height="75" fill="none" viewBox="0 0 75 75"><path fill="url(#a)" d="M32.9 4.22a6.805 6.805 0 0 1 9.2 0l2.497 2.292a6.8 6.8 0 0 0 5.376 1.746l3.366-.386a6.805 6.805 0 0 1 7.444 5.409l.673 3.32a6.8 6.8 0 0 0 3.322 4.573l2.95 1.667a6.805 6.805 0 0 1 2.844 8.75l-1.407 3.083a6.8 6.8 0 0 0 0 5.652l1.407 3.082a6.805 6.805 0 0 1-2.843 8.751l-2.95 1.667a6.8 6.8 0 0 0-3.323 4.572l-.673 3.321a6.805 6.805 0 0 1-7.444 5.408l-3.366-.385a6.8 6.8 0 0 0-5.376 1.746l-2.496 2.291a6.805 6.805 0 0 1-9.202 0l-2.496-2.29a6.8 6.8 0 0 0-5.376-1.747l-3.366.385a6.805 6.805 0 0 1-7.444-5.408l-.673-3.32a6.8 6.8 0 0 0-3.322-4.573l-2.95-1.667a6.805 6.805 0 0 1-2.844-8.75l1.407-3.083a6.8 6.8 0 0 0 0-5.652l-1.407-3.082a6.805 6.805 0 0 1 2.843-8.751l2.95-1.667a6.8 6.8 0 0 0 3.323-4.572l.673-3.321a6.805 6.805 0 0 1 7.444-5.409l3.366.386a6.8 6.8 0 0 0 5.376-1.746z"/><path stroke="url(#b)" stroke-opacity=".8" stroke-width="1.701" d="M32.324 3.594a7.656 7.656 0 0 1 10.352 0l2.497 2.29a5.96 5.96 0 0 0 4.703 1.53l3.366-.387a7.656 7.656 0 0 1 8.374 6.084l.674 3.322a5.96 5.96 0 0 0 2.907 4l2.95 1.668a7.656 7.656 0 0 1 3.199 9.844l-1.407 3.082a5.96 5.96 0 0 0 0 4.946l1.407 3.082a7.656 7.656 0 0 1-3.199 9.844l-2.95 1.667a5.96 5.96 0 0 0-2.907 4.001l-.674 3.322a7.656 7.656 0 0 1-8.374 6.084l-3.366-.386a5.96 5.96 0 0 0-4.703 1.528l-2.497 2.291a7.656 7.656 0 0 1-10.352 0l-2.497-2.29a5.96 5.96 0 0 0-4.703-1.53l-3.366.387a7.656 7.656 0 0 1-8.374-6.084l-.674-3.322a5.96 5.96 0 0 0-2.907-4l-2.95-1.668a7.656 7.656 0 0 1-3.199-9.844l1.408-3.082a5.96 5.96 0 0 0 0-4.946l-1.408-3.082a7.656 7.656 0 0 1 3.199-9.844l2.95-1.667a5.96 5.96 0 0 0 2.907-4.001l.674-3.322a7.656 7.656 0 0 1 8.374-6.084l3.366.386a5.96 5.96 0 0 0 4.703-1.528z"/><path fill="#fff" d="M58.861 4.713c.274-.74 1.322-.74 1.596 0l.908 2.454a.85.85 0 0 0 .502.502l2.454.908c.74.274.74 1.322 0 1.596l-2.454.908a.85.85 0 0 0-.502.502l-.908 2.454c-.274.74-1.322.74-1.596 0l-.908-2.454a.85.85 0 0 0-.502-.502l-2.454-.908c-.74-.274-.74-1.322 0-1.596l2.454-.908a.85.85 0 0 0 .502-.502z"/><defs><linearGradient id="a" x1="37.5" x2="36.081" y1="0" y2="69.858" gradientUnits="userSpaceOnUse"><stop stop-color="#42d9a2"/><stop offset=".526" stop-color="#12a978" stop-opacity=".905"/><stop offset="1" stop-color="#056b53" stop-opacity=".78"/></linearGradient><linearGradient id="b" x1="37.5" x2="37.5" y1="0" y2="75" gradientUnits="userSpaceOnUse"><stop stop-color="#fff"/><stop offset=".968" stop-color="#01ab64"/></linearGradient></defs></svg>