<svg xmlns="http://www.w3.org/2000/svg" width="93" height="52" fill="none" viewBox="0 0 93 52"><path fill="#f7881f" fill-rule="evenodd" d="M0 8a8 8 0 0 1 8-8h77a8 8 0 0 1 8 8v13.1a5.002 5.002 0 0 0 0 9.8V44a8 8 0 0 1-8 8H8a8 8 0 0 1-8-8V30.9a5.002 5.002 0 0 0 0-9.8z" clip-rule="evenodd"/><path fill="#fff" d="m21.218 35-.039-.03a48 48 0 0 1-2.98-4.105c-.417-.686-.688-1.222-.636-1.36.136-.36 2.563-.558 3.311-.231.227.099.222.23.222.306 0 .33-.017 1.215-.017 1.215 0 .182.151.33.338.33a.334.334 0 0 0 .337-.332l-.004-2.204c0-.191-.213-.239-.253-.246a398 398 0 0 0-2.033-.005c-1.878 0-2.297.076-2.616-.129-.691-.443-1.82-3.432-1.847-5.114-.038-2.372 1.394-4.426 3.411-5.444a6.3 6.3 0 0 1 2.8-.651c3.192 0 5.82 2.365 6.17 5.407v.008c.065.736-4.065.892-4.882.678-.125-.033-.157-.159-.157-.213l-.005-2.133a.335.335 0 0 0-.339-.331.335.335 0 0 0-.337.332l.007 2.9c.006.182.162.231.205.24l2.563-.001c1.367 0 1.942.155 2.324.441.254.19.353.554.267 1.028-.767 4.21-5.627 9.426-5.81 9.644m13.18-9.827c1.226.516 1.985 1.088 1.985 2.344 0 1.284-.99 2.112-2.522 2.112-1.242 0-2.238-.552-2.734-1.515l-.08-.155 1.459-.83.096.154c.328.527.696.752 1.229.752.46 0 .768-.2.768-.498 0-.33-.223-.453-.914-.75l-.351-.148c-.937-.392-1.805-.936-1.805-2.255 0-1.185.926-2.013 2.251-2.013 1.004 0 1.693.382 2.166 1.2l.088.152-1.414.893-.098-.172c-.236-.415-.459-.498-.742-.498-.296 0-.486.16-.486.408 0 .286.14.41.752.671zm10.332.243 1.031-2.82h1.769l-2.622 7.15h-.392l-1.59-3.349a7 7 0 0 1-.216-.518 7 7 0 0 1-.22.519l-1.652 3.348h-.39l-2.664-7.15h1.89l1.042 2.82c.066.18.134.4.194.603.07-.21.156-.437.245-.62l1.368-2.862h.379l1.39 2.863c.088.182.173.41.244.62.06-.205.128-.424.194-.604m4.863 4.124v-7.09h1.785v7.09zm7.638-2.382v-1.585h3.315v3.178l-.069.056c-.379.305-1.384.822-2.746.822-2.298 0-3.902-1.494-3.902-3.634 0-2.1 1.548-3.624 3.68-3.624 1.173 0 2.033.325 2.628.992l.116.13-1.217 1.183-.132-.134c-.34-.344-.692-.557-1.395-.557-1.092 0-1.855.827-1.855 2.01 0 1.233.815 2.03 2.077 2.03.418 0 .854-.07 1.15-.184v-.683zm9.047 0v-1.585h3.315v3.178l-.069.056c-.38.305-1.384.822-2.746.822-2.298 0-3.902-1.494-3.902-3.634 0-2.1 1.548-3.624 3.68-3.624 1.173 0 2.033.325 2.628.992l.116.13-1.216 1.183-.133-.134c-.34-.344-.692-.557-1.395-.557-1.092 0-1.855.827-1.855 2.01 0 1.233.815 2.03 2.077 2.03.418 0 .854-.07 1.15-.184v-.683zm9.856-4.708H78l-2.561 4.718v2.372h-1.795v-2.27l-2.728-4.82h1.99l1.262 2.262c.135.245.277.57.384.835.102-.262.238-.584.372-.833z"/></svg>