<svg xmlns="http://www.w3.org/2000/svg" width="94" height="53" fill="none" viewBox="0 0 94 53"><mask id="a" width="95" height="54" x="-.5" y="-.5" fill="#000" maskUnits="userSpaceOnUse"><path fill="#fff" d="M-.5-.5h95v54h-95z"/><path fill-rule="evenodd" d="M.5 8.5a8 8 0 0 1 8-8h77a8 8 0 0 1 8 8v13.1a5.002 5.002 0 0 0 0 9.8v13.1a8 8 0 0 1-8 8h-77a8 8 0 0 1-8-8V31.4a5.002 5.002 0 0 0 0-9.8z" clip-rule="evenodd"/></mask><path fill="#fff" fill-rule="evenodd" d="M.5 8.5a8 8 0 0 1 8-8h77a8 8 0 0 1 8 8v13.1a5.002 5.002 0 0 0 0 9.8v13.1a8 8 0 0 1-8 8h-77a8 8 0 0 1-8-8V31.4a5.002 5.002 0 0 0 0-9.8z" clip-rule="evenodd"/><path fill="#d9d9d9" d="m93.5 21.6.1.49.4-.081V21.6zm0 9.8h.5v-.409l-.4-.081zm-93 0-.1-.49-.4.081v.409zm0-9.8H0v.409l.4.081zM8.5.5V0A8.5 8.5 0 0 0 0 8.5h1A7.5 7.5 0 0 1 8.5 1zm77 0V0h-77v1h77zm8 8h.5A8.5 8.5 0 0 0 85.5 0v1A7.5 7.5 0 0 1 93 8.5zm0 13.1h.5V8.5h-1v13.1zm-4 4.9h.5a4.5 4.5 0 0 1 3.6-4.41l-.1-.49-.1-.49A5.5 5.5 0 0 0 89 26.5zm4 4.9.1-.49A4.5 4.5 0 0 1 90 26.5h-1c0 2.661 1.89 4.88 4.4 5.39zm0 13.1h.5V31.4h-1v13.1zm-8 8v.5a8.5 8.5 0 0 0 8.5-8.5h-1a7.5 7.5 0 0 1-7.5 7.5zm-77 0v.5h77v-1h-77zm-8-8H0A8.5 8.5 0 0 0 8.5 53v-1A7.5 7.5 0 0 1 1 44.5zm0-13.1H0v13.1h1V31.4zm4-4.9H4a4.5 4.5 0 0 1-3.6 4.41l.1.49.1.49A5.5 5.5 0 0 0 5 26.5zm-4-4.9-.1.49A4.5 4.5 0 0 1 4 26.5h1c0-2.661-1.89-4.88-4.4-5.39zm0-13.1H0v13.1h1V8.5z" mask="url(#a)"/><path fill="#000" d="M50.63 11.215h3.631v1.124h-1.076v2.755h-1.474V12.34H50.63zm5.712 1.533-.843 2.346h-1.502l1.512-3.88h1.665l1.514 3.88h-1.493zm-7.799 0-.843 2.346h-1.502l1.512-3.88h1.665l1.515 3.88h-1.494z"/><path fill="#ab1e40" d="M38.045 11.316h-9.01c-1.479 0-2.678 1.19-2.678 2.656v8.936c0 1.467 1.2 2.656 2.678 2.656h9.01c1.479 0 2.678-1.19 2.678-2.656v-8.936c0-1.466-1.2-2.656-2.678-2.656"/><path fill="#000" d="M65.913 21.316c.022-1.478-1.203-2.727-2.703-2.756-1.535-.029-2.84 1.219-2.879 2.753-.036 1.436 1.26 2.74 2.746 2.759 1.578.02 2.813-1.18 2.836-2.756m.586 2.407q.462.452.93.9a.64.64 0 0 1 .179.69c-.084.271-.286.426-.568.466-.232.034-.424-.062-.586-.22-.258-.252-.518-.502-.767-.764-.102-.107-.17-.125-.306-.04a4.25 4.25 0 0 1-2.346.654c-1.944-.021-3.66-1.508-3.984-3.414-.395-2.32 1.319-4.368 3.436-4.708 2.23-.358 4.366 1.147 4.712 3.354.165 1.047-.028 2.026-.61 2.924-.027.041-.05.086-.09.158M44.19 21.377c.021.537.073 1.063.242 1.574.262.793.835 1.204 1.649 1.286.328.033.667.018.997-.015.543-.054.963-.352 1.352-.714.137-.129.336-.237.52-.263.242-.035.44.112.553.34.119.24.08.458-.086.66-.442.537-1.019.864-1.683 1.045a4.7 4.7 0 0 1-2.84-.084c-.835-.29-1.42-.866-1.714-1.685-.507-1.413-.525-2.848-.002-4.258.458-1.234 1.431-1.82 2.714-1.97.687-.08 1.359-.037 2.015.178a2.8 2.8 0 0 1 1.385.959c.135.175.235.367.18.598-.109.471-.678.636-1.045.303-.176-.16-.339-.338-.53-.476-.706-.507-1.922-.543-2.661-.088-.569.35-.81.903-.923 1.52-.065.36-.083.727-.122 1.09m7.862 2.681h.29c.84 0 1.681-.003 2.522.001.32.001.534.149.623.409.086.252.025.518-.19.679a.65.65 0 0 1-.352.134c-1.21.01-2.421.015-3.632.006-.374-.003-.609-.27-.609-.647q-.003-3.31 0-6.622c0-.4.289-.687.677-.684s.67.291.67.695zm5.818-1.647c0 .712.004 1.424 0 2.137-.004.5-.333.799-.799.735a.65.65 0 0 1-.53-.477c-.02-.09-.03-.186-.03-.279q-.002-2.092-.002-4.186c0-.276.053-.527.312-.691a.67.67 0 0 1 1.032.453q.02.128.019.258v2.05z"/><path fill="#ab1e40" d="M58.072 17.65a.67.67 0 0 1 0 .953.683.683 0 0 1-.96 0l-.834-.826a.67.67 0 0 1 0-.953.684.684 0 0 1 .961 0z"/><path fill="#fff" d="M36.72 18.487c.023-1.605-1.306-2.96-2.933-2.99-1.665-.032-3.081 1.322-3.123 2.986-.04 1.559 1.367 2.973 2.979 2.994 1.712.023 3.052-1.28 3.077-2.99m.636 2.612q.502.488 1.009.977a.69.69 0 0 1 .194.748c-.09.295-.31.463-.615.507-.253.036-.46-.068-.636-.24-.28-.273-.563-.544-.833-.828-.11-.117-.183-.136-.332-.043a4.6 4.6 0 0 1-2.546.709c-2.109-.023-3.97-1.637-4.323-3.704-.43-2.518 1.43-4.74 3.729-5.11 2.42-.388 4.737 1.245 5.113 3.64.178 1.136-.03 2.2-.663 3.173-.03.045-.054.094-.098.171"/><path fill="#000" d="M42.84 11.215h3.631v1.124h-1.076v2.755H43.92V12.34h-1.08z"/><path fill="url(#b)" d="M10.5 36.5a6 6 0 0 1 6-6h61a6 6 0 0 1 6 6v16h-73z"/><path fill="#4b5f7c" d="M24.543 45.5v-1.108l2.588-2.397q.33-.32.554-.575.228-.256.345-.501a1.24 1.24 0 0 0 .117-.536 1 1 0 0 0-.146-.55.96.96 0 0 0-.397-.36 1.25 1.25 0 0 0-.572-.127q-.334 0-.582.135a.93.93 0 0 0-.384.387q-.135.252-.135.6h-1.46q0-.714.324-1.24.323-.525.905-.812t1.343-.288q.78 0 1.36.277.582.273.905.76.323.486.323 1.115 0 .411-.163.813-.16.402-.572.891-.411.487-1.16 1.169l-1.063 1.04v.05h3.054V45.5zm7.197.092a.83.83 0 0 1-.604-.248.83.83 0 0 1-.248-.604q0-.348.248-.596a.83.83 0 0 1 .604-.25q.34 0 .597.25.255.248.255.596 0 .234-.12.43a.9.9 0 0 1-.31.309.8.8 0 0 1-.422.113m4.678.007a3.1 3.1 0 0 1-1.343-.277q-.585-.276-.93-.763a1.96 1.96 0 0 1-.359-1.115h1.492q.024.423.355.685t.785.263q.361 0 .639-.16.28-.163.437-.45.16-.292.16-.668 0-.384-.164-.675a1.16 1.16 0 0 0-.444-.455 1.3 1.3 0 0 0-.65-.166q-.32 0-.621.13a1.1 1.1 0 0 0-.465.36l-1.367-.245.344-3.836h4.446v1.257h-3.178l-.188 1.822h.042q.191-.27.579-.447.387-.178.866-.178.657 0 1.172.31.516.308.813.848.3.536.295 1.236.004.735-.34 1.306a2.4 2.4 0 0 1-.956.895q-.61.324-1.42.323m7.77-1.463v-.383q0-.437.184-.803.189-.368.544-.59.358-.222.873-.223.522 0 .877.22.36.22.54.59.185.366.185.806v.383q0 .438-.185.806-.184.367-.543.586-.359.224-.874.224-.522 0-.877-.224a1.45 1.45 0 0 1-.54-.585 1.8 1.8 0 0 1-.184-.807m1.033-.383v.383q0 .252.12.476.126.224.448.224.323 0 .44-.22a1 1 0 0 0 .121-.48v-.383a1.05 1.05 0 0 0-.114-.483q-.112-.224-.447-.224-.32 0-.444.224a1 1 0 0 0-.124.483m-4.766-3.779v-.383q0-.44.189-.806.188-.37.543-.59.359-.22.866-.22.526 0 .88.22.357.22.54.59.185.366.185.806v.383q0 .441-.188.807-.184.365-.543.586-.355.216-.874.216-.518 0-.877-.22a1.5 1.5 0 0 1-.54-.586 1.8 1.8 0 0 1-.18-.803m1.04-.383v.383q0 .26.122.48.123.22.436.22.327 0 .444-.22a1 1 0 0 0 .12-.48v-.383q0-.26-.113-.483-.113-.224-.45-.224-.317 0-.437.227-.121.228-.121.48m-.571 5.909 5-7.273h.93l-5 7.273zm16.917-3.636q0 1.189-.451 2.024a3.13 3.13 0 0 1-1.222 1.275 3.45 3.45 0 0 1-1.733.436 3.44 3.44 0 0 1-1.74-.44 3.14 3.14 0 0 1-1.218-1.275q-.447-.834-.447-2.02 0-1.19.447-2.024a3.1 3.1 0 0 1 1.218-1.272 3.44 3.44 0 0 1 1.74-.44q.963 0 1.733.44.774.437 1.222 1.272.45.833.45 2.024m-1.56 0q0-.77-.23-1.3-.228-.529-.643-.803a1.73 1.73 0 0 0-.973-.273 1.73 1.73 0 0 0-.973.273q-.415.274-.646.803-.227.53-.227 1.3t.227 1.3q.231.529.646.802t.973.273.973-.273.643-.803q.23-.528.23-1.3M58.98 45.5v-7.273h4.815v1.268h-3.278v1.733h2.958v1.268h-2.958V45.5zm5.85 0v-7.273h4.815v1.268h-3.278v1.733h2.958v1.268h-2.958V45.5z"/><defs><linearGradient id="b" x1="47" x2="47" y1="30.5" y2="64.111" gradientUnits="userSpaceOnUse"><stop stop-color="#b8d3fa"/><stop offset="1" stop-color="#d9d9d9" stop-opacity="0"/><stop offset="1" stop-color="#b8d3fa" stop-opacity="0"/></linearGradient></defs></svg>