<svg xmlns="http://www.w3.org/2000/svg" width="96" height="55" fill="none" viewBox="0 0 96 55"><path fill="#216edd" d="M96 19.01c-2.105.165-3.761 1.841-3.761 3.885 0 2.042 1.656 3.72 3.761 3.883v13.034c0 3.588-3.062 6.496-6.834 6.496H17c-3.774 0-6.834-2.908-6.834-6.496V26.79c2.265 0 4.1-1.745 4.1-3.896 0-2.152-1.835-3.898-4.1-3.898v-12.5C10.166 2.907 13.226 0 17 0h72.166C92.938 0 96 2.908 96 6.496z"/><g filter="url(#a)"><path fill="url(#b)" d="M88.833 24.702c-2.104.165-3.76 1.84-3.76 3.885 0 2.042 1.656 3.72 3.76 3.882v13.034C88.833 49.091 85.772 52 82 52H9.834C6.059 52 3 49.09 3 45.503v-13.02c2.264 0 4.1-1.746 4.1-3.896 0-2.153-1.836-3.898-4.1-3.898V12.188C3 8.6 6.06 5.692 9.834 5.692H82c3.772 0 6.833 2.908 6.833 6.496z"/><path stroke="url(#c)" stroke-opacity=".2" d="M9.834 6.192H82c3.52 0 6.333 2.708 6.333 5.996v12.074c-2.122.376-3.76 2.152-3.76 4.325 0 2.17 1.638 3.947 3.76 4.321v12.595c0 3.288-2.813 5.996-6.333 5.996H9.834c-3.523 0-6.334-2.707-6.334-5.996V32.955c2.286-.237 4.1-2.082 4.1-4.368 0-2.288-1.814-4.134-4.1-4.372V12.188l.008-.307c.168-3.148 2.914-5.69 6.326-5.69Z"/><path stroke="url(#d)" stroke-opacity=".2" d="M9.834 6.192H82c3.52 0 6.333 2.708 6.333 5.996v12.074c-2.122.376-3.76 2.152-3.76 4.325 0 2.17 1.638 3.947 3.76 4.321v12.595c0 3.288-2.813 5.996-6.333 5.996H9.834c-3.523 0-6.334-2.707-6.334-5.996V32.955c2.286-.237 4.1-2.082 4.1-4.368 0-2.288-1.814-4.134-4.1-4.372V12.188l.008-.307c.168-3.148 2.914-5.69 6.326-5.69Z"/></g><path stroke="#fff" stroke-linecap="round" stroke-linejoin="round" stroke-miterlimit="1.5" stroke-width="1.389" d="M45.113 23h7.682m-12.743 0h2.584m-5.319 0h.416"/><path stroke="#fff" stroke-linecap="round" stroke-linejoin="round" stroke-miterlimit="1.5" stroke-width="1.279" d="M50.3 19.652c.808 1.42 1.931 2.524 3.334 3.347"/><path stroke="#fff" stroke-linecap="round" stroke-linejoin="round" stroke-miterlimit="1.5" stroke-width="1.279" d="M50.3 26.345c.808-1.42 1.931-2.524 3.334-3.348"/><g filter="url(#e)"><path fill="#fff" d="m22.6 30.985 1.812 5.478h.071l1.808-5.478h1.387l-2.454 6.96h-1.556l-2.45-6.96zm5.94 6.96v-5.22h1.23v5.22zm.619-5.961a.72.72 0 0 1-.503-.194.62.62 0 0 1-.21-.472q0-.28.21-.473a.7.7 0 0 1 .503-.197q.295 0 .503.197.21.194.21.473 0 .274-.21.472a.7.7 0 0 1-.503.194m4.187 6.063q-.785 0-1.355-.327a2.2 2.2 0 0 1-.874-.93q-.306-.606-.306-1.425 0-.806.306-1.413.31-.612.863-.952.554-.343 1.302-.343.483 0 .91.156.432.152.762.476.333.323.523.822.19.496.19 1.183v.377H31.39v-.83h3.1a1.3 1.3 0 0 0-.154-.628 1.1 1.1 0 0 0-.418-.438 1.2 1.2 0 0 0-.618-.16q-.377 0-.663.183-.285.181-.445.476a1.4 1.4 0 0 0-.16.643v.724q0 .455.167.781.166.322.465.496.3.17.7.17.27 0 .486-.075.218-.078.378-.227a.95.95 0 0 0 .24-.37l1.15.128q-.11.457-.415.796-.303.336-.775.523a3 3 0 0 1-1.08.184m4.412-.102-1.475-5.22h1.254l.917 3.67h.048l.938-3.67h1.24l.938 3.65h.051l.904-3.65h1.258l-1.479 5.22h-1.281l-.979-3.528h-.071l-.979 3.528zm9.305 0v-5.22h1.176v.887h.061q.164-.45.54-.7a1.57 1.57 0 0 1 .901-.255q.53 0 .894.258.367.255.517.697h.054q.173-.435.584-.694.415-.261.983-.261.72 0 1.175.455.456.456.456 1.329v3.504H53.17V34.63q0-.486-.258-.71a.92.92 0 0 0-.632-.228q-.446 0-.697.279-.248.274-.248.717v3.256h-1.206V34.58q0-.405-.245-.645-.242-.242-.632-.242a.9.9 0 0 0-.483.136.95.95 0 0 0-.346.377q-.13.242-.13.564v3.175zm10.866.102q-.765 0-1.326-.337a2.3 2.3 0 0 1-.87-.941q-.305-.606-.305-1.414 0-.81.305-1.417a2.3 2.3 0 0 1 .87-.945q.561-.336 1.326-.336.764 0 1.325.336.561.337.867.945.309.608.309 1.417t-.31 1.414a2.26 2.26 0 0 1-.866.941q-.561.337-1.325.337m.007-.986q.414 0 .693-.228.279-.231.414-.618.14-.388.14-.863 0-.48-.14-.867a1.37 1.37 0 0 0-.414-.622 1.05 1.05 0 0 0-.693-.231q-.426 0-.707.231a1.4 1.4 0 0 0-.418.622q-.136.387-.136.867 0 .476.136.863.14.387.418.618.282.228.707.228m3.538.884v-5.22h1.193v.87h.054q.144-.453.49-.697.35-.248.798-.248.102 0 .228.01.129.008.214.024v1.132a1.3 1.3 0 0 0-.248-.048 2 2 0 0 0-.323-.024q-.336 0-.605.146a1.07 1.07 0 0 0-.418.398 1.1 1.1 0 0 0-.153.588v3.069zm5.89.102q-.784 0-1.356-.327a2.2 2.2 0 0 1-.873-.93q-.306-.606-.306-1.425 0-.806.306-1.413.31-.612.863-.952.554-.343 1.302-.343.483 0 .91.156.432.152.762.476.333.323.523.822.19.496.19 1.183v.377h-4.278v-.83h3.1a1.3 1.3 0 0 0-.154-.628 1.1 1.1 0 0 0-.418-.438 1.2 1.2 0 0 0-.618-.16q-.377 0-.663.183-.285.181-.445.476a1.4 1.4 0 0 0-.16.643v.724q0 .455.167.781.166.322.465.496.3.17.7.17.27 0 .486-.075.218-.078.378-.227a.95.95 0 0 0 .24-.37l1.15.128q-.11.457-.415.796a2 2 0 0 1-.775.523 3 3 0 0 1-1.08.184"/></g><defs><linearGradient id="b" x1="77.127" x2="24.283" y1="11.177" y2="50.142" gradientUnits="userSpaceOnUse"><stop stop-color="#569afd"/><stop offset="1" stop-color="#1a6ee7"/></linearGradient><linearGradient id="c" x1="70.481" x2="59.738" y1="6.803" y2="38.252" gradientUnits="userSpaceOnUse"><stop stop-color="#c8dfff"/><stop offset="1" stop-color="#5297fc" stop-opacity="0"/></linearGradient><linearGradient id="d" x1="37.763" x2="41.003" y1="56.858" y2="32.029" gradientUnits="userSpaceOnUse"><stop stop-color="#18488f"/><stop offset="1" stop-color="#01265b" stop-opacity="0"/></linearGradient><filter id="a" width="93.833" height="54.308" x="0" y=".692" color-interpolation-filters="sRGB" filterUnits="userSpaceOnUse"><feFlood flood-opacity="0" result="BackgroundImageFix"/><feColorMatrix in="SourceAlpha" result="hardAlpha" values="0 0 0 0 0 0 0 0 0 0 0 0 0 0 0 0 0 0 127 0"/><feOffset dx="1" dy="-1"/><feGaussianBlur stdDeviation="2"/><feComposite in2="hardAlpha" operator="out"/><feColorMatrix values="0 0 0 0 0 0 0 0 0 0 0 0 0 0 0 0 0 0 0.15 0"/><feBlend in2="BackgroundImageFix" result="effect1_dropShadow_634_1364"/><feBlend in="SourceGraphic" in2="effect1_dropShadow_634_1364" result="shape"/></filter><filter id="e" width="50.382" height="9.312" x="20.261" y="29.691" color-interpolation-filters="sRGB" filterUnits="userSpaceOnUse"><feFlood flood-opacity="0" result="BackgroundImageFix"/><feColorMatrix in="SourceAlpha" result="hardAlpha" values="0 0 0 0 0 0 0 0 0 0 0 0 0 0 0 0 0 0 127 0"/><feOffset/><feGaussianBlur stdDeviation=".478"/><feComposite in2="hardAlpha" operator="out"/><feColorMatrix values="0 0 0 0 0 0 0 0 0 0 0 0 0 0 0 0 0 0 0.25 0"/><feBlend in2="BackgroundImageFix" result="effect1_dropShadow_634_1364"/><feBlend in="SourceGraphic" in2="effect1_dropShadow_634_1364" result="shape"/></filter></defs></svg>